<?xml version="1.0" encoding="utf-8"?>
<!-- Generator: Adobe Illustrator 24.2.3, SVG Export Plug-In . SVG Version: 6.00 Build 0)  -->
<svg version="1.1" id="Layer_1" xmlns="http://www.w3.org/2000/svg" xmlns:xlink="http://www.w3.org/1999/xlink" x="0px" y="0px"
	 viewBox="0 0 1233.3 1052.9" style="enable-background:new 0 0 1233.3 1052.9;" xml:space="preserve">
<style type="text/css">
	.st0{clip-path:url(#SVGID_2_);}
	.st1{fill:#263238;}
	.st2{fill:#EBEBEB;}
	.st3{fill:#455A64;}
	.st4{fill:#FFFFFF;}
	.st5{fill:#04747F;}
	.st6{fill:#DBDBDB;}
	.st7{fill:#C7C7C7;}
	.st8{fill:#DC6A57;}
	.st9{fill:#37474F;}
	.st10{fill:#AD6359;}
	.st11{opacity:0.3;fill:#263238;enable-background:new    ;}
	.st12{fill:#A6A6A6;}
	.st13{fill:#DD6A57;}
	.st14{fill:none;stroke:#C7C7C7;stroke-width:0.6434;stroke-miterlimit:10.0002;}
	.st15{fill:#FF9CBD;}
	.st16{fill:#EB9481;}
	.st17{fill:#2F2E0C;}
	.st18{clip-path:url(#SVGID_4_);}
	.st19{fill:#E9F4F4;}
	.st20{fill:#F6ACAB;}
	.st21{fill:#F2F2F2;}
	.st22{fill:url(#SVGID_5_);}
	.st23{fill:url(#SVGID_6_);}
	.st24{fill:#004E53;}
	.st25{fill:#004549;}
	.st26{fill:none;stroke:#068991;stroke-width:2.7694;stroke-miterlimit:10;}
	.st27{fill:#B8705D;}
	.st28{fill:#4344D3;}
	.st29{fill:#383838;}
	.st30{fill:#068991;}
	.st31{fill:#C38273;}
	.st32{fill:#768CC9;}
	.st33{fill:#3F27DE;}
	.st34{fill:url(#SVGID_7_);}
	.st35{fill:#F7B8B7;}
	.st36{fill:url(#SVGID_8_);}
	.st37{fill:url(#SVGID_9_);}
	.st38{fill:none;stroke:#000000;stroke-width:2.8632;stroke-linecap:round;stroke-linejoin:round;stroke-miterlimit:10;}
	.st39{fill:url(#SVGID_10_);}
	.st40{fill:url(#SVGID_11_);}
	.st41{fill:url(#SVGID_12_);}
	.st42{fill:url(#SVGID_13_);}
	.st43{fill:url(#SVGID_14_);}
	.st44{fill:none;stroke:#3F27DE;stroke-width:1.2868;stroke-linecap:round;stroke-linejoin:round;}
	.st45{fill:none;stroke:#068991;stroke-width:1.2868;stroke-linecap:round;stroke-linejoin:round;stroke-dasharray:6.73,6.73;}
	.st46{fill:url(#SVGID_15_);}
	.st47{clip-path:url(#SVGID_17_);}
	.st48{fill:#F5F5F5;}
	.st49{fill:#E0E0E0;}
	.st50{fill:#18676B;}
	.st51{opacity:0.75;fill:#FFFFFF;enable-background:new    ;}
	.st52{opacity:0.2;enable-background:new    ;}
	.st53{opacity:0.1;enable-background:new    ;}
	.st54{fill:#FAFAFA;}
	.st55{fill:#F28F8F;}
	.st56{fill:#FFA8A7;}
	.st57{opacity:0.3;enable-background:new    ;}
	.st58{opacity:0.7;fill:#FFFFFF;enable-background:new    ;}
	.st59{fill:#FAFAFA;stroke:#EBEBEB;stroke-width:0.7854;stroke-miterlimit:10;}
	.st60{opacity:0.5;enable-background:new    ;}
	.st61{opacity:0.35;enable-background:new    ;}
	.st62{fill:#F0F0F0;}
	.st63{fill:#E6E6E6;}
	.st64{opacity:0.25;}
	.st65{opacity:0.1;}
	.st66{opacity:0.2;}
	.st67{opacity:0.4;}
	.st68{opacity:0.6;}
	.st69{opacity:0.5;}
	.st70{opacity:0.3;}
	.st71{opacity:0.45;}
	.st72{opacity:0.35;}
	.st73{opacity:0.4;enable-background:new    ;}
	.st74{opacity:0.25;enable-background:new    ;}
	.st75{opacity:0.2;fill:#FFFFFF;enable-background:new    ;}
	.st76{opacity:0.15;enable-background:new    ;}
	.st77{opacity:0.5;fill:#FFFFFF;enable-background:new    ;}
	.st78{fill:none;}
	.st79{clip-path:url(#SVGID_19_);}
	.st80{opacity:0.2;fill:#652427;enable-background:new    ;}
	.st81{fill:#3C878F;}
	.st82{fill:#C0C6AB;}
	.st83{fill:#0C1016;}
	.st84{fill:#5A367C;}
	.st85{fill:#8852BB;}
	.st86{fill:#DCE0CC;}
	.st87{fill:#1F4D52;}
	.st88{fill:#79BECF;}
	.st89{fill:#706F6F;}
	.st90{fill:#002626;}
	.st91{fill:#2C2853;}
	.st92{fill:#0A1E1D;}
	.st93{fill:#9866C0;}
	.st94{fill:#DAECEA;}
	.st95{fill:#F2B087;}
	.st96{fill:#3C284D;}
	.st97{fill:#ECAA4D;}
	.st98{fill:#9C9C9B;}
	.st99{fill:#808080;}
	.st100{fill:#F8D898;}
	.st101{fill:#271A31;}
	.st102{opacity:0.5;fill:#F8D898;enable-background:new    ;}
	.st103{fill:#1F1C3B;}
	.st104{fill:#66A1D3;}
	.st105{opacity:0.5;fill:#507FA6;enable-background:new    ;}
	.st106{fill:#ABD2CC;}
	.st107{fill:#1D1D1B;}
	.st108{fill:#386FB2;}
	.st109{fill:#E89D6C;}
	.st110{fill:#B1B1B1;}
	.st111{fill:#507FA6;}
	.st112{fill:#3C3C3B;}
	.st113{fill:#D99267;}
	.st114{fill:#575756;}
	.st115{fill:#4B4B4A;}
	.st116{fill:#868686;}
	.st117{opacity:0.5;fill:#9C9C9B;enable-background:new    ;}
	.st118{clip-path:url(#SVGID_21_);}
	.st119{clip-path:url(#SVGID_23_);}
	.st120{clip-path:url(#SVGID_25_);}
	.st121{fill:#EFEFEF;}
	.st122{clip-path:url(#SVGID_27_);}
	.st123{fill:#F7D3B6;}
	.st124{fill:#58595B;}
	.st125{fill:#221F20;}
	.st126{fill:#323133;}
	.st127{fill:#3A393B;}
	.st128{fill:#414042;}
	.st129{fill:#EA514F;}
	.st130{fill:#EAC8AD;}
	.st131{fill:#303030;}
	.st132{fill:#1A4448;}
	.st133{fill:#19777C;}
	.st134{fill:#163B3D;}
	.st135{fill:#1A2F30;}
	.st136{fill:#979797;}
	.st137{fill:#FBFBFB;}
	.st138{fill:#CED0D1;}
	.st139{fill:#D63731;}
	.st140{fill:#D0D2D3;}
	.st141{fill:#E5E6E7;}
	.st142{fill:#BBBDBF;}
	.st143{fill:#F0F1F1;}
	.st144{fill:#99735C;}
	.st145{fill:#8B6954;}
	.st146{fill:#AA7F66;}
	.st147{fill:#C19174;}
	.st148{fill:#BD8E72;}
	.st149{fill:#CF9C62;}
	.st150{fill:#DEBEA4;}
	.st151{fill:#3C3B3D;}
	.st152{opacity:0.2;fill:#221F20;enable-background:new    ;}
	.st153{fill:#EB5B5A;}
	.st154{fill:#93643F;}
	.st155{fill:#F7D6B4;}
	.st156{fill:#EF9446;}
	.st157{fill:#D7853F;}
	.st158{fill:#E18A42;}
	.st159{fill:#A8352F;}
	.st160{fill:#071CA9;}
	.st161{fill:#F9F9F9;}
	.st162{fill:#262526;}
	.st163{fill:#6D6E71;}
	.st164{fill:#B77A36;}
	.st165{fill:#6C5CA5;}
	.st166{fill:#4A4B4D;}
	.st167{fill:#806440;}
	.st168{fill:#BC9B72;}
	.st169{fill:#684F34;}
	.st170{fill:#F0A059;}
	.st171{fill:#024E53;}
	.st172{fill:#00876D;}
	.st173{fill:#00C3A6;}
	.st174{opacity:0.5;fill:#FFFFFF;}
	.st175{fill:#002644;}
	.st176{fill:#BC8F63;}
	.st177{fill:#D4AB79;}
	.st178{fill:#2F8688;}
	.st179{fill:#006467;}
	.st180{fill:#C7D5FF;}
	.st181{fill:#00B9BF;}
	.st182{fill:#FDA897;}
	.st183{fill:#333B84;}
	.st184{fill:none;stroke:#002644;stroke-width:0.2386;stroke-linecap:round;stroke-linejoin:round;stroke-miterlimit:10;}
	.st185{fill:#C86856;}
	.st186{fill:none;stroke:#AB4D3B;stroke-width:0.25;stroke-linecap:round;stroke-linejoin:round;stroke-miterlimit:10;}
	.st187{fill:#AB4D3B;}
	.st188{fill:#D43E37;}
	.st189{fill:none;stroke:#002644;stroke-width:0.4773;stroke-linecap:round;stroke-linejoin:round;stroke-miterlimit:10;}
	.st190{fill:#67D5C0;}
	.st191{fill:#4A51A9;}
	.st192{font-family:'Poppins-Medium';}
	.st193{font-size:53.1624px;}
</style>
<path class="st48" d="M50.6,362.6c-4.4,130.3,52.3,259.3,143.7,352.2c91.4,92.9,215.3,150.8,343.8,172.8
	c131.1,22.5,270.9,7.8,387.8-55.6c117-63.4,208.3-178.5,228.9-309.9c20.6-131.5-36.5-275.6-149.5-345.8
	c-72.8-45.2-160.3-58-242.5-82C649.1,61.2,543.3,7.8,423.2,1.3c-70.6-3.8-142,14.2-202.9,50c-66.8,39.3-108.8,97-138.3,168
	C63.1,264.7,52.3,313.5,50.6,362.6z"/>
<g>
	<g>
		<g>
			<path class="st171" d="M76.4,178.4c0.2,0,0.4,0.1,0.6,0.1c0.4,0,0.9-0.1,1.2-0.4l6.8-4.3c1.1-0.7,1.4-2.1,0.7-3.2
				c-0.7-1.1-2.1-1.4-3.2-0.7l-1.4,0.9c6.4-16.6,22.5-27.9,40.8-27.9c24.1,0,43.7,19.6,43.7,43.7c0,1.3,1,2.3,2.3,2.3
				c1.3,0,2.3-1,2.3-2.3c0-26.7-21.7-48.4-48.4-48.4c-20.6,0-38.7,12.9-45.5,31.9l-1.1-1.9c-0.6-1.1-2.1-1.5-3.2-0.9
				c-1.1,0.6-1.5,2.1-0.9,3.2l3.8,6.8C75.2,177.8,75.8,178.2,76.4,178.4z"/>
			<path class="st171" d="M171.9,204.2l-3.8-6.8c-0.3-0.6-0.8-1-1.5-1.1c-0.2,0-0.4-0.1-0.6-0.1c-0.4,0-0.9,0.1-1.2,0.4l-6.8,4.3
				c-1.1,0.7-1.4,2.1-0.7,3.2c0.7,1.1,2.1,1.4,3.2,0.7l1.4-0.9c-6.4,16.6-22.5,27.9-40.8,27.9c-24.1,0-43.7-19.6-43.7-43.7
				c0-1.3-1-2.3-2.3-2.3s-2.3,1-2.3,2.3c0,26.7,21.7,48.4,48.4,48.4c20.6,0,38.7-12.9,45.5-31.9l1.1,1.9c0.6,1.1,2.1,1.5,3.2,0.9
				C172.2,206.7,172.6,205.3,171.9,204.2z"/>
		</g>
		<g>
			<path class="st171" d="M643.6,40c-1.4,0-2.5,1.1-2.5,2.5v17.3c0,6.3-5.2,11.5-11.5,11.5h-43.6c-6.3,0-11.5-5.2-11.5-11.5V16.2
				c0-6.3,5.2-11.5,11.5-11.5h43.6c4.4,0,8.5,2.6,10.4,6.6c0.6,1.3,2.1,1.8,3.4,1.2c1.3-0.6,1.8-2.1,1.2-3.4
				c-2.7-5.8-8.6-9.6-15-9.6h-43.6c-9.1,0-16.6,7.4-16.6,16.6v43.6c0,9.1,7.4,16.6,16.6,16.6h43.6c9.1,0,16.6-7.4,16.6-16.6V42.5
				C646.1,41.1,645,40,643.6,40z"/>
			<path class="st171" d="M659.2,12.5c-0.8-1.1-2.4-1.4-3.5-0.6l-45.5,32.9l-11.9-15.9c-0.8-1.1-2.4-1.4-3.6-0.5
				c-1.1,0.8-1.4,2.4-0.5,3.6l13.4,17.9c0.5,0.7,1.3,1,2,1c0.5,0,1-0.2,1.5-0.5l47.5-34.3C659.8,15.2,660,13.7,659.2,12.5z"/>
		</g>
		<path class="st171" d="M1197.7,434.1c0-0.1,0-0.2-0.1-0.3c0-0.1-0.1-0.2-0.1-0.3c0,0,0-0.1-0.1-0.2c0,0,0,0-0.1-0.1
			c-0.1-0.1-0.1-0.1-0.2-0.2c-0.1-0.1-0.1-0.1-0.2-0.1c-0.1,0-0.2-0.1-0.2-0.1c-0.1,0-0.2,0-0.3-0.1c0,0-0.1,0-0.1,0h-101.1
			c0,0-0.1,0-0.1,0c-0.1,0-0.2,0-0.3,0.1c-0.1,0-0.2,0-0.3,0.1c-0.1,0-0.1,0.1-0.2,0.1c-0.1,0.1-0.2,0.1-0.2,0.2c0,0,0,0-0.1,0.1
			c0,0,0,0.1-0.1,0.2c0,0.1-0.1,0.2-0.1,0.3c0,0.1,0,0.2-0.1,0.3c0,0.1,0,0.1,0,0.2v63.4c0,0.8,0.6,1.4,1.4,1.4h101.1
			c0.8,0,1.4-0.6,1.4-1.4v-63.4C1197.8,434.2,1197.7,434.1,1197.7,434.1z M1195,495.2l-35.9-30.6l35.9-27.5V495.2z M1096.6,437.1
			l35.9,27.5l-35.9,30.6V437.1z M1145.8,471.2l-46.4-35.6h92.9L1145.8,471.2z M1134.8,466.3l10.1,7.7c0.3,0.2,0.6,0.3,0.9,0.3
			c0.3,0,0.6-0.1,0.9-0.3l10.1-7.7l35.1,29.9h-92.1L1134.8,466.3z"/>
	</g>
</g>
<g>
	<g>
		<g>
			
				<rect x="71.6" y="717.5" transform="matrix(-1 -1.224647e-16 1.224647e-16 -1 221.2241 1539.075)" class="st172" width="78.1" height="104.1"/>
			
				<rect x="71.6" y="729.2" transform="matrix(-1 -1.224647e-16 1.224647e-16 -1 206.7795 1539.075)" class="st4" width="63.7" height="80.6"/>
			
				<rect x="275.6" y="591.6" transform="matrix(-1.836970e-16 1 -1 -1.836970e-16 1097.178 441.897)" class="st173" width="104.1" height="356"/>
			
				<rect x="266.3" y="668.6" transform="matrix(-1.836970e-16 1 -1 -1.836970e-16 1061.8345 477.2404)" class="st172" width="52" height="202"/>
			<ellipse class="st174" cx="277" cy="745.7" rx="68.5" ry="14.8"/>
			
				<ellipse transform="matrix(0.4408 -0.8976 0.8976 0.4408 -434.5881 841.4616)" class="st4" cx="458.1" cy="769.5" rx="26.1" ry="26.1"/>
			<path class="st175" d="M458.1,788.9c10.7,0,19.4-8.7,19.4-19.4s-8.7-19.4-19.4-19.4c-10.7,0-19.4,8.7-19.4,19.4
				S447.4,788.9,458.1,788.9z"/>
		</g>
	</g>
	<g>
		<g>
			
				<rect y="819.5" transform="matrix(-1 -1.224647e-16 1.224647e-16 -1 78.0971 1743.0504)" class="st176" width="78.1" height="104.1"/>
			<rect y="831.2" transform="matrix(-1 -1.224647e-16 1.224647e-16 -1 65.0226 1743.0504)" class="st4" width="65" height="80.6"/>
			
				<rect x="204" y="693.5" transform="matrix(-1.836970e-16 1 -1 -1.836970e-16 1127.6023 615.4481)" class="st177" width="104.1" height="356"/>
			
				<rect x="194.7" y="770.5" transform="matrix(-1.836970e-16 1 -1 -1.836970e-16 1092.2589 650.7918)" class="st176" width="52" height="202"/>
			<ellipse class="st174" cx="188.2" cy="850" rx="68.5" ry="14.8"/>
			
				<ellipse transform="matrix(0.6583 -0.7527 0.7527 0.6583 -523.9581 588.696)" class="st4" cx="386.5" cy="871.5" rx="26.1" ry="26.1"/>
			
				<ellipse transform="matrix(0.6594 -0.7518 0.7518 0.6594 -523.5786 587.4772)" class="st175" cx="386.5" cy="871.5" rx="19.4" ry="19.4"/>
		</g>
	</g>
</g>
<g>
	<g>
		<path class="st171" d="M1057.3,108.6H437.3c-12.9,0-23.3,10.4-23.3,23.3v783.6c0,12.9,10.4,23.3,23.3,23.3h620.1
			c12.9,0,23.3-10.4,23.3-23.3V131.9C1080.7,119,1070.2,108.6,1057.3,108.6z"/>
		<ellipse class="st174" cx="588.3" cy="129" rx="87.2" ry="7.9"/>
		<rect x="470.7" y="159.6" class="st178" width="572.4" height="749.3"/>
		<rect x="461.1" y="149.1" class="st4" width="572.4" height="749.3"/>
		<g>
			<g>
				<g>
					<g>
						
							<ellipse transform="matrix(0.1631 -0.9866 0.9866 0.1631 152.4237 702.8181)" class="st175" cx="490.5" cy="261.6" rx="22" ry="22"/>
					</g>
				</g>
				<path class="st179" d="M488.4,247.2h-91.4c-7.9,0-14.3,6.4-14.3,14.3c0,7.9,6.4,14.3,14.3,14.3h91.4c7.9,0,14.3-6.4,14.3-14.3
					C502.8,253.6,496.4,247.2,488.4,247.2z"/>
			</g>
			<g>
				<g>
					<g>
						
							<ellipse transform="matrix(0.918 -0.3966 0.3966 0.918 -105.0885 224.548)" class="st175" cx="490.5" cy="366.4" rx="22" ry="22"/>
					</g>
				</g>
				<path class="st179" d="M488.4,352.1h-91.4c-7.9,0-14.3,6.4-14.3,14.3c0,7.9,6.4,14.3,14.3,14.3h91.4c7.9,0,14.3-6.4,14.3-14.3
					C502.8,358.5,496.4,352.1,488.4,352.1z"/>
			</g>
			<g>
				<g>
					<g>
						
							<ellipse transform="matrix(0.918 -0.3966 0.3966 0.918 -146.6682 233.1447)" class="st175" cx="490.5" cy="471.3" rx="22" ry="22"/>
					</g>
				</g>
				<path class="st179" d="M488.4,456.9h-91.4c-7.9,0-14.3,6.4-14.3,14.3c0,7.9,6.4,14.3,14.3,14.3h91.4c7.9,0,14.3-6.4,14.3-14.3
					C502.8,463.3,496.4,456.9,488.4,456.9z"/>
			</g>
			<g>
				<g>
					<g>
						
							<ellipse transform="matrix(0.918 -0.3966 0.3966 0.918 -188.2479 241.7414)" class="st175" cx="490.5" cy="576.1" rx="22" ry="22"/>
					</g>
				</g>
				<path class="st179" d="M488.4,561.8h-91.4c-7.9,0-14.3,6.4-14.3,14.3c0,7.9,6.4,14.3,14.3,14.3h91.4c7.9,0,14.3-6.4,14.3-14.3
					C502.8,568.2,496.4,561.8,488.4,561.8z"/>
			</g>
			<g>
				<g>
					<g>
						<circle class="st175" cx="490.5" cy="681" r="22"/>
					</g>
				</g>
				<path class="st179" d="M488.4,666.6h-91.4c-7.9,0-14.3,6.4-14.3,14.3c0,7.9,6.4,14.3,14.3,14.3h91.4c7.9,0,14.3-6.4,14.3-14.3
					C502.8,673.1,496.4,666.6,488.4,666.6z"/>
			</g>
			<g>
				<g>
					<g>
						<circle class="st175" cx="490.5" cy="785.8" r="22"/>
					</g>
				</g>
				<path class="st179" d="M488.4,771.5h-91.4c-7.9,0-14.3,6.4-14.3,14.3c0,7.9,6.4,14.3,14.3,14.3h91.4c7.9,0,14.3-6.4,14.3-14.3
					C502.8,777.9,496.4,771.5,488.4,771.5z"/>
			</g>
		</g>
	</g>
	<g>
		<rect x="539.1" y="205.5" class="st180" width="2.7" height="657.4"/>
		<rect x="528.1" y="282.3" class="st180" width="465.7" height="2.7"/>
	</g>
	<g>
		<path class="st178" d="M895.6,420.9v-75.9c-41.6,0-75.9,34.2-75.9,75.9s34.2,75.9,75.9,75.9c41.6,0,75.9-34.2,75.9-75.9H895.6z"/>
		<path class="st181" d="M967,349.5c-17.2-17.2-40.5-26.8-64.8-26.8v91.6h91.6C993.8,390,984.2,366.7,967,349.5z"/>
	</g>
	<g>
		<rect x="580.6" y="776.9" class="st178" width="36.5" height="78.2"/>
		<rect x="632.3" y="742.5" class="st177" width="36.5" height="112.6"/>
		<rect x="684.1" y="717.5" class="st178" width="36.5" height="137.7"/>
		<rect x="735.9" y="687.8" class="st177" width="36.5" height="167.4"/>
	</g>
	<g>
		<rect x="623.4" y="322.7" class="st179" width="178.3" height="4.7"/>
		<rect x="562.3" y="366.2" class="st179" width="239.3" height="4.7"/>
		<rect x="562.3" y="409.6" class="st179" width="239.3" height="4.7"/>
		<rect x="562.3" y="453.1" class="st179" width="239.3" height="4.7"/>
		<rect x="562.3" y="496.6" class="st179" width="239.3" height="4.7"/>
		<rect x="562.3" y="540.1" class="st179" width="429" height="4.7"/>
		<rect x="562.3" y="583.6" class="st179" width="284.9" height="4.7"/>
		<rect x="562.3" y="627.1" class="st179" width="284.9" height="4.7"/>
		<rect x="801.7" y="672.8" class="st179" width="189.6" height="4.7"/>
		<rect x="801.7" y="718.5" class="st179" width="189.6" height="4.7"/>
		<rect x="801.7" y="764.2" class="st179" width="189.6" height="4.7"/>
		<rect x="801.7" y="810" class="st179" width="189.6" height="4.7"/>
	</g>
	<g>
		<path class="st181" d="M987.3,571.1H872.4c-2.2,0-4,1.8-4,4v59.6c0,2.2,1.8,4,4,4h114.9c2.2,0,4-1.8,4-4v-59.6
			C991.3,572.9,989.5,571.1,987.3,571.1z"/>
		<g>
			<path class="st4" d="M921.4,580.5L883,602.7c-1.7,1-1.7,3.5,0,4.4l38.4,22.2c1.7,1,3.9-0.2,3.9-2.2v-44.4
				C925.3,580.8,923.1,579.5,921.4,580.5z"/>
			<path class="st4" d="M967.5,580.5l-38.4,22.2c-1.7,1-1.7,3.5,0,4.4l38.4,22.2c1.7,1,3.9-0.2,3.9-2.2v-44.4
				C971.4,580.8,969.2,579.5,967.5,580.5z"/>
		</g>
	</g>
</g>
<g>
	<g>
		<g>
			<g>
				<path class="st182" d="M135.5,568.1l-4.5,464.6c-0.1,6.4,5.1,11.6,11.5,11.7c6,0.1,11-4.5,11.6-10.4L201,571.7
					c1.8-18.1-11.3-34.2-29.4-36c-18.1-1.8-34.2,11.3-36,29.4C135.5,566.1,135.5,567.1,135.5,568.1z"/>
				<g>
					<path class="st173" d="M123.9,1052.9h89.2c0,0,0.2-2.4-0.6-5.5c-1.3-5.5-5.7-13.2-19.3-13.8c-21.3-0.9-36.5-7.8-36.5-7.8
						c-13.2,2.2-28.7,0-28.7,0C121,1039.5,123.9,1052.9,123.9,1052.9z"/>
					<g>
						<path class="st175" d="M177.4,1037.2c0.7-2.1,1.8-4.2,3.3-6c0.3-0.4,0.7-0.7,1.3-0.9c0.5-0.1,1.2-0.1,1.7,0.2
							c0.9,0.5,1.5,1.7,0.8,2.5c-0.8,0.9-1.5,1.9-2,3c-0.3,0.7-0.6,1.4-0.9,2.2c-0.3,0.9-1.6,1.6-2.7,1.3
							C177.8,1039.1,177.1,1038.2,177.4,1037.2z"/>
					</g>
					<g>
						<path class="st175" d="M169.6,1035.8c0.7-2.1,1.8-4.2,3.3-6c0.3-0.4,0.7-0.7,1.3-0.9c0.5-0.1,1.2-0.1,1.7,0.2
							c0.9,0.5,1.5,1.7,0.8,2.5c-0.8,0.9-1.5,1.9-2,3c-0.3,0.7-0.6,1.4-0.9,2.2c-0.3,0.9-1.6,1.6-2.7,1.3
							C170,1037.8,169.3,1036.8,169.6,1035.8z"/>
					</g>
					<g>
						<path class="st175" d="M161.7,1034.5c0.7-2.1,1.8-4.2,3.3-6c0.3-0.4,0.7-0.7,1.3-0.9c0.5-0.1,1.2-0.1,1.7,0.2
							c0.9,0.5,1.5,1.7,0.8,2.5c-0.8,0.9-1.5,1.9-2,3c-0.3,0.7-0.6,1.4-0.9,2.2c-0.3,0.9-1.6,1.6-2.7,1.3
							C162.1,1036.4,161.4,1035.5,161.7,1034.5z"/>
					</g>
					<path class="st175" d="M213.1,1052.9h-89.2c0,0-0.5-2.1-0.6-5.5h89.2C213.3,1050.5,213.1,1052.9,213.1,1052.9z"/>
				</g>
			</g>
			<g>
				<path class="st182" d="M205.8,573.9l73.8,458.8c1,6.3,7,10.6,13.3,9.6c5.9-1,10.1-6.3,9.7-12.2L271,566.4
					c-1.2-18.1-16.9-31.8-35-30.6c-18.1,1.2-31.8,16.9-30.6,35C205.5,571.9,205.6,572.9,205.8,573.9z"/>
				<g>
					<path class="st173" d="M271.7,1052.9h89.2c0,0,0.2-2.4-0.6-5.5c-1.3-5.5-5.7-13.2-19.3-13.8c-21.3-0.9-36.5-7.8-36.5-7.8
						c-13.2,2.2-28.7,0-28.7,0C268.8,1039.5,271.7,1052.9,271.7,1052.9z"/>
					<g>
						<path class="st175" d="M325.2,1037.2c0.7-2.1,1.8-4.2,3.3-6c0.3-0.4,0.7-0.7,1.3-0.9c0.5-0.1,1.2-0.1,1.7,0.2
							c0.9,0.5,1.5,1.7,0.8,2.5c-0.8,0.9-1.5,1.9-2,3c-0.3,0.7-0.6,1.4-0.9,2.2c-0.3,0.9-1.6,1.6-2.7,1.3
							C325.6,1039.1,324.9,1038.2,325.2,1037.2z"/>
					</g>
					<g>
						<path class="st175" d="M317.3,1035.8c0.7-2.1,1.8-4.2,3.3-6c0.3-0.4,0.7-0.7,1.3-0.9c0.5-0.1,1.2-0.1,1.7,0.2
							c0.9,0.5,1.5,1.7,0.8,2.5c-0.8,0.9-1.5,1.9-2,3c-0.3,0.7-0.6,1.4-0.9,2.2c-0.3,0.9-1.6,1.6-2.7,1.3
							C317.7,1037.8,317,1036.8,317.3,1035.8z"/>
					</g>
					<g>
						<path class="st175" d="M309.5,1034.5c0.7-2.1,1.8-4.2,3.3-6c0.3-0.4,0.7-0.7,1.3-0.9c0.5-0.1,1.2-0.1,1.7,0.2
							c0.9,0.5,1.5,1.7,0.8,2.5c-0.8,0.9-1.5,1.9-2,3c-0.3,0.7-0.6,1.4-0.9,2.2c-0.3,0.9-1.6,1.6-2.7,1.3
							C309.9,1036.4,309.2,1035.5,309.5,1034.5z"/>
					</g>
					<path class="st175" d="M360.9,1052.9h-89.2c0,0-0.5-2.1-0.6-5.5h89.2C361.1,1050.5,360.9,1052.9,360.9,1052.9z"/>
				</g>
			</g>
		</g>
		<path class="st183" d="M248.5,491l21.3,40.6c6.6,12.5,10.7,26.2,12.1,40.2L316,915.4c-38.2,12.7-73.1,8.1-73.1,8.1l-37.6-335.3
			l-20,334.6c-30.1,5.3-66.8-1.2-66.8-1.2l10.9-332.8c0.9-26.1,7.2-51.7,18.8-75.1l11.2-22.7H248.5z"/>
		<path class="st184" d="M205.3,586.6l3.4-59.8c8.5-1.6,10-10.8,10-10.8"/>
	</g>
	<g>
		<path class="st175" d="M258.4,271.7c2.2-9.3,7.9-17.8,8.1-27.3c0.1-7.2-3.2-14.3-8.8-18.9c-3.6-2.9-8-4.7-12.6-5.2
			c-12.9-8.1-28.4-12.7-43.3-10.3c-15.5,2.5-29.9,13.6-33.8,28.8c-2.7,10.7-0.4,22.9-5.9,32.5c-6,10.4-19.4,14.2-27,23.5
			c-9,11-8,27.9-0.4,39.9c7.6,12.1,20.3,19.9,33.4,25.4c17.1,7.1,36.2,10.9,54.2,6.5c18-4.4,34.4-18.2,38-36.4
			C264.2,311,253.7,290.8,258.4,271.7z"/>
		<g>
			<path class="st182" d="M369.8,430.2l26.3-112.4c1.2-5.1-2-10.3-7.1-11.5c-4.8-1.1-9.5,1.5-11.2,6l-39.6,108.4
				c-3.1,8.6,1.3,18.1,9.9,21.3c8.6,3.1,18.1-1.3,21.3-9.9C369.4,431.5,369.6,430.8,369.8,430.2z"/>
			<path class="st182" d="M361.1,442.1c2.3-1.2,4.3-3,5.9-5.2c5.2-7.5,3.4-17.8-4.1-23l-105.4-73.2c-7.5-5.2-17.8-3.3-23,4.1
				c-5.2,7.5-3.4,17.8,4.1,23L344,441.1C349.2,444.7,355.8,444.9,361.1,442.1z"/>
			<path class="st185" d="M344.7,403.1c0.1-0.3-0.1-0.5-0.3-0.6c-0.3-0.1-0.5,0.1-0.6,0.3l-5.6,16.8c0,0,0,0,0,0
				c-0.1,0.3,0.1,0.5,0.3,0.6c0.3,0.1,0.5-0.1,0.6-0.3L344.7,403.1C344.7,403.1,344.7,403.1,344.7,403.1z"/>
			<path class="st182" d="M376.8,313.6c0,0-4.2-28.5-1.5-32.1c2.7-3.5,6.9-3.5,6.9-3.5s20.6-31.2,25.1-28.9
				c2.3,1.2-8.8,21.7-8.8,21.7s4.4-0.6,6.7,3.9c3.7,0.8,5.2,4.1,5.3,5.3c3,1.4,4.7,4.4,3.3,7.9c-1.4,3.4-6.5,10.8-7.3,12.9
				c-0.8,2.1-4.7,13.8-10.9,18.3C389.3,323.7,378.8,322.3,376.8,313.6z"/>
			<g>
				<path class="st186" d="M383,278.2c3.8-0.1,7.6-0.1,11.4,0c0.6,0,1.3,0,1.9,0.3c0.6,0.2,1.1,0.7,1.3,1.3c0.1,0.6-0.1,1.2-0.5,1.6
					c-0.4,0.4-0.9,0.7-1.4,1c-2.5,1.4-5.3,2.3-8.1,2.8c1,2.7,1.4,5.7,0.9,8.5s-1.7,5.5-3.6,7.7"/>
				<path class="st186" d="M398.2,271.7c-1.5,2.2-3,4.3-4.5,6.5"/>
				<path class="st186" d="M404.4,277.3c-1.9,2.5-3.9,5-5.8,7.5c-0.7,0.8-1.3,1.7-2.1,2.4c-0.8,0.7-1.8,1.3-2.8,1.4
					c-1.1,0.1-2.2-0.2-2.9-1c-0.7-0.8-0.9-2.1-0.3-2.9"/>
				<path class="st186" d="M409.5,281.9c0,0-6.3,8.7-10.6,8.5c-3.3-0.1-3.1-2.6-3.1-2.6"/>
				<path class="st186" d="M401.5,289.7c-0.2,1.7,1.3,3.3,4.5,2.5c3.2-0.8,6.5-5.4,6.5-5.4"/>
			</g>
		</g>
		<g>
			<path class="st181" d="M247,335.7l5.1,1.2c4.1,1,8.1,2.7,11.6,5.1l80.6,55.2l26.3-71.9c5.6,0,24.5,6.8,24.5,6.8l-24,105.7
				c-2.8,12.3-17.2,17.9-27.6,10.8l-100.2-69L247,335.7z"/>
			<path class="st181" d="M172.2,331.9l39.9-5.1l34.9,8.9l10.7,45.5c4.7,7.9,9.3,16.6,8.7,27.8c-0.6,11.2-7.6,18.5-12.3,22.3
				l-5.6,59.9h-89.2l-8.4-115.7L172.2,331.9z"/>
		</g>
		<g>
			<g>
				<path class="st182" d="M199,290.9l-2.5,39.1c0,0,17,11,30.8,2.3l-0.5-29.6L199,290.9z"/>
				<path class="st181" d="M192.7,329.2l2.8-14.8c0,0,11.3,6.7,33.6,4.2l2,12.9c0,0-2.5,8-17.8,7.4S192.7,329.2,192.7,329.2z"/>
				<path class="st187" d="M227,315.5c-17.8,1.4-27.6-10.1-27.6-10.1h27.4L227,315.5z"/>
			</g>
			<g>
				<path class="st182" d="M227,225.6c-30.7-4.6-46.9,13.2-44.3,47.7c2.1,27.4,19.2,42.7,40.5,39.2c16.9-2.7,27.6-16.1,29.3-36.5
					C255.1,246.8,245.2,228.3,227,225.6z"/>
				<path class="st175" d="M244.8,231.9c-4.5,2.3-9.7,3.2-14.7,2.6c-1.5,5.8-4.8,11-8.8,15.4c-10.8,11.7-26.4,18.9-42.3,19.5
					c1.3-6.8,0.3-14.4,0.8-21.4c0.5-7,2.5-14.3,7.8-18.8c3-2.5,6.8-3.9,10.5-5c8.5-2.5,17.4-3.7,26.3-3.6c4.1,0,8.4,0.4,12.1,2.1
					C240.3,224.3,243.9,227.9,244.8,231.9z"/>
				<g>
					<path class="st182" d="M187.1,275.2c1.9,4.8,0.5,9.4-2.9,10.9c-3.5,1.4-7.9-1.3-9.8-6.2c-1.9-4.8-0.7-9.8,2.8-11.3
						S185.1,270.4,187.1,275.2z"/>
					<path class="st187" d="M183.7,281.6c0.4,0,0.8-0.2,0.9-0.6c0.2-0.5-0.1-1.1-0.6-1.2c-0.7-0.3-1.5-0.9-1.5-1.8
						c0-0.3,0.1-0.7,0.3-1.1c0.2-0.4,0.4-0.9,0.4-1.5c0.1-1.1-0.3-2.2-1.1-3c-1-1-2.3-1.5-3.4-1.3c-1.9,0.3-3,2.2-3,3.9
						c0,0.5,0.4,1,1,1c0.5,0,1-0.4,1-1c0-0.9,0.5-1.8,1.3-2c0.5-0.1,1.2,0.2,1.7,0.7c0.4,0.4,0.6,1,0.6,1.5c0,0.3-0.1,0.6-0.3,0.9
						c-0.2,0.5-0.4,1.1-0.4,1.9c0.1,1.8,1.5,3,2.8,3.5C183.5,281.6,183.6,281.6,183.7,281.6z"/>
				</g>
				<g>
					<path class="st175" d="M250,258c0,0-9.4-1.6-15.2-0.6C238,253.1,246.4,255.2,250,258z"/>
					<path class="st175" d="M204.6,258c0,0,9.4-1.6,15.2-0.6C216.6,253.1,208.2,255.2,204.6,258z"/>
					<g>
						<path class="st175" d="M237.8,271.9c0,1.9,1.2,3.4,2.7,3.4c1.5,0,2.7-1.5,2.7-3.4c0-1.9-1.2-3.4-2.7-3.4
							C239,268.5,237.8,270,237.8,271.9z"/>
						<ellipse class="st4" cx="241.4" cy="270.6" rx="0.9" ry="1.1"/>
					</g>
					<g>
						<path class="st175" d="M211.3,271.9c0,1.9,1.2,3.4,2.7,3.4c1.5,0,2.7-1.5,2.7-3.4c0-1.9-1.2-3.4-2.7-3.4
							C212.6,268.5,211.3,270,211.3,271.9z"/>
						<ellipse class="st4" cx="214.9" cy="270.6" rx="0.9" ry="1.1"/>
					</g>
					<path class="st187" d="M230.2,284.4c0.1,0,0.1,0,0.2,0c1.6-0.3,2.8-1,3.4-2c0.3-0.6,0.6-1.5,0.1-2.8c-0.3-0.7-0.8-1.7-1.4-2.6
						c-0.5-0.9-1.1-1.8-1.3-2.4c-0.2-0.5-0.8-0.8-1.3-0.6c-0.5,0.2-0.8,0.7-0.6,1.3c0.3,0.8,0.9,1.7,1.5,2.7
						c0.5,0.9,1.1,1.8,1.3,2.3c0.3,0.7,0.1,1.1,0,1.2c-0.3,0.5-1,0.8-2,1c-0.5,0.1-0.9,0.6-0.8,1.1
						C229.3,284,229.7,284.4,230.2,284.4z"/>
					<path class="st4" d="M236.7,288.6c-6,0.4-12.3,0.1-18.8-0.7C221.3,295.4,234.7,294.1,236.7,288.6z"/>
				</g>
			</g>
		</g>
		<g>
			<path class="st182" d="M121.8,475.7l114.3,16c5.2,0.7,10.1-2.9,10.8-8.2c0.7-4.8-2.4-9.4-7-10.6l-111.6-29.7
				c-8.8-2.4-17.9,2.9-20.3,11.7s2.9,17.9,11.7,20.3C120.4,475.5,121.1,475.6,121.8,475.7z"/>
			<path class="st182" d="M131.9,474.1c3.5-1.9,6.3-5,7.7-9.1l37.5-107.3c3-8.6-1.5-18.1-10.1-21.1c-8.6-3-18.1,1.5-21.1,10.1
				l-37.5,107.3c-3,8.6,1.5,18.1,10.1,21.1C123.2,476.8,128,476.3,131.9,474.1z"/>
			<path class="st181" d="M172.2,331.9l-13.8,1.6c-7.8,0.9-14.3,6.2-16.9,13.6l-37.5,107c-6.3,17.4,9.9,24.7,20.8,26.1
				c10.9,1.4,84.9,10.7,84.9,10.7l5.9-26.8l-64.7-17.7l31.5-92.9L172.2,331.9z"/>
		</g>
		<g>
			<g>
				<path class="st188" d="M193.3,435.8c0.3,0,0.7,0,1,0c0.3,0,0.5-0.2,0.5-0.5c0-0.3-0.3-0.5-0.5-0.5c-0.3,0-0.6,0-0.9,0
					c-18.5,0-28.4-10.9-29.7-18.8c0-0.3-0.3-0.4-0.6-0.4c-0.3,0-0.4,0.3-0.4,0.6C163.9,423.9,173.3,435.8,193.3,435.8z"/>
				<path class="st188" d="M258.1,382.4c0.2,0,0.5-0.2,0.5-0.4c1.3-11.7,1.2-21.9-0.5-31.9c0-0.3-0.3-0.4-0.6-0.4
					c-0.3,0-0.4,0.3-0.4,0.6c1.7,10,1.8,20.1,0.5,31.7C257.6,382.1,257.8,382.3,258.1,382.4C258.1,382.4,258.1,382.4,258.1,382.4z"
					/>
				<path class="st188" d="M249.9,434.5c0.1,0,0.2,0,0.2-0.1c0.2-0.1,15.9-8.6,16.8-25.5c0.7-12.6-5.2-22.3-10.4-30.8l-0.5-0.8
					c-0.1-0.2-0.4-0.3-0.7-0.2c-0.2,0.1-0.3,0.4-0.2,0.7l0.5,0.8c5.1,8.4,10.9,17.9,10.3,30.2c-0.9,16.4-16.1,24.6-16.2,24.7
					c-0.2,0.1-0.3,0.4-0.2,0.7C249.6,434.4,249.7,434.5,249.9,434.5z"/>
				<path class="st188" d="M216.1,463.9c-0.1-0.1-0.2-0.2-0.3-0.3L151.7,446l22.5-66.3c7.9-19,4.7-39.9,4.5-40.8
					c0-0.2-0.1-0.3-0.2-0.4c-0.1-0.1-0.3-0.1-0.4-0.1c-0.1,0-0.3,0.1-0.4,0.2c-0.1,0.1-0.1,0.3-0.1,0.4c0,0.2,3.3,21.4-4.5,40.2
					l-22.7,66.9c-0.1,0.1,0,0.3,0,0.4c0.1,0.1,0.2,0.2,0.3,0.3l64.7,17.7c0,0,0.1,0,0.2,0c0.3,0,0.5-0.2,0.5-0.4
					C216.2,464.2,216.2,464,216.1,463.9z"/>
				<path class="st188" d="M209.2,490.8C209.2,490.8,209.1,490.8,209.2,490.8l-49.7-5.7c-0.3,0-0.5-0.3-0.4-0.5
					c0-0.3,0.2-0.5,0.5-0.4l49.6,5.7c0.3,0,0.5,0.3,0.4,0.5C209.6,490.7,209.4,490.8,209.2,490.8z"/>
			</g>
		</g>
		<g>
			<g>
				<g>
					<polygon class="st183" points="232,466.7 368.7,466.7 375.4,483.2 238.6,483.2 					"/>
					<polygon class="st175" points="395.2,396.1 388.8,423.8 375.1,483.2 238.4,483.2 258.5,396.1 					"/>
					<path class="st183" d="M333.8,443.2c-1.7,6.4-8.3,10.3-14.7,8.6c-6.4-1.7-10.3-8.3-8.6-14.7c1.7-6.4,8.3-10.3,14.7-8.6
						C331.6,430.3,335.4,436.8,333.8,443.2z"/>
					<g class="st69">
						<polygon class="st4" points="386.7,396.1 292.6,483.2 281.6,483.2 375.7,396.1 						"/>
						<polygon class="st4" points="395.2,396.1 388.8,423.8 324.7,483.2 299.1,483.2 393.2,396.1 						"/>
					</g>
				</g>
			</g>
			<path class="st182" d="M227.4,469.1c6-1.5,16.4-1.5,16.4-1.5s19.2-10.6,21.9-8.1c1.6,1.5-12,13.3-12,13.3s8.6,10.1,10.9,10.2
				c2.3,0.1,31.1,0,31.1,0c0,1.5-21.6,12.2-29.7,12.5s-38.2-2.9-43.8-6.7C216.7,484.9,215.4,472.2,227.4,469.1z"/>
		</g>
	</g>
</g>
<g>
	<g>
		
			<rect x="583.6" y="917.3" transform="matrix(0.3301 0.944 -0.944 0.3301 1287.3624 62.8352)" class="st175" width="31.7" height="42.1"/>
		
			<ellipse transform="matrix(0.7071 -0.7071 0.7071 0.7071 -413.8185 781.7069)" class="st4" cx="736.7" cy="890.4" rx="113.5" ry="113.5"/>
		
			<ellipse transform="matrix(0.8553 -0.5182 0.5182 0.8553 -333.9959 488.4586)" class="st174" cx="707.4" cy="842.1" rx="61.7" ry="37.4"/>
		<path class="st183" d="M609,935c-24.6-70.4,12.6-147.7,83-172.3c70.4-24.6,147.7,12.6,172.3,83c24.6,70.4-12.6,147.7-83,172.3
			C710.9,1042.7,633.6,1005.4,609,935z M837.5,855.1c-19.4-55.6-80.5-85-136.1-65.6c-55.6,19.4-85,80.5-65.6,136.1
			c19.4,55.6,80.5,85,136.1,65.6C827.6,971.8,857,910.7,837.5,855.1z"/>
		<path class="st181" d="M565.2,919.7l-123.5,43.2c-15.1,5.3-23,21.8-17.7,36.8c5.3,15.1,21.8,23,36.8,17.7l123.5-43.2L565.2,919.7z
			"/>
		<path class="st178" d="M591.7,970.7l-18.4-52.8c-1.2-3.5-5.1-5.4-8.6-4.2c-3.5,1.2-5.4,5.1-4.2,8.6l18.4,52.8
			c1.2,3.5,5.1,5.4,8.6,4.2C591.1,978.1,593,974.2,591.7,970.7z"/>
	</g>
	<g>
		<g>
			<path class="st173" d="M1097.2,741.3c-4.1,1.9-8.2,3.7-12.3,5.6c2.7-4.8,5-9.7,6.9-14.9c-0.6-0.9-1.2-1.8-1.8-2.7
				c-17.5-24.3-48.6-38-78.3-34.6c-7.7,15.6-10.3,33.4-8,50.6c5.7,0.1,11.4,0.3,17.1,0.4c-5.4,1.8-10.8,3.6-16.2,5.3
				c2.7,13.5,8.4,26.3,17.1,37.1c20.9,25.9,57.2,35.1,89.4,27C1111,789.8,1108.5,763.5,1097.2,741.3z"/>
			<path class="st189" d="M1018.7,701.3c61.4,50.5,105.9,121.3,124.6,198.6"/>
		</g>
		<g>
			<path class="st190" d="M1199.8,701.9c3.6-0.9,7.3-1.9,10.9-2.8c0.2-8.8-0.9-17.6-3.1-25.8c-16.9,1.8-33,9.8-45,21.7
				c1.4,3.5,2.8,7,4.2,10.5c-2.9-1.9-5.7-3.9-8.6-5.8c-1.7,2-3.3,4.1-4.7,6.3c-12.1,18.1-14.8,44.2-8.8,65.1
				c22.2,2,43.3-13.2,55-32.2c6.4-10.3,9.7-22.4,10.6-34.8C1206.9,703.4,1203.4,702.7,1199.8,701.9z"/>
			<path class="st173" d="M1070.7,684.4c-5.9-0.3-11.9-0.5-17.8-0.8c-2.4-5.5-4.2-11.2-5.1-17.1c-2.9-18.6,2.1-37.5,14-52.1
				c16.9-0.9,33.8,6.3,45.9,18.2c0.2,0.2,0.5,0.5,0.7,0.8c-1.8,3.9-3.6,7.8-5.3,11.7c4-1.2,8-2.5,12.1-3.7
				c7.6,10.6,12.4,23.3,14.1,36.3c2.2,16.8-0.6,34-6.6,49.9c-15.9-1.9-31.8-5.9-45.1-14.7c-8-5.3-14.7-12.3-19.8-20.3
				C1062,689.8,1066.4,687.1,1070.7,684.4z"/>
			<path class="st189" d="M1067.5,621.2c55.4,74.8,80.8,171.1,69.5,263.5"/>
			<path class="st189" d="M1203.4,679.5c-31.9,32.1-55.1,72.8-66.5,116.7"/>
		</g>
		<g>
			<path class="st173" d="M1168.5,773.5c3,0.9,6,1.9,9,2.8c-2.3-3.1-4.3-6.3-6-9.6c0.3-0.7,0.7-1.4,1-2c10-18.2,30.2-30.4,51-30.6
				c6.7,10.1,10,22.2,9.9,34.2c-3.9,0.6-7.9,1.2-11.8,1.8c3.9,0.8,7.7,1.5,11.6,2.3c-0.7,9.5-3.5,18.9-8.6,27.1
				c-12.2,19.7-36.4,29.1-59.3,26.3C1163.2,808.2,1162.7,789.8,1168.5,773.5z"/>
			<path class="st189" d="M1219.2,739.1c-38,40.1-62.5,92.8-68.8,147.7"/>
		</g>
		<g>
			<path class="st179" d="M1205.3,855.5v85.4c0,27.1-21.9,49-49,49h-36.3c-27.1,0-49-21.9-49-49v-85.4H1205.3z"/>
			<path class="st191" d="M1205.3,877.1v2.3c-0.3,0-0.7,0.1-1,0.1c-26.9,2.6-53.9,4.5-80.9,5.7c-17.5,0.8-35,1.4-52.5,1.6v-2.3
				c5.8-0.1,11.5-0.2,17.3-0.3c27-0.7,54-2.1,81-4C1181.2,879.3,1193.3,878.3,1205.3,877.1z"/>
			<path class="st191" d="M1205.3,881.2v2.3c-1.7,0.3-3.4,0.7-5.1,1c-29.6,5.7-59.3,11-89.1,15.9c-13.4,2.2-26.8,4.3-40.2,6.3v-2.3
				c0.1,0,0.2,0,0.3,0c29.8-4.5,59.6-9.5,89.3-14.8C1175.4,887,1190.4,884.1,1205.3,881.2z"/>
			<path class="st191" d="M1205.3,918.7v2.3c-3.4,0-6.8,0.1-10.1,0.1c-29,0.2-58-0.3-87-1.5c-12.4-0.5-24.9-1.1-37.3-1.9v-2.3
				c28.6,1.8,57.4,2.9,86.1,3.3C1173.1,919,1189.2,919,1205.3,918.7z"/>
			<ellipse class="st174" cx="1090" cy="898.5" rx="11.7" ry="30.4"/>
		</g>
	</g>
</g>
<g>
	<text transform="matrix(1.0101 0 0 1 565.0609 263.9889)" class="st175 st192 st193">BUSINESS RECAP</text>
</g>
</svg>
