<?xml version="1.0" encoding="utf-8"?>
<!-- Generator: Adobe Illustrator 24.2.3, SVG Export Plug-In . SVG Version: 6.00 Build 0)  -->
<svg version="1.1" id="Layer_1" xmlns="http://www.w3.org/2000/svg" xmlns:xlink="http://www.w3.org/1999/xlink" x="0px" y="0px"
	 viewBox="0 0 1430.7 1481.9" style="enable-background:new 0 0 1430.7 1481.9;" xml:space="preserve">
<style type="text/css">
	.st0{clip-path:url(#SVGID_2_);}
	.st1{fill:#263238;}
	.st2{fill:#EBEBEB;}
	.st3{fill:#455A64;}
	.st4{fill:#FFFFFF;}
	.st5{fill:#04747F;}
	.st6{fill:#DBDBDB;}
	.st7{fill:#C7C7C7;}
	.st8{fill:#DC6A57;}
	.st9{fill:#37474F;}
	.st10{fill:#AD6359;}
	.st11{opacity:0.3;fill:#263238;enable-background:new    ;}
	.st12{fill:#A6A6A6;}
	.st13{fill:#DD6A57;}
	.st14{fill:none;stroke:#C7C7C7;stroke-width:0.6434;stroke-miterlimit:10.0002;}
	.st15{fill:#FF9CBD;}
	.st16{fill:#EB9481;}
	.st17{fill:#2F2E0C;}
	.st18{clip-path:url(#SVGID_4_);}
	.st19{fill:#E9F4F4;}
	.st20{fill:#F6ACAB;}
	.st21{fill:#F2F2F2;}
	.st22{fill:url(#SVGID_5_);}
	.st23{fill:url(#SVGID_6_);}
	.st24{fill:#004E53;}
	.st25{fill:#004549;}
	.st26{fill:none;stroke:#068991;stroke-width:2.7694;stroke-miterlimit:10;}
	.st27{fill:#B8705D;}
	.st28{fill:#4344D3;}
	.st29{fill:#383838;}
	.st30{fill:#068991;}
	.st31{fill:#C38273;}
	.st32{fill:#768CC9;}
	.st33{fill:#3F27DE;}
	.st34{fill:url(#SVGID_7_);}
	.st35{fill:#F7B8B7;}
	.st36{fill:url(#SVGID_8_);}
	.st37{fill:url(#SVGID_9_);}
	.st38{fill:none;stroke:#000000;stroke-width:2.8632;stroke-linecap:round;stroke-linejoin:round;stroke-miterlimit:10;}
	.st39{fill:url(#SVGID_10_);}
	.st40{fill:url(#SVGID_11_);}
	.st41{fill:url(#SVGID_12_);}
	.st42{fill:url(#SVGID_13_);}
	.st43{fill:url(#SVGID_14_);}
	.st44{fill:none;stroke:#3F27DE;stroke-width:1.2868;stroke-linecap:round;stroke-linejoin:round;}
	.st45{fill:none;stroke:#068991;stroke-width:1.2868;stroke-linecap:round;stroke-linejoin:round;stroke-dasharray:6.73,6.73;}
	.st46{fill:url(#SVGID_15_);}
	.st47{clip-path:url(#SVGID_17_);}
	.st48{fill:#F5F5F5;}
	.st49{fill:#E0E0E0;}
	.st50{fill:#18676B;}
	.st51{opacity:0.75;fill:#FFFFFF;enable-background:new    ;}
	.st52{opacity:0.2;enable-background:new    ;}
	.st53{opacity:0.1;enable-background:new    ;}
	.st54{fill:#FAFAFA;}
	.st55{fill:#F28F8F;}
	.st56{fill:#FFA8A7;}
	.st57{opacity:0.3;enable-background:new    ;}
	.st58{opacity:0.7;fill:#FFFFFF;enable-background:new    ;}
	.st59{fill:#FAFAFA;stroke:#EBEBEB;stroke-width:0.7854;stroke-miterlimit:10;}
	.st60{opacity:0.5;enable-background:new    ;}
	.st61{opacity:0.35;enable-background:new    ;}
	.st62{fill:#F0F0F0;}
	.st63{fill:#E6E6E6;}
	.st64{opacity:0.25;}
	.st65{opacity:0.1;}
	.st66{opacity:0.2;}
	.st67{opacity:0.4;}
	.st68{opacity:0.6;}
	.st69{opacity:0.5;}
	.st70{opacity:0.3;}
	.st71{opacity:0.45;}
	.st72{opacity:0.35;}
	.st73{opacity:0.4;enable-background:new    ;}
	.st74{opacity:0.25;enable-background:new    ;}
	.st75{opacity:0.2;fill:#FFFFFF;enable-background:new    ;}
	.st76{opacity:0.15;enable-background:new    ;}
	.st77{opacity:0.5;fill:#FFFFFF;enable-background:new    ;}
	.st78{fill:none;}
	.st79{clip-path:url(#SVGID_19_);}
	.st80{opacity:0.2;fill:#652427;enable-background:new    ;}
	.st81{fill:#3C878F;}
	.st82{fill:#C0C6AB;}
	.st83{fill:#0C1016;}
	.st84{fill:#5A367C;}
	.st85{fill:#8852BB;}
	.st86{fill:#DCE0CC;}
	.st87{fill:#1F4D52;}
	.st88{fill:#79BECF;}
	.st89{fill:#706F6F;}
	.st90{fill:#002626;}
	.st91{fill:#2C2853;}
	.st92{fill:#0A1E1D;}
	.st93{fill:#9866C0;}
	.st94{fill:#DAECEA;}
	.st95{fill:#F2B087;}
	.st96{fill:#3C284D;}
	.st97{fill:#ECAA4D;}
	.st98{fill:#9C9C9B;}
	.st99{fill:#808080;}
	.st100{fill:#F8D898;}
	.st101{fill:#271A31;}
	.st102{opacity:0.5;fill:#F8D898;enable-background:new    ;}
	.st103{fill:#1F1C3B;}
	.st104{fill:#66A1D3;}
	.st105{opacity:0.5;fill:#507FA6;enable-background:new    ;}
	.st106{fill:#ABD2CC;}
	.st107{fill:#1D1D1B;}
	.st108{fill:#386FB2;}
	.st109{fill:#E89D6C;}
	.st110{fill:#B1B1B1;}
	.st111{fill:#507FA6;}
	.st112{fill:#3C3C3B;}
	.st113{fill:#D99267;}
	.st114{fill:#575756;}
	.st115{fill:#4B4B4A;}
	.st116{fill:#868686;}
	.st117{opacity:0.5;fill:#9C9C9B;enable-background:new    ;}
	.st118{clip-path:url(#SVGID_21_);}
	.st119{clip-path:url(#SVGID_23_);}
	.st120{clip-path:url(#SVGID_25_);}
	.st121{fill:#EFEFEF;}
	.st122{clip-path:url(#SVGID_27_);}
	.st123{fill:#F7D3B6;}
	.st124{fill:#58595B;}
	.st125{fill:#221F20;}
	.st126{fill:#323133;}
	.st127{fill:#3A393B;}
	.st128{fill:#414042;}
	.st129{fill:#EA514F;}
	.st130{fill:#EAC8AD;}
	.st131{fill:#303030;}
	.st132{fill:#1A4448;}
	.st133{fill:#19777C;}
	.st134{fill:#163B3D;}
	.st135{fill:#1A2F30;}
	.st136{fill:#979797;}
	.st137{fill:#FBFBFB;}
	.st138{fill:#CED0D1;}
	.st139{fill:#D63731;}
	.st140{fill:#D0D2D3;}
	.st141{fill:#E5E6E7;}
	.st142{fill:#BBBDBF;}
	.st143{fill:#F0F1F1;}
	.st144{fill:#99735C;}
	.st145{fill:#8B6954;}
	.st146{fill:#AA7F66;}
	.st147{fill:#C19174;}
	.st148{fill:#BD8E72;}
	.st149{fill:#CF9C62;}
	.st150{fill:#DEBEA4;}
	.st151{fill:#3C3B3D;}
	.st152{opacity:0.2;fill:#221F20;enable-background:new    ;}
	.st153{fill:#EB5B5A;}
	.st154{fill:#93643F;}
	.st155{fill:#F7D6B4;}
	.st156{fill:#EF9446;}
	.st157{fill:#D7853F;}
	.st158{fill:#E18A42;}
	.st159{fill:#A8352F;}
	.st160{fill:#071CA9;}
	.st161{fill:#F9F9F9;}
	.st162{fill:#262526;}
	.st163{fill:#6D6E71;}
	.st164{fill:#B77A36;}
	.st165{fill:#6C5CA5;}
	.st166{fill:#4A4B4D;}
	.st167{fill:#806440;}
	.st168{fill:#BC9B72;}
	.st169{fill:#684F34;}
	.st170{fill:#F0A059;}
	.st171{fill:#024E53;}
	.st172{fill:#00876D;}
	.st173{fill:#00C3A6;}
	.st174{opacity:0.5;fill:#FFFFFF;}
	.st175{fill:#002644;}
	.st176{fill:#BC8F63;}
	.st177{fill:#D4AB79;}
	.st178{fill:#2F8688;}
	.st179{fill:#006467;}
	.st180{fill:#C7D5FF;}
	.st181{fill:#00B9BF;}
	.st182{fill:#FDA897;}
	.st183{fill:#333B84;}
	.st184{fill:none;stroke:#002644;stroke-width:0.2386;stroke-linecap:round;stroke-linejoin:round;stroke-miterlimit:10;}
	.st185{fill:#C86856;}
	.st186{fill:none;stroke:#AB4D3B;stroke-width:0.25;stroke-linecap:round;stroke-linejoin:round;stroke-miterlimit:10;}
	.st187{fill:#AB4D3B;}
	.st188{fill:#D43E37;}
	.st189{fill:none;stroke:#002644;stroke-width:0.4773;stroke-linecap:round;stroke-linejoin:round;stroke-miterlimit:10;}
	.st190{fill:#67D5C0;}
	.st191{fill:#4A51A9;}
</style>
<g>
	<defs>
		<rect id="SVGID_3_" width="1430.7" height="1482.1"/>
	</defs>
	<clipPath id="SVGID_2_">
		<use xlink:href="#SVGID_3_"  style="overflow:visible;"/>
	</clipPath>
	<g class="st0">
		<path class="st19" d="M1271.2,994.1c-10.3-12-22.2-22.6-35.4-30.8c-20.1-13.1-42.4-21.2-62.5-34.3c-20.2-13.1-38.5-32.6-43.1-57.3
			c-3.9-22.3,3.9-45.3,16.6-63c16.9-24.4,42-40.3,61.4-62.3c19.1-21.6,36.1-45.3,49.5-71.8c26.8-53.1,37.4-114.7,26.5-174.5
			c-18-97.3-105-139.4-189.1-143c-90.8-3.9-182,19.5-271.8,29.7c-59.7,6.7-123,3.9-177.1-26.9c-56.2-31.8-97.5-87.4-151.2-123.1
			c-72.8-48.5-167.5-39.3-246.3-3.9C205,252,162.9,279.9,135,321.3c-27.9,41.4-39.6,98.4-20.9,145.5
			C142.4,539,218,558.1,268.2,605.8c53.7,51.3,74.9,130.9,13.8,186.1c-20.5,18.4-44.2,31.8-66.1,48.1c-38.9,28.7-72.8,67.9-88,116.1
			C66.8,1153.7,320.5,1202.5,446,1194c56.9-3.9,111.3-31.5,166.5-46.7c83-23.4,161.5-17.3,234,36.4c38.1,28.3,70.7,65.5,112.4,87.4
			c45.9,24.1,99.7,27.2,149.5,15.6c93.7-21.9,227.9-105.1,195.5-231.1C1297.7,1032.6,1286.1,1011.4,1271.2,994.1z"/>
		<path class="st19" d="M1326.7,839.8c0-1.1,0-2.5,0-3.5c0-16.6-13.4-30.1-30-30.1c-7.5,0-14.2,2.5-19.1,7.1
			c-5.3-4.2-12-7.1-19.1-7.1c-16.6,0-30,13.4-30,30.1c0,1.1,0,2.5,0.3,3.5c0,0,0,0-0.3,0c-16.6,0-30,13.4-30,30.1
			c0,16.6,13.4,30.1,30,30.1c1.4,0,2.9,0,4.3-0.4h41.3c1.4,0.4,2.8,0.4,4.3,0.4c1.4,0,2.8,0,4.2-0.4h40.3c1.4,0.4,2.8,0.4,4.2,0.4
			c16.6,0,30.1-13.4,30.1-30.1C1357.2,853.2,1343.3,839.8,1326.7,839.8z"/>
		<path class="st19" d="M946.1,229c-11.3,0-21.2,5.7-27.2,13.8c-1.8-2.5-4.3-5-6.7-7.1c1.4-10.3-1.5-20.9-9.6-29
			c-13-13.1-34.3-13.1-47.7,0c-6.4,6.4-9.9,14.9-9.9,23.4c-2.8-0.7-6-1.4-9.2-1.4c-18.7,0-33.6,15.2-33.6,33.6
			c0,18.4,15.2,33.6,33.6,33.6c1.8,0,3.2,0,4.9-0.4h45.9c1.5,0.4,3.2,0.4,5,0.4c1.7,0,3.2,0,4.9-0.4h44.9c1.5,0.4,3.2,0.4,5,0.4
			c18.7,0,33.6-15.2,33.6-33.6C980,244.2,964.8,229,946.1,229z"/>
		<path class="st19" d="M238.5,701.4c-11.3,0-21.2,5.7-27.2,13.8c-1.8-2.5-4.2-5-6.7-7.1c1.4-10.3-1.4-21.2-9.5-29
			c-13.1-13.1-34.6-13.1-47.7,0c-6.4,6.4-9.9,14.9-9.9,23.4c-2.8-0.7-6-1.4-9.2-1.4c-18.7,0-33.6,15.2-33.6,33.6
			c0,18.4,15.2,33.6,33.6,33.6c1.8,0,3.2,0,4.9-0.4h46.3c1.4,0.4,3.2,0.4,4.9,0.4s3.2,0,4.9-0.4h44.9c1.4,0.4,3.2,0.4,5,0.4
			c18.7,0,33.6-15.2,33.6-33.6C272.1,716.3,257.3,701.4,238.5,701.4z"/>
		<path class="st19" d="M1409.8,473.1c-3.5,0-6.7,0.7-9.9,2.5c0.3-7.1-2.1-14.2-7.5-19.5c-9.9-9.9-26.2-9.9-36.4,0
			c-4.9,5-7.4,11.7-7.4,18.4c-2.5-1.1-4.9-1.4-7.8-1.4c-11.7,0-20.8,9.6-20.8,20.9c0,11.7,9.5,20.9,20.8,20.9c1.1,0,2.1,0,3.2-0.4
			h28.6c1.1,0,2.1,0.4,3.2,0.4c1.1,0,2.1,0,3.1-0.4h28c1.1,0,2.1,0.4,3.2,0.4c11.7,0,20.8-9.6,20.8-20.9
			C1430.6,482.7,1421.4,473.1,1409.8,473.1z"/>
		<path class="st19" d="M89.7,613.3c-3.5,0-6.7,0.7-9.9,2.5c0.4-7.1-2.1-14.2-7.4-19.5c-9.9-9.9-26.2-9.9-36.4,0
			c-4.9,5-7.4,11.7-7.4,18.4c-2.5-1.1-4.9-1.4-7.8-1.4C9.2,613.3,0,622.8,0,634.2C0,645.8,9.5,655,20.8,655c1.1,0,2.1,0,3.2-0.4
			h28.6c1.1,0,2.1,0.4,3.2,0.4s2.1,0,3.2-0.4h27.9c1.1,0,2.1,0.4,3.2,0.4c11.7,0,20.9-9.6,20.9-20.9
			C110.6,622.5,101.4,613.3,89.7,613.3z"/>
		<path class="st20" d="M1000.2,1097.4c-5-0.7-9.6,0.7-13.1,4.2c-7.1,7.1-15.5,13.1-24.7,18c-25.5,13.4-57.7,19.8-89.8,21.6
			c-4.9-1.8-8.9-2.8-12-2.8c-3.9-0.4-5,5.3-1.5,6.4l4.3,2.1l-4.9,1.1c-3.9,0.4-7.1,1.4-9.2,2.5c-6.7,3.2-5,13.1,2.1,14.2
			c10.9,1.4,23.6-9.9,23.6-9.9c36.4,1.8,78.1,1.1,107.1-11c0.7-0.4,1.4-0.7,2.1-1.1c5.3-2.5,10.3-5.7,14.4-9.2
			c4.3-3.9,8.1-8.1,11.3-13.1c1.8-2.5,2.5-5.3,2.5-8.1C1012.9,1105.2,1007.9,1098.8,1000.2,1097.4z"/>
		<path class="st21" d="M715.3,1482.1c262.9,0,476.1-13.3,476.1-29.7s-213.2-29.7-476.1-29.7c-262.9,0-476.1,13.3-476.1,29.7
			S452.4,1482.1,715.3,1482.1z"/>
		
			<linearGradient id="SVGID_4_" gradientUnits="userSpaceOnUse" x1="294.7225" y1="823.7024" x2="1101.5906" y2="823.7024" gradientTransform="matrix(1 0 0 -1 0 1466)">
			<stop  offset="0" style="stop-color:#004549"/>
			<stop  offset="0.9793" style="stop-color:#068991"/>
		</linearGradient>
		<path style="fill:url(#SVGID_4_);" d="M883.9,135.2V275H666.2v189.3H295.8c-0.7,9.9-1.1,20.2-1.1,30.4
			c0.7,126,58.3,238.5,149.1,312.1c32.2,26.2,50.5,65.8,50.5,107.6v36.8c0,58.7,25.1,110.1,64.3,145.4
			c36.4,33.3,85.2,52.7,139.2,52.7c54.1,0,102.9-19.5,139.3-52.7c1.8-1.4,3.2-2.8,4.9-4.2c36.7-35.4,59.8-84.9,59.8-141.2v-36.8
			c0-42.1,18.7-81.8,51.2-108.3c67.9-55.2,117-132.4,137.5-220.5c7.5-29.7,11-60.5,11-92.4C1101.3,337.6,1013.2,202.4,883.9,135.2z"
			/>
		
			<linearGradient id="SVGID_5_" gradientUnits="userSpaceOnUse" x1="559.5067" y1="667.8131" x2="848.2776" y2="667.8131" gradientTransform="matrix(1 0 0 -1 0 1466)">
			<stop  offset="0" style="stop-color:#004549"/>
			<stop  offset="0.9793" style="stop-color:#068991"/>
		</linearGradient>
		<path class="st22" d="M773.2,1097.4h-15.2V594.5H638.2v495.1h-15.5V594.5h-32.5c-25.4,0-45.9-21.2-45.9-47.8
			c0-26.5,20.5-47.8,45.9-47.8h2.1c25.4,0,45.9,21.2,45.9,47.8V579h119.8v-32.2c0-26.2,20.8-47.8,45.9-47.8h2.5
			c25.5,0,46,21.2,46,47.8c0,26.2-20.9,47.8-46,47.8h-33.2V1097.4z M773.2,579h33.2c17,0,30.8-14.5,30.8-32.2
			c0-17.7-13.8-32.2-30.8-32.2H804c-17,0-30.8,14.5-30.8,32.2V579z M589.8,514.5c-17,0-30.7,14.5-30.7,32.2
			c0,17.7,13.8,32.2,30.7,32.2h32.5v-32.2c0-17.7-13.8-32.2-30.7-32.2H589.8z"/>
		<path class="st24" d="M700.4,1465.8c-112.7,0-203.9-91.3-203.9-204.2V986.3h408.2v275.3C904.7,1374.1,813.2,1465.8,700.4,1465.8z"
			/>
		<path class="st25" d="M906.9,1210.6H493.3c-14.1,0-25.8-11.7-25.8-25.8c0-14.2,11.7-25.8,25.8-25.8h413.5
			c14.1,0,25.8,11.7,25.8,25.8C932.6,1199.3,921,1210.6,906.9,1210.6z"/>
		<path class="st25" d="M906.9,1028.7H493.3c-14.1,0-25.8-11.7-25.8-25.8s11.7-25.8,25.8-25.8h413.5c14.1,0,25.8,11.7,25.8,25.8
			S921,1028.7,906.9,1028.7z"/>
		<path class="st25" d="M906.9,1300.5H493.3c-14.1,0-25.8-11.7-25.8-25.8s11.7-25.8,25.8-25.8h413.5c14.1,0,25.8,11.7,25.8,25.8
			S921,1300.5,906.9,1300.5z"/>
		<path class="st26" d="M667.9,275.3H450.2v189.3h217.7V275.3z"/>
		<path class="st26" d="M450.2,275.3l218,189"/>
		<path class="st26" d="M450.2,464.3l218-189"/>
		<path class="st26" d="M450.2,275.3v189.3H295.8c1.4-21.6,4.9-42.8,9.5-63.4c3.9-17,8.8-33.3,15.2-49.5
			c10.3-26.9,23-52.7,38.5-76.4H450.2z"/>
		<path class="st26" d="M450.2,464.3l-108.9-94.5l-20.9-18"/>
		<path class="st26" d="M450.2,275.3l-108.9,94.5L305.6,401"/>
		<path class="st26" d="M886,139.1v136.2H668.3V98.7c4.6-0.4,9.2-0.4,14.2-0.7c48.1-1.4,102.8,4.6,161.5,24.4
			c13,4.6,26.5,9.6,40.3,15.6L886,139.1z"/>
		<path class="st26" d="M682,98l95.1,82.5L886,275.3"/>
		<path class="st26" d="M843.6,122.4l-66.4,58l-108.8,94.8"/>
		<path class="st26" d="M668.3,98.7v176.6H450.6V175.2c17-13.4,35-25.1,54.1-35.7c0,0,0.7-0.4,1.8-1.1c1.1-0.7,2.1-1.1,2.8-1.8
			c1.1-0.7,2.1-1.1,3.2-1.8v0.4c18.7-8.5,69.6-29.4,139.6-35.7C657.3,99.5,662.6,99.1,668.3,98.7z"/>
		<path class="st26" d="M668.3,275.3l-108.9-94.8L509.2,137"/>
		<path class="st26" d="M450.2,275.3l109.2-94.8L652,99.8"/>
		<path class="st26" d="M450.2,175.2V275H359c11-17,23-32.9,36-47.8C412,208.1,430.4,190.7,450.2,175.2z"/>
		<path class="st26" d="M450.2,275.3l-55.1-48.1"/>
		<path class="st27" d="M710.7,829.9l1.8-2.5l7.4-10.6l13.1,6.4c-4.3,5-8.5,9.2-8.9,14.5l9.5,14.9l-14.1,5.3l-15.9-20.5
			C706.1,834.5,708.9,832,710.7,829.9z"/>
		<path class="st28" d="M734,935.7l-43.1,35.7c-0.7-0.7-1.1-1.4-1.8-2.1c-18.4-22.6-10.3-37.5-7.4-55.6l42.4,1.8
			c0.7,2.5,1.4,4.6,2.5,6.7C728,926.8,730.8,931.1,734,935.7z"/>
		<path class="st29" d="M733.3,884c6.4-9.6,6.4-22.3,0.3-31.8c-6.3,1.8-13-1.4-15.8-7.4l-7.1-14.9c-26.1,13.8-14.4,65.8-28.2,74.7
			l40.6,1.8c0.4-3.5,1.1-7.4,2.9-11.3L733.3,884z"/>
		<path class="st30" d="M723.8,915.5c-0.7-2.8-1.1-6-0.7-9.2l-40.6-1.8c0,3.2-0.4,6.4-1.1,9.2L723.8,915.5z"/>
		<path class="st27" d="M885.3,1029.8c-25.1,6-36.7,8.5-35.4-5c0-0.4,0-0.4,0-0.7l-0.3-0.4l-29.4-38.9v-0.4l3.2-14.5
			c2.5-10.3-1.7-20.5-10.6-26.2c-3.9-2.5-8.5-3.9-13.1-3.9c-4.2,0-8.5,1.1-12.3,3.2l-5,2.5l-4.6,2.5l-8.5,4.6L737.9,970
			c-6.7,3.5-14.1,6-21.5,7.1c-2.9,0.4-5.7,0.4-8.5,0.4c-7.8-0.4-13.8-2.1-17.3-5.7c-0.7-0.7-1.1-1.4-1.8-2.1c-0.7-0.7-1-1.8-1.4-2.8
			c-1.1-2.8-1.4-6.7-0.7-11c1.7-13.4,12-24.8,25.1-29l14.4-4.6l24.8-7.8l21.2-7.4l1.5-0.4l3.9-1.4c18.4-6,38.5,4.6,45.2,22.7
			l35,93.1v0.4v0.4l26.2,2.8C890.2,1024.8,888.8,1029.1,885.3,1029.8z"/>
		<path class="st31" d="M815.7,1107.3c-24.4-9.2-35.4-13.4-26.5-24.1l0.3-0.4v-0.4c1.4-49.2-10.6-105.8,4.9-105.5H781h-1.8h-62.5
			l53-25.1l8.5-4.2l4.6-2.1l5-2.5c3.9-2.1,8.1-3.2,12.3-3.2c4.6,0,9.2,1.4,13.1,3.9c8.9,5.7,13,16.3,10.6,26.2l-3.2,14.5l-23,100.1
			l20.2,16.6C823,1105.9,819.2,1108.4,815.7,1107.3z"/>
		<path class="st32" d="M753.1,913.4l54.8-18.4c0,0,11-60.9,10.3-60.9c-4.6-0.4-8.5,2.8-9.5,7.4l-9.2,46.4l-41,14.9
			C753.8,904.2,751.7,909.1,753.1,913.4z"/>
		<path class="st31" d="M717.8,807.2c-0.4,2.8,0,6,1.1,8.5c2.5,7.4,7.4,14.2,13.4,14.9c7.5,0.7,14.5-3.9,18.4-10.6c0,0,0,0,0.4,0
			c1.1,0,2.1,0,2.5-0.7c0.3-0.7-0.4-4.6-0.4-5.7c5.3-24.4-1.4-31.1-10.9-32.9c-5.3-1.1-12,3.2-17,9.2
			C720.9,794.8,718.5,800.8,717.8,807.2z"/>
		<path class="st33" d="M743.2,819.9c-1.1-1.4-2.1-3.9-1.1-7.1c0-0.4,0.3-0.4,0.7-0.4c0.3,0,0.3,0.4,0.3,0.7
			c-1.8,5.3,3.2,8.1,3.5,8.1c0.3,0,0.3,0.4,0.3,0.7c0,0.4-0.3,0.4-0.7,0.4C746.1,822.4,744.6,821.4,743.2,819.9z"/>
		<path class="st33" d="M747.8,810.7c-0.3,1.4-0.3,2.8,0.4,3.2c0.7,0.4,1.7-0.7,2.1-2.1c0.4-1.4,0.4-2.8-0.3-3.2
			C749.2,808.3,748.5,809.3,747.8,810.7z"/>
		<path class="st33" d="M746.8,805.4c-0.4-0.4-0.4-0.7,0-0.7c2.1-2.1,4.6-1.1,5.7-0.4c0.3,0.4,0.3,0.4,0,0.7c-0.4,0.4-0.4,0.4-0.7,0
			c0,0-2.1-1.8-4.3,0.4C747.1,805.4,746.8,805.4,746.8,805.4z"/>
		<path class="st31" d="M769.7,891.8l-75.6,1.1c0,0,4.6-8.5,13-25.1c6.4-12.4,11-24.1,11.7-26.9c1.8-5.7-3.1-11-10.6-10.6
			c-15.2,0.7-35.4,57.7-31.1,74.7c3.5,14.9,81.3-3.2,94-6.4c1.1-0.4,2.5-0.7,3.5-1.1l21.6-7.8C793,880.1,782.4,880.5,769.7,891.8z"
			/>
		<path class="st30" d="M885.3,1029.8c3.5-0.7,5.3-5.3-1.4-5.7l-26.2-2.8v-0.4l-7.8,3.9C848.5,1038.3,860.2,1035.8,885.3,1029.8z"/>
		<path class="st30" d="M815.7,1107.3c3.5,1.4,7.1-1.4,2.1-5.3l-20.2-16.6v-0.4l-8.1-1.8C780.3,1093.9,791.3,1098.1,815.7,1107.3z"
			/>
		<path d="M748.9,780.3c-17.7-10.3-32.2,3.9-39.6,13.8c-6,7.8-6,18.8,0,26.5c7.1,9.6,18.7,16.6,18.7,16.6
			c-4.2-9.9,3.2-21.9,3.2-21.9c-3.5-1.4-2.8-7.4-2.8-7.4c1.4-9.2,6.7-5,6.7-5c-2.9,4.2,3.1,11.7,3.1,11.7c-0.7-5.7,2.1-11,5.3-15.2
			c6,2.5,11.3-0.4,11.3-0.4c-1.4,3.5-8.5,3.5-8.5,3.5c8.5,3.5,12,0.4,12,0.4c0,2.8-2.8,5.7-2.8,5.7c4.9-0.7,7.1-3.2,8.1-4.2
			c0.3-0.4,0.7-1.1,0.7-1.4C770.5,784.6,748.9,780.3,748.9,780.3z"/>
		
			<linearGradient id="SVGID_6_" gradientUnits="userSpaceOnUse" x1="677.4383" y1="523.7839" x2="781.0378" y2="523.7839" gradientTransform="matrix(1 0 0 -1 0 1466)">
			<stop  offset="0" style="stop-color:#004549"/>
			<stop  offset="0.9793" style="stop-color:#068991"/>
		</linearGradient>
		<path class="st23" d="M781,977.1h-1.8h-62.6c-2.8,0.4-5.7,0.4-8.5,0.4c-7.8-0.4-13.8-2.1-17.3-5.7c-0.7-0.7-1.1-1.4-1.8-2.1
			c-18.4-22.6-10.3-37.5-7.4-55.6l42.4,1.8c0.7,2.5,1.4,4.6,2.5,6.7l24.8-7.8l21.2-7.4l1.4-0.4h0.7l3.9,41.4v0.4L781,977.1z"/>
		<path class="st20" d="M989.2,1073c0,0,9.5,13.8,15.6,26.2c2.8,6-10.7,18.8-11.3,18.4c-0.7,0-1.8-0.7-2.1-1.4
			c-1.8-6.7-6-18-13.8-25.1L989.2,1073z"/>
		<path class="st35" d="M995.2,1062.7c-5.3-9.9-16.6-19.5-24.4-18c-9.2,1.8-15.9,7.8-13.4,27.2c0.4,2.8,0.7,5.7,1.1,6.7
			c-0.7,0.7-0.7,5.7-0.3,6.4c0.3,0.7,1.7,0.7,2.8,0.7c0,0,0,0,0.4,0c4.2,7.4,12.7,14.2,20.8,13.4c7.8-0.7,14.1-11.3,15.9-20.9
			C998.7,1073,997.7,1068,995.2,1062.7z"/>
		<path class="st33" d="M969.8,1087.5c1.4-1.8,2.5-4.2,1.1-7.4c0-0.4-0.4-0.4-0.7-0.4c-0.3,0-0.3,0.4-0.3,0.7c2.1,6-3.5,8.8-3.9,8.8
			c-0.3,0-0.3,0.4-0.3,0.7c0,0.4,0.3,0.4,0.7,0.4C966.6,1090.3,968.4,1089.3,969.8,1087.5z"/>
		<path class="st33" d="M964.4,1077.6c0.7,1.8,0.4,3.2-0.3,3.5c-0.7,0.4-1.7-0.7-2.5-2.5c-0.7-1.8-0.3-3.2,0.3-3.5
			C963.1,1074.8,964.1,1076.2,964.4,1077.6z"/>
		<path class="st33" d="M965.9,1071.6c0.3-0.4,0.3-0.7,0-0.7c-2.5-2.5-5.3-1.1-6.4-0.4c-0.3,0.4-0.3,0.7,0,0.7
			c0.4,0.4,0.4,0.4,0.7,0c0,0,2.5-2.1,4.6,0.4C965.6,1071.6,965.9,1071.6,965.9,1071.6z"/>
		<path class="st30" d="M1134.5,1445.6c6,15.9-7.5,15.9-38.5,15.9c-4.3,0-7.4-4.6,0-7.1l22.6-9.9c0,0,13.4,0,15.5,0L1134.5,1445.6z"
			/>
		
			<linearGradient id="SVGID_7_" gradientUnits="userSpaceOnUse" x1="1110.1566" y1="149.1073" x2="972.2824" y2="67.6476" gradientTransform="matrix(1 0 0 -1 0 1466)">
			<stop  offset="0" style="stop-color:#004549"/>
			<stop  offset="0.9793" style="stop-color:#068991"/>
		</linearGradient>
		<path class="st34" d="M1062.7,1207.8l35-25.1c14.5,14.9,20.5,36.4,15.9,56.6c-1.7,8.5-3.5,15.9-3.5,19.8
			c-0.3,60.2,6.7,122.8,23.7,185.4h-15.6C1089.2,1380.1,1070.1,1299.8,1062.7,1207.8z"/>
		<path class="st29" d="M1045.4,1219.1l53.7-35c-33.6-28.7-42.8-70.8-66.4-85.6c-8.9-5.7-18.4-8.1-28.3-6.4
			c-14.5,2.8-24,17.7-20.2,31.8c2.5,8.8,9.6,17.7,18.4,27.6c13.8,15.6,25.1,32.9,34.7,51.3L1045.4,1219.1z"/>
		
			<linearGradient id="SVGID_8_" gradientUnits="userSpaceOnUse" x1="1103.4271" y1="160.5884" x2="965.553" y2="79.1285" gradientTransform="matrix(1 0 0 -1 0 1466)">
			<stop  offset="0" style="stop-color:#004549"/>
			<stop  offset="0.9793" style="stop-color:#068991"/>
		</linearGradient>
		<path class="st36" d="M1045.4,1219.1c-44.9,70.8-34.3,144,32.5,219.8l13.4-2.8l-31.8-68.3c-12.7-27.2-13.4-58.7-2.5-86.3l42.1-97
			L1045.4,1219.1z"/>
		<path class="st30" d="M1091.3,1435.7l-13.4,2.8l-3.9,12.7c-1.4,3.9-4.3,7.1-8.1,8.5c-0.7,0.4-1.4,0.7-2.1,1.1
			c-2.5,1.8-1.1,5.3,1.8,5.3h7.4c4.6,0,8.9-2.5,11.3-6.4l8.1-12.4C1092.7,1447.7,1097.7,1442.1,1091.3,1435.7z"/>
		<path class="st35" d="M1017.1,1109.4c-1.4-6.7-7.4-12.4-15.2-12c-4.9,0-9.2,2.8-12,6.7c-5.7,8.5-12.7,15.9-20.8,22.6
			c-22.2,18-52.3,30.8-83.8,39.3c-5.3-0.7-9.2-0.7-12.4-0.4c-3.9,0.7-3.9,6,0,6.7l4.6,1.4l-4.6,1.8c-3.9,1.1-6.7,2.8-8.5,4.2
			c-5.7,4.2-2.1,14.2,4.9,13.4c11-1.1,21.2-14.5,21.2-14.5c36-5.3,76.7-14.5,102.9-32.2c0.7-0.4,1.4-1.1,2.1-1.4
			c4.6-3.5,8.9-7.4,12.4-12c3.5-4.6,6.4-9.6,8.5-14.9C1017.5,1114.7,1017.5,1111.9,1017.1,1109.4z"/>
		<path d="M1003,1073.3c6.3-17.3-5.7-35.4-24.4-36.1c-8.5-0.4-18.4,2.1-26.6,11.7c-2.5,2.8-3.5,7.1-2.1,10.6c1.4,3.5,4.6,7.1,13,6.7
			l-1.8-3.9c0,0,5,7.8,16.3,9.2c1.4,2.1,3.9,5,8.1,6.7l0.3,2.5c0.7,7.1,9.2,11,14.8,6.4c0,0,0.3,0,0.3-0.4c-1.7-2.1-2.1-5-0.7-7.1
			C1001.2,1077.9,1001.9,1075.8,1003,1073.3z"/>
		<path class="st35" d="M982.2,1078.6c2.5,0,4.6-3.2,4.6-7.1c0-3.9-2.1-7.1-4.6-7.1s-4.6,3.2-4.6,7.1
			C977.6,1075.5,979.6,1078.6,982.2,1078.6z"/>
		<path class="st38" d="M443.2,1452.3l24-813.6"/>
		<path class="st38" d="M362.2,638.8l-2.5,90.6h105l2.5-90.6"/>
		<path class="st38" d="M362.2,638.8l-24,813.6"/>
		<path class="st38" d="M359.8,729.3l-2.8,91h105l2.8-91H359.8z"/>
		<path class="st38" d="M357,820.3l-2.8,90.6h105l2.8-90.6H357z"/>
		<path class="st38" d="M354.2,910.9l-2.8,90.6h105l2.8-90.6H354.2z"/>
		<path class="st38" d="M351.3,1001.5l-2.5,90.6h105l2.5-90.6H351.3z"/>
		<path class="st38" d="M348.8,1092.1l-2.8,91h105l2.8-91H348.8z"/>
		<path class="st38" d="M346,1183l-2.8,90.6h105l2.8-90.6H346z"/>
		<path class="st38" d="M343.2,1273.6l-2.8,90.6h105l2.8-90.6H343.2z"/>
		<path class="st20" d="M473.5,272.8c-3.5-2.8-9.2,0-8.5,4.6l1.8,15.9c-5-7.8-8.1-11.3-8.5-6.7c1.4,6.4,6,15.9,8.1,20.2
			c3.2,17.3-2.1,65.8-2.1,65.8s-32.2,29.7-49.5,43.9c-2.1,1.8-4.2,3.5-6.4,5c-0.4,0.4-0.4,0.4-0.7,0.7c-2.1,1.8-3.9,4.6-4.6,7.4
			l-0.7,2.1c-2.5,9.2,5.3,17.7,14.5,16.6c3.2-0.4,8.1-2.5,10.6-4.6c6-5,12-11.3,17.3-18.4c9.2-11.3,23.3-30.8,31.5-41.8
			c3.9-5.3,5.7-11.3,5.7-18c-0.4-15.2-1.4-44.2-5.3-59.8C479.6,296.5,480.6,278.5,473.5,272.8z"/>
		<path class="st20" d="M643.2,65.1c-4.6-0.7-9.5,1.1-12.7,4.6c-9.5,9.9-21.5,18-35.3,24.4c-22.3,10.3-48.8,15.6-75.6,18
			c-4.9-1.8-8.8-2.5-11.7-2.5c-3.9,0-4.6,5.3-1.1,6.4l4.2,2.1l-4.9,1.1c-3.9,0.7-6.7,1.8-9.2,2.8c-6.4,3.2-4.6,13.1,2.5,13.8
			c11,1.1,23-10.6,23-10.6c29.7,0.7,62.9-0.7,89.4-8.5c6-1.8,12-3.9,17.3-6.7c8.5-4.2,15.9-10.3,21.6-18c1.1-1.4,2.1-3.2,3.2-4.6
			C659.1,78.6,653.8,66.5,643.2,65.1z"/>
		
			<linearGradient id="SVGID_9_" gradientUnits="userSpaceOnUse" x1="565.312" y1="1268.3623" x2="328.8083" y2="1268.3623" gradientTransform="matrix(1 0 0 -1 0 1466)">
			<stop  offset="0" style="stop-color:#004549"/>
			<stop  offset="0.9793" style="stop-color:#068991"/>
		</linearGradient>
		<path class="st37" d="M565.4,303.3H329C329,186.8,423.3,92,540,92h25.8v211.3H565.4z"/>
		<path class="st20" d="M639.3,40.3l13.8,30.8l-21.2,5.3L625.5,51L639.3,40.3z"/>
		
			<linearGradient id="SVGID_10_" gradientUnits="userSpaceOnUse" x1="706.4097" y1="1313.5922" x2="538.2909" y2="1202.3807" gradientTransform="matrix(1 0 0 -1 0 1466)">
			<stop  offset="0" style="stop-color:#004549"/>
			<stop  offset="0.9793" style="stop-color:#068991"/>
		</linearGradient>
		<path class="st39" d="M702.9,137.3c0,0,26.2,48.1-7.5,52.4c-4.9,0.7-9.9,0.4-14.8-1.1c-20.8-5-38.1-11-40.3-7.4
			c-2.5,4.6-9.5,28.7-0.7,75.4l-14.9-1.1c-25.8-78.6-23.3-127,38.2-107.6v-10.6H702.9z"/>
		
			<linearGradient id="SVGID_11_" gradientUnits="userSpaceOnUse" x1="735.9905" y1="1268.8406" x2="567.8781" y2="1157.629" gradientTransform="matrix(1 0 0 -1 0 1466)">
			<stop  offset="0" style="stop-color:#004549"/>
			<stop  offset="0.9793" style="stop-color:#068991"/>
		</linearGradient>
		<path class="st40" d="M706.8,170.9c0,0-13,60.9-12,63.7c0,0,20.5,14.9,66,1.8v14.2c-106,36.4-103.2,5.3-90.8-79.6H706.8z"/>
		<path class="st30" d="M767.3,273.6h8.8c7.1-0.4,1.8-17.7,1.1-19.5c-1.4-3.5-1.7-12.4-1.4-15.9c0-0.4,0-1.1,0-1.4
			c-0.7-3.2-4.6-5-7.4-3.2c-1.8,1.1-4.6,1.4-7.1,2.8v14.2l4.3,2.1c1.4,2.1,2.1,10.6,1.1,13.1l-1.1,2.1
			C763.7,270,765.1,272.8,767.3,273.6z"/>
		<path class="st30" d="M639.3,256.6c6.4,17.3-6.7,17.7-40.3,17.3c-4.6,0-7.8-5,0-7.4l25.8-10.6c0,0,12,0,14.2,0L639.3,256.6z"/>
		<path class="st29" d="M649.2,149c0,0,45.3,7.8,61.2,3.9c0,0-10.3-71.1-43.1-86c-12.4-5.7-27.2-5.3-38.5,2.5
			c-6.7,4.6-7.8,8.5-9.9,16.6c-4.2,16.6,3.5,33.6,18.4,42.5C643.9,132.3,638.6,147.6,649.2,149z"/>
		<path class="st35" d="M649.9,63c-4.9,0.4-9.2,2.8-11.7,7.1c-7.4,11.7-17.7,21.9-30,30.8c-19.8,14.2-44.9,25.1-70.7,32.6
			c-5.3-0.7-9.2-0.4-12,0c-3.9,0.7-3.5,6,0,6.7l4.6,1.1l-4.6,2.1c-3.5,1.4-6.4,2.8-8.5,4.6c-5.7,4.6-1.8,13.8,5.3,13.1
			c11-1.4,20.5-14.9,20.5-14.9c29.3-5.3,61.5-13.1,86.2-26.2c5.7-2.8,11-6.4,15.6-9.9c7.4-5.7,13.8-13.4,17.6-21.9
			c0.7-1.8,1.4-3.5,2.1-5.3C668.3,72.5,660.5,62.3,649.9,63z"/>
		<path class="st35" d="M629,13.8c-5.3-4.2-11-6.7-15.6-5.7c-10.6,2.5-18,10.6-11,38.2c0.4,1.1,0,0.7,0.7,1.8
			c-0.7,1.1-1.8,2.1-1.4,2.8c0.4,1.1,1.8,0.7,2.8,0.7c0,0,0,0,0.4,0c4.6,7.4,13.8,14.5,22.3,13.1c8.1-1.1,14.5-12.4,15.9-22.3
			C643.5,38.9,638.6,21.6,629,13.8z"/>
		<path class="st33" d="M613.8,52.7c1.4-1.8,2.1-4.6,1.1-7.8c0-0.4-0.4-0.4-0.7-0.4c-0.4,0-0.4,0.4-0.4,0.7c2.5,6-3.5,9.6-3.5,9.6
			c-0.4,0-0.4,0.4-0.4,0.7c0,0.4,0.4,0.4,0.7,0.4C610.6,55.5,612.4,54.5,613.8,52.7z"/>
		<path class="st33" d="M608.2,42.4c0.7,1.8,0.4,3.5-0.4,3.5c-0.7,0-2.1-0.7-2.8-2.5c-0.7-1.8-0.4-3.5,0.4-3.5
			C606.4,39.6,607.4,41,608.2,42.4z"/>
		<path class="st33" d="M609.6,36.1c0.4-0.4,0.4-0.7,0-0.7c-2.8-2.5-5.3-1.1-6.4,0c-0.4,0.4-0.4,0.7,0,0.7c0.4,0.4,0.7,0.4,0.7,0
			c0,0,2.5-2.1,5,0C608.9,36.4,609.2,36.4,609.6,36.1z"/>
		<path d="M591.2,26.2c-1.1-1.8-1.4-11,4.6-9.6c2.5-11,20.1-19.1,34.3-15.9c9.6,2.1,37.1,24.4,8.5,54.1c-0.3-2.1-7.8-23-30.8-24.1
			c1.4,1.8,3.2,2.8,4.9,3.9c-12,2.1-16.6-2.1-18-3.5C593.3,29.7,591.9,27.9,591.2,26.2z"/>
		<path class="st35" d="M625.1,45.3c2.8,1.1,6.4-0.7,7.4-3.9c1.1-3.2,0-6.7-2.9-8.1c-2.8-1.1-6.3,0.7-7.4,3.9
			C621.2,40.3,622.3,43.9,625.1,45.3z"/>
		<path class="st20" d="M406.1,397.8c0,0-4.6,20.5-4.6,20.2h20.9c0,0-1.1-11,3.5-19.5L406.1,397.8z"/>
		<path class="st35" d="M399.3,397.8c-6.4-6-10.6-13.8-11.3-22.7c-0.4-5.7,0.7-10.6,3.2-13.4c6.7-6.7,18-13.1,33.6,6.4
			c0,0,11.7-0.7,4.9,5.7c6,7.8,7.1,19.8,1.1,27.2c-3.2,3.9-9.5,5.3-16.3,4.6c-5.7-0.7-10.6-3.2-14.8-7.1L399.3,397.8z"/>
		<path class="st33" d="M417.3,370.5c1.4,1.4,2.8,2.1,3.5,1.8c0.7-0.4,0-2.1-1.4-3.5c-1.4-1.4-2.8-2.1-3.5-1.8
			C415.2,367.3,415.9,369.1,417.3,370.5z"/>
		<path class="st33" d="M409.9,369.1c0.4-0.4,0.4-0.4,0.4-0.7c-1.4-4.6,2.5-6,2.8-6c0.4,0,0.7-0.7,0.4-1.1c0-0.4-0.7-0.7-1.1-0.4
			c-1.8,0.7-4.9,3.2-3.9,7.8C408.9,369.5,409.2,369.5,409.9,369.1C409.9,369.5,409.6,369.5,409.9,369.1z"/>
		<path class="st33" d="M430.1,378.7c-0.4,0-0.7,0-0.7,0c-3.5,3.2-6.4,0.4-6.7,0c-0.4-0.4-0.7-0.4-1.1,0c-0.4,0.4-0.4,0.7,0,1.1
			c1.4,1.4,4.9,3.2,8.8,0C430.4,379.7,430.4,379.4,430.1,378.7C430.1,379,430.1,379,430.1,378.7z"/>
		<path class="st29" d="M453.4,499c0,2.8-0.4,6-0.4,9.2c0,1.4,0,2.8,0,4.2c0,2.1,0.4,4.2,0.4,6.7c0,0.7,0,1.4,0,2.1c0,0,0,0,0,0.4
			c0.7,9.9,0.4,17.3,0.4,21.9c-0.4,3.2-0.4,5-0.4,5c-25.8-4.2-42.4-18-54.1-29c1.1-2.5,2.1-4.6,3.2-6.7c1.1-2.1,2.1-4.2,3.2-6
			c1.4-2.8,2.5-5.3,3.5-7.4c6.4-13.8,4.2-18-6.7-43.2c-1.4-3.2-2.5-6.7-3.2-10.3c-2.5-14.9-2.5-31.1,10.2-34.7
			c9.2-2.1,18.7,4.6,31.5,8.1c21.6,6,25.4,20.9,20.9,36.4C461.5,457.9,454.8,473.5,453.4,499z"/>
		<path class="st35" d="M499,272.1c-3.5-3.5-9.5-1.1-9.5,3.9v16.6c-4.2-8.5-7.1-12.7-8.1-7.8c0.7,6.7,4.2,17,6,21.6
			c1.4,18.4-9.9,68.3-9.9,68.3s-36.8,27.2-56.5,40c-2.5,1.4-4.9,3.2-7.1,4.6c-0.4,0.4-0.7,0.4-0.7,0.7c-2.5,1.8-4.6,4.2-5.7,7.1
			l-0.7,2.5c-3.5,9.2,3.5,19.1,13.4,19.1c3.5,0,8.8-1.4,11.7-3.5c6.7-4.6,13.8-10.6,20.1-17c11-10.6,27.9-29.4,37.5-40
			c4.6-5,7.1-11.3,7.8-18c1.4-15.9,3.5-46.4,1.4-62.6C502.5,297.6,505.7,279.2,499,272.1z"/>
		<path class="st20" d="M428.3,754.5c-6.7,15.9-13.8,31.8-19.8,43.2l19.1,7.8l6.4,2.8c7.4,2.1,4.2,6.7,0,7.1
			c-30.8,0-44.9,0-39.6-15.6c0-0.4,0-0.4,0.4-0.7c0,0,22.6-115.7,33.6-107.2L406,597.3l33.2-26.5c9.9,30.4,11.3,84.6,11.3,111.8
			c0,11-1.4,19.5-5.3,29.7C441,723,434.7,738.5,428.3,754.5z"/>
		<path class="st35" d="M452,552.8c-22.6,77.1-40.6,134.5-112.7,228.6l5.7,16.6c1.1,3.5,3.5,6.7,6.7,8.8c1.1,0.7,2.1,1.1,3.2,1.8
			c1.1,0.4,1.8,0.7,2.8,1.4c2.8,2.1,1.1,6.7-2.5,6.7H346c-5.7,0-11-2.8-14.1-7.8l-10.3-15.6c0,0-5.3-6.7,0-12.4
			c0.4-0.7,0.7-1.1,1.1-1.8c26.2-43.2,40.3-99.8,57.6-100.5c0,0,7.8-53.8,14.5-82.1C370,568,382.4,553.5,394,528
			c1.8-3.5,3.5-6.7,4.9-9.6c12,11,28.3,24.8,54.1,29C453,549.6,452.7,551.3,452,552.8z"/>
		
			<linearGradient id="SVGID_12_" gradientUnits="userSpaceOnUse" x1="362.834" y1="845.1586" x2="575.4708" y2="962.202" gradientTransform="matrix(1 0 0 -1 0 1466)">
			<stop  offset="0" style="stop-color:#004549"/>
			<stop  offset="0.9793" style="stop-color:#068991"/>
		</linearGradient>
		<path class="st41" d="M452,662.1c-16.6,12.7-38.2,14.5-68.2,2.1c4.6-67.6-18.4-112.5,15.9-151.8c1.8-2.1,3.9-3.9,5.7-6
			c28.3,6.7,46.7,2.1,47.4,2.1c0,1.1,0.4,2.5,0.4,4.2c0,2.5,0.4,5.3,0.4,8.8c0,0,0,0,0,0.4c0,6,1.4,12,1.4,20.5
			C455.5,574.7,453.4,623.5,452,662.1z"/>
		<path class="st30" d="M434,815c-30.8,0-44.9,0-39.6-15.6c9.2,3.2,32.2,9.9,32.9,6l6.4,2.8C441.4,810.4,438.2,815,434,815z"/>
		<path class="st30" d="M355.5,817.1h-9.2c-5.7,0-11-2.8-14.1-7.8l-10.3-15.6c0,0-5.3-6.7,0-12.4c0.4-0.7,0.7-1.1,1.1-1.8
			c5.7,9.6,20.9,34,29,27.6c1.1,0.7,2.1,1.1,3.2,1.8c1.1,0.4,1.8,0.7,2.8,1.4C360.8,812.5,359,817.1,355.5,817.1z"/>
		<path d="M401.8,347.1c3.5-0.7,7.1,0.4,8.8,3.2c1.1,1.4,1.8,3.5,0.7,6c0,0-12.7,14.5-0.7,29c0,0-5.3,3.9-8.5-1.8
			c0,0-3.9,9.2,9.9,8.1c0,0,5.7,8.1,0,18.8c0,0-18,21.6-6.4,52.4c0,0-29.3,0.4-30.4-25.5c0,0-4.6,5.7-3.9,11c0,0-8.1-12,1.4-30.4
			c0,0,7.4-8.1,4.9-24.4C378.1,393.9,362.2,355.3,401.8,347.1z"/>
		<path class="st30" d="M453.4,512.4H400c1.8-2.1,8.5-11.3,9.2-13.4h44.2c0,2.8-0.4,6-0.4,9.2C453.4,509.6,453.4,511,453.4,512.4z"
			/>
		
			<linearGradient id="SVGID_13_" gradientUnits="userSpaceOnUse" x1="1254.6245" y1="576.4376" x2="1020.4182" y2="661.7119" gradientTransform="matrix(1 0 0 -1 0 1466)">
			<stop  offset="0" style="stop-color:#004549"/>
			<stop  offset="0.9793" style="stop-color:#068991"/>
		</linearGradient>
		<path class="st42" d="M1086,841.9c11.7,21.9,28.6,38.6,50.9,51c17.3,9.6,37.4,16.3,60.4,20.5c0.4,0,0.4,0,0.7,0l28.3-54.1
			l-0.4-0.4c-11.7-16.3-24.7-29.4-39.5-38.9c-22.3-14.5-47.7-21.2-76.7-20.9c-10.3,0-20.5,1.4-31.5,3.2c-3.2,0.7-5.3,3.9-4.2,7.1
			C1076.8,821.4,1080.7,832,1086,841.9z"/>
		<path class="st30" d="M1136.9,892.9c23.4,21.9,46.7,40,69.6,50.2l-9.2-29.7C1174.4,909.5,1154.3,902.4,1136.9,892.9z"/>
		<path class="st30" d="M1186.4,820c14.8,9.6,27.9,22.6,39.5,38.9l36.8-11.7C1242.3,834.8,1215.7,826.3,1186.4,820z"/>
		<path class="st30" d="M1239.1,900.6l-14.1-24.1l-70.4-26.9l55.9,50.6L1239.1,900.6z"/>
		<path class="st30" d="M1142.3,828.1c3.1,10.3-2.5,20.9-12.8,24.1c-10.3,3.2-20.8-2.5-24-12.7c-3.1-10.3,2.5-20.9,12.8-24.1
			C1128.4,812.2,1139.1,817.8,1142.3,828.1z"/>
		<path class="st30" d="M1086,841.9l23.3-42.8c-1.4-1.1-9.5-0.4-31.4,3.2c-3.2,0.4-5.3,3.9-4.3,7.1
			C1076.8,821.4,1080.7,832,1086,841.9z"/>
		<path class="st44" d="M1245.1,900.3c0.4,0,3.6,1.1,7.8,3.9"/>
		<path class="st45" d="M1268.1,914.4c50.9,37.2,155.4,143,3.9,267.5"/>
		<path class="st44" d="M1264.9,1188c-2.1,1.8-4.6,3.5-7.1,5.3"/>
		
			<linearGradient id="SVGID_14_" gradientUnits="userSpaceOnUse" x1="124.2868" y1="1244.6835" x2="358.507" y2="1329.958" gradientTransform="matrix(1 0 0 -1 0 1466)">
			<stop  offset="0" style="stop-color:#004549"/>
			<stop  offset="0.9793" style="stop-color:#068991"/>
		</linearGradient>
		<path class="st43" d="M292.6,173.8c-11.7,21.9-28.6,38.6-50.9,51c-17.3,9.6-37.5,16.3-60.4,20.5c-0.4,0-0.4,0-0.7,0l-28.3-54.1
			l0.4-0.4c11.7-16.6,24.7-29.4,39.6-38.9c22.3-14.5,47.7-21.2,76.7-20.9c10.3,0.4,20.5,1.4,31.5,3.2c3.2,0.7,5.3,3.9,4.2,7.1
			C302.1,153.2,297.9,163.8,292.6,173.8z"/>
		<path class="st30" d="M242.1,224.7c-23.3,21.9-46.7,40-69.6,50.2l9.2-29.7C204.6,241,224.7,234.3,242.1,224.7z"/>
		<path class="st30" d="M192.6,151.8c-14.8,9.6-27.9,22.6-39.6,38.9l-36.8-11.7C136.7,166.7,163.3,158.2,192.6,151.8z"/>
		<path class="st30" d="M139.6,232.5l14.5-24.1l70.3-27.2l-55.8,51L139.6,232.5z"/>
		<path class="st30" d="M236.8,159.6c-3.2,10.3,2.5,20.9,12.7,24.1c10.2,3.2,20.9-2.5,24-12.7c3.2-10.3-2.5-20.9-12.7-24.1
			C250.6,144,240,149.7,236.8,159.6z"/>
		<path class="st30" d="M292.6,173.8l-23.3-42.8c1.4-1.1,9.5-0.4,31.5,3.2c3.2,0.4,5.3,3.9,4.2,7.1
			C302.1,153.2,297.9,163.8,292.6,173.8z"/>
		<path class="st44" d="M133.9,232.2c-0.4,0-3.5,1.1-7.8,3.9"/>
		<path class="st45" d="M110.6,246.3c-50.9,37.2-155.5,143-3.9,267.5"/>
		<path class="st44" d="M114.1,519.9c2.1,1.8,4.6,3.5,7.1,5.3"/>
	</g>
</g>
</svg>
