<?xml version="1.0" encoding="utf-8"?>
<!-- Generator: Adobe Illustrator 24.2.3, SVG Export Plug-In . SVG Version: 6.00 Build 0)  -->
<svg version="1.1" id="Layer_1" xmlns="http://www.w3.org/2000/svg" xmlns:xlink="http://www.w3.org/1999/xlink" x="0px" y="0px"
	 viewBox="0 0 1233.3 1188.4" style="enable-background:new 0 0 1233.3 1188.4;" xml:space="preserve">
<style type="text/css">
	.st0{clip-path:url(#SVGID_2_);}
	.st1{fill:#263238;}
	.st2{fill:#EBEBEB;}
	.st3{fill:#455A64;}
	.st4{fill:#FFFFFF;}
	.st5{fill:#04747F;}
	.st6{fill:#DBDBDB;}
	.st7{fill:#C7C7C7;}
	.st8{fill:#DC6A57;}
	.st9{fill:#37474F;}
	.st10{fill:#AD6359;}
	.st11{opacity:0.3;fill:#263238;enable-background:new    ;}
	.st12{fill:#A6A6A6;}
	.st13{fill:#DD6A57;}
	.st14{fill:none;stroke:#C7C7C7;stroke-width:0.6434;stroke-miterlimit:10.0002;}
	.st15{fill:#FF9CBD;}
	.st16{fill:#EB9481;}
	.st17{fill:#2F2E0C;}
	.st18{clip-path:url(#SVGID_4_);}
	.st19{fill:#E9F4F4;}
	.st20{fill:#F6ACAB;}
	.st21{fill:#F2F2F2;}
	.st22{fill:url(#SVGID_5_);}
	.st23{fill:url(#SVGID_6_);}
	.st24{fill:#004E53;}
	.st25{fill:#004549;}
	.st26{fill:none;stroke:#068991;stroke-width:2.7694;stroke-miterlimit:10;}
	.st27{fill:#B8705D;}
	.st28{fill:#4344D3;}
	.st29{fill:#383838;}
	.st30{fill:#068991;}
	.st31{fill:#C38273;}
	.st32{fill:#768CC9;}
	.st33{fill:#3F27DE;}
	.st34{fill:url(#SVGID_7_);}
	.st35{fill:#F7B8B7;}
	.st36{fill:url(#SVGID_8_);}
	.st37{fill:url(#SVGID_9_);}
	.st38{fill:none;stroke:#000000;stroke-width:2.8632;stroke-linecap:round;stroke-linejoin:round;stroke-miterlimit:10;}
	.st39{fill:url(#SVGID_10_);}
	.st40{fill:url(#SVGID_11_);}
	.st41{fill:url(#SVGID_12_);}
	.st42{fill:url(#SVGID_13_);}
	.st43{fill:url(#SVGID_14_);}
	.st44{fill:none;stroke:#3F27DE;stroke-width:1.2868;stroke-linecap:round;stroke-linejoin:round;}
	.st45{fill:none;stroke:#068991;stroke-width:1.2868;stroke-linecap:round;stroke-linejoin:round;stroke-dasharray:6.73,6.73;}
	.st46{fill:url(#SVGID_15_);}
	.st47{clip-path:url(#SVGID_17_);}
	.st48{fill:#F5F5F5;}
	.st49{fill:#E0E0E0;}
	.st50{fill:#18676B;}
	.st51{opacity:0.75;fill:#FFFFFF;enable-background:new    ;}
	.st52{opacity:0.2;enable-background:new    ;}
	.st53{opacity:0.1;enable-background:new    ;}
	.st54{fill:#FAFAFA;}
	.st55{fill:#F28F8F;}
	.st56{fill:#FFA8A7;}
	.st57{opacity:0.3;enable-background:new    ;}
	.st58{opacity:0.7;fill:#FFFFFF;enable-background:new    ;}
	.st59{fill:#FAFAFA;stroke:#EBEBEB;stroke-width:0.7854;stroke-miterlimit:10;}
	.st60{opacity:0.5;enable-background:new    ;}
	.st61{opacity:0.35;enable-background:new    ;}
	.st62{fill:#F0F0F0;}
	.st63{fill:#E6E6E6;}
	.st64{opacity:0.25;}
	.st65{opacity:0.1;}
	.st66{opacity:0.2;}
	.st67{opacity:0.4;}
	.st68{opacity:0.6;}
	.st69{opacity:0.5;}
	.st70{opacity:0.3;}
	.st71{opacity:0.45;}
	.st72{opacity:0.35;}
	.st73{opacity:0.4;enable-background:new    ;}
	.st74{opacity:0.25;enable-background:new    ;}
	.st75{opacity:0.2;fill:#FFFFFF;enable-background:new    ;}
	.st76{opacity:0.15;enable-background:new    ;}
	.st77{opacity:0.5;fill:#FFFFFF;enable-background:new    ;}
	.st78{fill:none;}
	.st79{clip-path:url(#SVGID_19_);}
	.st80{opacity:0.2;fill:#652427;enable-background:new    ;}
	.st81{fill:#3C878F;}
	.st82{fill:#C0C6AB;}
	.st83{fill:#0C1016;}
	.st84{fill:#5A367C;}
	.st85{fill:#8852BB;}
	.st86{fill:#DCE0CC;}
	.st87{fill:#1F4D52;}
	.st88{fill:#79BECF;}
	.st89{fill:#706F6F;}
	.st90{fill:#002626;}
	.st91{fill:#2C2853;}
	.st92{fill:#0A1E1D;}
	.st93{fill:#9866C0;}
	.st94{fill:#DAECEA;}
	.st95{fill:#F2B087;}
	.st96{fill:#3C284D;}
	.st97{fill:#ECAA4D;}
	.st98{fill:#9C9C9B;}
	.st99{fill:#808080;}
	.st100{fill:#F8D898;}
	.st101{fill:#271A31;}
	.st102{opacity:0.5;fill:#F8D898;enable-background:new    ;}
	.st103{fill:#1F1C3B;}
	.st104{fill:#66A1D3;}
	.st105{opacity:0.5;fill:#507FA6;enable-background:new    ;}
	.st106{fill:#ABD2CC;}
	.st107{fill:#1D1D1B;}
	.st108{fill:#386FB2;}
	.st109{fill:#E89D6C;}
	.st110{fill:#B1B1B1;}
	.st111{fill:#507FA6;}
	.st112{fill:#3C3C3B;}
	.st113{fill:#D99267;}
	.st114{fill:#575756;}
	.st115{fill:#4B4B4A;}
	.st116{fill:#868686;}
	.st117{opacity:0.5;fill:#9C9C9B;enable-background:new    ;}
	.st118{clip-path:url(#SVGID_21_);}
	.st119{clip-path:url(#SVGID_23_);}
	.st120{clip-path:url(#SVGID_25_);}
	.st121{fill:#EFEFEF;}
	.st122{clip-path:url(#SVGID_27_);}
	.st123{fill:#F7D3B6;}
	.st124{fill:#58595B;}
	.st125{fill:#221F20;}
	.st126{fill:#323133;}
	.st127{fill:#3A393B;}
	.st128{fill:#414042;}
	.st129{fill:#EA514F;}
	.st130{fill:#EAC8AD;}
	.st131{fill:#303030;}
	.st132{fill:#1A4448;}
	.st133{fill:#19777C;}
	.st134{fill:#163B3D;}
	.st135{fill:#1A2F30;}
	.st136{fill:#979797;}
	.st137{fill:#FBFBFB;}
	.st138{fill:#CED0D1;}
	.st139{fill:#D63731;}
	.st140{fill:#D0D2D3;}
	.st141{fill:#E5E6E7;}
	.st142{fill:#BBBDBF;}
	.st143{fill:#F0F1F1;}
	.st144{fill:#99735C;}
	.st145{fill:#8B6954;}
	.st146{fill:#AA7F66;}
	.st147{fill:#C19174;}
	.st148{fill:#BD8E72;}
	.st149{fill:#CF9C62;}
	.st150{fill:#DEBEA4;}
	.st151{fill:#3C3B3D;}
	.st152{opacity:0.2;fill:#221F20;enable-background:new    ;}
	.st153{fill:#EB5B5A;}
	.st154{fill:#93643F;}
	.st155{fill:#F7D6B4;}
	.st156{fill:#EF9446;}
	.st157{fill:#D7853F;}
	.st158{fill:#E18A42;}
	.st159{fill:#A8352F;}
	.st160{fill:#071CA9;}
	.st161{fill:#F9F9F9;}
	.st162{fill:#262526;}
	.st163{fill:#6D6E71;}
	.st164{fill:#B77A36;}
	.st165{fill:#6C5CA5;}
	.st166{fill:#4A4B4D;}
	.st167{fill:#806440;}
	.st168{fill:#BC9B72;}
	.st169{fill:#684F34;}
	.st170{fill:#F0A059;}
	.st171{fill:#024E53;}
	.st172{fill:#00876D;}
	.st173{fill:#00C3A6;}
	.st174{opacity:0.5;fill:#FFFFFF;}
	.st175{fill:#002644;}
	.st176{fill:#BC8F63;}
	.st177{fill:#D4AB79;}
	.st178{fill:#2F8688;}
	.st179{fill:#006467;}
	.st180{fill:#C7D5FF;}
	.st181{fill:#00B9BF;}
	.st182{fill:#FDA897;}
	.st183{fill:#333B84;}
	.st184{fill:none;stroke:#002644;stroke-width:0.2386;stroke-linecap:round;stroke-linejoin:round;stroke-miterlimit:10;}
	.st185{fill:#C86856;}
	.st186{fill:none;stroke:#AB4D3B;stroke-width:0.25;stroke-linecap:round;stroke-linejoin:round;stroke-miterlimit:10;}
	.st187{fill:#AB4D3B;}
	.st188{fill:#D43E37;}
	.st189{fill:none;stroke:#002644;stroke-width:0.4773;stroke-linecap:round;stroke-linejoin:round;stroke-miterlimit:10;}
	.st190{fill:#67D5C0;}
	.st191{fill:#4A51A9;}
</style>
<g>
	<defs>
		<rect id="SVGID_18_" x="0" y="0" width="1233.3" height="1188.4"/>
	</defs>
	<clipPath id="SVGID_2_">
		<use xlink:href="#SVGID_18_"  style="overflow:visible;"/>
	</clipPath>
	<g class="st0">
		<path class="st80" d="M674.8,1149.3c37.4,0,67.7-17.5,67.7-39.1c0-21.6-30.3-39-67.7-39c-37.4,0-67.7,17.5-67.7,39
			C607.1,1131.8,637.4,1149.3,674.8,1149.3z"/>
		<path class="st80" d="M695.8,565.4L116.8,899.5l351,203l579.1-334.1L695.8,565.4z M132.3,899.5l563.5-325.2L1030.9,768
			l-563.5,325.2L132.3,899.5z"/>
		<path class="st80" d="M256.5,900.3l79.4,45.6l75.5-43.3L332,856.9L256.5,900.3z"/>
		<path class="st80" d="M707.1,742.5l-79.4-45.6l-75.5,43.3l14.4,8.1c-10.9,1.2-21,3.9-29.2,8.5c-3.5,1.9-6.2,4.3-8.6,6.6
			c-42.4-11.2-94.6-7-129.6,13.1c-44.8,25.5-44.8,67.3,0,92.8c44.8,25.5,117.1,25.5,161.9,0c28.8-16.6,38.9-39.8,30.7-61.1
			c7.8-1.5,15.6-3.9,21.8-7.4c8.2-4.6,13.2-10.8,15.2-16.6l3.1,1.9L707.1,742.5z"/>
		<path class="st81" d="M1198.7,634.2c-44.4-25.5-115.2-26.3-161.5-3.1l142-81.6c46.3-26.7,46.3-69.6,0-96.3
			c-46.3-26.7-121.4-26.7-167.7,0l-27.2,15.9c35.4-26.7,32.3-65-10.1-89.3c-46.3-26.7-121.4-26.7-167.7,0
			C369.7,630,542.1,527.1,34.6,817.9c-46.3,26.7-46.3,69.6,0,96.3c42,24,107.8,26.3,154.1,6.5l-148.7,85.1
			c-46.3,26.7-46.3,69.6,0,96.3c46.3,26.7,121.4,26.7,167.7,0l68.1-38.7c-34.2,26.7-30.4,64.2,11.7,88.2
			c46.3,26.7,121.4,26.7,167.7,0l126.1-72.3c-35.4,26.7-31.9,65,10.5,89.3c46.3,26.7,121.4,26.7,167.7,0l376.7-214.3
			c46.3-26.7,46.3-69.6,0-96.3c-37.7-21.7-94.6-25.5-139.3-12l201.6-115.6C1245,703.8,1245,660.9,1198.7,634.2z"/>
		<path class="st82" d="M1046.9,293.9l-351-202.6v474.1l351,203V293.9z"/>
		<path class="st4" d="M943.8,458.9c31.6-23.6,23.1-87.9-19-143.5c-42.1-55.6-101.9-81.6-133.5-58c-31.6,23.6-23.1,87.9,19,143.5
			C852.5,456.6,912.2,482.6,943.8,458.9z"/>
		<path class="st83" d="M804.8,765.7c0,0-1.9,9.7-0.8,13.9c0.8,4.2,12.1,7,12.1,7s9.3,11.6,23,10.4c7.8-0.8,10.5-2.7,11.7-5
			c1.2-2.3,0-5.4-1.6-7.4c-1.6-1.9-11.7-5.8-15.6-12.4c-1.9-3.1-5.4-9.7-5.4-9.7l-0.4-3.5c-0.4-5-4.7-8.9-9.7-9.3
			c-7-0.4-12.5,5.4-11.7,12v2.3L804.8,765.7z"/>
		<path class="st83" d="M764,786.6c-1.6,3.1-1.6,8.5-1.9,15.8c1.9,4.3,5.1,7.7,9,8.9c0,0,3.1,13.5,21.4,13.9
			c17.1,0.4,17.1-6.5,17.1-6.5s0-3.9-3.9-7.3c-2.3-1.9-11.7-9.7-14-12.8c-2.3-3.1-4.3-7.3-4.3-7.3l-0.8-12.4h-23.4L764,786.6z"/>
		<path class="st84" d="M827,580.4l-33.5,39.8c1.6,12.4,4.3,37.5,7.4,49.1c-5.8,45.6-1.9,95.5,1.6,98.2c5.1,4.2,23,8.1,30-2.7
			c0,0-5.1-50.3,1.6-101.3L827,580.4z"/>
		<path class="st85" d="M827,580.5c-0.4,18.2-4.3,27.5-22.6,37.5l-5.8,39.8l-4.3,27.8c-6.6,52.6-7,106-7,106
			c-7.8,10.8-29.6,6.2-30.4-0.8c-3.1-41.4-3.9-65.4,3.5-101.7c-3.9-21.7-6.2-47.6-4.3-67.7c-3.9-11.6-3.9-24.4-0.8-39.1
			c0.4,0,1.2-0.4,2.3-0.4c0.4,0,1.2-0.4,1.6-0.4c2.7-0.8,6.2-1.5,10.5-2.7c1.6-0.4,3.1-0.8,5.1-1.2c1.9-0.4,3.5-0.8,5.4-1.2
			c1.2-0.4,2.3-0.4,3.5-0.8c5.4-1.2,11.3-2.7,16.3-3.9c5.1-1.2,10.1-2.3,14-3.5c3.5-0.8,6.2-1.5,8.2-1.9c1.6-0.4,2.7-0.8,3.1-0.8
			h0.8h0.4c0,0.4,0,0.8,0,1.2c0,0.4,0,0.4,0,0.8c0,1.5,0,3.1,0,4.6C827,575,827,578.1,827,580.5z"/>
		<path class="st86" d="M116.8,425.4L695.8,91.3v474.1L116.8,899.5V425.4z"/>
		<path class="st4" d="M328.9,367.8l-154.5,88.9v273.8l154.5-89.3V367.8z"/>
		<path class="st82" d="M302,624.1V529l-102.7,59.6v95.1L302,624.1z"/>
		<path class="st87" d="M250.6,438.9l-51.4,29.8v90.9l51.4-29.8V438.9z"/>
		<path class="st87" d="M313.3,403l-51.4,29.8V524l51.4-29.8V403z"/>
		<path class="st4" d="M484.1,286.9l-106.2,61.5v187.9l106.2-61.5V286.9z"/>
		<path class="st87" d="M396.2,428.1v76.6l69.7-40.2v-76.6L396.2,428.1z"/>
		<path class="st88" d="M465.8,370.9v-52.2l-69.7,40.2v52.6L465.8,370.9z"/>
		<path class="st4" d="M635.1,203l-106.6,61.1v188.3L635.1,391V203z"/>
		<path class="st86" d="M546.8,377v43.7l70-40.2v-43.7L546.8,377z"/>
		<path class="st85" d="M576,257.9l-29.2,16.6v90.1L576,348V257.9z"/>
		<path class="st87" d="M587.7,251.4v90.1l29.2-17v-90.1L587.7,251.4z"/>
		<path class="st89" d="M566.6,746c1.2,0,2.3-1.2,2.7-2.3l7-70.4l46.3-26.3l6.6,59.6c0,1.5,1.6,2.3,3.1,2.3c1.6,0,2.7-1.5,2.3-3.1
			l-8.2-67.7l-55.7,31.7l-7,73.1C563.9,744.4,564.7,745.6,566.6,746z"/>
		<path class="st90" d="M638.6,539.5c-0.8-0.4-1.6-0.4-2.3,0.4c-1.9,1.2-3.1,3.5-3.5,5.4l-8.6,84.7c0,1.9-1.6,3.9-3.1,4.6L573.2,662
			c-3.5,1.9-6.6,7-6.6,11.2v1.2l64.2,36.7l59.9-39.8l11.7-95.5L638.6,539.5z"/>
		<path class="st91" d="M630.8,782.7c1.6,0,2.3-1.2,2.7-2.3l7-70.4l46.3-26.3l6.6,59.6c0,1.5,1.6,2.3,3.1,2.3c1.6,0,2.7-1.5,2.3-3.1
			l-7.4-67.7l-55.7,31.7l-7,73.1C628.1,781.5,629.3,782.7,630.8,782.7z"/>
		<path class="st92" d="M630.8,711.5l64.2-36.7l8.6-95.9c0.4-2.3-1.2-3.5-3.5-2.3c-1.9,1.2-3.1,3.5-3.5,5.4l-8.6,84.7
			c0,1.9-1.6,3.9-3.1,4.6l-47.9,27.5c-3.5,1.9-6.6,7-6.6,11.2L630.8,711.5z"/>
		<path class="st83" d="M565.9,752.2c3.1,3.1,3.5,9.3,2.7,15.1c-2.3,3.5-3.5,5-7.8,6.2c0,0-5.1,1.5-9.3,4.2
			c-8.9,9.3-17.5,10.4-20.6,9.3c-10.5-3.9,0.8-12.8,3.9-15.1c0.8-0.8,12.5-11.6,12.5-11.6l2.7-4.3l-0.4-9.7l15.2-4.6L565.9,752.2z"
			/>
		<path class="st85" d="M534.3,682.9c1.9,23.6,9.3,41.4,15.6,73.5c2.7,2.3,8.6,4.3,12.8,2.7c2.3-0.8,4.3-2.3,5.1-5.8
			c0.8-27.1,0.8-48.3-7-65.7c23-10.1,53.3-13.1,72-28.6c7.4-6.2,12.8-12,14.4-17.8c0.8-2.7,0.8-5.8-0.4-8.5
			c-0.8-1.5-1.6-3.1-2.7-4.6l-5.8-4.3l-25.7-3.5c-3.1,1.5-7,3.9-10.9,5.8C573.6,641.9,534.3,668.2,534.3,682.9z"/>
		<path class="st93" d="M560.8,758.3c0,0,0.8,0.4,1.9,0.8c2.3-0.8,4.3-2.3,5.1-5.8c0.8-27.1,0.8-48.3-7-65.7
			c23-10.1,53.3-13.1,72-28.6c7.4-6.2,12.8-12,14.4-17.8l-0.4-8.5c-0.8-1.5-1.6-3.1-2.7-4.6l-5.8-4.3l-25.7-3.5
			c-3.1,1.5-7,3.9-10.9,5.8c-1.9,24-25.7,41-51.8,57.2C559.6,706.1,562.4,731.3,560.8,758.3z"/>
		<path class="st83" d="M607.5,775.4c3.1,3.1,3.1,8.9,2.7,15.1c-2.3,3.5-5.8,5.4-9.7,6.6c0,0-14.4,13.9-28.4,11.6c-14-1.9,0-12,0-12
			l16-13.9l3.1-4.3v-8.9l15.2-4.6L607.5,775.4z"/>
		<path class="st85" d="M569.4,700.3c1.9,23.6,15.6,46.8,21.4,78.5c5.4,4.3,10.1,4.6,14,0.4c1.2-1.2,1.9-2.7,2.7-4.6
			c0.8-27.1-0.8-51-8.6-68.8c23-10.1,41.3-20.1,59.9-35.6c12.8-10.8,12.1-29.8,3.1-39.8l-2.7-0.4h-0.4l-42,8.5c-2.3,2.7-4.7,5-7,7.7
			c-3.1,3.5-6.2,7-9.3,10.4C585.3,674.8,571.7,691.1,569.4,700.3z"/>
		<path class="st93" d="M602.4,780.4l2.7-1.2c1.2-1.2,1.9-2.7,2.7-4.6c0.8-27.1-0.8-51-8.6-68.8c23-10.1,41.3-20.1,59.9-35.6
			c12.8-10.8,12.1-29.8,3.1-39.8l-2.7-0.4l-49.4,16.2c-3.1,3.5-6.2,7-9.3,10.4c5.4,0.8,17.1,1.2,42,0.8c-9,18.6-29.2,34-54.5,44.9
			C599.7,722.8,602.4,750.2,602.4,780.4z"/>
		<path class="st91" d="M439.8,800.9c-22.2,12.8-22.2,33.7,0,46.4c22.2,12.7,58.8,12.7,80.9,0c22.2-12.8,22.2-33.7,0-46.4
			C498.1,788.1,461.9,788.1,439.8,800.9z"/>
		<path class="st4" d="M439.8,795.5c-22.2,12.8-22.2,33.7,0,46.4c22.2,12.8,58.8,12.8,80.9,0c22.2-12.7,22.2-33.6,0-46.4
			C498.1,782.3,461.9,782.3,439.8,795.5z"/>
		<path class="st91" d="M467.8,811.3c-7,3.8-7,10.4,0,14.3c7,3.9,18.3,3.9,25.3,0c7-3.8,7-10.4,0-14.3
			C485.7,807.4,474.4,807.4,467.8,811.3z"/>
		<path class="st82" d="M467.8,806.7c-7,3.8-7,10.4,0,14.3c7,3.9,18.3,3.9,25.3,0c7-3.8,7-10.4,0-14.3
			C485.7,802.8,474.4,802.8,467.8,806.7z"/>
		<path class="st91" d="M470.5,805.1c-5.4,3.1-5.4,8.1,0,11.2c5.5,3.1,14,3.1,19.5,0c5.4-3.1,5.4-8.1,0-11.2
			C484.5,802.1,476,802.1,470.5,805.1z"/>
		<path class="st91" d="M493.9,722h-27.2v89.4h27.2V722z"/>
		<path class="st91" d="M399.3,666.3c-44.8,25.5-44.8,67.3,0,92.8c44.8,25.5,117.1,25.5,161.9,0c44.8-25.5,44.8-67.3,0-92.8
			C516.4,640.8,444,640.8,399.3,666.3z"/>
		<path class="st4" d="M399.3,660.1c-44.8,25.5-44.8,67.3,0,92.8c44.8,25.5,117.1,25.5,161.9,0c44.8-25.5,44.8-67.3,0-92.8
			C516.4,634.2,444,634.2,399.3,660.1z"/>
		<path class="st4" d="M542.9,629.6c3.5-1.5,5.8-0.4,7.4,3.5c0.4-0.4,0.8-0.4,1.6-0.8c12.8-7.3,24.5-16.6,36.6-27.8l6.6-22.4
			l8.2-27.8l4.7-8.5l-8.2-6.2c-12.1-1.9-16,3.9-18.7,16.6l-10.9,39.1C560.4,603.3,551.5,614.9,542.9,629.6z"/>
		<path class="st94" d="M551.5,632.3c12.8-7.3,24.5-16.6,36.6-27.8l6.6-22.4l-9.7-18.9c-2.3,15.5-8.9,26.7-9.3,40.6L551.5,632.3z"/>
		<path class="st83" d="M626.2,522.1c23.7,7.7,18.7,30.2,12.5,47.6l-16.7-15.9L626.2,522.1z"/>
		<path class="st4" d="M580.7,596.7v0.4c0.4,13.5,19.5,12.4,19.5,12.4l7.4,16.2c1.9,23.6,43.2,29.8,54.9,4.6
			c-8.2-11.6-8.2-11.6-9-19.7c0.8-2.3,1.2-4.3,1.6-6.2c3.9-15.9,1.9-27.8-5.1-41.4c-6.6-8.9-21.8-17.4-31.5-20.9l-28-0.8l-5.5,20.1
			C586.5,587,580.7,586.3,580.7,596.7z"/>
		<path class="st95" d="M623.1,537.5c1.6,5,5.4,13.1,6.6,18.2c1.2,6.2-10.1,15.5-17.9,15.1c-5.4-1.2-6.6-7.7-7.4-14.3L623.1,537.5z"
			/>
		<path class="st94" d="M619.2,541.4c0,0,4.3,36.3-13.2,33.3c-11.7-1.9-9-20.9-9-20.9L619.2,541.4z"/>
		<path class="st95" d="M607.9,508.1c-17.5,2.3-23,12.8-21.4,26.7c0.4,11.6,10.1,27.1,16.7,27.1c9.7,0.4,14.4-10.8,23-22.8
			C632.8,519,624.6,505.8,607.9,508.1z"/>
		<path class="st83" d="M586.9,535.2c3.5,3.9,9.7,6.2,16.7,7.7c6.2,2.7,12.1,2.3,14.8,5.8l7-3.1c7.4-8.1,7.8-31.7-4.3-36.7
			C601.3,500.8,577.9,520.9,586.9,535.2z"/>
		<path class="st95" d="M618.8,545.3c1.2-4.3,4.3-7,6.6-4.6c1.2,1.2,1.2,3.1,0,5.8c-0.8,1.9-2.3,3.1-3.9,3.5
			C619.2,550.3,618,548.4,618.8,545.3z"/>
		<path class="st94" d="M580.7,597.5c0.4,13.5,19.5,12.4,19.5,12.4l7.4,16.2c1.9,23.6,43.2,29.8,54.9,4.6c-8.2-11.6-8.2-11.6-9-19.7
			c0.8-2.3,1.2-4.3,1.6-6.2L638.3,587l-9.7,21.3c-7.8,16.6-26.1,9.7-27.6-3.9C598.6,608.7,584.5,607.9,580.7,597.5z"/>
		<path class="st87" d="M549.5,702.7l51.8-29.8L567,652.4l-37-18.2l-53.3,26.7l39.7,19.7L549.5,702.7z"/>
		<path class="st96" d="M520.3,684.1l-3.5-1.2l-3.9-2.7l0.4-1.5l3.1,1.9l3.5,1.9L520.3,684.1z"/>
		<path class="st96" d="M513.3,680.6l-36.6-17.8v-1.9l36.6,17.8V680.6z"/>
		<path class="st96" d="M519.9,684.5l29.6,19.7v-1.5l-29.6-20.1V684.5z"/>
		<path class="st96" d="M519.9,684.5c0,1.9-6.6-1.9-6.6-3.9v-1.5c0,2.3,7,5.8,7,3.5L519.9,684.5z"/>
		<path class="st96" d="M549.5,704.2v-1.5l51.8-29.8v1.9L549.5,704.2z"/>
		<path class="st4" d="M481.4,660.9l33.9,16.6l48.3-24l-33.5-16.6L481.4,660.9z"/>
		<path class="st95" d="M549.5,631.5c1.2,2.7,1.2,5.8,1.2,8.1l-1.2,4.3l-2.3,4.3c-1.2,2.3-3.1,1.2-2.3-1.2l1.9-3.9v-3.5l-5.4,5.8
			l-4.7,7.3c-1.6,1.5-2.3,0.8-2.3-0.8l-1.6,1.9c-1.6,1.5-3.1,0-2.3-1.2l-0.8,0.4c-1.2,1.5-3.1,0.4-1.9-1.5l0.8-1.5
			c-1.6,1.2-1.6-0.8,0-3.1l4.3-8.1c0.8-1.9,7.4-8.5,10.5-9.7C545.6,628.4,548,629.2,549.5,631.5z"/>
		<path class="st95" d="M587.3,659c-1.6,4.6-4.3,7-8.9,10.4l-9,5.8c-2.7,0.8-2.7-0.4-1.9-2.3l-3.9,2.7c-2.3,1.5-4.7,0-3.5-1.9
			l-2.3,1.2c-2.3,0.8-3.5-0.8-1.2-3.1l1.6-1.5c-1.9,1.2-4.3,0-1.6-2.7c5.1-5.4,9.3-9.7,14.4-13.5c3.9-1.9,7-2.7,11.7-3.1l7.8-2.7
			l3.9,7.3L587.3,659z"/>
		<path class="st4" d="M649.9,563c8.2,6.6,10.1,13.5,8.9,27.5c-3.5,32.5-16.7,53.4-16.7,53.4c-14,7.7-33.9,11.6-54.9,14.7
			c0.4-4.3-0.8-7.3-4.7-8.5c18.7-8.9,39.3-21.7,47.1-20.9c0.4-16.6,3.1-29.8,6.6-44.5C639.4,574.7,643.3,566.5,649.9,563z"/>
		<path class="st87" d="M434.3,665.5v65l28.8-16.6v-65L434.3,665.5z"/>
		<path class="st87" d="M413.7,718.5l20.6,12v-65l-20.6-12V718.5z"/>
		<path class="st87" d="M413.7,653.5l1.6,1.2l19.1,10.8l28.8-16.6l-19.1-10.8l-1.6-0.8L413.7,653.5z"/>
		<path class="st97" d="M434.3,696.5v34l28.4-16.2v-35.6c-3.9-1.2-8.6-0.4-13.6,2.3C443.7,684.1,438.2,689.9,434.3,696.5z"/>
		<path class="st4" d="M443.3,696.1c0,4.3,3.1,6.2,7,3.9c3.9-2.3,7-7.7,7-12c0-4.3-3.1-6.2-7-3.9C446.4,686,443.3,691.4,443.3,696.1
			z"/>
		<path class="st87" d="M446,694.1c0,2.7,1.9,3.5,3.9,2.3c2.3-1.2,3.9-4.3,3.9-7c0-2.7-1.9-3.5-3.9-2.3
			C447.9,688.7,446,691.8,446,694.1z"/>
		<path class="st4" d="M429.3,724.3l1.2,0.8v-38.3l-1.2-0.8V724.3z"/>
		<path class="st4" d="M426.5,722.8l1.2,0.8v-32.9l-1.2-0.8V722.8z"/>
		<path class="st4" d="M423.4,721.2l1.6,0.8v-24.8l-1.6-0.8V721.2z"/>
		<path class="st4" d="M420.7,719.7l1.2,0.8v-29.8l-1.2-0.8V719.7z"/>
		<path class="st4" d="M438.6,713.1l20.2-11.6v-3.9l-20.2,11.6V713.1z"/>
		<path class="st4" d="M440.2,715.4l17.1-9.7v-1.9l-17.1,9.7V715.4z"/>
		<path class="st4" d="M440.2,718.9l17.1-9.7v-2.3L440.2,717V718.9z"/>
		<path class="st4" d="M443.7,720.1l10.1-5.8v-1.9l-10.1,5.8V720.1z"/>
		<path class="st4" d="M438.2,670.9c0,1.5,1.2,2.3,2.7,1.5l16-8.9c1.6-0.8,2.7-2.7,2.7-4.3s-1.2-2.3-2.7-1.5l-16,8.9
			C439.4,667.1,438.2,669,438.2,670.9z"/>
		<path class="st87" d="M477.1,677.1v65l28.8-16.2v-65L477.1,677.1z"/>
		<path class="st87" d="M456.5,730.1l20.6,12v-65l-20.6-11.6V730.1z"/>
		<path class="st87" d="M456.5,665.5l1.6,0.8l19.1,10.8l28.8-16.2l-19.1-10.8l-1.6-1.2L456.5,665.5z"/>
		<path class="st97" d="M477.1,708.1v34l28.4-16.2v-35.6c-3.9-1.2-8.6-0.4-13.6,2.3C486.5,696.1,481,701.9,477.1,708.1z"/>
		<path class="st4" d="M486.1,707.7c0,4.3,3.1,6.2,7,3.9c3.9-2.3,7-7.7,7-12c0-4.2-3.1-6.2-7-3.9C489.2,698,486.1,703.4,486.1,707.7
			z"/>
		<path class="st87" d="M488.8,706.1c0,2.7,1.9,3.5,3.9,2.3c2.3-1.2,3.9-4.3,3.9-7c0-2.7-1.9-3.5-3.9-2.3
			C490.7,700.3,488.8,703.4,488.8,706.1z"/>
		<path class="st4" d="M472.1,736.3l1.6,0.8v-38.3l-1.6-0.8V736.3z"/>
		<path class="st4" d="M469.3,734.7l1.2,0.8v-32.9l-1.2-0.8V734.7z"/>
		<path class="st4" d="M466.2,732.8l1.6,1.2v-24.8l-1.6-0.8V732.8z"/>
		<path class="st4" d="M463.5,731.3l1.2,0.8v-29.8l-1.2-0.8V731.3z"/>
		<path class="st4" d="M481.4,725.1l20.2-11.6v-4.3l-20.2,12V725.1z"/>
		<path class="st4" d="M483,727.4l17.1-9.7v-1.9l-17.1,9.7V727.4z"/>
		<path class="st4" d="M483,730.5l17.1-9.7v-1.9l-17.1,9.7V730.5z"/>
		<path class="st4" d="M486.5,732l10.1-5.8v-1.9l-10.1,5.8V732z"/>
		<path class="st4" d="M481,682.5c0,1.5,1.2,2.3,2.7,1.5l16-8.9c1.6-0.8,2.7-2.7,2.7-4.3c0-1.5-1.2-2.3-2.7-1.5l-16,8.9
			C482.2,679.1,481,681,481,682.5z"/>
		<path class="st87" d="M516.8,681.4v65l28.4-16.2v-65L516.8,681.4z"/>
		<path class="st87" d="M496.2,734.4l20.6,12v-65l-20.6-11.6V734.4z"/>
		<path class="st87" d="M496.2,669.8l1.6,0.8l19.1,10.8l28.4-16.2l-19.1-10.8l-1.6-1.2L496.2,669.8z"/>
		<path class="st97" d="M516.8,712.3v34l28.4-16.2v-35.6c-3.9-1.2-8.6-0.4-13.6,2.3C525.8,700.3,520.7,705.7,516.8,712.3z"/>
		<path class="st4" d="M525.4,711.9c0,4.3,3.1,6.2,7,3.9c3.9-2.3,7-7.7,7-12c0-4.3-3.1-6.2-7-3.9
			C528.5,702.3,525.4,707.7,525.4,711.9z"/>
		<path class="st87" d="M528.5,710.4c0,2.7,1.9,3.5,3.9,2.3c2.3-1.2,3.9-4.3,3.9-7c0-2.7-1.9-3.5-3.9-2.3
			C530.1,704.6,528.5,707.7,528.5,710.4z"/>
		<path class="st4" d="M511.4,740.5l1.6,0.8V703l-1.6-0.8V740.5z"/>
		<path class="st4" d="M508.7,739l1.2,0.8v-32.9l-1.2-0.8V739z"/>
		<path class="st4" d="M505.9,737.1l1.2,0.8v-24.4l-1.2-0.8V737.1z"/>
		<path class="st4" d="M502.8,735.5l1.6,0.8v-29.8l-1.6-0.8V735.5z"/>
		<path class="st4" d="M520.7,729.3l20.6-11.6v-4.3l-20.6,11.6V729.3z"/>
		<path class="st4" d="M522.7,731.7l16.7-9.7v-2.3l-16.7,10.1V731.7z"/>
		<path class="st4" d="M522.7,734.7l16.7-9.7v-1.9l-16.7,9.7V734.7z"/>
		<path class="st4" d="M526.2,736.3l9.7-5.8v-2.3l-9.7,5.8V736.3z"/>
		<path class="st4" d="M520.7,686.8c0,1.5,1.2,2.3,2.7,1.5l16-8.9c1.6-0.8,2.7-2.7,2.7-4.3c0-1.5-1.2-2.3-2.7-1.5l-16,8.9
			C521.5,683.3,520.7,685.2,520.7,686.8z"/>
		<path class="st90" d="M304,840.3l29.6-51l65.4,37.5l-55.7,36L304,840.3z"/>
		<path class="st91" d="M336.3,940.9c1.2,0,2.3-1.1,2.7-2.3l7-70.4l46.3-26.3l6.6,59.6c0,1.5,1.6,2.3,3.1,2.3c1.6,0,2.7-1.5,2.3-3.1
			L397,833l-55.7,31.7l-7,73.1C333.5,939.3,334.7,940.9,336.3,940.9z"/>
		<path class="st92" d="M346.8,854.6l47.9-27.5c3.5-1.9,6.6-0.4,6.6,3.9v1.1L337.4,869l7-14.3C344.8,855.4,345.6,855.4,346.8,854.6z
			"/>
		<path class="st91" d="M264.3,899.5c1.2,0,2.3-1.1,2.7-2.3l7-70.4l46.3-26.3l6.6,59.5c0,1.5,1.6,2.3,3.1,2.3c1.6,0,2.3-1.5,2.3-3.1
			l-7.4-67.7l-56.4,32.1l-7,73.1C261.5,898.3,262.3,899.5,264.3,899.5z"/>
		<path class="st87" d="M261.9,735.5c-0.8-0.4-1.6-0.4-2.3,0.4c-1.9,1.2-3.5,4.3-3.5,6.2l8.6,85.9l64.2-36.8V790
			c0-4.3-3.1-5.8-6.6-3.9l-47.9,27.5c-1.6,0.8-2.7,0.4-3.1-1.1l-8.6-74.6C262.7,736.3,262.7,735.9,261.9,735.5z"/>
		<path class="st90" d="M334.3,776.9l-72-41.4c-0.8-0.4-1.6-0.4-2.3,0.4c-1.9,1.2-3.5,4.3-3.5,6.2L265,828l72,41.3L334.3,776.9z"/>
		<path class="st92" d="M328.1,783.5c-0.4-2.3,1.2-5,3.5-6.2c1.9-1.2,3.1-0.4,3.5,1.5l8.6,74.6c0,0.3,0.4,0.7,0.4,1.1l-7,14.3
			l-0.4,0.3L328.1,783.5z"/>
		<path class="st92" d="M732.4,699.9l100.4,57.6V891l-100.4-57.6V699.9z"/>
		<path class="st4" d="M946.5,577.4l100.4,57.6l-214,122.6l-100.4-57.6L946.5,577.4z"/>
		<path class="st90" d="M1046.9,768.4V635l-214,122.6V891L1046.9,768.4z"/>
		<path class="st92" d="M1034.4,643.1l-12.5-7V293.9l12.5,7.3V643.1z"/>
		<path class="st98" d="M1046.9,293.9l-12.5,7.3l-12.5-7.3l12.5-7L1046.9,293.9z"/>
		<path class="st90" d="M1034.4,643.1l12.5-7V293.9l-12.5,7.3V643.1z"/>
		<path class="st92" d="M467.8,1102.5l-12.5-6.9V621.1l12.5,7.3V1102.5z"/>
		<path class="st98" d="M479.9,621.1l-12.1,7.3l-12.5-7.3l12.5-7L479.9,621.1z"/>
		<path class="st90" d="M467.8,1102.5l12.1-6.9V621.1l-12.1,7.3V1102.5z"/>
		<path class="st99" d="M695.8,91.3L116.8,425.4l351,203l579.1-334.5L695.8,91.3z M132.3,425.4l563.5-325.2l335.5,193.7L467.8,619.1
			L132.3,425.4z"/>
		<path class="st4" d="M695.8,0L116.8,334.5l351,203L1046.9,203L695.8,0z M132.3,334.5L695.8,8.9L1031.3,203L467.8,528.2
			L132.3,334.5z"/>
		<path class="st90" d="M1046.9,293.9L467.8,628.4v-91.3L1046.9,203V293.9z"/>
		<path class="st4" d="M997.5,292v-27.5L587.7,501.2v27.5L997.5,292z"/>
		<path class="st90" d="M695.8,100.2L211.3,379.7l-79-45.2L695.8,8.9V100.2z"/>
		<path class="st92" d="M116.8,425.4l351,203v-91.3l-351-202.6V425.4z"/>
		<path class="st92" d="M695.8,100.2l256.5,148.5l79-45.6L695.8,8.9V100.2z"/>
		<path class="st100" d="M986.2,658.6l12.5-1.2l-1.9-3.9l-7.8-5.8L986.2,658.6z"/>
		<path class="st101" d="M1006.8,678.7l-26.5-43.3l-28,13.5l26.5,43.3L1006.8,678.7z"/>
		<path class="st4" d="M977.6,687.2l25.3-12.4l-23.3-37.5l-25.3,12L977.6,687.2z"/>
		<path class="st95" d="M979.2,646.6l5.1-0.8c1.9,3.9,4.7,5.8,8.2,6.6l2.7,0.8c1.2-2.3,1.9-3.5,2.3-4.3c-0.4-3.5-2.3-6.6-4.3-7.4
			l-7.8-1.5l-9.3,3.5C975.7,645.8,976.4,646.6,979.2,646.6z"/>
		<path class="st101" d="M976.4,685.6h0.4c0.8,0,1.6-1.2,1.2-1.9l-8.2-38.3c0-0.8-1.2-1.5-1.9-1.2c-0.8,0.4-1.6,1.2-1.2,1.9
			l8.2,38.3C975.3,685.2,975.7,685.6,976.4,685.6z"/>
		<path class="st95" d="M958.9,667.1c-0.4,1.5,0.8,2.7,0.8,3.5c0,0.4,0,1.2,0,1.9c0,0.4,0,0.8,0,1.2c0,2.3,5.8,6.2,7.4,7.3l7.4,3.5
			l8.6,7.7l1.9-3.1l4.3-6.6l-6.6-7.7c0.4-4.3,0.8-7.7-0.8-10.8l-3.5-3.9l-6.2-3.1l0.8,2.7c0,0-2.7-1.9-5.1-3.1
			c-1.2-0.8-3.1-1.2-4.3,0c-0.4,0.4-0.4,1.5-0.8,2.3c-0.4,0.8-1.9,1.2-2.3,1.9c-0.4,0.8,0,2.3,0,3.1
			C960.5,664.8,959.3,665.5,958.9,667.1z"/>
		<path class="st102" d="M972.5,657.8l6.2,5l-5.8-3.1L972.5,657.8z"/>
		<path class="st102" d="M959.7,672.5c0,0.4,0,0.8,0,1.2c0,2.3,5.8,6.2,7.4,7.3l7.4,3.5l8.6,7.7l1.9-3.1c-3.9-2.3-7-6.2-8.9-8.9
			C969.4,679.8,962,677.5,959.7,672.5z"/>
		<path class="st4" d="M1008.7,691.4c15.2,8.1,70.4,13.5,75.1-3.1c14-45.6,1.2-71.5-9.7-76.6
			C1074.1,611.8,1003.7,692.6,1008.7,691.4z"/>
		<path class="st83" d="M988.5,920.4c0-6.2,4.7-8.5,12.1-9.3c6.2,0,14.4,2.7,25.7,5.4l12.5,7c2.3,6.1,2.3,12,0.8,17.4
			c-3.5,3.1-7.8,5-12.1,3.9l-14-5.8l-1.2-1.9C1001,935.1,988.5,930,988.5,920.4z"/>
		<path class="st83" d="M1034,895.6c0-5,4.7-5.8,11.3-6.6c12.1,0,12.8,6.2,24.1,5.8l10.9,6.6c2.3,6.6,1.9,13.1,0.4,18.6
			c-3.5,2.7-8.6,3.5-12.5,3.1l-11.3-6.6l-0.8-1.9C1045.7,913,1034,905.3,1034,895.6z"/>
		<path class="st103" d="M1074.1,723.9l-40.9,17c0,7.3,0,13.9,0.8,18.9c2.7,18.6,10.1,46.8,10.1,46.8c5.4,24,7.8,53.7,9,85
			c0.4,11.2,17.1,21.3,28,10.5c3.1-38.3,3.1-75.4-5.8-100.2c4.3-19.4,0.4-41.4-0.8-63.8C1074.9,735.5,1073,724.7,1074.1,723.9z"/>
		<path class="st91" d="M999.8,781.9c1.6,18.6,7.4,46.8,7.4,46.8l4.3,85.1c-0.8,5.8,1.6,10,5.4,13.1c5.8,4.2,15.6,4.2,22.2-3.1
			c5.4-38.2,7.4-75-0.4-99.4c5.4-19.3,5.1-37.5,5.1-59.9c12.5-5,31.9-12.4,31.1-32.1c-0.4-7.3-1.6-14.7-3.5-21.7
			c-0.4-1.2-0.8-2.7-1.2-3.9c-0.4-1.2-0.8-1.9-1.2-3.1c-7,13.9-29.2,22.4-53.3,19.3c-1.2,0-1.9-0.4-3.1-0.4
			c-2.7-0.4-5.1-1.2-7.8-1.5c0,0-0.4,1.5-0.4,3.9c-0.4,1.9-0.8,4.6-1.2,7.3C1001.7,745.6,999,769.2,999.8,781.9z"/>
		<path class="st93" d="M999.8,781.9c1.6,18.6,7.4,46.8,7.4,46.8l4.3,85.1c-0.8,5.8,1.6,10,5.5,13.1c-3.9-35.6-5.5-69.2,0-95.1
			c-8.2-29.4-8.6-63.4,0.8-85.8c0-8.9-4.3-14.3-2.3-20.9c-3.5-1.2-7-2.3-10.5-3.9C1004.8,720.4,998.2,763,999.8,781.9z"/>
		<path class="st104" d="M1073.3,704.6c-1.2,4.3-1.2,8.9,0,13.1c1.2,3.9,1.6,7.7,1.6,12c-8.2,11.2-28.8,21.3-49.8,17.8
			c-1.2-0.4-3.9-1.2-7.4-1.9h-0.4c-2.3-0.8-5.1-1.5-7.4-1.9c-0.4,0-0.8,0-0.8-0.4c-0.8-0.4-1.6-0.4-2.3-0.8
			c-1.2-0.4-1.9-0.8-2.7-0.8c-0.4,0-0.8-0.4-1.2-0.4c-0.4,0-0.4,0-0.8-0.4c0,0,1.2-17.4,0.8-17.8c-1.6-15.1-1.2-21.7-2.3-40.6
			c0-0.8,0-1.5,0-1.9c0-1.9,0-4.3-0.4-6.2c-6.6-25.9-1.9-29,4.7-33.3c22.6-14.3,40.1-32.5,69.3-29
			C1096.3,633,1073.7,702.3,1073.3,704.6z"/>
		<path class="st100" d="M1016.9,602.9c-1.6-1.5,0.8-5.4,2.3-5.8c2.3-0.8,3.5,2.3,3.5,4.3c0.4,2.3,0,4.3-1.2,6.2
			c-1.6,2.3-3.9,0-4.7-1.9C1016.5,604.4,1017.7,604,1016.9,602.9z"/>
		<path class="st95" d="M1050.4,613.7l-10.1-17l-27.2,13.2l10.5,19.3C1033.6,629.2,1053.5,620.3,1050.4,613.7z"/>
		<path class="st95" d="M1022.4,618c0,0-3.5,6.6-8.9,1.5c-5.5-5-14.8-21.7-11.7-35.2c3.1-13.5,25.7,4.6,25.7,4.6L1022.4,618z"/>
		<path class="st83" d="M1046.1,607.1c0,0-11.3,3.5-19.5,8.9c-1.9,1.2-4.7,1.2-6.6-0.4l-3.5-2.7l-2.3-7.3l-5.4-2.3l0.4-5.4
			c-3.1-0.8-5.8-3.1-8.2-5.8c-7.4-12.4,8.2-26.3,24.5-25.1C1046.9,567.7,1051.9,590.1,1046.1,607.1z"/>
		<path class="st95" d="M1010.7,605.2c0-0.8-0.4-1.5,0-2.3c0-0.8,0.4-1.5,1.2-1.9c1.2-0.8,3.1,0,3.9,1.2c0.8,1.2,1.2,2.7,1.2,4.2
			c0,1.2,0,2.3,0.4,3.1c0,0.8,0,1.9,0,2.7c-0.4,0.8-1.2,1.5-1.9,1.5c-0.8,0-1.2-0.4-1.6-0.8c-0.4-0.4-0.8-1.2-0.8-1.9
			C1011.5,609.1,1011.1,607.1,1010.7,605.2z"/>
		<path class="st105" d="M1017.7,745.2h-0.4c-2.7-0.8-5.1-1.2-7.4-1.9c-0.4,0-0.8,0-0.8-0.4c-0.8-0.4-1.6-0.4-2.3-0.8
			c-1.2-0.4-1.9-0.8-2.7-0.8c-0.4,0-0.8-0.4-1.2-0.4c-0.4,0-0.4,0-0.8-0.4c0,0,1.2-17.4,0.8-17.8c-1.6-15.1-1.2-21.7-2.3-40.6
			l19.1-16.2C1025.9,693.4,1025.9,713.9,1017.7,745.2z"/>
		<path class="st4" d="M999.4,645.4c-9.7,5.8-10.5,12.8-10.5,27.5l0.8,8.5l-7-6.6c-7-0.4-10.5,3.1-9.7,12
			c2.3,14.7,9.7,30.9,21.8,34.8c6.6,2.3,13.6-0.8,16.7-13.5l8.2-32.9C1020.8,653.5,1016.1,641.6,999.4,645.4z"/>
		<path class="st4" d="M1051.2,614.1l-2.7-3.9c-1.6,4.3-10.9,9.7-27.2,13.9l0.4,5C1036.4,632.3,1054.3,620.7,1051.2,614.1z"/>
		<path class="st4" d="M871,552.2l-16-43.7c-2.7-17.4-12.8-20.5-21.4-23.6l-5.8,30.6l5.8,12l17.9,36.3c2.7,5.4,5.4,11.2,8.2,17
			l17.1-14.3C874.9,561.5,872.9,556.9,871,552.2z"/>
		<path class="st94" d="M852.7,550.7l-6.6-42.1l-12.8,18.9l17.9,36.3c2.7,5.4,5.5,11.2,8.2,17l3.9-3.1
			C858.9,568.1,855,558.8,852.7,550.7z"/>
		<path class="st4" d="M848,517.8c0,42.2-27.6,69.2-27.6,70.8c-2.7,1.9-5.1,3.5-7.4,5c-42,26.7-57.6-10.1-57.6-10.1
			c1.9-13.9-3.9-24-1.6-42.9c0-0.8,0.4-1.5,0.4-2.3c1.9-18.6,14.4-33.6,32.7-38.3c5.1-1.2,9.3-3.5,13.2-7
			c9.3-8.9,17.1-10.4,30.7-8.5C842.6,490.3,847.6,501.9,848,517.8z"/>
		<path class="st94" d="M813.4,593.2c-42,26.7-57.6-10.1-57.6-10.1c1.9-13.9-3.9-24-1.6-42.9c1.9-13.9,11.3-15.5,24.9-9.7l17.1,35.6
			L813.4,593.2z"/>
		<path class="st87" d="M818.4,519l2.3,7.3l4.3-1.5v-8.5l-4.3-3.1L818.4,519z"/>
		<path class="st87" d="M820.8,526.3c1.2,15.5,1.2,45.2,0,61.5l7,6.6l4.7-10.8c-0.8-16.2-3.9-43.7-7.4-58.8L820.8,526.3z"/>
		<path class="st95" d="M808.7,483c-0.4,0-8.6,10.1-8.6,10.1c-10.9,6.2,3.1,29.4,18.3,26.7l12.5-8.5L808.7,483z"/>
		<path class="st106" d="M802.5,490c-1.9,1.5-5.5,3.9-8.6,6.6c0,0,5.8,27.8,24.5,29.4c1.2-5,3.5-8.5,3.5-8.5
			C810.3,515.9,802.5,498.5,802.5,490z"/>
		<path class="st106" d="M821.9,517.4l6.6,6.6c0,0,6.6-26.3,0.8-31.7C823.5,486.5,821.9,517.4,821.9,517.4z"/>
		<path class="st94" d="M837.5,503.9c0,10.8-3.1,30.2-10.5,29c-10.5,1.9-14.4-29-10.5-37.1L837.5,503.9z"/>
		<path class="st95" d="M827,455.2c-13.6,0-21,6.6-21.8,20.5c0.4,14.7,1.2,23.6,8.2,33.6c4.3,5.4,10.5,9.7,17.5,9.3
			c8.2-0.4,20.2-20.1,21.4-34C854.6,469.9,842.2,459,827,455.2z"/>
		<path class="st83" d="M851.1,494.6c-3.1,7-21,5.8-28.8-3.1l-0.8,5.4l-7.4-5.8l-6.2,8.1l-2.3-3.1c-5.8-11.6-5.4-30.2,10.9-39.4
			C838.3,447.4,865.1,472.9,851.1,494.6z"/>
		<path class="st95" d="M812.2,497.3c-0.8-1.5-1.6-3.1-1.9-4.6c-0.4-1.5,0.4-3.5,1.6-4.6c1.2-1.2,3.5-1.2,4.7-0.4
			c0.8,0.8,1.2,1.9,1.2,3.1c0,1.2-0.4,2.3-0.8,3.5c-0.4,1.2-0.8,1.9-0.8,3.1c-0.4,0.8-0.4,1.5-1.2,1.9c-0.8,0.4-1.6,0-1.9-0.4
			C812.6,498.5,812.2,497.7,812.2,497.3z"/>
		<path class="st86" d="M835.6,655.1l40.1-22.8l56.8,32.5L892.4,688L835.6,655.1z"/>
		<path class="st107" d="M892.4,681l28.8-16.6l1.6,1.2l-28.8,16.6L892.4,681z"/>
		<path class="st107" d="M887.7,678.3l28.8-16.6l0.8,0.8l-28.8,16.6L887.7,678.3z"/>
		<path class="st107" d="M884.6,676.7l28.8-16.6l1.2,0.8l-28.8,16.6L884.6,676.7z"/>
		<path class="st107" d="M881.9,675.2l28.8-16.6l1.2,0.8L883,675.6L881.9,675.2z"/>
		<path class="st107" d="M876,671.7l28.8-16.2l1.2,0.4l-28.8,16.6L876,671.7z"/>
		<path class="st107" d="M873.3,670.2l28.8-16.6l1.2,0.8l-28.8,16.6L873.3,670.2z"/>
		<path class="st107" d="M888.1,658.2l11.3-6.2l0.8,0.8l-10.9,6.2L888.1,658.2z"/>
		<path class="st107" d="M867.5,667.1l28.8-16.6l1.2,0.4l-28.8,16.6L867.5,667.1z"/>
		<path class="st107" d="M864.8,665.1l28.8-16.2l1.2,0.4l-28.8,16.6L864.8,665.1z"/>
		<path class="st107" d="M868.6,659.7l22.2-12.8l0.8,0.8l-21.8,12.8L868.6,659.7z"/>
		<path class="st107" d="M869.4,649.7l12.8-7.3l1.2,0.4l-13.2,7.3L869.4,649.7z"/>
		<path class="st107" d="M866.3,648.1l12.8-7.3l1.2,0.4l-12.8,7.3L866.3,648.1z"/>
		<path class="st108" d="M869.4,653.1v0.4c0,0.4,0.4,1.2,0.4,1.5c0.4,0.4,0.4,1.2,1.2,1.2c0.4-0.4,0-0.4,0-0.8
			c-0.4-0.4-0.4-0.8-0.8-1.2C870.2,653.9,869.8,653.5,869.4,653.1c0.4-0.8,1.2-1.5,1.9-1.9C870.2,651.6,869.4,652.4,869.4,653.1
			c0-0.4-0.4-0.8-0.4-0.8c-1.2-1.5-3.1-2.7-3.5-4.2c-0.4-0.8,0-1.5,0.4-1.9c0.4-0.8,1.6-1.2,2.7-1.2c1.6,0,1.6,1.5,1.2,1.9
			c-0.4,0.8-0.8,1.2-1.6,1.9c1.2-0.8,2.7-2.3,1.2-3.5c-0.4-0.4-1.6-0.4-2.3-0.4c-0.8,0.4-1.6,0.8-1.9,1.5c-0.8,1.5,0,2.7,1.2,4.3
			c0.8,0.8,1.6,1.5,1.9,2.3C869,652.8,869,653.1,869.4,653.1z M870.6,655.1c0,0.4,0.4,0.8,0.4,1.2c-0.4,0-0.4-0.4-0.8-0.8
			c0-0.4-0.4-0.4-0.4-0.8c-0.4-0.4-0.4-0.8-0.4-1.2v-0.4C869.8,653.9,870.2,654.7,870.6,655.1z"/>
		<path class="st108" d="M858.1,658.6c1.9-0.4,3.1-1.5,2.3-2.7c-0.4,0-0.4,0-0.8,0c0.4,0,0-0.4,0-0.4c0-0.4,0-0.4,0-0.8
			c0.4,0.4,0.8,0.4,1.2,0.4s0.4,0,0.8,0c0-0.4,0-0.4,0-0.8c0.4,0.4,0.8,0.4,1.2,0c0.4-0.4,0.4-0.8,0-1.2c1.2,0.8,2.3,1.9,3.9,2.7
			c0-0.4-0.4-1.2-0.8-1.5c-0.4-0.4-1.2-1.2-1.6-1.9c0-0.4-0.4-0.4-0.4-0.8c0-0.4-0.4-0.8,0-1.2c0,0.4,0.4,0.8,0.4,1.2
			c0.4,0.4,0.4,0.8,0.8,0.8c0.4,0.4,0.4,0.4,1.2,0.4c0.8,0,0.8-0.8,0.4-1.2c-0.4-0.8-0.8-1.2-1.6-1.5c-0.4-0.4-0.8,0-1.2,0l0.4-0.4
			c0.4,0,0.8,0,1.2,0c0.4,0.4,0.8,0.8,0.8,0.8c0.4,0.4,0.8,0.8,0.4,1.2c0.4,0,0.4-0.4,0.4-0.4c-0.4-0.4-0.8-0.8-0.8-1.2
			c-0.4-0.4-1.2-1.2-1.9-0.4c-0.4,0-0.4,0.4-0.4,0.4l-0.4,0.4c0,0.4,0,0.8,0.4,0.8c0.4,0.4,0.4,0.8,0.8,1.2c0.4,0.4,0.8,0.8,1.2,1.2
			c0.4,0.4,0.8,0.8,0.8,1.2c-1.6-1.2-3.1-1.9-3.9-3.5c0-0.4-0.4-0.4-0.4-0.8c0,0.4,0,0.4,0.4,0.8c0.4,0.4,0.4,0.8,0.4,1.2v0.4
			c-0.4,0.4-1.2,0-1.2,0c-0.4-0.4-0.8-0.8-1.2-0.8c0,0.4,0.4,0.8,0.8,0.8c0,0,0,0.4,0.4,0.4v0.4c0,0.4-0.4,0.4-0.8,0
			c-0.4,0-0.8-0.4-1.2-0.4c0,0.4,0,0.8,0,1.2c0,0.4-0.8,0-0.8,0c0.4,0.4,0.8,0.4,1.6,0.4C860.9,656.6,860.1,657.8,858.1,658.6z
			 M864.4,650.8c0.8-0.4,1.9,0.8,2.3,0.8c0.4,0.4,0.4,0.4,0.4,0.8v0.4c0,0.4-0.4,0.4-0.8,0.4c-0.8-0.4-1.2-1.2-1.6-1.5
			C864.4,651.2,864.4,651.2,864.4,650.8z"/>
		<path class="st109" d="M824.3,643.5l5.4,5.4l8.6-13.9l-7.4-3.5L824.3,643.5z"/>
		<path class="st95" d="M852.3,638.8c-0.8,1.9-1.2,3.9-0.4,6.2l-0.8,1.9l-0.8,1.5l-0.8,2.7c-0.8,0.8-1.6,0.8-2.3,1.2l-1.2,1.9
			c-0.4,0.4-1.2,0.8-1.9,0.4l-1.6,1.5c-1.2,0.8-3.5,0.4-6.6,0c-0.4,0-5.5-2.3-5.5-2.3s-1.6-0.8-1.9-1.9c-0.4-1.5,0-1.9,0-2.7
			c-0.4-0.8-1.6-1.2-1.6-3.1c0-2.3,1.6-2.3,1.6-3.1c0-0.8-0.8-1.2,0-3.1c0.4-1.5,2.3-1.5,3.1-2.7c0.4-0.8,0.4-2.7,1.9-4.3
			c1.6-1.5,4.7,0,4.7,0l3.5,1.9l7.8-0.8l0.8,0.4C852.3,635.4,853.1,637.3,852.3,638.8z"/>
		<path class="st95" d="M843,635.4l5.8,0.8c0,0,0,6.2,0,5.8c0-0.4-2.3-2.7-3.9-4.3C843.7,636.5,843,635.4,843,635.4z"/>
		<path class="st107" d="M855.8,654.7l-22.6-28.6c-0.4-0.8-0.4-1.5,0.4-2.3c0.8-0.4,1.6-0.4,2.3,0.4l22.6,28.6
			c0.4,0.8,1.9,3.5,1.2,4.3C858.9,657.8,856.2,655.5,855.8,654.7z"/>
		<path class="st95" d="M851.1,647l-0.8,1.5l-0.8,2.7c-0.8,0.8-1.6,0.8-2.3,1.2l-1.2,1.9c-0.4,0.4-1.2,0.8-1.9,0.4l-1.6,1.5
			c-1.2,0.8-3.5,0.4-6.6,0c2.3-3.5,3.5-7.3,3.9-11.2l-3.1-4.6l12.8,4.3L851.1,647z"/>
		<path class="st95" d="M835.2,638.8l5.8,4.6l7.8,2.3c3.1,0.8,4.3-2.7,1.2-4.3c-0.4,0-6.2-2.7-6.2-2.7l-4.7-5.8
			C835.6,632.7,834,636.1,835.2,638.8z"/>
		<path class="st95" d="M841,635l-3.5-0.4l6.2,4.6l-1.9-4.3H841z"/>
		<path class="st110" d="M859.7,657.8l-0.8-0.8l0.4-0.4L859.7,657.8C860.1,657.4,860.1,657.4,859.7,657.8z"/>
		<path class="st4" d="M767.1,518.2c10.9,0.8,16.3,7,19.5,24.4l10.5,44.1c12.5,10.8,23.3,25.5,35.8,45.6c-4.3,3.1-7.8,8.1-6.6,13.2
			C806,633,788.9,618,776,597.9C763.6,565.8,746.1,529,767.1,518.2z"/>
		<path class="st95" d="M910.7,629.2c1.2,1.9-1.2,4.3-2.7,2.7l-0.8-0.4c0.8,1.5-1.6,3.9-3.1,2.3l-1.9-1.9c0,1.9-0.8,3.1-2.7,1.5
			l-5.8-7l-7-5v3.9l2.3,3.9c1.2,2.3-1.2,4.6-2.7,2.3l-1.9-2.7l-1.2-1.5l-1.6-4.6c0-2.7,0.4-6.6,1.6-10.1l-2.3-1.9l7-5l3.5,1.9
			c3.9,0.4,11.7,5.8,12.8,7.7l5.5,8.1c1.6,2.3,1.9,4.3,0,3.5L910.7,629.2z"/>
		<path class="st4" d="M859.7,580.4c6.6,12,14,24.4,22.6,36l2.3-2.7c1.9-2.7,4.7-4.6,7.4-5c-2.7-12.8-9-27.5-14.8-42.5L859.7,580.4z
			"/>
		<path class="st94" d="M859.7,580.4c6.6,12,14,24.4,22.6,36l2.3-2.7c-8.6-12.4-15.6-24.8-21-36L859.7,580.4z"/>
		<path class="st95" d="M904.1,634.2l-1.9-1.9c0,1.9-0.8,3.1-2.7,1.5l-5.8-7l-7-5v3.9l2.3,3.9c1.2,2.3-1.2,4.6-2.7,2.3l-1.9-2.7
			c1.2,1.2,2.3,2.3,3.1,1.9c0.4-1.5-0.8-3.9-2.3-5.8c0.8-1.5,0.8-4.3,0.4-7c2.3,3.5,5.1,5.4,8.6,5.8c1.6,3.5,3.5,7.3,5.8,8.9
			c1.2,0,1.6-1.2,1.6-2.3c0.8,1.5,2.3,2.7,3.9,2.3l1.2-1.5C907.9,633,905.6,635.7,904.1,634.2z"/>
		<path class="st4" d="M561.2,529.4c0,13.2-10.9,30.2-24.1,37.9c-13.2,7.7-24.1,3.1-24.1-10.1c0-13.2,10.9-30.2,24.1-37.9
			C550.3,511.6,561.2,516.3,561.2,529.4z"/>
		<path class="st87" d="M836.3,646.6v64.6l28.4-16.2v-65L836.3,646.6z"/>
		<path class="st87" d="M815.7,699.6l20.6,11.6v-64.6l-20.6-12V699.6z"/>
		<path class="st87" d="M815.7,634.6l1.6,0.8l19.1,11.2l28.4-16.6l-19.1-10.8l-1.6-0.8L815.7,634.6z"/>
		<path class="st97" d="M836.3,677.5v34l28.4-16.2v-35.6c-3.9-1.2-8.6-0.4-13.6,2.3C845.7,665.1,840.2,670.9,836.3,677.5z"/>
		<path class="st4" d="M845.3,676.7c0,4.3,3.1,6.2,7,3.9c3.9-2.3,7-7.7,7-12c0-4.3-3.1-6.2-7-3.9
			C848.4,667.1,845.3,672.5,845.3,676.7z"/>
		<path class="st87" d="M848,675.2c0,2.7,1.9,3.5,3.9,2.3c2.3-1.2,3.9-4.3,3.9-7s-1.9-3.5-3.9-2.3C850,669.4,848,672.9,848,675.2z"
			/>
		<path class="st4" d="M831.3,705.4l1.2,0.8v-38.3l-1.2-0.8V705.4z"/>
		<path class="st4" d="M828.2,703.8l1.6,0.8v-32.9l-1.6-0.8V703.8z"/>
		<path class="st4" d="M825.4,702.3l1.2,0.8v-24.7l-1.2-0.8V702.3z"/>
		<path class="st4" d="M822.3,700.3l1.6,0.8v-29.4l-1.6-0.8V700.3z"/>
		<path class="st4" d="M840.2,694.1l20.6-11.6v-4.3l-20.6,12V694.1z"/>
		<path class="st4" d="M842.2,696.5l16.7-9.7v-1.9l-16.7,9.7V696.5z"/>
		<path class="st4" d="M842.2,699.9l16.7-9.7V688l-16.7,9.7V699.9z"/>
		<path class="st4" d="M845.7,701.1l10.1-5.8v-1.9l-10.1,5.8V701.1z"/>
		<path class="st4" d="M840.2,651.6c0,1.5,1.2,2.3,2.7,1.5l16-8.9c1.6-0.8,2.7-2.7,2.7-4.2c0-1.5-1.2-2.3-2.7-1.5l-16,8.9
			C841.4,648.1,840.2,650.1,840.2,651.6z"/>
		<path class="st87" d="M948.8,560v65l28.4-16.6v-65L948.8,560z"/>
		<path class="st87" d="M928.2,612.9l20.6,12v-65l-20.6-12V612.9z"/>
		<path class="st87" d="M928.2,548l1.6,1.2l19.1,10.8l28.4-16.6l-19.1-10.8l-1.6-0.8L928.2,548z"/>
		<path class="st97" d="M948.8,590.9v34l28.4-16.2v-35.6c-3.9-1.2-8.6-0.4-13.6,2.3C958.1,578.5,952.7,584.3,948.8,590.9z"/>
		<path class="st4" d="M957.8,590.5c0,4.3,3.1,6.2,7,3.9c3.9-2.3,7-7.7,7-12c0-4.3-3.1-6.2-7-3.9
			C960.9,580.8,957.8,585.9,957.8,590.5z"/>
		<path class="st87" d="M960.5,588.6c0,2.7,1.9,3.5,3.9,2.3c2.3-1.2,3.9-4.3,3.9-7c0-2.7-1.9-3.5-3.9-2.3
			C962.4,583.2,960.5,586.3,960.5,588.6z"/>
		<path class="st4" d="M943.7,618.7l1.2,1.2v-38.7l-1.2-0.8V618.7z"/>
		<path class="st4" d="M940.6,617.2l1.6,0.8v-32.9l-1.6-0.8V617.2z"/>
		<path class="st4" d="M937.9,615.6l1.2,0.8v-24.8l-1.2-0.8V615.6z"/>
		<path class="st4" d="M934.8,614.1l1.6,0.8v-29.8l-1.6-0.8V614.1z"/>
		<path class="st4" d="M952.7,607.9l20.6-12v-3.9l-20.6,11.6V607.9z"/>
		<path class="st4" d="M954.6,609.8l16.7-9.7v-1.9l-16.7,9.7V609.8z"/>
		<path class="st4" d="M954.6,613.3l16.7-9.7v-1.9l-16.7,9.7V613.3z"/>
		<path class="st4" d="M958.2,614.5l10.1-5.8v-1.9l-10.1,5.8V614.5z"/>
		<path class="st4" d="M952.7,565.4c0,1.5,1.2,2.3,2.7,1.5l16-8.9c1.6-0.8,2.7-2.7,2.7-4.2c0-1.5-1.2-2.3-2.7-1.5l-16,8.9
			C953.9,561.5,952.7,563.4,952.7,565.4z"/>
		<path d="M630.9,1123.4c0-5.8,4.7-8.1,11.7-8.9c5.8,0,14,2.7,24.5,5l12.1,6.6c2.3,6.2,2.3,11.6,0.8,16.6c-3.5,3.1-7.8,4.6-11.7,3.5
			l-13.6-5.8l-1.2-1.9C642.9,1137.7,630.9,1132.7,630.9,1123.4z"/>
		<path d="M674.8,1099.4c0-5,4.3-5.8,10.9-6.1c11.7,0,12.5,5.8,23.3,5.8l10.5,6.5c2.3,6.2,1.6,12.8,0.4,17.8
			c-3.1,2.7-8.2,3.4-12.1,2.7l-10.9-6.6l-0.8-1.9C686.1,1116.1,674.8,1108.7,674.8,1099.4z"/>
		<path class="st111" d="M713.8,933.5l-39.3,16.2c0,7,0,13.5,0.8,18.2c2.3,18.2,9.7,45.2,9.7,45.2c5.4,23.2,7.4,51.8,8.6,82.4
			c0.4,10.8,16.3,20.5,26.9,10c3.1-37.1,3.1-73-5.8-96.7c4.3-18.9,0.4-39.8-0.8-61.5C714.9,947.5,712.6,933.9,713.8,933.5z"/>
		<path class="st104" d="M684.2,972.6c0,21.7,0.4,39-5.1,58c7.4,23.6,5.5,59.2,0.4,95.9c-6.6,6.9-15.6,6.9-21.4,2.7
			c-3.5-2.7-5.8-7-5.1-12.4l-3.9-82c0,0-5.8-27.1-7.4-45.2c-1.6-18.2,5.1-59.2,5.1-59.2c3.5,0.7,7,1.5,10.5,1.9
			c23.3,3.1,45.1-5.4,51.8-18.6c0.4,1.1,0.8,1.9,1.2,3.1c2.7,8.1,3.9,16.2,4.3,25.1C714.9,960.6,696.2,967.5,684.2,972.6z"/>
		<path class="st105" d="M641.8,989.2c1.6,18.2,7.4,45.2,7.4,45.2l3.9,82c-0.8,5.4,1.6,9.7,5.1,12.4c-3.5-34.4-5.1-66.9,0-92
			c-7.8-28.6-11.3-58.4-2.3-80c2.3-8.1,7-16.3,17.5-20.1c-3.1-1.1-23.3-5-26.5-6.6C646.8,930,640.2,971.4,641.8,989.2z"/>
		<path class="st95" d="M674.4,763.4l-0.8-0.8l-3.9-1.9l-1.9-0.8l-4.7-1.2l-1.2,0.4l-4.7-10.1c-1.6-3.1-3.9-1.9-3.1,0.8
			c1.6,3.9,2.7,8.1,3.1,12.4c-0.4,3.5-1.2,7-3.5,8.1l-6.2-3.1c-3.1-1.2-3.5,1.9-1.9,3.1c2.7,1.9,5.1,4.3,7,6.6
			c3.9,1.5,7.4,3.5,10.1,6.2l10.5,0.4c0-2.3,0.4-4.6,1.2-6.6c0.8-2.7,1.9-5.4,1.6-7.7L674.4,763.4z"/>
		<path class="st95" d="M707.9,859.7c-14,4.2-37-34.8-42.4-39.1c-5.4-13.5-3.9-19.7-5.1-38.3c1.9-8.1,10.1-8.5,14-4.3
			c5.8,12,5.8,15.1,8.6,22.4c14,10.8,28.8,24.7,34.2,29.8C723.1,841.8,722.3,855.4,707.9,859.7z"/>
		<path class="st87" d="M722.3,848.4c-2.3,30.2-9,59.6-12.5,68.1c-14.4,20.5-33.1,23.6-53.3,17.4c-3.1-1.2-6.6-2.3-10.1-3.9
			c-3.9-14.7-2.7-35.2-3.5-54.9c-0.4-7.3-0.8-14.7-1.9-21.6c19.5-17,36.6-24.4,61.5-30.6C715.7,823.3,722.3,834.5,722.3,848.4z"/>
		<path class="st87" d="M673.3,937c-12.8,0-23.3-5-26.5-6.6c-3.9-14.7-2.7-35.2-3.5-54.9l20.6,1.9
			C662.8,898.3,665.5,921.1,673.3,937z"/>
		<path class="st95" d="M663.9,823.3l-0.4,15.1c15.6,7.7,30-3.5,27.6-9.7l-2.7-13.5L663.9,823.3z"/>
		<path class="st95" d="M657.3,823.3c5.1,5.4,12.1,4.6,19.8,2.7c10.9-5,18.7-12.4,17.9-26.7c0.8-10.4-3.9-20.9-21.4-20.5
			c-11.3,0.4-20.6,4.3-21.4,16.2C651.9,795.5,651.1,817.9,657.3,823.3z"/>
		<path d="M694.7,806.3c-0.4,3.5-1.2,6.6-1.9,8.9c-0.4,1.9-2.7,8.5-3.5,9.3c-3.9,5.4-18.7,8.9-26.9,3.1l-2.7-5.8
			c0,0-1.9-10.4-2.7-10.4c-1.6-3.5-1.9-5.4-2.7-8.9c-4.7-8.1-1.6-5.4-2.7-9.3c-1.2-9.3,7.4-17.4,21.4-16.6
			c14,0.8,20.6,9.3,21.8,18.6C695.5,798.2,695.1,802.4,694.7,806.3z"/>
		<path class="st95" d="M653.8,810.9c-1.2-1.5,0.8-5,2.3-5.4c1.9-0.7,3.1,2.3,3.5,3.9c0.4,2.3,0,3.8-1.2,5.8c-1.6,1.9-3.5,0-4.3-1.5
			C653.4,812.5,654.6,811.7,653.8,810.9z"/>
		<path class="st95" d="M622.3,961.4l-0.8,5.8l-4.3,15.5l-1.2,4.2l-2.3,4.6c-1.2,3.1-3.1,2.7-2.7-0.8l-3.5,7
			c-1.6,3.1-3.9,1.9-3.1-1.2l3.1-9.6l-7.4,10.8c-2.3,3.1-4.7,1.9-2.7-2.3l5.4-11.2l-9,8.5c-3.1,3.5-5.4,1.1-3.5-2.3l7.8-8.9l1.9-6.2
			l-1.6-2.7l-8.2,3.5c-3.5,1.5-5.5-2.3-1.2-4.6l8.6-4.6l3.5-2.7l8.6-2.3l3.5-2.7L622.3,961.4z"/>
		<path class="st95" d="M610.2,961.7c0.8,5,5.1,6.6,10.9,8.1c12.5-14.7,26.5-30.2,32.7-42.5l10.1-41.4c9.3-33.6-23-46-26.5-22.8
			l-8.6,53.4L610.2,961.7z"/>
		<path class="st4" d="M681.1,810.1l0.8,2.7c3.5,0,6.6-0.8,9-2.3l0.8-3.1C688.1,809.4,685.3,810.5,681.1,810.1z"/>
		<path class="st111" d="M654.6,798.6c-4.7-7.7-9.7-15.5-7.4-19.7c3.9-6.2,14.4-9.3,20.6-8.1c4.7,1.2,8.9,4.3,13.2,8.1L654.6,798.6z
			"/>
		<path class="st104" d="M652.7,789.3c-0.8,13.5,12.8,22.4,28.8,23.6c-0.4-4.3-0.8-7.7,4.7-8.9c3.5-0.7,4.7,2.7,4.3,6.6
			c5.4-4.2,6.6-10.8,5.4-17.4c-3.5-12-9.7-20.5-24.5-21.7C662.8,772.6,655,777.3,652.7,789.3z"/>
		<path d="M793.1,1054.6c0-6.2,4.7-8.5,11.7-9.3c6.2,0,14.4,2.7,25.3,5.4l12.5,6.5c2.3,6.2,2.3,12,0.8,17c-3.5,3.1-7.8,5-12.1,3.8
			l-14-5.8l-1.2-1.9C805.6,1069.2,793.1,1064.2,793.1,1054.6z"/>
		<path d="M838.7,1029.8c0-5,4.7-5.8,11.3-6.5c12.1,0,12.8,6.2,23.7,5.8l10.9,6.6c2.3,6.5,1.9,13.1,0.4,18.5
			c-3.5,2.7-8.6,3.5-12.5,3.1l-11.3-6.5l-0.8-1.9C850,1047.2,838.7,1039.5,838.7,1029.8z"/>
		<path d="M878.4,858.9l-40.5,17c0,7.3,0,13.9,0.8,18.9c2.7,18.6,10.1,46.8,10.1,46.8c5.4,24,7.8,53.3,9,84.7
			c0.4,11.2,17.1,21.3,28,10.4c3.1-38.3,3.1-75.4-5.8-99.8c4.3-19.4,0.4-41-0.8-63.5C879.5,873.2,877.2,859.3,878.4,858.9z"/>
		<path class="st112" d="M848,898.7c0,22.4,0.4,40.2-5.1,59.6c7.8,24.4,5.5,61.1,0.4,99c-6.6,7.3-16,7.3-21.8,3.1
			c-3.9-2.7-6.2-7.3-5.5-12.7l-4.3-84.7c0,0-5.8-28.3-7.4-46.8c-1.6-18.5,5.1-61.1,5.1-61.1c28,7.7,38.1-20.5,64.2-17
			c0.4,1.1,0.8,1.9,1.2,3.1c2.7,8.1,4.3,17,4.7,25.9C879.9,886.7,860.5,893.7,848,898.7z"/>
		<path class="st105" d="M804.4,916.5c1.6,18.6,7.4,46.8,7.4,46.8l4.3,84.7c-0.8,5.4,1.6,10.1,5.4,12.8c-3.9-35.6-5.4-69.2,0-94.8
			c-8.2-29.4-11.7-59.9-2.3-82.7c2.7-8.1,5.8-21.3,16.3-25.1c-3.5-1.2-22.2-1.2-25.7-2.7C809.5,855.4,802.9,897.9,804.4,916.5z"/>
		<path d="M792.4,790c-10.9,0-19.9-8.1-25.7-15.1c-10.9-13.1-17.5-30.5-16.3-37.1c0-0.4,0.8-0.8,1.2-0.8c0.4,0,0.8,0.8,0.8,1.2
			c-1.2,6.2,5.5,23.2,16,35.6c5.4,6.6,14.4,14.7,24.5,14.3c7.4-0.4,9.3-7.3,11.7-16.6c2.3-8.9,5.1-18.9,14-24.8
			c0.4-0.4,1.2,0,1.6,0.4c0.4,0.4,0,1.2-0.4,1.5c-8.2,5-10.5,14.7-12.8,23.6c-2.3,9.3-4.7,18.2-13.6,18.2
			C792.7,790,792.7,790,792.4,790z"/>
		<path class="st113" d="M760.8,735.9l-3.5,8.9c-7-0.8-12.8-1.9-16-6.6l-2.3-15.1l9.7-1.5L760.8,735.9z"/>
		<path class="st113" d="M716.5,752.9l2.3-9.3l-10.5-4.3l0.8,11.2L716.5,752.9z"/>
		<path class="st107" d="M695.1,732.4l-5.1-3.1c-1.2-0.8-1.9-2.3-1.9-4.6c0-4.6,3.1-10.1,7.4-12.4c1.9-1.2,3.9-1.2,5.1-0.4l5.1,3.1
			L695.1,732.4z"/>
		<path class="st112" d="M701.3,736.7l-7.8-4.3c-1.6-0.8-2.3-2.3-2.3-5c0-5,3.5-10.8,7.8-13.1c1.9-1.2,3.9-1.2,5.4-0.4l7.8,4.3
			L701.3,736.7z"/>
		<path class="st107" d="M714.5,723.1c0-5-3.5-7-7.8-4.3c-4.3,2.3-7.8,8.5-7.8,13.1c0,5,3.5,7,7.8,4.3
			C711,734,714.5,728.2,714.5,723.1z"/>
		<path class="st107" d="M699.7,735.1l-7.8-4.3c0,0.4,0.4,0.4,0.4,0.8l7.8,4.3C700.1,735.5,700.1,735.5,699.7,735.1z"/>
		<path class="st107" d="M699.3,734l-7.8-4.3v0.4l7.8,4.3C699.3,734,699.3,734,699.3,734z"/>
		<path class="st107" d="M699.3,732.8l-7.8-4.3v0.4l7.8,4.3C699.3,732.8,699.3,732.8,699.3,732.8z"/>
		<path class="st107" d="M699.3,731.7l-7.8-4.3c0,0.4,7.8,5,7.8,5C699.3,731.7,699.3,731.7,699.3,731.7z"/>
		<path class="st107" d="M699.3,730.5l-7.8-4.3v0.4l7.8,4.3C699.3,730.9,699.3,730.9,699.3,730.5z"/>
		<path class="st107" d="M699.3,729.7l-7.8-4.3v0.4l7.8,4.3V729.7z"/>
		<path class="st107" d="M699.7,728.9l-7.8-4.3v0.4l7.8,4.3C699.7,728.9,699.7,728.9,699.7,728.9z"/>
		<path class="st107" d="M699.7,727.8l-7.8-4.3v0.4L699.7,727.8C699.7,728.2,699.7,728.2,699.7,727.8z"/>
		<path class="st107" d="M700.1,727l-7.8-4.3v0.4L700.1,727z"/>
		<path class="st107" d="M700.5,726.2l-7.8-4.3v0.4L700.5,726.2z"/>
		<path class="st107" d="M700.9,725.5l-7.8-4.3v0.4L700.9,725.5z"/>
		<path class="st107" d="M701.3,724.7l-7.8-4.3v0.4L701.3,724.7z"/>
		<path class="st107" d="M701.7,723.9l-7.8-4.3c0,0,0,0.4-0.4,0.4L701.7,723.9z"/>
		<path class="st107" d="M702.5,723.1l-7.8-4.3c0,0,0,0.4-0.4,0.4L702.5,723.1C702.1,723.5,702.1,723.1,702.5,723.1z"/>
		<path class="st107" d="M702.9,722.4l-7.8-4.3c0,0,0,0.4-0.4,0.4L702.9,722.4z"/>
		<path class="st107" d="M703.2,721.6l-7.8-4.3c0,0,0,0.4-0.4,0.4L703.2,721.6C703.2,722,703.2,722,703.2,721.6z"/>
		<path class="st107" d="M704,721.2l-7.8-4.3c0,0,0,0-0.4,0.4L704,721.2z"/>
		<path class="st107" d="M704.8,720.4l-7.8-4.3c0,0-0.4,0-0.4,0.4L704.8,720.4C704.4,720.4,704.4,720.4,704.8,720.4z"/>
		<path class="st107" d="M705.2,719.7l-7.8-4.3c0,0-0.4,0-0.4,0.4L705.2,719.7C705.2,720.1,705.2,720.1,705.2,719.7z"/>
		<path class="st107" d="M706,719.3l-7.8-4.3c0,0-0.4,0-0.4,0.4L706,719.3z"/>
		<path class="st107" d="M707.1,718.5l-7.8-4.3C699,714.6,706.7,718.9,707.1,718.5C707.1,718.9,706.7,718.9,707.1,718.5z"/>
		<path class="st107" d="M707.9,718.1l-7.8-4.2c0,0-0.4,0-0.4,0.4l7.8,4.3L707.9,718.1z"/>
		<path class="st107" d="M709.1,717.7l-7.8-4.3h-0.4l7.8,4.3C708.7,718.1,709.1,717.7,709.1,717.7z"/>
		<path class="st107" d="M710.6,717.7l-7.8-4.3c-0.4,0-0.4,0-0.8,0l7.8,4.3C710.2,717.7,710.6,717.7,710.6,717.7z"/>
		<path class="st112" d="M704.8,738.6l-2.7-1.5c-1.2-0.8-2.3-2.3-2.3-4.6c0-4.6,3.5-10.4,7.4-12.8c1.9-1.2,3.9-1.2,5.4-0.4l2.7,1.5
			L704.8,738.6z"/>
		<path class="st107" d="M717.6,725.1c0-4.6-3.5-6.6-7.4-4.3c-3.9,2.3-7.4,8.1-7.4,12.8c0,4.6,3.5,6.6,7.4,4.3
			C714.1,735.5,717.6,729.7,717.6,725.1z"/>
		<path class="st112" d="M709.9,741.7l-4.7-2.7c-1.6-0.8-2.3-2.3-2.3-5c0-5,3.5-10.8,7.8-13.2c1.9-1.2,3.9-1.2,5.4-0.4l4.7,2.7
			L709.9,741.7z"/>
		<path class="st98" d="M723.1,728.2c0-5-3.5-7-7.8-4.3c-4.3,2.3-7.8,8.5-7.8,13.1c0,5,3.5,7,7.8,4.3
			C719.6,738.6,723.1,732.8,723.1,728.2z"/>
		<path class="st107" d="M708.3,740.2l-4.7-2.7c0,0.4,0.4,0.4,0.4,0.8l4.7,2.7C708.7,740.5,708.7,740.2,708.3,740.2z"/>
		<path class="st107" d="M707.9,738.6l-4.7-2.7v0.4l4.7,2.7C707.9,739,707.9,739,707.9,738.6z"/>
		<path class="st107" d="M707.9,737.5l-4.7-2.7v0.4l4.7,2.7C707.9,737.8,707.9,737.8,707.9,737.5z"/>
		<path class="st107" d="M707.9,736.7l-4.7-2.7c0,0.4,4.7,3.1,4.7,3.1C707.9,736.7,707.9,736.7,707.9,736.7z"/>
		<path class="st107" d="M707.9,735.5l-4.7-2.7v0.4l4.7,2.7V735.5z"/>
		<path class="st107" d="M707.9,734.7l-4.7-2.7v0.4l4.7,2.7C707.9,734.7,707.9,734.7,707.9,734.7z"/>
		<path class="st107" d="M708.3,733.6l-4.7-2.7v0.4l4.7,2.7C708.3,734,708.3,734,708.3,733.6z"/>
		<path class="st107" d="M708.3,732.8l-4.7-2.7v0.4L708.3,732.8z"/>
		<path class="st107" d="M708.7,732l-4.7-2.7v0.4L708.7,732z"/>
		<path class="st107" d="M709.1,731.3l-4.7-2.7v0.4L709.1,731.3z"/>
		<path class="st107" d="M709.5,730.5l-4.7-2.7v0.4L709.5,730.5z"/>
		<path class="st107" d="M709.9,729.7l-4.7-2.7v0.4L709.9,729.7z"/>
		<path class="st107" d="M710.2,728.9l-4.7-2.7c0,0,0,0.4-0.4,0.4L710.2,728.9z"/>
		<path class="st107" d="M711,728.2l-4.7-2.7c0,0,0,0.4-0.4,0.4L711,728.2C710.6,728.2,710.6,728.2,711,728.2z"/>
		<path class="st107" d="M711.4,727.4l-4.7-2.7c0,0,0,0.4-0.4,0.4L711.4,727.4z"/>
		<path class="st107" d="M711.8,726.6l-4.7-2.7c0,0,0,0.4-0.4,0.4L711.8,726.6z"/>
		<path class="st107" d="M712.6,725.9l-4.7-2.7c0,0,0,0-0.4,0.4L712.6,725.9C712.6,726.2,712.2,726.2,712.6,725.9z"/>
		<path class="st107" d="M713.4,725.5l-4.7-2.7c0,0-0.4,0-0.4,0.4L713.4,725.5C713,725.5,713,725.5,713.4,725.5z"/>
		<path class="st107" d="M713.8,724.7l-4.7-2.7c0,0-0.4,0-0.4,0.4L713.8,724.7z"/>
		<path class="st107" d="M714.5,724.3l-4.7-2.7c0,0-0.4,0-0.4,0.4L714.5,724.3z"/>
		<path class="st107" d="M715.7,723.5l-4.7-2.7c-0.4,0.4,4.3,3.1,4.3,3.1C715.3,723.5,715.7,723.5,715.7,723.5z"/>
		<path class="st107" d="M716.5,723.1l-4.7-2.7c0,0-0.4,0-0.4,0.4l4.7,2.7C716.1,723.1,716.5,723.1,716.5,723.1z"/>
		<path class="st107" d="M717.6,722.8l-4.7-2.7h-0.4l4.7,2.7H717.6z"/>
		<path class="st107" d="M719.2,722.8l-4.7-2.7c-0.4,0-0.4,0-0.8,0l4.7,2.7C718.8,722.8,719.2,722.8,719.2,722.8z"/>
		<path class="st112" d="M714.9,744.8l-3.9-2.3c-1.6-0.8-2.3-2.3-2.3-5c0-5,3.5-10.8,7.8-13.1c1.9-1.2,3.9-1.2,5.5-0.4l3.9,2.3
			L714.9,744.8z"/>
		<path class="st107" d="M728.2,730.9c0-5-3.5-7-7.8-4.3c-4.3,2.3-7.8,8.5-7.8,13.1c0,5,3.5,7,7.8,4.3
			C724.6,741.7,728.2,735.9,728.2,730.9z"/>
		<path class="st112" d="M718.8,746.7l-3.1-1.5c-1.6-0.8-2.3-2.3-2.3-5c0-5,3.5-10.8,7.8-13.1c1.9-1.2,3.9-1.2,5.4-0.4l3.1,1.5
			L718.8,746.7z"/>
		<path class="st107" d="M731.7,733.2c0-5-3.5-7-7.8-4.3c-4.3,2.3-7.8,8.5-7.8,13.2c0,4.6,3.5,7,7.8,4.3S731.7,737.8,731.7,733.2z"
			/>
		<path class="st107" d="M716.9,744.8l-3.1-1.5c0,0.4,0.4,0.4,0.4,0.8l3.1,1.5C717.3,745.6,717.3,745.2,716.9,744.8z"/>
		<path class="st107" d="M716.5,743.6l-3.1-1.5v0.4l3.1,1.5C716.9,744,716.5,744,716.5,743.6z"/>
		<path class="st107" d="M716.5,742.5l-3.1-1.5v0.4l3.1,1.5C716.5,742.9,716.5,742.9,716.5,742.5z"/>
		<path class="st107" d="M716.5,741.3l-3.1-1.5c0,0.4,3.1,2.3,3.1,2.3C716.5,741.7,716.5,741.7,716.5,741.3z"/>
		<path class="st107" d="M716.5,740.5l-3.1-1.5v0.4l3.1,1.5V740.5z"/>
		<path class="st107" d="M716.5,739.4l-3.1-1.5v0.4l3.1,1.5C716.5,739.8,716.5,739.8,716.5,739.4z"/>
		<path class="st107" d="M716.9,738.6l-3.1-1.5v0.4l3.1,1.5V738.6z"/>
		<path class="st107" d="M717.3,737.8l-3.1-1.5v0.4L717.3,737.8C716.9,738.2,716.9,737.8,717.3,737.8z"/>
		<path class="st107" d="M717.3,737.1l-3.1-1.5v0.4L717.3,737.1z"/>
		<path class="st107" d="M717.6,736.3l-3.1-1.5v0.4L717.6,736.3z"/>
		<path class="st107" d="M718,735.1l-3.1-1.5v0.4L718,735.1C718,735.5,718,735.5,718,735.1z"/>
		<path class="st107" d="M718.4,734.4l-3.1-1.5v0.4L718.4,734.4C718.4,734.7,718.4,734.7,718.4,734.4z"/>
		<path class="st107" d="M718.8,733.6l-3.1-1.5c0,0,0,0.4-0.4,0.4L718.8,733.6C718.8,734,718.8,734,718.8,733.6z"/>
		<path class="st107" d="M719.6,732.8l-3.1-1.5c0,0,0,0.4-0.4,0.4L719.6,732.8C719.2,733.2,719.2,733.2,719.6,732.8z"/>
		<path class="st107" d="M720,732.4l-3.1-1.5c0,0,0,0.4-0.4,0.4L720,732.4z"/>
		<path class="st107" d="M720.4,731.7l-3.1-1.5c0,0,0,0.4-0.4,0.4L720.4,731.7z"/>
		<path class="st107" d="M721.1,730.9l-3.1-1.5c0,0,0,0-0.4,0.4L721.1,730.9z"/>
		<path class="st107" d="M721.9,730.1l-3.1-1.5c0,0-0.4,0-0.4,0.4L721.9,730.1C721.9,730.5,721.5,730.5,721.9,730.1z"/>
		<path class="st107" d="M722.7,729.7l-3.1-1.5c0,0-0.4,0-0.4,0.4L722.7,729.7C722.3,729.7,722.3,729.7,722.7,729.7z"/>
		<path class="st107" d="M723.5,728.9l-3.1-1.5c0,0-0.4,0-0.4,0.4L723.5,728.9C723.1,729.3,723.1,729.3,723.5,728.9z"/>
		<path class="st107" d="M724.3,728.6l-3.1-1.5C720.8,727,723.9,728.9,724.3,728.6z"/>
		<path class="st107" d="M725,728.2l-3.1-1.5c0,0-0.4,0-0.4,0.4l3.1,1.5C725,728.2,725,728.2,725,728.2z"/>
		<path class="st107" d="M726.2,727.8l-3.1-1.5h-0.4l3.1,1.5H726.2z"/>
		<path class="st107" d="M727.8,727.8l-3.1-1.5c-0.4,0-0.4,0-0.8,0l3.1,1.5C727.4,727.4,727.8,727.4,727.8,727.8z"/>
		<path class="st112" d="M722.3,749.4l-2.7-1.5c-1.6-0.8-2.3-2.7-2.3-5c0-5,3.5-11.2,8.2-13.9c2.3-1.2,4.3-1.5,5.8-0.4l2.7,1.5
			L722.3,749.4z"/>
		<path class="st107" d="M735.9,735.1c0-5-3.5-7-8.2-4.6c-4.3,2.7-8.2,8.9-8.2,13.9c0,5,3.5,7,8.2,4.6
			C732.4,746.4,735.9,740.2,735.9,735.1z"/>
		<path class="st114" d="M728.2,731.7c-3.9,2.3-7.4,7.7-7.4,12.4c0,4.6,3.1,6.2,7,4.3c3.9-2.3,7-7.7,7-12.4
			C735.2,731.3,732,729.3,728.2,731.7z"/>
		<path class="st107" d="M728.2,731.7c-3.9,2.3-7.4,7.7-7.4,12.4c0.4,3.9,3.1,5.4,6.6,3.5c3.5-1.9,6.6-7.3,6.6-11.6
			C734.4,731.7,731.7,729.7,728.2,731.7z"/>
		<path class="st112" d="M730.5,732.8c-0.8-0.4-1.6,0-2.7,0.4c-3.1,1.9-5.4,5.8-5.4,9.3c0,1.2,0.4,1.9,1.2,2.3
			c0.8,0.8,2.3,1.2,4.3,0c2.7-1.5,5.1-5.4,5.1-8.9C732.8,734.8,732,733.2,730.5,732.8z"/>
		<path d="M730.5,732.8c-0.8-0.4-1.6,0-2.7,0.4c-3.1,1.9-5.4,5.8-5.4,9.3c0,1.2,0.4,1.9,1.2,2.3c0.8,0.4,1.9,0,3.1-0.8
			c2.7-1.5,5.1-5.4,5.1-8.9C731.7,734.8,731.3,733.6,730.5,732.8z"/>
		<path class="st114" d="M753.1,727.4c0-0.8-0.4-1.2-1.2-1.9l-4.7-2.3l-3.5-1.9c-1.9-1.2-5.4-1.2-7.8,0c-1.2,0.8-1.6,1.5-1.6,2.3
			v4.6l-10.5,6.2v2.7l-2.7,1.5c-0.8,0.4-1.2,1.2-1.2,1.5v18.9c0,0.8,0.4,1.2,1.2,1.5l1.9,1.2c1.6,0.8,4.3,0.8,5.8,0l1.6-0.8
			l17.1-9.7l3.5-1.9l1.6-0.8c0.8-0.4,1.2-1.2,1.2-1.5L753.1,727.4z"/>
		<path class="st107" d="M735.5,725.5c-1.2-0.8-1.6-1.5-1.6-2.3v18.9c0,0.8,0.4,1.5,1.6,2.3l1.2,0.8v-18.9L735.5,725.5z"/>
		<path class="st107" d="M725,735.5v19.3l-1.6-1.5V734L725,735.5z"/>
		<path class="st107" d="M751.9,728.9l-1.6,0.8l-3.5,1.9l-17.1,9.7l-1.6,0.8c-1.6,0.8-4.3,0.8-5.8,0l-1.9-1.2
			c-0.8-0.4-1.2-1.2-1.2-1.5v18.9c0,0.8,0.4,1.2,1.2,1.5l1.9,1.2c1.6,0.8,4.3,0.8,5.8,0l1.6-0.8l17.1-9.7l3.5-1.9l1.6-0.8
			c0.8-0.4,1.2-1.2,1.2-1.5v-18.9C753.1,728.2,752.7,728.6,751.9,728.9z"/>
		<path class="st114" d="M751.9,725.9c1.6,0.8,1.6,2.3,0,3.1l-1.6,0.8l-3.5,1.9l-17.1,9.7l-1.6,0.8c-1.6,0.8-4.3,0.8-5.8,0l-1.9-1.2
			c-1.6-0.8-1.6-2.3,0-3.1l4.3-2.3l-1.6-1.5l13.6-7.7l-1.2-0.8c-1.9-1.2-2.3-3.1,0-4.3c2.3-1.2,5.8-1.2,7.8,0l3.5,1.9L751.9,725.9z"
			/>
		<path class="st107" d="M733.2,736.3c-1.6,0-1.9,0-3.1-0.4l-3.9-3.9v1.9l3.9,3.9c1.6,0,1.9,0,3.1,0.4l9.7-5.4v-1.9L733.2,736.3z"/>
		<path class="st115" d="M742.6,728.9c0,0.8,0.4,1.2,0.4,1.9l-9.7,5.4c-1.6,0-1.9,0-3.1-0.4l-3.9-3.9c0-0.4,0.4-0.8,0.4-1.5l6.6-3.9
			c0.8,0,1.6,0,2.3,0L742.6,728.9z"/>
		<path class="st107" d="M745.7,726.6v1.2c0,0.4,0.4,0.8,0.8,0.8c0.8,0.4,2.3,0.4,3.1,0c0.4-0.4,0.8-0.4,0.8-0.8v-1.2H745.7z"/>
		<path class="st116" d="M749.2,725.9c0.8,0.4,0.8,1.2,0,1.5c-0.8,0.4-2.3,0.4-3.1,0c-0.8-0.4-0.8-1.2,0-1.5
			C746.8,725.1,748.4,725.1,749.2,725.9z"/>
		<path class="st107" d="M736.3,720.8v1.9c0,0.4,0.4,1.2,1.2,1.5c1.6,0.8,3.5,0.8,5.1,0c0.8-0.4,1.2-0.8,1.2-1.5v-1.9H736.3z"/>
		<path class="st112" d="M742.2,719.7c1.6,0.8,1.6,1.9,0,2.7c-1.6,0.8-3.5,0.8-5.1,0c-1.6-0.8-1.6-1.9,0-2.7
			C738.7,718.9,741,718.9,742.2,719.7z"/>
		<path class="st116" d="M741.4,720.1c0.8,0.4,0.8,1.2,0,1.5c-0.8,0.4-1.9,0.4-2.7,0c-0.8-0.4-0.8-1.2,0-1.5
			C739,719.7,740.2,719.7,741.4,720.1z"/>
		<path class="st107" d="M740.6,726.2c0.4,0.4,0.4,0.4,0,0.8c-0.4,0.4-0.8,0.4-1.2,0c-0.4-0.4-0.4-0.4,0-0.8
			C739.8,726.2,740.2,726.2,740.6,726.2z"/>
		<path class="st107" d="M721.9,738.2v1.5c0,0.4,0.4,0.8,0.8,1.2c1.2,0.4,2.7,0.4,3.5,0c0.4-0.4,0.8-0.8,0.8-1.2v-1.5H721.9z"/>
		<path class="st112" d="M726.2,737.1c1.2,0.4,1.2,1.5,0,1.9c-1.2,0.4-2.7,0.4-3.5,0c-0.8-0.4-1.2-1.5,0-1.9
			C723.9,736.7,725.4,736.7,726.2,737.1z"/>
		<path class="st107" d="M722.3,736.7v1.2c0,0.4,0.4,0.8,0.8,0.8c0.8,0.4,2.3,0.4,3.1,0c0.4-0.4,0.8-0.4,0.8-0.8v-1.2H722.3z"/>
		<path class="st112" d="M726.2,735.9c0.8,0.4,0.8,1.2,0,1.5c-0.8,0.4-2.3,0.4-3.1,0c-0.8-0.4-0.8-1.2,0-1.5
			C723.9,735.1,725.4,735.1,726.2,735.9z"/>
		<path class="st107" d="M725.4,736.3c0.4,0.4,0.4,0.4,0,0.8c-0.4,0.4-0.8,0.4-1.2,0c-0.4-0.4-0.4-0.4,0-0.8
			C724.3,735.9,725,735.9,725.4,736.3z"/>
		<path class="st114" d="M720.8,753.7c0,0.4,0.4,1.2,0.8,1.5c0.4,0.4,0.8,0,0.8-0.4v-7.3c0-0.4-0.4-1.2-0.8-1.5
			c-0.4-0.4-0.8,0-0.8,0.4V753.7z"/>
		<path class="st89" d="M748.4,736.3v8.9c0,0.8-0.4,1.9-1.2,2.3l-11.7,7l-1.2,1.9l-1.6-0.8c-0.4,0-0.4-0.4-0.4-0.8v-10.1
			c0-0.8,0.4-1.9,1.2-2.3l13.6-7.7c0.4-0.4,0.8-0.4,0.8,0l1.6,0.8L748.4,736.3z"/>
		<path class="st107" d="M748.4,735.1l-13.6,7.7c-0.8,0.4-1.2,1.5-1.2,2.3v10.1c0,0.8,0.4,1.2,1.2,0.8l13.6-7.7
			c0.8-0.4,1.2-1.5,1.2-2.3v-10.1C749.6,735.1,749.2,734.7,748.4,735.1z"/>
		<path class="st89" d="M748.4,736.3l-12.8,7.3l-0.4,0.4c0,0.4-0.4,0.4-0.4,0.8v9.3c0,0,0,0.4,0.4,0l13.2-7.3l0.4-0.4
			c0-0.4,0.4-0.4,0.4-0.8L748.4,736.3z"/>
		<path class="st98" d="M748.4,736.3l-12.8,7.3l-0.4,0.4c0,0.4-0.4,0.4-0.4,0.8v9.3l13.2-7.3l0.4-0.4c0-0.4,0.4-0.4,0.4-0.8
			L748.4,736.3C748.4,736.7,748.4,736.7,748.4,736.3z"/>
		<path class="st77" d="M741.8,749.8l-7-3.9v-1.2v-0.4c0-0.4,0.4-0.4,0.4-0.4l2.3-1.5l8.2,5L741.8,749.8z"/>
		<path class="st77" d="M747.2,746.7l-0.8,0.4l-7.8-5l1.6-0.8L747.2,746.7C747.6,746.7,747.6,746.7,747.2,746.7z"/>
		<path class="st112" d="M738.3,723.1c0-1.5-1.2-3.1-2.3-3.9l-0.4-0.4l-7.8,4.3v8.9l3.5,1.9l7.4-4.3L738.3,723.1z"/>
		<path class="st107" d="M738.3,723.1l0.4,6.6l-7.4,4.3l-0.4-6.6c0-1.5-1.2-3.1-2.3-3.9l-0.8-0.4l7.4-4.3l0.4,0.4
			C737.1,719.7,738.3,721.6,738.3,723.1z"/>
		<path class="st112" d="M731.3,733.6l-0.4-6.6c0-1.5-1.2-3.1-2.3-3.9h-0.8v8.9L731.3,733.6z"/>
		<path class="st95" d="M760.8,735.9c-0.8-4.6-0.8-8.5-3.1-12c-2.7-1.9-5.1-3.1-7.8-3.1l-7,2.3c-1.9,1.2-0.8,3.1,1.2,2.7l5.8-1.2
			c0,0,0.8,7.3,3.1,9.3C755.4,736.3,760.8,735.9,760.8,735.9z"/>
		<path class="st4" d="M840.2,746.7l-43.6,2.7l-36.2-15.1c-5.1,1.2-5.4,10.1-4.3,12.4c7.4,11.2,19.1,22.4,35.8,30.6l46.7,1.9
			L840.2,746.7z"/>
		<path class="st95" d="M703.2,737.8l1.9-4.3l4.7-3.1c1.9-1.2,3.5,0.4,1.6,2.3l-2.3,2.7l2.7,5.4c1.6,2.7,2.3,5.4,2.7,8.5l0.4,5
			c-4.7,3.1-10.5-5-15.2-10.8L697,734l1.9,1.2L703.2,737.8z"/>
		<path class="st95" d="M827.4,758l-16-23.2L785,746.4l12.1,19.3L827.4,758z"/>
		<path class="st95" d="M793.9,754.9c0,0-3.5,6.6-8.9,1.2c-5.5-5-14.8-21.7-11.7-35.2c3.1-13.5,25.7,4.6,25.7,4.6L793.9,754.9z"/>
		<path d="M817.7,743.6c0,0-11.7,2.7-19.8,8.1c-1.9,1.2-5.8,0.8-7.8-0.8l-3.1-3.9l-1.2-5l-5.4-2.3l0.4-5.4c-3.1-0.8-5.4-3.1-8.2-5.8
			c-1.6-2.3-1.9-5.4-1.2-10.8c2.3-8.9,13.6-15.1,25.7-14.3C818,704.6,823.5,727,817.7,743.6z"/>
		<path class="st95" d="M782.6,739.8c0-0.8,0-1.2,0.4-1.9c0.4-0.8,0.8-1.2,1.6-1.5c1.2-0.4,2.7,0.4,3.5,1.5c0.4,1.2,0.4,2.3,0.4,3.5
			c0,0.8-0.4,1.5-0.4,2.7c0,0.8-0.4,1.5-0.8,1.9c-0.4,0.8-1.2,1.2-1.9,1.2c-0.8,0-1.2-0.4-1.6-1.2c-0.4-0.4-0.4-1.2-0.4-1.5
			C782.6,742.9,782.6,741.3,782.6,739.8z"/>
		<path d="M762.8,822.1c-6.2,0-12.1-3.4-18.3-10c-15.2-17-25.7-49.9-23.7-61.1c0-0.8,0.8-1.2,1.6-1.2c0.8,0,1.2,0.8,1.2,1.5
			c-1.6,9.7,8.2,42.2,23.3,58.8c5.8,6.6,11.7,9.7,17.1,9.3c7.4-0.4,9.3-10.8,11.7-22.8c2.3-12.4,5.1-25.9,13.6-33.6
			c17.1-14.7,31.9-20.1,43.2-16.6c0.8,0.4,1.2,0.8,0.8,1.5c-0.4,0.8-0.8,1.2-1.6,0.8c-12.8-4.3-29.2,6.2-40.9,15.9
			c-8.2,7-10.9,20.5-12.8,32.1c-2.3,13.2-4.7,24.4-14,24.8C763.2,822.1,762.8,822.1,762.8,822.1z"/>
		<path class="st4" d="M875.3,843.8c-10.1-3.5-27.2,7.7-42.8,15.5c-9,4.6-17.9,7.7-24.5,6.6c-8.9-12.4-11.7-17-18.3-31.4
			c-0.8-1.1-1.2-2.7-1.6-3.8c-0.4-0.8-0.8-1.5-0.8-2.3c-0.4-1.1-0.8-1.9-1.2-3.1c-0.4-0.7-0.8-1.9-1.2-2.7c-0.4-0.7-0.4-1.1-0.8-1.9
			c0-0.3,0-0.3-0.4-0.7c-0.4-0.8-0.8-1.9-1.2-2.7c-0.8-1.9-1.6-4.6-2.3-7.3c-3.9-11.6-8.9-27.9-10.5-36.8c0,0,23-9.7,24.5-11.2
			c9.3-9.7,26.5-13.9,26.5-13.9c10.9-1.9,25.7-5.8,35.4,8.1C866.3,779.6,878.4,821.8,875.3,843.8z"/>
		<path class="st117" d="M832.4,859.3c-9,4.6-17.9,7.7-24.5,6.6c-7-10.1-12.8-20.5-18.3-31.4c-0.8-1.1-1.2-2.7-1.6-3.8
			c-0.4-0.8-0.8-1.5-0.8-2.3c-0.4-1.1-0.8-1.9-1.2-3.1c-0.4-0.7-0.8-1.9-1.2-2.7c-0.4-0.7-0.4-1.1-0.8-1.9c0-0.3,0-0.3-0.4-0.7
			c-1.2-3.5-2.3-6.6-3.5-10c-0.4-1.5-0.8-2.7-1.2-4.3c3.9-7.3,8.6,2.7,11.3-6.2C793.9,833.8,814.2,851.5,832.4,859.3z"/>
		<path class="st4" d="M705.2,751.4c0,15.1,7,32.9,15.6,51.4c16.3,8.1,45.5,7,70.8,6.2c17.5-2.7,11.7-42.9-12.1-39.8
			c-15.2,6.2-30.4,6.2-45.5,9.7l-16.7-28.2C711.4,747.9,708.3,748.7,705.2,751.4z"/>
		<path class="st80" d="M1074.9,889c22.6,13.2,22.6,34.1,0,47.2c-22.6,13.1-59.5,13.1-82.1,0c-22.6-13.1-22.6-34,0-47.2
			C1015.4,875.9,1051.9,875.9,1074.9,889z"/>
		<path class="st80" d="M828.9,1078.9c37.4,0,67.7-17.5,67.7-39c0-21.6-30.3-39-67.7-39c-37.4,0-67.7,17.5-67.7,39
			C761.2,1061.4,791.5,1078.9,828.9,1078.9z"/>
	</g>
</g>
</svg>
