<?xml version="1.0" encoding="utf-8"?>
<!-- Generator: Adobe Illustrator 24.2.3, SVG Export Plug-In . SVG Version: 6.00 Build 0)  -->
<svg version="1.1" id="Layer_1" xmlns="http://www.w3.org/2000/svg" xmlns:xlink="http://www.w3.org/1999/xlink" x="0px" y="0px"
	 viewBox="0 0 1423.5 1189" style="enable-background:new 0 0 1423.5 1189;" xml:space="preserve">
<style type="text/css">
	.st0{clip-path:url(#SVGID_2_);}
	.st1{fill:#263238;}
	.st2{fill:#EBEBEB;}
	.st3{fill:#455A64;}
	.st4{fill:#FFFFFF;}
	.st5{fill:#04747F;}
	.st6{fill:#DBDBDB;}
	.st7{fill:#C7C7C7;}
	.st8{fill:#DC6A57;}
	.st9{fill:#37474F;}
	.st10{fill:#AD6359;}
	.st11{opacity:0.3;fill:#263238;enable-background:new    ;}
	.st12{fill:#A6A6A6;}
	.st13{fill:#DD6A57;}
	.st14{fill:none;stroke:#C7C7C7;stroke-width:0.6434;stroke-miterlimit:10.0002;}
	.st15{fill:#FF9CBD;}
	.st16{fill:#EB9481;}
	.st17{fill:#2F2E0C;}
	.st18{clip-path:url(#SVGID_4_);}
	.st19{fill:#E9F4F4;}
	.st20{fill:#F6ACAB;}
	.st21{fill:#F2F2F2;}
	.st22{fill:url(#SVGID_5_);}
	.st23{fill:url(#SVGID_6_);}
	.st24{fill:#004E53;}
	.st25{fill:#004549;}
	.st26{fill:none;stroke:#068991;stroke-width:2.7694;stroke-miterlimit:10;}
	.st27{fill:#B8705D;}
	.st28{fill:#4344D3;}
	.st29{fill:#383838;}
	.st30{fill:#068991;}
	.st31{fill:#C38273;}
	.st32{fill:#768CC9;}
	.st33{fill:#3F27DE;}
	.st34{fill:url(#SVGID_7_);}
	.st35{fill:#F7B8B7;}
	.st36{fill:url(#SVGID_8_);}
	.st37{fill:url(#SVGID_9_);}
	.st38{fill:none;stroke:#000000;stroke-width:2.8632;stroke-linecap:round;stroke-linejoin:round;stroke-miterlimit:10;}
	.st39{fill:url(#SVGID_10_);}
	.st40{fill:url(#SVGID_11_);}
	.st41{fill:url(#SVGID_12_);}
	.st42{fill:url(#SVGID_13_);}
	.st43{fill:url(#SVGID_14_);}
	.st44{fill:none;stroke:#3F27DE;stroke-width:1.2868;stroke-linecap:round;stroke-linejoin:round;}
	.st45{fill:none;stroke:#068991;stroke-width:1.2868;stroke-linecap:round;stroke-linejoin:round;stroke-dasharray:6.73,6.73;}
	.st46{fill:url(#SVGID_15_);}
	.st47{clip-path:url(#SVGID_17_);}
	.st48{fill:#F5F5F5;}
	.st49{fill:#E0E0E0;}
	.st50{fill:#18676B;}
	.st51{opacity:0.75;fill:#FFFFFF;enable-background:new    ;}
	.st52{opacity:0.2;enable-background:new    ;}
	.st53{opacity:0.1;enable-background:new    ;}
	.st54{fill:#FAFAFA;}
	.st55{fill:#F28F8F;}
	.st56{fill:#FFA8A7;}
	.st57{opacity:0.3;enable-background:new    ;}
	.st58{opacity:0.7;fill:#FFFFFF;enable-background:new    ;}
	.st59{fill:#FAFAFA;stroke:#EBEBEB;stroke-width:0.7854;stroke-miterlimit:10;}
	.st60{opacity:0.5;enable-background:new    ;}
	.st61{opacity:0.35;enable-background:new    ;}
	.st62{fill:#F0F0F0;}
	.st63{fill:#E6E6E6;}
	.st64{opacity:0.25;}
	.st65{opacity:0.1;}
	.st66{opacity:0.2;}
	.st67{opacity:0.4;}
	.st68{opacity:0.6;}
	.st69{opacity:0.5;}
	.st70{opacity:0.3;}
	.st71{opacity:0.45;}
	.st72{opacity:0.35;}
	.st73{opacity:0.4;enable-background:new    ;}
	.st74{opacity:0.25;enable-background:new    ;}
	.st75{opacity:0.2;fill:#FFFFFF;enable-background:new    ;}
	.st76{opacity:0.15;enable-background:new    ;}
	.st77{opacity:0.5;fill:#FFFFFF;enable-background:new    ;}
	.st78{fill:none;}
	.st79{clip-path:url(#SVGID_19_);}
	.st80{opacity:0.2;fill:#652427;enable-background:new    ;}
	.st81{fill:#3C878F;}
	.st82{fill:#C0C6AB;}
	.st83{fill:#0C1016;}
	.st84{fill:#5A367C;}
	.st85{fill:#8852BB;}
	.st86{fill:#DCE0CC;}
	.st87{fill:#1F4D52;}
	.st88{fill:#79BECF;}
	.st89{fill:#706F6F;}
	.st90{fill:#002626;}
	.st91{fill:#2C2853;}
	.st92{fill:#0A1E1D;}
	.st93{fill:#9866C0;}
	.st94{fill:#DAECEA;}
	.st95{fill:#F2B087;}
	.st96{fill:#3C284D;}
	.st97{fill:#ECAA4D;}
	.st98{fill:#9C9C9B;}
	.st99{fill:#808080;}
	.st100{fill:#F8D898;}
	.st101{fill:#271A31;}
	.st102{opacity:0.5;fill:#F8D898;enable-background:new    ;}
	.st103{fill:#1F1C3B;}
	.st104{fill:#66A1D3;}
	.st105{opacity:0.5;fill:#507FA6;enable-background:new    ;}
	.st106{fill:#ABD2CC;}
	.st107{fill:#1D1D1B;}
	.st108{fill:#386FB2;}
	.st109{fill:#E89D6C;}
	.st110{fill:#B1B1B1;}
	.st111{fill:#507FA6;}
	.st112{fill:#3C3C3B;}
	.st113{fill:#D99267;}
	.st114{fill:#575756;}
	.st115{fill:#4B4B4A;}
	.st116{fill:#868686;}
	.st117{opacity:0.5;fill:#9C9C9B;enable-background:new    ;}
	.st118{clip-path:url(#SVGID_21_);}
	.st119{clip-path:url(#SVGID_23_);}
	.st120{clip-path:url(#SVGID_25_);}
	.st121{fill:#EFEFEF;}
	.st122{clip-path:url(#SVGID_27_);}
	.st123{fill:#F7D3B6;}
	.st124{fill:#58595B;}
	.st125{fill:#221F20;}
	.st126{fill:#323133;}
	.st127{fill:#3A393B;}
	.st128{fill:#414042;}
	.st129{fill:#EA514F;}
	.st130{fill:#EAC8AD;}
	.st131{fill:#303030;}
	.st132{fill:#1A4448;}
	.st133{fill:#19777C;}
	.st134{fill:#163B3D;}
	.st135{fill:#1A2F30;}
	.st136{fill:#979797;}
	.st137{fill:#FBFBFB;}
	.st138{fill:#CED0D1;}
	.st139{fill:#D63731;}
	.st140{fill:#D0D2D3;}
	.st141{fill:#E5E6E7;}
	.st142{fill:#BBBDBF;}
	.st143{fill:#F0F1F1;}
	.st144{fill:#99735C;}
	.st145{fill:#8B6954;}
	.st146{fill:#AA7F66;}
	.st147{fill:#C19174;}
	.st148{fill:#BD8E72;}
	.st149{fill:#CF9C62;}
	.st150{fill:#DEBEA4;}
	.st151{fill:#3C3B3D;}
	.st152{opacity:0.2;fill:#221F20;enable-background:new    ;}
	.st153{fill:#EB5B5A;}
	.st154{fill:#93643F;}
	.st155{fill:#F7D6B4;}
	.st156{fill:#EF9446;}
	.st157{fill:#D7853F;}
	.st158{fill:#E18A42;}
	.st159{fill:#A8352F;}
	.st160{fill:#071CA9;}
	.st161{fill:#F9F9F9;}
	.st162{fill:#262526;}
	.st163{fill:#6D6E71;}
	.st164{fill:#B77A36;}
	.st165{fill:#6C5CA5;}
	.st166{fill:#4A4B4D;}
	.st167{fill:#806440;}
	.st168{fill:#BC9B72;}
	.st169{fill:#684F34;}
	.st170{fill:#F0A059;}
	.st171{fill:#024E53;}
	.st172{fill:#00876D;}
	.st173{fill:#00C3A6;}
	.st174{opacity:0.5;fill:#FFFFFF;}
	.st175{fill:#002644;}
	.st176{fill:#BC8F63;}
	.st177{fill:#D4AB79;}
	.st178{fill:#2F8688;}
	.st179{fill:#006467;}
	.st180{fill:#C7D5FF;}
	.st181{fill:#00B9BF;}
	.st182{fill:#FDA897;}
	.st183{fill:#333B84;}
	.st184{fill:none;stroke:#002644;stroke-width:0.2386;stroke-linecap:round;stroke-linejoin:round;stroke-miterlimit:10;}
	.st185{fill:#C86856;}
	.st186{fill:none;stroke:#AB4D3B;stroke-width:0.25;stroke-linecap:round;stroke-linejoin:round;stroke-miterlimit:10;}
	.st187{fill:#AB4D3B;}
	.st188{fill:#D43E37;}
	.st189{fill:none;stroke:#002644;stroke-width:0.4773;stroke-linecap:round;stroke-linejoin:round;stroke-miterlimit:10;}
	.st190{fill:#67D5C0;}
	.st191{fill:#4A51A9;}
</style>
<g>
	<defs>
		<rect id="SVGID_1_" width="1430.7" height="1189"/>
	</defs>
	<clipPath id="SVGID_2_">
		<use xlink:href="#SVGID_1_"  style="overflow:visible;"/>
	</clipPath>
	<g class="st0">
		<path class="st1" d="M22.9,974.1l175.9-0.6l175.9-0.3l351.9-0.6l352.2,0.6l175.9,0.3l175.9,0.6l-175.9,1l-175.9,0.3l-352.2,0.3
			l-351.9-0.3l-175.9-0.3L22.9,974.1z"/>
		<path class="st2" d="M106.5,1189c58.8,0,106.5-12.4,106.5-27.8c0-15.3-47.7-27.8-106.5-27.8S0,1145.8,0,1161.2
			C0,1176.5,47.7,1189,106.5,1189z"/>
		<path class="st2" d="M1201.4,1045.8c122.6,0,221.9-17.5,221.9-39.1c0-21.6-99.4-39.1-221.9-39.1s-221.9,17.5-221.9,39.1
			C979.4,1028.3,1078.8,1045.8,1201.4,1045.8z"/>
		<path class="st2" d="M618.5,1143.7c296.7,0,537.1-27.5,537.1-61.4c0-33.9-240.5-61.4-537.1-61.4c-296.7,0-537.1,27.5-537.1,61.4
			C81.4,1116.2,321.9,1143.7,618.5,1143.7z"/>
		<path class="st2" d="M1047.9,21h-643v426.8h643V21z"/>
		<path class="st3" d="M1063.7,0H389.8v21h673.8V0z"/>
		<path class="st4" d="M967.5,109.5H882v101.8h85.6V109.5z"/>
		<path class="st3" d="M928,116.3c0,1.6-1.3,3.2-3.2,3.2c-1.6,0-3.2-1.3-3.2-3.2c0-1.6,1.3-3.2,3.2-3.2
			C926.4,113.4,928,114.7,928,116.3z"/>
		<path class="st2" d="M898.4,129.9c8.7-0.6,17.4-0.6,26.1-0.6c8.7,0,17.4,0,26.1,0.6c-8.7,0.6-17.4,0.6-26.1,0.6
			C915.8,130.5,907.1,130.5,898.4,129.9z"/>
		<path class="st2" d="M898.4,138c4.8-0.6,9.3-0.6,14.2-0.6c4.8,0,9.3,0.3,14.2,0.6c-4.8,0.6-9.3,0.6-14.2,0.6
			C907.7,138.6,903.2,138.6,898.4,138z"/>
		<path class="st2" d="M898.4,146c6.1-0.6,11.9-0.6,18-0.6c6.1,0,11.9,0.3,18,0.6c-6.1,0.6-11.9,0.6-18,0.6
			C910.3,146.7,904.5,146.7,898.4,146z"/>
		<path class="st2" d="M898.4,154.1c7.4-0.6,15.1-0.6,22.5-0.6c7.4,0,15.1,0.3,22.5,0.6c-7.4,0.6-15.1,0.6-22.5,0.6
			C913.5,154.8,905.8,154.8,898.4,154.1z"/>
		<path class="st2" d="M898.4,162.2c6.4-0.6,13.2-0.6,19.6-0.6c6.4,0,13.2,0.3,19.6,0.6c-6.4,0.6-13.2,0.6-19.6,0.6
			C911.6,162.8,904.8,162.8,898.4,162.2z"/>
		<path class="st2" d="M898.4,169.9c8.4-0.6,16.7-0.6,25.1-0.6c8.4,0,16.7,0,25.1,0.6c-8.4,0.6-16.7,0.6-25.1,0.6
			C915.1,170.9,906.8,170.9,898.4,169.9z"/>
		<path class="st2" d="M898.4,178c5.5-0.6,10.9-0.6,16.1-0.6c5.5,0,10.9,0.3,16.1,0.6c-5.5,0.6-10.9,0.6-16.1,0.6
			C909,179,903.9,178.7,898.4,178z"/>
		<path class="st2" d="M898.4,186.1c8.7-0.6,17.4-0.6,26.1-0.6c8.7,0,17.4,0,26.1,0.6c-8.7,0.6-17.4,0.6-26.1,0.6
			C915.8,186.7,907.1,186.7,898.4,186.1z"/>
		<path class="st2" d="M898.4,194.2c8.7-0.6,17.4-0.6,26.1-0.6c8.7,0,17.4,0,26.1,0.6c-8.7,0.6-17.4,0.6-26.1,0.6
			C915.8,194.8,907.1,194.8,898.4,194.2z"/>
		<path class="st4" d="M1010.9,249.1h-101v120.2h101V249.1z"/>
		<path class="st3" d="M963.7,265.6c0,1.6-1.3,3.2-3.2,3.2c-1.6,0-3.2-1.3-3.2-3.2c0-1.6,1.3-3.2,3.2-3.2S963.7,263.6,963.7,265.6z"
			/>
		<path class="st2" d="M924.1,279.1c3.9-0.6,7.4-0.6,11.3-0.6c3.9,0,7.4,0.3,11.3,0.6c-3.9,0.6-7.4,0.6-11.3,0.6
			C931.5,280.1,928,279.8,924.1,279.1z"/>
		<path class="st2" d="M924.1,288.2c4.8-0.6,9.7-0.6,14.5-0.6c4.8,0,9.7,0.3,14.5,0.6c-4.8,0.6-9.7,0.6-14.5,0.6
			C933.7,289.2,928.9,288.8,924.1,288.2z"/>
		<path class="st2" d="M924.1,297.2c4.5-0.6,9-0.6,13.5-0.6c4.5,0,9,0.3,13.5,0.6c-4.5,0.6-9,0.6-13.5,0.6
			C933.1,298.2,928.6,297.9,924.1,297.2z"/>
		<path class="st2" d="M924.1,306.3c4.5-0.6,9-0.6,13.5-0.6c4.5,0,9,0.3,13.5,0.6c-4.5,0.6-9,0.6-13.5,0.6
			C933.1,307.3,928.6,306.9,924.1,306.3z"/>
		<path class="st2" d="M924.1,315.7c3.9-0.6,7.7-0.6,11.6-0.6c3.9,0,7.7,0.3,11.6,0.6c-3.9,0.6-7.7,0.6-11.6,0.6
			C931.8,316.3,928,316,924.1,315.7z"/>
		<path class="st2" d="M924.1,324.7c4.8-0.6,10-0.6,14.8-0.6c4.8,0,10,0.3,14.8,0.6c-4.8,0.6-10,0.6-14.8,0.6
			C934.1,325.4,929.2,325.4,924.1,324.7z"/>
		<path class="st2" d="M924.1,333.7c4.2-0.6,8.4-0.6,12.2-0.6c4.2,0,8.4,0.3,12.2,0.6c-4.2,0.6-8.4,0.6-12.2,0.6
			C932.5,334.4,928.3,334.4,924.1,333.7z"/>
		<path class="st2" d="M924.1,342.8c5.1-0.6,10.3-0.6,15.4-0.6c5.1,0,10.3,0.3,15.4,0.6c-5.1,0.6-10.3,0.6-15.4,0.6
			C934.4,343.4,929.2,343.4,924.1,342.8z"/>
		<path class="st2" d="M924.1,351.8c5.1-0.6,10.3-0.6,15.4-0.6c5.1,0,10.3,0.3,15.4,0.6c-5.1,0.6-10.3,0.6-15.4,0.6
			C934.4,352.5,929.2,352.5,924.1,351.8z"/>
		<path class="st2" d="M968.5,279.1c4.8-0.6,9.7-0.6,14.8-0.6c4.8,0,9.6,0.3,14.8,0.6c-4.8,0.6-9.7,0.6-14.8,0.6
			C978.1,280.1,973.3,279.8,968.5,279.1z"/>
		<path class="st2" d="M968.5,288.2c3.2-0.6,6.4-0.6,9.7-0.6c3.2,0,6.4,0.3,9.7,0.6c-3.2,0.6-6.4,0.6-9.7,0.6
			C974.9,289.2,971.7,288.8,968.5,288.2z"/>
		<path class="st2" d="M968.5,297.2c4.5-0.6,9.3-0.6,13.8-0.6c4.5,0,9.3,0.3,13.8,0.6c-4.5,0.6-9.3,0.6-13.8,0.6
			C977.5,298.2,973,297.9,968.5,297.2z"/>
		<path class="st2" d="M968.5,306.3c4.5-0.6,9-0.6,13.5-0.6c4.5,0,9,0.3,13.5,0.6c-4.5,0.6-9,0.6-13.5,0.6
			C977.2,307.3,972.7,306.9,968.5,306.3z"/>
		<path class="st2" d="M968.5,315.7c4.8-0.6,9.7-0.6,14.8-0.6c4.8,0,9.6,0.3,14.8,0.6c-4.8,0.6-9.7,0.6-14.8,0.6
			C978.1,316.3,973.3,316,968.5,315.7z"/>
		<path class="st2" d="M968.5,324.7c3.9-0.6,7.7-0.6,11.6-0.6c3.9,0,7.7,0.3,11.6,0.6c-3.9,0.6-7.7,0.6-11.6,0.6
			C976.2,325.3,972.3,325.3,968.5,324.7z"/>
		<path class="st2" d="M968.5,333.7c4.5-0.6,9.3-0.6,13.8-0.6c4.5,0,9.3,0.3,13.8,0.6c-4.5,0.6-9.3,0.6-13.8,0.6
			C977.5,334.4,973,334.4,968.5,333.7z"/>
		<path class="st2" d="M968.5,342.8c3.5-0.6,7.1-0.6,10.6-0.6c3.5,0,7.1,0.3,10.6,0.6c-3.5,0.6-7.1,0.6-10.6,0.6
			C975.6,343.4,972,343.4,968.5,342.8z"/>
		<path class="st2" d="M968.5,351.8c3.5-0.6,6.8-0.6,10.3-0.6c3.5,0,6.8,0.3,10.3,0.6c-3.5,0.6-6.8,0.6-10.3,0.6
			C975.2,352.5,971.7,352.5,968.5,351.8z"/>
		<path class="st5" d="M1011.3,81.7h-51.5v51.7h51.5V81.7z"/>
		<path class="st3" d="M988.4,86.9c0,1.6-1.3,3.2-3.2,3.2c-1.6,0-3.2-1.3-3.2-3.2c0-1.6,1.3-3.2,3.2-3.2S988.4,85,988.4,86.9z"/>
		<path class="st3" d="M587.6,335.7c61.8,0,111.9-50.3,111.9-112.4s-50.1-112.4-111.9-112.4s-111.9,50.3-111.9,112.4
			S525.8,335.7,587.6,335.7z"/>
		<path class="st6" d="M587.6,223.3l-39.9,105.3c-43.4-16.5-72-58.5-72-105.3c0-61.7,50.5-112.4,111.9-112.4
			c61.4,0,111.9,50.7,111.9,112.4H587.6z"/>
		<path class="st6" d="M587.6,223.3l90.1,67.2C656.5,319.2,623,336,587.6,336c-61.4,0-111.9-50.7-111.9-112.4
			c0-61.7,50.5-112.4,111.9-112.4c61.4,0,111.9,50.7,111.9,112.4H587.6V223.3z"/>
		<path class="st5" d="M587.6,223.3L488.3,275c-8.4-16.2-12.5-33.9-12.5-51.7c0-61.7,50.5-112.4,111.9-112.4
			c61.4,0,111.9,50.7,111.9,112.4H587.6z"/>
		<path class="st7" d="M633,174.1l-1.6-1.9l53.7-54h68.2v2.6h-67.2L633,174.1z"/>
		<path class="st7" d="M753.3,240.4H648.8v2.6h104.5V240.4z"/>
		<path class="st7" d="M753.3,359.3h-70.8l-0.6-0.6l-50.5-62.4l1.9-1.6l50.2,62h69.8V359.3z"/>
		<path class="st7" d="M753.3,124.7c2.8,0,5.1-2.3,5.1-5.2c0-2.9-2.3-5.2-5.1-5.2c-2.8,0-5.1,2.3-5.1,5.2
			C748.1,122.4,750.4,124.7,753.3,124.7z"/>
		<path class="st7" d="M753.3,246.8c2.8,0,5.1-2.3,5.1-5.2c0-2.9-2.3-5.2-5.1-5.2c-2.8,0-5.1,2.3-5.1,5.2
			C748.1,244.5,750.4,246.8,753.3,246.8z"/>
		<path class="st7" d="M758.4,358c0,2.9-2.2,5.2-5.1,5.2c-2.9,0-5.1-2.3-5.1-5.2c0-2.9,2.2-5.2,5.1-5.2
			C756.2,352.8,758.4,355.1,758.4,358z"/>
		<path class="st7" d="M819.6,118.3h-46.6v2.6h46.6V118.3z"/>
		<path class="st7" d="M838.2,126h-65.3v2.6h65.3V126z"/>
		<path class="st7" d="M828.9,133.8h-56v2.6h56V133.8z"/>
		<path class="st7" d="M844.3,141.5h-71.4v2.6h71.4V141.5z"/>
		<path class="st7" d="M834.7,149.3h-61.8v2.6h61.8V149.3z"/>
		<path class="st7" d="M826,157.3h-53.1v2.6H826V157.3z"/>
		<path class="st7" d="M837.2,240.4h-64.3v2.6h64.3V240.4z"/>
		<path class="st7" d="M816.3,248.1h-43.4v2.6h43.4V248.1z"/>
		<path class="st7" d="M832.1,256.2h-59.2v2.6h59.2V256.2z"/>
		<path class="st7" d="M837.2,264h-64.3v2.6h64.3V264z"/>
		<path class="st7" d="M844.3,271.7h-71.4v2.6h71.4V271.7z"/>
		<path class="st7" d="M826,279.5h-53.1v2.6H826V279.5z"/>
		<path class="st7" d="M827,356.7h-54v2.6h54V356.7z"/>
		<path class="st7" d="M844.3,364.4h-71.4v2.6h71.4V364.4z"/>
		<path class="st7" d="M818,372.2h-45v2.6h45V372.2z"/>
		<path class="st7" d="M844.3,380h-71.4v2.6h71.4V380z"/>
		<path class="st7" d="M834.7,387.7h-61.8v2.6h61.8V387.7z"/>
		<path class="st7" d="M810.9,395.5h-38v2.6h38V395.5z"/>
		<path class="st6" d="M1047.9,21h-643v27.1h643V21z"/>
		<path class="st8" d="M1059.5,999.6c5.5,1.6,161.1-4.5,166.9-8.4c2.2-1.6,2.6-24.2,2.2-52c0-0.3,0-0.6,0-1c0-5.8,0-11.6-0.3-17.4
			c0-1,0-1.6,0-2.6c-1-39.7-2.6-81.1-2.6-81.1l-98.4,3.9l-0.3,80.4l0.3,3.2l1,16.5v1.6c0,0-58.5,29.1-64.3,34.2
			C1058.2,982.2,1054,998,1059.5,999.6z"/>
		<path class="st3" d="M1059.5,999.6c5.5,1.6,161.1-4.5,166.9-8.4c2.2-1.6,2.6-24.2,2.2-52c0-0.3,0-0.6,0-1c0-5.8,0-11.6-0.3-17.4
			c0-1,0-1.6,0-2.6l-101.3,2.9l0.3,3.2l1,16.5v1.6c0,0-58.5,29.1-64.3,34.2C1058.2,982.2,1054,998,1059.5,999.6z"/>
		<path class="st9" d="M1059.5,999.6c2.9,1,43.4-0.3,84.3-2.3c40.2-1.9,79.8-4.2,82.7-6.5c2.2-1.6,2.6-23.3,2.2-50.1
			c0-0.6,0-1.3,0-1.9v-1l-100.3,2.9v1.6c0,0-58.5,29.1-64.3,34.2C1058.2,982.2,1054,998,1059.5,999.6z"/>
		<path class="st1" d="M1061.1,993.5c26.1-1.6,132.2-5.8,158.2-5.5c0.3,0,0.3,0,0,0.3c-26.1,2.3-131.9,5.8-158.2,5.8
			C1060.5,994.1,1060.5,993.5,1061.1,993.5z"/>
		<path class="st1" d="M1117.4,942.1c10.3-2.3,22.8-1.3,31.2,5.8c0.3,0.3,0,0.6-0.3,0.6c-10.3-2.9-19.9-4.5-30.6-5.2
			C1116.8,943.1,1116.4,942.1,1117.4,942.1z"/>
		<path class="st1" d="M1110,946.6c10.3-2.3,22.8-1.3,31.2,5.8c0.3,0.3,0,0.6-0.3,0.6c-10.3-2.9-19.9-4.5-30.6-5.2
			C1109.3,947.9,1109.3,947,1110,946.6z"/>
		<path class="st1" d="M1102.9,951.5c10.3-2.3,22.8-1.3,31.2,5.8c0.3,0.3,0,0.6-0.3,0.6c-10.3-2.9-19.9-4.5-30.6-5.2
			C1101.9,952.8,1101.9,951.8,1102.9,951.5z"/>
		<path class="st1" d="M1108.1,934.4c7.4,5.5,17,7.4,25.7,10.3c1,0.3,1.6-0.6,1.6-1.3c0.3,0,0.3-0.3,0.3-0.3
			c-3.2-8.4-9.6-17.4-16.7-23.3c-4.5-3.6-12.2-5.8-16.1,0C1099.4,925.3,1103.9,931.1,1108.1,934.4z M1105.2,926.3
			c-2.2-11.3,10-5.8,13.2-3.2c1.9,1.6,3.9,3.9,5.8,5.8c3.9,4.2,6.8,8.7,10,13.3c-4.2-1.6-8.4-2.9-12.5-4.5
			C1116.8,936,1106.5,932.4,1105.2,926.3z"/>
		<path class="st1" d="M1169.5,925.7c-2.9-6.5-10.6-5.5-15.8-2.9c-8,4.2-16.1,12-20.6,19.7c0,0.3,0,0.3,0,0.3c0,0.6,0.3,1.6,1.3,1.6
			c9-1.3,18.7-1.3,27-5.5C1166.9,937,1172.1,931.8,1169.5,925.7z M1148,939.9c-4.5,0.6-9,1.3-13.2,1.9c4.2-3.9,8-7.8,12.2-11.3
			c2.2-1.6,4.2-3.2,6.8-4.5c3.5-1.9,16.7-5.2,12.5,5.5C1164.1,937.6,1153.4,939.2,1148,939.9z"/>
		<path class="st1" d="M1143.8,997.7c40.2-1.9,79.8-4.2,82.7-6.5c2.3-1.6,2.6-23.3,2.3-50.1C1211.3,952.1,1170.2,979.6,1143.8,997.7
			z"/>
		<path class="st3" d="M1259.6,412.9c0,0-23.5,264.3-27.3,284.6c-1,4.5-1.3,29.7-1.9,61.7c-1,70.1-0.3,177.4-0.3,177.4h-109.7
			c0,0,3.2-200,8-240.4c4.8-40.4,36-283.3,36-283.3H1259.6z"/>
		<path class="st1" d="M1125.5,917.2c17-0.3,12.2-0.6,29.3-0.6c8.4,0,63.4-0.6,71.4,0.6c0.3,0,0.3,0.3,0,0.3c-7.7,1.3-63,1-71.4,0.6
			c-17-0.3-12.2-0.3-29.3-0.6C1125.1,917.9,1125.1,917.2,1125.5,917.2z"/>
		<path class="st1" d="M1209.4,811.3c0-16.2,0.3-32,0.3-48.1c0-15.5,0-31,1-46.5c1.6-31.3,7.7-62,12.2-93c4.5-31,8.4-62,11.6-93.4
			c3.9-34.9,7.1-69.8,10.6-105c0-0.3,0.3-0.3,0.3,0c-5.1,62.4-10.9,125-19.6,187.1c-2.3,15.5-4.5,30.7-7.1,46.2
			c-2.6,15.5-5.1,31-6.4,46.8c-1.3,15.5-1.3,31-1.6,46.2c-0.3,15.8-0.3,32-0.3,47.8c-0.3,35.5-0.6,71.1-1,106.6c0,0.6-1,0.6-1,0
			C1208.8,874.6,1209.1,842.9,1209.4,811.3z"/>
		<path class="st1" d="M1282.8,412.9c0,0-46.6,264.3-50.5,284.6c-1,4.5-1.3,29.7-1.9,61.7l-52.4-346.3H1282.8z"/>
		<path class="st8" d="M1178.5,1008.7c5.5,1.6,161.1-4.5,166.9-8.4c2.2-1.6,2.6-24.2,2.2-52c0-0.3,0-0.6,0-1c0-5.8,0-11.6-0.3-17.4
			c0-1,0-1.6,0-2.6c-1-39.7-7.7-81.1-7.7-81.1l-98.7,3.9l5.1,80.4l0.3,3.2l1,16.5v1.6c0,0-58.5,29.1-64.3,34.2
			C1177.3,991.2,1173.1,1007.1,1178.5,1008.7z"/>
		<path class="st3" d="M1178.5,1008.7c5.5,1.6,161.1-4.5,166.9-8.4c2.2-1.6,2.6-24.2,2.2-52c0-0.3,0-0.6,0-1c0-5.8,0-11.6-0.3-17.4
			c0-1,0-1.6,0-2.6l-101.3,2.9l0.3,3.2l1,16.5v1.6c0,0-58.5,29.1-64.3,34.2C1177.3,991.2,1173.1,1007.1,1178.5,1008.7z"/>
		<path class="st9" d="M1178.5,1008.7c5.5,1.6,161.1-4.5,166.9-8.4c2.2-1.6,2.6-24.2,2.2-52c0-0.3,0-0.6,0-1l-100.4,2.9v1.6
			c0,0-58.5,29.1-64.3,34.2C1177.3,991.2,1173.1,1007.1,1178.5,1008.7z"/>
		<path class="st1" d="M1180.2,1002.5c26.1-1.6,132.2-5.8,158.2-5.5c0.3,0,0.3,0,0,0.3c-26.1,2.3-131.9,5.8-158.2,5.8
			C1179.8,1002.9,1179.5,1002.5,1180.2,1002.5z"/>
		<path class="st1" d="M1236.5,950.8c10.3-2.3,22.8-1.3,31.2,5.8c0.3,0.3,0,0.6-0.3,0.6c-10.3-2.9-19.9-4.5-30.6-5.2
			C1235.8,952.1,1235.8,951.2,1236.5,950.8z"/>
		<path class="st1" d="M1229.1,955.7c10.3-2.3,22.8-1.3,31.2,5.8c0.3,0.3,0,0.6-0.3,0.6c-10.3-2.9-19.9-4.5-30.6-5.2
			C1228.4,957,1228.4,955.7,1229.1,955.7z"/>
		<path class="st1" d="M1222,960.5c10.3-2.3,22.8-1.3,31.2,5.8c0.3,0.3,0,0.6-0.3,0.6c-10.3-2.9-19.9-4.5-30.6-5.2
			C1221,961.8,1221,960.5,1222,960.5z"/>
		<path class="st1" d="M1227.1,943.4c7.4,5.5,17,7.4,25.7,10.3c1,0.3,1.6-0.6,1.6-1.3c0.3,0,0.3-0.3,0.3-0.3
			c-3.2-8.4-9.7-17.4-16.7-23.3c-4.5-3.6-12.2-5.8-16.1,0C1218.4,934.4,1222.9,940.2,1227.1,943.4z M1224.2,935
			c-2.3-11.3,10-5.8,13.2-3.2c1.9,1.6,3.9,3.9,5.8,5.8c3.9,4.2,6.8,8.7,10,13.2c-4.2-1.6-8.4-2.9-12.5-4.5
			C1235.8,944.7,1225.5,941.5,1224.2,935z"/>
		<path class="st1" d="M1288.6,934.7c-2.9-6.5-10.6-5.5-15.8-2.9c-8,4.2-16.1,12-20.6,19.7c0,0.3,0,0.3,0,0.3c0,0.6,0.3,1.6,1.3,1.6
			c9-1.3,18.7-1.3,27-5.5C1286,945.7,1291.5,940.8,1288.6,934.7z M1267,948.9c-4.5,0.6-9,1.3-13.2,1.9c4.2-3.9,8-7.8,12.2-11.3
			c2.3-1.6,4.2-3.2,6.8-4.5c3.5-1.9,16.7-5.2,12.5,5.5C1283.1,946.3,1272.5,947.9,1267,948.9z"/>
		<path class="st3" d="M1243.8,949.5l109.7-4.5c0,0-29.9-230-30.6-244.9c-1.3-38.4-24.4-287.5-24.4-287.5h-134.1
			c0,0,8.4,57.5,22.8,94c0,0,10.9,3.6,28,12.9c0,0,12.5,164.8,12.9,185.1C1229.3,745.4,1243.8,949.5,1243.8,949.5z"/>
		<path class="st1" d="M1246.7,929.5c17-1,12.2-1,29.3-1.9c8.4-0.3,63.4-3.2,71.4-2.3c0.3,0,0.3,0.3,0,0.3
			c-7.7,1.6-62.7,3.6-71.1,3.9c-17,0.6-12.2,0.3-29.3,0.6C1246.4,930.2,1246.4,929.5,1246.7,929.5z"/>
		<path class="st1" d="M1288.5,427.4c4.8,62.7,10,125.4,15.8,188c5.8,63,12.5,125.7,20.6,188.4c4.5,34.9,7.1,72.4,12.5,106.9
			c0,0.3-0.3,0.3-0.3,0c-10.9-62-16.7-126.7-23.8-189.3c-7.1-62.4-12.5-125-17.7-187.7c-2.9-35.5-5.5-71.1-8-106.3
			C1287.6,427.1,1288.5,427.1,1288.5,427.4z"/>
		<path class="st1" d="M1182.4,504.3c11.3,3.9,22.2,9.4,32.8,15.5c0.3,0.3,0,1-0.3,0.6c-10.9-4.8-22.2-9.4-33.1-14.9
			C1181.1,505,1181.4,504,1182.4,504.3z"/>
		<path class="st1" d="M1178.8,428.1c0-0.3,0.6-0.3,0.6,0c0,13.2,0.6,24.9,1.9,37.2c0.6,5.8,5.1,37.5,15.1,34.9
			c1.6-0.3,2.6-1.9,2.9-4.5c0.3-2.9-1-6.8-1.3-9.7c-1-6.5-1.9-13.2-2.6-20c-1-12.6-1-24.9,0.3-37.5c0-0.3,0.6-0.3,0.6,0
			c0,17.1,0.3,34.6,2.9,51.7c1.3,8.1,5.5,20.7-3.2,22c-8.7,1.3-14.5-19.4-15.4-25.2C1177.9,461,1177.6,443.9,1178.8,428.1z"/>
		<path class="st1" d="M1196.2,500.8c1,2.3,1.6,4.2,2.2,6.5c0.3,1.6,1,3.6,1,5.5c0,0.3-0.6,0.3-0.6,0c-1.3-1.6-1.6-3.6-2.3-5.2
			c-0.6-1.9-1.6-3.9-2.2-6.1C1193.6,500.5,1195.6,499.5,1196.2,500.8z"/>
		<path class="st10" d="M1192.1,293.4c-15.8,20.7-88.5,78.5-118,76.2c-19.3-1.6-82.7-37.5-96.5-49.4c-16.1-13.9,11.3-56.9,23.2-53
			c14.8,4.8,65.6,37.5,79.4,41c8,2.3,56-22.6,100.4-45.9C1197.5,253.6,1202.7,279.1,1192.1,293.4z"/>
		<path class="st5" d="M998.4,339.9c0,0,61.4,40.1,86.5,32.3c12.5-3.9,32.8-15.5,52.7-29.1c20.3-13.9,40.2-30.4,51.5-43.6
			c12.9-15.5,13.8-30,7.1-36.5c-2.6-2.6-5.8-3.9-10.3-3.9c-4.5,0-9.7,1.6-15.8,5.2c-26.7,16.2-80.7,42.6-87.2,42
			c-6.4-0.6-48.2-25.5-48.2-25.5L998.4,339.9z"/>
		<path class="st5" d="M987.8,338.9l16.7,8.1l39.9-65.9l-15.8-10L987.8,338.9z"/>
		<path class="st1" d="M1041.2,286.3c-14.5,28.8-31.2,52-34.4,57.2c0,0.3-0.6,0-0.3-0.3c3.2-4.8,19.3-34.2,34.4-57.2
			C1040.9,285.6,1041.2,285.9,1041.2,286.3z"/>
		<path class="st1" d="M1138,343.1c20.3-13.9,40.2-30.4,51.5-43.6c12.9-15.5,13.8-30,7.1-36.5c-5.8-2.3-9.6-3.6-10.3-3.9
			C1185.3,260.7,1156.4,310.5,1138,343.1z"/>
		<path class="st10" d="M987.8,248.1c-9-3.2-19.3-7.8-29.6-7.4c-10.3,0.3-18.7,13.6-18.7,17.4c0,3.9,3.9,28.1,14.1,28.1
			c10.3,0,4.2-18.4,4.5-20.7c0.3-2.3,0.6-4.8,2.6-4.5c1.9,0.3,35.4,16.2,35.4,16.2L987.8,248.1z"/>
		<path class="st10" d="M987.2,249.7c-0.6,0-28-10.7-38-10.7c-10,0-18.7,13.6-18.7,17.4s3.9,28.1,14.2,28.1s4.2-18.4,4.5-20.7
			c0.3-2.3,0.6-4.8,2.6-4.5c1.9,0.3,35.4,16.2,35.4,16.2V249.7z"/>
		<path class="st1" d="M948,283.3c1.3-1.6,1.6-4.2,1.6-6.1c0.3-2.3,0-4.5-0.3-6.5c-0.3-1.9-1.3-3.6-1.3-5.5c0-1.6,0.6-3.9,1.3-5.5
			c0.6-1.3,2.2-1,3.5-0.6c1.9,0.6,3.9,1.6,5.5,2.6c1.9,1,3.9,1.9,5.8,2.9c1.9,1,4.2,1.9,5.8,3.2v0.3c-1.9-0.6-3.5-1.6-5.1-2.3
			c-1.9-1-3.9-1.9-5.8-2.6c-1.9-1-3.5-1.6-5.5-2.6c-0.6-0.3-1.9-1-2.6-0.6c-0.6,0.3-1.3,1.9-1.3,2.6c-0.6,1.9-0.3,3.6,0.3,5.5
			c0.6,1.9,1,3.6,1,5.5c0,1.6,0,3.6-0.3,5.2C950.2,280.8,949.2,282.1,948,283.3z"/>
		<path class="st10" d="M1019.4,276.6c0,0-28.3-25.9-34.1-31c-11.9-10.3-61.4-30.7-68.2-31.3c-6.8-0.6-9.3,13.6,24.1,28.4
			c17.7,7.8,20.9,18.1,20.6,23.6c-0.3,5.8-5.8,16.2-15.1,15.8c-9.3-0.3-15.8-14.2-24.4-15.8c-8.7-1.6-2.9,14.5,3.2,23.6
			c6.1,9.4,17.4,16.8,25.4,20c8,3.2,33.5,13.9,33.5,13.9L1019.4,276.6z"/>
		<path class="st1" d="M934.8,275.3c3.5,2.9,7.7,6.5,12.2,6.5c4.8,0.3,8-2.9,10.3-7.1c2.3-3.9,3.5-8.7,2.6-13.2
			c-1-4.2-3.5-7.8-6.4-10.7c-3.9-3.6-8.4-6.1-12.9-8.7c-0.3,0,0-0.3,0.3-0.3c4.5,1.9,18,7.4,20.6,19.7c1,4.8-0.3,9.4-2.6,13.2
			c-2.3,3.9-5.1,7.4-9.7,7.8C943.5,283.3,938.7,278.8,934.8,275.3z"/>
		<path class="st5" d="M1158.3,447.2c2.6,1.9,60.8,2.6,105.2,2.6c27,0,48.9-0.3,49.2-0.6c0.6-1-34.1-144.1-84.9-184.5
			c-4.8-3.9-9.7-6.8-14.8-8.4c-9.3-3.2-33.5-0.3-36,2.9C1156,288.9,1156,445.2,1158.3,447.2z"/>
		<path class="st9" d="M1192.4,296.6l-6.8-11.3l-10,10.3l3.5,9.7l10.6-0.3L1192.4,296.6z"/>
		<path class="st9" d="M1189.8,305l13.2,105.3l-14.2,35.9l-14.2-35.9l4.5-105L1189.8,305z"/>
		<path class="st5" d="M1177.3,258.5l9.3,21.6l26.1-28.1l7.7,8.7c0,0-25.1,44.3-25.4,42.3l-9.3-18.4l-12.5,13.2l0.3-32.6
			L1177.3,258.5z"/>
		<path class="st1" d="M1172.4,281.7c0.3-5.5,0.3-11,0.6-16.2c0-0.3,0.3-0.3,0.3,0c1.3,5.2,0.3,25.8,0.3,30.7
			c0.6-0.6,11.6-11.6,11.9-11.6c1.9,2.9,9,16.5,9.3,17.8c3.9-7.1,20.9-34.9,25.7-41.7c0-0.3,0.3,0,0.3,0.3
			c-3.5,7.4-25.4,44.3-25.7,43.9c-0.3,0.3-8.7-16.5-10-19.7c-1.9,2.6-13.2,14.9-13.2,14.2C1172.1,294,1172.1,286.9,1172.4,281.7z"/>
		<path class="st10" d="M1185.6,283.3c9,1.3,22.5-13.2,27.7-24.6c0.3-0.6-1.6-8.4-3.2-18.1c-1-5.8-1.9-12.3-2.6-18.1
			c0-1.3-4.2,1.3-4.2,1.3l-7.4,2.6l-24.8,8.4c0,0,4.8,12.3,5.5,22.6c0,1,0,1.6,0,2.6v0.3C1176.3,264.9,1177.3,282.1,1185.6,283.3z"
			/>
		<path class="st1" d="M1176.6,259.8v0.3c1.3,0,2.6,0,3.9,0c24.8-2.9,25.4-34.9,25.4-34.9l-10,1.3l-24.8,8.4c0,0,4.8,12.3,5.5,22.6
			C1176.9,258.1,1176.9,259.1,1176.6,259.8z"/>
		<path class="st10" d="M1147,214.2c0.6,12.6,3.5,24.2,8.7,30c12.9,14.5,34.7,9.7,46.3-4.5c2.2-2.9,4.2-8.4,5.1-14.9
			c2.6-15.5,1.9-37.8-2.6-46.5c-9-18.4-37-22-50.2-8.4C1148.6,175.4,1145.7,195.8,1147,214.2z"/>
		<path class="st1" d="M1205.9,209c-9,0-10.6-16.2-10.6-16.2s-15.4-2.6-17.7-13.9c0,0-14.5,9.4-25.7,5.2c-11.3-4.2-9-17.1-7.7-19.7
			c1.3-2.9,7.7,2.3,7.7,2.3s0.6-7.4,2.6-8.1c1.9-0.6,4.2,3.6,4.2,3.6s14.8-5.2,28-4.8c13.2,0.3,19.6,13.9,19.6,13.9s7.1,1.6,9.3,6.5
			C1218.1,182.9,1211.7,209,1205.9,209z"/>
		<path class="st1" d="M1198.8,192.9c-11.9,1.6-19.6-6.1-21.6-17.4h-0.3c0.3,10.7,10.3,22.3,21.9,18.1
			C1199.2,193.2,1199.2,192.9,1198.8,192.9z"/>
		<path class="st1" d="M1205.9,170.9c3.2,1.6,7.1,2.9,9.3,5.8c2.9,3.6,2.2,8.4,1.3,12.6c-1.6,6.5-4.8,14.9-10.6,18.7
			c-0.3,0.3,0,0.6,0.3,0.6c6.8-4.2,10.9-14.9,11.6-22.6C1219.1,177.7,1213.9,172.8,1205.9,170.9z"/>
		<path class="st1" d="M1164.7,182.2c-5.1,3.2-12.9,3.2-18-0.3c-6.1-4.2-4.8-11.6-2.2-17.4c0-0.3-0.3-0.6-0.6-0.3
			c-3.5,5.2-3.9,13.2,1.3,17.8c5.1,4.5,14.5,4.5,20.3,1C1165.7,182.5,1165.4,181.9,1164.7,182.2z"/>
		<path class="st11" d="M1147,214.2c0.6,12.6,3.5,24.2,8.7,30c12.9,14.5,34.7,9.7,46.3-4.5c2.3-2.9,4.2-8.4,5.1-14.9
			c0-9-0.6-17.8-1-19.7c-0.6-3.6-7.4-1.6-7.4-1.6c0.3,3.9-1,12.6-3.5,15.8c-4.2,5.5-14.2,5.2-17.7,4.8c-3.5-0.3-10.3-3.6-17.4-1.3
			c-2.9,1-5.8,3.2-8.7,1.9C1148.7,223.3,1147,214.8,1147,214.2z"/>
		<path class="st10" d="M1201.4,210.3c0,0,6.8-13.6,12.9-11.3c6.1,2.3,1.9,21-4.2,24.2c-6.1,3.2-9.3-2.3-9.3-2.3L1201.4,210.3z"/>
		<path class="st1" d="M1213,204.5c-4.2,2.6-6.1,7.1-7.1,12c1-1.9,2.9-3.2,5.5-1.6v0.3c-1.9,0-3.2,0.3-4.2,1.9
			c-0.6,1.3-1.3,2.6-1.6,3.9c0,0.3-1,0.3-1-0.3C1203.3,214.8,1206.9,206.1,1213,204.5z"/>
		<path class="st1" d="M1168.9,208.7c0,2.9,0.3,5.8,2.6,6.8C1168.6,215.2,1168.3,211.3,1168.9,208.7z"/>
		<path class="st1" d="M1171.5,206.1c4.2-0.3,4.2,8.4,0.3,8.4C1168,214.8,1168,206.4,1171.5,206.1z"/>
		<path class="st1" d="M1155.7,209C1155.7,208.7,1155.4,209,1155.7,209c0,2.9-0.3,5.8-2.9,6.8C1155.7,215.5,1156.1,211.3,1155.7,209
			z"/>
		<path class="st1" d="M1153.2,206.1c-4.2-0.3-4.5,8.1-0.6,8.4C1156.7,214.8,1156.7,206.4,1153.2,206.1z"/>
		<path class="st1" d="M1174.7,202.2c-1.3-0.3-2.2-0.6-3.2-1c-1.3-0.3-2.3-0.6-3.2-1.6c-0.3-0.6-0.3-1.6,0.3-2.3
			c1.3-1.3,2.9-1,4.5-0.6c1.6,0.6,2.9,1.3,3.9,2.9C1177.6,201,1176,202.6,1174.7,202.2z"/>
		<path class="st1" d="M1149.9,201.9c1.3-0.3,2.2-0.6,3.2-1c1.3-0.3,2.3-0.6,3.2-1.6c0.3-0.6,0.3-1.6,0-2.3
			c-1.3-1.3-2.9-1.3-4.5-0.6c-1.6,0.3-2.9,1.3-3.9,2.6C1147,200.3,1148.3,202.2,1149.9,201.9z"/>
		<path class="st1" d="M1173.4,232.6c-0.6,0.6-1.3,1.6-2.2,1.6c-1,0-1.9-0.3-2.9-0.6c0.6,1,2.3,1.6,3.2,1.3
			C1172.8,234.9,1173.4,233.9,1173.4,232.6z"/>
		<path class="st1" d="M1170.5,224.9c-1.3,2.3-3.5,3.6-5.8,4.2c-1,0.3-2.3,0.3-3.2,0.3c-0.3,0-0.3,0-0.6,0c-0.3,0-0.3,0-0.6,0
			c-0.3,0-0.3-0.3-0.6-0.6v-0.3v-0.3c0-1.9,0-5.2,0-5.2c-0.6,0.3-4.5,2.3-4.5,1c0.3-8.7,1-18.4,3.2-27.1c0-0.3,0.6-0.3,0.3,0
			c0,8.4-1.6,16.8-1.9,25.2c1.3-0.3,3.2-1.3,4.2-1.3c0.3,0-0.3,5.8-0.3,6.8C1164.7,227.8,1167,226.8,1170.5,224.9
			C1170.8,224.5,1170.5,224.5,1170.5,224.9z"/>
		<path class="st4" d="M1162.8,228.1c0,0,1.9,2.3,4.2,3.2c1,0.3,1.9,0.3,2.9,0c1.9-0.6,2.3-2.6,1.6-4.2c-0.3-1.3-1-2.6-1-2.6
			S1167.6,227.8,1162.8,228.1z"/>
		<path class="st1" d="M1228.1,264.9l35.7,185.1c27,0,48.9-0.3,49.2-0.6C1313.3,448.4,1278.6,305,1228.1,264.9z"/>
		<path class="st10" d="M1354.5,530.8c5.1,9.4,4.2,26.2,11.9,24.6c7.1-1.3,6.4-13.3,6.4-13.3s4.8,12.9,11.9,9.4
			c7.1-3.6,3.9-16.5,3.9-16.5s3.5,11,10.3,6.8c6.8-4.2,6.1-15.5,6.1-15.5s3.2,2.6,6.8-2.6c4.8-7.4-1-25.5-6.1-34.2
			c-5.1-8.7-31.2-37.2-35.1-41.4l-56.6,33.3c0,0,2.2,20,4.5,30c2.2,10,19.3,40.7,27,37.2c8-3.6-4.5-25.2-6.1-31.3
			c-1.9-5.8-0.6-7.4,2.3-5.5C1343.2,513.4,1352.2,526.6,1354.5,530.8z"/>
		<path class="st1" d="M1372.8,541.8c-1.6-16.2-5.5-22.9-15.1-35.5c-0.3-0.3,0-0.6,0.3-0.3c10.9,11.3,16.4,19.4,15.8,35.9
			C1373.5,542.5,1372.8,542.5,1372.8,541.8z"/>
		<path class="st1" d="M1388.6,536c-3.2-16.8-7.1-24.2-16.4-38.1c0-0.3,0.3-0.3,0.3-0.3c10.3,12.9,15.8,21,17,38.1
			C1389.6,536.3,1388.9,536.6,1388.6,536z"/>
		<path class="st1" d="M1405,526.3c-4.5-15.8-8-24.2-19-36.5c-0.3-0.3,0-0.6,0.3-0.3c12.2,11.6,17,22,19,36.8
			C1405.6,527.3,1405.3,527.3,1405,526.3z"/>
		<path class="st10" d="M1232.3,269.8c49.5,43.6,130.6,164.1,140.2,180.6c6.4,11.3-51.8,47.5-55,39.1
			c-4.2-10.7-66.6-129.9-85.2-179.6C1222,282.7,1222,260.7,1232.3,269.8z"/>
		<path class="st5" d="M1375.7,441.3l-66.9,39.7c0,0-62.4-123.1-77.2-168.7c-16.4-51-17.7-65.9,17.7-27.1
			C1284.7,323.7,1375.7,441.3,1375.7,441.3z"/>
		<path class="st1" d="M1230.7,318.9c1,1.6,2.3,2.9,3.2,4.5c0.6,0.6,1,1.6,1.6,2.3c0.3,0.3,0.3,0.6,0.6,0.6
			c-2.2-6.5-4.8-12.9-7.1-19.4c3.9,10.7,8.4,21,12.5,31.3c4.2,10,8,20.4,12.9,30.4c0.3,0.3-0.3,0.6-0.6,0.3c-4.5-10-9-20-13.2-30.4
			c-1.3-3.6-2.6-6.8-3.9-10.3c-0.3-1-1-1.6-1.3-2.6c-0.6-0.6-1-1.6-1.6-2.3C1232.6,322.1,1231.6,320.5,1230.7,318.9z"/>
		<path class="st5" d="M1381.5,443.6l-11.6-14.5l-68.8,44.9l10,15.8L1381.5,443.6z"/>
		<path class="st1" d="M1305,471.7c25.4-19.7,55.3-36.5,60.5-39.7c0.3,0,0.3,0.3,0.3,0.3c-5.1,2.9-37,25.8-60.5,39.7
			C1305,472.3,1304.6,471.7,1305,471.7z"/>
		<path class="st12" d="M854.6,846.5l-5.8,35.5l-40.2,217.4h-6.4L831.5,882l4.2-35.5H854.6z"/>
		<path class="st1" d="M835.6,846.5h19l-5.8,35.5h-17.4L835.6,846.5z"/>
		<path class="st12" d="M980.7,1099.5h-6.4L934,882l-5.8-35.5h19l4.2,35.5L980.7,1099.5z"/>
		<path class="st1" d="M947.2,846.5l4.2,35.5H934l-5.8-35.5H947.2z"/>
		<path class="st12" d="M1101,1099.5h-6.4L1054.3,882l-5.8-35.5h19l4.2,35.5L1101,1099.5z"/>
		<path class="st1" d="M1071.7,882h-17.4l-5.8-35.5h19L1071.7,882z"/>
		<path class="st12" d="M1090.7,863.3H797V832h109.7l37-215.8h135.7L1090.7,863.3z"/>
		<path class="st6" d="M1090.7,863.3h-16.1l-10.3-247.2h15.1L1090.7,863.3z"/>
		<path class="st8" d="M479.6,1074.6c5.5,1.9,161.1,2.3,167.3-1.3c2.2-1.3,3.5-24.2,4.5-51.7c0,0,5.1-6.5,13.2-15.5
			c22.8-26.8,67.2-79.2,67.2-79.2l-119.3-0.6l-52.7,79.5L551,1019v1.6c0,0-59.8,26.5-65.9,31.3
			C478.9,1057.1,474.1,1072.7,479.6,1074.6z"/>
		<path class="st9" d="M479.6,1074.6c5.5,1.9,161.1,2.3,167.3-1.3c2.2-1.3,3.5-24.2,4.5-51.7c0,0,5.1-6.5,13.2-15.5H559.7l-8.7,13.2
			v1.6c0,0-59.8,26.5-65.9,31.3C478.9,1057.1,474.1,1072.7,479.6,1074.6z"/>
		<path class="st9" d="M479.6,1074.6c5.5,1.9,161.1,2.3,167.3-1.3c2.2-1.3,3.5-24.2,4.5-51.7c0-0.3,0-0.6,0-1L551,1019v1.6
			c0,0-59.8,26.5-65.9,31.3C478.9,1057.1,474.1,1072.7,479.6,1074.6z"/>
		<path class="st1" d="M481.5,1068.4c26.4-0.6,132.2-0.3,158.2,1.3c0.3,0,0.3,0,0,0.3c-26.1,1-131.9,0-158.2-1
			C480.8,1068.8,480.8,1068.4,481.5,1068.4z"/>
		<path class="st1" d="M539.7,1019.3c10.3-1.9,22.8-0.3,30.9,7.1c0.3,0.3,0,0.6-0.3,0.6c-10.3-3.2-19.6-5.5-30.2-6.5
			C539,1020.6,539,1019.3,539.7,1019.3z"/>
		<path class="st1" d="M532.3,1023.9c10.3-1.9,22.8-0.3,30.9,7.1c0.3,0.3,0,0.6-0.3,0.6c-10.3-3.2-19.6-5.5-30.2-6.5
			C531.4,1025.2,531.4,1023.9,532.3,1023.9z"/>
		<path class="st1" d="M524.6,1028.4c10.3-1.9,22.8-0.3,30.9,7.1c0.3,0.3,0,0.6-0.3,0.6c-10.3-3.2-19.6-5.5-30.2-6.5
			C524,1029.7,524,1028.4,524.6,1028.4z"/>
		<path class="st1" d="M531,1011.6c7.4,5.8,16.7,8.1,25.4,11.3c1,0.3,1.6-0.6,1.6-1.3c0.3,0,0.3,0,0.3-0.3
			c-2.9-8.7-9-17.8-15.8-23.9c-4.2-3.6-11.9-6.1-16.1-0.6C522.3,1001.9,526.5,1008,531,1011.6z M528.1,1003.2
			c-1.9-11.3,10.3-5.5,13.5-2.6c1.9,1.9,3.9,3.9,5.5,5.8c3.5,4.2,6.4,9,9.7,13.6c-4.2-1.9-8.4-3.2-12.5-4.8
			C539.4,1013.2,529.4,1009.3,528.1,1003.2z"/>
		<path class="st1" d="M592.5,1005.4c-2.6-6.5-10.3-6.1-15.4-3.6c-8.4,3.9-16.4,11.3-21.6,18.7c0,0.3,0,0.3,0,0.3
			c-0.3,0.6,0.3,1.6,1.3,1.6c9-1,19-0.6,27.3-4.2C589.3,1016.4,595,1011.6,592.5,1005.4z M570.6,1018.7c-4.5,0.6-9,1-13.2,1.6
			c4.2-3.6,8.4-7.4,12.9-10.7c2.2-1.6,4.5-3.2,6.8-4.2c3.5-1.9,17-4.5,12.2,6.1C586.4,1016.8,575.7,1018,570.6,1018.7z"/>
		<path class="st3" d="M543.6,1019.7l60.8,6.1l60.1,5.8c0,0,121.6-158.3,129-165.7c16.7-17.1,150.2-57.5,186.6-94
			c38.6-38.4,21.9-87.2,21.9-87.2H901.2c0,0,0.3,39.4-5.1,41c-58.2,18.1-167.6,57.8-192.7,80.1
			C658.1,846.2,543.6,1019.7,543.6,1019.7z"/>
		<path class="st1" d="M562.5,1001.2c17,1.6,12.2,1,29.3,2.6c8.4,1,63,6.8,70.8,9c0.3,0,0,0.3,0,0.3c-8,0.3-62.7-6.5-71.1-7.4
			c-17-2.3-12.2-1.6-28.9-4.2C562.2,1001.6,562.2,1001.2,562.5,1001.2z"/>
		<path class="st1" d="M639.7,1029l24.4,2.3c0,0,121.6-158.3,129-165.7c16.7-17.1,150.2-57.5,186.6-94
			c38.6-38.4,21.9-87.2,21.9-87.2h-39.9l-6.4,1.6L755.2,807.7L639.7,1029z"/>
		<path class="st8" d="M680.9,1106.9c5.5,1.6,161.1-0.3,167.3-4.2c2.2-1.3,3.2-24.2,3.9-51.7c0-0.3,0-0.6,0-1
			c0-5.8,0.3-11.6,0.3-17.4c0-1,0-1.6,0-2.6c0.3-39.7-0.3-81.1-0.3-81.1l-104.2,1l3.2,80.4v3.2l0.6,16.8v1.6
			c0,0-59.2,27.5-65.3,32.6C680,1089.5,675.5,1105.3,680.9,1106.9z"/>
		<path class="st3" d="M680.9,1106.9c5.5,1.6,161.1-0.3,167.3-4.2c2.2-1.3,3.2-24.2,3.9-51.7c0-0.3,0-0.6,0-1
			c0-5.8,0.3-11.6,0.3-17.4c0-1,0-1.6,0-2.6l-101.3,0.3v3.2l0.6,16.8v1.6c0,0-59.2,27.5-65.3,32.6
			C680,1089.4,675.5,1105.3,680.9,1106.9z"/>
		<path class="st9" d="M680.9,1106.9c5.5,1.6,161.1-0.3,167.3-4.2c2.2-1.3,3.2-24.2,3.9-51.7c0-0.3,0-0.6,0-1l-100.4,0.3v1.6
			c0,0-59.2,27.5-65.3,32.6C680,1089.5,675.5,1105.3,680.9,1106.9z"/>
		<path class="st1" d="M682.5,1101.1c26.4-1,132.2-2.6,158.2-1.6c0.3,0,0.3,0,0,0.3c-26.1,1.6-131.9,2.3-158.2,1.6
			C681.9,1101.4,681.9,1101.1,682.5,1101.1z"/>
		<path class="st1" d="M740.1,1050.7c10.3-1.9,22.8-0.7,30.9,6.8c0.3,0.3,0,0.6-0.3,0.6c-10.3-3.2-19.6-5.2-30.6-5.8
			C739.1,1052,739.1,1051,740.1,1050.7z"/>
		<path class="st1" d="M732.7,1055.5c10.3-1.9,22.8-0.6,30.9,6.8c0.3,0.3,0,0.6-0.3,0.6c-10.3-3.2-19.6-5.2-30.6-5.8
			C731.7,1056.8,731.7,1055.5,732.7,1055.5z"/>
		<path class="st1" d="M725.3,1060.1c10.3-1.9,22.8-0.6,30.9,6.8c0.3,0.3,0,0.6-0.3,0.6c-10.3-3.2-19.6-5.2-30.6-5.8
			C724.3,1061.3,724.3,1060.1,725.3,1060.1z"/>
		<path class="st1" d="M731.1,1043.2c7.4,5.5,17,7.8,25.4,11c1,0.3,1.6-0.6,1.6-1.3c0.3,0,0.3-0.3,0.3-0.3
			c-2.9-8.7-9-17.8-16.1-23.6c-4.5-3.6-11.9-6.1-16.1-0.3C722.4,1033.9,726.9,1039.7,731.1,1043.2z M728.2,1034.9
			c-1.9-11.3,10.3-5.5,13.5-2.9c1.9,1.9,3.9,3.9,5.5,5.8c3.5,4.2,6.8,9,9.6,13.6c-4.2-1.6-8.4-3.2-12.5-4.8
			C739.4,1044.9,729.5,1041,728.2,1034.9z"/>
		<path class="st1" d="M792.8,1036.1c-2.6-6.5-10.6-5.8-15.4-3.2c-8,3.9-16.4,11.3-21.2,19.1c0,0.3,0,0.3,0,0.3
			c0,0.7,0.3,1.6,1.3,1.6c9-1,19-1,27.3-4.8C789.6,1047.1,795.1,1042,792.8,1036.1z M770.6,1049.7c-4.5,0.6-9,1-13.2,1.6
			c4.2-3.9,8-7.8,12.5-11c2.3-1.6,4.5-3.2,6.8-4.5c3.5-1.9,17-4.8,12.5,5.8C786.7,1047.5,776.1,1048.7,770.6,1049.7z"/>
		<path class="st3" d="M746.9,1050.7l113.5,2.6c0,0-13.8-167.4-11.3-182.2c1.3-6.8,137-26.8,180.4-72.7
			c37.6-39.4,2.9-113.7,2.9-113.7L929.6,682c0,0-3.2,31.7,3.9,51.4c0,0-160.5,38.8-178.5,74C736.3,845.2,746.9,1050.7,746.9,1050.7z
			"/>
		<path class="st1" d="M745.6,855.9c0.6-9.4,1.6-18.4,3.2-27.8c0.6-4.5,1.6-9,2.6-13.6c1-4.2,1.9-8.1,4.2-12
			c4.2-7.1,11.6-11.6,18.3-15.5c7.4-4.2,15.1-8.1,23.2-11.3c16.4-6.8,33.5-12,50.2-17.4c10.3-3.2,20.3-6.5,30.6-9.7
			c10.3-3.2,20.9-6.1,31.2-9.4c0.3,0,0.3,0.3,0,0.3c-9,2.9-18,6.5-27,9.7c-8.7,3.2-17.7,6.1-26.4,9.4c-8.7,2.9-17.4,6.1-26.4,9
			c-8,2.9-16.4,5.5-24.4,8.7c-7.7,2.9-15.4,6.5-23.2,10.3c-7.1,3.6-14.5,7.8-19.9,13.2c-6.1,6.1-7.1,15.2-8.7,23.3
			c-1.9,9-3.2,18.4-4.2,27.8c-2.3,20.4-3.5,39.7-4.5,60.4c0,1.3-0.6,2.6-0.6,1.3C743.7,893.3,744,874.6,745.6,855.9z"/>
		<path class="st1" d="M835.3,869.8c0.6-2.9,2.6-4.2,4.8-5.2c6.4-2.9,13.2-5.5,19.6-8.1c26.4-9.7,53.4-16.8,79.8-25.8
			c13.5-4.5,26.7-9.7,39.2-16.2c6.1-3.2,12.2-6.5,18.3-10c6.1-3.9,12.2-8.1,17.7-13.2c22.5-22,20.9-55.9,15.8-84.3
			c-0.6-3.9-1.3-7.8-2.2-11.6c0-0.3,0.3-0.3,0.3,0c5.5,28.1,11.3,60.1-4.5,85.9c-7.4,12-19,20-30.9,27.1
			c-12.2,7.1-25.1,12.9-38.3,18.1c-26.1,10-53.4,17.1-80.1,26.2c-6.8,2.3-13.5,4.5-20.3,7.1c-3.2,1.3-6.8,2.6-10,3.9
			c-2.9,1.3-7.7,2.6-8.7,6.1c-0.3,1.6-0.3,3.6,0,5.2c0,2.3,0.3,4.2,0.3,6.5l1,12.6c0.6,8.1,1.3,16.5,1.6,24.6
			c2.3,33,4.5,66.2,6.8,99.2c0.3,4.2,0.6,8.1,1,12.3c0,0.3-0.6,0.3-0.6,0c-2.6-33-4.8-65.9-7.1-98.9c-1.3-16.5-2.2-33-3.5-49.4
			c0-1.9-0.3-3.9-0.3-5.8C835.3,873.3,835,871.4,835.3,869.8z"/>
		<path class="st1" d="M994.6,703c0-0.3,0.3-0.3,0.3,0c-0.3,4.8-0.6,10,1,14.9c1.3,3.9,3.9,6.8,7.1,9.4c7.4,6.1,17,6.8,25.7,9
			c0.3,0,0.3,0.6,0,0.6c-9.6,0-19.9-2.3-27.7-8.4c-3.2-2.6-5.8-6.1-7.1-10.3C992.3,713.7,993.3,708.2,994.6,703z"/>
		<path class="st1" d="M751.4,1032.6c17,0,12.2-0.3,29.3-0.3c8.4,0,63.4,0.3,71.4,1.6c0.3,0,0.3,0.3,0,0.3c-7.7,1.3-63,0-71.4,0
			c-17-0.3-12.2-0.3-29.3-1C751.1,1033.2,751.1,1032.6,751.4,1032.6z"/>
		<path class="st1" d="M928.9,689.1c0.6,6.5,1,12.6,1.6,19.1c0.3,2.9,0.6,6.1,1.3,9c0.3,1.3,0.6,2.6,1.6,3.2c1,1,2.6,1.3,3.9,1.3
			c2.9,0.3,4.8-1,5.1-3.9c0.6-5.8-1.3-25.9-1.3-27.5c0-0.3,1-0.3,1,0c1.6,12.6,3.5,28.8,1,31.3c-2.9,2.9-8,3.2-10.9,0.6
			c-1.6-1.3-2.3-3.2-2.3-5.2c-0.3-2.9-0.6-5.5-0.6-8.4c-0.6-6.5-1-13.2-1.3-19.7C927.6,688.5,928.9,688.5,928.9,689.1z"/>
		<path class="st1" d="M932.1,723.7c0.3,0.6,0.3,1.6,0.3,2.3c0,0.6,0.3,1.6,0.6,2.3c0.3,0.6,0.3,1.6,0.6,2.3
			c0.3,0.6,0.3,1.6,0.6,2.3c0,0.3-0.3,0.6-0.6,0.3c-0.3-0.6-0.6-1.6-1-2.3c-0.3-0.6-0.6-1.6-0.6-2.3c-0.3-0.6-0.3-1.6-0.6-2.3
			c-0.3-0.6-0.3-1.6-0.3-2.6C930.8,723.4,931.8,723.1,932.1,723.7z"/>
		<path class="st13" d="M933.1,559.6c-3.9,19.1-42.8,69.5-80.4,98.5c-22.8,17.4-116.8,20.7-136.4,15.8c-22.2-5.5-15.8-57.8-2.9-61.4
			c16.1-4.5,95.9,4.5,118.4-8.4c5.8-3.2,39.2-23.6,66.3-45.9C918,541.5,936.7,541.5,933.1,559.6z"/>
		<path class="st13" d="M726.6,674.9c-7.7,0.3-34.1-3.9-53.1-11c-9.3-3.6-34.7-16.2-32.8-23.6c1.9-7.4,10-4.2,10-4.2
			s-10-7.1-7.1-14.2c2.9-7.1,14.8-1.9,14.8-1.9s-9.7-8.1-6.4-14.9c3.2-6.8,14.5,0.3,14.5,0.3s-9.3-6.8-4.2-11.3
			c6.1-5.5,21.9,9,32.2,12.3c2.3,0.6,48.9,11.6,48.9,11.6L726.6,674.9z"/>
		<path class="st1" d="M666.5,605.1c11.6,10.7,18.3,13.2,33.5,16.2c0.3,0,0.3,0.6,0,0.3c-15.1-1.3-24.1-3.6-34.1-16.2
			C665.5,605.1,665.8,604.8,666.5,605.1z"/>
		<path class="st1" d="M657.5,619.7c12.9,10,20.3,12.9,36,17.1c0.3,0,0,0.3,0,0.3c-15.8-2.6-24.8-5.2-36.3-16.8
			C656.8,619.7,657.1,619,657.5,619.7z"/>
		<path class="st1" d="M651.7,636.8c13.2,8.7,21.2,12.3,37,14.5c0.3,0,0.3,0.6,0,0.6c-16.1-0.6-26.4-4.8-37-14.5
			C650.7,636.8,651,636.5,651.7,636.8z"/>
		<path class="st2" d="M567.7,534.2l-16,113.6l156.7,22.3l16-113.6L567.7,534.2z"/>
		<path class="st5" d="M593.1,561.5l-8.9,63l11.5,1.6l8.9-63L593.1,561.5z"/>
		<path class="st5" d="M608.4,587.2l-5.7,40l11.5,1.6l5.7-40L608.4,587.2z"/>
		<path class="st5" d="M628.5,580.5l-7,49.6l11.5,1.6l7-49.6L628.5,580.5z"/>
		<path class="st5" d="M644.1,604.5l-4,28.1l11.5,1.6l4-28.2L644.1,604.5z"/>
		<path class="st5" d="M665.2,589.8l-6.4,45.4l11.5,1.6l6.4-45.4L665.2,589.8z"/>
		<path class="st5" d="M685.1,583.7l-7.7,54.4l11.5,1.6l7.7-54.4L685.1,583.7z"/>
		<path class="st7" d="M586.1,553.5c-1.3,11.6-2.6,23.3-3.9,35.2c-1.3,11.6-2.9,23.3-4.5,34.9l-1.3-1.6l30.2,4.2l30.2,4.5
			c10,1.6,19.9,3.2,29.9,4.8c10,1.6,19.9,3.2,29.9,5.2c-10-1-20.3-2.3-30.2-3.2c-10-1.3-20.3-2.3-30.2-3.9l-30.2-4.2l-30.2-4.5
			l-1.3-0.3l0.3-1.3c1.6-11.6,3.5-23.3,5.5-34.9C581.9,576.7,584.1,565.1,586.1,553.5z"/>
		<path class="st7" d="M581.6,559.3c1.3,0,2.6,0,3.9,0c1.3,0.3,2.6,0.3,3.5,1c-1.3,0-2.6,0-3.9,0
			C583.8,559.9,582.8,559.9,581.6,559.3z"/>
		<path class="st7" d="M580.6,565.7c1.3,0,2.6,0,3.9,0c1.3,0.3,2.6,0.3,3.5,1c-1.3,0-2.6,0-3.9,0
			C583.2,566.4,581.9,566.4,580.6,565.7z"/>
		<path class="st7" d="M579.6,572.2c1.3,0,2.6,0,3.9,0c1.3,0.3,2.6,0.3,3.5,1c-1.3,0-2.6,0-3.9,0
			C582.2,572.8,580.9,572.8,579.6,572.2z"/>
		<path class="st7" d="M578.7,578.7c1.3,0,2.6,0,3.9,0c1.3,0.3,2.6,0.3,3.5,1c-1.3,0-2.6,0-3.9,0C581.2,579.3,580,579.3,578.7,578.7
			z"/>
		<path class="st7" d="M578,585.1c1.3,0,2.6,0,3.9,0c1.3,0.3,2.6,0.3,3.5,1c-1.3,0-2.6,0-3.9,0C580.3,585.8,579,585.8,578,585.1z"/>
		<path class="st7" d="M577.1,591.6c1.3,0,2.6,0,3.9,0c1.3,0.3,2.6,0.3,3.5,1c-1.3,0-2.6,0-3.9,0C579.3,592.2,578,591.9,577.1,591.6
			z"/>
		<path class="st7" d="M576.1,598c1.3,0,2.6,0,3.9,0c1.3,0.3,2.6,0.3,3.5,1c-1.3,0-2.6,0-3.9,0C578.4,598.7,577.4,598.4,576.1,598z"
			/>
		<path class="st7" d="M575.1,604.5c1.3,0,2.6,0,3.9,0c1.3,0.3,2.6,0.3,3.5,1c-1.3,0-2.6,0-3.9,0
			C577.7,605.1,576.4,604.8,575.1,604.5z"/>
		<path class="st7" d="M574.2,611c1.3,0,2.6,0,3.9,0c1.3,0.3,2.6,0.3,3.5,1c-1.3,0-2.6,0-3.9,0C576.8,611.6,575.5,611.3,574.2,611z"
			/>
		<path class="st7" d="M573.2,617.4c1.3,0,2.6,0,3.9,0c1.3,0.3,2.6,0.3,3.5,1c-1.3,0-2.6,0-3.9,0
			C575.8,618.1,574.5,617.7,573.2,617.4z"/>
		<path class="st7" d="M619.5,556.7c4.2,0,8.4,0.3,12.5,1c4.2,0.3,8.4,1,12.2,1.6c4.2,0.6,8,1.3,12.2,1.9c4.2,0.6,8,1.6,12.2,2.6
			c-4.2,0-8.4-0.3-12.5-1c-4.2-0.3-8.4-1-12.2-1.6c-4.2-0.6-8-1.3-12.2-1.9C627.5,558.6,623.4,557.6,619.5,556.7z"/>
		<path class="st7" d="M627.9,563.8c5.1-0.3,10.3,0.3,15.4,1c5.1,0.6,10.3,1.6,15.1,3.2c-5.1,0.3-10.3-0.3-15.4-1
			C637.8,566.4,632.7,565.4,627.9,563.8z"/>
		<path class="st14" d="M575.3,629.4l-0.9,6.4l6.4,0.9l0.9-6.4L575.3,629.4z"/>
		<path class="st7" d="M587.7,631c12.5,1,25.1,2.9,37.3,4.5c12.5,1.9,24.8,3.6,37.3,6.1c-12.5-1-25.1-2.9-37.3-4.5
			C612.4,635.5,599.9,633.6,587.7,631z"/>
		<path class="st7" d="M587,634.2c7.1,0.3,14.2,1.3,21.2,2.3c7.1,1,14.2,2.3,20.9,3.9c-7.1-0.3-14.2-1.3-21.2-2.3
			C601.2,637.1,594.1,635.8,587,634.2z"/>
		<path class="st7" d="M586.7,637.4c8.7,0.6,17.4,1.6,26.1,2.9c8.7,1.3,17.4,2.6,25.7,4.5c-8.7-0.6-17.4-1.6-26.1-2.9
			C603.7,640.7,595.1,639.4,586.7,637.4z"/>
		<path class="st13" d="M754,611.3c0,0-18.3-6.8-27.3-7.8c-8.7-1-42.8,6.8-41.5,14.2c1.6,9.7,22.2,9,32.2,7.4
			c0,0,3.9,22.3,18.7,25.2C751.1,653.3,754,611.3,754,611.3z"/>
		<path class="st1" d="M686.7,620.3c7.7,7.8,20.9,4.8,30.9,3.9c0.6,0,1,0.6,1,1c2.3,9.4,8,21.6,17.4,25.5c0.3,0,0,0.6,0,0.3
			c-10.6-2.6-17.4-14.2-19-24.6C706.4,627.4,693.2,630,686.7,620.3C686.4,620.3,686.4,620.3,686.7,620.3z"/>
		<path class="st2" d="M772.3,608.1l2.6,72c0,0,60.5-5.2,83-20.7c26.4-18.1,56.9-56.5,70.8-80.1c13.8-23.6,16.4-53-25.4-26.8
			c-41.8,26.2-69.8,47.8-76.6,50.4C819.9,605.1,772.3,608.1,772.3,608.1z"/>
		<path class="st2" d="M777.7,603.5l5.8,79.8l-19,2.9l-5.1-83.7L777.7,603.5z"/>
		<path class="st1" d="M778.1,609.7c0-0.3-0.3-0.3-0.3,0c-0.3,17.8,3.2,55.2,4.5,67.5c0,0.3,0.6,0.3,0.6,0
			C782.6,664.6,778.4,615.8,778.1,609.7z"/>
		<path class="st2" d="M890.6,726.3c3.9,3.2,163.1,5.2,163.7,3.9c0.6-1-43.4-170.9-102-191.9c-9.3-3.2-33.5-1-36,2.6
			C895.1,570.3,888.1,724.4,890.6,726.3z"/>
		<path class="st1" d="M899.9,599.3c-0.3,3.9-1.3,8.1-1.9,12c-0.3-1.6-0.3-3.2-0.6-5.2c0-0.3-0.3-0.3-0.3,0c0.3,2.3,0.3,4.5,0.3,6.8
			c0,1,0,1.9,0,2.6c-0.3,2.6-0.6,4.2-0.6,7.1c0,0.3,0.3,0.6,0.3-0.3c0.6-2.6,2.6-17.4,2.9-23.3C900.3,599.3,899.9,599.3,899.9,599.3
			z"/>
		<path class="st5" d="M930.8,579l-6.1-12l-10,10.7l2.6,9l9.3,1L930.8,579z"/>
		<path class="st5" d="M926.7,587.7l7.7,105.3l-18.7,35.5l-7.4-36.5l9-105.3L926.7,587.7z"/>
		<path class="st2" d="M916.7,540.2l9,21.6l26.7-27.8l7.7,8.7c0,0-25.7,43.9-26.1,42l-9-18.7l-12.9,13.3l0.6-32.6L916.7,540.2z"/>
		<path class="st1" d="M911.6,563.1c0.3-5.5,0.3-11,1-16.2c0-0.3,0.3-0.3,0.3,0c1.3,5.2,0,25.8,0,30.7c0.6-0.6,11.9-11.6,11.9-11.3
			c1.9,2.9,8.7,16.5,9,17.8c4.2-7.1,21.6-34.6,26.4-41.4c0-0.3,0.3,0,0.3,0.3c-3.5,7.4-26.1,43.6-26.4,43.6
			c-0.3,0.3-8.7-16.5-9.7-19.7c-1.9,2.3-13.2,14.9-13.2,13.9C911.2,575.7,911.2,568.6,911.6,563.1z"/>
		<path class="st13" d="M925.7,564.8c9,1.3,22.8-13.3,27.7-24.6c0.3-0.6-1.3-8.4-3.2-18.1c-1-5.8-1.9-12.3-2.6-18.1
			c0-1.3-4.2,1.3-4.2,1.3l-7.4,2.6l-24.8,8.4c0,0,4.8,12.3,5.5,22.6c0,1,0,1.6,0,2.6v0.3C916.4,546.3,917,563.5,925.7,564.8z"/>
		<path class="st1" d="M916.7,541.2v0.3c1.3,0,2.6,0,3.9,0c25.1-2.6,25.4-34.9,25.4-34.9l-10,1.3l-24.8,8.4c0,0,4.8,12.3,5.5,22.6
			C916.7,539.6,916.7,540.5,916.7,541.2z"/>
		<path class="st13" d="M948.5,459.4c6.1,12.6,4.8,51.4-3.2,61.4c-11.6,14.2-33.5,18.7-46.3,4.2c-12.5-14.2-10-64.9-1-74.3
			C911.5,437.1,939.5,441,948.5,459.4z"/>
		<path class="st1" d="M893.8,466.2c12.9,9,30.6-4.5,30.6-4.5c4.2,10,14.2,9,14.2,9s2.6,22,8.4,22c8.7,0,11.6-30,8.7-35.9
			c-2.9-5.8-10.3-7.4-10.3-7.4s-0.6-4.5-6.1-8.7c-6.1-4.5-26.7,1.6-26.7,1.6s-1.3-3.9-5.1-7.1c-2.6-1.9-5.8-1.6-7.7,0.6
			c1,1.3,1.6,3.2,2.3,5.5c1,6.5-4.2,6.5-4.2,0.6c0-2.6,1-4.5,1.9-6.1c-2.6-3.9-6.8-5.2-9.3-2.9C885.5,436.2,882.9,458.8,893.8,466.2
			z"/>
		<path class="st1" d="M914.4,488.8c0,2.9,0.3,5.8,2.6,6.8C913.8,495.3,913.8,491.4,914.4,488.8z"/>
		<path class="st1" d="M916.7,486.2c4.2,0,4.2,8.4,0.3,8.4C913.1,494.6,913.1,486.2,916.7,486.2z"/>
		<path class="st1" d="M899,488.8c0,2.9-0.6,5.8-2.9,6.8C899,495.3,899.6,491.1,899,488.8z"/>
		<path class="st1" d="M896.7,485.9c-4.2-0.3-4.5,8.1-0.6,8.4C899.9,494.6,900.3,486.2,896.7,485.9z"/>
		<path class="st1" d="M920.2,482.4c-1.3-0.3-2.2-0.6-3.2-1.3c-1.3-0.3-2.3-0.6-3.2-1.9c-0.3-0.6-0.3-1.6,0.3-2.3
			c1.3-1,2.9-1,4.5-0.3c1.6,0.6,2.9,1.3,3.5,2.9C923.1,481.1,921.5,483,920.2,482.4z"/>
		<path class="st1" d="M893.5,481.7c1.3-0.3,2.3-0.6,3.2-1c1.3-0.3,2.2-0.3,3.2-1.6c0.6-0.6,0.3-1.6,0-2.3c-1.3-1.3-2.9-1.3-4.5-1
			c-1.6,0.3-2.9,1-3.9,2.6C890.6,480.1,892.2,482,893.5,481.7z"/>
		<path class="st1" d="M916.7,511.8c-0.6,0.6-1,1.6-1.9,1.9c-1,0.3-1.9,0-2.9,0c1,1,2.2,1.3,3.5,0.6
			C916.7,514.3,917,513.1,916.7,511.8C917,511.8,917,511.8,916.7,511.8z"/>
		<path class="st1" d="M913.8,504.3c-1.6,2.3-3.5,3.6-5.8,3.9c-1,0.3-2.2,0.3-3.2,0c-0.3,0-1,0-1.3-0.3c-0.3,0-0.3-0.3-0.6-0.6
			l0.3-5.5c-0.6,0.3-4.5,1.9-4.5,1c0.6-8.7,1.3-18.4,3.9-26.8c0-0.3,0.6-0.3,0.3,0c-0.3,8.4-1.9,16.5-2.3,24.9
			c1.3-0.3,3.2-1.3,4.2-1.3l-0.3,6.8C907.7,507.2,910.3,506.3,913.8,504.3z"/>
		<path class="st1" d="M905.7,507.9c0,0,1.9,2.3,4.5,2.9c1,0.3,1.9,0.3,2.9,0c1.9-0.6,1.9-2.6,1.6-4.2c-0.3-1.3-1-2.6-1-2.6
			S910.5,507.2,905.7,507.9z"/>
		<path class="st15" d="M910.2,510.8c1,0.3,1.9,0.3,2.9,0c1.9-0.6,1.9-2.6,1.6-4.2C912.5,506.9,910.2,508.5,910.2,510.8z"/>
		<path class="st5" d="M893.8,501.1c-3.9,0-7.1-4.8-7.1-10.7c0-5.8,3.2-10.7,7.1-10.7c3.9,0,7.1,4.8,7.1,10.7
			C900.6,496.3,897.7,501.1,893.8,501.1z M893.8,481.4c-3.2,0-5.5,4.2-5.5,9c0,4.8,2.6,9,5.5,9c2.9,0,5.5-4.2,5.5-9
			C899.3,485.6,896.7,481.4,893.8,481.4z"/>
		<path class="st5" d="M917.3,501.1c-5.5,0-10-4.8-10-10.7c0-5.8,4.5-10.7,10-10.7s10,4.8,10,10.7
			C927.3,496.3,922.8,501.1,917.3,501.1z M917.3,481.4c-4.5,0-8.4,4.2-8.4,9c0,4.8,3.9,9,8.4,9c4.5,0,8.4-4.2,8.4-9
			C925.7,485.6,922.1,481.4,917.3,481.4z"/>
		<path class="st5" d="M908,489.5c-5.1-1.9-7.7,0-7.7,0l-1-1c0,0,2.9-2.3,9,0L908,489.5z"/>
		<path class="st5" d="M926.6,489.5l-0.3-1.3c1-0.3,22.5-4.2,24.8-4.2c2.6-0.3,8.4,3.2,9,3.6l-0.6,1.3c-1.6-1-6.1-3.2-8-3.2
			C949.5,485.3,934.4,488.2,926.6,489.5z"/>
		<path class="st13" d="M944,494c0,0,7.1-13.6,12.9-11c5.8,2.6,1.9,21-4.2,24.2c-6.1,3.2-9.3-2.3-9.3-2.3L944,494z"/>
		<path class="st1" d="M955.6,488.2c-4.2,2.6-6.1,7.1-7.1,12c1.3-1.9,2.9-2.9,5.5-1.6v0.3c-1.9,0-3.2,0.3-4.2,1.9
			c-0.6,1.3-1.3,2.6-1.6,3.9c0,0.3-1,0.3-1-0.3C945.9,498.5,949.2,489.8,955.6,488.2z"/>
		<path class="st13" d="M898,701.1c0,0-28,4.5-45,4.8c-9.6,0.3-26,1.9-33.1,5.5c-10.3,5.2-50.8,33-44.4,43
			c5.8,9,37.6-19.4,37.6-19.4s-34.4,25.8-25.4,35.2c9,9.7,40.5-27.1,40.5-27.1s-34.7,27.5-23.8,35.5c8.4,6.5,38.6-25.5,38.6-25.5
			s-29.9,23.6-21.6,30.7c9,7.8,38.9-20,38.9-20c23.8,13.9,46,5.8,57.9,1.9C921.5,765.1,898,701.1,898,701.1z"/>
		<path class="st1" d="M822.4,726.6c-15.8,10.7-29,24.9-33.1,31.7c-0.6,1-1,1.6-1,1.6C795.7,752.5,818.9,729.9,822.4,726.6
			C822.8,726.6,822.8,726.6,822.4,726.6z"/>
		<path class="st1" d="M836.6,738.9c-12.9,6.5-24.8,20.4-29.3,24.6c-0.3,0.3,0,0.3,0.3,0C812.1,759.6,831.4,743.1,836.6,738.9z"/>
		<path class="st1" d="M847.5,750.2c-12.2,6.8-19,16.2-20.9,18.7c-0.3,0.3,0,0.3,0.3,0C834.3,762.2,838.8,758,847.5,750.2
			C847.8,750.2,847.8,749.9,847.5,750.2z"/>
		<path class="st13" d="M959.8,554.1c-3.2,19.4,8.4,118.9,7.1,122.4c-1.3,3.6-80.7,28.8-95.5,32.6c-10.3,2.6,17,60.7,36.3,58.5
			c30.2-3.6,109.7-24.9,122.5-49.8c13.2-24.9-28.9-118.9-38.6-138C982.3,560.6,962.7,537.9,959.8,554.1z"/>
		<path class="st2" d="M963.3,674.9c5.1-5.2-6.1-78.2-5.5-106c0.3-27.8,8-29.4,28-1c19.9,28.1,56.9,121.2,49.2,144.7
			c-7.7,23.6-42.8,40.1-107.1,54.9l-35.7-70.8C891.9,696.6,959.4,678.8,963.3,674.9z"/>
		<path class="st1" d="M958.1,604.8c0-0.3-0.3-0.3-0.3,0c0.3,1.6,1,7.1,1.6,14.2c-0.3-0.6-0.3-1-0.6-1.6c-0.6-1.6-1.6-3.2-2.2-4.8
			c0-0.3-0.6,0-0.3,0.3c1,1.6,1.6,3.2,1.9,4.8c0.3,1,0.6,1.6,1,2.6c0.3,0.6,0.3,1.3,0.6,1.9c1.9,19.4,4.5,48.5,3.2,51
			c-2.9,3.2-62.7,21-68.8,22.9c-0.3,0,0,0.6,0,0.3c6.8-1.9,64.7-16.8,69.8-21.6C968.4,670.7,958.8,611.6,958.1,604.8z"/>
		<path class="st1" d="M1036.9,691.7c-1.9-17.4-9-33.6-15.4-49.8c-1.9-4.8-3.9-9.7-5.8-14.5c-1.9-4.8-4.2-9.7-5.8-14.5
			c0-0.3-0.6,0-0.3,0.3c1.9,4.2,3.2,8.7,4.8,13.2c1.3,3.9,2.9,8.1,4.2,12c2.9,8.1,6.1,16.2,9,23.9c2.9,7.8,5.5,15.5,6.8,23.6
			c1.6,8.1,2.3,16.8,0,24.9c-2.2,8.4-8,14.5-14.1,20.4c-0.3,0.3,0,0.6,0.3,0.6c5.8-4.2,10.6-10,13.5-16.5
			C1037.6,708.2,1037.6,699.8,1036.9,691.7z"/>
		<path class="st2" d="M877.7,696.6l22.8-4.5l33.8,77.2l-19,6.5L877.7,696.6z"/>
		<path class="st1" d="M902.8,697.2c0-0.3-0.3,0-0.3,0.3c5.5,16.8,23.8,56.5,28.9,67.5c0.3,0.3,1,0,0.6-0.3
			C927.9,753.1,905.4,703,902.8,697.2z"/>
		<path class="st1" d="M900.6,691.7c-0.3,0-0.6,0-1,0c-0.3,0-1,0.3-1.3,0.3c-0.6,0.3-1.6,0.3-2.3,0.6c-1.6,0.3-3.5,1-5.1,1.3
			c-0.3,0-0.3,0.6,0,0.3c1.6-0.3,3.2-0.6,5.1-1c0.6-0.3,1.6-0.3,2.6-0.6c0.3,0,1-0.3,1.3-0.3C900.3,692.4,900.6,692.4,900.6,691.7
			C900.9,692,900.9,691.7,900.6,691.7z"/>
		<path class="st12" d="M359.6,846.5l5.8,35.5l40.2,217.4h6.4L382.8,882l-4.2-35.5H359.6z"/>
		<path class="st1" d="M378.6,846.5h-19l5.8,35.5h17.4L378.6,846.5z"/>
		<path class="st12" d="M233.5,1099.5h6.4L280.2,882l5.8-35.5h-19l-4.2,35.5L233.5,1099.5z"/>
		<path class="st1" d="M267,846.5l-4.2,35.5h17.4l5.8-35.5H267z"/>
		<path class="st12" d="M113.2,1099.5h6.4L159.9,882l6.1-35.5h-19.3l-4.2,35.5L113.2,1099.5z"/>
		<path class="st1" d="M142.5,882h17.4l6.1-35.5h-19.3L142.5,882z"/>
		<path class="st12" d="M123.5,863.3h294V832h-110l-37-215.8H134.8L123.5,863.3z"/>
		<path class="st6" d="M123.5,863.3h16.1l10.3-247.2h-15.1L123.5,863.3z"/>
		<path class="st1" d="M249,446.5c-15.8,10.7-35.4,105.7-42.1,115.7c-4.8,7.1-10.9,14.2-10.6,18.4c0.3,3.9,17.4,23.9,49.5,30
			c32.2,6.1,64-9,67.2-13.2c3.2-4.2-5.1-18.1-4.8-30.7c0.3-12.6,11.6-81.1,4.5-101.5C304.9,442.3,270.5,432,249,446.5z"/>
		<path class="st1" d="M315.2,593.5c-3.5-8.4-5.1-16.8-4.8-25.9c0.3-10,1.6-20,2.6-30c1.3-10.3,2.3-21,3.5-31.3
			c1-9.4,2.3-18.7,0.6-27.8c-1.6-9-5.5-17.4-11.3-24.2h-0.3c5.5,7.1,9,15.5,10.6,24.2c1.6,10,0,20-1,30c-1.3,10.3-2.3,20.7-3.5,31
			c-1,9.4-2.3,19.1-2.3,28.4c0,8.7,0.6,18.4,5.5,26.2C314.9,594.2,315.2,593.8,315.2,593.5z"/>
		<path class="st1" d="M251.9,445.9c-8.4,4.5-12.2,13.2-15.4,22c-4.5,11.6-8.7,23.3-12.2,35.2c-3.9,12.3-7.4,24.6-11.3,36.8
			c-3.9,12.3-9.6,22.6-16.7,33.3c-0.3,0.3,0,0.6,0.3,0.3c15.4-18.1,19.9-42.3,27-64.3c3.9-12.3,8-24.2,12.2-36.5
			C239.3,462.7,242.9,451.7,251.9,445.9z"/>
		<path class="st1" d="M259.3,442.6c-17,6.8-24.1,26.2-29.6,42.6c-6.4,19.7-11.3,39.7-17,59.4c-3.2,11.3-6.1,23.3-13.5,32.6
			c-0.3,0.3,0.3,0.6,0.3,0.3c5.5-6.8,8.4-14.9,10.9-23.3c3.2-9.7,5.8-19.7,8.7-29.7c5.5-19.7,10.3-40.1,19-58.8
			C242.5,456.5,249.3,446.8,259.3,442.6C259.6,442.6,259.6,442.6,259.3,442.6z"/>
		<path class="st16" d="M463.8,820c-7.1,15.5-15.8,32.6-25.1,49.8c-35.7,64.9-82.3,132.5-82.3,132.5l-83.6-41.4
			c0,0,28.6-52.3,51.1-96.9c3.5-7.4,7.4-14.5,10.3-21.3c10-21.3,16.7-37.8,14.8-40.4c-7.1-9-93.6,1.3-129.9-34.9
			c-38.6-38.4-9-93.4-9-93.4h100.7c0,0,1.6,12.9,5.8,16.5c2.9,2.3,13.8,6.1,28.6,10.7c28,8.7,69.8,20.7,99.4,34.9
			c14.2,6.8,25.4,13.9,31.5,21.6C483.4,766.4,477,790.6,463.8,820z"/>
		<path class="st16" d="M396.3,1097.8c-5.8-0.6-148.9-72.4-152.5-78.5c-0.3-0.6,5.8-13.9,14.5-31.7c19.9-40.4,59.5-108.9,59.5-108.9
			l86.2,48.8l-47.3,90.1c0,0,15.8,19.4,28.9,35.9c8,10,14.8,19.1,16.1,21.6C404.6,1082.7,402.1,1098.8,396.3,1097.8z"/>
		<path class="st9" d="M396.3,1097.8c-5.8-0.6-148.9-72.4-152.5-78.5c-0.3-0.6,5.8-13.9,14.5-31.7c31.8,25.2,120.6,84,127.1,77.5
			c2.6-2.6,1.9-7.1,0-11.6c8,10,14.8,19.1,16.1,21.6C404.6,1082.7,402.1,1098.8,396.3,1097.8z"/>
		<path class="st1" d="M463.8,820c-7.1,15.5-15.8,32.6-25.1,49.8l-114.8-5.8c3.5-7.4,7.4-14.5,10.3-21.3
			c10-21.3,16.7-37.8,14.8-40.4c-7.1-9-93.6,1.3-129.9-34.9c-38.6-38.4-9-93.4-9-93.4h100.7c0,0,1.6,12.9,5.8,16.5
			c2.9,2.3,13.8,6.1,28.6,10.7L463.8,820z"/>
		<path class="st9" d="M444.8,735.3c-9.6,7.4-16.1,23.6-16.1,23.6c-62.1,21-77.8,45.6-79.8,43c-7.1-9-93.6,1.3-129.9-34.9
			c-38.6-38.4-9-93.4-9-93.4h100.7c0,0,1.6,12.9,5.8,16.5C324.9,696.9,399.2,713.4,444.8,735.3z"/>
		<path class="st16" d="M575.7,1112.1c-5.5,1.6-165-10-170.8-14.2c-0.6-0.3,0-14.9,1.3-34.9c2.9-44.9,9-117.6,9-117.6l102.6,6.1
			l-9.7,101.4c0,0,22.2,11.6,40.2,22c11.3,6.1,20.9,12,23.2,13.9C577.6,1094.6,581.5,1110.8,575.7,1112.1z"/>
		<path class="st9" d="M575.7,1112.1c-5.5,1.6-165-10-170.8-14.2c-0.6-0.3,0-14.9,1.3-34.9c38.9,11,143.5,31.3,147,23.3
			c1.3-3.2-1-7.1-4.5-11c11.3,6.1,20.9,12,23.2,13.9C577.6,1094.6,581.5,1110.8,575.7,1112.1z"/>
		<path class="st16" d="M510.4,1033.9l-101.3-3.9c0,0,12.5-157,2.9-167.7c-4.8-5.5-38.3-11.3-77.8-20h-0.3
			c-14.8-3.2-30.2-6.8-45.3-11c-39.9-10.7-78.2-24.6-95.5-43.9c-36.3-40.4,0-113.7,0-113.7h102.9c0,0,2.6,32-5.5,51.4
			c0,0,75.6,11.3,139.3,32c36,11.6,68.2,26.5,80.7,44.3C534.9,835.8,510.4,1033.9,510.4,1033.9z"/>
		<path class="st9" d="M429.7,757c-53.1,19.7-95.5,85.6-95.5,85.6h-0.3l-45.3-11c-39.9-10.7-78.2-24.6-95.5-43.9
			c-36.3-40.4,0-113.7,0-113.7h102.9c0,0,2.6,32-5.5,51.4C290.4,725,366,736,429.7,757z"/>
		<path class="st1" d="M478.9,776.4c-11.6-5.8-23.8-10.7-36-15.5c-11.9-4.5-24.1-8.4-36.3-11.6c-7.1-1.9-14.5-3.2-21.6-4.8
			c-0.3,0-0.3,0.3,0,0.3c25.4,5.2,49.9,15.2,74,24.6c6.8,2.6,13.2,5.2,19.9,7.4C478.9,777,479.2,776.4,478.9,776.4z"/>
		<path class="st1" d="M416.2,877.5c-0.3-4.5-0.6-10-2.9-13.9c-1.9-3.2-5.1-4.2-8.7-5.2c-0.3,0-0.3,0.3,0,0.3c3.5,1.6,7.1,3.6,8,7.4
			c1,4.2,1.3,10.7,1.6,15.2c0.6,9.4,1.3,18.7,1,28.1c0,0.6,1,0.6,1,0C416.5,898.8,416.8,888.2,416.2,877.5z"/>
		<path class="st16" d="M280.2,671.1c9.3,10.3,23.8,19.4,38.9,27.1c18,9,58.5,27.8,61.8,29.1c7.7,2.6,35.4-50.7,31.2-58.5
			c-1-1.9-91-31.3-93.3-34.9c-2.2-3.6-11.3-28.4-24.4-63c-8.7-22.9-26.7-36.5-28.6-5.2C264.1,588,268.6,658.5,280.2,671.1z"/>
		<path class="st16" d="M364.8,718.6c1,0.6,14.2,11.3,22.5,15.8c6.4,3.6,24.8,13.2,29.6,6.5c3.2-4.5-7.1-11.6-14.2-16.5
			c-3.9-2.6-8-8.1-6.1-10.7c3.2-4.2,12.9,2.9,19,8.7c11.9,11,26.7,29.4,36.7,24.2c3.9-1.9,1.3-7.4-3.2-13.2
			c7.4,7.4,15.8,13.9,19.9,12c2.6-1,2.9-3.2,2.2-6.1c2.6,1.6,4.8,1.9,6.8,0.3c3.5-2.3,3.2-7.1,1-12.3c1,0,1.9-0.3,2.9-1
			c8-7.8-15.8-40.7-25.7-45.6c-28.6-14.2-61.4-18.7-61.4-18.7C380.9,669.1,364.8,718.2,364.8,718.6z"/>
		<path class="st1" d="M421.4,707.2c11.3,6.1,19.3,13.6,28,27.1c0.3,0.3,0.6,0,0.3-0.3c-7.4-13.9-13.2-20.4-28.3-27.5
			C421.1,706,420.8,706.9,421.4,707.2z"/>
		<path class="st1" d="M434.3,696.6c19.6,12,26.7,28.8,36.7,42.6c0,0.3,0.3,0,0.3-0.3c-8.7-14.2-13.2-29.7-36.3-43.3
			C434.3,695.3,433.6,695.9,434.3,696.6z"/>
		<path class="st1" d="M447.8,688.2c15.4,9.7,22.2,24.2,30.6,38.5c0.3,0.3,0.6,0,0.6-0.3c-7.1-15.5-14.2-30.4-30.6-38.4
			C447.1,687.5,446.8,687.9,447.8,688.2z"/>
		<path class="st5" d="M399.2,656.5L366,721.5l-1.3,2.3c0,0-76.6-35.2-87.8-53.6c-0.3-0.3-0.3-0.6-0.3-1c-3.2-6.8-5.8-19.1-8-33.3
			c-3.2-24.6-4.8-54.9-4.8-73.7c0-28.1,19.3-17.1,27.3,0c8,17.1,26.4,68.2,28.9,70.4C322.6,635.2,399.2,656.5,399.2,656.5z"/>
		<path class="st1" d="M357,708.9c1.3-2.6,2.3-5.2,3.5-7.4c2.6-5.5,4.8-10.7,7.4-16.2c2.3-5.2,4.8-10.3,7.4-15.8
			c2.6-5.5,4.8-11.3,7.4-16.5c0-0.3-0.3-0.6-0.3-0.3c-2.6,5.2-5.5,10.3-8,15.8c-2.6,5.2-5.1,10.7-7.7,15.8
			c-2.6,5.2-4.8,10.3-7.1,15.8c-1.3,2.6-2.2,5.5-3.5,8.4c-1,2.6-2.6,5.2-2.9,7.8c0,0.3,0.3,0.3,0.6,0.3
			C355.1,714.4,356.1,711.4,357,708.9z"/>
		<path class="st1" d="M393,658.8c-0.6-0.6-1.3-0.6-1.9-1c-0.6-0.3-1.3-0.6-2.2-1c-1.3-0.6-2.9-1-4.2-1.6c-0.3,0-0.3,0.3-0.3,0.3
			c1.3,0.6,2.9,1.3,4.2,1.9c0.6,0.3,1.3,0.6,1.9,1c0.6,0.3,1.3,0.6,2.3,0.6C393,659.4,393.4,659.1,393,658.8z"/>
		<path class="st1" d="M387.3,670.7c-0.6-0.6-1.3-0.6-1.9-1c-0.6-0.3-1.3-0.6-2.2-1c-1.3-0.6-2.9-1-4.2-1.6c-0.3,0-0.3,0.3-0.3,0.3
			c1.3,0.6,2.9,1.3,4.2,1.9c0.6,0.3,1.3,0.6,1.9,1c0.6,0.3,1.3,0.6,2.2,0.6C387.6,671.4,387.6,671.1,387.3,670.7z"/>
		<path class="st1" d="M381.8,682.7c-0.6-0.6-1.3-0.6-1.9-1c-0.6-0.3-1.3-0.6-2.2-1c-1.3-0.6-2.9-1-4.2-1.6c-0.3,0-0.3,0.3-0.3,0.3
			c1.3,0.6,2.9,1.3,4.2,1.9c0.6,0.3,1.3,0.6,1.9,1c0.6,0.3,1.3,0.6,2.3,0.6C381.8,683.3,382.1,683,381.8,682.7z"/>
		<path class="st1" d="M376.3,694.6c-0.6-0.6-1.3-0.6-1.9-1c-0.6-0.3-1.3-0.6-2.2-1c-1.3-0.6-2.9-1-4.2-1.6c-0.3,0-0.3,0.3-0.3,0.3
			c1.3,0.6,2.9,1.3,4.2,1.9c0.6,0.3,1.3,0.6,1.9,1c0.6,0.3,1.3,0.6,2.3,0.6C376.3,695.3,376.3,695,376.3,694.6z"/>
		<path class="st1" d="M370.5,706.6c-0.6-0.6-1.3-0.6-1.9-1c-0.6-0.3-1.3-0.6-2.2-1c-1.3-0.6-2.9-1-4.2-1.6c-0.3,0-0.3,0.3-0.3,0.3
			c1.3,0.6,2.9,1.3,4.2,1.9c0.6,0.3,1.3,0.6,1.9,1c0.6,0.3,1.3,0.6,2.2,0.6C370.5,707.2,370.9,706.6,370.5,706.6z"/>
		<path class="st1" d="M365,718.5c-0.6-0.6-1.3-0.6-1.9-1c-0.6-0.3-1.3-0.6-2.2-1c-1.3-0.6-2.9-1-4.2-1.6c-0.3,0-0.3,0.3-0.3,0.3
			c1.3,0.6,2.9,1.3,4.2,1.9c0.6,0.3,1.3,0.6,1.9,1c0.6,0.3,1.3,0.6,2.2,0.6C365,719.2,365,718.5,365,718.5z"/>
		<path class="st4" d="M280.1,674.3c-0.6-1.6-0.6-2.9-0.6-4.5c0-1.6,0.3-2.9,0.6-4.5c0.6,1.6,0.6,2.9,0.6,4.5
			C280.8,671.1,280.8,672.7,280.1,674.3z"/>
		<path class="st4" d="M314.9,671.4c1.6-0.6,2.9-0.6,4.5-0.6c1.6,0,2.9,0.3,4.5,0.6c-1.6,0.6-2.9,0.6-4.5,0.6
			C317.8,672.3,316.2,672,314.9,671.4z"/>
		<path class="st4" d="M302,612.3c1.6-0.6,2.9-0.6,4.5-0.6c1.6,0,2.9,0.3,4.5,0.6c-1.6,0.6-2.9,0.6-4.5,0.6
			C304.9,612.9,303.6,612.9,302,612.3z"/>
		<path class="st4" d="M334.5,690.4c1.6-0.6,2.9-0.6,4.5-0.6c1.6,0,2.9,0.3,4.5,0.6c-1.6,0.6-2.9,0.6-4.5,0.6
			C337.7,691.1,336.1,691.1,334.5,690.4z"/>
		<path class="st4" d="M282.7,633.6c-1.6-0.6-2.6-1.6-3.9-2.6c-1-1-1.9-2.3-2.6-3.9c1.6,0.6,2.6,1.6,3.9,2.6
			C281.1,631,282.1,632.3,282.7,633.6z"/>
		<path class="st4" d="M356.1,714.7c-1.6-0.6-2.6-1.6-3.9-2.6c-1-1-1.9-2.3-2.6-3.9c1.6,0.6,2.6,1.6,3.9,2.6
			C354.4,712.1,355.4,713.4,356.1,714.7z"/>
		<path class="st4" d="M348,655.9c-1.6-0.6-2.6-1.6-3.9-2.6c-1-1-1.9-2.3-2.6-3.9c1.6,0.6,2.6,1.6,3.9,2.6
			C346.4,653,347.4,654.3,348,655.9z"/>
		<path class="st4" d="M309.7,644.2c-0.6,1.6-1.6,2.6-2.6,3.9c-1,1-2.2,1.9-3.9,2.6c0.6-1.6,1.6-2.6,2.6-3.9
			C307.2,645.9,308.1,644.9,309.7,644.2z"/>
		<path class="st4" d="M370.8,670.1c-0.6,1.6-1.6,2.6-2.6,3.9c-1,1-2.2,1.9-3.9,2.6c0.6-1.6,1.6-2.6,2.6-3.9
			C368.3,671.7,369.5,670.7,370.8,670.1z"/>
		<path class="st4" d="M302,612.3c1.6-0.6,2.9-0.6,4.5-0.6c1.6,0,2.9,0.3,4.5,0.6c-1.6,0.6-2.9,0.6-4.5,0.6
			C304.9,612.9,303.6,612.9,302,612.3z"/>
		<path class="st4" d="M291.4,568c-1.6-0.6-2.6-1.6-3.9-2.6c-1-1-1.9-2.3-2.6-3.9c1.6,0.6,2.6,1.6,3.9,2.6
			C289.8,565.1,290.8,566.4,291.4,568z"/>
		<path class="st4" d="M293.3,587.7c-0.6,1.6-1.6,2.6-2.6,3.9c-1,1-2.2,1.9-3.9,2.6c0.6-1.6,1.6-2.6,2.6-3.9
			C290.8,589.3,292.1,588.3,293.3,587.7z"/>
		<path class="st1" d="M366,721.5l-1.3,2.3c0,0-76.6-35.2-87.8-53.6c-0.3-0.3-0.3-0.6-0.3-1c-3.2-6.8-5.8-19.1-8-33.3L366,721.5z"/>
		<path class="st16" d="M252.5,546c0.3,2.6,11.6,19.4,23.2,19.4c3.9,0,4.5-20.4,4.5-20.4l0.3-1.6l5.8-21l-23.8-17.1l-3.5-2.3
			c0,0-1.3,5.8-2.6,12.9c0,0.3,0,0.6-0.3,1c0,0.3-0.3,0.6-0.3,1.3c-0.3,1-0.3,2.3-0.6,3.2c0,1-0.3,1.6-0.3,2.6c0,1-0.3,1.6-0.3,2.6
			C252.8,535.7,252.2,545,252.5,546z"/>
		<path class="st1" d="M256.1,516.3c5.1,17.1,18.3,24.6,24.4,27.1l5.8-21l-23.8-17.1l-3.5-2.3C258.6,503.4,257.3,509.2,256.1,516.3z
			"/>
		<path class="st16" d="M316.2,490.1c1.6,37.8-20.6,43.3-28.9,43.6c-7.4,0.3-32.5,0.6-38.3-37.2c-5.8-37.8,11.3-50.4,28.3-52
			C294.3,442.9,314.2,452.3,316.2,490.1z"/>
		<path class="st1" d="M310.4,483.7c-1,0-1.6-0.3-2.6-0.3c-1-0.3-1.9-0.3-2.6-1c-0.3-0.3-0.3-1.3,0-1.6c1-1,1.9-1,3.2-1
			c1.3,0.3,2.2,0.6,3.2,1.6C312.7,482.4,311.7,484,310.4,483.7z"/>
		<path class="st1" d="M284.4,483.3c1,0,1.6-0.3,2.6-0.6c1-0.3,1.9-0.3,2.6-1c0.3-0.3,0.3-1.3,0-1.6c-1-1-2.3-1-3.2-0.6
			c-1.3,0.3-2.2,0.6-2.9,1.9C282.1,482,283.4,483.3,284.4,483.3z"/>
		<path class="st1" d="M290.8,493.7C290.8,493.3,290.5,493.7,290.8,493.7c0,2.9-0.3,5.8-2.6,6.8
			C291.1,499.8,291.4,495.9,290.8,493.7z"/>
		<path class="st1" d="M288.5,491.1c-4.2,0-4.2,8.1-0.3,8.4C292.1,499.5,291.7,491.1,288.5,491.1z"/>
		<path class="st1" d="M286.6,491.4c-0.6,0.3-1.3,1.3-2.3,1.3c-1,0-1.9-0.6-2.6-1.6c0,1.6,0.6,3.2,2.3,3.6c1.6,0.3,2.6-1.3,2.9-2.9
			C287.3,491.7,286.9,491.1,286.6,491.4z"/>
		<path class="st1" d="M305.3,492.7c0,2.9,0.3,5.8,2.9,6.8C304.9,499.2,304.6,495.3,305.3,492.7z"/>
		<path class="st1" d="M307.5,490.1c4.2-0.3,4.5,8.1,0.6,8.4C304.3,498.8,304,490.4,307.5,490.1z"/>
		<path class="st1" d="M309.1,490.8c0.6,0.3,1.3,1.3,2.3,1.3c1,0,1.6-1,2.2-1.9c0,1.6-0.3,3.2-1.9,3.6c-1.3,0.3-2.6-1-2.9-2.6
			C308.8,491.1,308.8,490.4,309.1,490.8z"/>
		<path class="st1" d="M290.8,514.7c0.6,0.6,1.3,1.6,2.3,1.6s1.9-0.3,2.9-0.6c-0.6,1-2.2,1.6-3.2,1.3
			C291.1,516.9,290.8,516,290.8,514.7C290.5,514.7,290.5,514.7,290.8,514.7z"/>
		<path class="st1" d="M301.4,505.3c0,0,0.6,3.9,0.6,5.8c0,0.3-0.3,0.3-1,0.3c-3.2,0.6-6.4-0.3-8.4-2.9c0-0.3,0-0.3,0.3-0.3
			c2.6,1.6,5.1,2.3,8,2.3c0-0.6-1.3-6.5-1-6.5c1,0,2.9,0.6,4.2,1c-1-8.1-3.2-15.8-4.2-23.9c0-0.3,0.3-0.3,0.3,0
			c2.9,8.1,4.5,17.1,5.8,25.5C305.9,506.9,302,505.6,301.4,505.3z"/>
		<path class="st1" d="M251.9,495.6c3.5-1,5.8-11.3,5.8-11.3s16.1-1,26.7-11.3c7.7-7.4,11.9-14.9,11.9-14.9s3.9,7.1,8.7,12.3
			c4.5,4.8,10,9,10,9s0.6-16.5-4.8-22.9c-8-9.4-23.2-20-44.1-10.7c0,0-15.1,6.5-19,19.1C243.2,477.5,246.7,496.9,251.9,495.6z"/>
		<path class="st16" d="M255.1,496.6c0,0-7.7-12.3-13.2-9.4c-5.5,2.6,0,20,6.1,22.6c6.1,2.6,8.7-3.2,8.7-3.2L255.1,496.6z"/>
		<path class="st1" d="M243.8,492.1C243.5,492.1,243.5,492.1,243.8,492.1c4.2,2.3,6.4,6.5,8,10.7c-1.3-1.6-2.9-2.6-5.1-1.3v0.3
			c1.9-0.3,3.2,0,4.2,1.6c1,1,1.3,2.3,1.9,3.6c0.3,0.3,1,0.3,0.6-0.3C253.8,500.8,249.6,492.7,243.8,492.1z"/>
		<path class="st4" d="M251.2,507.9c-6.4-1.3-8.4,8.7-1.9,10C255.7,518.9,257.6,508.9,251.2,507.9z"/>
		<path class="st5" d="M321.3,687.2c-2.6,5.8-41.2,21-83.3,18.4c-28-1.6-53.7-9.4-58.5-11.6c0,0,28.3-101.8,34.4-114
			c5.8-11.6,13.5-22.3,21.9-29.4c3.2-2.9,6.4-4.8,10-6.8c2.2-3.6,2.2-13.9,3.9-14.2c1.6-0.6,33.1,12.3,33.8,12.9
			c0.3,1,0.3,7.8,0,9.4c2.2,2.3,33.1,43.3,35.1,56.2c2.2,15.2-7.7,29.7-7.7,29.7L321.3,687.2z"/>
		<path class="st4" d="M280.2,674.3c-0.6-1.6-0.6-2.9-0.6-4.5c0-1.6,0.3-2.9,0.6-4.5c0.6,1.6,0.6,2.9,0.6,4.5
			C280.8,671,280.8,672.7,280.2,674.3z"/>
		<path class="st4" d="M262.5,609.7c-0.6-1.6-0.6-2.9-0.6-4.5c0-1.6,0.3-2.9,0.6-4.5c0.6,1.6,0.6,2.9,0.6,4.5
			C263.4,606.8,263.1,608.4,262.5,609.7z"/>
		<path class="st4" d="M224.2,587c-0.6-1.6-0.6-2.9-0.6-4.5c0-1.6,0.3-2.9,0.6-4.5c0.6,1.6,0.6,2.9,0.6,4.5
			C224.9,584.1,224.9,585.4,224.2,587z"/>
		<path class="st4" d="M220.7,661.7c-0.6-1.6-0.6-2.9-0.6-4.5c0-1.6,0.3-2.9,0.6-4.5c0.6,1.6,0.6,2.9,0.6,4.5
			C221.3,658.8,221,660.1,220.7,661.7z"/>
		<path class="st4" d="M246.4,649.4c1.6-0.6,2.9-0.6,4.5-0.6c1.6,0,2.9,0.3,4.5,0.6c-1.6,0.6-2.9,0.6-4.5,0.6
			C249.3,650,247.7,649.7,246.4,649.4z"/>
		<path class="st4" d="M213.9,611.3c1.6-0.6,2.9-0.6,4.5-0.6c1.6,0,2.9,0.3,4.5,0.6c-1.6,0.6-2.9,0.6-4.5,0.6
			C216.8,611.9,215.2,611.9,213.9,611.3z"/>
		<path class="st4" d="M258,565.4c1.6-0.6,2.9-0.6,4.5-0.6c1.6,0,2.9,0.3,4.5,0.6c-1.6,0.6-2.9,0.6-4.5,0.6
			C260.9,566,259.6,566,258,565.4z"/>
		<path class="st4" d="M210.4,690.4c1.6-0.6,2.9-0.6,4.5-0.6c1.6,0,2.9,0.3,4.5,0.6c-1.6,0.6-2.9,0.6-4.5,0.6
			C213.3,691.1,211.7,691.1,210.4,690.4z"/>
		<path class="st4" d="M302.1,612.2c1.6-0.6,2.9-0.6,4.5-0.6c1.6,0,2.9,0.3,4.5,0.6c-1.6,0.6-2.9,0.6-4.5,0.6
			C304.9,612.9,303.7,612.9,302.1,612.2z"/>
		<path class="st4" d="M273.1,697.9c1.6-0.6,2.9-0.6,4.5-0.6c1.6,0,2.9,0.3,4.5,0.6c-1.6,0.6-2.9,0.6-4.5,0.6
			C276.3,698.5,274.7,698.5,273.1,697.9z"/>
		<path class="st4" d="M254.1,690.4c-1.6-0.6-2.6-1.6-3.9-2.6c-1-1-1.9-2.3-2.6-3.9c1.6,0.6,2.6,1.6,3.9,2.6
			C252.5,687.8,253.5,688.8,254.1,690.4z"/>
		<path class="st4" d="M206.5,639.1c-1.6-0.6-2.6-1.6-3.9-2.6c-1-1-1.9-2.3-2.6-3.9c1.6,0.6,2.6,1.6,3.9,2.6
			C204.9,636.5,205.9,637.8,206.5,639.1z"/>
		<path class="st4" d="M282.7,633.6c-1.6-0.6-2.6-1.6-3.9-2.6c-1-1-1.9-2.3-2.6-3.9c1.6,0.6,2.6,1.6,3.9,2.6
			C281.1,631,282.1,632.3,282.7,633.6z"/>
		<path class="st4" d="M291.4,568c-1.6-0.6-2.6-1.6-3.9-2.6c-1-1-1.9-2.3-2.6-3.9c1.6,0.6,2.6,1.6,3.9,2.6
			C289.8,565.1,290.8,566.4,291.4,568z"/>
		<path class="st4" d="M249.6,590.9c-1.6-0.6-2.6-1.6-3.9-2.6c-1-1-1.9-2.3-2.6-3.9c1.6,0.6,2.6,1.6,3.9,2.6
			C248,588,249,589.3,249.6,590.9z"/>
		<path class="st4" d="M308.2,692.4c-1.6-0.6-2.6-1.6-3.9-2.6c-1-1-1.9-2.3-2.6-3.9c1.6,0.6,2.6,1.6,3.9,2.6
			C306.5,689.8,307.5,690.8,308.2,692.4z"/>
		<path class="st4" d="M309.8,644.2c-0.6,1.6-1.6,2.6-2.6,3.9c-1,1-2.3,1.9-3.9,2.6c0.6-1.6,1.6-2.6,2.6-3.9
			C307.2,645.8,308.2,644.9,309.8,644.2z"/>
		<path class="st4" d="M242.2,625.5c-0.6,1.6-1.6,2.6-2.6,3.9c-1,1-2.2,1.9-3.9,2.6c0.6-1.6,1.6-2.6,2.6-3.9
			C239.3,627.1,240.6,626.1,242.2,625.5z"/>
		<path class="st4" d="M194.6,670.1c-0.6,1.6-1.6,2.6-2.6,3.9c-1,1-2.2,1.9-3.9,2.6c0.6-1.6,1.6-2.6,2.6-3.9
			C192,671.7,193,670.7,194.6,670.1z"/>
		<path class="st4" d="M293.4,587.7c-0.6,1.6-1.6,2.6-2.6,3.9c-1,1-2.2,1.9-3.9,2.6c0.6-1.6,1.6-2.6,2.6-3.9
			C290.8,589.3,292.1,588.3,293.4,587.7z"/>
		<path class="st4" d="M243.5,551.8c-0.6,1.6-1.6,2.6-2.6,3.9c-1,1-2.2,1.9-3.9,2.6c0.6-1.6,1.6-2.6,2.6-3.9
			C240.9,553.4,242.2,552.5,243.5,551.8z"/>
		<path class="st16" d="M223.3,576.7c6.8,39.4,78.5,111.8,101,112.4c37,1.3,95.2-25.9,111.9-35.5c7.1-4.2-16.4-64.9-25.1-62.7
			c-10.3,2.9-84.6,42.3-88.5,38.4c-2.3-2.3-38.9-33.3-60.5-51.7C232.3,552.5,220.7,563.1,223.3,576.7z"/>
		<path class="st16" d="M400.5,599c0,0,19.9-15.5,33.5-25.2c7.7-5.5,21.2-13.6,28.6-14.9c10.9-1.9,58.2-3.9,58.9,7.8
			c0.6,10.3-40.2,6.8-40.2,6.8s41.5,0,39.9,12.9c-1.6,12.9-47.3,2.3-47.3,2.3s42.8,1,38.9,13.9c-2.9,9.7-44.7,2.6-44.7,2.6
			s36.7,1.3,34.1,11.3c-2.6,11-41.8,7.1-41.8,7.1c-10.6,24.6-25.4,32-37,35.9C421.4,660.4,400.5,599,400.5,599z"/>
		<path class="st1" d="M467.1,572.5c4.8,0,10-0.3,14.8,0c4.8,0.3,9.7,0.6,14.5,1.6c11.9,1.9,19,4.8,18.7,4.5
			c-10.9-3.2-28.3-4.5-33.1-4.8C476.7,573.5,471.9,572.8,467.1,572.5z"/>
		<path class="st1" d="M465.8,590.3c6.1,0,12.5,0,18.7,0.3c6.1,0.3,12.2,1.3,18.3,1.9c0.3,0,0.3,0.3-0.3,0.3c-6.1-0.6-11.9-0.6-18-1
			C478,591.3,471.9,590.6,465.8,590.3z"/>
		<path class="st1" d="M461.9,605.1c9.6-0.3,19.3,1,28.6,2.6c0.3,0,0.3,0.3-0.3,0.3c-9.3-1-16.7-1.9-28.3-2.6
			C461.9,605.5,461.6,605.1,461.9,605.1z"/>
		<path class="st5" d="M399.8,590l33.5,69.5c0,0-68.8,36.8-111,32.6c-42.5-3.9-85.9-66.6-97.1-101.1c-11.3-34.6,9-41,31.8-22.6
			c22.8,18.4,63.4,52.7,66.3,53C326.2,621.6,399.8,590,399.8,590z"/>
		<path class="st1" d="M416.3,653.6c-1.3-2.6-2.6-4.8-3.5-7.4c-2.6-5.2-5.1-10.7-7.7-15.8c-2.6-5.2-5.1-10.3-7.4-15.5
			c-2.6-5.5-5.5-11-8-16.5c0-0.3-0.6,0-0.3,0.3c2.6,5.5,4.5,11,7.1,16.2c2.6,5.5,4.8,10.7,7.4,16.2c2.6,5.2,5.1,10.3,7.7,15.5
			c1.3,2.6,2.6,5.5,4.2,8.1c1.3,2.3,2.2,5.2,4.2,7.1c0.3,0.3,0.6,0,0.6-0.3C419.1,658.8,417.5,656.2,416.3,653.6z"/>
		<path class="st1" d="M400.2,594.2c-0.6,0-1.3,0.6-2.3,1c-0.6,0.3-1.3,0.6-1.9,1c-1.3,0.6-2.6,1.6-4.2,2.3c-0.3,0,0,0.6,0.3,0.3
			c1.3-0.6,2.9-1.3,4.2-1.9c0.6-0.3,1.3-0.6,1.9-1c0.6-0.3,1.3-0.6,1.9-1.3C400.8,594.5,400.5,594.2,400.2,594.2z"/>
		<path class="st1" d="M406,606.1c-0.6,0-1.3,0.6-2.2,1c-0.6,0.3-1.3,0.6-1.9,1c-1.3,0.6-2.6,1.6-4.2,2.3c-0.3,0,0,0.6,0.3,0.3
			c1.3-0.6,2.9-1.3,4.2-1.9c0.6-0.3,1.3-0.6,1.9-1c0.6-0.3,1.3-0.6,1.9-1.3C406.6,606.4,406.3,606.1,406,606.1z"/>
		<path class="st1" d="M411.7,618.1c-0.6,0-1.3,0.6-2.3,1c-0.6,0.3-1.3,0.6-1.9,1c-1.3,0.6-2.6,1.6-4.2,2.3c-0.3,0,0,0.6,0.3,0.3
			c1.3-0.6,2.9-1.3,4.2-1.9c0.6-0.3,1.3-0.6,1.9-1c0.6-0.3,1.3-0.6,1.9-1.3C412.1,618.4,412.1,617.7,411.7,618.1z"/>
		<path class="st1" d="M417.2,629.7c-0.6,0-1.3,0.6-2.3,1c-0.6,0.3-1.3,0.6-1.9,1c-1.3,0.6-2.6,1.6-4.2,2.3c-0.3,0,0,0.6,0.3,0.3
			c1.3-0.6,2.9-1.3,4.2-1.9c0.6-0.3,1.3-0.6,1.9-1c0.6-0.3,1.3-0.6,1.9-1.3C417.9,630.3,417.5,629.7,417.2,629.7z"/>
		<path class="st1" d="M423,641.7c-0.6,0-1.3,0.6-2.2,1c-0.6,0.3-1.3,0.6-1.9,1c-1.3,0.6-2.6,1.6-4.2,2.3c-0.3,0,0,0.6,0.3,0.3
			c1.3-0.6,2.9-1.3,4.2-1.9c0.6-0.3,1.3-0.6,1.9-1c0.6-0.3,1.3-0.6,1.9-1.3C423.7,642,423.3,641.7,423,641.7z"/>
		<path class="st1" d="M428.5,653.6c-0.6,0-1.3,0.6-2.3,1c-0.6,0.3-1.3,0.6-1.9,1c-1.3,0.6-2.6,1.6-4.2,2.3c-0.3,0,0,0.6,0.3,0.3
			c1.3-0.6,2.9-1.3,4.2-1.9c0.6-0.3,1.3-0.6,1.9-1c0.6-0.3,1.3-0.6,1.9-1.3C429.1,653.9,428.8,653.6,428.5,653.6z"/>
		<path class="st1" d="M391.2,678.5c-2.6,0.6-5.1,1.6-7.4,2.6c-2.6,1-5.1,1.6-7.4,2.3c-5.1,1.6-10.3,2.9-15.8,4.2
			c-5.1,1-10.3,2.3-15.4,3.2c-5.5,1-10.9,1.6-16.7,1.9c-0.3,0-0.3,0.3,0,0.3c5.5,0,10.9-0.3,16.4-1c5.1-0.6,10.6-1.6,15.8-2.9
			c5.5-1.3,10.6-2.9,15.8-4.5c2.6-0.6,5.1-1.6,7.4-2.6c2.6-1,5.1-1.6,7.4-2.9C391.5,678.5,391.5,678.2,391.2,678.5z"/>
		<path class="st4" d="M280.2,674.3c-0.6-1.6-0.6-2.9-0.6-4.5c0-1.6,0.3-2.9,0.6-4.5c0.6,1.6,0.6,2.9,0.6,4.5
			C280.8,671.1,280.8,672.7,280.2,674.3z"/>
		<path class="st4" d="M262.5,609.7c-0.6-1.6-0.6-2.9-0.6-4.5c0-1.6,0.3-2.9,0.6-4.5c0.6,1.6,0.6,2.9,0.6,4.5
			C263.5,606.8,263.2,608.4,262.5,609.7z"/>
		<path class="st4" d="M224.3,587c-0.6-1.6-0.6-2.9-0.6-4.5c0-1.6,0.3-2.9,0.6-4.5c0.6,1.6,0.6,2.9,0.6,4.5
			C224.9,584.1,224.9,585.4,224.3,587z"/>
		<path class="st4" d="M402.1,640.7c-0.6-1.6-0.6-2.9-0.6-4.5c0-1.6,0.3-2.9,0.6-4.5c0.6,1.6,0.6,2.9,0.6,4.5
			C402.7,637.5,402.7,639.1,402.1,640.7z"/>
		<path class="st4" d="M314.9,671.4c1.6-0.6,2.9-0.6,4.5-0.6c1.6,0,2.9,0.3,4.5,0.6c-1.6,0.6-2.9,0.6-4.5,0.6
			C317.8,672.3,316.2,672,314.9,671.4z"/>
		<path class="st4" d="M397.6,662.3c1.6-0.6,2.9-0.6,4.5-0.6c1.6,0,2.9,0.3,4.5,0.6c-1.6,0.6-2.9,0.6-4.5,0.6
			C400.5,663,398.9,663,397.6,662.3z"/>
		<path class="st4" d="M302.1,612.2c1.6-0.6,2.9-0.6,4.5-0.6c1.6,0,2.9,0.3,4.5,0.6c-1.6,0.6-2.9,0.6-4.5,0.6
			C305,612.9,303.7,612.9,302.1,612.2z"/>
		<path class="st4" d="M273.1,697.9c1.6-0.6,2.9-0.6,4.5-0.6c1.6,0,2.9,0.3,4.5,0.6c-1.6,0.6-2.9,0.6-4.5,0.6
			C276.3,698.5,274.7,698.5,273.1,697.9z"/>
		<path class="st4" d="M388.9,611c-1.6-0.6-2.6-1.6-3.9-2.6c-1-1-1.9-2.3-2.6-3.9c1.6,0.6,2.6,1.6,3.9,2.6
			C387.3,608.4,388.3,609.7,388.9,611z"/>
		<path class="st4" d="M282.8,633.6c-1.6-0.6-2.6-1.6-3.9-2.6c-1-1-1.9-2.3-2.6-3.9c1.6,0.6,2.6,1.6,3.9,2.6
			C281.2,631,282.1,632.3,282.8,633.6z"/>
		<path class="st4" d="M348.1,655.9c-1.6-0.6-2.6-1.6-3.9-2.6c-1-1-1.9-2.3-2.6-3.9c1.6,0.6,2.6,1.6,3.9,2.6
			C346.5,653,347.4,654.2,348.1,655.9z"/>
		<path class="st4" d="M249.6,590.9c-1.6-0.6-2.6-1.6-3.9-2.6c-1-1-1.9-2.3-2.6-3.9c1.6,0.6,2.6,1.6,3.9,2.6
			C248,588,249,589.3,249.6,590.9z"/>
		<path class="st4" d="M309.8,644.2c-0.6,1.6-1.6,2.6-2.6,3.9c-1,1-2.3,1.9-3.9,2.6c0.6-1.6,1.6-2.6,2.6-3.9
			C307.2,645.9,308.2,644.9,309.8,644.2z"/>
		<path class="st4" d="M354.8,619.4c-0.6,1.6-1.6,2.6-2.6,3.9c-1,1-2.3,1.9-3.9,2.6c0.6-1.6,1.6-2.6,2.6-3.9
			C351.9,621,353.2,620,354.8,619.4z"/>
		<path class="st4" d="M377.4,642c-0.6,1.6-1.6,2.6-2.6,3.9c-1,1-2.2,1.9-3.9,2.6c0.6-1.6,1.6-2.6,2.6-3.9
			C374.5,643.6,375.7,642.6,377.4,642z"/>
		<path class="st4" d="M370.9,670.1c-0.6,1.6-1.6,2.6-2.6,3.9c-1,1-2.3,1.9-3.9,2.6c0.6-1.6,1.6-2.6,2.6-3.9
			C368.3,671.7,369.6,670.7,370.9,670.1z"/>
		<path class="st1" d="M316.5,691.4c-14.2-3.6-26.1-11.6-37-21.3c-11.3-10.3-21.6-21.6-30.9-33.6c-5.5-6.8-10.6-13.9-15.1-21.3
			c0-0.3-0.6,0-0.3,0.3c4.2,6.8,8,13.6,12.5,20c0.3,0.6,0.6,1,1.3,1.6c-1-0.6-1.9-1.6-2.9-2.3c-2.6-1.9-4.8-3.6-7.1-5.8
			c-0.3-0.3-0.6,0-0.3,0.3c2.3,1.9,4.5,4.2,6.8,6.5c1.3,1,2.2,1.9,3.5,2.9c0.6,0.3,1.3,1,1.9,1.3c0.3,0,0.3,0.3,0.6,0.3
			c3.5,4.5,7.1,9.4,10.9,13.6c9.6,11.3,20.6,22,33.5,29.7c6.8,4.2,14.1,7.4,22.2,8.4C316.8,692.1,317.2,691.4,316.5,691.4z"/>
		<path class="st1" d="M317.8,617.4c-6.4-5.5-12.9-11-19.6-16.2c-2.3-1.9-4.8-3.9-7.1-5.5c-0.3-0.3-0.6-0.6-1-1
			c-0.6-0.6-1.3-1.3-1.9-2.3c-1.3-1.6-2.9-2.9-4.2-4.5c-0.3-0.3-0.6,0-0.3,0.3c1.3,1.3,2.6,2.9,3.9,4.5c0,0,0,0,0.3,0.3
			c-3.2-2.6-6.4-4.8-10-7.4c-0.3-0.3-0.6,0-0.3,0.3c6.8,5.2,13.2,11,19.6,16.2c6.4,5.2,13.2,10.3,19.6,15.5
			C317.5,618.4,318.1,617.7,317.8,617.4z"/>
		<path class="st9" d="M255.1,797.4l-0.3,36.8l-5.1,280.8h-5.8l-5.1-280.8l-0.3-36.8H255.1z"/>
		<path class="st1" d="M238.4,797.4h16.7l-0.3,36.8h-16.1L238.4,797.4z"/>
		<path class="st9" d="M1015.1,797.4l-0.3,36.8l-5.1,280.8h-5.8l-5.1-280.8l-0.3-36.8H1015.1z"/>
		<path class="st1" d="M1015.1,797.4l-0.3,36.8h-16.1l-0.3-36.8H1015.1z"/>
		<path class="st9" d="M196.5,797.4l-0.3,36.8l-5.1,280.8h-5.8l-5.1-280.8l-0.6-36.8H196.5z"/>
		<path class="st1" d="M179.5,797.4h17l-0.3,36.8h-16.1L179.5,797.4z"/>
		<path class="st9" d="M956.6,797.4l-0.6,36.8l-5.1,280.8H945l-5.1-280.8l-0.3-36.8H956.6z"/>
		<path class="st1" d="M939.6,797.4h17l-0.6,36.8h-16.1L939.6,797.4z"/>
		<path class="st1" d="M1058.9,774.8H127.4v31.3h931.5V774.8z"/>
		<path class="st3" d="M491.5,774.8h143.5l10.9-97.9H502.7L491.5,774.8z"/>
		<path class="st4" d="M499.2,768.3h129.3l9.7-84.6H508.8L499.2,768.3z"/>
		<path class="st3" d="M557.4,768h-147v6.8h147V768z"/>
		<path class="st9" d="M484.4,768h-74v6.8h74V768z"/>
		<path class="st5" d="M617.5,752.5l0.3-3.2L594.7,716l-15.1,25.8L568,726.3l-3.9,3.9l-18.7-23.3l-10.3,12l-10.3-10l-1.6,1.6
			l11.9,11.3l10.3-11.6l18.3,23.3l3.9-3.9l11.9,16.2l15.4-25.9L617.5,752.5z"/>
		<path class="st5" d="M522.7,712.4l-1.9-5.8l6.1,1.3L522.7,712.4z"/>
		<path class="st7" d="M513,760.2h103.9l8-68.2l-1-0.3l-7.7,67.5H513V760.2z"/>
		<path class="st7" d="M626.2,695h-4.5v0.6h4.5V695z"/>
		<path class="st7" d="M625.6,699.2h-4.5v0.6h4.5V699.2z"/>
		<path class="st7" d="M625.3,703.7h-4.5v0.6h4.5V703.7z"/>
		<path class="st7" d="M624.6,707.9h-4.5v0.6h4.5V707.9z"/>
		<path class="st7" d="M624.3,712.4h-4.5v0.6h4.5V712.4z"/>
		<path class="st7" d="M623.7,716.6h-4.5v0.6h4.5V716.6z"/>
		<path class="st7" d="M623.3,720.8h-4.5v0.6h4.5V720.8z"/>
		<path class="st7" d="M623,725.3h-4.5v0.6h4.5V725.3z"/>
		<path class="st7" d="M622.4,729.5h-4.5v0.6h4.5V729.5z"/>
		<path class="st7" d="M621.7,734.1h-4.5v0.6h4.5V734.1z"/>
		<path class="st7" d="M621.4,738.3h-4.5v0.6h4.5V738.3z"/>
		<path class="st7" d="M620.8,742.5h-4.5v0.6h4.5V742.5z"/>
		<path class="st7" d="M620.4,747h-4.5v0.6h4.5V747z"/>
		<path class="st7" d="M619.8,751.2h-4.5v0.6h4.5V751.2z"/>
		<path class="st7" d="M619.2,755.7h-4.5v0.6h4.5V755.7z"/>
		<path class="st5" d="M178.8,933.7c-30.9,42-63.4,90.8-71.1,143.8c0,0.6,1.3,1,1.3,0.3c3.5-14.5,8-28.4,13.8-42.3
			c20.3-5.5,40.2-10.3,51.1-30.4c10.9-21,9.7-48.1,7.4-70.8C181.1,933.1,179.4,933.1,178.8,933.7z"/>
		<path class="st1" d="M123.2,1035.2c13.8-31.3,31.8-62.7,54.4-88.5c0-0.3,0.3,0,0.3,0.3c-14.8,18.4-26.1,38.4-37.3,58.8
			c10.3-10.3,21.6-19.7,31.2-31c0.3-0.3,0.6,0,0.3,0.3c-9.7,11.6-20.3,24.2-32.8,33c-3.2,6.1-6.8,12.6-10.3,18.7
			c1-0.3,1.6-1,2.6-1.3c0,0,0.3,0,0,0.3c-1,0.6-1.9,1-2.9,1.3c-1.6,2.9-3.2,5.8-4.8,8.7C123.8,1036.5,122.8,1035.8,123.2,1035.2z"/>
		<path class="st1" d="M133.5,1024.2c8.4-4.8,16.4-10,23.8-15.8c0.3-0.3,0.6,0,0.3,0.3c-7.4,6.1-15.1,12-23.8,16.2
			C133.5,1025.2,133.1,1024.5,133.5,1024.2z"/>
		<path class="st5" d="M104.2,1069.7c0,0.6,1.3,0.6,1.3,0c0-17.4,0-34.9,0.3-52.3c4.5-9,13.8-13.9,20.6-21c4.8-5.2,9-11,12.2-17.1
			c8-14.9,12.5-31.3,14.5-47.8c1.9-18.7-5.1-79.8-12.9-77.9c-4.2,1-17,31.3-20.6,41.7c-5.8,16.5-9.7,33.6-12.2,51.1
			C100.6,986.7,101.3,1028.7,104.2,1069.7z"/>
		<path class="st1" d="M104.2,994.8c1-22,6.1-44.3,10.6-65.6c4.8-22.9,10.9-44.6,22.5-65.3c0.3-0.3,0.6,0,0.6,0.3
			c-8,15.8-13.8,32.6-18,50.1c0.6-1.3,1.6-2.3,2.6-3.6c0.3-0.3,1,0,0.6,0.3c-1.3,1.6-2.2,3.9-3.5,5.2c-4.2,16.5-7.1,33.3-9.3,50.1
			c0.3-0.3,0.3-0.3,0.6-0.6c0,0,0.3,0,0.3,0.3c-0.3,0.6-0.6,1-1,1.6c-1.3,8.4-2.6,17.1-3.5,25.5c15.1-12.9,28-28.1,35.4-46.8
			c-7.1,19.4-18.3,36.8-35.7,48.8c-0.3,2.3-0.6,4.5-1,6.8c0,0.3-1,0.3-1,0c0-1.9,0-3.9,0.3-6.1C103.8,995.4,103.8,995.1,104.2,994.8
			z"/>
		<path class="st1" d="M111.2,962.8c11.6-17.1,22.2-33.9,30.9-53.3c0-0.3,0.3,0,0.3,0c-7.1,19.1-17,38.1-30.6,53.3
			C111.5,963.8,110.9,963.1,111.2,962.8z"/>
		<path class="st1" d="M126.7,905.6c4.8-8.4,9.7-16.8,14.2-25.5c0-0.3,0.3,0,0.3,0.3c-3.9,8.7-8.4,17.8-13.8,25.5
			C127,906.3,126.4,905.9,126.7,905.6z"/>
		<path class="st5" d="M92.6,1019.3c-0.3,11.6-1.6,22.9-4.2,34.2c0.3,1.3,0.3,2.6,0.6,3.9c3.5-12.6,5.5-25.2,6.1-38.1
			c0.3-0.3,0.3-0.6,0-1.3c0.6-17.1-1-34.6-3.9-51.7c-5.5-32-17-62.7-39.2-86.6c-0.6-0.6-2.2-0.3-2.6,0.6c-9,22.9-5.8,50.1,1.9,73
			c4.2,12.3,10,24.2,17.7,34.6C76.5,998.7,86.5,1007.7,92.6,1019.3z"/>
		<path class="st1" d="M54.7,890.4c20.9,34.2,35.7,75,37.3,115.3c0,0.6-1.3,1-1.3,0.3c-0.6-3.6-1-7.1-1.6-11
			c-8.7-8.4-17.7-17.1-23.8-27.8c0-0.3,0-0.3,0.3-0.3c7.7,8.7,14.5,17.4,23.2,25.2c-1.6-9-3.2-17.8-5.5-26.5c-0.6-0.6-1-1.3-1.6-1.9
			c-0.3-0.3,0.3-1,0.6-0.6c0.3,0.3,0.3,0.3,0.6,0.6c-2.9-12-6.8-23.6-10.9-34.9c-5.5-6.5-11.3-12-15.1-19.7c0-0.3,0-0.3,0.3-0.3
			c3.2,4.5,6.1,8.7,9.7,12.9c1.3,1.6,2.9,3.2,4.5,4.8c-4.8-12.3-10.6-24.2-17-36.2C53.7,890.4,54.3,890.1,54.7,890.4z"/>
		<path class="st1" d="M58.8,932.8c6.8,9,14.5,18.1,20.9,27.5c0.3,0.3-0.3,0.6-0.3,0.3c-8-7.8-15.1-18.1-20.9-27.5
			C58.2,932.8,58.8,932.4,58.8,932.8z"/>
		<path class="st1" d="M80.7,962.5c0.6,0.6,0.3,0.6,0,0.6V962.5C80.7,962.2,80.4,962.5,80.7,962.5z"/>
		<path class="st5" d="M21.8,956.3c1.6,17.8,10.9,38.8,22.2,52.3c5.1,6.1,10.9,10.7,18,14.2c7.7,3.9,16.1,8.4,24.1,11.6
			c3.9,9.7,6.8,19.7,8.4,30.4c0.3-1,0.6-1.9,0.6-2.6c-5.1-44.6-33.8-82.7-70.8-107.3C23.1,953.8,21.5,954.7,21.8,956.3z"/>
		<path class="st1" d="M34.4,969.6c-0.3-0.3,0-0.6,0.3-0.6c19.6,14.5,37,35.5,47,58.2c0.3,0.6-0.6,1.3-1,0.6
			c-1.6-2.9-3.5-5.8-5.1-8.7c-8.4-1.6-16.4-7.4-22.5-13.2c-0.3,0,0-0.3,0.3-0.3c3.2,2.9,6.8,5.5,10.6,7.4c3.5,1.6,7.1,2.9,10.6,4.2
			c-3.2-4.8-6.4-9.7-9.7-14.2c-9-3.2-17.7-8.7-25.1-14.2c-0.3-0.3,0-0.6,0.3-0.3c7.7,4.5,15.4,8.7,23.5,12.6
			c-5.1-6.8-10.6-13.2-16.4-19.4c-2.9-1.6-5.8-2.9-8.4-4.5c-0.3,0,0-0.6,0.3-0.3c2.3,0.6,4.5,1.9,6.4,3.2
			C41.4,976.1,38.2,972.8,34.4,969.6z"/>
		<path class="st1" d="M35.3,985.1c0.6,0.3,1,0.6,1.3,1c0,0,0,0.3-0.3,0.3c-0.6-0.3-1-0.6-1.6-1C34.7,985.1,35,984.8,35.3,985.1z"/>
		<path class="st3" d="M152.8,1161.2h-101l8.4-92.1l1.6-20.4h81.1l1.6,20.4L152.8,1161.2z"/>
		<path class="st1" d="M144.4,1069.1H60.2l1.6-20.4h81.1L144.4,1069.1z"/>
		<path class="st3" d="M147.6,1034.5H56.9v20h90.7V1034.5z"/>
	</g>
</g>
</svg>
