<svg width="21" height="20" viewBox="0 0 21 20" fill="none" xmlns="http://www.w3.org/2000/svg">
<path d="M18.6602 0.134766H2.15586C1.39961 0.134766 0.785156 0.757813 0.785156 1.52266V17.9969C0.785156 18.7617 1.39961 19.3848 2.15586 19.3848H18.6602C19.4164 19.3848 20.0352 18.7617 20.0352 17.9969V1.52266C20.0352 0.757813 19.4164 0.134766 18.6602 0.134766ZM6.60312 16.6348H3.75V7.44805H6.60742V16.6348H6.60312ZM5.17656 6.19336C4.26133 6.19336 3.52227 5.45 3.52227 4.53906C3.52227 3.62812 4.26133 2.88477 5.17656 2.88477C6.0875 2.88477 6.83086 3.62812 6.83086 4.53906C6.83086 5.4543 6.0918 6.19336 5.17656 6.19336ZM17.298 16.6348H14.4449V12.166C14.4449 11.1004 14.4234 9.72969 12.9625 9.72969C11.4758 9.72969 11.248 10.8898 11.248 12.0887V16.6348H8.39492V7.44805H11.132V8.70273H11.1707C11.5531 7.98086 12.4855 7.22031 13.8734 7.22031C16.7609 7.22031 17.298 9.12383 17.298 11.5988V16.6348Z" fill="white"/>
</svg>
