<svg width="21" height="20" viewBox="0 0 21 20" fill="none" xmlns="http://www.w3.org/2000/svg">
<path d="M18.1102 0.134766H2.71016C1.64883 0.134766 0.785156 0.998438 0.785156 2.05977V17.4598C0.785156 18.5211 1.64883 19.3848 2.71016 19.3848H18.1102C19.1715 19.3848 20.0352 18.5211 20.0352 17.4598V2.05977C20.0352 0.998438 19.1715 0.134766 18.1102 0.134766ZM16.9844 6.52852C16.9242 7.88203 15.9789 9.73828 14.1484 12.0887C12.2578 14.5465 10.6551 15.7754 9.34883 15.7754C8.53672 15.7754 7.85352 15.0277 7.29062 13.5281C6.19492 9.51914 5.72656 7.16875 4.82422 7.16875C4.72109 7.16875 4.35586 7.38789 3.73281 7.82187L3.07969 6.97969C4.68242 5.57031 6.21211 4.00625 7.17031 3.92031C8.25313 3.81719 8.91914 4.55625 9.16836 6.1418C10.0578 11.7793 10.4531 12.6301 12.073 10.0777C12.6531 9.1582 12.9668 8.45781 13.0098 7.97656C13.1602 6.55 11.8969 6.64883 11.0418 7.01406C11.725 4.77539 13.0312 3.68828 14.9605 3.74844C16.3914 3.78711 17.066 4.71523 16.9844 6.52852Z" fill="white"/>
</svg>
