<?xml version="1.0" encoding="utf-8"?>
<!-- Generator: Adobe Illustrator 24.2.3, SVG Export Plug-In . SVG Version: 6.00 Build 0)  -->
<svg version="1.1" id="Layer_1" xmlns="http://www.w3.org/2000/svg" xmlns:xlink="http://www.w3.org/1999/xlink" x="0px" y="0px"
	 viewBox="0 0 1066.9 767.6" style="enable-background:new 0 0 1066.9 767.6;" xml:space="preserve">
<style type="text/css">
	.st0{fill:#014549;}
</style>
<path class="st0" d="M16.9,495.8c-22.5,22.5-22.5,59.3,0,81.8c22.5,22.5,59.3,22.5,81.8,0l94.9-94.9l-81.8-81.8L16.9,495.8z"/>
<path class="st0" d="M953.9,392.8l86.7-86.7l-81.8-81.8L872.2,311L618.7,57.5l0,0l-38.5-40.3C569.9,7,556.8,1.2,543.1,0
	c-16.6-1.8-34.2,3.5-47,16.4l-40.9,40.9L199.7,312.7l81.8,81.8L536.9,139l253.5,253.5L531.1,651.8L279.4,400.1l-81.8,81.8
	l251.7,251.7l0,0l0,0c45,45,118.3,45.3,163.2,0.3l259.3-259.3l96.4,96.4c22.5,22.5,59.3,22.5,81.8,0c22.5-22.5,22.5-59.3,0-81.8
	L953.9,392.8z"/>
</svg>
