<?xml version="1.0" encoding="utf-8"?>
<!-- Generator: Adobe Illustrator 24.2.3, SVG Export Plug-In . SVG Version: 6.00 Build 0)  -->
<svg version="1.1" id="Layer_1" xmlns="http://www.w3.org/2000/svg" xmlns:xlink="http://www.w3.org/1999/xlink" x="0px" y="0px"
	 viewBox="0 0 777.1 1080" style="enable-background:new 0 0 777.1 1080;" xml:space="preserve">
<style type="text/css">
	.st0{fill:#014549;}
</style>
<path class="st0" d="M288.6,195.9l82.7-82.7l-96-96c-22.8-22.8-60-22.8-82.7,0s-22.8,60,0,82.7L288.6,195.9z"/>
<path class="st0" d="M467.4,1053.2l82.7-82.7l-87.8-87.8l256.5-256.5l0,0l40.8-39c10.3-10.3,16.3-23.6,17.4-37.2
	c1.8-16.8-3.8-34.6-16.5-47.6l-0.9-0.9l-40.5-40.8L460,202.1l-82.7,82.7l258.6,258.6L379.3,799.9L117.2,537.5l254.7-254.7L289.2,200
	L34.4,455l0,0l0,0c-45.5,45.5-45.8,119.7-0.3,165.2l262.7,262.4l-97.5,97.5c-22.8,22.8-22.8,60,0,82.7s60,22.8,82.7,0l97.5-97.5
	L467.4,1053.2z"/>
</svg>
