<?xml version="1.0" encoding="utf-8"?>
<!-- Generator: Adobe Illustrator 24.2.3, SVG Export Plug-In . SVG Version: 6.00 Build 0)  -->
<svg version="1.1" id="Layer_1" xmlns="http://www.w3.org/2000/svg" xmlns:xlink="http://www.w3.org/1999/xlink" x="0px" y="0px"
	 viewBox="0 0 776.8 1080" style="enable-background:new 0 0 776.8 1080;" xml:space="preserve">
<style type="text/css">
	.st0{fill:#014549;}
</style>
<path class="st0" d="M488.2,884.1l-82.7,82.7l96,96c22.8,22.8,60,22.8,82.7,0c22.8-22.8,22.8-60,0-82.7L488.2,884.1z"/>
<path class="st0" d="M744.9,622.6L744.9,622.6L487.6,880.1l-82.7-82.8l254.8-254.8l0,0L397.2,280.1L140.7,536.6l259.2,258.9
	l-82.7,82.7L58.5,619.6l-40.8-40.8l-0.9-0.9C3.8,565-1.8,547.2,0,530.4c1.2-13.9,7.1-27.2,17.4-37.5l40.8-39l0,0l256.5-256.5
	L227,109.6l82.7-82.7l87.8,87.8L495,17.1c22.8-22.8,60-22.8,82.7,0c22.8,22.7,22.8,60,0,82.7l-97.5,97.5l262.4,262.4
	C787.4,504.5,788.1,577,744.9,622.6z"/>
</svg>
