<?xml version="1.0" encoding="utf-8"?>
<!-- Generator: Adobe Illustrator 24.2.3, SVG Export Plug-In . SVG Version: 6.00 Build 0)  -->
<svg version="1.1" id="Layer_1" xmlns="http://www.w3.org/2000/svg" xmlns:xlink="http://www.w3.org/1999/xlink" x="0px" y="0px"
	 viewBox="0 0 1066.9 767.7" style="enable-background:new 0 0 1066.9 767.7;" xml:space="preserve">
<style type="text/css">
	.st0{fill:#014549;}
</style>
<path class="st0" d="M1050,271.8c22.5-22.5,22.5-59.2,0-81.7c-22.5-22.5-59.2-22.5-81.7,0L873.4,285l81.7,81.7L1050,271.8z"/>
<path class="st0" d="M113.8,374.9l-86.7,86.7l81.7,81.7l86.7-86.7l253.3,253.3l0,0l38.5,40.3c10.2,10.2,23.3,16.1,37.1,17.2
	c16.6,1.8,34.1-3.8,47-16.6l40.9-40.9l255.4-255.4l-81.7-81.7L530.5,628.2L277.2,374.9l259.2-259.2l251.6,251.6l81.7-81.7L618.1,34
	l0,0v-0.3c-44.9-44.9-118.2-44.9-163.1,0L195.5,293.2l-96.3-96.3c-22.5-22.5-59.2-22.5-81.7,0s-22.5,59.2,0,81.7L113.8,374.9z"/>
</svg>
