<?xml version="1.0" encoding="utf-8"?>
<!-- Generator: Adobe Illustrator 24.2.3, SVG Export Plug-In . SVG Version: 6.00 Build 0)  -->
<svg version="1.1" id="Layer_1" xmlns="http://www.w3.org/2000/svg" xmlns:xlink="http://www.w3.org/1999/xlink" x="0px" y="0px"
	 viewBox="0 0 1014.9 542.7" style="enable-background:new 0 0 1014.9 542.7;" xml:space="preserve">
<style type="text/css">
	.st0{fill:#F5F5F0;}
	.st1{clip-path:url(#SVGID_2_);}
	.st2{fill:#FFD42E;}
	.st3{fill:#303030;}
	.st4{fill:#004E53;}
	.st5{fill:#303030;stroke:#303030;stroke-width:1.0998;}
	.st6{clip-path:url(#SVGID_4_);}
	.st7{clip-path:url(#SVGID_6_);}
	.st8{fill:#F5F5F0;stroke:#303030;stroke-width:2.1995;}
	.st9{fill:none;stroke:#303030;stroke-width:2.1995;stroke-linecap:round;}
	.st10{fill:#FFFFFF;stroke:#303030;stroke-width:2.1995;}
	.st11{fill:#D6AC79;stroke:#303030;stroke-width:2.1995;}
	.st12{fill:#D6AC79;stroke:#303030;stroke-width:2.1995;stroke-linejoin:round;}
	.st13{fill:none;stroke:#303030;stroke-width:2.1995;stroke-linejoin:round;}
	.st14{fill:#F5F5F0;stroke:#303030;stroke-width:2.1995;stroke-linejoin:round;}
	.st15{fill:#FFFFFF;filter:url(#Adobe_OpacityMaskFilter);stroke:#2F2E11;stroke-width:2.1995;stroke-linejoin:round;}
	.st16{mask:url(#mask0_695_254_1_);}
	.st17{fill:#FFFFFF;}
	.st18{fill:none;stroke:#000000;stroke-width:2.1995;}
	.st19{fill:none;stroke:#000000;stroke-width:1.0998;}
	.st20{clip-path:url(#SVGID_8_);}
	.st21{fill:#D6AC79;}
</style>
<rect x="836.1" y="280.2" class="st0" width="147.8" height="116.7"/>
<g>
	<defs>
		<rect id="SVGID_1_" x="803.4" y="252.2" width="211.5" height="172.7"/>
	</defs>
	<clipPath id="SVGID_2_">
		<use xlink:href="#SVGID_1_"  style="overflow:visible;"/>
	</clipPath>
	<g class="st1">
		<path class="st2" d="M891.5,316.8l0.2,43.3l47-22.1L891.5,316.8z"/>
		<path class="st3" d="M891.8,361.5c-0.2,0-0.5,0-0.7-0.2c-0.4-0.2-0.4-0.7-0.4-0.9l-0.2-43.3c0-0.5,0.2-0.7,0.4-0.9
			c0.2-0.2,0.7-0.2,1.1,0l47.2,21.2c0.5,0.2,0.7,0.7,0.7,1.1c0,0.5-0.2,0.9-0.7,1.1l-47,22.1C892,361.2,892,361.5,891.8,361.5z
			 M892.7,318.6l0.2,39.7l42.9-20.3L892.7,318.6z"/>
		<path class="st3" d="M818.7,303.2c-0.7,0-1.1-0.5-1.1-1.1l0.2-48.7c0-0.7,0.5-1.1,1.1-1.1c0.7,0,1.1,0.5,1.1,1.1v48.7
			C820.1,302.8,819.4,303.2,818.7,303.2z"/>
		<path class="st3" d="M852,268.9l-47.4-0.2c-0.7,0-1.1-0.7-1.1-1.1c0-0.7,0.4-1.1,1.1-1.1l47.4,0.2c0.7,0,1.1,0.5,1.1,1.1
			C853.1,268.3,852.7,268.9,852,268.9z"/>
		<path class="st3" d="M852,410.2l-47.4-0.2c-0.7,0-1.1-0.5-1.1-1.1c0-0.7,0.4-1.1,1.1-1.1L852,408c0.7,0,1.1,0.5,1.1,1.1
			C853.1,409.8,852.7,410.2,852,410.2z"/>
		<path class="st3" d="M818.3,424.9c-0.7,0-1.1-0.5-1.1-1.1l0.2-48.8c0-0.7,0.5-1.1,1.1-1.1c0.7,0,1.1,0.5,1.1,1.1l-0.2,48.5
			C819.4,424.2,818.9,424.9,818.3,424.9z"/>
		<path class="st3" d="M999.4,424.9c-0.7,0-1.1-0.5-1.1-1.1l0.2-48.8c0-0.7,0.5-1.1,1.1-1.1c0.7,0,1.1,0.5,1.1,1.1l-0.2,48.8
			C1000.6,424.2,999.9,424.9,999.4,424.9z"/>
		<path class="st3" d="M1013.6,410.7l-47.4-0.2c-0.7,0-1.1-0.5-1.1-1.1c0-0.7,0.5-1.1,1.1-1.1l47.4,0.2c0.7,0,1.1,0.5,1.1,1.1
			C1014.9,410.2,1014.3,410.7,1013.6,410.7z"/>
		<path class="st3" d="M1013.6,269.4l-47.2-0.2c-0.7,0-1.1-0.5-1.1-1.1c0-0.7,0.5-1.1,1.1-1.1l47.4,0.2c0.7,0,1.1,0.5,1.1,1.1
			C1015,268.9,1014.3,269.4,1013.6,269.4z"/>
		<path class="st3" d="M999.9,303.2c-0.7,0-1.1-0.5-1.1-1.1l0.2-48.7c0-0.7,0.5-1.1,1.1-1.1c0.5,0,1.1,0.5,1.1,1.1l-0.2,48.7
			C1001,302.8,1000.6,303.2,999.9,303.2z"/>
		<path class="st3" d="M984.2,398H834.2c-0.2,0-0.5-0.2-0.5-0.5V279.3c0-0.2,0.2-0.5,0.5-0.5h149.9c0.2,0,0.4,0.2,0.4,0.5v118.5
			C984.6,398,984.4,398,984.2,398z M834.7,397.4h149.3V279.8H834.7V397.4z"/>
		<path class="st4" d="M891.5,316.8l0.2,43.3l47-22.1L891.5,316.8z"/>
		<path class="st3" d="M891.8,361.5c-0.2,0-0.5,0-0.7-0.2c-0.4-0.2-0.4-0.7-0.4-0.9l-0.2-43.3c0-0.5,0.2-0.7,0.4-0.9
			c0.2-0.2,0.7-0.2,1.1,0l47.2,21.2c0.5,0.2,0.7,0.7,0.7,1.1c0,0.5-0.2,0.9-0.7,1.1l-47,22.1C892,361.2,892,361.5,891.8,361.5z
			 M892.7,318.6l0.2,39.7l42.9-20.3L892.7,318.6z"/>
		<path class="st3" d="M818.7,303.2c-0.7,0-1.1-0.5-1.1-1.1l0.2-48.7c0-0.7,0.5-1.1,1.1-1.1c0.7,0,1.1,0.5,1.1,1.1v48.7
			C820.1,302.8,819.4,303.2,818.7,303.2z"/>
		<path class="st3" d="M852,268.9l-47.4-0.2c-0.7,0-1.1-0.7-1.1-1.1c0-0.7,0.4-1.1,1.1-1.1l47.4,0.2c0.7,0,1.1,0.5,1.1,1.1
			C853.1,268.3,852.7,268.9,852,268.9z"/>
		<path class="st3" d="M852,410.2l-47.4-0.2c-0.7,0-1.1-0.5-1.1-1.1c0-0.7,0.4-1.1,1.1-1.1L852,408c0.7,0,1.1,0.5,1.1,1.1
			C853.1,409.8,852.7,410.2,852,410.2z"/>
		<path class="st3" d="M818.3,424.9c-0.7,0-1.1-0.5-1.1-1.1l0.2-48.8c0-0.7,0.5-1.1,1.1-1.1c0.7,0,1.1,0.5,1.1,1.1l-0.2,48.5
			C819.4,424.2,818.9,424.9,818.3,424.9z"/>
		<path class="st3" d="M999.4,424.9c-0.7,0-1.1-0.5-1.1-1.1l0.2-48.8c0-0.7,0.5-1.1,1.1-1.1c0.7,0,1.1,0.5,1.1,1.1l-0.2,48.8
			C1000.6,424.2,999.9,424.9,999.4,424.9z"/>
		<path class="st3" d="M1013.6,410.7l-47.4-0.2c-0.7,0-1.1-0.5-1.1-1.1c0-0.7,0.5-1.1,1.1-1.1l47.4,0.2c0.7,0,1.1,0.5,1.1,1.1
			C1014.9,410.2,1014.3,410.7,1013.6,410.7z"/>
		<path class="st3" d="M1013.6,269.4l-47.2-0.2c-0.7,0-1.1-0.5-1.1-1.1c0-0.7,0.5-1.1,1.1-1.1l47.4,0.2c0.7,0,1.1,0.5,1.1,1.1
			C1015,268.9,1014.3,269.4,1013.6,269.4z"/>
		<path class="st3" d="M999.9,303.2c-0.7,0-1.1-0.5-1.1-1.1l0.2-48.7c0-0.7,0.5-1.1,1.1-1.1c0.5,0,1.1,0.5,1.1,1.1l-0.2,48.7
			C1001,302.8,1000.6,303.2,999.9,303.2z"/>
		<path class="st5" d="M984.2,278.1c0.4,0,0.7,0.2,0.8,0.4c0.2,0.2,0.4,0.5,0.4,0.9v118.5c0,0.2,0,0.4-0.2,0.6
			c-0.1,0.2-0.3,0.3-0.5,0.3c-0.2,0.1-0.5,0.1-0.6,0.1H834.2c-0.4,0-0.7-0.2-0.9-0.4c-0.2-0.2-0.4-0.5-0.4-0.9V279.3
			c0-0.4,0.2-0.7,0.4-0.9c0.2-0.2,0.5-0.4,0.9-0.4H984.2z M835.4,396.6h147.7v-116H835.4V396.6z"/>
	</g>
</g>
<g>
	<defs>
		<rect id="SVGID_3_" x="131.5" y="-91.5" width="746.6" height="686"/>
	</defs>
	<clipPath id="SVGID_4_">
		<use xlink:href="#SVGID_3_"  style="overflow:visible;"/>
	</clipPath>
	<g class="st6">
		<g>
			<defs>
				<rect id="SVGID_5_" x="131.5" y="-91.5" width="796.4" height="796.4"/>
			</defs>
			<clipPath id="SVGID_6_">
				<use xlink:href="#SVGID_5_"  style="overflow:visible;"/>
			</clipPath>
			<g class="st7">
				<path class="st3" d="M827.3,460.4l-432.4,80.7l43.6-119.1L827.3,460.4z"/>
				<path class="st3" d="M394.9,541.2l-1.1-0.4c-0.1,0.4-0.1,0.8,0.2,1.2c0.3,0.3,0.7,0.5,1.1,0.4L394.9,541.2z M827.3,460.4
					l0.2,1.1c0.6-0.1,1-0.6,0.9-1.2c0-0.6-0.5-1.1-1-1.1L827.3,460.4z M438.6,422.1l0.1-1.2l-0.9-0.1l-0.3,0.8L438.6,422.1z
					 M395.1,542.3l432.4-80.7l-0.4-2.3L394.7,540L395.1,542.3z M827.4,459.3l-388.8-38.4l-0.2,2.3l388.8,38.4L827.4,459.3z
					 M437.5,421.7l-43.6,119.1l2.2,0.8l43.6-119.1L437.5,421.7z"/>
				<path class="st8" d="M648.6,58.6c-1.4,3.1-6,3.8-9.5,1.4l-39.6-26.7c-2.5-1.7-5.6-0.2-5,2.4l11,43.8c0.9,3.5-1.7,6.4-5.5,6.2
					l-43.5-2c-2.8-0.1-3.9,2.7-1.9,4.8l35.4,36.3c2.6,2.7,2.7,6.3,0.3,8.2l-31.2,24.8c-1.8,1.5-0.7,4.5,2,5.3l45.8,13.6
					c3.6,1.1,6.1,4.3,5.7,7.4l-5.5,42.3c-0.3,2.4,2.7,4.6,5.1,3.7l37.5-13.8c3.3-1.2,7.7,0.6,9.4,4l21.8,42.2c1.3,2.5,5.1,3,6.2,0.8
					l16.2-34.8c1.5-3.1,6-3.8,9.5-1.4l39.6,26.7c2.6,1.7,5.6,0.2,5-2.4l-11-43.8c-0.9-3.5,1.7-6.3,5.5-6.2l43.5,2
					c2.8,0.1,3.9-2.7,1.9-4.8l-35.4-36.3c-2.6-2.7-2.7-6.3-0.3-8.2l31.2-24.8c1.8-1.5,0.7-4.5-2-5.3L745,110.5
					c-3.5-1.1-6.1-4.3-5.7-7.4l5.5-42.3c0.3-2.4-2.7-4.6-5.1-3.7l-37.5,13.8c-3.3,1.2-7.7-0.6-9.4-4L671,24.6
					c-1.3-2.5-5.1-3-6.2-0.8L648.6,58.6z"/>
				<path class="st9" d="M340.4,185.9l-72.3,72.3"/>
				<path class="st9" d="M268.2,116.6l133.3-75"/>
				<path class="st10" d="M252.8,256.7c-0.7,8.4,5.4,15.7,13.8,16.5c8.4,0.7,15.7-5.4,16.5-13.8c0.7-8.4-5.4-15.7-13.8-16.5
					C260.9,242.1,253.5,248.3,252.8,256.7z"/>
				<path class="st9" d="M345.1,166.9l-77.5-49.8"/>
				<path class="st10" d="M314.6,168.3c-1.3,14.4,9.3,27.2,23.8,28.4c14.4,1.3,27.2-9.4,28.4-23.8c1.3-14.4-9.3-27.2-23.8-28.4
					C328.6,143.2,315.9,153.9,314.6,168.3z"/>
				<path class="st11" d="M266.9,132.4c8.6,0.8,16.1-5.5,16.9-14.1c0.8-8.5-5.5-16.1-14.1-16.9c-8.5-0.8-16.1,5.5-16.9,14.1
					C252.1,124,258.4,131.6,266.9,132.4z"/>
				<path class="st10" d="M398.6,83.1c-22.6-2-39.3-22-37.3-44.6c2-22.6,22-39.3,44.6-37.3c22.6,2,39.3,22,37.3,44.6
					C441.2,68.5,421.2,85.2,398.6,83.1z"/>
				<path class="st12" d="M346.6,153.4c-1.2-8.2,4.5-14.8,12.8-14.8h297.7c8.1,0,15.7,6.5,16.9,14.5l34.6,225.3H379.5L346.6,153.4z"
					/>
				<path class="st12" d="M603.9,166.4c4.5,0,7.6-3.6,7-8c-0.6-4.4-4.8-8-9.2-8c-4.5,0-7.6,3.6-7,8
					C595.3,162.9,599.4,166.4,603.9,166.4z"/>
				<path class="st12" d="M629.9,166.4c4.5,0,7.6-3.6,7-8c-0.6-4.4-4.8-8-9.2-8c-4.5,0-7.6,3.6-7,8
					C621.2,162.9,625.4,166.4,629.9,166.4z"/>
				<path class="st12" d="M655.8,166.4c4.5,0,7.6-3.6,7-8c-0.6-4.4-4.8-8-9.2-8c-4.5,0-7.6,3.6-7,8
					C647.2,162.9,651.3,166.4,655.8,166.4z"/>
				<path class="st13" d="M679,178.2H349.9"/>
				<path class="st14" d="M832.1,448.4c-48.3-27.3-75.3-42.6-123.6-70l-329,0v9c0,2.2,1.2,4.2,3.1,5.2l115.9,64.2
					c4.4,2.4,9.4,3.7,14.4,3.7h313.4c3.3,0,5.9-2.7,5.9-5.9V448.4z"/>
				<path class="st14" d="M832.1,448.1H512.9c-5,0-10-1.3-14.4-3.7l-119-66h329.1L832.1,448.1z"/>
				<path class="st13" d="M767.5,431.5c0.6,0.3,0.4,1.3-0.3,1.3H762H523.3c-2.2,0-4.4-0.5-6.3-1.6L442.1,392
					c-0.6-0.3-0.4-1.3,0.3-1.3h254.4L767.5,431.5z"/>
				<defs>
					<filter id="Adobe_OpacityMaskFilter" filterUnits="userSpaceOnUse" x="435" y="359.3" width="347.5" height="80.6">
						<feColorMatrix  type="matrix" values="1 0 0 0 0  0 1 0 0 0  0 0 1 0 0  0 0 0 1 0"/>
					</filter>
				</defs>
				<mask maskUnits="userSpaceOnUse" x="435" y="359.3" width="347.5" height="80.6" id="mask0_695_254_1_">
					<path class="st15" d="M762.4,432.8h-239c-2.3,0-4.5-0.6-6.5-1.7c-23.8-13-38.1-20.8-62.7-34.3l-1.4-0.7
						c-2.6-1.4-1.6-5.4,1.4-5.4h242.7l65.5,37.9V432.8z"/>
				</mask>
				<g class="st16">
					<path class="st13" d="M782,438.9l-100.6-57.1"/>
					<path class="st13" d="M657.3,417.3l-100.6-57.1"/>
					<path class="st13" d="M612.1,418.1L511.5,361"/>
					<path class="st13" d="M487.2,372l99.1,56.2c0.9,0.5,1.5,1.5,1.5,2.5v2.3"/>
					<path class="st13" d="M598.1,372l99.1,56.2c0.9,0.5,1.5,1.5,1.5,2.5v2.3"/>
					<path class="st13" d="M620.7,372l99.1,56.2c0.9,0.5,1.5,1.5,1.5,2.5v2.3"/>
					<path class="st13" d="M642.2,372l99.1,56.2c0.9,0.5,1.5,1.5,1.5,2.5v2.3"/>
					<path class="st13" d="M762.1,429v3.8"/>
					<path class="st13" d="M435.5,371.9l104.8,56.2c1,0.5,1.5,1.5,1.5,2.6v2.4"/>
					<path class="st13" d="M566.5,379l67.7,38.4"/>
					<path class="st13" d="M590.4,417.8l-100.6-57.1"/>
					<path class="st13" d="M464.1,371.8l99.1,56.3c0.9,0.5,1.5,1.5,1.5,2.5v2.3"/>
					<path class="st13" d="M738.2,403.8H478.5c-1.6,0-3,1.3-3,3v1.6"/>
					<path class="st13" d="M769.7,417.9H505.4c-1.7,0-3,1.3-3,3v1.8"/>
					<path class="st13" d="M451.9,390.7v6.4"/>
				</g>
				<path class="st14" d="M251.9,440.4c-0.9-1-0.6-2.7,0.7-3.2l220.8-101c0.8-0.4,1.8-0.2,2.4,0.5l14,15.4l-3.2,159.5
					c0,1.3-1.3,2.3-2.6,1.9l-53.7-14.4l-34.6,41c-0.5,0.6-1.3,0.9-2.1,0.7l-98.6-26.4l-13.8-15.2c-0.7-0.8-0.7-1.9-0.1-2.7
					l25.7-30.5l-41.7-11.2L251.9,440.4z"/>
				<path class="st17" d="M265.1,454.9l224.7-102.8l-3.2,159.5c0,1.3-1.3,2.3-2.6,1.9l-53.7-14.4l-35.4,42l-99.9-26.8l35.4-42
					L265.1,454.9z"/>
				<path class="st13" d="M394.8,541.2l35.4-42l53.7,14.4c1.3,0.3,2.5-0.6,2.6-1.9l3.2-159.5L265.1,454.9l65.3,17.5l-35.4,42
					L394.8,541.2z M394.8,541.2l-99.9-26.8"/>
			</g>
		</g>
	</g>
</g>
<path class="st18" d="M537.6,226.3c30.6-4.1,58.9,17.7,63.1,48.8c4.2,31.1-17.3,59.6-47.9,63.8c-30.6,4.1-58.9-17.7-63.1-48.8
	C485.5,259,507,230.4,537.6,226.3z"/>
<path class="st18" d="M528.8,312.9l53-31.8l-53.9-26.8L528.8,312.9z"/>
<path class="st19" d="M622.2,199.4h41.2l7,40.4 M686.8,339.3l5.4,31.1h-38.1 M399,199.4h-31.1l4.7,40.4"/>
<g>
	<defs>
		<rect id="SVGID_7_" x="0.8" y="126.2" width="222.4" height="231.8"/>
	</defs>
	<clipPath id="SVGID_8_">
		<use xlink:href="#SVGID_7_"  style="overflow:visible;"/>
	</clipPath>
	<g class="st20">
		<path class="st21" d="M2.2,262.7c5.5-2.2,9.8-6.6,12.6-11.5c2.7-5.2,4.1-10.9,4.4-16.7c0.6,5.5,1.1,10.9,3.3,16.1
			c2.2,4.9,6.3,9.6,11.8,10.6c-5.2,0.8-9.3,4.9-11.5,9.6c-2.2,4.6-3,10.1-3.3,15.3c-0.5-4.9-1.4-9.8-3.8-14.2
			C12.8,267.4,8.2,264.1,2.2,262.7z"/>
		<path class="st3" d="M19.4,287.6c-0.8,0-1.4-0.5-1.4-1.4c-0.6-4.6-1.4-9.6-3.6-13.6c-2.7-4.4-7.1-7.4-12.6-8.5
			c-0.5,0-1.1-0.5-1.1-1.4c0-0.5,0.3-1.1,0.8-1.4c4.7-1.9,9-5.7,11.8-10.9c2.5-4.1,3.8-9.6,4.4-15.8c0-0.8,0.6-1.4,1.4-1.4
			c0.8,0,1.4,0.5,1.4,1.4c0.5,5.2,1.1,10.6,3,15.6c2.2,5.2,6.3,8.7,10.7,9.8c0.6,0,1.1,0.8,1.1,1.4c0,0.8-0.5,1.4-1.1,1.4
			c-4.4,0.8-8.2,4.1-10.7,8.7c-2.2,4.6-2.7,9.8-3,14.7C20.8,287,20.2,287.6,19.4,287.6z M6.3,262.5c4.7,1.6,8.2,4.6,10.7,8.7
			c1.1,1.6,1.6,3.5,2.2,5.5c0.6-2.2,1.1-4.4,2.2-6.6c1.9-4.1,4.9-7.4,8.5-9c-3.5-1.9-6.8-5.5-8.8-9.8c-1.1-2.2-1.6-4.6-2.2-6.8
			c-0.8,2.7-1.6,5.2-3,7.6C13.7,256.5,10.1,260,6.3,262.5z"/>
		<path class="st21" d="M136.5,194.8c4.4-1.4,7.9-4.4,10.1-7.9c2.2-3.5,3.3-7.4,3.6-11.5c0.3,3.8,0.8,7.6,2.7,10.9
			c1.9,3.5,5.2,6.6,9.6,7.1c-4.1,0.5-7.7,3.3-9.3,6.6c-1.9,3.3-2.5,6.8-2.5,10.4c-0.5-3.3-1.1-6.8-3-9.8
			C145.3,197.8,141.4,195.6,136.5,194.8z"/>
		<path class="st3" d="M150.5,212c-0.8,0-1.4-0.5-1.4-1.1c-0.5-3.3-1.1-6.6-2.7-9.3c-1.9-3-5.5-4.9-9.8-5.7c-0.6,0-1.1-0.5-1.1-1.4
			c0-0.5,0.3-1.4,1.1-1.4c3.8-1.4,7.1-3.8,9.3-7.4c1.9-3,3-6.6,3.3-10.6c0-0.8,0.6-1.4,1.4-1.4c0.8,0,1.4,0.5,1.4,1.4
			c0.3,3.5,0.8,7.4,2.5,10.4c1.9,3.5,4.9,6,8.5,6.6c0.8,0,1.1,0.8,1.1,1.4c0,0.8-0.6,1.4-1.1,1.4c-3.3,0.5-6.6,2.7-8.2,6
			c-1.6,3-2.2,6.6-2.5,9.8C151.8,211.4,151.3,212,150.5,212z M140.9,194.2c3.3,1.4,6,3.3,7.7,5.7c0.8,1.1,1.4,2.2,1.6,3.3
			c0.3-1.4,0.8-2.5,1.6-3.8c1.4-2.5,3.5-4.6,6.3-6c-2.7-1.4-4.9-3.5-6.3-6.6c-0.6-1.4-1.1-2.7-1.6-4.1c-0.6,1.6-1.4,3-2.2,4.4
			C146.1,190.4,143.6,192.6,140.9,194.2z"/>
		<path class="st21" d="M41.3,163.4c7.9-3,13.4-4.4,17.2-11.2c3.8-6.8,5.5-16.9,5.7-24.6c1.1,7.1,2.2,14.2,5.5,20.5
			c3.3,6.3,10.1,12,18,12.8c-7.7,1.4-13.7,6.8-17,13.1c-3.3,6.3-3.8,13.1-4.1,19.9c-1.1-6.3-2.2-15.6-6-21
			C56.9,167.2,50.3,164.5,41.3,163.4z"/>
		<path class="st3" d="M67.3,195.6c-0.6,0-1.4-0.5-1.4-1.1c-0.3-1.1-0.6-2.5-0.6-3.8c-0.8-5.7-2.2-12.6-5.2-16.7
			c-3.6-4.9-9.6-7.9-18.9-9c-0.6,0-1.1-0.5-1.4-1.4c0-0.5,0.3-1.4,0.8-1.4c0.6-0.3,1.4-0.5,1.9-0.8c6.8-2.5,11.2-4.1,14.5-9.8
			c4.4-7.4,5.5-19.1,5.5-23.7c0.3-1.1,1.1-1.6,1.6-1.6c0.8,0,1.4,0.5,1.4,1.1c1.1,6.8,1.9,13.9,5.5,19.9c3.8,6.8,10.1,11.2,17,12.3
			c0.8,0,1.1,0.5,1.4,1.4c0,0.8-0.5,1.4-1.1,1.4c-6.6,1.4-12.6,5.7-15.9,12.3c-3,6-3.8,12.8-3.8,19.1
			C68.6,194.8,68.1,195.3,67.3,195.6z M46.8,162.8c7.1,1.6,12,4.6,15.6,9.3c2.2,3,3.6,7.1,4.4,11.5c0.6-3.3,1.6-6.8,3.3-9.8
			c2.7-5.5,7.4-9.8,12.9-12.3c-5.7-2.2-10.9-6.6-13.9-12.3c-1.9-3.5-3.3-7.4-4.1-10.9c-0.8,4.9-2.5,10.6-4.9,15
			C56.6,158.5,52.5,160.6,46.8,162.8z"/>
		<path class="st21" d="M205.7,354.7L89.2,245.5l14-15L219.7,340c2.5,2.5,3.3,6,0.3,9l-5.2,5.7C211.7,357.2,208.2,357.2,205.7,354.7
			z"/>
		<path class="st3" d="M209.8,358c-1.9,0-3.8-0.8-5.2-2.2L88.4,246.4c-0.6-0.5-0.6-1.4,0-1.9l14-15c0.3-0.3,0.5-0.5,1.1-0.5
			c0.3,0,0.8,0,1.1,0.3l116.3,109.5c1.6,1.4,2.5,3.3,2.7,5.2c0.3,2.2-0.6,4.1-2.2,5.7l-5.5,6C213.9,357.2,211.7,358,209.8,358z
			 M206.5,353.6c2.2,1.9,4.9,1.9,7.1-0.3l5.2-5.5c1.1-1.1,1.6-2.5,1.6-3.5c0-1.1-0.8-2.2-1.6-3.3L103.4,232.4l-12,12.8L206.5,353.6z
			"/>
		<path class="st17" d="M116,270.7l-35-32.8c-2.2-2.2-2.2-5.5-0.3-7.6l6.6-6.8c2.2-2.5,5.5-2.2,7.7-0.3l35,32.8L116,270.7z"/>
		<path class="st3" d="M116.5,273.3c-0.3,0-0.8,0-1.1-0.3l-34.7-33c-2.7-2.5-2.7-6.8-0.3-9.8l6.6-6.8c2.7-3,6.8-3,9.8-0.3l35,32.8
			c0.6,0.5,0.6,1.4,0,1.9l-14,15C117.3,273.3,117.1,273.3,116.5,273.3z M91.9,224.2c-1.1,0-2.2,0.5-3,1.4l-6.6,6.8
			c-1.4,1.6-1.4,4.4,0.3,5.7l33.9,31.9l12-12.8l-33.9-31.9C93.8,224.4,93,224.2,91.9,224.2z"/>
		<path class="st3" d="M113,262.5h-0.3c-0.3-0.3-0.3-0.5,0-0.5l8.2-8.7c0.3-0.3,0.6-0.3,0.6,0c0.3,0.3,0.3,0.5,0,0.5l-8.2,8.7
			C113.2,262.5,113.2,262.5,113,262.5z"/>
	</g>
</g>
</svg>
