<?xml version="1.0" encoding="utf-8"?>
<!-- Generator: Adobe Illustrator 24.2.3, SVG Export Plug-In . SVG Version: 6.00 Build 0)  -->
<svg version="1.1" id="Layer_1" xmlns="http://www.w3.org/2000/svg" xmlns:xlink="http://www.w3.org/1999/xlink" x="0px" y="0px"
	 viewBox="0 0 1174.1 1075.4" style="enable-background:new 0 0 1174.1 1075.4;" xml:space="preserve">
<style type="text/css">
	.st0{clip-path:url(#SVGID_2_);}
	.st1{clip-path:url(#SVGID_4_);}
</style>
<path d="M143.8,784.3H80.7c-8.1,0-14.6,6.5-14.6,14.6V862c0,8.1,6.5,14.6,14.6,14.6h63.1c8.1,0,14.6-6.5,14.6-14.6v-63.1
	C158.4,790.8,151.9,784.3,143.8,784.3z M129.2,847.4H95.3v-33.9h33.9V847.4z M270.1,784.3h-63.1c-8.1,0-14.6,6.5-14.6,14.6V862
	c0,8.1,6.5,14.6,14.6,14.6h63.1c8.1,0,14.6-6.5,14.6-14.6v-63.1C284.7,790.8,278.1,784.3,270.1,784.3z M255.4,847.4h-33.9v-33.9
	h33.9V847.4z M396.3,784.3h-63.1c-8.1,0-14.6,6.5-14.6,14.6V862c0,8.1,6.5,14.6,14.6,14.6h63.1c8.1,0,14.6-6.5,14.6-14.6v-63.1
	C410.9,790.8,404.3,784.3,396.3,784.3z M381.7,847.4h-33.9v-33.9h33.9V847.4z M143.8,915.8H80.7c-8.1,0-14.6,6.5-14.6,14.6v63.1
	c0,8.1,6.5,14.6,14.6,14.6h63.1c8.1,0,14.6-6.5,14.6-14.6v-63.1C158.4,922.3,151.9,915.8,143.8,915.8z M129.2,978.9H95.3V945h33.9
	V978.9z M270.1,915.8h-63.1c-8.1,0-14.6,6.5-14.6,14.6v63.1c0,8.1,6.5,14.6,14.6,14.6h63.1c8.1,0,14.6-6.5,14.6-14.6v-63.1
	C284.7,922.3,278.1,915.8,270.1,915.8z M255.4,978.9h-33.9V945h33.9V978.9z M396.3,915.8h-63.1c-8.1,0-14.6,6.5-14.6,14.6v63.1
	c0,8.1,6.5,14.6,14.6,14.6h63.1c8.1,0,14.6-6.5,14.6-14.6v-63.1C410.9,922.3,404.3,915.8,396.3,915.8z M381.7,978.9h-33.9V945h33.9
	V978.9z M608.9,830v76.8c0,3.4-1.2,6.7-3.4,9.3l-29,34.8c-2.9,3.5-7,5.3-11.2,5.3c-3.3,0-6.6-1.1-9.3-3.4c-6.2-5.2-7-14.4-1.8-20.6
	l25.6-30.7V830c0-8.1,6.5-14.6,14.6-14.6C602.4,815.4,608.9,822,608.9,830z M1139.7,221.5h-45c-1.8,0-3.2-0.9-3.7-2.7
	c-3.4-10.2-7.5-20.2-12.4-29.8c-0.8-1.6-0.6-3.3,0.7-4.6l31.8-31.8c12.9-12.9,12.9-34,0-46.9L1067,61.7c-6.3-6.3-14.6-9.7-23.4-9.7
	c-8.9,0-17.2,3.4-23.4,9.7l-31.8,31.8c-1.3,1.3-2.9,1.6-4.6,0.7c-9.6-4.9-19.6-9-29.8-12.4c-1.8-0.6-2.7-1.9-2.7-3.7v-45
	c0-18.3-14.9-33.1-33.1-33.1h-62.4c-18.3,0-33.1,14.9-33.1,33.1v45c0,1.8-0.9,3.2-2.7,3.7c-10.2,3.4-20.2,7.5-29.8,12.4
	c-1.6,0.8-3.3,0.6-4.6-0.7l-31.8-31.8c-6.3-6.3-14.6-9.7-23.4-9.7s-17.2,3.4-23.4,9.7l-44.1,44.1c-12.9,12.9-12.9,34,0,46.9
	l31.8,31.8c1.3,1.3,1.6,2.9,0.7,4.6c-4.9,9.6-9,19.6-12.4,29.8c-0.6,1.8-1.9,2.7-3.7,2.7h-45c-18.3,0-33.1,14.9-33.1,33.1v16.6
	H367.8c-8.1,0-14.6,6.5-14.6,14.6v329.4H339v-27.6c0-15-12.2-27.2-27.2-27.2h-20.3c-15,0-27.2,12.2-27.2,27.2v27.6h-57.6v-27.6
	c0-15-12.2-27.2-27.2-27.2H159c-15,0-27.2,12.2-27.2,27.2v27.6H56.1c-31.1,0-56.3,25.3-56.3,56.3v347.1c0,15.1,5.9,29.2,16.6,39.9
	C27,1069.2,41,1075,56,1075h0.2l528.2-1.7c3.3,0.2,6.6,0.3,10,0.3c92,0,166.8-74.8,166.8-166.8c0-32-9.1-61.8-24.7-87.2h150.5
	c8.1,0,14.6-6.5,14.6-14.6V571.7h16.6c18.3,0,33.1-14.9,33.1-33.1v-45c0-1.8,0.9-3.2,2.7-3.7c10.2-3.4,20.2-7.5,29.8-12.4
	c1.6-0.8,3.3-0.6,4.6,0.7l31.8,31.8c6.3,6.3,14.6,9.7,23.4,9.7c8.9,0,17.2-3.4,23.4-9.7l44.1-44.1c6.3-6.3,9.7-14.6,9.7-23.4
	c0-8.9-3.4-17.2-9.7-23.4l-31.8-31.8c-1.3-1.3-1.6-2.9-0.7-4.6c4.9-9.6,9-19.6,12.4-29.8c0.6-1.8,1.9-2.7,3.7-2.7h45
	c18.3,0,33.1-14.9,33.1-33.1v-62.4C1172.8,236.4,1157.9,221.5,1139.7,221.5z M555.6,300.5h143.6v139.1l-60.8-70.3
	c-2.8-3.2-6.8-5.1-11-5.1c-4.2,0-8.3,1.8-11,5.1l-60.8,70.3L555.6,300.5L555.6,300.5z M293.4,589.6h16.4V670h-16.4V589.6z
	 M161,589.6h16.4V670H161V589.6z M56.1,644.4h75.8V672c0,15,12.2,27.2,27.2,27.2h20.3c15,0,27.2-12.2,27.2-27.2v-27.6h57.6V672
	c0,15,12.2,27.2,27.2,27.2h20.3c15,0,27.2-12.2,27.2-27.2v-27.6h57.6V672c0,15,12.2,27.2,27.2,27.2h20.3c15,0,27.2-12.2,27.2-27.2
	v-27.6h75.8c15,0,27.1,12.2,27.1,27.1v58.6H28.9v-58.6C28.9,656.6,41.1,644.4,56.1,644.4L56.1,644.4z M425.8,670v-80.4h16.4V670
	H425.8z M56,1045.8C56,1045.8,56,1045.8,56,1045.8c-7.2,0-13.9-2.8-19.1-7.9c-5.2-5.2-8-12-8-19.2V759.3h487.6
	c-52.9,28-89,83.6-89,147.5c0,57,28.8,107.5,72.6,137.5L56,1045.8z M594.3,1044.5c-75.9,0-137.6-61.7-137.6-137.6
	s61.7-137.6,137.6-137.6S731.9,831,731.9,906.9C731.9,982.7,670.2,1044.5,594.3,1044.5z M872.3,790.4H713.6
	c-28.3-29-67.1-47.8-110.1-50.1v-68.7c0-31.1-25.3-56.3-56.3-56.3h-75.7v-27.6c0-15-12.2-27.2-27.2-27.2h-20.3
	c-15,0-27.2,12.2-27.2,27.2v27.6h-14.2V300.5h144v178.3c0,6.1,3.8,11.6,9.5,13.7c5.7,2.1,12.1,0.5,16.1-4.1l75.4-87.2l75.4,87.2
	c2.8,3.3,6.9,5.1,11,5.1c1.7,0,3.4-0.3,5.1-0.9c5.7-2.1,9.5-7.6,9.5-13.7V300.5h144L872.3,790.4L872.3,790.4z M886.9,271.3H776.2
	c7.2-54.7,54.1-97.1,110.7-97.1c61.6,0,111.7,50.1,111.7,111.7c0,56.6-42.4,103.5-97.1,110.7V285.9
	C901.5,277.8,895,271.3,886.9,271.3z M1143.6,317c0,2.1-1.8,3.9-3.9,3.9h-45c-14.4,0-27,9.2-31.5,22.8c-2.9,8.8-6.5,17.5-10.7,25.7
	c-6.5,12.8-4,28.3,6.1,38.4l31.8,31.8c1,1,1.1,2.2,1.1,2.8c0,0.6-0.1,1.8-1.1,2.8l-44.1,44.1c-1,1-2.2,1.1-2.8,1.1
	c-0.6,0-1.8-0.1-2.8-1.1l-31.8-31.8c-10.1-10.1-25.6-12.6-38.4-6.1c-8.3,4.2-16.9,7.8-25.7,10.7c-13.6,4.5-22.8,17.1-22.8,31.5v45
	c0,2.1-1.8,3.9-3.9,3.9h-16.6V426c70.8-7.3,126.3-67.4,126.3-140.1c0-77.7-63.2-140.9-140.9-140.9c-72.8,0-132.8,55.4-140.1,126.3
	H630.3v-16.6c0-2.1,1.8-3.9,3.9-3.9h45c14.4,0,27-9.2,31.5-22.8c2.9-8.8,6.5-17.5,10.7-25.7c6.5-12.8,4-28.2-6.1-38.4l-31.8-31.8
	c-1.5-1.5-1.5-4.1,0-5.6l44.1-44.1c1-1,2.2-1.1,2.8-1.1c0.6,0,1.8,0.1,2.8,1.1l31.8,31.8c10.1,10.1,25.6,12.6,38.4,6.1
	c8.3-4.2,16.9-7.8,25.7-10.7c13.6-4.5,22.8-17.1,22.8-31.5V33.1c0-2.1,1.8-3.9,3.9-3.9h62.4c2.1,0,3.9,1.8,3.9,3.9v45
	c0,14.4,9.2,27,22.8,31.5c8.8,2.9,17.5,6.5,25.7,10.7c12.8,6.5,28.3,4,38.4-6.1l31.8-31.8c1-1,2.2-1.1,2.8-1.1
	c0.6,0,1.8,0.1,2.8,1.1l44.1,44.1c1.5,1.5,1.5,4.1,0,5.5l-31.8,31.8c-10.1,10.1-12.6,25.6-6.1,38.4c4.2,8.3,7.8,16.9,10.7,25.7
	c4.5,13.6,17.1,22.8,31.5,22.8h45c2.1,0,3.9,1.8,3.9,3.9L1143.6,317L1143.6,317z"/>
</svg>
