<?xml version="1.0" encoding="utf-8"?>
<!-- Generator: Adobe Illustrator 24.2.3, SVG Export Plug-In . SVG Version: 6.00 Build 0)  -->
<svg version="1.1" id="Layer_1" xmlns="http://www.w3.org/2000/svg" xmlns:xlink="http://www.w3.org/1999/xlink" x="0px" y="0px"
	 viewBox="0 0 1035 1080" style="enable-background:new 0 0 1035 1080;" xml:space="preserve">
<style type="text/css">
	.st0{clip-path:url(#SVGID_2_);}
	.st1{clip-path:url(#SVGID_4_);}
</style>
<g id="_x31_41_x2C__Creative_x2C__design_x2C__gear_x2C__pen_1_">
	<g>
		<path d="M853.1,479.9l-100.3-22.4c-6.9-25.5-17.1-50-30.3-73.1l55.1-87c5.6-8.9,4.3-20.5-3.1-27.9l-53.9-53.9
			c-7.5-7.4-19.1-8.7-28-3.1l-87,55.2c-22.9-13.1-47.4-23.3-73.1-30.4l-22.4-100.4c-2.3-10.3-11.4-17.6-22-17.6h-76.3
			c-10.5,0-19.7,7.3-22,17.6l-0.8,3.6c-19.8-17.4-45.7-27.9-74.1-27.9c-62,0-112.5,50.5-112.5,112.5c0.1,575.7-0.3,540.9,0.6,544.9
			c0.4,1.6,0.9,3.2,1.6,4.7c0.6,1.3,71.3,142.6,90.2,180.4c3.8,7.6,11.6,12.4,20.1,12.4s16.3-4.8,20.1-12.4l40.2-80.4l14.5,68.3
			c2.2,10.4,11.4,17.8,22,17.8h76.3c10.5,0,19.7-7.3,22-17.6l22.4-100.3c25.6-6.9,50.1-17.1,73.1-30.3l87,55.1
			c8.9,5.6,20.5,4.3,28-3.1l53.9-53.9c7.4-7.5,8.7-19.1,3.1-28l-55.1-87c13.2-23.2,23.4-47.6,30.3-73.1l100.3-22.4
			c10.3-2.3,17.6-11.4,17.6-22v-76.3C870.7,491.3,863.4,482.2,853.1,479.9L853.1,479.9z M247.5,742.5V360h45v382.5H247.5z
			 M382.5,315h-135v-22.5h135V315z M337.5,360h45v382.5h-45V360z M427.5,451.7c57.7-14.9,113.6,29.1,113.6,88.4
			c0,59.3-56.2,103-113.6,88.1V451.7z M315,157.5c37.2,0,67.5,30.3,67.5,67.5v22.5h-135V225C247.5,187.8,277.8,157.5,315,157.5z
			 M315,894.7l-53.6-107.2h107.2L315,894.7z M825.7,560.1l-96.3,21.5c-8.5,1.9-15.2,8.6-17.1,17.1c-6.7,30.1-18.6,58.7-35.3,85.2
			c-4.6,7.4-4.6,16.7,0,24.1l52.9,83.5L701.5,820L618,767.1c-7.4-4.7-16.8-4.6-24.1,0c-26.2,16.7-54.8,28.5-85.1,35.3
			c-8.5,1.9-15.2,8.5-17.1,17.1l-21.5,96.3h-40.1L407.6,810c7.1-14.1,16.9-33.8,17.7-35.4c1-2,1.6-4.2,2-6.6
			c0.4-2.8,0.2,4.8,0.2-93.9c83,14,158.6-50.2,158.6-134.1c0-83.9-75.4-148.4-158.6-134.3V225c0-10.7-1.5-21-4.3-30.8l6.7-29.9h40.3
			l21.5,96.3c1.9,8.5,8.5,15.1,17,17c30.6,7,59.3,18.9,85.2,35.4c7.4,4.7,16.8,4.7,24.2,0l83.5-53l28.4,28.4L677.1,372
			c-4.6,7.3-4.6,16.7,0,24.1c16.7,26.5,28.6,55.1,35.3,85.2c1.9,8.5,8.5,15.2,17.1,17.1l96.3,21.5L825.7,560.1z"/>
		<circle cx="77" cy="337.5" r="22.5"/>
		<circle cx="77" cy="270" r="22.5"/>
		<circle cx="77" cy="202.5" r="22.5"/>
		<ellipse transform="matrix(0.1602 -0.9871 0.9871 0.1602 111.3894 265.922)" cx="212" cy="67.5" rx="22.5" ry="22.5"/>
		<circle cx="279.5" cy="67.5" r="22.5"/>
		<circle cx="347" cy="67.5" r="22.5"/>
		<circle cx="414.5" cy="67.5" r="22.5"/>
		<circle cx="482" cy="67.5" r="22.5"/>
		<circle cx="549.5" cy="67.5" r="22.5"/>
		<circle cx="617" cy="67.5" r="22.5"/>
		<circle cx="684.5" cy="67.5" r="22.5"/>
		<circle cx="752" cy="67.5" r="22.5"/>
		<circle cx="819.5" cy="67.5" r="22.5"/>
		<circle cx="954.5" cy="202.5" r="22.5"/>
		<circle cx="954.5" cy="270" r="22.5"/>
		<circle cx="954.5" cy="337.5" r="22.5"/>
		<circle cx="77" cy="405" r="22.5"/>
		<circle cx="954.5" cy="405" r="22.5"/>
		<circle cx="77" cy="472.5" r="22.5"/>
		<circle cx="954.5" cy="472.5" r="22.5"/>
		<circle cx="77" cy="540" r="22.5"/>
		<circle cx="954.5" cy="540" r="22.5"/>
		<circle cx="77" cy="607.5" r="22.5"/>
		<circle cx="954.5" cy="607.5" r="22.5"/>
		<circle cx="77" cy="675" r="22.5"/>
		<circle cx="954.5" cy="675" r="22.5"/>
		<circle cx="954.5" cy="742.5" r="22.5"/>
		<circle cx="954.5" cy="810" r="22.5"/>
		<circle cx="954.5" cy="877.5" r="22.5"/>
		<circle cx="819.5" cy="1012.5" r="22.5"/>
		<circle cx="752" cy="1012.5" r="22.5"/>
		<circle cx="684.5" cy="1012.5" r="22.5"/>
		<circle cx="617" cy="1012.5" r="22.5"/>
		<circle cx="549.5" cy="1012.5" r="22.5"/>
		<circle cx="482" cy="1012.5" r="22.5"/>
		<circle cx="414.5" cy="1012.5" r="22.5"/>
		<circle cx="347" cy="1012.5" r="22.5"/>
		<circle cx="279.5" cy="1012.5" r="22.5"/>
		<ellipse transform="matrix(0.1602 -0.9871 0.9871 0.1602 -821.4088 1059.5503)" cx="212" cy="1012.5" rx="22.5" ry="22.5"/>
		<circle cx="77" cy="877.5" r="22.5"/>
		<circle cx="77" cy="810" r="22.5"/>
		<circle cx="77" cy="742.5" r="22.5"/>
		<path d="M956.3,157.5c43.4,0,78.7-35.3,78.7-78.7S999.7,0,956.3,0c-43.4,0-78.7,35.3-78.7,78.7S912.8,157.5,956.3,157.5z
			 M956.3,45c18.6,0,33.7,15.1,33.7,33.7s-15.1,33.7-33.7,33.7s-33.7-15.1-33.7-33.7S937.6,45,956.3,45z"/>
		<path d="M78.7,0C35.3,0,0,35.3,0,78.7s35.3,78.7,78.7,78.7s78.7-35.3,78.7-78.7S122.2,0,78.7,0z M78.7,112.5
			C60.1,112.5,45,97.4,45,78.7S60.1,45,78.7,45s33.7,15.1,33.7,33.7S97.4,112.5,78.7,112.5z"/>
		<path d="M78.7,922.5c-43.4,0-78.7,35.3-78.7,78.8c0,43.4,35.3,78.7,78.7,78.7s78.7-35.3,78.7-78.7
			C157.5,957.8,122.2,922.5,78.7,922.5z M78.7,1035c-18.6,0-33.7-15.1-33.7-33.7c0-18.6,15.1-33.7,33.7-33.7s33.7,15.1,33.7,33.7
			C112.5,1019.9,97.4,1035,78.7,1035z"/>
		<path d="M956.3,922.5c-43.4,0-78.7,35.3-78.7,78.8c0,43.4,35.3,78.7,78.7,78.7c43.4,0,78.7-35.3,78.7-78.7
			C1035,957.8,999.7,922.5,956.3,922.5z M956.3,1035c-18.6,0-33.7-15.1-33.7-33.7c0-18.6,15.1-33.7,33.7-33.7s33.7,15.1,33.7,33.7
			C990,1019.9,974.9,1035,956.3,1035z"/>
	</g>
</g>
</svg>
