<?xml version="1.0" encoding="utf-8"?>
<!-- Generator: Adobe Illustrator 24.2.3, SVG Export Plug-In . SVG Version: 6.00 Build 0)  -->
<svg version="1.1" id="Layer_1" xmlns="http://www.w3.org/2000/svg" xmlns:xlink="http://www.w3.org/1999/xlink" x="0px" y="0px"
	 viewBox="0 0 1080 1080" style="enable-background:new 0 0 1080 1080;" xml:space="preserve">
<style type="text/css">
	.st0{clip-path:url(#SVGID_2_);}
	.st1{clip-path:url(#SVGID_4_);}
</style>
<g>
	<g>
		<defs>
			<rect id="SVGID_3_" width="1080" height="1080"/>
		</defs>
		<clipPath id="SVGID_2_">
			<use xlink:href="#SVGID_3_"  style="overflow:visible;"/>
		</clipPath>
		<g class="st0">
			<path d="M1010.5,226.5c-18.7,0-36.1,7.2-49.2,20.5c-13,13.3-20.2,30.9-20.2,49.4l0.2,30.9l-4.4,10.9
				c-18.3,45.1-48.6,84.3-87.5,113.5c-39.6,29.8-86.2,47.7-135.2,52.3v-68.4c38.3,0,69.7-31.4,69.7-69.7v-17.4h8.1
				c24.4,0,44.2-19.8,44.2-44.2c0-8.7-2.6-17.2-7.4-24.4l-21.6-32.4c-3.9-5.7-5.9-12.4-5.9-19.4v-61.2c30.7-13.5,52.3-44,52.3-79.7
				c0-48.1-39-87.1-87.1-87.1H657.3C535,0,435.5,99.5,435.5,221.9c0,84.7,47,160.7,122.8,198.6l16.5,8.3v6.8h-27.4
				c-40.7,0-81,6.1-119.5,17.4H261.3v34.8h81.7c-23.5,12.8-46.2,27.6-67.1,44.6l-15.7,12.8c-5.4,4.6-10.9,9.1-15.9,14l-96.2-42
				L46.6,740.5l93,40.7c0,0.9-0.2,1.7-0.2,2.6c0,29.6,18.5,54.7,44.6,64.9c-40.7,63.8-62.1,137.2-62.1,213.8v17.4h801.3v-17.4
				c0-121.1-54.2-229.7-139.4-303.3v-49c0-25.3-3.3-49.9-9.4-73.6c53.3-11.5,103.4-35.5,145.9-70.1l39-32
				c42.7-35.1,76.9-80.4,98.6-131.1c14.6-34.2,22-70.3,22-107.5C1080,257.6,1048.8,226.5,1010.5,226.5z M985.9,271.5
				c6.5-6.5,15.2-10.2,24.6-10.2c19.2,0,34.6,15.5,34.6,34.6c0,19.4-2.6,38.3-7.2,56.8c-32.7-9.8-52.9-22.6-61.8-29.6l-0.2-27
				C975.7,287,979.4,278.1,985.9,271.5z M650.2,597.9l91.7,50.9c2.2,8.9,3.7,18.1,5,27.5l-111.5-55.7L650.2,597.9z M657.1,562
				l-46.4-81c50.5,26.6,89.9,68.4,113.4,118.4L657.1,562z M778.2,266.7l21.6,32.4c1.1,1.5,1.5,3.3,1.5,5.2c0,5.2-4.1,9.4-9.4,9.4
				H749V366c0,19.2-15.7,34.8-34.8,34.8h-69.7v34.8h34.8v49.6c-20.7-17.4-44-32.2-69.7-43.8V341.4l-25-25
				c-6.1-6.1-9.8-14.8-9.8-23.5c0-12.6,7-23.9,18.3-29.6l16.5-8.3v-47.7c0-18.3,14.8-33.1,33.1-33.1h54h17.4h52.3V228
				C766.4,241.9,770.6,255.2,778.2,266.7z M573.7,389.3c-63.8-31.8-103.4-96-103.4-167.4c0-103.2,84-187.1,187-187.1h109.1
				c28.7,0,52.3,23.5,52.3,52.3c0,28.7-23.5,52.3-52.3,52.3h-52.3h-17.4c-9.6,0-17.4-7.8-17.4-17.4c0-9.6,7.8-17.4,17.4-17.4h17.4
				V69.7h-17.4c-28.7,0-52.3,23.5-52.3,52.3c0,6.1,1.3,12,3.3,17.4H643c-37.7,0-68.2,30.5-68.2,69.7v24.2
				c-21.6,12-34.8,34.4-34.8,59.4c0,18.1,7,35.3,20,48.1l14.8,14.8v34.2L573.7,389.3z M564.8,470.3l49.9,87.1h-29.4l-48.1-86.7
				c3.5,0,7-0.4,10.5-0.4H564.8z M189.6,624c-8.9-17.6-14.2-37.2-15-57l43.8,19.2C207.9,597.9,198.3,610.8,189.6,624z M92.7,722.7
				l52.9-116.3c5,18.5,13.3,36.4,24,52.3c-3,5.9-5.7,12-8.3,17.9c-9.4,21.8-15.5,44.6-18.7,67.7L92.7,722.7z M181.4,727
				c33.1,10,53.6,23.3,62.5,30v26.8c0,19.2-15.7,34.8-34.8,34.8s-34.8-15.7-34.8-34.8C174.2,764.5,176.8,745.5,181.4,727z
				 M349.2,643.2l63.1,27.6l-3.5,7.6c-45.3,13.5-88,34.8-126.3,63.6C297.4,704.2,320.1,670.6,349.2,643.2z M243,965.7l31.4,13.1
				l13.3-32.2l-31.4-13.1c12-24.6,27.2-47,45.1-67.3l24,24l24.6-24.6l-24-24c20.2-17.9,42.7-33.1,67.3-45.1l13.1,31.4l32.2-13.3
				l-13.1-31.4c25.3-8.7,51.8-14.1,79.5-15.7v33.8h34.8v-34c27.7,1.5,54.4,7,79.5,15.7l-13.1,31.4l32.2,13.3l13.1-31.4
				c24.6,12,47,27.2,67.3,45.1l-24,24l24.6,24.6l24-24c17.9,20.2,33.1,42.9,45.1,67.3l-31.4,13.1l13.3,32.2l31.4-13.1
				c8.7,25.3,14.2,51.8,15.7,79.5H642.8c-5.2-37-27.2-68.6-58.1-87.1l40.7-97.8l-32.2-13.5l-40.7,97.8c-9.6-2.6-19.8-3.9-30.3-3.9
				c-61.4,0-112.1,45.5-120.6,104.5H226.9C229,1017.5,234.3,990.7,243,965.7z M607.9,1045.2H437.2c8.1-39.6,43.3-69.7,85.4-69.7
				C564.6,975.5,599.9,1005.5,607.9,1045.2z M887.9,1045.2h-35.3c-9.1-174.4-153.5-313.6-330.1-313.6
				c-176.6,0-321,139.1-330.1,313.6h-35.3c3.3-69.9,26.1-136.1,66.6-193.1c29.2-6.3,51.2-30.9,54.2-61
				c67.3-60.8,153.7-94.3,244.5-94.3C718.5,696.8,878.8,851.6,887.9,1045.2z M522.6,661.9c-24,0-47.7,2.4-71,6.5l7-15.2l-79.3-34.8
				c6.8-4.8,13.7-9.1,21.1-13.3l26.3-15l-17.2-30.3l-26.3,15c-58.6,33.5-103.9,84.9-129.8,146.8c-13.3-8.5-33.5-19-61.2-27.4
				c0.4-1.1,0.9-2.4,1.3-3.5c19.6-45.7,50.3-86.7,88.8-118.2l15.7-12.8c40.1-32.7,86-56.8,135-71.6h2.4v-0.6
				c20.7-6.1,41.8-10.5,63.4-13.3l65.8,118.4h47.5l-27.7,41.6l164.8,82.3v16.1C684.6,688.1,606.6,661.9,522.6,661.9z M937.2,507.6
				l-39,32c-39,31.8-85.1,53.6-134.3,63.6c-9.1-23.5-21.3-45.7-35.9-66c51.6-6.8,100.4-26.1,142.4-57.7
				c41.8-31.4,74.7-73.2,95.6-121.1c13.3,8.5,33.5,19.2,61.4,27.4c-0.4,1.3-0.9,2.4-1.3,3.7C1006.4,435.5,975.7,476.2,937.2,507.6z"
				/>
			<path d="M0,243.9h400.6v34.8H0V243.9z"/>
			<path d="M261.3,174.2h139.4V209H261.3V174.2z"/>
			<path d="M191.6,174.2h34.8V209h-34.8V174.2z"/>
			<path d="M0,104.5h209v34.8H0V104.5z"/>
			<path d="M209,34.8h209v34.8H209V34.8z"/>
			<path d="M104.5,313.5h174.2v34.8H104.5V313.5z"/>
			<path d="M34.8,383.2H209v34.8H34.8V383.2z"/>
			<path d="M278.7,383.2h139.4v34.8H278.7V383.2z"/>
		</g>
	</g>
</g>
</svg>
