<?xml version="1.0" encoding="utf-8"?>
<!-- Generator: Adobe Illustrator 24.2.3, SVG Export Plug-In . SVG Version: 6.00 Build 0)  -->
<svg version="1.1" id="Layer_1" xmlns="http://www.w3.org/2000/svg" xmlns:xlink="http://www.w3.org/1999/xlink" x="0px" y="0px"
	 viewBox="0 0 1082 1080" style="enable-background:new 0 0 1082 1080;" xml:space="preserve">
<style type="text/css">
	.st0{clip-path:url(#SVGID_2_);}
	.st1{clip-path:url(#SVGID_4_);}
</style>
<g>
	<defs>
		<rect id="SVGID_1_" x="2" y="0.4" width="1079.6" height="1079.6"/>
	</defs>
	<clipPath id="SVGID_2_">
		<use xlink:href="#SVGID_1_"  style="overflow:visible;"/>
	</clipPath>
	<path class="st0" d="M541.8,1044C263.6,1044,38,818.4,38,540.2c0-133.6,53.1-261.8,147.5-356.3c196.8-196.8,515.7-196.6,712.5,0.2
		c169.4,169.4,195.9,434.3,63.9,634l29.9,19.8c164.4-248.8,96.3-583.7-152.5-748.1C625.5-51.6,341.4-23,160.1,158.5
		c-210.8,210.8-210.8,552.6,0,763.4c181.5,181.3,465.4,210.1,679.5,68.6l-19.8-29.9C737.3,1015.2,640.5,1044.2,541.8,1044z"/>
	<path class="st0" d="M986.3,869.2c-3.4-3.4-7.9-5.2-12.8-5.2h-28.6l-164-164c72.6-108.6,63-252.4-23.4-350.4v-61.4
		c0-9.9-8.1-18-18-18H597.6l9.2-18.4c29.5,3.6,56.5-17.3,60.3-46.8c0.9-7.4,0.2-14.8-1.8-21.8c147.8,51.3,254.2,192.1,254.2,356.9
		c0,66.3-17.3,131.6-50.6,188.9l31,18c36.2-63,55.3-134.3,55.3-206.9c0-228.3-185.6-413.9-413.8-413.9
		C313.1,126.3,128,311.9,128,540.2S313.5,954,541.8,954c73.3,0,145.5-19.3,208.7-56.5l-18.2-31c-57.8,33.7-123.7,51.5-190.5,51.5
		c-208.3,0-377.9-169.6-377.9-377.9s169.4-377.9,377.9-377.9c10.3,0,20.5,0.4,30.6,1.3c-17.8,21.1-16.9,52.4,2.5,72.2l-17.3,34.4
		H343.9c-9.9,0-18,8.1-18,18v61.4c-87,98.7-96,244-21.8,352.9c-8.3,1.8-14.2,9.2-14.2,17.5v36c0,29.7,24.3,54,54,54h388.4
		l133.4,133.4V972c0,4.7,1.8,9.5,5.2,12.8l90,90c7,7,18.4,7,25.4,0c2.3-2.3,4.1-5.2,4.7-8.3l15.3-61.4l61.4-15.3
		c9.7-2.5,15.5-12.1,13.1-21.8c-0.9-3.2-2.5-6.1-4.7-8.3L986.3,869.2z M613.8,216.3c-9.9,0-18-8.1-18-18s8.1-18,18-18
		c9.9,0,18,8.1,18,18S623.7,216.3,613.8,216.3z M883.7,910.6L631.8,658.7v-28.6h28.6l251.9,251.9L883.7,910.6z M578,525.8l8.8,43.6
		l-34.2-25.6c-6.3-4.7-15.3-4.7-21.6,0l-34.4,25.6l8.8-43.9c1.1-5.8-0.7-11.9-4.9-16.2l-23.2-23.2h28.6c6.7,0,13-3.8,16.2-9.9
		l19.8-39.8l19.8,39.8c3.2,6.1,9.2,9.9,16.2,9.9h28.6l-23.2,23.2C578.7,513.7,576.9,520,578,525.8z M793.7,540.2
		c0.2,45.7-12.4,90.6-36,129.8V410.4C781.4,449.6,793.7,494.5,793.7,540.2z M539.6,306.3l-13.9,27.9l32.2,16.2l22-44.1h141.9v334.5
		l-41.2-41.2c-3.4-3.4-7.9-5.2-12.8-5.2h-39.1l-13.3-66.1l47.2-47.2c7-7,7-18.4,0-25.4c-3.4-3.4-7.9-5.2-12.8-5.2h-61l-31-62.1
		c-4.5-9-15.3-12.6-24.1-8.1c-3.4,1.8-6.3,4.5-8.1,8.1l-31,61.9h-60.7c-9.9,0-18,8.1-18,18c0,4.7,1.8,9.4,5.2,12.8l47.2,47.2
		l-16.2,80.5c-2,9.7,4.3,19.1,14.2,21.1c4.9,0.9,10.1-0.2,14.4-3.1l61.2-46.1l54,40.5v45c0,4.7,1.8,9.5,5.2,12.8l23.2,23.2H361.9
		V306.3H539.6z M325.9,410.4V670C277.8,590.1,277.8,490.3,325.9,410.4z M343.9,774.1c-9.9,0-18-8.1-18-18v-18h334.5l36,36H343.9z
		 M987.2,972.5c-6.5,1.6-11.5,6.7-13,13l-10.4,41.2l-62.1-62.1v-21.1l43.4-43.4h21.1l62.3,62.3L987.2,972.5z"/>
	<path class="st0" d="M637,365.5l-35.9,36l25.4,25.4l35.9-35.9L637,365.5z"/>
	<path class="st0" d="M446.6,365.5L421.1,391l35.9,35.9l25.4-25.4L446.6,365.5z"/>
</g>
</svg>
