<?xml version="1.0" encoding="utf-8"?>
<!-- Generator: Adobe Illustrator 24.2.3, SVG Export Plug-In . SVG Version: 6.00 Build 0)  -->
<svg version="1.1" id="Layer_1" xmlns="http://www.w3.org/2000/svg" xmlns:xlink="http://www.w3.org/1999/xlink" x="0px" y="0px"
	 viewBox="0 0 1075.1 1075.4" style="enable-background:new 0 0 1075.1 1075.4;" xml:space="preserve">
<style type="text/css">
	.st0{clip-path:url(#SVGID_2_);}
	.st1{clip-path:url(#SVGID_4_);}
</style>
<g>
	<path d="M277.4,589.5c-114.7,0-208.1,93.3-208.1,208.1s93.3,208.1,208.1,208.1s208.1-93.3,208.1-208.1S392.1,589.5,277.4,589.5z
		 M277.4,971C181.8,971,104,893.2,104,797.6s77.8-173.4,173.4-173.4S450.8,702,450.8,797.6S373,971,277.4,971z"/>
	<circle cx="277.4" cy="676.2" r="17.3"/>
	<path d="M179.3,699.5c-6.8,6.8-6.8,17.8,0,24.5c6.8,6.8,17.8,6.8,24.5,0c6.8-6.8,6.8-17.8,0-24.5
		C197.1,692.7,186.1,692.7,179.3,699.5z"/>
	<circle cx="156" cy="797.6" r="17.3"/>
	<path d="M179.3,871.1c-6.8,6.8-6.8,17.8,0,24.5c6.8,6.8,17.8,6.8,24.5,0c6.8-6.8,6.8-17.8,0-24.5
		C197.1,864.4,186.1,864.4,179.3,871.1z"/>
	<circle cx="277.4" cy="919" r="17.3"/>
	<path d="M351,871.1c-6.8,6.8-6.8,17.8,0,24.5c6.8,6.8,17.8,6.8,24.5,0c6.8-6.8,6.8-17.8,0-24.5C368.7,864.4,357.7,864.4,351,871.1z
		"/>
	<circle cx="398.8" cy="797.6" r="17.3"/>
	<path d="M351,699.5c-6.8,6.8-6.8,17.8,0,24.5c6.8,6.8,17.8,6.8,24.5,0c6.8-6.8,6.8-17.8,0-24.5S357.7,692.7,351,699.5z"/>
	<path d="M235,748.5l-19.2,28.9l56.4,37.6h39.9v-34.7h-29.4L235,748.5z"/>
	<path d="M1023,69.4h-86.7V34.7c0-19.1-15.6-34.7-34.7-34.7h-69.4c-19.1,0-34.7,15.6-34.7,34.7v34.7H416.1V34.7
		c0-19.1-15.6-34.7-34.7-34.7h-69.4c-19.1,0-34.7,15.6-34.7,34.7v34.7h-86.7c-28.7,0-52,23.3-52,52v436.3
		C55.9,605.8,0,695.2,0,797.6c0,153,124.5,277.4,277.4,277.4c129,0,237.4-88.6,268.3-208.1H1023c28.7,0,52-23.3,52-52V121.4
		C1075,92.7,1051.7,69.4,1023,69.4z M832.3,34.7h69.4l0,104h-69.4V34.7z M312.1,34.7h69.4l0,104h-69.4V34.7z M190.7,104h86.7v34.7
		c0,19.1,15.6,34.7,34.7,34.7h69.4c19.1,0,34.7-15.6,34.7-34.7V104h381.5v34.7c0,19.1,15.6,34.7,34.7,34.7h69.4
		c19.1,0,34.7-15.6,34.7-34.7V104h86.7c9.6,0,17.3,7.8,17.3,17.3v86.7H173.4v-86.7C173.4,111.8,181.2,104,190.7,104z M277.4,1040.3
		c-133.9,0-242.7-108.9-242.7-242.7s108.9-242.7,242.7-242.7s242.7,108.9,242.7,242.7S411.3,1040.3,277.4,1040.3z M534.4,693.5
		h297.8v69.4l115.6-86.7l-115.6-86.7v69.4H710.4c42.3-31.6,69.8-82,69.8-138.7c0-95.6-77.8-173.4-173.4-173.4
		c-69.2,0-131.5,41.3-158.9,104h-83.9l86.7,115.6l86.7-115.6H487c24.5-42.2,69.9-69.4,119.9-69.4c76.5,0,138.7,62.2,138.7,138.7
		s-62.2,138.7-138.7,138.7h-89.6c-48.1-82.8-137.5-138.7-239.9-138.7c-11.8,0-23.3,1-34.7,2.4V312.1H971v450.8H832.3H552.4
		C549.4,738.7,543.3,715.4,534.4,693.5L534.4,693.5z M866.9,693.5v-34.7l23.1,17.3L866.9,693.5z M468.1,485.5l-17.3,23.1l-17.3-23.1
		H468.1z M1023,832.3H552.4c1.4-11.4,2.4-22.9,2.4-34.7h450.8V277.4H208.1v251.9c-11.9,3.1-23.5,6.7-34.7,11.3V242.7h866.9v572.2
		C1040.3,824.5,1032.6,832.3,1023,832.3z"/>
	<path d="M797.6,346.8h138.7v34.7H797.6V346.8z"/>
	<path d="M797.6,416.1h138.7v34.7H797.6V416.1z"/>
</g>
</svg>
