<?xml version="1.0" encoding="utf-8"?>
<!-- Generator: Adobe Illustrator 24.2.3, SVG Export Plug-In . SVG Version: 6.00 Build 0)  -->
<svg version="1.1" id="Layer_1" xmlns="http://www.w3.org/2000/svg" xmlns:xlink="http://www.w3.org/1999/xlink" x="0px" y="0px"
	 viewBox="0 0 486.6 512" style="enable-background:new 0 0 486.6 512;" xml:space="preserve">
<g>
	<path d="M178.2,443.2h-0.7v-23.4c0-12.7-4.5-23.7-13.5-32.6l-71-71c-8-8-19.4-10.8-29.7-8.4v-70.3c0-17.4-14.2-31.6-31.6-31.6
		S0,220.1,0,237.5v107.7c0,8.3,3.2,16.2,9.1,22.1l60.5,67.7v8.1h-2.4c-4.8,0-8.8,3.9-8.8,8.8v51.3c0,4.8,3.9,8.8,8.8,8.8l111,0
		c2.3,0,4.6-0.9,6.2-2.6c1.6-1.6,2.6-3.9,2.6-6.2V452C187,447.1,183,443.2,178.2,443.2L178.2,443.2z M84.9,425.9L22,355.5
		c-0.1-0.1-0.2-0.2-0.3-0.4c-2.7-2.7-4.1-6.2-4.1-9.9V237.5c0-7.8,6.3-14.1,14.1-14.1s14.1,6.3,14.1,14.1v81.6
		c-4.3,5.5-6.7,12.3-6.7,19.4c0,8.5,3.3,16.4,9.2,22.4L85.3,398c1.7,1.7,4,2.6,6.2,2.6s4.5-0.9,6.2-2.6c3.4-3.4,3.4-9,0-12.4
		l-37.1-37.1c-5.5-5.5-5.5-14.4,0-19.9c0,0,0,0,0,0c5.5-5.5,14.4-5.5,19.9,0l71,71c5.6,5.6,8.4,12.2,8.4,20.2v23.4H87.1v-11.5
		C87.1,429.5,86.3,427.5,84.9,425.9z M169.4,494.4l-93.5,0v-33.7h93.5V494.4z M455,205.9c-17.4,0-31.6,14.2-31.6,31.6v70.3
		c-10.3-2.5-21.7,0.3-29.7,8.4l-71,71c-9,9-13.5,19.9-13.5,32.6v23.4h-0.7c-4.8,0-8.8,3.9-8.8,8.8v51.3c0,2.3,0.9,4.6,2.6,6.2
		c1.6,1.6,3.9,2.6,6.2,2.6l111,0c4.8,0,8.8-3.9,8.8-8.8V452c0-4.8-3.9-8.8-8.8-8.8H417v-8.1l60.5-67.7c5.9-6,9.1-13.8,9.1-22.1
		V237.5C486.6,220.1,472.4,205.9,455,205.9L455,205.9z M410.6,494.4l-93.5,0v-33.7h93.5V494.4z M469,345.2c0,3.7-1.5,7.3-4.1,9.9
		c-0.1,0.1-0.2,0.2-0.3,0.4l-62.9,70.4c-1.4,1.6-2.2,3.7-2.2,5.8v11.5h-72.8v-23.4c0-8,2.7-14.6,8.4-20.2l71-71
		c5.5-5.5,14.4-5.5,19.9,0c0,0,0,0,0,0c5.5,5.5,5.5,14.4,0,19.9l-37.1,37.1c-3.4,3.4-3.4,9,0,12.4c1.7,1.7,4,2.6,6.2,2.6
		c2.2,0,4.5-0.9,6.2-2.6l37.1-37.1c6-6,9.2-13.9,9.2-22.4c0-7.1-2.3-13.9-6.7-19.4v-81.6c0-7.8,6.3-14.1,14.1-14.1
		s14.1,6.3,14.1,14.1L469,345.2z"/>
	<g>
		<path d="M420.2,172.2C420.2,172.2,420.2,172.2,420.2,172.2l-36-45.2c-2.6-3.3-6.9-4.5-10.9-3.1c-4,1.4-6.6,5-6.6,9.3v12.7h-19.6
			V115c0-10.5-4.1-20.4-11.5-27.8c-7.4-7.4-17.3-11.5-27.8-11.5H277V56.1h12.7c4.2,0,7.9-2.6,9.3-6.6c1.4-4,0.2-8.3-3.1-10.9
			l-45.2-36c-2.1-1.6-4.7-2.6-7.3-2.6s-5.2,0.9-7.3,2.6l-45.2,36c-3.3,2.6-4.5,6.9-3.1,10.9c1.4,4,5,6.6,9.3,6.6h12.7v19.6h-30.9
			c-10.5,0-20.4,4.1-27.8,11.5c-7.4,7.4-11.5,17.3-11.5,27.8v30.9h-19.6v-12.7c0-4.2-2.6-7.9-6.6-9.3c-4-1.4-8.3-0.2-10.9,3.1
			l-36,45.2c-1.6,2.1-2.5,4.7-2.5,7.3c0,2.6,0.9,5.2,2.6,7.3l36,45.2c2.6,3.3,6.9,4.5,10.9,3.2c4-1.4,6.6-5,6.6-9.3v-12.7h19.6V244
			c0,10.5,4.1,20.4,11.5,27.8c7.4,7.4,17.3,11.5,27.8,11.5h30.9v19.6h-12.7c-4.2,0-7.9,2.6-9.3,6.6c-1.4,4-0.2,8.3,3.1,10.9l45.2,36
			c2.1,1.6,4.7,2.6,7.3,2.6c2.6,0,5.2-0.9,7.3-2.6l45.2-36c3.3-2.6,4.5-6.9,3.1-10.9c-1.4-4-5-6.6-9.3-6.6H277v-19.6h30.9
			c10.5,0,20.4-4.1,27.8-11.5c7.4-7.4,11.5-17.3,11.5-27.8v-30.9h19.6v12.7c0,4.2,2.6,7.9,6.6,9.3c4,1.4,8.3,0.2,10.9-3.1l36-45.2
			c1.6-2.1,2.5-4.7,2.5-7.3C422.8,176.8,421.9,174.2,420.2,172.2L420.2,172.2z M411.4,179.8l-33.5,42v-14.3c0-3.1-2.5-5.6-5.6-5.6
			h-30.9c-3.1,0-5.6,2.5-5.6,5.6V244c0,15.5-12.6,28.1-28.1,28.1h-36.5c-3.1,0-5.6,2.5-5.6,5.6v30.9c0,3.1,2.5,5.6,5.6,5.6h14.3
			l-42,33.5c-0.2,0.1-0.4,0.1-0.6,0l-42-33.5h14.3c3.1,0,5.6-2.5,5.6-5.6v-30.9c0-3.1-2.5-5.6-5.6-5.6h-36.5
			c-15.5,0-28.1-12.6-28.1-28.1v-36.5c0-3.1-2.5-5.6-5.6-5.6h-30.9c-3.1,0-5.6,2.5-5.6,5.6v14.3l-33.5-42c-0.1-0.2-0.1-0.4,0-0.6
			l33.5-42v14.3c0,3.1,2.5,5.6,5.6,5.6h30.9c3.1,0,5.6-2.5,5.6-5.6V115c0-15.5,12.6-28.1,28.1-28.1h36.5c3.1,0,5.6-2.5,5.6-5.6V50.4
			c0-3.1-2.5-5.6-5.6-5.6H201l42-33.5c0.2-0.1,0.4-0.1,0.6,0l42,33.5h-14.3c-3.1,0-5.6,2.5-5.6,5.6v30.9c0,3.1,2.5,5.6,5.6,5.6h36.5
			c15.5,0,28.1,12.6,28.1,28.1v36.5c0,3.1,2.5,5.6,5.6,5.6h30.9c3.1,0,5.6-2.5,5.6-5.6v-14.3l33.5,42
			C411.6,179.4,411.6,179.6,411.4,179.8L411.4,179.8z"/>
	</g>
</g>
</svg>
