<?xml version="1.0" encoding="utf-8"?>
<!-- Generator: Adobe Illustrator 24.2.3, SVG Export Plug-In . SVG Version: 6.00 Build 0)  -->
<svg version="1.1" id="Layer_1" xmlns="http://www.w3.org/2000/svg" xmlns:xlink="http://www.w3.org/1999/xlink" x="0px" y="0px"
	 viewBox="0 0 862 768" style="enable-background:new 0 0 862 768;" xml:space="preserve">
<style type="text/css">
	.st0{fill:#EFEFEF;}
	.st1{fill:#69D4E0;}
	.st2{fill:#69D4E0;stroke:#69D4E0;stroke-miterlimit:10;}
	.st3{fill:none;stroke:#69D4E0;stroke-miterlimit:10;}
	.st4{fill:#6AD5E0;}
	.st5{fill:#EBEBEC;}
	.st6{fill:#E9EBEB;}
	.st7{fill:#DFE2E2;}
	.st8{fill:#DDDFE0;}
</style>
<g>
	<path class="st0" d="M99,80.5c-9.1,0-16.5,7.4-16.5,16.5s7.4,16.5,16.5,16.5s16.5-7.4,16.5-16.5S108.1,80.5,99,80.5z M159,80.5
		c-9.1,0-16.5,7.4-16.5,16.5s7.4,16.5,16.5,16.5s16.5-7.4,16.5-16.5S168.1,80.5,159,80.5z M220,80.5c-9.1,0-16.5,7.4-16.5,16.5
		s7.4,16.5,16.5,16.5s16.5-7.4,16.5-16.5S229.1,80.5,220,80.5z M264.5,238.5l19-8l18-63l-59,19c-5,2-3,11-3,11l14,43v51h37l37-53
		H264.5z M330.5,160.5l-18,62l50-16l18-62L330.5,160.5z M358.5,239.5l-37,52h58l37-52H358.5z M410.5,135.5l-18,63l52-17l16-65
		L410.5,135.5z M447.5,239.5l-36,52h52l38-52H447.5z M491.5,108.5l-18,65l44-15l18-63L491.5,108.5z M616.5,118.5l-13-40
		c-4-4-11-1-11-1l-27,9l-18,62l66-20C618.5,125.5,616.5,118.5,616.5,118.5z M627.5,239.5h-97l-36,52h137v-47
		C631.5,244.5,631.5,239.5,627.5,239.5z M253.5,307.5v126.8c0,13.9,11.3,25.2,25.2,25.2h327.5c13.9,0,25.2-11.3,25.2-25.2V307.5
		H253.5z M583.7,407.7c-1.7,1.7-4.1,2.8-6.7,2.8H303c-5.2,0-9.5-4.2-9.5-9.5c0-2.6,1.1-5,2.8-6.7c1.7-1.7,4.1-2.8,6.7-2.8h274
		c5.2,0,9.5,4.2,9.5,9.5C586.5,403.6,585.4,406,583.7,407.7z M584.2,355.2c-1.4,1.4-3.4,2.3-5.7,2.3h-277c-4.4,0-8-3.6-8-8
		c0-2.2,0.9-4.2,2.3-5.7c1.4-1.4,3.4-2.3,5.7-2.3h277c4.4,0,8,3.6,8,8C586.5,351.7,585.6,353.7,584.2,355.2z M253.5,434.3
		c0,13.9,11.3,25.2,25.2,25.2h327.5c13.9,0,25.2-11.3,25.2-25.2V307.5h-378V434.3z M295.8,343.8c1.4-1.4,3.4-2.3,5.7-2.3h277
		c4.4,0,8,3.6,8,8c0,2.2-0.9,4.2-2.3,5.7c-1.4,1.4-3.4,2.3-5.7,2.3h-277c-4.4,0-8-3.6-8-8C293.5,347.3,294.4,345.3,295.8,343.8z
		 M296.3,394.3c1.7-1.7,4.1-2.8,6.7-2.8h274c5.2,0,9.5,4.2,9.5,9.5c0,2.6-1.1,5-2.8,6.7c-1.7,1.7-4.1,2.8-6.7,2.8H303
		c-5.2,0-9.5-4.2-9.5-9.5C293.5,398.4,294.6,396,296.3,394.3z M627.5,239.5h-97l-36,52h137v-47C631.5,244.5,631.5,239.5,627.5,239.5
		z M616.5,118.5l-13-40c-4-4-11-1-11-1l-27,9l-18,62l66-20C618.5,125.5,616.5,118.5,616.5,118.5z M535.5,95.5l-44,13l-18,65l44-15
		L535.5,95.5z M501.5,239.5h-54l-36,52h52L501.5,239.5z M460.5,116.5l-50,19l-18,63l52-17L460.5,116.5z M321.5,291.5h58l37-52h-58
		L321.5,291.5z M380.5,144.5l-50,16l-18,62l50-16L380.5,144.5z M253.5,291.5h37l37-53h-63l19-8l18-63l-59,19c-5,2-3,11-3,11l14,43
		V291.5z M220,80.5c-9.1,0-16.5,7.4-16.5,16.5s7.4,16.5,16.5,16.5s16.5-7.4,16.5-16.5S229.1,80.5,220,80.5z M159,80.5
		c-9.1,0-16.5,7.4-16.5,16.5s7.4,16.5,16.5,16.5s16.5-7.4,16.5-16.5S168.1,80.5,159,80.5z M99,80.5c-9.1,0-16.5,7.4-16.5,16.5
		s7.4,16.5,16.5,16.5s16.5-7.4,16.5-16.5S108.1,80.5,99,80.5z M804.5-0.5H56.5c-31.5,0-57,25.5-57,57v514.9c0,31.5,25.5,57,57,57
		h747.9c31.5,0,57-25.5,57-57V56.5C861.5,25,836-0.5,804.5-0.5z M839.5,573c0,19.6-15.9,35.5-35.4,35.5H60.8
		c-20.6,0-37.3-16.7-37.3-37.3v-33.7h816V573z M23.5,514.5V57.1c0-19.7,16-35.6,35.7-35.6h744.7c19.7,0,35.7,16,35.7,35.6v457.4
		H23.5z M253.5,434.3c0,13.9,11.3,25.2,25.2,25.2h327.5c13.9,0,25.2-11.3,25.2-25.2V307.5h-378V434.3z M295.8,343.8
		c1.4-1.4,3.4-2.3,5.7-2.3h277c4.4,0,8,3.6,8,8c0,2.2-0.9,4.2-2.3,5.7c-1.4,1.4-3.4,2.3-5.7,2.3h-277c-4.4,0-8-3.6-8-8
		C293.5,347.3,294.4,345.3,295.8,343.8z M296.3,394.3c1.7-1.7,4.1-2.8,6.7-2.8h274c5.2,0,9.5,4.2,9.5,9.5c0,2.6-1.1,5-2.8,6.7
		c-1.7,1.7-4.1,2.8-6.7,2.8H303c-5.2,0-9.5-4.2-9.5-9.5C293.5,398.4,294.6,396,296.3,394.3z M627.5,239.5h-97l-36,52h137v-47
		C631.5,244.5,631.5,239.5,627.5,239.5z M616.5,118.5l-13-40c-4-4-11-1-11-1l-27,9l-18,62l66-20
		C618.5,125.5,616.5,118.5,616.5,118.5z M535.5,95.5l-44,13l-18,65l44-15L535.5,95.5z M501.5,239.5h-54l-36,52h52L501.5,239.5z
		 M460.5,116.5l-50,19l-18,63l52-17L460.5,116.5z M321.5,291.5h58l37-52h-58L321.5,291.5z M380.5,144.5l-50,16l-18,62l50-16
		L380.5,144.5z M253.5,291.5h37l37-53h-63l19-8l18-63l-59,19c-5,2-3,11-3,11l14,43V291.5z M220,80.5c-9.1,0-16.5,7.4-16.5,16.5
		s7.4,16.5,16.5,16.5s16.5-7.4,16.5-16.5S229.1,80.5,220,80.5z M159,80.5c-9.1,0-16.5,7.4-16.5,16.5s7.4,16.5,16.5,16.5
		s16.5-7.4,16.5-16.5S168.1,80.5,159,80.5z M99,80.5c-9.1,0-16.5,7.4-16.5,16.5s7.4,16.5,16.5,16.5s16.5-7.4,16.5-16.5
		S108.1,80.5,99,80.5z M99,80.5c-9.1,0-16.5,7.4-16.5,16.5s7.4,16.5,16.5,16.5s16.5-7.4,16.5-16.5S108.1,80.5,99,80.5z M159,80.5
		c-9.1,0-16.5,7.4-16.5,16.5s7.4,16.5,16.5,16.5s16.5-7.4,16.5-16.5S168.1,80.5,159,80.5z M220,80.5c-9.1,0-16.5,7.4-16.5,16.5
		s7.4,16.5,16.5,16.5s16.5-7.4,16.5-16.5S229.1,80.5,220,80.5z M264.5,238.5l19-8l18-63l-59,19c-5,2-3,11-3,11l14,43v51h37l37-53
		H264.5z M330.5,160.5l-18,62l50-16l18-62L330.5,160.5z M358.5,239.5l-37,52h58l37-52H358.5z M410.5,135.5l-18,63l52-17l16-65
		L410.5,135.5z M447.5,239.5l-36,52h52l38-52H447.5z M491.5,108.5l-18,65l44-15l18-63L491.5,108.5z M616.5,118.5l-13-40
		c-4-4-11-1-11-1l-27,9l-18,62l66-20C618.5,125.5,616.5,118.5,616.5,118.5z M627.5,239.5h-97l-36,52h137v-47
		C631.5,244.5,631.5,239.5,627.5,239.5z M253.5,307.5v126.8c0,13.9,11.3,25.2,25.2,25.2h327.5c13.9,0,25.2-11.3,25.2-25.2V307.5
		H253.5z M583.7,407.7c-1.7,1.7-4.1,2.8-6.7,2.8H303c-5.2,0-9.5-4.2-9.5-9.5c0-2.6,1.1-5,2.8-6.7c1.7-1.7,4.1-2.8,6.7-2.8h274
		c5.2,0,9.5,4.2,9.5,9.5C586.5,403.6,585.4,406,583.7,407.7z M584.2,355.2c-1.4,1.4-3.4,2.3-5.7,2.3h-277c-4.4,0-8-3.6-8-8
		c0-2.2,0.9-4.2,2.3-5.7c1.4-1.4,3.4-2.3,5.7-2.3h277c4.4,0,8,3.6,8,8C586.5,351.7,585.6,353.7,584.2,355.2z M253.5,307.5v126.8
		c0,13.9,11.3,25.2,25.2,25.2h327.5c13.9,0,25.2-11.3,25.2-25.2V307.5H253.5z M583.7,407.7c-1.7,1.7-4.1,2.8-6.7,2.8H303
		c-5.2,0-9.5-4.2-9.5-9.5c0-2.6,1.1-5,2.8-6.7c1.7-1.7,4.1-2.8,6.7-2.8h274c5.2,0,9.5,4.2,9.5,9.5
		C586.5,403.6,585.4,406,583.7,407.7z M584.2,355.2c-1.4,1.4-3.4,2.3-5.7,2.3h-277c-4.4,0-8-3.6-8-8c0-2.2,0.9-4.2,2.3-5.7
		c1.4-1.4,3.4-2.3,5.7-2.3h277c4.4,0,8,3.6,8,8C586.5,351.7,585.6,353.7,584.2,355.2z M627.5,239.5h-97l-36,52h137v-47
		C631.5,244.5,631.5,239.5,627.5,239.5z M616.5,118.5l-13-40c-4-4-11-1-11-1l-27,9l-18,62l66-20
		C618.5,125.5,616.5,118.5,616.5,118.5z M491.5,108.5l-18,65l44-15l18-63L491.5,108.5z M447.5,239.5l-36,52h52l38-52H447.5z
		 M410.5,135.5l-18,63l52-17l16-65L410.5,135.5z M358.5,239.5l-37,52h58l37-52H358.5z M330.5,160.5l-18,62l50-16l18-62L330.5,160.5z
		 M264.5,238.5l19-8l18-63l-59,19c-5,2-3,11-3,11l14,43v51h37l37-53H264.5z M220,80.5c-9.1,0-16.5,7.4-16.5,16.5s7.4,16.5,16.5,16.5
		s16.5-7.4,16.5-16.5S229.1,80.5,220,80.5z M159,80.5c-9.1,0-16.5,7.4-16.5,16.5s7.4,16.5,16.5,16.5s16.5-7.4,16.5-16.5
		S168.1,80.5,159,80.5z M99,80.5c-9.1,0-16.5,7.4-16.5,16.5s7.4,16.5,16.5,16.5s16.5-7.4,16.5-16.5S108.1,80.5,99,80.5z"/>
	<rect x="-0.5" y="514.5" class="st0" width="862" height="23"/>
	<path class="st0" d="M620.7,697.5H240.3c-15.9,0-28.8,12.9-28.8,28.8v42.2h430.1c4.3,0,7.9-3.5,7.9-7.9v-34.4
		C649.5,710.4,636.6,697.5,620.7,697.5z M628.5,746.5h-394v-28h385.1c4.9,0,8.9,4,8.9,8.9V746.5z"/>
	<polygon class="st0" points="306.5,624.5 288.5,703.5 312.5,703.5 330.5,624.5 	"/>
	<polygon class="st0" points="556.5,624.5 574.5,703.5 550.5,703.5 532.5,624.5 	"/>
	<circle class="st0" cx="99" cy="97" r="16.5"/>
	<circle class="st0" cx="159" cy="97" r="16.5"/>
	<circle class="st0" cx="220" cy="97" r="16.5"/>
	<path class="st0" d="M327.5,238.5l-37,53h-37v-51l-14-43c0,0-2-9,3-11l59-19l-18,63l-19,8H327.5z"/>
	<polygon class="st0" points="380.5,144.5 362.5,206.5 312.5,222.5 330.5,160.5 	"/>
	<polygon class="st0" points="460.5,116.5 444.5,181.5 392.5,198.5 410.5,135.5 	"/>
	<polygon class="st0" points="535.5,95.5 517.5,158.5 473.5,173.5 491.5,108.5 	"/>
	<path class="st0" d="M613.5,128.5l-66,20l18-62l27-9c0,0,7-3,11,1l13,40C616.5,118.5,618.5,125.5,613.5,128.5z"/>
	<polygon class="st0" points="416.5,239.5 379.5,291.5 321.5,291.5 358.5,239.5 	"/>
	<polygon class="st0" points="501.5,239.5 463.5,291.5 411.5,291.5 447.5,239.5 	"/>
	<path class="st0" d="M631.5,244.5v47h-137l36-52h97C631.5,239.5,631.5,244.5,631.5,244.5z"/>
	<path class="st0" d="M253.5,307.5v126.8c0,13.9,11.3,25.2,25.2,25.2h327.5c13.9,0,25.2-11.3,25.2-25.2V307.5H253.5z M583.7,407.7
		c-1.7,1.7-4.1,2.8-6.7,2.8H303c-5.2,0-9.5-4.2-9.5-9.5c0-2.6,1.1-5,2.8-6.7c1.7-1.7,4.1-2.8,6.7-2.8h274c5.2,0,9.5,4.2,9.5,9.5
		C586.5,403.6,585.4,406,583.7,407.7z M584.2,355.2c-1.4,1.4-3.4,2.3-5.7,2.3h-277c-4.4,0-8-3.6-8-8c0-2.2,0.9-4.2,2.3-5.7
		c1.4-1.4,3.4-2.3,5.7-2.3h277c4.4,0,8,3.6,8,8C586.5,351.7,585.6,353.7,584.2,355.2z"/>
	<circle class="st0" cx="99" cy="97" r="16.5"/>
	<circle class="st0" cx="159" cy="97" r="16.5"/>
	<circle class="st0" cx="220" cy="97" r="16.5"/>
	<path class="st1" d="M253.5,240.5l-14-43c0,0-2-9,3-11l59-19l-18,63l-19,8h63l-37,53h-37V240.5z"/>
	<polygon class="st1" points="362.5,206.5 312.5,222.5 330.5,160.5 380.5,144.5 	"/>
	<polygon class="st1" points="358.5,239.5 416.5,239.5 379.5,291.5 321.5,291.5 	"/>
	<polygon class="st1" points="444.5,181.5 392.5,198.5 410.5,135.5 460.5,116.5 	"/>
	<polygon class="st1" points="463.5,291.5 411.5,291.5 447.5,239.5 501.5,239.5 	"/>
	<polygon class="st1" points="517.5,158.5 473.5,173.5 491.5,108.5 535.5,95.5 	"/>
	<path class="st1" d="M613.5,128.5l-66,20l18-62l27-9c0,0,7-3,11,1l13,40C616.5,118.5,618.5,125.5,613.5,128.5z"/>
	<path class="st1" d="M631.5,244.5v47h-137l36-52h97C631.5,239.5,631.5,244.5,631.5,244.5z"/>
	<path class="st1" d="M253.5,307.5v126.8c0,13.9,11.3,25.2,25.2,25.2h327.5c13.9,0,25.2-11.3,25.2-25.2V307.5H253.5z M583.7,407.7
		c-1.7,1.7-4.1,2.8-6.7,2.8H303c-5.2,0-9.5-4.2-9.5-9.5c0-2.6,1.1-5,2.8-6.7c1.7-1.7,4.1-2.8,6.7-2.8h274c5.2,0,9.5,4.2,9.5,9.5
		C586.5,403.6,585.4,406,583.7,407.7z M584.2,355.2c-1.4,1.4-3.4,2.3-5.7,2.3h-277c-4.4,0-8-3.6-8-8c0-2.2,0.9-4.2,2.3-5.7
		c1.4-1.4,3.4-2.3,5.7-2.3h277c4.4,0,8,3.6,8,8C586.5,351.7,585.6,353.7,584.2,355.2z"/>
</g>
</svg>
