<?xml version="1.0" encoding="utf-8"?>
<!-- Generator: Adobe Illustrator 24.2.3, SVG Export Plug-In . SVG Version: 6.00 Build 0)  -->
<svg version="1.1" id="Layer_1" xmlns="http://www.w3.org/2000/svg" xmlns:xlink="http://www.w3.org/1999/xlink" x="0px" y="0px"
	 viewBox="0 0 806 728" style="enable-background:new 0 0 806 728;" xml:space="preserve">
<style type="text/css">
	.st0{fill:#EFEFEF;}
	.st1{fill:#69D4E0;}
	.st2{fill:#69D4E0;stroke:#69D4E0;stroke-miterlimit:10;}
	.st3{fill:none;stroke:#69D4E0;stroke-miterlimit:10;}
	.st4{fill:#6AD5E0;}
	.st5{fill:#EBEBEC;}
	.st6{fill:#E9EBEB;}
	.st7{fill:#DFE2E2;}
	.st8{fill:#DDDFE0;}
	.st9{fill:#D7DCDC;}
	.st10{fill:#3C8893;}
	.st11{fill:#5CC5D0;}
	.st12{fill:#E3E5E5;}
	.st13{fill:#E4E6E6;}
</style>
<path class="st9" d="M239.3,6.7h-210C13.2,6.7,0.1,19.8,0.1,35.9v214.5c0,16.1,13.1,29.2,29.2,29.2h210c16.1,0,29.2-13.1,29.2-29.2
	V35.9C268.6,19.8,255.5,6.7,239.3,6.7z M212.6,124.2c-0.9,0-1.8-0.1-2.8-0.2l-53.7,79L103,124.2l-41.3,55.7
	c2.8,3.8,4.4,8.6,4.4,13.7c0,13-10.5,23.5-23.5,23.5s-23.5-10.5-23.5-23.5c0-12.9,10.4-23.4,23.4-23.5l60-77.7l50.3,78.3l41.3-55.4
	c-3.1-4-5-9-5-14.5c0-13,10.5-23.5,23.5-23.5s23.5,10.5,23.5,23.5S225.6,124.2,212.6,124.2z"/>
<circle class="st10" cx="580.6" cy="198" r="147.7"/>
<path class="st9" d="M786.4,48.6v293.2c-1.8-0.4-3.7-0.6-5.6-0.6s-3.8,0.2-5.6,0.6V48.6c1.8,0.4,3.7,0.6,5.6,0.6
	S784.7,49,786.4,48.6z"/>
<path class="st9" d="M756.2,24.6c0,1.9,0.2,3.8,0.6,5.6H408.8c0.4-1.8,0.6-3.7,0.6-5.6c0-4-1-7.8-2.7-11.2h352.1
	C757.2,16.8,756.2,20.6,756.2,24.6z"/>
<path class="st9" d="M393.8,47.5v295.3c-2.8-1.1-5.8-1.7-8.9-1.7c-2.3,0-4.6,0.3-6.7,0.9V48.3c2.1,0.6,4.4,0.9,6.7,0.9
	C388,49.2,391.1,48.6,393.8,47.5z"/>
<path class="st9" d="M408.2,373.6c0.8-2.5,1.3-5.1,1.3-7.8c0-1.5-0.1-3-0.4-4.5h347.6c-0.3,1.5-0.4,2.9-0.4,4.5
	c0,2.7,0.4,5.4,1.3,7.8H408.2z"/>
<circle class="st10" cx="580.6" cy="198" r="147.7"/>
<path class="st9" d="M517.8,671.1H8.1c-4.4,0-8-3.6-8-8v-1.9c0-4.4,3.6-8,8-8h509.7c4.4,0,8,3.6,8,8v1.9
	C525.8,667.6,522.2,671.1,517.8,671.1z"/>
<path class="st9" d="M224.9,544.7V352c0-17.4,19.5-27.6,33.8-17.7l177.4,122.2c12.5,8.6,12.4,27.1-0.1,35.6L258.6,612.5
	c-14.3,9.7-33.7-0.5-33.7-17.8V544.7z"/>
<path class="st9" d="M645.5,653.2L621,707.9c-3.4,7.5-14.2,7.2-17.1-0.4l-78.1-201.6c-3-7.6,4.7-15.1,12.2-11.9l195.5,81.9
	c7.4,3.1,7.6,13.5,0.4,17l-54.9,25.8l72.6,72.6c5.6,5.6,5.6,14.8,0,20.4l-12.2,12.2c-5.6,5.6-14.5,5.7-20.2,0.2L645.5,653.2z"/>
<path class="st10" d="M409.5,24.6c0,1.9-0.2,3.8-0.6,5.6c-1.8,8-7.5,14.4-15,17.3c-2.8,1.1-5.8,1.7-8.9,1.7c-2.3,0-4.6-0.3-6.7-0.9
	c-10.3-2.9-17.9-12.4-17.9-23.7c0-13.6,11-24.6,24.6-24.6c9.6,0,17.9,5.5,21.9,13.4C408.5,16.8,409.5,20.6,409.5,24.6z"/>
<path class="st10" d="M805.5,24.6c0,11.7-8.1,21.4-19,24c-1.8,0.4-3.7,0.6-5.6,0.6s-3.8-0.2-5.6-0.6c-9.1-2.1-16.3-9.3-18.4-18.4
	c-0.4-1.8-0.6-3.7-0.6-5.6c0-4,1-7.8,2.7-11.2C763,5.5,771.3,0,780.9,0C794.4,0,805.5,11,805.5,24.6z"/>
<circle class="st10" cx="378.2" cy="662.2" r="24.6"/>
<path class="st10" d="M51.6,383.7c0,0,62.6,14.5,62.6-59.3c0,0-2.2,62.6,60.4,60.4c0,0-59.3-6.7-59.3,67.1
	C115.3,451.9,122,383.7,51.6,383.7z"/>
<path class="st10" d="M72.5,549.3c0,0,48.8,12.5,48.8-50.9c0,0-1.7,53.8,47,51.9c0,0-46.2-5.8-46.2,57.7
	C122.1,607.9,127.3,549.3,72.5,549.3z"/>
<path class="st10" d="M596.3,412.7c0,0-2.2,42.5,34.7,42.5c0,0-31.3-1.1-33.6,45.9c0,0-2.2-45.9-36.9-43.6
	C560.5,457.5,596.3,455.3,596.3,412.7z"/>
<path class="st10" d="M329,73.8c0,0-2.2,42.5,34.7,42.5c0,0-31.3-1.1-33.6,45.9c0,0-2.2-45.9-36.9-43.6
	C293.2,118.6,329,116.3,329,73.8z"/>
<path class="st10" d="M409.5,365.8c0,2.7-0.4,5.4-1.3,7.8c-3.3,9.8-12.5,16.8-23.3,16.8c-13.6,0-24.6-11-24.6-24.6
	c0-11.3,7.6-20.8,17.9-23.7c2.1-0.6,4.4-0.9,6.7-0.9c3.2,0,6.2,0.6,8.9,1.7c7.8,3.1,13.7,10,15.2,18.5
	C409.4,362.7,409.5,364.2,409.5,365.8z"/>
<circle class="st9" cx="580.6" cy="198" r="147.7"/>
<path class="st10" d="M805.5,365.8c0,13.6-11,24.6-24.6,24.6c-10.9,0-20.1-7-23.3-16.8c-0.8-2.5-1.3-5.1-1.3-7.8
	c0-1.5,0.1-3,0.4-4.5c1.8-9.6,9.1-17.3,18.6-19.5c1.8-0.4,3.7-0.6,5.6-0.6s3.8,0.2,5.6,0.6C797.3,344.3,805.5,354.1,805.5,365.8z"/>
</svg>
