<?xml version="1.0" encoding="utf-8"?>
<!-- Generator: Adobe Illustrator 24.2.3, SVG Export Plug-In . SVG Version: 6.00 Build 0)  -->
<svg version="1.1" id="Layer_1" xmlns="http://www.w3.org/2000/svg" xmlns:xlink="http://www.w3.org/1999/xlink" x="0px" y="0px"
	 viewBox="0 0 486 728" style="enable-background:new 0 0 486 728;" xml:space="preserve">
<style type="text/css">
	.st0{fill:#EFEFEF;}
	.st1{fill:#69D4E0;}
	.st2{fill:#69D4E0;stroke:#69D4E0;stroke-miterlimit:10;}
	.st3{fill:none;stroke:#69D4E0;stroke-miterlimit:10;}
	.st4{fill:#6AD5E0;}
	.st5{fill:#EBEBEC;}
	.st6{fill:#E9EBEB;}
	.st7{fill:#DFE2E2;}
	.st8{fill:#DDDFE0;}
	.st9{fill:#D7DCDC;}
	.st10{fill:#3C8893;}
	.st11{fill:#5CC5D0;}
	.st12{fill:#E3E5E5;}
	.st13{fill:#E4E6E6;}
</style>
<g>
	<path class="st11" d="M179.3,510l-28.2,21.3l9.2,31.9c1.9,6.6-5.4,12.2-11.3,8.6L121.9,555l-30,20c-5.9,3.9-13.5-1.6-11.5-8.4
		l10-34.1l-26.8-21.9c-5.5-4.5-2.4-13.3,4.6-13.4l34.6-0.7l12.1-30c2.6-6.3,11.5-6.3,14.1,0l12.1,30h33.8
		C182,496.4,185.1,505.7,179.3,510z"/>
	<path class="st11" d="M188.3,186.5c-11.9,30.2-50.6,58.5-62,66.5c-3.2-2.5-7.1-5.5-11.4-9.1c-4.4-3.6-9.2-7.8-14.3-12.4
		c-22.1-20.2-31.7-30.7-35.1-42.7c-7.9-28.2,15.8-47.3,28.2-47.3c9,0,18,2.4,18.6,2.6c8.1,3.7,12.4,9.5,14.1,12
		c2.9-2.9,7.8-7,14.7-10.1c4.3-2,11.1-5.1,19.2-4.5c14.3,1,27.8,13.3,30.4,27C192,175.8,190.1,182.1,188.3,186.5z"/>
	<path class="st11" d="M285.3,62c0,3.3-1.3,6.2-3.5,8.4c-2.1,2.1-5.1,3.5-8.4,3.5h-75.5c-6.5,0-11.8-5.3-11.8-11.8
		c0-3.3,1.3-6.2,3.5-8.4c2.1-2.1,5.1-3.5,8.4-3.5h75.5C280,50.1,285.3,55.4,285.3,62z"/>
	<path class="st11" d="M425.1,178.7l-31.8,29.2c-4.4,4-11.2,3.7-15.2-0.6c-4-4.4-3.7-11.2,0.7-15.2l31.8-29.2
		c2.1-1.9,4.7-2.8,7.3-2.8c2.9,0,5.8,1.2,7.9,3.5C429.7,167.9,429.4,174.7,425.1,178.7z"/>
	<path class="st11" d="M467.3,205.9V69c0-38.1-30.9-69-69-69H68.5c-38.1,0-69,30.9-69,69V659c0,38.1,30.9,69,69,69h329.8
		c38.1,0,69-30.9,69-69V347.3l-22-1.4v259.8H26.1V64.6C26.1,41,45.1,22,68.7,22h334c23.5,0,42.6,19.1,42.6,42.6V201L467.3,205.9z
		 M445.3,623.8V654c0,27.5-22.3,49.7-49.7,49.7H74.7c-27.5,0-49.7-22.3-49.7-49.7v-30.3H445.3z M199.1,673.3h74.4
		c3.3,0,6.2-1.3,8.4-3.5c2.1-2.1,3.5-5.1,3.5-8.4c0-6.5-5.3-11.8-11.8-11.8h-74.4c-3.3,0-6.2,1.3-8.4,3.5c-2.1,2.1-3.5,5.1-3.5,8.4
		C187.2,668,192.5,673.3,199.1,673.3z"/>
	<path class="st11" d="M285.3,661.5c0,3.3-1.3,6.2-3.5,8.4c-2.1,2.1-5.1,3.5-8.4,3.5h-74.4c-6.5,0-11.8-5.3-11.8-11.8
		c0-3.3,1.3-6.2,3.5-8.4c2.1-2.1,5.1-3.5,8.4-3.5h74.4C280,649.7,285.3,655,285.3,661.5z"/>
	<path class="st11" d="M285.3,661.5c0,3.3-1.3,6.2-3.5,8.4c-2.1,2.1-5.1,3.5-8.4,3.5h-74.4c-6.5,0-11.8-5.3-11.8-11.8
		c0-3.3,1.3-6.2,3.5-8.4c2.1-2.1,5.1-3.5,8.4-3.5h74.4C280,649.7,285.3,655,285.3,661.5z"/>
	<path class="st11" d="M285.3,62c0,3.3-1.3,6.2-3.5,8.4c-2.1,2.1-5.1,3.5-8.4,3.5h-75.5c-6.5,0-11.8-5.3-11.8-11.8
		c0-3.3,1.3-6.2,3.5-8.4c2.1-2.1,5.1-3.5,8.4-3.5h75.5C280,50.1,285.3,55.4,285.3,62z"/>
	<path class="st11" d="M179.3,510l-28.2,21.3l9.2,31.9c1.9,6.6-5.4,12.2-11.3,8.6L121.9,555l-30,20c-5.9,3.9-13.5-1.6-11.5-8.4
		l10-34.1l-26.8-21.9c-5.5-4.5-2.4-13.3,4.6-13.4l34.6-0.7l12.1-30c2.6-6.3,11.5-6.3,14.1,0l12.1,30h33.8
		C182,496.4,185.1,505.7,179.3,510z"/>
	<path class="st11" d="M188.3,186.5c-11.9,30.2-50.6,58.5-62,66.5c-3.2-2.5-7.1-5.5-11.4-9.1c-4.4-3.6-9.2-7.8-14.3-12.4
		c-22.1-20.2-31.7-30.7-35.1-42.7c-7.9-28.2,15.8-47.3,28.2-47.3c9,0,18,2.4,18.6,2.6c8.1,3.7,12.4,9.5,14.1,12
		c2.9-2.9,7.8-7,14.7-10.1c4.3-2,11.1-5.1,19.2-4.5c14.3,1,27.8,13.3,30.4,27C192,175.8,190.1,182.1,188.3,186.5z"/>
	<path class="st12" d="M285.3,62c0,3.3-1.3,6.2-3.5,8.4c-2.1,2.1-5.1,3.5-8.4,3.5h-75.5c-6.5,0-11.8-5.3-11.8-11.8
		c0-3.3,1.3-6.2,3.5-8.4c2.1-2.1,5.1-3.5,8.4-3.5h75.5C280,50.1,285.3,55.4,285.3,62z"/>
	<path class="st11" d="M411.5,500.4v1.1c0,6.5-5.3,11.8-11.8,11.8H284.7c-6.5,0-11.8-5.3-11.8-11.8v-1.1c0-6.5,5.3-11.8,11.8-11.8
		h114.9C406.2,488.5,411.5,493.8,411.5,500.4z"/>
	<path class="st11" d="M411.5,547.7L411.5,547.7c0,6.5-5.3,11.8-11.8,11.8H240.7c-6.5,0-11.8-5.3-11.8-11.8v0
		c0-6.5,5.3-11.8,11.8-11.8h158.9C406.2,535.9,411.5,541.2,411.5,547.7z"/>
	<path class="st12" d="M413.9,393.3l-30.5-90c5.3-6.5,17.2-24.4,10.1-45.8c-6.8-20.3-25.7-25.4-34.6-26.6l-29-85.6
		c-2.2-6.3-9.2-9.5-15.4-6.9c-5.6,2.4-8.4,8.7-6.4,14.4l0.3,0.8l-99.7,116.3l-91.8,32.3c-9.5,3.3-17.5,9.7-22.8,18.3
		c-7.3,11.7-15,29.5-4.8,52C106.6,411.2,150,404,150,404l50.7,74.4c9,9,27,3.4,27,3.4s24.8-6.8,34.9-13.5
		c10.1-6.8,3.4-21.4,3.4-21.4l-40.6-67.6l15.8-9L393.9,398l0.7,1.9c1.5,4.2,5.4,6.8,9.6,6.8c1.1,0,2.3-0.2,3.4-0.6
		C412.9,404.4,415.7,398.6,413.9,393.3z M246.4,453l-31.6,13.5l-45.1-69.9l36.1-10.1L246.4,453z M147.8,383.7
		c0,0-33.8,7.9-42.8-20.3s11.3-39.4,11.3-39.4l90.2-33.8l22.5,63.1L147.8,383.7z M250.3,352.2L226.7,280l89.5-103.9l69,197
		L250.3,352.2z"/>
	<path class="st11" d="M425.1,178.7l-31.8,29.2c-4.4,4-11.2,3.7-15.2-0.6c-4-4.4-3.7-11.2,0.7-15.2l31.8-29.2
		c2.1-1.9,4.7-2.8,7.3-2.8c2.9,0,5.8,1.2,7.9,3.5C429.7,167.9,429.4,174.7,425.1,178.7z"/>
	<path class="st12" d="M425.1,175l-31.8,23.3c-4.4,3.2-11.2,3-15.2-0.5c-4-3.5-3.7-8.9,0.7-12.2l31.8-23.3c2.1-1.5,4.7-2.3,7.3-2.3
		c2.9,0,5.8,0.9,7.9,2.8C429.7,166.3,429.4,171.7,425.1,175z"/>
	<path class="st12" d="M479.4,242l-12.1,3.7l-22,6.7l-18.3,5.6c-5.2,1.6-10.7-1.4-12.3-6.5c-1.6-5.2,1.4-10.7,6.5-12.3l24.1-7.3
		l22-6.7l6.4-1.9c1-0.3,1.9-0.4,2.9-0.4c4.2,0,8.1,2.7,9.4,7C487.5,234.9,484.6,240.4,479.4,242z"/>
	<path class="st12" d="M478.1,314.2c0,0.7-0.1,1.4-0.2,2.1c-1.1,5-5.7,8.3-10.7,7.8c-0.3,0-0.7-0.1-1-0.2l-21-4.5l-23.8-5.1
		c-5.3-1.1-8.7-6.4-7.6-11.7c1.1-5.3,6.4-8.7,11.7-7.6l19.8,4.2l22,4.7l3.1,0.7C475,305.6,478.1,309.7,478.1,314.2z"/>
	<line class="st11" x1="467.3" y1="205.9" x2="445.3" y2="201"/>
	<line class="st11" x1="467.3" y1="347.3" x2="445.3" y2="346"/>
	<path class="st11" d="M188.3,186.5c-11.9,30.2-50.6,58.5-62,66.5c-3.2-2.5-7.1-5.5-11.4-9.1c-4.4-3.6-9.2-7.8-14.3-12.4
		c-22.1-20.2-31.7-30.7-35.1-42.7c-7.9-28.2,15.8-47.3,28.2-47.3c9,0,18,2.4,18.6,2.6c8.1,3.7,12.4,9.5,14.1,12
		c2.9-2.9,7.8-7,14.7-10.1c4.3-2,11.1-5.1,19.2-4.5c14.3,1,27.8,13.3,30.4,27C192,175.8,190.1,182.1,188.3,186.5z"/>
	<path class="st11" d="M179.3,510l-28.2,21.3l9.2,31.9c1.9,6.6-5.4,12.2-11.3,8.6L121.9,555l-30,20c-5.9,3.9-13.5-1.6-11.5-8.4
		l10-34.1l-26.8-21.9c-5.5-4.5-2.4-13.3,4.6-13.4l34.6-0.7l12.1-30c2.6-6.3,11.5-6.3,14.1,0l12.1,30h33.8
		C182,496.4,185.1,505.7,179.3,510z"/>
</g>
</svg>
