<?xml version="1.0" encoding="utf-8"?>
<!-- Generator: Adobe Illustrator 24.2.3, SVG Export Plug-In . SVG Version: 6.00 Build 0)  -->
<svg version="1.1" id="Layer_1" xmlns="http://www.w3.org/2000/svg" xmlns:xlink="http://www.w3.org/1999/xlink" x="0px" y="0px"
	 viewBox="0 0 1004 930" style="enable-background:new 0 0 1004 930;" xml:space="preserve">
<style type="text/css">
	.st0{fill:#EFEFEF;}
	.st1{fill:#69D4E0;}
	.st2{fill:#69D4E0;stroke:#69D4E0;stroke-miterlimit:10;}
	.st3{fill:none;stroke:#69D4E0;stroke-miterlimit:10;}
	.st4{fill:#6AD5E0;}
	.st5{fill:#EBEBEC;}
	.st6{fill:#E9EBEB;}
	.st7{fill:#DFE2E2;}
	.st8{fill:#DDDFE0;}
	.st9{fill:#D7DCDC;}
	.st10{fill:#3C8893;}
	.st11{fill:#5CC5D0;}
	.st12{fill:#E3E5E5;}
	.st13{fill:#E4E6E6;}
</style>
<path class="st11" d="M587.1,893.1v34.6c0,1.3-1.1,2.4-2.4,2.4H471.6c-1.3,0-2.4-1.1-2.4-2.4V729.5c0-1.3,1.1-2.4,2.4-2.4h35.9
	c1.3,0,2.4,1.1,2.4,2.4v161.3h74.9C586,890.7,587.1,891.8,587.1,893.1z"/>
<path class="st11" d="M655.1,729v199c0,1.1-0.9,1.9-1.9,1.9h-36.7c-1.1,0-1.9-0.9-1.9-1.9V729c0-1.1,0.9-1.9,1.9-1.9h36.7
	C654.3,727.1,655.1,728,655.1,729z"/>
<path class="st11" d="M999.4,896.8v27.1c0,3.4-2.7,6.1-6.1,6.1H877.2c-3.4,0-6.1-2.7-6.1-6.1V733.2c0-3.4,2.7-6.1,6.1-6.1h112.2
	c3.4,0,6.1,2.7,6.1,6.1v23.2c0,3.4-2.7,6.1-6.1,6.1H923c-3.4,0-6.1,2.7-6.1,6.1v37.6c0,3.4,2.7,6.1,6.1,6.1h54.6
	c3.4,0,6.1,2.7,6.1,6.1v24.5c0,3.4-2.7,6.1-6.1,6.1H923c-3.4,0-6.1,2.7-6.1,6.1v29.7c0,3.4,2.7,6.1,6.1,6.1h70.3
	C996.7,890.7,999.4,893.5,999.4,896.8z"/>
<path class="st11" d="M852.6,731.7l-65.7,194.6c-0.5,1.4-1.8,2.4-3.3,2.4h-35.6c-1.5,0-2.8-0.9-3.3-2.3l-67-194.6
	c-0.8-2.3,0.9-4.6,3.3-4.6h39c1.5,0,2.9,1,3.3,2.5l45.1,148.7l40.5-148.6c0.4-1.5,1.8-2.6,3.4-2.6h37
	C851.6,727.1,853.3,729.4,852.6,731.7z"/>
<circle class="st11" cx="278.2" cy="453.5" r="75.9"/>
<path class="st11" d="M650.1,296l-93.8,63.8v-40.8c0-73.6-59.6-133.2-133.2-133.2H133.2C59.6,185.9,0,245.5,0,319.1v261.1
	c0,73.6,59.6,133.2,133.2,133.2h289.9c73.6,0,133.2-59.6,133.2-133.2v-40.7l93.6,64.5c23,15.8,54.3-0.6,54.3-28.5V324.6
	C704.2,296.8,673.1,280.4,650.1,296z M524.9,577.8c0,57.5-46.6,104.2-104.2,104.2H139.5C82,682,35.4,635.3,35.4,577.8V325.4
	c0-57.5,46.6-104.2,104.2-104.2h281.2c57.5,0,104.2,46.6,104.2,104.2V577.8z M671.5,565.9c0,4.3-4.8,6.9-8.4,4.5l-106.8-70l-2.6-1.7
	v-94.2l2.6-1.8l106.8-72.4c3.6-2.4,8.4,0.1,8.4,4.5V565.9z"/>
<circle class="st11" cx="278.2" cy="453.5" r="75.9"/>
<g>
	<path class="st13" d="M791.9,356c-10.7,0-19.4-8.5-19.6-19.2c-0.7-34-10.4-59.8-28.8-76.8c-28.7-26.5-70.3-24.4-70.8-24.4
		c-10.8,0.7-20.1-7.5-20.9-18.3c-0.7-10.8,7.5-20.2,18.3-20.9c2.4-0.2,58.3-3.4,99.6,34.4c26.8,24.6,40.9,60,41.8,105.2
		c0.2,10.8-8.4,19.8-19.2,20C792.2,356,792.1,356,791.9,356z"/>
</g>
<g>
	<path class="st13" d="M886.2,356c-0.5,0-0.9,0-1.4,0c-10.8-0.7-19-10.1-18.2-20.9c1-14,2.9-86.6-53.2-143.2
		c-54-54.4-121.4-55.4-140.8-54.4c-10.8,0.6-20.1-7.8-20.6-18.6s7.8-20.1,18.6-20.6c23.5-1.2,105.2,0,170.7,66
		c66.4,66.9,66.2,149.8,64.6,173.6C905,348.1,896.4,356,886.2,356z"/>
</g>
<g>
	<path class="st13" d="M984.3,356c-10.5,0-19.2-8.3-19.6-18.9c-2.6-68-19.3-125.8-49.8-171.9c-24.2-36.5-57.1-66-98-87.6
		c-70.4-37.3-139.7-38.3-140.4-38.3c-10.8-0.1-19.6-9-19.5-19.8c0.1-10.8,8.9-19.5,19.8-19.5c3.2,0,79.6,1.2,158.4,42.9
		c46.7,24.7,84.5,58.6,112.4,100.7c34.5,52.2,53.5,116.8,56.3,192.1c0.4,10.8-8,19.9-18.9,20.4C984.8,356,984.6,356,984.3,356z"/>
</g>
<circle class="st11" cx="278.2" cy="453.5" r="75.9"/>
</svg>
