<?xml version="1.0" encoding="utf-8"?>
<!-- Generator: Adobe Illustrator 24.2.3, SVG Export Plug-In . SVG Version: 6.00 Build 0)  -->
<svg version="1.1" id="Layer_1" xmlns="http://www.w3.org/2000/svg" xmlns:xlink="http://www.w3.org/1999/xlink" x="0px" y="0px"
	 viewBox="0 0 685 639" style="enable-background:new 0 0 685 639;" xml:space="preserve">
<style type="text/css">
	.st0{fill:#EFEFEF;}
	.st1{fill:#69D4E0;}
	.st2{fill:#69D4E0;stroke:#69D4E0;stroke-miterlimit:10;}
	.st3{fill:none;stroke:#69D4E0;stroke-miterlimit:10;}
	.st4{fill:#6AD5E0;}
	.st5{fill:#EBEBEC;}
	.st6{fill:#E9EBEB;}
	.st7{fill:#DFE2E2;}
	.st8{fill:#DDDFE0;}
</style>
<path class="st0" d="M354.5,530.9v87.6h81.7c5.3,0,9.9,4,10.3,9.3c0.2,3-0.9,5.8-2.9,7.8c-1.8,1.8-4.3,2.9-7.1,2.9H250.8
	c-5.3,0-9.9-4-10.3-9.3c-0.2-3,0.9-5.8,2.9-7.8c1.8-1.8,4.3-2.9,7.1-2.9h82v-87.4c-75.4-4.9-135-67.6-135-144.2v-55.4
	c0-5.5,4.5-10,10-10h0c5.5,0,10,4.5,10,10v55.7c0,68.7,55.3,125.3,124,125.3c34.2,0,65.2-13.9,87.7-36.3
	c22.4-22.4,36.3-53.4,36.3-87.7V332c0-5.8,4.7-10.5,10.5-10.5l0,0c5.8,0,10.5,4.7,10.5,10.5v54.9
	C486.5,462.5,428.5,524.6,354.5,530.9z"/>
<path class="st0" d="M413.4,137.6C395.1,119.3,369.9,108,342,108c-55.8,0-101,45.2-101,101v177c0,55.8,45.2,101,101,101
	s101-45.2,101-101V209C443,181.1,431.7,155.9,413.4,137.6z M423.5,216.5H394c-5.8,0-10.5,4.7-10.5,10.5c0,2.9,1.2,5.5,3.1,7.4
	c1.9,1.9,4.5,3.1,7.4,3.1h29.5v27H394c-5.8,0-10.5,4.7-10.5,10.5v1c0,5.8,4.7,10.5,10.5,10.5h29.5v28H394c-5.8,0-10.5,4.7-10.5,10.5
	c0,2.9,1.2,5.5,3.1,7.4c1.9,1.9,4.5,3.1,7.4,3.1h29.5V384c0,44.5-36,80.5-80.5,80.5s-80.5-36-80.5-80.5v-49.5H293
	c5.8,0,10.5-4.7,10.5-10.5v-1c0-5.8-4.7-10.5-10.5-10.5h-30.5v-26H293c5.8,0,10.5-4.7,10.5-10.5v-1c0-5.8-4.7-10.5-10.5-10.5h-30.5
	v-27H293c2.9,0,5.5-1.2,7.4-3.1c1.9-1.9,3.1-4.5,3.1-7.4c0-5.8-4.7-10.5-10.5-10.5h-30.5V210c0-44.5,36-80.5,80.5-80.5
	c22.2,0,42.4,9,56.9,23.6c14.6,14.6,23.6,34.7,23.6,56.9V216.5z"/>
<path class="st2" d="M593.5,262.5h-44.8c-8.4,0-15.2,6.8-15.2,15.2v227.6c0,8.4,6.8,15.2,15.2,15.2h44.8c50.3,0,91-40.8,91-91v-75.9
	C684.5,303.3,643.7,262.5,593.5,262.5z M664.5,430.9c0,38.4-31.1,69.6-69.6,69.6h-42.4v-216h42.4c38.4,0,69.6,31.1,69.6,69.6V430.9z
	"/>
<path class="st2" d="M341.5,0.5C337.2-1,94.2,5.7,82,261.5h8.1c-49.5,0-89.6,40.1-89.6,89.6v78.8c0,49.5,40.1,89.6,89.6,89.6h45.4
	c8.3,0,15-6.7,15-15V276.5c0-8.3-6.7-15-15-15h-32.1c0,0-0.9-226,238.1-241c175,0,248.9,165,237,241H602
	C602,261.5,611.5,15.5,341.5,0.5z M131.5,282.5v217H90.2c-38,0-68.8-30.8-68.8-68.8v-79.5c0-38,30.8-68.8,68.8-68.8H131.5z"/>
<path class="st3" d="M664.5,354.1v76.8c0,38.4-31.1,69.6-69.6,69.6h-42.4v-216h42.4C633.4,284.5,664.5,315.6,664.5,354.1z"/>
<path class="st3" d="M664.5,354.1v76.8c0,38.4-31.1,69.6-69.6,69.6h-42.4v-216h42.4C633.4,284.5,664.5,315.6,664.5,354.1z"/>
<path class="st3" d="M131.5,282.5v217H90.2c-38,0-68.8-30.8-68.8-68.8v-79.5c0-38,30.8-68.8,68.8-68.8H131.5z"/>
<path class="st3" d="M131.5,282.5v217H90.2c-38,0-68.8-30.8-68.8-68.8v-79.5c0-38,30.8-68.8,68.8-68.8H131.5z"/>
</svg>
