<?xml version="1.0" encoding="utf-8"?>
<!-- Generator: Adobe Illustrator 24.2.3, SVG Export Plug-In . SVG Version: 6.00 Build 0)  -->
<svg version="1.1" id="Layer_1" xmlns="http://www.w3.org/2000/svg" xmlns:xlink="http://www.w3.org/1999/xlink" x="0px" y="0px"
	 viewBox="0 0 862 753" style="enable-background:new 0 0 862 753;" xml:space="preserve">
<style type="text/css">
	.st0{fill:#EFEFEF;}
	.st1{fill:#69D4E0;}
	.st2{fill:#69D4E0;stroke:#69D4E0;stroke-miterlimit:10;}
	.st3{fill:none;stroke:#69D4E0;stroke-miterlimit:10;}
	.st4{fill:#6AD5E0;}
	.st5{fill:#EBEBEC;}
	.st6{fill:#E9EBEB;}
	.st7{fill:#DFE2E2;}
	.st8{fill:#DDDFE0;}
</style>
<g>
	<g>
		<path class="st4" d="M836.7,301.7h-24.4v-21.6c0-21.5-17.5-39-39-39H624.6c-11.4,0-20.6,9.2-20.6,20.6c0,2.7,2.2,4.8,4.8,4.8
			l44.2-0.5v33.9h-9.2c-13.6,0-24.7,11.1-24.7,24.7v129.2c0,13.7,11.1,24.8,24.8,24.8h190.9c15,0,27.2-12.2,27.2-27.2V326.9
			C862,313,850.7,301.7,836.7,301.7z M677.2,267.2h97.3c7.8,0,14.1,6.3,14.1,14.1v19.8H677.2V267.2z M840.8,447.5
			c0,4.1-3.3,7.5-7.5,7.5h-185c-4.1,0-7.5-3.3-7.5-7.5V330.3c0-4.1,3.3-7.5,7.5-7.5h185c4.1,0,7.5,3.3,7.5,7.5V447.5z"/>
		<path class="st4" d="M546.4,316.8v143l72.7-41v25.7l-62.4,38c-15.1,9.2-34.5-1.7-34.5-19.4V314.6c0-17.4,18.8-28.3,33.9-19.8
			l63,35.7v26L546.4,316.8z"/>
	</g>
	<path class="st5" d="M481.2,416.2h-18.6c-5.2,0-9.5-4.3-9.5-9.5v-4c0-5.2,4.3-9.5,9.5-9.5h18.6c5.2,0,9.5,4.3,9.5,9.5v4
		C490.7,411.9,486.4,416.2,481.2,416.2z"/>
	<path class="st5" d="M39.5,417.4h200c5.5,0,10-4.5,10-10v-4.2c0-5.5-4.5-10-10-10H27.8v12.5C27.8,412.2,33.1,417.4,39.5,417.4z"/>
	<rect x="27.8" y="96.3" class="st5" width="23" height="321.1"/>
	<path class="st5" d="M698.6,0.6H23.4C10.5,0.6,0,11.1,0,24.1v50c0,13,10.5,23.5,23.5,23.5h675.2c13,0,23.5-10.5,23.5-23.5v-50
		C722.1,11.1,711.6,0.6,698.6,0.6z M699,74.5H20.6V24.8H699V74.5z"/>
	<path class="st5" d="M188.5,478.5c-12.3-12.3-29.2-19.9-48-19.9c-37.5,0-67.8,30.4-67.8,67.8v29.1c0,37.5,30.4,67.8,67.8,67.8
		s67.8-30.4,67.8-67.8v-29.1C208.4,507.7,200.8,490.7,188.5,478.5z M186.5,555.5c0,25.4-20.6,46-46,46s-46-20.6-46-46v-29.1
		c0-25.4,20.6-46,46-46c12.7,0,24.2,5.1,32.6,13.5c8.3,8.3,13.5,19.8,13.5,32.6V555.5z"/>
	<path class="st5" d="M415.9,395.4c-15.6-15.6-37.2-25.2-61-25.2c-47.6,0-86.2,38.6-86.2,86.2v37c0,47.6,38.6,86.2,86.2,86.2
		s86.2-38.6,86.2-86.2v-37C441.2,432.6,431.5,411,415.9,395.4z M415.5,495.5c0,34.5-27.9,62.4-62.4,62.4s-62.4-27.9-62.4-62.4v-40
		c0-34.5,27.9-62.4,62.4-62.4c17.2,0,32.8,7,44.1,18.3c11.3,11.3,18.3,26.9,18.3,44.1V495.5z"/>
	<path class="st5" d="M35.7,751.8c-5.7,0-10.3-4.6-10.3-10.3v-41.8c0-38,29.4-63,62.7-73.1c4.4-1.3,9.1,0.5,11.5,4.4h0
		c3.1,5,1.3,11.5-3.9,14.2c-9.4,4.9-23.8,13.1-34.5,21.9c-9.7,7.9-15.1,20-14.9,32.5l-0.2,42C46,747.2,41.4,751.8,35.7,751.8
		L35.7,751.8z"/>
	<path class="st5" d="M201.1,753L201.1,753c-6,0-10.9-4.9-10.9-10.9V667c0,0,2.4-37.6,43.6-55.7c22.9-10.1,39.8-16.5,50.3-20.1
		c7.8-2.7,16.4-1.4,23,3.6l46.6,34.7l43.3-34.7c6.9-5.5,16.3-7,24.6-3.8l58.1,22.7c0,0,33.9,17,38.8,50.9v76.3
		c0,6-4.9,10.9-10.9,10.9h0c-6,0-10.9-4.9-10.9-10.9v-66.6c0,0-1.2-35.1-37.6-46l-47.3-19.4L363.4,649c-5,4.1-12.1,4.2-17.2,0.3
		L295.6,610l-48.5,18.2c0,0-33.9,14.5-35.1,42.4v71.5C212,748.1,207.1,753,201.1,753z"/>
	<path class="st5" d="M447.7,220.5c6.8-6.8,2.7-18.5-6.9-19.5l-47.3-5.2c-4-0.4-7.5-2.9-9.2-6.6l-20.7-45.1
		c-4.1-9-16.8-8.9-20.9,0.1L323.1,188c-1.6,3.6-5.1,6.2-9,6.7l-46.8,5.9c-9.5,1.2-13.4,12.7-6.7,19.5l34.9,34.9
		c2.7,2.7,3.9,6.5,3.2,10.2l-9,48.1c-1.8,9.5,8.2,16.8,16.7,12.2l41.4-22.2c3.3-1.8,7.3-1.8,10.7-0.1l43.5,22.5
		c8.6,4.4,18.5-3.1,16.5-12.5l-9.6-46.7c-0.8-3.8,0.4-7.7,3.1-10.4L447.7,220.5z M388.8,246.7c-4.1,4.1-5.8,10-4.6,15.6l7.7,34.6
		l-28.3-17.3c-5.7-3.5-12.9-3.6-18.7-0.3l-30.6,17.6l9.5-38c0.9-3.5-0.2-7.2-2.7-9.7l-31-31h34.5c6.2,0,11.8-3.8,14.2-9.6l14.3-35.3
		l17,37.1c2.2,4.7,6.9,7.8,12.1,7.8h35.1L388.8,246.7z"/>
</g>
</svg>
