<?xml version="1.0" encoding="utf-8"?>
<!-- Generator: Adobe Illustrator 24.2.3, SVG Export Plug-In . SVG Version: 6.00 Build 0)  -->
<svg version="1.1" id="Layer_1" xmlns="http://www.w3.org/2000/svg" xmlns:xlink="http://www.w3.org/1999/xlink" x="0px" y="0px"
	 viewBox="0 0 703 753" style="enable-background:new 0 0 703 753;" xml:space="preserve">
<style type="text/css">
	.st0{fill:#EFEFEF;}
	.st1{fill:#69D4E0;}
	.st2{fill:#69D4E0;stroke:#69D4E0;stroke-miterlimit:10;}
	.st3{fill:none;stroke:#69D4E0;stroke-miterlimit:10;}
	.st4{fill:#6AD5E0;}
	.st5{fill:#EBEBEC;}
	.st6{fill:#E9EBEB;}
	.st7{fill:#DFE2E2;}
	.st8{fill:#DDDFE0;}
</style>
<path class="st6" d="M143,352.7v0.6h45.5v-0.6H143z"/>
<path class="st6" d="M666.4,495.3c0-12.6-10.2-22.9-22.9-22.9h-21.5v-99.8h-20v99.8H229.4l-32-76.7c6.1-5.9,9.9-14.1,9.9-23.3v-19.3
	h78.8c18,0,32.6-14.6,32.6-32.6v-18.5l32.7,17.3l-8.9-27.7l-23.8-11.9v-61.6l61.5-32.9l1.1,42.1l18.9-10v-45.7
	c0-9-9.5-14.8-17.6-10.7l-63.9,32.8v-13.1c0-16.8-12.6-30.6-28.9-32.4c21.1-14.5,35-39.2,35-67.3c0-44.7-35.3-81-78.7-81
	s-78.7,36.2-78.7,81c0,27.9,13.8,52.5,34.7,67.1h-75.9c21.5-14.5,35.6-39.2,35.6-67.1c0-44.7-36.2-81-81-81s-81,36.2-81,81
	c0,28.5,14.7,53.5,36.9,67.9c-14.5,3.3-25.3,16.3-25.3,31.8v139.9c0,18,14.6,32.6,32.6,32.6h79.9v19.3c0,9.3,3.9,17.7,10.2,23.5
	L105,472.4H83.8c-12.6,0-22.9,10.2-22.9,22.9v34.8c0,0,4.4,11.1,20,15.5l259.5,113.1l-167.5,75.4L184,753l181.9-83.2L546.7,753
	l10-17.7l-164.1-75.4l261.7-116.4c0,0,12.2-4.4,13.3-16.6L666.4,495.3z M185.1,81.5c0-34,27.1-61.5,60.4-61.5S306,47.5,306,81.5
	s-27.1,61.5-60.4,61.5S185.1,115.5,185.1,81.5z M22.1,82.1c0-33.7,27.1-61,60.4-61s60.4,27.3,60.4,61s-27.1,61-60.4,61
	S22.1,115.8,22.1,82.1z M46.6,333.8c-8.6,0-15.6-7-15.6-15.6V182c0-8.6,7-15.6,15.6-15.6h237.1c8.6,0,15.6,7,15.6,15.6v136.2
	c0,8.6-7,15.6-15.6,15.6H46.6z M188.5,352.7v21.1c0,6.7-5.5,12.2-12.2,12.2h-21.1c-6.7,0-12.2-5.5-12.2-12.2v-21.1H188.5z
	 M151,404.3L151,404.3c1.8,0.3,3.6,0.5,5.5,0.5H175c2.2,0,4.3-0.2,6.3-0.6l24.3,68.3h-80L151,404.3z M647.6,523.4L365.9,648.8
	L82,524.5v-31.1h565.6V523.4z"/>
<path class="st6" d="M143,352.7v0.6h45.5v-0.6H143z"/>
<rect x="143" y="352.7" class="st6" width="45.5" height="0.6"/>
<path class="st6" d="M676.4,322.7l-7.5,0.2l4.8,17.5c0.3,1.3,0.8,2.4,1.5,3.5l2.4-0.1L676.4,322.7z M610,106.4
	c0,1.2,0.2,2.4,0.5,3.5l4.6,16.8l3.6-2.4l-6.3-19.5L610,106.4z"/>
<path class="st4" d="M702.7,332.4l-63.2-230.5c-1.8-6.7-7.9-11.1-14.5-11.1c-1.3,0-2.7,0.2-4,0.5c-6.8,1.9-11.3,8.2-11.1,14.9
	L395.8,248.4c-43.3,4.4-36.6,27.7-36.6,27.7l20,63.2c1.1,12.2,12.2,16.6,12.2,16.6c26.6,3.3,32.2-6.7,32.2-6.7L438,349v11.9
	c0,19.3,15.7,35,35,35h37.6c19.3,0,35-15.7,35-35v-14.3l129.6-2.8c3.3,5.7,10.1,8.7,16.8,6.9l0.3-0.1
	C700.2,348.5,704.9,340.3,702.7,332.4z M409.2,333.8h-10l-18.9-59.9l13.3-5.5C393.6,268.4,410.3,328.3,409.2,333.8z M526.7,358.5
	c0,9.6-7.8,17.4-17.4,17.4h-34c-9.6,0-17.4-7.8-17.4-17.4v-10l68.8-1.5V358.5z M429.1,328.3l-16.6-66.5l202.6-135.1l53.8,196.2
	L429.1,328.3z"/>
</svg>
