<?xml version="1.0" encoding="utf-8"?>
<!-- Generator: Adobe Illustrator 24.2.3, SVG Export Plug-In . SVG Version: 6.00 Build 0)  -->
<svg version="1.1" id="Layer_1" xmlns="http://www.w3.org/2000/svg" xmlns:xlink="http://www.w3.org/1999/xlink" x="0px" y="0px"
	 viewBox="0 0 827 549" style="enable-background:new 0 0 827 549;" xml:space="preserve">
<style type="text/css">
	.st0{fill:#EFEFEF;}
	.st1{fill:#69D4E0;}
	.st2{fill:#69D4E0;stroke:#69D4E0;stroke-miterlimit:10;}
	.st3{fill:none;stroke:#69D4E0;stroke-miterlimit:10;}
	.st4{fill:#6AD5E0;}
	.st5{fill:#EBEBEC;}
	.st6{fill:#E9EBEB;}
	.st7{fill:#DFE2E2;}
	.st8{fill:#DDDFE0;}
</style>
<path class="st6" d="M827.5,46v452.9c0,27.9-22.6,50.6-50.6,50.6H484.5v-0.1c2.4-2.9,5.1-6.8,7.4-11.7c1.3-2.9,2.3-5.7,2.9-8.2
	h281.6c16.3,0,29.6-13.2,29.6-29.6V45.2c0-13.4-10.9-24.2-24.2-24.2h-358C411.2,21,401,31.2,401,43.8V192h-0.2
	c-0.4-3.5-1.7-9.3-5.8-15c-4.7-6.5-10.6-9.6-13.5-10.8V41.5c0-22.7,18.4-41,41-41H782C807.1,0.5,827.5,20.9,827.5,46z"/>
<path class="st4" d="M722,394c-4-3-28-12-28-12c-18-18-8-56-8-56c7-13,10-29,10-29c35-10,22-78,22-78c12-81-9-99-17-109
	s-29-13-29-13c-32-23-70-21-70-21c-96,4-106,85-108,105s8,53,8,53c-12,31,11,60,12,62s5,1,5,1v2c0,0,7,11,13,24s2,42,2,42
	c-2,17-13,19-13,19c-12,2-20,10-20,10v25c7,0,17-9,23-14s24,39,83,38s82-43,82-43c11,6,78,34,78,34c33,7,39,33.1,39,33.1v-34.6
	C802,422,722,394,722,394z M602,96c0,0,31-3,63,20c0,0,30,2,37,35c0,0,3,33-2,48c0,0-23-17-26-33s-7-17-17-16s-15,28-62,31
	s-58,1-78,26C517,207,492,110,602,96z M609,423c-50,0-64-32-64-32c9-11,9-37,9-37c61,45,110,0,110,0c-1,18,9,34,9,34
	S659,423,609,423z M614,353c-54,0-72-49-75-66c0,0-18-14-21-26c0,0-3-9,0-15s6-3,9-12c0,0,7-25,28-28s82-2,102-29c0,0,12,30,31,40
	s13,35,13,35s-2,23-23,34C678,286,668,353,614,353z"/>
<circle class="st6" cx="73.5" cy="311.5" r="18.5"/>
<path class="st6" d="M281,276c-64.1,0-116,51.9-116,116s51.9,116,116,116s116-51.9,116-116S345.1,276,281,276z M280.5,486
	c-53.3,0-96.5-42.3-96.5-94.5s43.2-94.5,96.5-94.5s96.5,42.3,96.5,94.5S333.8,486,280.5,486z"/>
<path class="st6" d="M427.6,242H389l-7.2-32.8C377.2,188.6,359,174,338,174H223c-21,0-39.3,14.6-43.8,35.2l-5.2,23.5
	c-1.2,5.4-6,9.3-11.6,9.3H118v-1c0-7.2-5.8-13-13-13H59c-3.6,0-6.8,1.5-9.2,3.8S46,237.4,46,241c-25.4,0-46,20.6-46,46v214.5
	C0,527.7,21.3,549,47.5,549h380.1c26.7,0,48.4-21.7,48.4-48.4V290.4C476,263.7,454.3,242,427.6,242z M455,494.3
	c0,18.1-14.6,32.7-32.7,32.7H53.7C35.6,527,21,512.4,21,494.3V292.9c0-18.1,14.8-32.8,32.9-32.7l113.4,0.7
	c11.7,0.1,21.9-7.7,25-18.9l8.6-31.1c2.4-8.8,10.4-14.8,19.5-14.8h118.8c9.3,0,17.4,6.3,19.6,15.3l7.8,31.2
	c2.6,10.3,11.8,17.5,22.4,17.5h33.3c18.1,0,32.7,14.6,32.7,32.7V494.3z"/>
<circle class="st6" cx="73.5" cy="311.5" r="18.5"/>
<path class="st6" d="M281,276c-64.1,0-116,51.9-116,116s51.9,116,116,116s116-51.9,116-116S345.1,276,281,276z M280.5,486
	c-53.3,0-96.5-42.3-96.5-94.5s43.2-94.5,96.5-94.5s96.5,42.3,96.5,94.5S333.8,486,280.5,486z"/>
<circle class="st6" cx="73.5" cy="311.5" r="18.5"/>
<path class="st6" d="M281,276c-64.1,0-116,51.9-116,116s51.9,116,116,116s116-51.9,116-116S345.1,276,281,276z M280.5,486
	c-53.3,0-96.5-42.3-96.5-94.5s43.2-94.5,96.5-94.5s96.5,42.3,96.5,94.5S333.8,486,280.5,486z"/>
</svg>
