<?xml version="1.0" encoding="utf-8"?>
<!-- Generator: Adobe Illustrator 24.2.3, SVG Export Plug-In . SVG Version: 6.00 Build 0)  -->
<svg version="1.1" id="Layer_1" xmlns="http://www.w3.org/2000/svg" xmlns:xlink="http://www.w3.org/1999/xlink" x="0px" y="0px"
	 viewBox="0 0 670 549" style="enable-background:new 0 0 670 549;" xml:space="preserve">
<style type="text/css">
	.st0{fill:#EFEFEF;}
	.st1{fill:#69D4E0;}
	.st2{fill:#69D4E0;stroke:#69D4E0;stroke-miterlimit:10;}
	.st3{fill:none;stroke:#69D4E0;stroke-miterlimit:10;}
	.st4{fill:#6AD5E0;}
	.st5{fill:#EBEBEC;}
	.st6{fill:#E9EBEB;}
	.st7{fill:#DFE2E2;}
	.st8{fill:#DDDFE0;}
</style>
<path class="st7" d="M531.4,344.7V373l-518-0.5V87.7c0-9.3,7.6-16.9,16.9-16.9h317.3c0-3.1,3.1-13.6,3.1-13.6L29.2,56.7
	c-16,0-28.9,12.9-28.9,28.9v326.7c0,17.7,14.3,32,32,32h481.8c17.7,0,32-14.3,32-32v-63.3L531.4,344.7z M532.5,410.9
	c0,11.5-9.3,20.8-20.8,20.8H33.6c-11.5,0-20.8-9.3-20.8-20.8v-23.2h519.6V410.9z"/>
<path class="st4" d="M164.5,111.1H72.9c-7.7,0-13.9,6.2-13.9,13.9v91.6c0,7.7,6.2,13.9,13.9,13.9h91.6c7.7,0,13.9-6.2,13.9-13.9V125
	C178.4,117.3,172.2,111.1,164.5,111.1z M162.7,216.9h-89v-92.2h89V216.9z"/>
<path class="st4" d="M166.9,254.6H70.4c-6.3,0-11.5,5.1-11.5,11.5v56.7c0,6.3,5.1,11.5,11.5,11.5h96.5c6.3,0,11.5-5.1,11.5-11.5
	v-56.7C178.4,259.8,173.2,254.6,166.9,254.6z M162.7,319.6h-89v-51.3h89V319.6z"/>
<path class="st4" d="M279,254.6h-68.2c-5.2,0-9.4,4.2-9.4,9.4v60.8c0,5.2,4.2,9.4,9.4,9.4H279c5.2,0,9.4-4.2,9.4-9.4V264
	C288.4,258.8,284.2,254.6,279,254.6z M274.8,319.6H214v-51.3h60.8V319.6z"/>
<path class="st7" d="M387.7,500.8H158.7c-12.2,0-22.2,9.9-22.2,22.2v16.1c0,5.5,4.4,9.9,9.9,9.9H400c5.5,0,9.9-4.4,9.9-9.9V523
	C409.9,510.7,400,500.8,387.7,500.8z M396.3,535.4H149.1V524c0-4.7,3.8-8.5,8.5-8.5h230.2c4.7,0,8.5,3.8,8.5,8.5V535.4z"/>
<polygon class="st7" points="188.9,502.9 200.4,439 215.1,439 202.5,502.9 "/>
<polygon class="st7" points="331.3,440 343.9,504 357.5,504 346,439 "/>
<path class="st7" d="M570.2,91.2c-18.5,0-33.5,15-33.5,33.5s15,33.5,33.5,33.5s33.5-15,33.5-33.5S588.7,91.2,570.2,91.2z
	 M569.7,144.6c-10.7,0-19.4-8.7-19.4-19.4c0-10.7,8.7-19.4,19.4-19.4c10.7,0,19.4,8.7,19.4,19.4
	C589.1,135.9,580.4,144.6,569.7,144.6z"/>
<path class="st7" d="M649.6,58.9l-240.7-58C392.7-3.1,376.6,7,373,23.2l-46.9,212.5l-4.1,18c-3,13.2,5.3,26.3,18.5,29.4l243.6,56.3
	c12.6,2.9,25.2-4.9,28.3-17.5l56.4-231.6C672.2,76.4,663.6,62.3,649.6,58.9z M598,312.6c-2,8.5-10.6,13.8-19.1,11.9L348,271.8
	c-8.6-2-14-10.5-12.1-19.1l3.3-14.7L460.3,137c3.6-3,9.2-1.8,11.1,2.5l39.6,86.1c2.3,5.1,8.9,6.5,13.1,2.9l25.1-21.3
	c3.6-3.1,9.2-1.8,11.1,2.5l40.5,90.1L598,312.6z M651.3,90.1L606.5,277L576.6,206c-5.9-14.1-23.5-18.7-35.6-9.4l-21.1,16.2l-32-77
	c-6-14.4-24.1-18.9-36.2-9.1l-107.1,87.5l41.9-185.8c2-8.7,10.6-14.1,19.3-12.1l233.7,54.5C648,72.8,653.4,81.5,651.3,90.1z"/>
<path class="st7" d="M570.2,91.2c-18.5,0-33.5,15-33.5,33.5s15,33.5,33.5,33.5s33.5-15,33.5-33.5S588.7,91.2,570.2,91.2z
	 M569.7,144.6c-10.7,0-19.4-8.7-19.4-19.4c0-10.7,8.7-19.4,19.4-19.4c10.7,0,19.4,8.7,19.4,19.4
	C589.1,135.9,580.4,144.6,569.7,144.6z"/>
<path class="st7" d="M606.5,277l-5.5,22.9l-40.5-90.1c-1.9-4.3-7.5-5.6-11.1-2.5l-25.1,21.3c-4.3,3.6-10.8,2.2-13.1-2.9l-39.6-86.1
	c-2-4.3-7.5-5.6-11.1-2.5L339.2,237.9l5.4-23.7l107.1-87.5c12.1-9.9,30.2-5.3,36.2,9.1l32,77l21.1-16.2c12.1-9.3,29.7-4.6,35.6,9.4
	L606.5,277z"/>
<path class="st7" d="M609,282.9l-5.2,23l-2.7-6l-40.5-90.1c-1.9-4.3-7.5-5.6-11.1-2.5l-25.1,21.3c-4.3,3.6-10.8,2.2-13.1-2.9
	l-39.6-86.1c-2-4.3-7.5-5.6-11.1-2.5L339.2,237.9l-3.7,3.1l3.1-22l5.9-4.8l107.1-87.5c12.1-9.9,30.2-5.3,36.2,9.1l32,77l21.1-16.2
	c12.1-9.3,29.7-4.6,35.6,9.4l29.9,71.1L609,282.9z"/>
<path class="st7" d="M570.2,91.2c-18.5,0-33.5,15-33.5,33.5s15,33.5,33.5,33.5s33.5-15,33.5-33.5S588.7,91.2,570.2,91.2z
	 M569.7,144.6c-10.7,0-19.4-8.7-19.4-19.4c0-10.7,8.7-19.4,19.4-19.4c10.7,0,19.4,8.7,19.4,19.4
	C589.1,135.9,580.4,144.6,569.7,144.6z"/>
</svg>
