<?xml version="1.0" encoding="utf-8"?>
<!-- Generator: Adobe Illustrator 24.2.3, SVG Export Plug-In . SVG Version: 6.00 Build 0)  -->
<svg version="1.1" id="Layer_1" xmlns="http://www.w3.org/2000/svg" xmlns:xlink="http://www.w3.org/1999/xlink" x="0px" y="0px"
	 viewBox="0 0 840 660" style="enable-background:new 0 0 840 660;" xml:space="preserve">
<style type="text/css">
	.st0{fill:#EFEFEF;}
	.st1{fill:#69D4E0;}
	.st2{fill:#69D4E0;stroke:#69D4E0;stroke-miterlimit:10;}
	.st3{fill:none;stroke:#69D4E0;stroke-miterlimit:10;}
	.st4{fill:#6AD5E0;}
	.st5{fill:#EBEBEC;}
	.st6{fill:#E9EBEB;}
	.st7{fill:#DFE2E2;}
	.st8{fill:#DDDFE0;}
</style>
<rect x="1" y="190" class="st4" width="47" height="241"/>
<path class="st4" d="M219,190h-52L71,431l53.5-0.5l20-53h97l22,53.5H313L219,190z M159.5,334.5l34-83l33,83H159.5z"/>
<path class="st4" d="M207.5,160.5h11v-66l-60-60c0,0,7-20-4-30s-24-7-30,0s-12,22,1,32s23,3,23,3l59,58V160.5z"/>
<path class="st8" d="M463.9,462.5h-98.7c-5.3,0-9.6-4.3-9.6-9.6v-30.7c0-5.3,4.3-9.6,9.6-9.6h98.7c5.3,0,9.6,4.3,9.6,9.6v30.7
	C473.5,458.2,469.2,462.5,463.9,462.5z"/>
<path class="st8" d="M595.7,462.5H494.3c-6,0-10.8-4.8-10.8-10.8v-28.4c0-6,4.8-10.8,10.8-10.8h101.4c6,0,10.8,4.8,10.8,10.8v28.4
	C606.5,457.7,601.7,462.5,595.7,462.5z"/>
<path class="st8" d="M681.8,462.5h-54.6c-7,0-12.7-5.7-12.7-12.7v-24.6c0-7,5.7-12.7,12.7-12.7h54.6c7,0,12.7,5.7,12.7,12.7v24.6
	C694.5,456.8,688.8,462.5,681.8,462.5z"/>
<path class="st8" d="M802.6,83.5H221.5l8,8v6H803c11.3,0,20.5,9.2,20.5,20.5v361.5h-593v39.1c0,20.4,16.5,36.9,36.9,36.9h535.2
	c20.4,0,36.9-16.5,36.9-36.9V120.4C839.5,100,823,83.5,802.6,83.5z M824.5,514.6c0,15.4-12.5,27.9-27.9,27.9H273.4
	c-15.4,0-27.9-12.5-27.9-27.9v-19.1h579V514.6z"/>
<path class="st8" d="M604.3,259.8l-88.5,52.6c-6.8,4-15.3-0.9-15.3-8.7V198.5c0-7.9,8.6-12.8,15.3-8.7l88.5,52.6
	C611,246.3,611,255.9,604.3,259.8z"/>
<path class="st8" d="M675.5,128.5h-254c-10.5,0-19,8.5-19,19v203c0,10.5,8.5,19,19,19h254c10.5,0,19-8.5,19-19v-203
	C694.5,137,686,128.5,675.5,128.5z M679.5,347c0,4.7-3.8,8.5-8.5,8.5H426c-4.7,0-8.5-3.8-8.5-8.5V152c0-4.7,3.8-8.5,8.5-8.5h245
	c4.7,0,8.5,3.8,8.5,8.5V347z"/>
<path class="st8" d="M604.3,259.8l-88.5,52.6c-6.8,4-15.3-0.9-15.3-8.7V198.5c0-7.9,8.6-12.8,15.3-8.7l88.5,52.6
	C611,246.3,611,255.9,604.3,259.8z"/>
<path class="st8" d="M604.3,259.8l-88.5,52.6c-6.8,4-15.3-0.9-15.3-8.7V198.5c0-7.9,8.6-12.8,15.3-8.7l88.5,52.6
	C611,246.3,611,255.9,604.3,259.8z"/>
<polygon class="st8" points="303,130.9 310.5,154.5 332.5,161.5 309.5,169.5 303,190.7 296.5,169.5 273.5,160.5 295.5,153.5 "/>
<polygon class="st8" points="363,299.9 367.4,313.6 380.2,317.7 366.8,322.3 363,334.7 359.2,322.3 345.9,317.1 358.7,313 "/>
<polygon class="st8" points="745,405.9 749.4,419.6 762.2,423.7 748.8,428.3 745,440.7 741.2,428.3 727.9,423.1 740.7,419 "/>
<polygon class="st8" points="447.5,552.5 437.5,617.5 451.5,617.5 463.5,552.5 "/>
<polygon class="st8" points="598.5,552.5 608.5,617.5 622.5,617.5 614.5,552.5 "/>
<path class="st8" d="M652.4,613.5H406.6c-13.8,0-25.1,11.2-25.1,25.1V654c0,3,2.5,5.5,5.5,5.5h285c3,0,5.5-2.5,5.5-5.5v-15.4
	C677.5,624.7,666.3,613.5,652.4,613.5z M664.5,644.5h-267v-5.2c0-5.4,4.4-9.8,9.8-9.8h247.5c5.4,0,9.8,4.4,9.8,9.8V644.5z"/>
<path class="st4" d="M160.5,109.5l-8,8l-29-29h-33L52.9,50.9c-2.9,1.6-6.3,2.6-9.9,2.6c-11.3,0-20.5-9.2-20.5-20.5
	S31.7,12.5,43,12.5S63.5,21.7,63.5,33c0,3.9-1.1,7.5-2.9,10.6l33.9,33.9h34L160.5,109.5z"/>
<path class="st4" d="M147.5,160.5h-15l-30-30H39.1c-3,7.6-10.4,13-19.1,13c-11.3,0-20.5-9.2-20.5-20.5s9.2-20.5,20.5-20.5
	c10.1,0,18.5,7.4,20.2,17h66.3L147.5,160.5z"/>
<path class="st4" d="M144.5,459.5l-31,31H52.4c-2.7,8.1-10.4,14-19.4,14c-11.3,0-20.5-9.2-20.5-20.5s9.2-20.5,20.5-20.5
	c9.8,0,18,6.8,20,16h56.5l20-20H144.5z"/>
<path class="st4" d="M174.5,459.5v46l-62,62H73.7c-2.4,8.6-10.3,15-19.7,15c-11.3,0-20.5-9.2-20.5-20.5s9.2-20.5,20.5-20.5
	c9.4,0,17.4,6.4,19.7,15h31.8l57-57v-40H174.5z"/>
<path class="st4" d="M219.5,529.5l-46.2,46.2c1.4,2.8,2.2,5.9,2.2,9.3c0,11.3-9.2,20.5-20.5,20.5c-11.3,0-20.5-9.2-20.5-20.5
	s9.2-20.5,20.5-20.5c3.9,0,7.5,1.1,10.6,2.9l42.9-42.9v-65h11V529.5z"/>
</svg>
