<?xml version="1.0" encoding="utf-8"?>
<!-- Generator: Adobe Illustrator 24.2.3, SVG Export Plug-In . SVG Version: 6.00 Build 0)  -->
<svg version="1.1" id="Layer_1" xmlns="http://www.w3.org/2000/svg" xmlns:xlink="http://www.w3.org/1999/xlink" x="0px" y="0px"
	 viewBox="0 0 827 640" style="enable-background:new 0 0 827 640;" xml:space="preserve">
<style type="text/css">
	.st0{fill:#EFEFEF;}
	.st1{fill:#69D4E0;}
	.st2{fill:#69D4E0;stroke:#69D4E0;stroke-miterlimit:10;}
	.st3{fill:none;stroke:#69D4E0;stroke-miterlimit:10;}
	.st4{fill:#6AD5E0;}
	.st5{fill:#EBEBEC;}
	.st6{fill:#E9EBEB;}
	.st7{fill:#DFE2E2;}
	.st8{fill:#DDDFE0;}
	.st9{fill:#D7DCDC;}
	.st10{fill:#3C8893;}
	.st11{fill:#5CC5D0;}
	.st12{fill:#E3E5E5;}
	.st13{fill:#E4E6E6;}
</style>
<circle class="st9" cx="72" cy="90" r="12.5"/>
<circle class="st9" cx="112.5" cy="89.5" r="12"/>
<circle class="st9" cx="153.5" cy="90.5" r="13"/>
<path class="st9" d="M129.5,456.5c4-31.8,38.9-51.6,53.1-58.4c3.6-1.7,7.8-1.6,11.2,0.4l40.5,23.1c0.9,0.5,2,0.8,3,0.8
	c2.1,0,4.1-1,5.2-3c1.7-2.8,0.9-6.3-1.8-8.1l-34.1-23.3c-1.3-0.9-2.1-2.4-2.1-4v-34.4c-23.1-17.8-22.5-43.4-22.1-48.9
	c0.1-1.1,0.1-2.1,0.2-3.2c1.5-34.6,25.4-47.8,43.3-52.8c13.5-3.8,27.9-3.7,41.3,0.4c43.7,13.3,38.3,59.1,38.3,63.5c0,5,17,15,15,26
	s-14,8-14,8s0-2-1,18s-21,21-21,21h-15v20c0,0,18,6,44,30s22,90,22,90h-211C124.5,521.5,124.5,496.5,129.5,456.5z"/>
<path class="st9" d="M621.7,401.5v-20h-15c0,0-20-1-21-21s-1-18-1-18s-12,3-14-8s15-21,15-26c0-4.4-5.4-50.2,38.3-63.5
	c13.4-4.1,27.8-4.2,41.3-0.4c17.9,5,41.7,18.1,43.3,52.8c0,1.1,0.1,2.2,0.2,3.2c0.4,5.5,1,31.2-22.1,48.9v34.4l5.4,3.5
	c8.4,5.4,17,10.5,25.6,15.5c16.4,9.3,34.5,26.4,37.8,52.6c5,40,5,66,5,66H555.7c0,0-4-66,22-90S621.7,401.5,621.7,401.5z"/>
<polygon class="st9" points="0,0 186,0 186,21.5 21.5,21.5 21.5,175.5 0,175.5 "/>
<polygon class="st9" points="827,0 827,176.5 804.5,176.5 804.5,21.5 640,21.5 640,0 "/>
<polygon class="st9" points="21.5,619.5 186,619.5 186,640 0,640 0,463.5 21.5,463.5 "/>
<polygon class="st9" points="827,463.5 827,640 640,640 640,619.5 804.5,619.5 804.5,463.5 "/>
<circle class="st9" cx="72" cy="90" r="12.5"/>
<circle class="st9" cx="112.5" cy="89.5" r="12"/>
<circle class="st9" cx="153.5" cy="90.5" r="13"/>
<path class="st9" d="M335.5,521.5h-211c0,0,0-25,5-65c4-31.8,38.9-51.6,53.1-58.4c3.6-1.7,7.8-1.6,11.2,0.4l40.5,23.1
	c0.9,0.5,2,0.8,3,0.8c2.1,0,4.1-1,5.2-3c1.7-2.8,0.9-6.3-1.8-8.1l-34.1-23.3c-1.3-0.9-2.1-2.4-2.1-4v-34.4
	c-23.1-17.8-22.5-43.4-22.1-48.9c0.1-1.1,0.1-2.1,0.2-3.2c1.5-34.6,25.4-47.8,43.3-52.8c13.5-3.8,27.9-3.7,41.3,0.4
	c43.7,13.3,38.3,59.1,38.3,63.5c0,5,17,15,15,26s-14,8-14,8s0-2-1,18s-21,21-21,21h-15v20c0,0,18,6,44,30S335.5,521.5,335.5,521.5z"
	/>
<path class="st9" d="M755.5,455.5c5,40,5,66,5,66H555.7c0,0-4-66,22-90s44-30,44-30v-20h-15c0,0-20-1-21-21s-1-18-1-18s-12,3-14-8
	s15-21,15-26c0-4.4-5.4-50.2,38.3-63.5c13.4-4.1,27.8-4.2,41.3-0.4c17.9,5,41.7,18.1,43.3,52.8c0,1.1,0.1,2.2,0.2,3.2
	c0.4,5.5,1,31.2-22.1,48.9v34.4l5.4,3.5c8.4,5.4,17,10.5,25.6,15.5C734.1,412.2,752.2,429.3,755.5,455.5z"/>
<circle class="st9" cx="72" cy="90" r="12.5"/>
<circle class="st9" cx="112.5" cy="89.5" r="12"/>
<circle class="st9" cx="153.5" cy="90.5" r="13"/>
<path class="st10" d="M523.9,170.5H367.1c-11.4,0-20.6,9.2-20.6,20.6v99.7c0,11.4,9.2,20.6,20.6,20.6h9.4v34.7c0,3.8,4.6,5.7,7.3,3
	l37.7-37.7h102.4c11.4,0,20.6-9.2,20.6-20.6v-99.7C544.5,179.7,535.3,170.5,523.9,170.5z M470,278c-0.9,0.9-2.2,1.5-3.5,1.5h-86
	c-2.8,0-5-2.2-5-5c0-1.4,0.6-2.6,1.5-3.5c0.9-0.9,2.2-1.5,3.5-1.5h86c2.8,0,5,2.2,5,5C471.5,275.9,470.9,277.1,470,278z
	 M513.2,245.2c-0.8,0.8-1.9,1.3-3.2,1.3H380c-2.5,0-4.5-2-4.5-4.5c0-1.2,0.5-2.4,1.3-3.2c0.8-0.8,1.9-1.3,3.2-1.3h130
	c2.5,0,4.5,2,4.5,4.5C514.5,243.2,514,244.4,513.2,245.2z M513,212c-0.9,0.9-2.2,1.5-3.5,1.5h-129c-2.8,0-5-2.2-5-5
	c0-1.4,0.6-2.6,1.5-3.5c0.9-0.9,2.2-1.5,3.5-1.5h129c2.8,0,5,2.2,5,5C514.5,209.9,513.9,211.1,513,212z"/>
<path class="st9" d="M335.5,521.5h-211c0,0,0-25,5-65c4-31.8,38.9-51.6,53.1-58.4c3.6-1.7,7.8-1.6,11.2,0.4l40.5,23.1
	c0.9,0.5,2,0.8,3,0.8c2.1,0,4.1-1,5.2-3c1.7-2.8,0.9-6.3-1.8-8.1l-34.1-23.3c-1.3-0.9-2.1-2.4-2.1-4v-34.4
	c-23.1-17.8-22.5-43.4-22.1-48.9c0.1-1.1,0.1-2.1,0.2-3.2c1.5-34.6,25.4-47.8,43.3-52.8c13.5-3.8,27.9-3.7,41.3,0.4
	c43.7,13.3,38.3,59.1,38.3,63.5c0,5,17,15,15,26s-14,8-14,8s0-2-1,18s-21,21-21,21h-15v20c0,0,18,6,44,30S335.5,521.5,335.5,521.5z"
	/>
<path class="st9" d="M760.5,521.5H555.7c0,0-4-66,22-90s44-30,44-30v-20h-15c0,0-20-1-21-21s-1-18-1-18s-12,3-14-8s15-21,15-26
	c0-4.4-5.4-50.2,38.3-63.5c13.4-4.1,27.8-4.2,41.3-0.4c17.9,5,41.7,18.1,43.3,52.8c0,1.1,0.1,2.2,0.2,3.2c0.4,5.5,1,31.2-22.1,48.9
	v34.4l5.4,3.5c8.4,5.4,17,10.5,25.6,15.5c16.4,9.3,34.5,26.4,37.8,52.6C760.5,495.5,760.5,521.5,760.5,521.5z"/>
</svg>
