<?xml version="1.0" encoding="utf-8"?>
<!-- Generator: Adobe Illustrator 24.2.3, SVG Export Plug-In . SVG Version: 6.00 Build 0)  -->
<svg version="1.1" id="Layer_1" xmlns="http://www.w3.org/2000/svg" xmlns:xlink="http://www.w3.org/1999/xlink" x="0px" y="0px"
	 viewBox="0 0 1920 749" style="enable-background:new 0 0 1920 749;" xml:space="preserve">
<style type="text/css">
	.st0{fill:#FFFFFF;}
	.st1{fill:#3D8892;}
	.st2{fill:none;}
	.st3{fill:none;stroke:#3D8892;stroke-width:25;stroke-linecap:round;stroke-linejoin:round;stroke-miterlimit:10;}
</style>
<g>
	<g>
		<path class="st0" d="M1009.9,143.8v1.1h1.1v-1.1H1009.9z M1072.1,143.8h-46v1.1h46c16.2,0,29.4,13.2,29.4,29.4v82.7H651.9v-82.7
			c0-16.2,13.2-29.4,29.4-29.4h42.8v-1.1h-42.8c-16.8,0-30.5,13.7-30.5,30.5v83.8h451.8v-83.8
			C1102.6,157.5,1088.9,143.8,1072.1,143.8z M740.3,143.8v1.1h1.1v-1.1H740.3z M973.2,143.8v1.1h1.1v-1.1H973.2z M774.8,143.8v1.1
			h1.1v-1.1H774.8z M793.1,143.8v1.1H957v-1.1H793.1z"/>
		<path class="st0" d="M1101.5,174.4v82.7H651.9v-82.7c0-16.2,13.2-29.4,29.4-29.4H723v60.4h71.2v-60.4H956v61.5h71.2v-61.5h45
			C1088.3,144.9,1101.5,158.1,1101.5,174.4z"/>
	</g>
	<g>
		<path class="st0" d="M650.8,274.3v293.8c0,20.5,16.7,37.3,37.3,37.3h377.3c20.6,0,37.3-16.7,37.3-37.3V274.3H650.8z M1101.5,568.1
			c0,20-16.2,36.2-36.2,36.2H688.1c-20,0-36.2-16.2-36.2-36.2V275.4h449.7V568.1z"/>
		<path class="st0" d="M651.9,275.4v292.7c0,20,16.2,36.2,36.2,36.2h377.3c20,0,36.2-16.2,36.2-36.2V275.4H651.9z M982.8,415.5
			l-47.4,46.2l11.2,65.2c0.6,3.4-0.8,6.7-3.5,8.7c-1.6,1.1-3.4,1.7-5.2,1.7c-1.4,0-2.8-0.4-4.2-1l-58.6-30.8l-58.6,30.8
			c-3,1.6-6.6,1.3-9.4-0.7c-2.8-2-4.1-5.3-3.5-8.7l11.2-65.2l-47.4-46.2c-2.4-2.4-3.3-5.9-2.3-9.1c1.1-3.2,3.8-5.6,7.2-6l65.5-9.5
			l29.3-59.4c1.5-3,4.6-4.9,8-4.9c3.4,0,6.5,1.9,8,4.9l29.3,59.4l65.5,9.5c3.4,0.5,6.1,2.8,7.2,6C986,409.6,985.2,413.1,982.8,415.5
			z"/>
	</g>
	<g>
		<path class="st0" d="M758.1,88.8c-9.8,0-17.8,8-17.8,17.8v64.7c0,9.8,8,17.8,17.8,17.8s17.8-8,17.8-17.8v-64.7
			C775.9,96.8,767.9,88.8,758.1,88.8z M774.8,171.3c0,9.2-7.5,16.7-16.7,16.7c-9.2,0-16.7-7.5-16.7-16.7v-64.7
			c0-9.2,7.5-16.7,16.7-16.7c9.2,0,16.7,7.5,16.7,16.7V171.3z"/>
	</g>
	<g>
		<path class="st0" d="M992.1,88.8c-10.4,0-18.9,8.5-18.9,18.9v62.5c0,10.4,8.5,18.9,18.9,18.9c10.4,0,18.9-8.5,18.9-18.9v-62.5
			C1011,97.3,1002.5,88.8,992.1,88.8z M1009.9,170.3c0,9.8-8,17.8-17.8,17.8s-17.8-8-17.8-17.8v-62.5c0-9.8,8-17.8,17.8-17.8
			s17.8,8,17.8,17.8V170.3z"/>
	</g>
	<g>
		<path class="st0" d="M774.8,129.4v1.1l1.1-0.1v-1.1L774.8,129.4z M793.1,143.8v25.9c0,19.1-15.5,34.5-34.5,34.5
			c-9.5,0-18.2-3.9-24.4-10.1c-6.2-6.2-10.1-14.9-10.1-24.4v-25.9H723v61.5h71.2v-61.5H793.1z M740.3,132.6v1.1l1.1-0.1v-1.1
			L740.3,132.6z"/>
		<path class="st0" d="M774.8,106.6v64.7c0,9.2-7.5,16.7-16.7,16.7c-9.2,0-16.7-7.5-16.7-16.7v-64.7c0-9.2,7.5-16.7,16.7-16.7
			C767.3,89.9,774.8,97.4,774.8,106.6z"/>
	</g>
	<g>
		<path class="st0" d="M1009.9,132v1.1h1.1V132H1009.9z M1026.1,143.8v27c0,19.1-15.5,34.5-34.5,34.5c-9.5,0-18.2-3.9-24.4-10.1
			c-6.2-6.2-10.1-14.9-10.1-24.4v-27H956v62.6h71.2v-62.6H1026.1z M973.2,132v1.1h1.1V132H973.2z"/>
		<path class="st0" d="M1009.9,107.7v62.5c0,9.8-8,17.8-17.8,17.8s-17.8-8-17.8-17.8v-62.5c0-9.8,8-17.8,17.8-17.8
			S1009.9,97.9,1009.9,107.7z"/>
	</g>
	<g>
		<path class="st0" d="M985,406.4c-1.1-3.2-3.8-5.6-7.2-6l-65.5-9.5L883,331.5c-1.5-3-4.6-4.9-8-4.9c-3.4,0-6.5,1.9-8,4.9
			l-29.3,59.4l-65.5,9.5c-3.4,0.5-6.1,2.8-7.2,6c-1,3.2-0.2,6.7,2.3,9.1l47.4,46.2l-11.2,65.2c-0.6,3.4,0.8,6.7,3.5,8.7
			c2.8,2,6.3,2.3,9.4,0.7l58.6-30.8l58.6,30.8c1.3,0.7,2.7,1,4.2,1c1.8,0,3.7-0.6,5.2-1.7c2.8-2,4.1-5.3,3.5-8.7l-11.2-65.2
			l47.4-46.2C985.2,413.1,986,409.6,985,406.4z M934.4,461.1l-0.2,0.2l11.3,65.8c0.5,3-0.6,5.8-3.1,7.6c-2.5,1.8-5.5,2-8.2,0.6
			l-58.8-30.9l-0.2-0.1L816,535.3c-2.7,1.4-5.8,1.2-8.2-0.6c-2.5-1.8-3.6-4.7-3.1-7.6l11.3-65.8l-47.8-46.6c-2.2-2.1-2.9-5.1-2-8
			c1-2.9,3.3-4.9,6.3-5.3l65.8-9.6l0.3,0l29.5-59.8c1.3-2.7,4-4.4,7-4.4c3,0,5.6,1.6,7,4.4l29.5,59.8l66,9.6c3,0.4,5.4,2.4,6.3,5.3
			c0.9,2.9,0.2,5.9-2,8L934.4,461.1z"/>
	</g>
</g>
<g>
	<g>
		<path class="st1" d="M558.8,2H49.4C22.2,2,0,24.2,0,51.4v643.2c0,27.2,22.2,49.4,49.4,49.4h509.5c27.2,0,49.4-22.2,49.4-49.4V51.4
			C608.2,24.2,586,2,558.8,2z M607.1,694.6c0,26.6-21.7,48.3-48.3,48.3H49.4c-26.6,0-48.3-21.7-48.3-48.3V51.4
			c0-26.6,21.7-48.3,48.3-48.3h509.5c26.6,0,48.3,21.7,48.3,48.3V694.6z"/>
		<path class="st1" d="M558.8,3.1H49.4C22.7,3.1,1.1,24.8,1.1,51.4v643.2c0,26.6,21.7,48.3,48.3,48.3h509.5
			c26.6,0,48.3-21.7,48.3-48.3V51.4C607.1,24.8,585.5,3.1,558.8,3.1z M581.8,694.9c0,13.7-11.1,24.8-24.8,24.8H52.3
			c-13.7,0-24.8-11.1-24.8-24.8V54.3c0-13.7,11.1-24.8,24.8-24.8H557c13.6,0,24.8,11.1,24.8,24.8V694.9z"/>
	</g>
	<g>
		<path class="st1" d="M557,29.5H52.3c-13.7,0-24.8,11.1-24.8,24.8v640.6c0,13.7,11.1,24.8,24.8,24.8H557
			c13.6,0,24.8-11.1,24.8-24.8V54.3C581.8,40.6,570.7,29.5,557,29.5z M580.7,694.9c0,13.1-10.6,23.7-23.7,23.7H52.3
			c-13.1,0-23.7-10.6-23.7-23.7V54.3c0-13.1,10.6-23.7,23.7-23.7H557c13.1,0,23.7,10.6,23.7,23.7V694.9z"/>
	</g>
	<g>
		<path class="st1" d="M260.4,142.8v25.9h239.4v-25.9H260.4z M498.7,167.6H261.5v-23.7h237.2V167.6z"/>
		<rect x="261.5" y="143.8" class="st1" width="237.2" height="23.7"/>
	</g>
	<g>
		<path class="st1" d="M260.4,330.4v27h239.4v-27H260.4z M498.7,356.3H261.5v-24.8h237.2V356.3z"/>
		<rect x="261.5" y="331.5" class="st1" width="237.2" height="24.8"/>
	</g>
	<g>
		<path class="st1" d="M260.4,513.7v28h239.4v-28H260.4z M498.7,540.7H261.5v-25.9h237.2V540.7z"/>
		<rect x="261.5" y="514.8" class="st1" width="237.2" height="25.9"/>
	</g>
	<g>
		<path class="st1" d="M146.6,215.7l-53.4-57.3c-4.5-4.8-4.2-12.3,0.6-16.8c4.8-4.5,12.3-4.2,16.8,0.6l35,37.6l66.9-80.2
			c4.2-5,11.7-5.7,16.7-1.5c5,4.2,5.7,11.7,1.5,16.7L146.6,215.7z"/>
	</g>
	<g>
		<path class="st1" d="M146.6,399l-53.4-57.3c-4.5-4.8-4.2-12.3,0.6-16.8c4.8-4.5,12.3-4.2,16.8,0.6l35,37.6l66.9-80.2
			c4.2-5,11.7-5.7,16.7-1.5c5,4.2,5.7,11.7,1.5,16.7L146.6,399z"/>
	</g>
	<g>
		<path class="st1" d="M146.6,586.6l-53.4-57.3c-4.5-4.8-4.2-12.3,0.6-16.8c4.8-4.5,12.3-4.2,16.8,0.6l35,37.6l66.9-80.2
			c4.2-5,11.7-5.7,16.7-1.5c5,4.2,5.7,11.7,1.5,16.7L146.6,586.6z"/>
	</g>
</g>
<g>
	<g>
		<path class="st1" d="M1402.4,744.5h-1.7c0.4,0.4,0.9,0.8,1.4,1.1h2C1403.5,745.2,1402.9,744.9,1402.4,744.5z M1245.3,744.5
			l0.7,0.7v0.4h27v-1.1H1245.3z M1143.6,0.4v745.1h29.1v-1.1h-28V1.5h774.2v743h-27v1.1h28V0.4H1143.6z M1777.7,744.5v1.1h27v-1.1
			H1777.7z M1626.7,744.5c-0.5,0.4-1.1,0.8-1.6,1.1h2c0.5-0.3,0.9-0.7,1.3-1.1H1626.7z"/>
		<polygon class="st1" points="1918.9,1.5 1918.9,744.5 1893,744.5 1893,28.5 1171.6,28.5 1171.6,744.5 1144.7,744.5 1144.7,1.5 		
			"/>
	</g>
	<g>
		<path class="st1" d="M1892,489v54.2l1.1-1.3v-51.9L1892,489z M1892,278.1v53.8l1.1-1.2v-51.5L1892,278.1z M1892,489v54.2l1.1-1.3
			v-51.9L1892,489z M1892,278.1v53.8l1.1-1.2v-51.5L1892,278.1z M1892,489v54.2l1.1-1.3v-51.9L1892,489z M1892,278.1v53.8l1.1-1.2
			v-51.5L1892,278.1z M1892,489v54.2l1.1-1.3v-51.9L1892,489z M1892,278.1v53.8l1.1-1.2v-51.5L1892,278.1z M1892,489v54.2l1.1-1.3
			v-51.9L1892,489z M1892,278.1v53.8l1.1-1.2v-51.5L1892,278.1z M1892,489v54.2l1.1-1.3v-51.9L1892,489z M1892,278.1v53.8l1.1-1.2
			v-51.5L1892,278.1z M1892,489v54.2l1.1-1.3v-51.9L1892,489z M1892,278.1v53.8l1.1-1.2v-51.5L1892,278.1z M1892,489v54.2l1.1-1.3
			v-51.9L1892,489z M1892,278.1v53.8l1.1-1.2v-51.5L1892,278.1z M1171.6,28.5v717.1h1.1v-716H1892v716h1.1V28.5H1171.6z M1892,278.1
			v53.8l1.1-1.2v-51.5L1892,278.1z M1892,489v54.2l1.1-1.3v-51.9L1892,489z M1892,278.1v53.8l1.1-1.2v-51.5L1892,278.1z M1892,489
			v54.2l1.1-1.3v-51.9L1892,489z M1892,278.1v53.8l1.1-1.2v-51.5L1892,278.1z M1892,489v54.2l1.1-1.3v-51.9L1892,489z M1892,278.1
			v53.8l1.1-1.2v-51.5L1892,278.1z M1892,489v54.2l1.1-1.3v-51.9L1892,489z M1892,278.1v53.8l1.1-1.2v-51.5L1892,278.1z M1892,489
			v54.2l1.1-1.3v-51.9L1892,489z M1892,278.1v53.8l1.1-1.2v-51.5L1892,278.1z M1892,489v54.2l1.1-1.3v-51.9L1892,489z M1892,278.1
			v53.8l1.1-1.2v-51.5L1892,278.1z M1892,489v54.2l1.1-1.3v-51.9L1892,489z M1892,278.1v53.8l1.1-1.2v-51.5L1892,278.1z M1892,489
			v54.2l1.1-1.3v-51.9L1892,489z M1892,278.1v53.8l1.1-1.2v-51.5L1892,278.1z M1892,489v54.2l1.1-1.3v-51.9L1892,489z"/>
	</g>
	<g>
		<path class="st1" d="M1803.5,442.4v162.9l1.1-1.3V443.4L1803.5,442.4z M1803.5,442.4v162.9l1.1-1.3V443.4L1803.5,442.4z
			 M1803.5,442.4v162.9l1.1-1.3V443.4L1803.5,442.4z M1656.2,168.6h-279l-1,1.1h281.1L1656.2,168.6z M1656.2,168.6h-279l-1,1.1
			h281.1L1656.2,168.6z M1656.2,168.6h-279l-1,1.1h281.1L1656.2,168.6z M1656.2,168.6h-279l-1,1.1h281.1L1656.2,168.6z
			 M1656.2,168.6h-279l-1,1.1h281.1L1656.2,168.6z M1656.2,168.6h-279l-1,1.1h281.1L1656.2,168.6z M1402.4,744.5h-1.7
			c0.4,0.4,0.9,0.8,1.4,1.1h2C1403.5,745.2,1402.9,744.9,1402.4,744.5z M1246,168.6v576.9h27v-1.1h-25.9V169.7h556.4v574.8h-25.9
			v1.1h27V168.6H1246z M1626.7,744.5c-0.5,0.4-1.1,0.8-1.6,1.1h2c0.5-0.3,0.9-0.7,1.3-1.1H1626.7z M1656.2,168.6h-279l-1,1.1h281.1
			L1656.2,168.6z M1656.2,168.6h-279l-1,1.1h281.1L1656.2,168.6z M1656.2,168.6h-279l-1,1.1h281.1L1656.2,168.6z M1656.2,168.6h-279
			l-1,1.1h281.1L1656.2,168.6z M1656.2,168.6h-279l-1,1.1h281.1L1656.2,168.6z M1656.2,168.6h-279l-1,1.1h281.1L1656.2,168.6z
			 M1803.5,442.4v162.9l1.1-1.3V443.4L1803.5,442.4z M1803.5,442.4v162.9l1.1-1.3V443.4L1803.5,442.4z M1803.5,442.4v162.9l1.1-1.3
			V443.4L1803.5,442.4z M1803.5,442.4v162.9l1.1-1.3V443.4L1803.5,442.4z"/>
	</g>
	<g>
		<path class="st1" d="M1363,193.5v1.1h303.6v-1.1H1363z M1363,193.5v1.1h303.6v-1.1H1363z M1363,193.5v1.1h303.6v-1.1H1363z
			 M1363,193.5v1.1h303.6v-1.1H1363z M1363,193.5v1.1h303.6v-1.1H1363z M1363,193.5v1.1h303.6v-1.1H1363z M1363,193.5v1.1h303.6
			v-1.1H1363z M1363,193.5v1.1h303.6v-1.1H1363z M1363,193.5v1.1h303.6v-1.1H1363z M1680.9,193.5l1.1,1.1h96.7v-1.1H1680.9z
			 M1777.7,417.9l1.1,1v-2.2L1777.7,417.9z M1777.7,744.5v1.1h1.1v-1.1H1777.7z M1363,193.5v1.1h303.6v-1.1H1363z M1271.9,193.5
			v552.1h1.1v-551h59.9v-1.1H1271.9z M1363,193.5v1.1h303.6v-1.1H1363z M1363,193.5v1.1h303.6v-1.1H1363z M1363,193.5v1.1h303.6
			v-1.1H1363z M1363,193.5v1.1h303.6v-1.1H1363z M1363,193.5v1.1h303.6v-1.1H1363z M1363,193.5v1.1h303.6v-1.1H1363z M1363,193.5
			v1.1h303.6v-1.1H1363z"/>
	</g>
	<g>
		<path class="st1" d="M1252.5,744.5l-1.1,1.1h-5l-74.8-74.8v-66.7l1.1-1.2l69.3-74.2c2.2-2.3,2-6-0.2-8.1l-69.1-65.6l-1.1-1v-66.3
			l1.1-1.2l71.6-78.8c1.2-1.3,1.2-3.4-0.1-4.7l-71.5-74.4l-1.1-1.1v-38.9l1.1,1.1L1246,266l1.1,1.1v77.6l-1.1,1.2l-66.4,73.1
			c-1.5,1.6-1.4,4.1,0.2,5.6l66.2,62.9l1.1,1v74.3l-1.1,1.2l-68.5,73.3c-0.4,0.4-0.4,1,0,1.4l69.5,69.5v36.3H1252.5z"/>
		<path class="st1" d="M1271.9,308.8V302C1272.2,304.3,1272.2,306.5,1271.9,308.8z"/>
	</g>
	<g>
		<polygon class="st1" points="1326.6,1.5 1306.8,1.5 1307.9,0.4 1325.5,0.4 		"/>
		<polygon class="st1" points="1551.9,193.4 1550.9,194.5 1478.1,194.5 1477.1,193.4 		"/>
		<polygon class="st1" points="1893,153.5 1893,178.3 1892,179.3 1886,185 1823.2,119.9 1804.4,100.5 1740.1,33.9 1711.5,33.9 
			1575.7,169.7 1453.8,169.7 1452.8,168.6 1414.3,129.4 1395.4,110.2 1317.2,24.1 1246.1,98.1 1226.8,116.9 1172.7,169.5 
			1171.6,170.6 1171.6,133 1172.7,131.9 1208.3,97.3 1227.6,78.5 1277.9,29.5 1279,28.5 1353,28.5 1354.1,29.5 1413.9,90.6 
			1432.8,109.8 1490.8,168.6 1538.3,168.6 1678.8,28.5 1772.4,28.5 1773.4,29.5 1823.2,81.1 1841.9,100.5 1892,152.3 		"/>
	</g>
	<g>
		<polygon class="st1" points="1703.5,193.4 1696.8,193.9 1688.1,194.5 1682.4,194.9 1681,193.4 		"/>
		<polygon class="st1" points="1893,28.5 1893,48 1892,49.1 1841.9,100.5 1823.2,119.9 1775.7,168.6 1774.7,169.7 1657.2,169.7 
			1521.4,28.5 1504.7,28.5 1432.8,109.8 1414.3,129.4 1377.1,168.6 1376.1,169.7 1276.5,169.7 1275.4,168.6 1226.8,116.9 
			1208.3,97.3 1172.7,59.5 1171.6,58.4 1171.6,28.5 1180.5,28.5 1181.5,29.5 1227.6,78.5 1246.1,98.1 1310.7,168.6 1339.8,168.6 
			1395.4,110.2 1413.9,90.6 1471.7,29.5 1472.7,28.5 1554.1,28.5 1692.5,168.6 1743.2,168.6 1804.4,100.5 1823.2,81.1 1873.4,29.5 
			1874.4,28.5 		"/>
	</g>
	<g>
		<polygon class="st1" points="1778.7,416.8 1778.7,418.9 1777.7,417.9 		"/>
		<polygon class="st1" points="1892,331.8 1815.4,416.5 1892,489 1893,490.1 1893,542 1892,543.2 1817.2,630.9 1892,702.6 
			1893,703.6 1893,741 1892,739.9 1804.6,656.1 1803.5,655.1 1803.5,605.3 1804.6,604.1 1880.4,515.2 1804.6,443.4 1803.5,442.4 
			1803.5,389.4 1804.6,388.2 1880.3,304.5 1804.6,229.5 1803.5,228.5 1803.5,190.5 1804.6,191.6 1807.6,194.5 1892,278.1 
			1893,279.1 1893,330.6 		"/>
	</g>
	<g>
		<polygon class="st1" points="1696.8,193.4 1696.8,194.5 1688.1,194.5 1682.4,194.9 1681,193.4 		"/>
	</g>
	<g>
		<path class="st1" d="M1777.7,194.5v550h25.9v-550H1777.7z M1778.7,418.9l-1.1-1l1.1-1.2V418.9z"/>
		<path class="st1" d="M1803.5,169.7v24.8h-24.8v-1.1h-97.8l1.1,1.1l0.4,0.4l5.7-0.4h8.7v27.2c19.1,12.9,27.1,38.1,17.3,60.3
			l-29.1,65.7l-91.7-55l34.5-56.1c8.6-14,23.3-22.3,38.9-23.2v-19.9H1363v20.9c16.6,0,32.5,8.5,41.6,23.3l34.5,56.1l-91.7,55
			l-29.1-65.7c-9.3-21.1-2.6-45,14.6-58.3v-31.3h-60.9v551h-24.8V169.7H1803.5z"/>
	</g>
	<g>
		<path class="st1" d="M1445.5,509.4v206h1.1V510.5h139.1v204.9h1.1v-206H1445.5z"/>
	</g>
	<g>
		<path class="st1" d="M1617,714.3h-31.3v1.1h31.3c8.9,0,16.2,7.2,16.2,16.2c0,5.3-2.5,10-6.5,12.9c-0.5,0.4-1.1,0.8-1.6,1.1
			c-2.4,1.4-5.1,2.2-8.1,2.2h-204.9c-2.9,0-5.7-0.8-8.1-2.2c-0.6-0.3-1.1-0.7-1.6-1.1c-3.9-3-6.5-7.7-6.5-12.9
			c0-8.9,7.3-16.2,16.2-16.2h34.5v-1.1h-34.5c-9.5,0-17.3,7.7-17.3,17.2c0,5.2,2.3,9.8,5.9,12.9c0.4,0.4,0.9,0.8,1.4,1.1
			c2.8,2,6.3,3.2,10,3.2H1617c3.8,0,7.2-1.2,10-3.2c0.5-0.3,0.9-0.7,1.3-1.1c3.6-3.2,5.9-7.8,5.9-12.9
			C1634.2,722,1626.5,714.3,1617,714.3z"/>
		<path class="st1" d="M1633.2,731.5c0,5.3-2.5,10-6.5,12.9c-0.5,0.4-1.1,0.8-1.6,1.1c-2.4,1.4-5.1,2.2-8.1,2.2h-204.9
			c-2.9,0-5.7-0.8-8.1-2.2c-0.6-0.3-1.1-0.7-1.6-1.1c-3.9-3-6.5-7.7-6.5-12.9c0-8.9,7.3-16.2,16.2-16.2h34.5V510.5h139.1v204.9h31.3
			C1625.9,715.4,1633.2,722.6,1633.2,731.5z"/>
	</g>
	<g>
		<path class="st1" d="M1618.1,425.3H1411c-8.9,0-16.1,7.2-16.1,16.1v36.8c0,8.9,7.2,16.1,16.1,16.1h207.2c8.9,0,16.1-7.2,16.1-16.1
			v-36.8C1634.2,432.5,1627,425.3,1618.1,425.3z M1633.2,478.2c0,8.3-6.8,15-15,15H1411c-8.3,0-15.1-6.8-15.1-15v-36.8
			c0-8.3,6.8-15,15.1-15h207.2c8.3,0,15,6.8,15,15V478.2z"/>
		<path class="st1" d="M1633.2,441.4v36.8c0,8.3-6.8,15-15,15H1411c-8.3,0-15-6.8-15-15v-36.8c0-8.3,6.8-15,15-15h207.2
			C1626.4,426.4,1633.2,433.1,1633.2,441.4z"/>
	</g>
	<rect x="1776.6" y="168.6" class="st1" width="117.5" height="25.9"/>
</g>
</svg>
