<?xml version="1.0" encoding="utf-8"?>
<!-- Generator: Adobe Illustrator 24.2.3, SVG Export Plug-In . SVG Version: 6.00 Build 0)  -->
<svg version="1.1" id="Layer_1" xmlns="http://www.w3.org/2000/svg" xmlns:xlink="http://www.w3.org/1999/xlink" x="0px" y="0px"
	 viewBox="0 0 2232 1119" style="enable-background:new 0 0 2232 1119;" xml:space="preserve">
<style type="text/css">
	.st0{fill:#FFFFFF;}
	.st1{fill:#3D8892;}
	.st2{fill:none;}
	.st3{fill:none;stroke:#3D8892;stroke-width:25;stroke-linecap:round;stroke-linejoin:round;stroke-miterlimit:10;}
</style>
<g>
	<g>
		<path class="st1" d="M463.7,73.5c-7.9-14.7-21.1-25.5-37-30.4L307.5,6.3c-16.4-5-33.7-3.3-48.7,4.8c-15.1,8.1-26,21.6-30.8,38.1
			L0,835.2l0,0.1l36.6,266.5c1.1,7.7,6.4,13.8,13.9,16c1.8,0.5,3.6,0.7,5.4,0.7c5.7,0,11.1-2.5,14.8-7.1l172.2-211.2l0.1-0.1
			l225.8-778.9C473.4,105.2,471.6,88.2,463.7,73.5z M467.7,120.9L241.9,899.6L69.8,1110.7c-4.7,5.7-11.9,8-19,6
			c-7.1-2-12.1-7.8-13.1-15.1L1.1,835.4l227.9-786c4.7-16.2,15.4-29.4,30.2-37.4c14.8-8,31.8-9.6,47.9-4.7l119.2,36.8
			c15.7,4.8,28.6,15.5,36.4,29.9C470.5,88.5,472.3,105.1,467.7,120.9z"/>
		<path class="st1" d="M462.7,74.1C454.9,59.6,442,49,426.3,44.2L307.1,7.4c-16.1-5-33.1-3.3-47.9,4.7c-14.8,8-25.5,21.3-30.2,37.4
			L1.1,835.4l36.5,266.3c1,7.3,6,13.1,13.1,15.1c7.1,2,14.4-0.3,19-6l172.1-211.1l225.8-778.7C472.3,105.1,470.5,88.5,462.7,74.1z
			 M41.4,835.8l176.5-613.2l66.1,20.2L105.1,854.3l-63.9-17.9L41.4,835.8z M101.6,1020.6l-0.3-0.1c-1.7-0.3-42.3-6.8-44.5-19.2
			c-2.2-12-15.3-126.7-15.4-127.9l-0.1-0.8l147.1,40.1L101.6,1020.6z M205.3,882.9l-65-19l0.2-0.5l177.6-612.1l66.1,20.2
			L205.3,882.9z M391.6,240.5l-166.3-48.8l10.2-33l0.5,0.2l166.9,48.7L391.6,240.5z M434.5,104.4l-20.9,72.2l-170.8-51l21.8-70.5
			c3.4-10.9,15.1-17.2,26-14.1L420,78.2c5.4,1.6,9.9,5.1,12.7,10.1C435.4,93.2,436.1,98.9,434.5,104.4z"/>
	</g>
	<g>
		<path class="st1" d="M41.2,872.7l0.1,0.8c0.1,1.2,13.3,115.9,15.4,127.9c2.2,12.4,42.8,18.9,44.5,19.2l0.3,0.1l86.7-107.8
			L41.2,872.7z M101.2,1019.4c-3.8-0.6-41.3-7.2-43.3-18.2c-2.1-11.4-14.1-116.6-15.3-127l143.9,39.2L101.2,1019.4z"/>
	</g>
	<g>
		<path class="st1" d="M217.8,222.6L41.4,835.8l-0.2,0.5l63.9,17.9l178.8-611.5L217.8,222.6z M104.3,852.9l-61.8-17.3l176-611.6
			l64,19.5L104.3,852.9z"/>
	</g>
	<g>
		<path class="st1" d="M318.1,251.2L140.5,863.3l-0.2,0.5l65,19l178.8-611.5L318.1,251.2z M204.6,881.5l-62.9-18.4l177.1-610.5
			l64,19.5L204.6,881.5z"/>
	</g>
	<g>
		<path class="st1" d="M236,158.8l-0.5-0.2l-10.2,33l166.3,48.8l11.4-33L236,158.8z M390.8,239.1l-164.2-48.2l9.6-30.9l165.3,48.2
			L390.8,239.1z"/>
	</g>
	<g>
		<path class="st1" d="M432.7,88.3c-2.7-4.9-7.2-8.5-12.7-10.1L290.6,41c-11-3.2-22.7,3.2-26,14.1l-21.8,70.5l170.8,51l20.9-72.2
			C436.1,98.9,435.4,93.2,432.7,88.3z M433.4,104.1l-20.6,71.1l-168.6-50.4l21.4-69.4C268.9,45,279.9,39,290.3,42l129.4,37.2
			c5.1,1.5,9.4,4.9,12,9.6C434.3,93.5,434.9,98.9,433.4,104.1z"/>
	</g>
</g>
<g>
	<g>
		<path class="st1" d="M2181.2,103.7H1258c-28,0-50.8,22.8-50.8,50.8v622.4c0,28,22.8,50.8,50.8,50.8h217.5l0.6-1.1h-218
			c-27.4,0-49.7-22.3-49.7-49.7V154.5c0-27.4,22.3-49.7,49.7-49.7h923.2c27.4,0,49.7,22.3,49.7,49.7v622.4
			c0,27.4-22.3,49.7-49.7,49.7h-211.8l0.6,1.1h211.3c28,0,50.8-22.8,50.8-50.8V154.5C2232,126.5,2209.2,103.7,2181.2,103.7z
			 M1520.5,826.6l-0.6,1.1h405.8l-0.5-1.1H1520.5z"/>
	</g>
	<g>
		<path class="st1" d="M2171.9,141.2h-905.7c-13.1,0-23.8,10.7-23.8,23.8v600.4c0,13.1,10.7,23.8,23.8,23.8h905.7
			c13.1,0,23.8-10.7,23.8-23.8V164.9C2195.6,151.8,2185,141.2,2171.9,141.2z M2194.5,765.3c0,12.5-10.2,22.7-22.7,22.7h-905.7
			c-12.5,0-22.7-10.2-22.7-22.7V164.9c0-12.5,10.2-22.7,22.7-22.7h905.7c12.5,0,22.7,10.2,22.7,22.7V765.3z"/>
	</g>
	<g>
		<path class="st1" d="M2082.1,285v78.2c0,10-8.1,18.2-18.2,18.2c-10,0-18.2-8.1-18.2-18.2v-31.8l-169.3,182.9
			c-5.6,52.9-23.6,91.4-53.6,114.5c-35.4,27.2-76.7,24.9-98.2,21.1c-9.7-1.7-18.3-8.5-29.3-17c-22.7-17.7-50.9-39.7-89.1-25.7
			c-55,20.2-66.4,84.4-66.6,85.1c-1.4,8.8-9,15.2-17.9,15.2h-179.6c-10,0-18.2-8.1-18.2-18.2s8.1-18.2,18.2-18.2h165.4
			c7.7-25.9,29.8-77.4,86.2-98.1c25.1-9.2,50.4-8.8,75.4,1c20.2,8,36.6,20.8,48.6,30.1c4.8,3.7,11.3,8.8,13.9,10
			c15.7,2.7,45.1,4.2,69.1-14.3c22.8-17.5,36.3-49.5,40.1-95.1c0.3-4,2-7.8,4.8-10.8l176.7-191h-37.2c-10,0-18.2-8.1-18.2-18.2
			c0-10,8.1-18.2,18.2-18.2h78.8c4.4,0,8.8,1.6,12.4,4.8C2080.2,275.2,2082.1,280.1,2082.1,285z"/>
	</g>
	<g>
		<path class="st1" d="M2051.8,682.2c-3.8,0-7.6-1.5-10.5-4.4l-112.4-112.4c-5.8-5.8-5.8-15.2,0-21c5.8-5.8,15.2-5.8,21,0
			l112.4,112.4c5.8,5.8,5.8,15.2,0,21C2059.4,680.8,2055.6,682.2,2051.8,682.2z"/>
	</g>
	<g>
		<path class="st1" d="M1939.4,682.2c-3.8,0-7.6-1.5-10.5-4.4c-5.8-5.8-5.8-15.2,0-21l112.4-112.4c5.8-5.8,15.2-5.8,21,0
			c5.8,5.8,5.8,15.2,0,21L1950,677.9C1947,680.8,1943.2,682.2,1939.4,682.2z"/>
	</g>
	<g>
		<path class="st1" d="M1468.4,238.1c-77.2,0-139.9,62.8-139.9,139.9S1391.2,518,1468.4,518c77.2,0,139.9-62.8,139.9-139.9
			S1545.5,238.1,1468.4,238.1z M1468.4,516.9c-76.6,0-138.8-62.3-138.8-138.8s62.3-138.8,138.8-138.8s138.8,62.3,138.8,138.8
			S1544.9,516.9,1468.4,516.9z"/>
		<path class="st1" d="M1468.4,239.2c-76.6,0-138.8,62.3-138.8,138.8s62.3,138.8,138.8,138.8s138.8-62.3,138.8-138.8
			S1544.9,239.2,1468.4,239.2z M1470,487.2c-59.2,0-107.4-48.2-107.4-107.4s48.2-107.4,107.4-107.4s107.4,48.2,107.4,107.4
			S1529.2,487.2,1470,487.2z"/>
	</g>
	<g>
		<path class="st1" d="M1470,272.3c-59.2,0-107.4,48.2-107.4,107.4s48.2,107.4,107.4,107.4s107.4-48.2,107.4-107.4
			S1529.2,272.3,1470,272.3z M1470,486.1c-58.6,0-106.3-47.7-106.3-106.3s47.7-106.3,106.3-106.3s106.3,47.7,106.3,106.3
			S1528.6,486.1,1470,486.1z"/>
	</g>
	<g>
		<path class="st1" d="M2181.2,104.8H1258c-27.4,0-49.7,22.3-49.7,49.7v622.4c0,27.4,22.3,49.7,49.7,49.7h218l-0.6,1.1l-128.9,253.8
			c-5,9.8-1.1,21.7,8.7,26.7c2.9,1.5,5.9,2.1,9,2.1c7.2,0,14.2-4,17.7-10.9l138-271.8l0.6-1.1h404.7l0.5,1.1l130.3,265
			c3.4,7,10.5,11.1,17.8,11.1c2.9,0,5.9-0.7,8.7-2c9.8-4.8,13.9-16.7,9-26.6l-121.7-247.4l-0.6-1.1h211.8
			c27.4,0,49.7-22.3,49.7-49.7V154.5C2230.9,127.1,2208.6,104.8,2181.2,104.8z M2195.6,765.3c0,13.1-10.7,23.8-23.8,23.8h-905.7
			c-13.1,0-23.8-10.7-23.8-23.8V164.9c0-13.1,10.7-23.8,23.8-23.8h905.7c13.1,0,23.8,10.7,23.8,23.8V765.3z"/>
	</g>
</g>
<g>
	<g>
		<path class="st0" d="M729.7,777c0,0.4,0,0.7,0,1.1h208.6c0-0.4,0-0.7,0-1.1H729.7z M976.8,782.4c0,0.4,0,0.8,0,1.2
			c17.7,8.7,29.8,26.9,29.8,47.9c0,23.3-15,43.2-35.9,50.5c-0.4,0.1-0.9,0.3-1.3,0.4c0.4,0.3,0.7,0.5,1.1,0.8h0
			c0.4-0.1,0.8-0.3,1.2-0.4c21-7.6,36-27.7,36-51.3C1007.7,809.9,995.1,791.2,976.8,782.4z M695.1,882.3L695.1,882.3
			c-21.3-7.1-36.7-27.1-36.7-50.7c0-22,13.4-40.9,32.4-49.1c0-0.4,0.1-0.8,0.1-1.2c-19.7,8.2-33.6,27.7-33.6,50.3
			c0,23.8,15.4,44.2,36.7,51.5c0.4,0.2,0.8,0.3,1.3,0.4c0,0,0,0,0,0c0.4-0.3,0.7-0.6,1.1-0.8C696,882.6,695.5,882.4,695.1,882.3z"/>
	</g>
	<g>
		<path class="st0" d="M941.6,811.1H720.1c-14,0-25.3,11.4-25.3,25.3s11.4,25.3,25.3,25.3h221.5c14,0,25.3-11.4,25.3-25.3
			S955.6,811.1,941.6,811.1z M941.6,860.7H720.1c-13.4,0-24.2-10.9-24.2-24.2s10.9-24.2,24.2-24.2h221.5c13.4,0,24.2,10.9,24.2,24.2
			S955,860.7,941.6,860.7z"/>
	</g>
	<g>
		<path class="st0" d="M929,892.7H735c-14.3,0-25.9,11.6-25.9,25.9c0,14.3,11.6,25.9,25.9,25.9H929c14.3,0,25.9-11.6,25.9-25.9
			C954.8,904.3,943.2,892.7,929,892.7z M929,943.4H735c-13.7,0-24.8-11.1-24.8-24.8s11.1-24.8,24.8-24.8H929
			c13.7,0,24.8,11.1,24.8,24.8S942.6,943.4,929,943.4z"/>
	</g>
	<g>
		<path class="st0" d="M753.9,976.4l0.4,0.8c0,0,0.1,0.1,0.2,0.3c2.4,4.2,30.5,51.8,76,51.8c0.5,0,1,0,1.5,0
			c48.4-1.1,65.2-32.7,75.2-51.6l0.1-0.2l0.6-1.1H753.9z M832,1028.2c-44.3,1-72.3-44-76.2-50.7H906
			C896.1,996.3,879.4,1027.1,832,1028.2z"/>
	</g>
	<g>
		<path class="st0" d="M971.8,882.8c-0.3-0.3-0.7-0.5-1-0.8c-0.4,0.1-0.9,0.3-1.3,0.4c0.4,0.3,0.7,0.5,1.1,0.8h0
			c12.6,9.5,20.7,24.5,20.7,41.4c0,28.6-23.2,51.8-51.8,51.8H726.7c-1.7,0-3.4-0.1-5-0.2c-26.2-2.5-46.8-24.7-46.8-51.5
			c0-16.7,8-31.7,20.4-41.1c0,0,0,0,0,0c0.4-0.3,0.7-0.6,1.1-0.8c-0.4-0.1-0.9-0.3-1.3-0.4h0c-0.3,0.3-0.7,0.5-1,0.8
			c-12.3,9.7-20.2,24.7-20.2,41.6c0,27.6,21.2,50.3,48.2,52.7c1.5,0.1,3.1,0.2,4.7,0.2h212.7c29.2,0,52.9-23.7,52.9-52.9
			C992.3,907.6,984.3,892.5,971.8,882.8z"/>
	</g>
	<g>
		<path class="st0" d="M813.1,553.6l-3.2-3.1v-7.6C809.9,546.6,811,550.3,813.1,553.6z"/>
		<rect x="809.9" y="777" class="st0" width="39.7" height="1.1"/>
	</g>
	<g>
		<path class="st0" d="M963.9,436.7L849.6,551V777h-39.7V550.4l3.2,3.1c-2.1-3.3-3.2-7-3.2-10.8v7.6L695.4,437.1
			c-7.8-7.7-7.9-20.3-0.2-28c7.7-7.8,20.3-7.9,28-0.2L830,514.5l105.8-105.8c7.7-7.7,20.3-7.7,28.1,0
			C971.7,416.4,971.7,429,963.9,436.7z"/>
	</g>
	<g>
		<path class="st0" d="M809.9,542.8c0,3.7,1.1,7.5,3.2,10.8l-3.2-3.1V542.8z"/>
	</g>
	<g>
		<path class="st0" d="M1124.5,366l0-0.8l-0.1-0.8c-5.5-48.3-20.7-90.9-45.4-126.8c-21-30.6-48.8-56.2-82.6-76.2
			c-56.8-33.6-122-45.5-164.6-45.5h-1.2c-61.2,0.3-130.7,24-185.9,63.4c-30.9,22-55.7,47.8-73.9,76.6c-20.5,32.5-31.9,68-33.7,105.4
			c-8,161.2,52.7,223.9,106.3,279.2c2.7,2.8,5.4,5.6,8.1,8.4c41.2,42.8,40.3,112.9,39.2,132.4c0,0.4,0,0.8-0.1,1.2
			c-19,8.2-32.4,27.1-32.4,49.1c0,23.6,15.4,43.7,36.7,50.7h0c0.4,0.1,0.9,0.3,1.3,0.4c-0.4,0.3-0.7,0.5-1.1,0.8c0,0,0,0,0,0
			c-12.4,9.5-20.4,24.4-20.4,41.1c0,26.9,20.6,49,46.8,51.5c1.7,0.2,3.3,0.2,5,0.2h212.7c28.6,0,51.8-23.2,51.8-51.8
			c0-16.9-8.1-31.9-20.7-41.4h0c-0.4-0.3-0.7-0.5-1.1-0.8c0.4-0.1,0.9-0.3,1.3-0.4c20.9-7.3,35.9-27.2,35.9-50.5
			c0-21-12.2-39.2-29.8-47.9c0-0.4,0-0.8,0-1.2c-0.6-90.7,28.6-122.4,62.4-159.1C1081.2,577.7,1128.9,526,1124.5,366z M929,944.5
			H735c-14.3,0-25.9-11.6-25.9-25.9c0-14.3,11.6-25.9,25.9-25.9H929c14.3,0,25.9,11.6,25.9,25.9C954.8,932.9,943.2,944.5,929,944.5z
			 M941.6,861.8H720.1c-14,0-25.3-11.4-25.3-25.3s11.4-25.3,25.3-25.3h221.5c14,0,25.3,11.4,25.3,25.3S955.6,861.8,941.6,861.8z
			 M938.2,777c0,0.4,0,0.7,0,1.1H729.7c0-0.4,0-0.7,0-1.1c1-30.6-2-104.8-50.2-155c-2.7-2.8-5.5-5.7-8.2-8.5
			c-26.4-27.3-51.4-53-69.6-90.6c-20.7-42.5-29.1-94.8-25.9-159.9c1.5-30.7,10.9-59.9,27.8-86.7c15.5-24.5,36.9-46.7,63.7-65.8
			c48.2-34.4,110.9-55.9,163.7-56.2c37.4-0.2,95.3,10.3,145.9,40.2c63.4,37.5,100.2,95.8,109.2,173.3c1.7,64.9-5.4,115-21.8,153.4
			c-14.2,33.3-33.2,54-53.4,75.9C975.5,635.6,938.9,675.3,938.2,777z"/>
	</g>
	<path class="st0" d="M721.2,974.2c0,0,0.2,0.7,0.5,2c0.1,0.3,0.2,0.7,0.3,1.1c4.4,15.1,27.9,80.7,105,80.7
		c83.1,0,108.9-70.7,112.1-80.4c0.2-0.7,0.3-1.1,0.3-1.1L721.2,974.2z M755.8,977.5H906c-9.9,18.7-26.6,49.6-74,50.7
		C787.6,1029.3,759.7,984.2,755.8,977.5z"/>
</g>
</svg>
