<?xml version="1.0" encoding="utf-8"?>
<!-- Generator: Adobe Illustrator 24.2.3, SVG Export Plug-In . SVG Version: 6.00 Build 0)  -->
<svg version="1.1" id="Layer_1" xmlns="http://www.w3.org/2000/svg" xmlns:xlink="http://www.w3.org/1999/xlink" x="0px" y="0px"
	 viewBox="0 0 1670 1119" style="enable-background:new 0 0 1670 1119;" xml:space="preserve">
<style type="text/css">
	.st0{fill:#FFFFFF;}
	.st1{fill:#3D8892;}
	.st2{fill:none;}
	.st3{fill:none;stroke:#3D8892;stroke-width:25;stroke-linecap:round;stroke-linejoin:round;stroke-miterlimit:10;}
</style>
<g>
	<path class="st1" d="M1158.8,559.2c11.6-11.3,5.2-31-10.8-33.3l-38.3-5.6c-6.4-0.9-11.9-4.9-14.7-10.7l-17.1-34.7
		c-7.2-14.5-27.9-14.5-35,0l-17.1,34.7c-2.8,5.8-8.3,9.8-14.7,10.7l-38.3,5.6c-16,2.3-22.4,22-10.8,33.3l27.7,27
		c4.6,4.5,6.7,11,5.6,17.3l-6.5,38.1c-2.7,15.9,14,28.1,28.3,20.6l34.2-18c5.7-3,12.5-3,18.2,0l34.2,18c14.3,7.5,31.1-4.6,28.3-20.6
		l-6.5-38.1c-1.1-6.3,1-12.8,5.6-17.3L1158.8,559.2z M1090.7,582.4l6.4,37.5l-33.7-17.7l-33.7,17.7l6.4-37.5l-27.3-26.6l37.7-5.5
		l16.9-34.2l16.9,34.2l37.7,5.5L1090.7,582.4z"/>
	<path class="st1" d="M1357,451.9c12.7-12.4,5.7-34.1-11.9-36.6l-42.1-6.1c-7-1-13-5.4-16.2-11.7l-18.8-38.1
		c-7.9-15.9-30.6-15.9-38.5,0l-18.8,38.1c-3.1,6.3-9.2,10.7-16.2,11.7l-42.1,6.1c-17.6,2.6-24.6,24.2-11.9,36.6l30.4,29.7
		c5.1,4.9,7.4,12,6.2,19l-7.2,41.9c-3,17.5,15.4,30.9,31.1,22.6l37.6-19.8c6.3-3.3,13.7-3.3,20,0l37.6,19.8
		c15.7,8.3,34.2-5.1,31.1-22.6l-7.2-41.9c-1.2-7,1.1-14.1,6.2-19L1357,451.9z M1283.5,481.8l7.8,45.7l-41-21.6l-41,21.6l7.8-45.7
		l-33.2-32.3l45.9-6.7l20.5-41.5l20.5,41.5l45.9,6.7L1283.5,481.8z"/>
	<path class="st1" d="M1529.9,560.4c11.3-11,5.1-30.2-10.5-32.5l-37.3-5.4c-6.2-0.9-11.6-4.8-14.3-10.4l-16.7-33.8
		c-7-14.1-27.2-14.1-34.1,0l-16.7,33.8c-2.8,5.6-8.1,9.5-14.3,10.4l-37.3,5.4c-15.6,2.3-21.9,21.5-10.5,32.5l27,26.3
		c4.5,4.4,6.5,10.7,5.5,16.9l-6.4,37.2c-2.7,15.6,13.7,27.4,27.6,20.1l33.4-17.6c5.5-2.9,12.2-2.9,17.7,0l33.4,17.6
		c14,7.3,30.3-4.5,27.6-20.1l-6.4-37.2c-1.1-6.2,1-12.5,5.5-16.9L1529.9,560.4z M1463.4,582.9l6.3,36.6l-32.9-17.3l-32.9,17.3
		l6.3-36.6l-26.6-25.9l36.8-5.3l16.4-33.3l16.4,33.3l36.8,5.3L1463.4,582.9z"/>
	<path class="st1" d="M1553.9,243.3H943.1c-18.8,0-34,15.2-34,34v457.9c0,36.3,29.5,65.8,65.8,65.8h547.2
		c36.3,0,65.8-29.5,65.8-65.8V277.3C1587.9,258.5,1572.6,243.3,1553.9,243.3z M1559.4,740.2c0,17.2-13.9,31.1-31.1,31.1H972.2
		c-17.2,0-31.1-13.9-31.1-31.1V275.3h618.2V740.2z M1553.9,243.3H943.1c-18.8,0-34,15.2-34,34v457.9c0,36.3,29.5,65.8,65.8,65.8
		h547.2c36.3,0,65.8-29.5,65.8-65.8V277.3C1587.9,258.5,1572.6,243.3,1553.9,243.3z M1559.4,740.2c0,17.2-13.9,31.1-31.1,31.1H972.2
		c-17.2,0-31.1-13.9-31.1-31.1V275.3h618.2V740.2z M1553.9,243.3H943.1c-18.8,0-34,15.2-34,34v457.9c0,36.3,29.5,65.8,65.8,65.8
		h547.2c36.3,0,65.8-29.5,65.8-65.8V277.3C1587.9,258.5,1572.6,243.3,1553.9,243.3z M1559.4,740.2c0,17.2-13.9,31.1-31.1,31.1H972.2
		c-17.2,0-31.1-13.9-31.1-31.1V275.3h618.2V740.2z M1553.9,243.3H943.1c-18.8,0-34,15.2-34,34v457.9c0,36.3,29.5,65.8,65.8,65.8
		h547.2c36.3,0,65.8-29.5,65.8-65.8V277.3C1587.9,258.5,1572.6,243.3,1553.9,243.3z M1559.4,740.2c0,17.2-13.9,31.1-31.1,31.1H972.2
		c-17.2,0-31.1-13.9-31.1-31.1V275.3h618.2V740.2z M1553.9,243.3H943.1c-18.8,0-34,15.2-34,34v457.9c0,36.3,29.5,65.8,65.8,65.8
		h547.2c36.3,0,65.8-29.5,65.8-65.8V277.3C1587.9,258.5,1572.6,243.3,1553.9,243.3z M1559.4,740.2c0,17.2-13.9,31.1-31.1,31.1H972.2
		c-17.2,0-31.1-13.9-31.1-31.1V275.3h618.2V740.2z M860.5,646.7H829v-41.5V241.7c0-49.3,39.9-89.2,89.2-89.2h662.9
		c49.3,0,89.2,39.9,89.2,89.2v751.9c0,49.3-39.9,89.2-89.2,89.2H949.5h-28.3l2.2-27.9h26.1h631.3c31.4,0,56.9-25.5,56.9-56.9V239.7
		c0-31.4-25.5-56.9-56.9-56.9H917.4c-31.4,0-56.9,25.5-56.9,56.9v365.5V646.7z"/>
	<path class="st1" d="M1158.8,559.2c11.6-11.3,5.2-31-10.8-33.3l-38.3-5.6c-6.4-0.9-11.9-4.9-14.7-10.7l-17.1-34.7
		c-7.2-14.5-27.9-14.5-35,0l-17.1,34.7c-2.8,5.8-8.3,9.8-14.7,10.7l-38.3,5.6c-16,2.3-22.4,22-10.8,33.3l27.7,27
		c4.6,4.5,6.7,11,5.6,17.3l-6.5,38.1c-2.7,15.9,14,28.1,28.3,20.6l34.2-18c5.7-3,12.5-3,18.2,0l34.2,18c14.3,7.5,31.1-4.6,28.3-20.6
		l-6.5-38.1c-1.1-6.3,1-12.8,5.6-17.3L1158.8,559.2z M1090.7,582.4l6.4,37.5l-33.7-17.7l-33.7,17.7l6.4-37.5l-27.3-26.6l37.7-5.5
		l16.9-34.2l16.9,34.2l37.7,5.5L1090.7,582.4z"/>
	<path class="st1" d="M1357,451.9c12.7-12.4,5.7-34.1-11.9-36.6l-42.1-6.1c-7-1-13-5.4-16.2-11.7l-18.8-38.1
		c-7.9-15.9-30.6-15.9-38.5,0l-18.8,38.1c-3.1,6.3-9.2,10.7-16.2,11.7l-42.1,6.1c-17.6,2.6-24.6,24.2-11.9,36.6l30.4,29.7
		c5.1,4.9,7.4,12,6.2,19l-7.2,41.9c-3,17.5,15.4,30.9,31.1,22.6l37.6-19.8c6.3-3.3,13.7-3.3,20,0l37.6,19.8
		c15.7,8.3,34.2-5.1,31.1-22.6l-7.2-41.9c-1.2-7,1.1-14.1,6.2-19L1357,451.9z M1283.5,481.8l7.8,45.7l-41-21.6l-41,21.6l7.8-45.7
		l-33.2-32.3l45.9-6.7l20.5-41.5l20.5,41.5l45.9,6.7L1283.5,481.8z"/>
	<path class="st1" d="M1529.9,560.4c11.3-11,5.1-30.2-10.5-32.5l-37.3-5.4c-6.2-0.9-11.6-4.8-14.3-10.4l-16.7-33.8
		c-7-14.1-27.2-14.1-34.1,0l-16.7,33.8c-2.8,5.6-8.1,9.5-14.3,10.4l-37.3,5.4c-15.6,2.3-21.9,21.5-10.5,32.5l27,26.3
		c4.5,4.4,6.5,10.7,5.5,16.9l-6.4,37.2c-2.7,15.6,13.7,27.4,27.6,20.1l33.4-17.6c5.5-2.9,12.2-2.9,17.7,0l33.4,17.6
		c14,7.3,30.3-4.5,27.6-20.1l-6.4-37.2c-1.1-6.2,1-12.5,5.5-16.9L1529.9,560.4z M1463.4,582.9l6.3,36.6l-32.9-17.3l-32.9,17.3
		l6.3-36.6l-26.6-25.9l36.8-5.3l16.4-33.3l16.4,33.3l36.8,5.3L1463.4,582.9z"/>
	<path class="st2" d="M1553.9,243.3H943.1c-18.8,0-34,15.2-34,34v457.9c0,36.3,29.5,65.8,65.8,65.8h547.2
		c36.3,0,65.8-29.5,65.8-65.8V277.3C1587.9,258.5,1572.6,243.3,1553.9,243.3z M1559.4,740.2c0,17.2-13.9,31.1-31.1,31.1H972.2
		c-17.2,0-31.1-13.9-31.1-31.1V275.3h618.2V740.2z M860.5,646.7v-41.5"/>
	<path class="st1" d="M1158.8,559.2c11.6-11.3,5.2-31-10.8-33.3l-38.3-5.6c-6.4-0.9-11.9-4.9-14.7-10.7l-17.1-34.7
		c-7.2-14.5-27.9-14.5-35,0l-17.1,34.7c-2.8,5.8-8.3,9.8-14.7,10.7l-38.3,5.6c-16,2.3-22.4,22-10.8,33.3l27.7,27
		c4.6,4.5,6.7,11,5.6,17.3l-6.5,38.1c-2.7,15.9,14,28.1,28.3,20.6l34.2-18c5.7-3,12.5-3,18.2,0l34.2,18c14.3,7.5,31.1-4.6,28.3-20.6
		l-6.5-38.1c-1.1-6.3,1-12.8,5.6-17.3L1158.8,559.2z M1090.7,582.4l6.4,37.5l-33.7-17.7l-33.7,17.7l6.4-37.5l-27.3-26.6l37.7-5.5
		l16.9-34.2l16.9,34.2l37.7,5.5L1090.7,582.4z"/>
	<path class="st1" d="M1357,451.9c12.7-12.4,5.7-34.1-11.9-36.6l-42.1-6.1c-7-1-13-5.4-16.2-11.7l-18.8-38.1
		c-7.9-15.9-30.6-15.9-38.5,0l-18.8,38.1c-3.1,6.3-9.2,10.7-16.2,11.7l-42.1,6.1c-17.6,2.6-24.6,24.2-11.9,36.6l30.4,29.7
		c5.1,4.9,7.4,12,6.2,19l-7.2,41.9c-3,17.5,15.4,30.9,31.1,22.6l37.6-19.8c6.3-3.3,13.7-3.3,20,0l37.6,19.8
		c15.7,8.3,34.2-5.1,31.1-22.6l-7.2-41.9c-1.2-7,1.1-14.1,6.2-19L1357,451.9z M1283.5,481.8l7.8,45.7l-41-21.6l-41,21.6l7.8-45.7
		l-33.2-32.3l45.9-6.7l20.5-41.5l20.5,41.5l45.9,6.7L1283.5,481.8z"/>
	<path class="st1" d="M1529.9,560.4c11.3-11,5.1-30.2-10.5-32.5l-37.3-5.4c-6.2-0.9-11.6-4.8-14.3-10.4l-16.7-33.8
		c-7-14.1-27.2-14.1-34.1,0l-16.7,33.8c-2.8,5.6-8.1,9.5-14.3,10.4l-37.3,5.4c-15.6,2.3-21.9,21.5-10.5,32.5l27,26.3
		c4.5,4.4,6.5,10.7,5.5,16.9l-6.4,37.2c-2.7,15.6,13.7,27.4,27.6,20.1l33.4-17.6c5.5-2.9,12.2-2.9,17.7,0l33.4,17.6
		c14,7.3,30.3-4.5,27.6-20.1l-6.4-37.2c-1.1-6.2,1-12.5,5.5-16.9L1529.9,560.4z M1463.4,582.9l6.3,36.6l-32.9-17.3l-32.9,17.3
		l6.3-36.6l-26.6-25.9l36.8-5.3l16.4-33.3l16.4,33.3l36.8,5.3L1463.4,582.9z"/>
	<path class="st1" d="M1553.9,243.3H943.1c-18.8,0-34,15.2-34,34v457.9c0,36.3,29.5,65.8,65.8,65.8h547.2
		c36.3,0,65.8-29.5,65.8-65.8V277.3C1587.9,258.5,1572.6,243.3,1553.9,243.3z M1559.4,740.2c0,17.2-13.9,31.1-31.1,31.1H972.2
		c-17.2,0-31.1-13.9-31.1-31.1V275.3h618.2V740.2z"/>
	<path class="st1" d="M1158.8,559.2c11.6-11.3,5.2-31-10.8-33.3l-38.3-5.6c-6.4-0.9-11.9-4.9-14.7-10.7l-17.1-34.7
		c-7.2-14.5-27.9-14.5-35,0l-17.1,34.7c-2.8,5.8-8.3,9.8-14.7,10.7l-38.3,5.6c-16,2.3-22.4,22-10.8,33.3l27.7,27
		c4.6,4.5,6.7,11,5.6,17.3l-6.5,38.1c-2.7,15.9,14,28.1,28.3,20.6l34.2-18c5.7-3,12.5-3,18.2,0l34.2,18c14.3,7.5,31.1-4.6,28.3-20.6
		l-6.5-38.1c-1.1-6.3,1-12.8,5.6-17.3L1158.8,559.2z M1090.7,582.4l6.4,37.5l-33.7-17.7l-33.7,17.7l6.4-37.5l-27.3-26.6l37.7-5.5
		l16.9-34.2l16.9,34.2l37.7,5.5L1090.7,582.4z"/>
	<path class="st1" d="M1357,451.9c12.7-12.4,5.7-34.1-11.9-36.6l-42.1-6.1c-7-1-13-5.4-16.2-11.7l-18.8-38.1
		c-7.9-15.9-30.6-15.9-38.5,0l-18.8,38.1c-3.1,6.3-9.2,10.7-16.2,11.7l-42.1,6.1c-17.6,2.6-24.6,24.2-11.9,36.6l30.4,29.7
		c5.1,4.9,7.4,12,6.2,19l-7.2,41.9c-3,17.5,15.4,30.9,31.1,22.6l37.6-19.8c6.3-3.3,13.7-3.3,20,0l37.6,19.8
		c15.7,8.3,34.2-5.1,31.1-22.6l-7.2-41.9c-1.2-7,1.1-14.1,6.2-19L1357,451.9z M1283.5,481.8l7.8,45.7l-41-21.6l-41,21.6l7.8-45.7
		l-33.2-32.3l45.9-6.7l20.5-41.5l20.5,41.5l45.9,6.7L1283.5,481.8z"/>
	<path class="st1" d="M1529.9,560.4c11.3-11,5.1-30.2-10.5-32.5l-37.3-5.4c-6.2-0.9-11.6-4.8-14.3-10.4l-16.7-33.8
		c-7-14.1-27.2-14.1-34.1,0l-16.7,33.8c-2.8,5.6-8.1,9.5-14.3,10.4l-37.3,5.4c-15.6,2.3-21.9,21.5-10.5,32.5l27,26.3
		c4.5,4.4,6.5,10.7,5.5,16.9l-6.4,37.2c-2.7,15.6,13.7,27.4,27.6,20.1l33.4-17.6c5.5-2.9,12.2-2.9,17.7,0l33.4,17.6
		c14,7.3,30.3-4.5,27.6-20.1l-6.4-37.2c-1.1-6.2,1-12.5,5.5-16.9L1529.9,560.4z M1463.4,582.9l6.3,36.6l-32.9-17.3l-32.9,17.3
		l6.3-36.6l-26.6-25.9l36.8-5.3l16.4-33.3l16.4,33.3l36.8,5.3L1463.4,582.9z"/>
	<line class="st3" x1="1012.4" y1="977.8" x2="1094.2" y2="787.9"/>
	<line class="st3" x1="1484.6" y1="983.7" x2="1402.8" y2="787.9"/>
	<path class="st1" d="M1158.8,559.2c11.6-11.3,5.2-31-10.8-33.3l-38.3-5.6c-6.4-0.9-11.9-4.9-14.7-10.7l-17.1-34.7
		c-7.2-14.5-27.9-14.5-35,0l-17.1,34.7c-2.8,5.8-8.3,9.8-14.7,10.7l-38.3,5.6c-16,2.3-22.4,22-10.8,33.3l27.7,27
		c4.6,4.5,6.7,11,5.6,17.3l-6.5,38.1c-2.7,15.9,14,28.1,28.3,20.6l34.2-18c5.7-3,12.5-3,18.2,0l34.2,18c14.3,7.5,31.1-4.6,28.3-20.6
		l-6.5-38.1c-1.1-6.3,1-12.8,5.6-17.3L1158.8,559.2z M1090.7,582.4l6.4,37.5l-33.7-17.7l-33.7,17.7l6.4-37.5l-27.3-26.6l37.7-5.5
		l16.9-34.2l16.9,34.2l37.7,5.5L1090.7,582.4z"/>
	<path class="st1" d="M1529.9,560.4c11.3-11,5.1-30.2-10.5-32.5l-37.3-5.4c-6.2-0.9-11.6-4.8-14.3-10.4l-16.7-33.8
		c-7-14.1-27.2-14.1-34.1,0l-16.7,33.8c-2.8,5.6-8.1,9.5-14.3,10.4l-37.3,5.4c-15.6,2.3-21.9,21.5-10.5,32.5l27,26.3
		c4.5,4.4,6.5,10.7,5.5,16.9l-6.4,37.2c-2.7,15.6,13.7,27.4,27.6,20.1l33.4-17.6c5.5-2.9,12.2-2.9,17.7,0l33.4,17.6
		c14,7.3,30.3-4.5,27.6-20.1l-6.4-37.2c-1.1-6.2,1-12.5,5.5-16.9L1529.9,560.4z M1463.4,582.9l6.3,36.6l-32.9-17.3l-32.9,17.3
		l6.3-36.6l-26.6-25.9l36.8-5.3l16.4-33.3l16.4,33.3l36.8,5.3L1463.4,582.9z"/>
	<path class="st1" d="M1357,451.9c12.7-12.4,5.7-34.1-11.9-36.6l-42.1-6.1c-7-1-13-5.4-16.2-11.7l-18.8-38.1
		c-7.9-15.9-30.6-15.9-38.5,0l-18.8,38.1c-3.1,6.3-9.2,10.7-16.2,11.7l-42.1,6.1c-17.6,2.6-24.6,24.2-11.9,36.6l30.4,29.7
		c5.1,4.9,7.4,12,6.2,19l-7.2,41.9c-3,17.5,15.4,30.9,31.1,22.6l37.6-19.8c6.3-3.3,13.7-3.3,20,0l37.6,19.8
		c15.7,8.3,34.2-5.1,31.1-22.6l-7.2-41.9c-1.2-7,1.1-14.1,6.2-19L1357,451.9z M1283.5,481.8l7.8,45.7l-41-21.6l-41,21.6l7.8-45.7
		l-33.2-32.3l45.9-6.7l20.5-41.5l20.5,41.5l45.9,6.7L1283.5,481.8z"/>
</g>
<polygon class="st1" points="949.5,1054.9 949.5,1082.8 921.2,1082.8 923.4,1054.9 "/>
<rect x="829" y="605.2" class="st1" width="31.4" height="41.5"/>
<g>
	<path class="st0" d="M910.3,1034.7l-21.4-246.8c0,0-6.6-28.5-28.5-62.2c-8.2-12.6-18.5-25.8-31.4-38.6
		c-18.3-18-41.8-35.1-71.8-47.6l-157-70.1c-12.7-5.7-27.6-3.2-37.8,6.3l-110.2,103l-116-102.7c-10.9-9.6-26.6-11.5-39.4-4.6
		l-76,40.8l-90.2,40.3c0,0-109.2,40.3-117.5,193.4S0.2,1072.7,0.2,1072.7s0,43.9,60.5,46.3h785.6c0,0,42.8-3.9,59.4-37.1
		c3.7-7.5,6.1-16.5,6.4-27.3C912.2,1048.6,911.6,1042,910.3,1034.7z M875.2,1071.8c-8.7,14.5-27.8,15.2-27.8,15.2l-115.1-0.2V909
		h-34.4v177.8L209,1086V909h-33.2v177l-127-0.2C32.2,1083.4,31,1068,31,1068l15.4-237.3c15.4-127,102.1-151.9,102.1-151.9l75.9-35.6
		l76.2-38.6c7.7-3.9,17.1-2.8,23.6,3L443.6,712c6.9,6,17.3,5.8,23.9-0.6L575.8,606c6.4-6.2,15.9-7.8,23.9-4l167,79.1
		c28.5,13.9,48.4,32.8,62.3,51.9c27.8,38.2,31.4,76.9,31.4,76.9s15.3,172.1,18.4,230v0c0.4,6.7,0.6,11.8,0.6,15
		C879.5,1062,877.8,1067.5,875.2,1071.8z"/>
	<path class="st0" d="M639.1,109.1C614,58.2,560.8,0,448.7,0c0,0-214.8,0-214.8,225.5v52.8c0,17.6,2,35.1,5.9,52.2
		c13.6,59,68.8,186.8,198.2,202.3c0,0,116.3,9.5,181.6-109.6c26.7-48.8,41.5-103.2,41.5-158.8v-59
		C661.1,172.1,653.8,139,639.1,109.1z M631.4,295.5c0,0-26.1,201.7-182.7,201.7c-106.4,0-152.6-98.1-171.3-160.9
		c-7.7-25.8-11.5-52.7-11.5-79.6v-45.5c0-39.3,12-77.8,35.2-109.5c26.5-36.3,72.2-70.8,149.9-70.8c163.8,0,180.4,153.1,180.4,153.1
		V295.5z"/>
</g>
</svg>
