<?xml version="1.0" encoding="utf-8"?>
<!-- Generator: Adobe Illustrator 24.2.3, SVG Export Plug-In . SVG Version: 6.00 Build 0)  -->
<svg version="1.1" id="Layer_1" xmlns="http://www.w3.org/2000/svg" xmlns:xlink="http://www.w3.org/1999/xlink" x="0px" y="0px"
	 viewBox="0 0 595.3 319.6" style="enable-background:new 0 0 595.3 319.6;" xml:space="preserve">
<style type="text/css">
	.st0{fill:#D0D5D4;}
	.st1{fill:#D1D6D5;}
</style>
<g>
	<g>
		<path class="st0" d="M47.1,121.6l10.4-10.4l-12-12.1c-2.9-2.9-7.5-2.9-10.4,0s-2.9,7.5,0,10.4L47.1,121.6z"/>
	</g>
	<g>
		<path class="st0" d="M69.6,229.5L80,219.1l-11-11l32.3-32.3l0.1,0.1l5-5c1.3-1.3,2-3,2.2-4.7c0.2-2.1-0.5-4.3-2.1-6l-0.1-0.1
			l-5.1-5.1l-32.6-32.6l-10.4,10.4l32.6,32.6l-32.3,32.3l-33-33l32.1-32.1l-10.4-10.4l-32.1,32.1l0,0l0,0c-5.7,5.7-5.7,15,0,20.8
			l33,33l-12.3,12.3c-2.9,2.9-2.9,7.5,0,10.4s7.5,2.9,10.4,0l12.3-12.3L69.6,229.5z"/>
	</g>
	<g>
		<path class="st0" d="M192.2,82.9c2.9-2.9,2.9-7.5,0-10.4s-7.5-2.9-10.4,0l-12.1,12.1L180.1,95L192.2,82.9z"/>
	</g>
	<g>
		<path class="st0" d="M72.8,96l-11,11l10.4,10.4l11-11l32.3,32.3l-0.1,0.1l5,5c1.3,1.3,3,2,4.7,2.2c2.1,0.2,4.3-0.5,6-2.1l5.2-5.2
			l32.6-32.6l-10.4-10.4l-32.6,32.6L93.6,96l33-33l32.1,32.1l10.4-10.4L137,52.6l0,0l0,0c-5.7-5.7-15-5.7-20.8,0l-33,33L71,73.4
			c-2.9-2.9-7.5-2.9-10.4,0s-2.9,7.5,0,10.4L72.8,96z"/>
	</g>
	<g>
		<path class="st0" d="M207.1,211.8l-10.4,10.4l12.1,12.1c2.9,2.9,7.5,2.9,10.4,0s2.9-7.5,0-10.4L207.1,211.8z"/>
	</g>
	<g>
		
			<rect x="195.2" y="182.7" transform="matrix(0.7071 -0.7071 0.7071 0.7071 -70.5464 209.7348)" class="st0" width="45.4" height="14.7"/>
	</g>
	<g>
		<path class="st0" d="M239.1,179.2c5.7-5.7,5.7-15,0-20.8l-33-33l12.3-12.3c2.9-2.9,2.9-7.5,0-10.4s-7.5-2.9-10.4,0L195.7,115
			l-11-11l-10.4,10.4l11.1,11L153,157.6l-0.1-0.1l-5,5c-1.3,1.3-2,3-2.2,4.7c-0.2,2.1,0.5,4.3,2.1,6l0.1,0.1l5.1,5.1l32.6,32.6
			l10.4-10.4L163.4,168l32.3-32.3l33,33L239.1,179.2L239.1,179.2"/>
	</g>
	<g>
		<path class="st0" d="M62,249.1c-2.9,2.9-2.9,7.5,0,10.4s7.5,2.9,10.4,0l12.1-12.1L74.1,237L62,249.1z"/>
	</g>
	<g>
		<path class="st0" d="M181.4,236l11-11L182,214.5l-11,11l-32.3-32.3l0.1-0.1l-5-5c-1.3-1.3-3-2-4.7-2.2c-2.1-0.2-4.3,0.5-6,2.1
			l-5.2,5.2l-32.6,32.6l10.4,10.4l32.6-32.6l32.3,32.3l-33,33l-32.1-32.1l-10.4,10.4l32.1,32.1l0,0l0,0c5.7,5.7,15,5.7,20.8,0l33-33
			l12.3,12.3c2.9,2.9,7.5,2.9,10.4,0s2.9-7.5,0-10.4L181.4,236z"/>
	</g>
	<g>
		<path class="st1" d="M309.1,215.1c-0.8,1.4-1.9,2.5-3.5,3.3s-3.5,1.3-5.9,1.3h-4.3V230h-7v-28.7h11.3c2.3,0,4.2,0.4,5.8,1.2
			c1.6,0.8,2.8,1.9,3.6,3.3c0.8,1.4,1.2,3,1.2,4.8C310.2,212.2,309.8,213.7,309.1,215.1z M302.1,213.2c0.7-0.6,1-1.5,1-2.7
			c0-1.1-0.3-2-1-2.7c-0.7-0.6-1.7-0.9-3-0.9h-3.8v7.2h3.8C300.5,214.2,301.5,213.8,302.1,213.2z"/>
		<path class="st1" d="M327.1,208c1.2-0.7,2.6-1.1,4.1-1.1v7.4h-1.9c-1.7,0-3.1,0.4-3.9,1.1s-1.3,2.1-1.3,3.9V230h-7v-22.8h7v3.8
			C324.9,209.7,325.9,208.8,327.1,208z"/>
		<path class="st1" d="M342.2,228.9c-1.8-1-3.2-2.3-4.2-4.1s-1.5-3.8-1.5-6.2c0-2.3,0.5-4.4,1.6-6.2c1-1.8,2.5-3.2,4.3-4.1
			c1.8-1,3.8-1.4,6.1-1.4c2.2,0,4.3,0.5,6.1,1.4c1.8,1,3.2,2.3,4.3,4.1c1,1.8,1.6,3.9,1.6,6.2s-0.5,4.4-1.6,6.2
			c-1,1.8-2.5,3.2-4.3,4.1c-1.8,1-3.8,1.4-6.1,1.4S344,229.9,342.2,228.9z M351.7,222.8c0.9-1,1.4-2.4,1.4-4.2s-0.5-3.2-1.4-4.2
			s-2-1.5-3.4-1.5s-2.5,0.5-3.4,1.5s-1.4,2.4-1.4,4.2s0.4,3.2,1.3,4.2s2,1.5,3.3,1.5S350.7,223.8,351.7,222.8z"/>
		<path class="st1" d="M367.1,212.4c0.9-1.8,2.1-3.1,3.6-4.1s3.2-1.4,5.1-1.4c1.5,0,2.9,0.3,4.1,0.9c1.2,0.6,2.2,1.5,2.9,2.5v-10.6
			h7V230h-7v-3.3c-0.7,1.1-1.6,2-2.8,2.6c-1.2,0.7-2.6,1-4.2,1c-1.9,0-3.6-0.5-5.1-1.5s-2.7-2.3-3.6-4.1s-1.3-3.9-1.3-6.2
			S366.2,214.2,367.1,212.4z M381.4,214.5c-1-1-2.1-1.5-3.5-1.5s-2.6,0.5-3.5,1.5c-1,1-1.5,2.4-1.5,4.1c0,1.7,0.5,3.1,1.5,4.2
			c1,1,2.1,1.5,3.5,1.5s2.6-0.5,3.5-1.5c1-1,1.5-2.4,1.5-4.1C382.9,216.9,382.4,215.5,381.4,214.5z"/>
		<path class="st1" d="M420.7,207.2V230h-7v-3.1c-0.7,1-1.7,1.8-2.9,2.4c-1.2,0.6-2.6,0.9-4,0.9c-1.7,0-3.3-0.4-4.6-1.2
			c-1.3-0.8-2.4-1.9-3.1-3.4s-1.1-3.2-1.1-5.2v-13.3h7v12.4c0,1.5,0.4,2.7,1.2,3.6c0.8,0.8,1.9,1.3,3.2,1.3c1.4,0,2.4-0.4,3.2-1.3
			c0.8-0.8,1.2-2,1.2-3.6v-12.4h6.9V207.2z"/>
		<path class="st1" d="M429.1,212.4c1-1.8,2.3-3.1,4.1-4.1c1.7-1,3.7-1.4,6-1.4c2.9,0,5.3,0.8,7.2,2.3c1.9,1.5,3.2,3.6,3.8,6.3h-7.4
			c-0.6-1.7-1.8-2.6-3.6-2.6c-1.3,0-2.3,0.5-3.1,1.5c-0.8,1-1.1,2.4-1.1,4.3c0,1.9,0.4,3.3,1.1,4.3c0.8,1,1.8,1.5,3.1,1.5
			c1.8,0,3-0.9,3.6-2.6h7.4c-0.6,2.7-1.9,4.8-3.8,6.3s-4.3,2.3-7.2,2.3c-2.2,0-4.2-0.5-6-1.4c-1.7-1-3.1-2.3-4.1-4.1
			s-1.5-3.8-1.5-6.2C427.6,216.2,428.1,214.2,429.1,212.4z"/>
		<path class="st1" d="M469.7,224.1v5.9h-3.6c-2.5,0-4.5-0.6-5.9-1.9c-1.4-1.2-2.1-3.3-2.1-6.1v-9h-2.8v-5.8h2.8v-5.6h7v5.6h4.6v5.8
			h-4.6v9.2c0,0.7,0.2,1.2,0.5,1.5s0.9,0.5,1.6,0.5L469.7,224.1L469.7,224.1z"/>
		<path class="st1" d="M477.4,203.7c-0.8-0.7-1.2-1.6-1.2-2.7c0-1.1,0.4-2,1.2-2.7c0.8-0.7,1.8-1.1,3-1.1s2.2,0.4,3,1.1
			c0.8,0.7,1.2,1.6,1.2,2.7c0,1.1-0.4,2-1.2,2.7c-0.8,0.7-1.8,1.1-3,1.1C479.2,204.8,478.2,204.5,477.4,203.7z M483.9,207.2V230h-7
			v-22.8H483.9z"/>
		<path class="st1" d="M496.6,228.9c-1.8-1-3.2-2.3-4.2-4.1s-1.5-3.8-1.5-6.2c0-2.3,0.5-4.4,1.6-6.2c1-1.8,2.5-3.2,4.3-4.1
			c1.8-1,3.8-1.4,6.1-1.4c2.2,0,4.3,0.5,6.1,1.4c1.8,1,3.2,2.3,4.3,4.1c1,1.8,1.6,3.9,1.6,6.2s-0.5,4.4-1.6,6.2
			c-1,1.8-2.5,3.2-4.3,4.1c-1.8,1-3.8,1.4-6.1,1.4S498.4,229.9,496.6,228.9z M506.1,222.8c0.9-1,1.4-2.4,1.4-4.2s-0.5-3.2-1.4-4.2
			s-2-1.5-3.4-1.5s-2.5,0.5-3.4,1.5s-1.4,2.4-1.4,4.2s0.4,3.2,1.3,4.2s2,1.5,3.3,1.5S505.1,223.8,506.1,222.8z"/>
		<path class="st1" d="M541.8,209.5c1.6,1.7,2.4,4.1,2.4,7.1V230h-7v-12.4c0-1.5-0.4-2.7-1.2-3.6c-0.8-0.8-1.9-1.3-3.2-1.3
			s-2.4,0.4-3.2,1.3c-0.8,0.8-1.2,2-1.2,3.6V230h-7v-22.8h7v3c0.7-1,1.7-1.8,2.9-2.4c1.2-0.6,2.6-0.9,4.1-0.9
			C538.1,207,540.2,207.8,541.8,209.5z"/>
		<path class="st1" d="M556.3,229.3c-1.6-0.7-2.8-1.6-3.7-2.8s-1.4-2.5-1.5-4h6.9c0.1,0.8,0.5,1.4,1.1,1.9s1.5,0.7,2.4,0.7
			s1.5-0.2,2-0.5s0.7-0.8,0.7-1.3c0-0.7-0.3-1.1-1-1.5c-0.7-0.3-1.8-0.7-3.3-1c-1.6-0.4-3-0.8-4.1-1.2s-2-1.1-2.8-2
			s-1.2-2.1-1.2-3.7c0-1.3,0.4-2.5,1.1-3.6c0.7-1.1,1.8-1.9,3.2-2.6c1.4-0.6,3.1-0.9,5-0.9c2.9,0,5.1,0.7,6.8,2.1
			c1.7,1.4,2.6,3.3,2.8,5.6h-6.5c-0.1-0.8-0.5-1.4-1-1.9c-0.6-0.5-1.4-0.7-2.3-0.7c-0.8,0-1.4,0.2-1.9,0.5c-0.4,0.3-0.7,0.7-0.7,1.3
			c0,0.7,0.3,1.1,1,1.5c0.7,0.3,1.8,0.7,3.3,1c1.7,0.4,3.1,0.9,4.1,1.3c1.1,0.4,2,1.1,2.8,2s1.2,2.2,1.2,3.8c0,1.3-0.4,2.5-1.1,3.6
			c-0.8,1.1-1.8,1.9-3.2,2.5s-3,0.9-4.9,0.9C559.6,230.3,557.9,230,556.3,229.3z"/>
	</g>
	<g>
		<path class="st1" d="M333.7,103.5c6.3,3.2,11.2,7.7,14.6,13.4c3.4,5.8,5.2,12.4,5.2,20c0,7.5-1.7,14.1-5.2,19.9
			c-3.5,5.8-8.3,10.3-14.7,13.5c-6.3,3.2-13.7,4.8-22,4.8h-29.9V98.7h29.9C320.1,98.7,327.4,100.3,333.7,103.5z M327.6,153.2
			c4.1-3.8,6.1-9.3,6.1-16.3s-2-12.5-6.1-16.4s-9.8-5.9-17.2-5.9h-9.2V159h9.2C317.8,159,323.5,157.1,327.6,153.2z"/>
		<path class="st1" d="M373.3,128.2c2.5-4.7,5.8-8.3,10.1-10.9c4.2-2.5,9-3.8,14.2-3.8c4.5,0,8.4,0.9,11.8,2.6s6,4,7.8,6.9v-8.6
			h19.4v60.7h-19.4v-8.6c-1.9,2.8-4.5,5.1-7.9,6.9c-3.4,1.7-7.3,2.6-11.8,2.6c-5.2,0-9.9-1.3-14.1-3.9c-4.2-2.6-7.6-6.2-10.1-11
			s-3.7-10.2-3.7-16.5C369.7,138.4,370.9,132.9,373.3,128.2z M413.1,133.8c-2.7-2.7-6-4-9.8-4c-3.9,0-7.1,1.3-9.8,4
			c-2.7,2.6-4,6.3-4,10.9c0,4.6,1.3,8.3,4,11s6,4.1,9.8,4.1c3.9,0,7.1-1.3,9.8-4c2.7-2.7,4-6.3,4-11
			C417.2,140.1,415.8,136.5,413.1,133.8z"/>
		<path class="st1" d="M487.8,116.6c3.4-1.9,7.2-2.9,11.4-2.9v19.7h-5.3c-4.9,0-8.5,1-10.9,3s-3.6,5.5-3.6,10.5v28.2H460v-60.7h19.4
			v10.1C481.5,121.2,484.4,118.6,487.8,116.6z"/>
		<path class="st1" d="M544.8,116.1c3.4-1.7,7.3-2.6,11.7-2.6c5.2,0,10,1.3,14.2,3.8s7.6,6.2,10.1,10.9s3.7,10.2,3.7,16.4
			s-1.2,11.7-3.7,16.5s-5.8,8.4-10.1,11c-4.2,2.6-9,3.9-14.2,3.9c-4.5,0-8.4-0.9-11.7-2.6c-3.3-1.7-6-4-7.8-6.8v8.5h-19.4V94.6H537
			V123C538.7,120.2,541.4,117.9,544.8,116.1z M560.6,133.7c-2.7-2.6-6-4-10-4c-3.9,0-7.1,1.3-9.8,4s-4,6.3-4,11c0,4.6,1.3,8.3,4,11
			s6,4,9.8,4c3.9,0,7.2-1.4,9.9-4.1c2.7-2.7,4.1-6.4,4.1-11C564.7,140,563.3,136.4,560.6,133.7z"/>
	</g>
</g>
</svg>
