<?xml version="1.0" encoding="utf-8"?>
<!-- Generator: Adobe Illustrator 24.2.3, SVG Export Plug-In . SVG Version: 6.00 Build 0)  -->
<svg version="1.1" id="Layer_1" xmlns="http://www.w3.org/2000/svg" xmlns:xlink="http://www.w3.org/1999/xlink" x="0px" y="0px"
	 viewBox="0 0 595.3 319.6" style="enable-background:new 0 0 595.3 319.6;" xml:space="preserve">
<style type="text/css">
	.st0{fill:#004549;}
</style>
<g>
	<g>
		<path class="st0" d="M37,137.6L47.6,127l-12.3-12.3c-2.9-2.9-7.7-2.9-10.6,0s-2.9,7.7,0,10.6L37,137.6z"/>
	</g>
	<g>
		<path class="st0" d="M59.9,247.5l10.6-10.6l-11.3-11.3l32.9-32.9l0.1,0.1l5.1-5.1c1.3-1.3,2.1-3,2.2-4.8c0.2-2.2-0.5-4.4-2.1-6.1
			l-0.1-0.1l-5.2-5.2L59,138.4L48.4,149l33.2,33.2L48.7,215L15,181.4l32.7-32.7l-10.6-10.6L4.4,170.8l0,0l0,0
			c-5.8,5.8-5.8,15.3,0,21.2l33.7,33.7l-12.5,12.5c-2.9,2.9-2.9,7.7,0,10.6c2.9,2.9,7.7,2.9,10.6,0l12.5-12.5L59.9,247.5z"/>
	</g>
	<g>
		<path class="st0" d="M184.8,98.1c2.9-2.9,2.9-7.7,0-10.6s-7.7-2.9-10.6,0l-12.3,12.3l10.6,10.6L184.8,98.1z"/>
	</g>
	<g>
		<path class="st0" d="M63.2,111.5l-11.3,11.3l10.6,10.6l11.3-11.3l32.9,32.9l-0.1,0.1l5.1,5.1c1.3,1.3,3,2.1,4.8,2.2
			c2.2,0.2,4.4-0.5,6.1-2.1l5.3-5.3l33.2-33.2l-10.6-10.6l-33.2,33.2l-32.9-32.9L118,77.9l32.7,32.7l10.6-10.6l-32.7-32.7l0,0l0,0
			c-5.9-5.8-15.3-5.8-21.2,0L73.7,101L61.3,88.4c-2.9-2.9-7.7-2.9-10.6,0s-2.9,7.7,0,10.6L63.2,111.5z"/>
	</g>
	<g>
		<path class="st0" d="M200,229.5l-10.6,10.6l12.3,12.3c2.9,2.9,7.7,2.9,10.6,0c2.9-2.9,2.9-7.7,0-10.6L200,229.5z"/>
	</g>
	<g>
		
			<rect x="187.8" y="199.8" transform="matrix(0.7071 -0.7071 0.7071 0.7071 -84.8292 209.8672)" class="st0" width="46.2" height="15"/>
	</g>
	<g>
		<path class="st0" d="M232.6,196.2c5.8-5.8,5.8-15.3,0-21.2l-33.7-33.7l12.5-12.5c2.9-2.9,2.9-7.7,0-10.6s-7.7-2.9-10.6,0
			l-12.5,12.5L177,119.4L166.4,130l11.3,11.3l-32.9,32.9l-0.1-0.1l-5.1,5.1c-1.3,1.3-2.1,3-2.2,4.8c-0.2,2.2,0.5,4.4,2.1,6.1
			l0.1,0.1l5.2,5.2l33.2,33.2l10.6-10.6l-33.2-33.2l32.9-32.9l33.6,33.6L232.6,196.2C232.6,196.3,232.6,196.3,232.6,196.2"/>
	</g>
	<g>
		<path class="st0" d="M52.2,267.5c-2.9,2.9-2.9,7.7,0,10.6s7.7,2.9,10.6,0l12.3-12.3l-10.6-10.6L52.2,267.5z"/>
	</g>
	<g>
		<path class="st0" d="M173.8,254.1l11.3-11.3l-10.6-10.6l-11.3,11.3l-32.9-32.9l0.1-0.1l-5.1-5.1c-1.3-1.3-3-2.1-4.8-2.2
			c-2.2-0.2-4.4,0.5-6.1,2.1l-5.3,5.3l-33.2,33.2l10.6,10.6l33.2-33.2l32.9,32.9L119,287.7L86.3,255l-10.6,10.6l32.7,32.7l0,0l0,0
			c5.9,5.8,15.3,5.8,21.2,0l33.7-33.7l12.5,12.5c2.9,2.9,7.7,2.9,10.6,0c2.9-2.9,2.9-7.7,0-10.6L173.8,254.1z"/>
	</g>
	<g>
		<path class="st0" d="M303.9,232.8c-0.8,1.4-2,2.5-3.6,3.4s-3.6,1.3-6,1.3h-4.4V248h-7.1v-29.3h11.5c2.3,0,4.3,0.4,5.9,1.2
			s2.8,1.9,3.6,3.3c0.8,1.4,1.2,3,1.2,4.9C305,229.9,304.6,231.4,303.9,232.8z M296.8,230.9c0.7-0.6,1-1.5,1-2.7s-0.3-2.1-1-2.7
			c-0.7-0.6-1.7-1-3-1h-3.9v7.3h3.9C295.1,231.9,296.1,231.5,296.8,230.9z"/>
		<path class="st0" d="M322.3,225.6c1.3-0.7,2.6-1.1,4.2-1.1v7.5h-2c-1.8,0-3.1,0.4-4,1.1c-0.9,0.8-1.3,2.1-1.3,4V248H312v-23.3h7.1
			v3.9C320,227.4,321,226.4,322.3,225.6z"/>
		<path class="st0" d="M337.6,246.9c-1.8-1-3.3-2.4-4.3-4.2s-1.6-3.9-1.6-6.3c0-2.4,0.5-4.5,1.6-6.3s2.5-3.2,4.3-4.2
			s3.9-1.5,6.2-1.5s4.3,0.5,6.2,1.5c1.8,1,3.3,2.4,4.3,4.2c1.1,1.8,1.6,3.9,1.6,6.3c0,2.4-0.5,4.5-1.6,6.3s-2.5,3.2-4.4,4.2
			c-1.8,1-3.9,1.5-6.2,1.5S339.5,247.9,337.6,246.9z M347.3,240.7c1-1,1.4-2.4,1.4-4.3c0-1.9-0.5-3.3-1.4-4.3s-2.1-1.5-3.4-1.5
			c-1.4,0-2.5,0.5-3.5,1.5s-1.4,2.4-1.4,4.3c0,1.9,0.5,3.3,1.4,4.3s2,1.5,3.4,1.5C345.2,242.2,346.3,241.7,347.3,240.7z"/>
		<path class="st0" d="M363,230.1c0.9-1.8,2.1-3.2,3.7-4.2s3.3-1.5,5.2-1.5c1.5,0,2.9,0.3,4.2,1c1.3,0.6,2.3,1.5,3,2.6v-10.8h7.1
			V248h-7.1v-3.3c-0.7,1.1-1.6,2-2.9,2.7s-2.7,1-4.3,1c-1.9,0-3.7-0.5-5.2-1.5c-1.6-1-2.8-2.4-3.7-4.2c-0.9-1.8-1.4-3.9-1.4-6.3
			C361.6,234,362.1,231.9,363,230.1z M377.6,232.2c-1-1-2.2-1.5-3.6-1.5s-2.6,0.5-3.6,1.5s-1.5,2.4-1.5,4.2s0.5,3.2,1.5,4.2
			s2.2,1.6,3.6,1.6s2.6-0.5,3.6-1.5s1.5-2.4,1.5-4.2C379.1,234.6,378.6,233.2,377.6,232.2z"/>
		<path class="st0" d="M417.7,224.8V248h-7.1v-3.2c-0.7,1-1.7,1.9-2.9,2.5c-1.2,0.6-2.6,0.9-4.1,0.9c-1.8,0-3.3-0.4-4.7-1.2
			c-1.4-0.8-2.4-1.9-3.2-3.4c-0.7-1.5-1.1-3.3-1.1-5.3v-13.6h7.1v12.6c0,1.6,0.4,2.8,1.2,3.6c0.8,0.9,1.9,1.3,3.3,1.3
			s2.5-0.4,3.3-1.3c0.8-0.9,1.2-2.1,1.2-3.6v-12.6h7V224.8z"/>
		<path class="st0" d="M426.1,230.1c1-1.8,2.4-3.2,4.1-4.2c1.8-1,3.8-1.5,6.1-1.5c2.9,0,5.4,0.8,7.3,2.3c2,1.5,3.2,3.7,3.9,6.5h-7.6
			c-0.6-1.8-1.9-2.7-3.7-2.7c-1.3,0-2.3,0.5-3.1,1.5c-0.8,1-1.2,2.5-1.2,4.4s0.4,3.3,1.2,4.4c0.8,1,1.8,1.5,3.1,1.5
			c1.8,0,3.1-0.9,3.7-2.7h7.6c-0.6,2.7-1.9,4.9-3.9,6.4c-2,1.6-4.4,2.3-7.3,2.3c-2.3,0-4.3-0.5-6.1-1.5c-1.8-1-3.1-2.4-4.1-4.2
			s-1.5-3.9-1.5-6.3C424.7,234,425.1,231.9,426.1,230.1z"/>
		<path class="st0" d="M467.6,242v6H464c-2.6,0-4.6-0.6-6-1.9c-1.4-1.3-2.2-3.3-2.2-6.2v-9.3H453v-5.9h2.8V219h7.1v5.7h4.7v5.9h-4.7
			v9.3c0,0.7,0.2,1.2,0.5,1.5s0.9,0.5,1.7,0.5L467.6,242L467.6,242z"/>
		<path class="st0" d="M475.4,221.3c-0.8-0.7-1.2-1.6-1.2-2.7c0-1.1,0.4-2,1.2-2.8c0.8-0.7,1.8-1.1,3.1-1.1c1.2,0,2.2,0.4,3,1.1
			s1.2,1.7,1.2,2.8s-0.4,2-1.2,2.7c-0.8,0.7-1.8,1.1-3,1.1C477.2,222.4,476.2,222,475.4,221.3z M482,224.8V248h-7.1v-23.3h7.1V224.8
			z"/>
		<path class="st0" d="M494.9,246.9c-1.8-1-3.3-2.4-4.3-4.2s-1.6-3.9-1.6-6.3c0-2.4,0.5-4.5,1.6-6.3s2.5-3.2,4.3-4.2
			s3.9-1.5,6.2-1.5s4.3,0.5,6.2,1.5c1.8,1,3.3,2.4,4.3,4.2c1.1,1.8,1.6,3.9,1.6,6.3c0,2.4-0.5,4.5-1.6,6.3s-2.5,3.2-4.4,4.2
			c-1.8,1-3.9,1.5-6.2,1.5S496.8,247.9,494.9,246.9z M504.6,240.7c1-1,1.4-2.4,1.4-4.3c0-1.9-0.5-3.3-1.4-4.3s-2.1-1.5-3.4-1.5
			c-1.4,0-2.5,0.5-3.5,1.5s-1.4,2.4-1.4,4.3c0,1.9,0.5,3.3,1.4,4.3s2,1.5,3.4,1.5S503.6,241.7,504.6,240.7z"/>
		<path class="st0" d="M541,227.2c1.6,1.8,2.4,4.2,2.4,7.3V248h-7.1v-12.6c0-1.6-0.4-2.8-1.2-3.6c-0.8-0.9-1.9-1.3-3.3-1.3
			c-1.4,0-2.4,0.4-3.3,1.3c-0.8,0.9-1.2,2.1-1.2,3.6V248h-7.1v-23.3h7.1v3.1c0.7-1,1.7-1.8,2.9-2.4c1.2-0.6,2.6-0.9,4.1-0.9
			C537.2,224.5,539.4,225.4,541,227.2z"/>
		<path class="st0" d="M555.8,247.3c-1.6-0.7-2.8-1.6-3.7-2.9c-0.9-1.2-1.4-2.6-1.5-4.1h7c0.1,0.8,0.5,1.5,1.1,2
			c0.7,0.5,1.5,0.7,2.5,0.7c0.9,0,1.6-0.2,2.1-0.5s0.7-0.8,0.7-1.4c0-0.7-0.3-1.2-1-1.5s-1.8-0.7-3.4-1.1c-1.7-0.4-3.1-0.8-4.2-1.2
			c-1.1-0.4-2.1-1.1-2.9-2c-0.8-0.9-1.2-2.2-1.2-3.8c0-1.3,0.4-2.5,1.1-3.6c0.7-1.1,1.8-2,3.3-2.6c1.4-0.6,3.1-1,5.1-1
			c2.9,0,5.2,0.7,6.9,2.2c1.7,1.4,2.6,3.4,2.9,5.8H564c-0.1-0.8-0.5-1.4-1.1-1.9s-1.4-0.7-2.4-0.7c-0.8,0-1.5,0.2-1.9,0.5
			s-0.7,0.8-0.7,1.3c0,0.7,0.4,1.2,1.1,1.5c0.7,0.3,1.8,0.7,3.3,1c1.7,0.4,3.1,0.9,4.2,1.3c1.1,0.4,2,1.1,2.9,2.1
			c0.8,1,1.2,2.2,1.3,3.9c0,1.4-0.4,2.6-1.1,3.6c-0.8,1.1-1.9,1.9-3.3,2.5c-1.4,0.6-3.1,0.9-5,0.9
			C559.2,248.4,557.4,248,555.8,247.3z"/>
	</g>
	<g>
		<path class="st0" d="M329,119.1c6.4,3.3,11.4,7.8,14.9,13.7c3.5,5.9,5.3,12.7,5.3,20.3s-1.8,14.4-5.3,20.3
			c-3.5,5.9-8.5,10.5-14.9,13.7c-6.5,3.3-13.9,4.9-22.4,4.9H276v-77.8h30.5C315.1,114.3,322.6,115.9,329,119.1z M322.7,169.8
			c4.2-3.9,6.3-9.5,6.3-16.6c0-7.2-2.1-12.7-6.3-16.7c-4.2-4-10-6-17.5-6h-9.4v45.2h9.4C312.7,175.7,318.6,173.7,322.7,169.8z"/>
		<path class="st0" d="M369.4,144.3c2.5-4.8,5.9-8.5,10.3-11.1c4.3-2.6,9.2-3.9,14.5-3.9c4.6,0,8.6,0.9,12,2.7s6.1,4.1,7.9,7v-8.8
			h19.8v61.9H414v-8.8c-1.9,2.9-4.6,5.2-8.1,7c-3.4,1.8-7.4,2.7-12,2.7c-5.3,0-10-1.3-14.4-3.9c-4.3-2.6-7.7-6.4-10.3-11.2
			c-2.5-4.8-3.8-10.4-3.8-16.8C365.6,154.7,366.9,149.1,369.4,144.3z M409.9,150c-2.7-2.7-6.1-4.1-10-4.1s-7.3,1.4-10,4
			c-2.7,2.7-4.1,6.4-4.1,11.1c0,4.7,1.4,8.5,4.1,11.3s6.1,4.2,10,4.2s7.3-1.4,10-4.1c2.7-2.7,4.1-6.5,4.1-11.2
			S412.7,152.7,409.9,150z"/>
		<path class="st0" d="M486,132.5c3.5-2,7.3-2.9,11.6-2.9v20.1h-5.4c-4.9,0-8.7,1-11.1,3c-2.5,2-3.7,5.6-3.7,10.7v28.7h-19.8v-61.9
			h19.8v10.3C479.6,137.1,482.5,134.5,486,132.5z"/>
		<path class="st0" d="M544,132c3.5-1.8,7.5-2.7,11.9-2.7c5.3,0,10.2,1.3,14.5,3.9c4.3,2.6,7.7,6.3,10.3,11.1
			c2.5,4.8,3.8,10.4,3.8,16.7c0,6.4-1.3,12-3.8,16.8s-5.9,8.6-10.3,11.2c-4.3,2.6-9.2,3.9-14.5,3.9c-4.6,0-8.5-0.9-11.9-2.6
			c-3.4-1.7-6.1-4-8-6.9v8.6h-19.8v-82H536v29C537.9,136.1,540.5,133.8,544,132z M560.2,149.9c-2.7-2.7-6.1-4-10.1-4
			c-3.9,0-7.3,1.4-10,4.1c-2.7,2.7-4.1,6.5-4.1,11.2s1.4,8.5,4.1,11.2c2.7,2.7,6.1,4.1,10,4.1s7.3-1.4,10.1-4.2s4.2-6.5,4.2-11.3
			C564.3,156.3,562.9,152.6,560.2,149.9z"/>
	</g>
</g>
</svg>
