<svg id="Layer_1" data-name="Layer 1" xmlns="http://www.w3.org/2000/svg" xmlns:xlink="http://www.w3.org/1999/xlink" viewBox="0 0 900 900"><defs><style>.cls-1{fill:none;}.cls-2{clip-path:url(#clip-path);}</style><clipPath id="clip-path"><rect class="cls-1" width="900" height="900"/></clipPath></defs><g class="cls-2"><path d="M842.11,188.71a56.88,56.88,0,0,0-41,17.06A58.51,58.51,0,0,0,784.23,247l.18,25.76-3.63,9.07A223.19,223.19,0,0,1,595.16,419.88v-57a58.23,58.23,0,0,0,58.06-58.06V290.32h6.72a36.76,36.76,0,0,0,30.66-57.15l-18-27a28.2,28.2,0,0,1-4.9-16.15V139a72.51,72.51,0,0,0-29-139H547.8c-102,0-184.9,82.92-184.9,184.9A183.92,183.92,0,0,0,465.24,350.38l13.79,6.9v5.62H456.17a353.62,353.62,0,0,0-99.62,14.52H217.74v29h68a370.2,370.2,0,0,0-55.88,37.2l-13.07,10.71c-4.53,3.81-9.07,7.62-13.24,11.61l-80.21-35L38.83,617.12l77.48,33.93c0,.72-.18,1.45-.18,2.18a58.08,58.08,0,0,0,37.19,54.07,329.24,329.24,0,0,0-51.71,178.18V900H769.35V885.48c0-100.88-45.18-191.43-116.13-252.76V591.9a245.93,245.93,0,0,0-7.8-61.33A289.17,289.17,0,0,0,767,472.14l32.48-26.68a290,290,0,0,0,82.2-109.23A227,227,0,0,0,900,246.59,57.93,57.93,0,0,0,842.11,188.71Zm-20.5,37.56A28.87,28.87,0,0,1,871,246.59,196.93,196.93,0,0,1,865,294c-27.22-8.16-44.1-18.87-51.53-24.68l-.19-22.5A28.23,28.23,0,0,1,821.61,226.27Zm-279.8,272,76.39,42.46a230.09,230.09,0,0,1,4.18,22.86l-92.91-46.45Zm5.81-29.94L509,400.83a214.45,214.45,0,0,1,94.54,98.71Zm100.89-246,18,27a7.21,7.21,0,0,1,1.27,4.35,7.75,7.75,0,0,1-7.8,7.8H624.19V305a29.11,29.11,0,0,1-29,29H537.09v29h29v41.37A247.37,247.37,0,0,0,508.06,368V284.52L487.2,263.65a28.18,28.18,0,0,1-8.17-19.6,27.38,27.38,0,0,1,15.24-24.67l13.79-6.9V172.74a27.57,27.57,0,0,1,27.58-27.58H638.71V190A58.24,58.24,0,0,0,648.51,222.28ZM478.12,324.44A155,155,0,0,1,391.93,184.9C391.93,98.89,462,29,547.8,29h90.91a43.55,43.55,0,0,1,0,87.1H580.64a14.52,14.52,0,0,1,0-29h14.52v-29H580.64a43.67,43.67,0,0,0-43.55,43.54,42.83,42.83,0,0,0,2.73,14.52h-4c-31.39,0-56.79,25.4-56.79,58.06v20.15A56.66,56.66,0,0,0,466.69,284L479,296.31V324.8Zm-7.44,67.5,41.56,72.58h-24.5l-40.1-72.22c2.9,0,5.81-.36,8.71-.36ZM158,520a117.22,117.22,0,0,1-12.52-47.54l36.47,16A272.58,272.58,0,0,0,158,520ZM77.3,602.24l44.09-96.9a148,148,0,0,0,20,43.55c-2.54,4.9-4.72,10-6.9,14.88a221.37,221.37,0,0,0-15.6,56.43Zm73.85,3.63c27.58,8.34,44.63,19.41,52.07,25v22.32a29,29,0,0,1-58.06,0A196.93,196.93,0,0,1,151.15,605.87ZM291.05,536l52.62,23-2.91,6.35a334.32,334.32,0,0,0-105.24,53A225,225,0,0,1,291.05,536ZM202.5,804.74l26.13,10.89,11.07-26.86-26.13-10.89a250.32,250.32,0,0,1,37.56-56.06l20,19.95,20.5-20.5-20-20a250.61,250.61,0,0,1,56.07-37.56l10.89,26.13,26.85-11.07-10.89-26.13a243.74,243.74,0,0,1,66.23-13.06v28.12h29v-28.3a242.39,242.39,0,0,1,66.23,13.06l-10.89,26.13L532,689.7l10.89-26.13A250.61,250.61,0,0,1,599,701.13l-20,20,20.5,20.5,20-20A254.77,254.77,0,0,1,657,777.7L630.9,788.59,642,815.44l26.13-10.88a243.67,243.67,0,0,1,13.07,66.23H535.64a101.18,101.18,0,0,0-48.44-72.58l33.93-81.48-26.86-11.25L460.34,787a96,96,0,0,0-25.22-3.27,101.68,101.68,0,0,0-100.53,87.1H189.07A264.91,264.91,0,0,1,202.5,804.74ZM506.61,871H364.35a72.6,72.6,0,0,1,142.26,0ZM740,871h-29.4c-7.62-145.34-127.92-261.29-275.08-261.29S168,725.63,160.4,871H131a300.51,300.51,0,0,1,55.52-161,57.91,57.91,0,0,0,45.18-50.81,303.07,303.07,0,0,1,203.77-78.56C598.79,580.65,732.34,709.66,740,871ZM435.48,551.61a338,338,0,0,0-59.15,5.45l5.8-12.7-66-29a192.29,192.29,0,0,1,17.6-11.07l21.95-12.52-14.33-25.22-22,12.52a253.45,253.45,0,0,0-108.14,122.3c-11.07-7.08-28-15.79-51-22.86.36-.91.73-2,1.09-2.9a260.54,260.54,0,0,1,74-98.53l13.06-10.71a328.3,328.3,0,0,1,112.5-59.7h2v-.54A345.78,345.78,0,0,1,415.7,395l54.8,98.71h39.56L487,528.39,624.37,597V610.4A332.45,332.45,0,0,0,435.48,551.61ZM781,423l-32.48,26.68a258.88,258.88,0,0,1-112,53,248,248,0,0,0-29.94-55,250.7,250.7,0,0,0,198.33-149c11.07,7.08,27.94,16,51.17,22.86-.37,1.09-.73,2-1.09,3.09A257.26,257.26,0,0,1,781,423Z"/><path d="M0,203.23H333.87v29H0Z"/><path d="M217.73,145.16H333.86v29H217.73Z"/><path d="M159.67,145.16h29v29h-29Z"/><path d="M0,87.1H174.19v29H0Z"/><path d="M174.2,29H348.39v29H174.2Z"/><path d="M87.09,261.29H232.25v29H87.09Z"/><path d="M29,319.36H174.18v29H29Z"/><path d="M232.27,319.36H348.39v29H232.27Z"/></g></svg>