<svg id="Layer_1" data-name="Layer 1" xmlns="http://www.w3.org/2000/svg" viewBox="0 0 885.48 900"><path d="M435.48,0h29V58.06h-29Z"/><path d="M321.79,37,346,20.86,375,64.41,350.84,80.52Z"/><path d="M525.18,64.58,554.24,21l24.15,16.11-29,43.55Z"/><path d="M863.77,735.62,714.44,667.74H551.61v-29H696.77a58.12,58.12,0,0,0,58.07-58.06V203.23a58.12,58.12,0,0,0-58.07-58.07H580.17C552,109.28,505.64,87.1,450,87.1s-102,22.18-130.17,58.06H203.23a58.12,58.12,0,0,0-58.07,58.07V493.55H43.55a43.55,43.55,0,1,0,0,87.1h29A14.53,14.53,0,0,1,87.1,595.16v15.68C38,617.92,0,660.21,0,711.29v87.1A101.51,101.51,0,0,0,172.58,871H714.43l149.31-67.88a37.05,37.05,0,0,0,0-67.47ZM116.13,640.18v13.05a14.52,14.52,0,0,1-29,0V640.18a72.4,72.4,0,0,1,29,0Zm0,53.92a43.5,43.5,0,0,0,29-40.53,72.27,72.27,0,0,1,29.06,57.72v14.52H116.13Zm580.64,2.67v58.07H203.23V711.29a101,101,0,0,0-1.17-14.52ZM203.23,798.39V783.87H696.77v58.07H193.28A101,101,0,0,0,203.23,798.39ZM725.81,704.8l58.06,26.39V807.5l-58.06,26.39ZM522.58,667.74H377.42v-29H522.58Zm174.19-58.06H203.23a29.06,29.06,0,0,1-29-29V522.58H725.81v58.07A29.06,29.06,0,0,1,696.77,609.68Zm0-435.49a29.06,29.06,0,0,1,29,29V493.55h-264A43.23,43.23,0,0,0,464.52,479V464.52H479A43.6,43.6,0,0,0,522.58,421V393.81c5.76-20.88,20.95-38.41,37-56.93,23.49-27.12,50.1-57.84,50.1-104.62a143.12,143.12,0,0,0-11.91-58.07ZM435.48,232.26h29V377.42h-29Zm-29,174.19h87.29L493.55,421A14.52,14.52,0,0,1,479,435.48H421A14.52,14.52,0,0,1,406.45,421ZM450,116.13c76.92,0,130.65,47.76,130.65,116.13,0,35.95-20.89,60.07-43,85.6-15.57,18-31.58,36.51-40.19,59.56h-3.89V258.62a42.93,42.93,0,0,0,14.51,2.67,43.55,43.55,0,1,0-40.87-58.06H432.8a43.47,43.47,0,1,0-40.88,58.06,43,43,0,0,0,14.52-2.67v118.8h-3.89c-8.61-23.05-24.62-41.57-40.2-59.56-22.11-25.53-43-49.65-43-85.6,0-68.37,53.73-116.13,130.65-116.13Zm43.55,101.61a14.52,14.52,0,1,1,14.51,14.52A14.52,14.52,0,0,1,493.55,217.74Zm-87.1,0a14.52,14.52,0,1,1-14.51-14.51A14.53,14.53,0,0,1,406.45,217.74ZM174.19,203.23a29.06,29.06,0,0,1,29-29h99a143.12,143.12,0,0,0-11.91,58.07c0,46.78,26.61,77.5,50.1,104.62,16,18.53,31.22,36.05,37,56.93V421A43.6,43.6,0,0,0,421,464.52h14.51V479A14.53,14.53,0,0,1,421,493.55H174.19ZM72.58,551.61h-29a14.52,14.52,0,1,1,0-29H145.16v58.07a58.12,58.12,0,0,0,58.07,58.06H348.39v29H193.28a101.74,101.74,0,0,0-77.15-56.9V595.16a43.6,43.6,0,0,0-43.55-43.55Zm-14.49,102a43.43,43.43,0,0,0,29,40.53v31.71H29V711.29a72.3,72.3,0,0,1,29.06-57.72ZM101.61,871A72.66,72.66,0,0,1,29,798.39V754.84H174.19v43.55A72.66,72.66,0,0,1,101.61,871Zm750.14-94.31L812.9,794.32V744.39l38.86,17.66a8,8,0,0,1,0,14.61Z"/><path d="M667.74,551.61h29v29h-29Z"/><path d="M609.68,551.61h29v29h-29Z"/><path d="M551.61,551.61h29v29h-29Z"/><path d="M551.61,435.48H696.77v29H551.61Z"/><path d="M580.65,377.42H696.77v29H580.65Z"/><path d="M609.68,319.35h87.09v29H609.68Z"/><path d="M638.71,261.29h58.06v29H638.71Z"/><path d="M667.74,203.23h29v29h-29Z"/></svg>