<svg id="Layer_1" data-name="Layer 1" xmlns="http://www.w3.org/2000/svg" viewBox="0 0 885.48 882.39"><g id="_11-best_price" data-name=" 11-best price"><path d="M579,579a55.14,55.14,0,0,0-55.14-55.14H346.41l12-94.83a6.59,6.59,0,0,0,0-1.66c0-76.37-54-96.49-82.71-96.49a13.76,13.76,0,0,0-13.78,10.06L206.77,532.38a105.8,105.8,0,0,1-41.35,43.7V565.19a13.79,13.79,0,0,0-13.79-13.79H13.78A13.78,13.78,0,0,0,0,565.19V868.45a13.78,13.78,0,0,0,13.78,13.78H151.63a13.79,13.79,0,0,0,13.79-13.78v-9.24l79,23a10.57,10.57,0,0,0,3.72,0H482.46a55.14,55.14,0,0,0,41.36-90.7,55.12,55.12,0,0,0,18.8-75.67,53.55,53.55,0,0,0-5-7,55.14,55.14,0,0,0,18.81-75.67,56.1,56.1,0,0,0-5-7A55.17,55.17,0,0,0,579,579ZM137.85,854.67H27.57V579H137.85Zm344.61,0H250.05l-84.63-24.13V604.89c41.35-9.51,66.3-58.72,67.4-61.07a18.21,18.21,0,0,0,1-2.48l52-181.68c16.12,3.58,44.8,16.95,45.07,66.85L317.05,536a13.75,13.75,0,0,0,13.78,15.44h193a27.57,27.57,0,0,1,0,55.14H454.89a13.79,13.79,0,0,0,0,27.57H510a27.57,27.57,0,1,1,0,55.14H441.11a13.79,13.79,0,1,0,0,27.57h55.14a27.57,27.57,0,1,1,0,55.14H427.32a13.79,13.79,0,0,0,0,27.57h55.14a27.57,27.57,0,1,1,0,55.14Z"/><path d="M179.2,206.79H193v13.78a13.78,13.78,0,1,0,27.56,0V206.79h13.79a13.79,13.79,0,0,0,0-27.57H220.55V165.43a13.78,13.78,0,0,0-27.56,0v13.79H179.2a13.79,13.79,0,0,0,0,27.57Z"/><path d="M744.37,689.25H730.59V675.47a13.79,13.79,0,1,0-27.57,0v13.78H689.23a13.79,13.79,0,0,0,0,27.57H703V730.6a13.79,13.79,0,1,0,27.57,0V716.82h13.78a13.79,13.79,0,1,0,0-27.57Z"/><path d="M579,0C411.47,0,275.69,135.79,275.69,303.28a13.79,13.79,0,0,0,27.57,0C303.31,151,426.78,27.63,579,27.67S854.7,151.19,854.65,303.45A275.69,275.69,0,0,1,631.47,574a13.85,13.85,0,0,0,2.62,27.57h2.62c164.76-30.12,273.9-188.11,243.78-352.86A303.26,303.26,0,0,0,579,0Z"/><path d="M703,358.42A110.28,110.28,0,0,0,592.74,248.14H565.17a27.57,27.57,0,1,1,0-55.14h96.49a41.36,41.36,0,1,0,0-82.71H620.31V68.94a13.78,13.78,0,0,0-13.79-13.78H551.39A13.78,13.78,0,0,0,537.6,68.94v44.94a110.28,110.28,0,0,0,27.57,217h27.57a27.57,27.57,0,0,1,0,55.14H496.25a41.36,41.36,0,1,0,0,82.71H537.6v41.35a13.78,13.78,0,0,0,13.79,13.78h55.13a13.78,13.78,0,0,0,13.79-13.78V465.11A110.28,110.28,0,0,0,703,358.42Zm-98.43,81.74A13.79,13.79,0,0,0,592.74,454v42.31H565.17V454.91a13.78,13.78,0,0,0-13.78-13.78H496.25a13.79,13.79,0,1,1,0-27.57h96.49a55.14,55.14,0,0,0,0-110.28H565.17a82.71,82.71,0,0,1-11.85-164.45A13.79,13.79,0,0,0,565.17,125V82.73h27.57v41.35a13.78,13.78,0,0,0,13.78,13.78h55.14a13.79,13.79,0,1,1,0,27.57H565.17a55.14,55.14,0,1,0,0,110.28h27.57a82.71,82.71,0,0,1,11.85,164.45Z"/></g></svg>