<svg id="Layer_1" data-name="Layer 1" xmlns="http://www.w3.org/2000/svg" viewBox="0 0 873.69 882.39"><path d="M852.1,282.36a57.7,57.7,0,0,0-93.8,45V535a60.63,60.63,0,0,0-76.87-7.85L621.14,567.7A253.83,253.83,0,0,0,513.81,727L485.57,861.62a17.23,17.23,0,1,0,33.73,7.07l28.24-134.58a219.51,219.51,0,0,1,92.84-137.8l60.28-40.54a26.05,26.05,0,0,1,33.93,4.33,29.08,29.08,0,0,1,.59,38.07l-.32.37-40.22,42.81c-22.75,24.17-42.51,45.22-42.82,45.55a17.23,17.23,0,1,0,25.12,23.59c.24-.24,11.43-12.17,26.61-28.31l.17-.17,17.75-18.88c12.67-13.47,26.13-27.76,37.57-39.89.93-1,1.82-2,2.67-3a120.43,120.43,0,0,0,31.06-80.85v-212a23.23,23.23,0,1,1,46.45,0V594.57a132.68,132.68,0,0,1-24.61,77.2l-30.74,43.29A17.23,17.23,0,1,0,812,735l30.73-43.29a166.88,166.88,0,0,0,31-97.15V327.36A57.42,57.42,0,0,0,852.1,282.36Z"/><path d="M770.15,764.23a17.23,17.23,0,0,0-24,4l-.11.15a17.23,17.23,0,1,0,28.06,20l.11-.15A17.23,17.23,0,0,0,770.15,764.23Z"/><path d="M734.37,814.55a17.25,17.25,0,0,0-24,4.08L684.4,855.18a17.23,17.23,0,1,0,28.11,20l25.94-36.54A17.25,17.25,0,0,0,734.37,814.55Z"/><path d="M379.44,861.61,351.2,727A253.75,253.75,0,0,0,243.86,567.71l-60.29-40.54A60.64,60.64,0,0,0,106.7,535V327.36a57.69,57.69,0,0,0-93.79-45,57.42,57.42,0,0,0-21.59,45V594.57a166.91,166.91,0,0,0,31,97.15L152.5,875.13a17.23,17.23,0,0,0,28.11-20L50.4,671.76a132.63,132.63,0,0,1-24.61-77.19V327.36a23.22,23.22,0,1,1,46.44,0v212a120.43,120.43,0,0,0,31.06,80.85c.86,1,1.74,2,2.67,3,11.45,12.13,24.91,26.42,37.58,39.89L161.28,682l.18.17c15.18,16.15,26.37,28.07,26.6,28.32a17.24,17.24,0,0,0,25.13-23.6c-.32-.33-20.49-21.82-43.53-46.3l-39.51-42.06c-.1-.11-.19-.22-.29-.32a29.08,29.08,0,0,1,.56-38.12,26.06,26.06,0,0,1,33.92-4.33l60.29,40.54a219.49,219.49,0,0,1,92.83,137.81L345.7,868.7a17.24,17.24,0,0,0,16.85,13.69,17.43,17.43,0,0,0,3.56-.37A17.24,17.24,0,0,0,379.44,861.61Z"/><path d="M630.22,329.49h-8.15V291.71c0-90.52-73.64-164.15-164.15-164.15H407.08A164.43,164.43,0,0,0,329.47,147a17.23,17.23,0,1,0,16.32,30.36A129.89,129.89,0,0,1,407.08,162h50.84c71.51,0,129.68,58.18,129.68,129.69L588,510.43a21.92,21.92,0,0,1-21.89,21.89h-65.5A51.6,51.6,0,0,0,450,490.16H425.81a51.59,51.59,0,0,0-51.53,51.54v15.71A51.6,51.6,0,0,0,425.81,609H450a51.61,51.61,0,0,0,50.67-42.16h65.5a56.42,56.42,0,0,0,56.36-56.36v-11.1h7.73a84.92,84.92,0,0,0,0-169.84ZM467,557.41A17.09,17.09,0,0,1,450,574.48H425.82a17.09,17.09,0,0,1-17.07-17.07V541.69a17.09,17.09,0,0,1,17.07-17.07H450A17.09,17.09,0,0,1,467,541.69v15.72Zm163.18-92.55h-7.73v-16.5a17.17,17.17,0,0,0-.42-3.75V364h8.15a50.45,50.45,0,0,1,0,100.9Z"/><path d="M270,236a17.23,17.23,0,0,0-21.19,12,164.23,164.23,0,0,0-5.87,43.64v37.78H231.8a82,82,0,0,0-81.93,81.94v3a85,85,0,0,0,84.91,84.91h25.38a17.23,17.23,0,0,0,17.24-17.23V291.7A130.24,130.24,0,0,1,282,257.21,17.23,17.23,0,0,0,270,236ZM242.93,413.79v51.07h-8.15a50.45,50.45,0,1,1,0-100.9h8.15Z"/><path d="M301.07,188.61a17.24,17.24,0,0,0-24.15,3.07c-.13.16-.29.38-.42.55a17.24,17.24,0,1,0,24.57-3.62Z"/><path d="M432.5,0a17.24,17.24,0,0,0-17.23,17.23V78.06a17.24,17.24,0,0,0,34.47,0V17.23A17.24,17.24,0,0,0,432.5,0Z"/><path d="M343.66,94.26l-35.11-35.1a17.23,17.23,0,0,0-24.37,24.37l35.1,35.11a17.24,17.24,0,1,0,24.38-24.38Z"/><path d="M580.82,57.84a17.23,17.23,0,0,0-24.37,0L520.17,94.12a17.23,17.23,0,1,0,24.37,24.37l36.28-36.28A17.23,17.23,0,0,0,580.82,57.84Z"/><path d="M400,398.15H354.86v-5.46a16.83,16.83,0,0,1,16.81-16.81,45.6,45.6,0,0,0,0-91.2h-34a17.24,17.24,0,0,0,0,34.47h34a11.13,11.13,0,1,1,0,22.26,51.34,51.34,0,0,0-51.27,51.28v22.69a17.23,17.23,0,0,0,17.23,17.24H400a17.24,17.24,0,0,0,0-34.47Z"/><path d="M527.53,279.69a17.23,17.23,0,0,0-17.24,17.23V342.1H482.35V296.92a17.24,17.24,0,0,0-34.47,0v62.41a17.23,17.23,0,0,0,17.24,17.23h45.17v38.82a17.24,17.24,0,1,0,34.47,0V296.92A17.23,17.23,0,0,0,527.53,279.69Z"/></svg>