<svg id="Layer_1" data-name="Layer 1" xmlns="http://www.w3.org/2000/svg" viewBox="0 0 882.39 882.39"><path d="M156.55,170.79a56.93,56.93,0,1,0-56.92-56.93A57,57,0,0,0,156.55,170.79Zm0-85.4a28.47,28.47,0,1,1-28.46,28.47A28.5,28.5,0,0,1,156.55,85.39Z"/><path d="M725.84,313.11a56.93,56.93,0,1,0-56.93-56.93A57,57,0,0,0,725.84,313.11Zm0-85.4a28.47,28.47,0,1,1-28.46,28.47A28.49,28.49,0,0,1,725.84,227.71Z"/><path d="M839.44,251.17c-2.65-60.45-52.52-108.85-113.6-108.85a113.56,113.56,0,0,0-35,5.57C641.16,57.48,545.19,0,441.2,0A283.56,283.56,0,0,0,259.64,65.82a113.77,113.77,0,0,0-216.94,48v3a114.31,114.31,0,0,0,13.9,54.53l15.51,28.44A438.45,438.45,0,0,0,0,441.2C0,684.48,197.93,882.39,441.2,882.39S882.39,684.48,882.39,441.2A437.07,437.07,0,0,0,839.44,251.17ZM782.77,526.59v146a413.06,413.06,0,0,1-28.47,37V583.52H725.84V739.65q-13.67,13-28.46,24.79V654.68H668.91V785.2a411.45,411.45,0,0,1-99.62,48.29V772.57a42.44,42.44,0,0,1,8-24.83l49.94-69.93a70.72,70.72,0,0,0,13.27-41.38V487.35a284.58,284.58,0,0,0,47.13-60.46l4.72,8.63a38.21,38.21,0,0,0,67.08,0L825.8,313.76c1.77-3.24,3.24-6.63,4.69-10a412.92,412.92,0,0,1-19.26,320V526.59Zm-498.13-42.7v3.44a262.92,262.92,0,0,1-20.71-17.72,274.3,274.3,0,0,1,67.16-38.21c1.63,3.6,3.38,7.19,5.14,10.76a42.6,42.6,0,0,0-51.59,41.73ZM256.51,171.43A113.65,113.65,0,0,0,268.77,135a389,389,0,0,0,52.68,25.85,349.71,349.71,0,0,0-1.16,244.08,298.46,298.46,0,0,0-76,43.86,254.29,254.29,0,0,1-58.8-149.29,38.08,38.08,0,0,0,4.6-6.26ZM441.2,33.12c16.54,15.17,53.42,53.18,80.88,110.18a256.15,256.15,0,0,1-80.88,13.25,282.51,282.51,0,0,1-81.28-12.44C387.42,86.66,424.57,48.36,441.2,33.12Zm39-1.57A257.53,257.53,0,0,1,611.59,93.66c-8.84,7.65-30.57,24.64-62.51,39.13A396.82,396.82,0,0,0,480.24,31.55ZM441.2,185a286.9,286.9,0,0,0,92.28-15.3,319.58,319.58,0,0,1,21.57,114.92A322.1,322.1,0,0,1,532.8,402.22a42.3,42.3,0,0,0-50.56-14.82,42.46,42.46,0,0,0-82.09,0,42.29,42.29,0,0,0-50.55,14.82,319.41,319.41,0,0,1-1-231.79C376.17,179,407.49,185,441.2,185Zm99.62,366c4.78-1.8,9.58-3.53,14.23-5.56v59.43a7.12,7.12,0,0,1-14.23,0Zm0-30.55V452.67q3.46-6.48,6.6-13a349.76,349.76,0,0,1,63.85,36.47A255.82,255.82,0,0,1,540.82,520.45ZM313.11,483.89a14.23,14.23,0,0,1,28.46,0v71.16H370V427a14.23,14.23,0,0,1,28.46,0V555.05H427V398.5a14.24,14.24,0,0,1,28.47,0V555.05h28.46V427a14.24,14.24,0,0,1,28.47,0V604.87a35.58,35.58,0,1,0,71.16,0V531.14A285.2,285.2,0,0,0,612,512.07V636.43a42.39,42.39,0,0,1-8,24.82l-49.94,69.94a71.56,71.56,0,0,0-5.37,8.88H363.56c-.91-2-1.81-4-2.91-6l-41.92-73.38a42.82,42.82,0,0,1-5.62-21.18ZM370,768.54H541.13c-.08,1.34-.31,2.66-.31,4V797H370V769.42C370,769.13,370,768.83,370,768.54ZM811.23,256.18v3.06a85.81,85.81,0,0,1-10.41,40.89L734.41,421.88c-3.44,6.27-13.69,6.27-17.13,0L650.86,300.13a85.81,85.81,0,0,1-10.41-40.89v-3.06a85.39,85.39,0,0,1,170.78,0ZM665.08,160.06A113.77,113.77,0,0,0,612,256.18v3.06a114.19,114.19,0,0,0,13.91,54.52L671.27,397a256.62,256.62,0,0,1-39.65,58.83c-9-6.91-34.89-25.5-72.7-42.2a350.34,350.34,0,0,0,1.37-254.41c37.12-16.69,62-36.83,71.6-45.41A254.17,254.17,0,0,1,665.08,160.06ZM402,31.71a396,396,0,0,0-69.56,102.87,358,358,0,0,1-62.65-32.45c-.24-2.32-.66-4.6-1.05-6.88A255,255,0,0,1,402,31.71ZM71.16,113.86a85.4,85.4,0,1,1,170.79,0v3a85.65,85.65,0,0,1-10.42,40.89L165.12,279.56c-3.43,6.26-13.69,6.26-17.12,0L81.58,157.8a85.65,85.65,0,0,1-10.42-40.89ZM87.69,228.42,123,293.2a38.18,38.18,0,0,0,33.53,19.91c.53,0,1-.19,1.53-.2,8.35,85.28,54.19,161.6,126.56,209.32V639.56a71.19,71.19,0,0,0,9.38,35.3L336,748.24a42.82,42.82,0,0,1,5.62,21.18v72.27a410.85,410.85,0,0,1-128.09-56.5V654.68H185V764.44q-14.79-11.76-28.47-24.79V583.52H128.09V709.64a415,415,0,0,1-28.46-37v-146H71.16v97.15A411.68,411.68,0,0,1,87.69,228.42ZM370,847.67V825.46H540.82V841.7a410.07,410.07,0,0,1-170.78,6Z"/><path d="M668.91,526.59h28.47v99.62H668.91Z"/><path d="M725.84,526.59H754.3v28.46H725.84Z"/><path d="M185,526.59h28.46v99.62H185Z"/><path d="M128.09,526.59h28.46v28.46H128.09Z"/></svg>