<svg id="Layer_1" data-name="Layer 1" xmlns="http://www.w3.org/2000/svg" viewBox="0 0 882.39 882.39"><defs><style>.cls-1{fill:#ecf4f7;}.cls-2{fill:#1c1d21;}</style></defs><path class="cls-1" d="M669.16,835.34H213.23a19.13,19.13,0,1,0,0,38.25H669.16a19.13,19.13,0,1,0,0-38.25Zm0,29.46H213.23a10.33,10.33,0,1,1,0-20.66H669.16a10.33,10.33,0,1,1,0,20.66Z"/><path class="cls-1" d="M133.25,282.12H105.44a8.87,8.87,0,0,1,8.83-8.78h10.16A8.86,8.86,0,0,1,133.25,282.12Z"/><path class="cls-1" d="M873.57,243.86v38.26H147.88a8.8,8.8,0,0,1,8.83-8.78H864.85V252.65H17.54v20.69h60a8.8,8.8,0,0,1,8.83,8.78H8.83V243.86Z"/><path class="cls-1" d="M852,48.78H30.39A21.51,21.51,0,0,0,8.83,70.31V87H116.26L126,57.57h52.16L187.87,87H405.46l9.71-29.46h52.28L477.11,87H694.53l9.71-29.46h52.15L766.11,87H873.57V70.31A21.52,21.52,0,0,0,852,48.78ZM100.53,78.24h-83s0-7.93.22-8.1A12.52,12.52,0,0,1,30.39,57.57h76.84Zm289.18,0H203.51l-6.7-20.67h199.6Zm289.17,0H492.69L486,57.57H685.59Zm185.75,0H781.75l-6.7-20.67h77a12.42,12.42,0,0,1,12.62,12.74Z"/><path class="cls-1" d="M669.16,543.74H213.23a19.13,19.13,0,0,0,0,38.25H669.16a19.13,19.13,0,1,0,0-38.25Zm0,29.46H213.23a10.34,10.34,0,1,1,0-20.67H669.16a10.34,10.34,0,1,1,0,20.67Z"/><path class="cls-2" d="M223.39,660.93a8.8,8.8,0,0,0-8.82,8.79v7.59a8.77,8.77,0,1,0,17.54,0v-7.59A8.78,8.78,0,0,0,223.39,660.93Zm-99-387.59H114.27a8.79,8.79,0,1,0,0,17.57h10.16a8.79,8.79,0,1,0,0-17.57ZM852,40H771.58V19.3A19.27,19.27,0,0,0,752.26,0H708.37a19.27,19.27,0,0,0-19.32,19.3V40H482.52V19.3A19.27,19.27,0,0,0,463.2,0H419.31a19.37,19.37,0,0,0-19.44,19.3V40H193.35V19.3A19.27,19.27,0,0,0,174,0h-43.9A19.21,19.21,0,0,0,110.8,19.3V40H30.39A30.41,30.41,0,0,0,0,70.31V873.59a8.77,8.77,0,1,0,17.54,0V290.91h60a8.79,8.79,0,1,0,0-17.57h-60V252.65H864.85v20.69H156.71a8.79,8.79,0,1,0,0,17.57H273.65V535H213.34a27.92,27.92,0,1,0,0,55.84h1.45v48.08a8.77,8.77,0,0,0,8.72,8.79,8.86,8.86,0,0,0,8.81-8.79V590.79H650.07V826.55h-418V708.32a8.77,8.77,0,1,0-17.54,0v118h-1.34a27.93,27.93,0,0,0,0,55.85H669.16a27.93,27.93,0,1,0,0-55.85h-1.33V590.79h1.33a27.92,27.92,0,1,0,0-55.84H608.85v-244h256V873.59a8.77,8.77,0,1,0,17.54,0V70.31A30.41,30.41,0,0,0,852,40Zm-72.82,86.69a8.87,8.87,0,1,0,16.86-5.52l-8.49-25.33h77.29V235.07L17.54,234.9V95.82H94.83l-8.71,25.51a8.93,8.93,0,0,0,17,5.51L116.26,87,126,57.57h52.16L187.87,87l13.07,39.64a8.88,8.88,0,1,0,16.87-5.52l-8.38-25.33H384l-8.49,25.33a8.87,8.87,0,1,0,16.86,5.52L405.46,87l9.71-29.46h52.28L477.11,87l13,39.64A8.87,8.87,0,1,0,507,121.15l-8.37-25.33H673l-8.39,25.33a8.88,8.88,0,0,0,5.7,11.21,9,9,0,0,0,11.17-5.69L694.53,87l9.71-29.46h52.15L766.11,87ZM17.76,70.14A12.52,12.52,0,0,1,30.39,57.57h76.84l-6.7,20.67h-83S17.54,70.31,17.76,70.14Zm846.87.17v7.93H781.75l-6.7-20.67h77A12.42,12.42,0,0,1,864.63,70.31ZM678.88,78.24H492.69L486,57.57H685.59Zm-289.17,0H203.51l-6.7-20.67h199.6ZM706.58,19.3a1.64,1.64,0,0,1,1.79-1.72h43.89a1.67,1.67,0,0,1,1.68,1.72V40H706.58Zm-289,0a1.6,1.6,0,0,1,1.68-1.72H463.2A1.77,1.77,0,0,1,465,19.3V40H417.63Zm-289.18,0a1.6,1.6,0,0,1,1.67-1.72H174a1.77,1.77,0,0,1,1.79,1.72V40H128.45ZM679.56,562.86a10.41,10.41,0,0,1-10.4,10.34H213.23a10.34,10.34,0,1,1,0-20.67H669.16A10.41,10.41,0,0,1,679.56,562.86ZM418.41,440.16H464A59.85,59.85,0,0,1,523.74,500v35h-20.1V493.06a8.83,8.83,0,0,0-17.66,0V535H396.41V493.06a8.83,8.83,0,0,0-17.65,0V535h-20.1V500A59.81,59.81,0,0,1,418.41,440.16Zm-23.23-63.94a46.13,46.13,0,1,1,46,46.19A46.16,46.16,0,0,1,395.18,376.22ZM591.09,535H541.5V500a77.66,77.66,0,0,0-58.75-75.15,67.91,67.91,0,0,0,7-7.06,63.82,63.82,0,1,0-89.91,7.06A77.55,77.55,0,0,0,341.11,500v35H291.3v-244H591.09Zm88.47,319.51a10.41,10.41,0,0,1-10.4,10.34H213.23a10.33,10.33,0,1,1,0-20.66H669.16A10.4,10.4,0,0,1,679.56,854.46Z"/></svg>