<?xml version="1.0" encoding="utf-8"?>
<!-- Generator: Adobe Illustrator 24.2.3, SVG Export Plug-In . SVG Version: 6.00 Build 0)  -->
<svg version="1.1" id="Layer_1" xmlns="http://www.w3.org/2000/svg" xmlns:xlink="http://www.w3.org/1999/xlink" x="0px" y="0px"
	 viewBox="0 0 885.4 885.4" style="enable-background:new 0 0 885.4 885.4;" xml:space="preserve">
<style type="text/css">
	.st0{clip-path:url(#SVGID_2_);}
	.st1{clip-path:url(#SVGID_4_);}
	.st2{fill:#303030;}
	.st3{clip-path:url(#SVGID_6_);}
	.st4{clip-path:url(#SVGID_8_);}
	.st5{clip-path:url(#SVGID_10_);}
	.st6{fill:#FFFFFF;}
	.st7{fill:#FFFFFF;filter:url(#Adobe_OpacityMaskFilter);}
	.st8{mask:url(#mask0_7_108_2_);}
	.st9{fill:#2F2E0C;}
	.st10{fill:none;}
</style>
<rect class="st10" width="885.4" height="885.4"/>
<g>
	<path class="st2" d="M721.1,283.5c0,0-69.6,102.2-56,286.1l36.3-2.6c0,0,2.6-175.3,45-297.8L721.1,283.5z"/>
	<path class="st2" d="M287.2,363.9c-6.1,0-11.4-4.3-12.7-10.4l-26.1-130.2c-1.7-8.2,1.9-16.3,8.9-20.4c6.6-3.9,14.7-3,20.5,2.1
		l89.1,77.8c5.4,4.7,6,13,1.3,18.3c-4.7,5.4-13,6-18.3,1.3l-71.8-62.6l21.8,108.7c1.4,7-3.1,13.9-10.1,15.3
		C288.9,363.9,288.1,363.9,287.2,363.9z"/>
	<path class="st2" d="M598.2,362.7c-0.9,0-1.7-0.1-2.6-0.3c-7-1.4-11.5-8.3-10.1-15.3l21.8-108.4l-72.6,63.4
		c-5.4,4.7-13.6,4.2-18.3-1.3c-4.7-5.4-4.2-13.6,1.3-18.3l89.9-78.6c5.8-5.1,13.9-5.8,20.5-2.1c7,4,10.5,12.2,8.9,20.4l-26.1,130.1
		C609.6,358.4,604.3,362.7,598.2,362.7z"/>
	<path class="st2" d="M610.7,385.2c-4.7,0-9.1-2.5-11.4-6.9c-22-41-60.6-70.9-105.4-82.4c-7-1.8-11.2-8.8-9.3-15.8
		c1.8-7,8.8-11.2,15.8-9.3c51.9,13.2,96.4,47.9,121.8,95.2c3.4,6.4,1,14.1-5.3,17.5C615,384.7,612.8,385.2,610.7,385.2z"/>
	<path class="st2" d="M274.6,385.2c-2.1,0-4.2-0.5-6.1-1.6c-6.4-3.4-8.7-11.3-5.3-17.5c25.5-47.3,69.9-82,121.8-95.2
		c7-1.8,14,2.5,15.8,9.3c1.8,7-2.5,14-9.3,15.8c-44.9,11.4-83.3,41.4-105.4,82.4C283.6,382.7,279.2,385.2,274.6,385.2z"/>
	<path class="st2" d="M87.3,174.6c-7.9,0-15-4.3-18.8-11.2l-20.2-37.1l-37.1-20.2C4.3,102.4,0,95.1,0,87.3c0-7.8,4.3-15,11.2-18.8
		l37.1-20.2l20.2-37.1C72.3,4.3,79.5,0,87.3,0c7.8,0,15,4.3,18.8,11.2l20.2,37.1l37.1,20.2c6.9,3.8,11.2,11,11.2,18.8
		c0,7.8-4.3,15-11.2,18.8l-37,20.4l-20.2,37.1C102.4,170.3,95.2,174.6,87.3,174.6z M30.8,87.3l31,17c3.6,1.9,6.6,4.9,8.6,8.6l17,31
		l17-31c1.9-3.6,4.9-6.6,8.6-8.6l31-17l-31-17c-3.6-1.9-6.6-4.9-8.6-8.6l-17-31l-17,31c-1.9,3.6-4.9,6.6-8.6,8.6L30.8,87.3z"/>
	<path class="st2" d="M798,220.5c-7.9,0-15-4.3-18.8-11.2L759,172.3L722,152c-6.9-3.8-11.2-11-11.2-18.8c0-7.8,4.3-15,11.2-18.8
		l37.1-20.2l20.2-37.1c3.8-6.9,11-11.2,18.8-11.2c7.9,0,15,4.3,18.8,11.2l20.2,37.1l37.1,20.2c6.9,3.8,11.2,11,11.2,18.8
		c0,7.8-4.3,15.1-11.2,18.8l-37.1,20.2L817,209.4C813.1,216.2,805.9,220.5,798,220.5z M741.5,133.1l31,17c3.6,1.9,6.6,4.9,8.6,8.6
		l17,31l17-31c1.9-3.6,4.9-6.6,8.6-8.6l31-17l-31-17c-3.6-1.9-6.6-4.9-8.6-8.6l-17-31l-17,31c-1.9,3.6-4.9,6.6-8.6,8.6L741.5,133.1z
		"/>
	<path class="st2" d="M675.6,590.5c-7.1,0-13-5.8-13-13c0-7.1,5.8-13,13-13c6.2,0,11.3-5.1,11.3-11.3v-64.2
		c0-42.7,6.4-84.7,18.9-124.8l25.3-80.7l-30,27.2c-5.3,4.8-13.5,4.4-18.3-0.9c-4.8-5.3-4.4-13.5,0.9-18.3l55.8-50.7
		c5.5-4.9,13.4-5.7,19.6-1.7c6.5,4.2,9.3,12.2,7,19.6l-35.5,113.2c-11.8,37.6-17.8,77-17.8,117v64.2
		C712.8,573.9,696.1,590.5,675.6,590.5z"/>
	<path class="st2" d="M209.7,590.5c-20.5,0-37.2-16.7-37.2-37.2v-64.2c0-40.1-6-79.4-17.8-117l-35.5-113.2c-2.3-7.4,0.5-15.6,7-19.6
		c6.2-4,14-3.2,19.6,1.7l183.1,166.3l94.7-248c3.1-8,10.6-13.2,19.2-13.2s16.2,5.2,19.2,13.2l94.7,248l86.2-78.5
		c5.3-4.8,13.5-4.4,18.3,0.9c4.8,5.3,4.4,13.5-0.9,18.3l-96.1,87.4c-3.1,2.8-7.1,4.4-11.3,4.4c-7.1,0-13.4-4.4-15.9-11.3
		l-94.2-246.8l-94.2,246.8c-2.6,6.9-8.8,11.3-16,11.3c-4.1,0-8.2-1.6-11.3-4.4L154.4,283.7l25.3,80.7
		c12.6,40.2,18.9,82.1,18.9,124.8v64.2c0,6.2,5.1,11.3,11.3,11.3c7.1,0,13,5.8,13,13C222.9,584.7,216.9,590.5,209.7,590.5z"/>
	<path class="st2" d="M442.7,522.5c-9.7,0-18.9-3.8-25.8-10.8L393,488.1c-6.9-6.9-10.8-16.1-10.8-25.8c0-9.7,3.8-18.9,10.8-25.8
		l23.7-23.9c14.3-14.3,37.5-14.3,51.7,0l23.7,23.7c6.9,6.9,10.8,16.1,10.8,25.8c0,9.7-3.8,18.9-10.8,25.8l-23.7,23.7
		C461.7,518.7,452.5,522.5,442.7,522.5z M442.7,427.8c-2.7,0-5.5,1-7.5,3.1l-23.7,23.7c-1.9,1.9-3.1,4.7-3.1,7.5
		c0,2.8,1.2,5.4,3.1,7.5l23.7,23.7c1.9,1.9,4.7,3.1,7.5,3.1c2.8,0,5.5-1.2,7.5-3.1l23.7-23.7c1.9-1.9,3.1-4.7,3.1-7.5
		c0-2.9-1.2-5.5-3.1-7.5l-23.9-23.7C448,428.8,445.4,427.8,442.7,427.8z"/>
	<path class="st2" d="M693.4,652.7H191.9c-24.3,0-44.1-19.8-44.1-44.1c0-24.3,19.8-44.1,44.1-44.1h29.6c7.1,0,13,5.8,13,13
		c0,7.1-5.8,13-13,13h-29.6c-10,0-18.2,8.2-18.2,18.2s8.2,18.2,18.2,18.2h501.5c10,0,18.2-8.2,18.2-18.2s-8.2-18.2-18.2-18.2H276.9
		c-7.1,0-13-5.8-13-13c0-7.1,5.8-13,13-13h416.6c24.3,0,44.1,19.8,44.1,44.1C737.5,632.9,717.7,652.7,693.4,652.7z"/>
	<path class="st2" d="M667.5,885.4H217.9c-7.1,0-13-5.8-13-13V772.3c0-7.1,5.8-13,13-13c7.1,0,13,5.8,13,13v87.2h423.7v-7.4
		c0-7.1,5.8-13,13-13c7.1,0,13,5.8,13,13v20.4C680.5,879.6,674.6,885.4,667.5,885.4z"/>
	<path class="st2" d="M667.5,808.3c-7.1,0-13-5.8-13-13v-22.1c0-7.1,5.8-13,13-13c7.1,0,13,5.8,13,13v22.1
		C680.5,802.5,674.6,808.3,667.5,808.3z"/>
	<path class="st2" d="M468.6,885.4h-51.9c-7.1,0-13-5.8-13-13v-57.1c0-21.4,17.5-38.9,38.9-38.9c21.4,0,38.9,17.5,38.9,38.9v57.1
		C481.5,879.6,475.8,885.4,468.6,885.4z M429.7,859.5h25.9v-44.1c0-7.1-5.8-13-13-13c-7.1,0-13,5.8-13,13V859.5z"/>
	<path class="st2" d="M354.8,885.4h-51.9c-7.1,0-13-5.8-13-13v-57.1c0-21.4,17.5-38.9,38.9-38.9c21.4,0,38.9,17.5,38.9,38.9v57.1
		C367.7,879.6,361.9,885.4,354.8,885.4z M315.9,859.5h25.9v-44.1c0-7.1-5.8-13-13-13c-7.1,0-13,5.8-13,13V859.5z"/>
	<path class="st2" d="M582.5,885.4h-51.9c-7.1,0-13-5.8-13-13v-57.1c0-21.4,17.5-38.9,38.9-38.9c21.4,0,38.9,17.5,38.9,38.9v57.1
		C595.5,879.6,589.6,885.4,582.5,885.4z M543.6,859.5h25.9v-44.1c0-7.1-5.8-13-13-13c-7.1,0-13,5.8-13,13V859.5z"/>
	<path class="st2" d="M188.4,791.1c-21.7,0-42.1-8.3-57.6-23.5c-15.4-15.2-24.1-35.4-24.5-57.1c-0.4-21.8,7.9-42.5,23.5-58.5
		c15.7-16.1,37.6-25.3,60-25.3h507c22.7,0,44.6,9.5,60,26.2c15.7,16.9,23.5,38.9,21.8,62c-2.8,41-36.1,73.7-77,76
		c-27.1,1.6-53.2-10.2-69.8-31.6c-1.4-1.8-3.6-2.8-6-2.8H259.4c-2.3,0-4.7,1.2-6.2,3.2C237.3,779.7,213.9,791.1,188.4,791.1z
		 M189.9,652.7c-15.4,0-30.6,6.4-41.5,17.5c-10.6,10.9-16.3,25-16.1,39.8c0.5,30.4,25.8,55.1,56.2,55.1c17.4,0,33.5-7.8,44.2-21.5
		c6.5-8.3,16.2-13.1,26.7-13.1H626c10.4,0,20.2,4.8,26.5,12.8c11.4,14.7,29.2,22.7,47.7,21.7c28-1.7,50.7-24,52.7-52
		c1.2-15.8-4.2-30.9-14.9-42.4c-10.8-11.5-25.4-17.9-41.1-17.9H189.9z"/>
	<path class="st2" d="M188.4,739.2c-16.3,0-30-13.4-30.2-29.7c-0.1-7.8,3-15.3,8.7-21.1c6.1-6.2,14.4-9.7,23-9.7h507
		c11.4,0,18.8,6.1,22.2,9.6c5.8,6.2,8.7,14.4,8,23c-1,14.8-13.5,27.1-28.3,27.9c-7.1,0.4-13.2-5.1-13.7-12.2
		c-0.4-7.1,5.1-13.2,12.2-13.8c1.8-0.1,3.8-2.1,3.9-3.9c0.1-1.4-0.3-2.5-1.2-3.4c-0.9-0.9-1.9-1.4-3.1-1.4h-507
		c-1.6,0-3.2,0.8-4.4,1.9c-1.3,1.3-1.3,2.2-1.2,2.5c0,2.3,2.1,4.2,4.3,4.2c7.1,0,13,5.8,13,13C201.5,733.1,195.7,739.2,188.4,739.2z
		"/>
</g>
</svg>
