<?xml version="1.0" encoding="utf-8"?>
<!-- Generator: Adobe Illustrator 24.2.3, SVG Export Plug-In . SVG Version: 6.00 Build 0)  -->
<svg version="1.1" id="Layer_1" xmlns="http://www.w3.org/2000/svg" xmlns:xlink="http://www.w3.org/1999/xlink" x="0px" y="0px"
	 viewBox="0 0 811.8 559.4" style="enable-background:new 0 0 811.8 559.4;" xml:space="preserve">
<style type="text/css">
	.st0{clip-path:url(#SVGID_2_);}
	.st1{clip-path:url(#SVGID_4_);}
	.st2{fill:#303030;}
</style>
<g>
	<g>
		<defs>
			<rect id="SVGID_1_" x="-34.1" y="-68.2" width="845.9" height="654.9"/>
		</defs>
		<clipPath id="SVGID_2_">
			<use xlink:href="#SVGID_1_"  style="overflow:visible;"/>
		</clipPath>
		<g class="st0">
			<g>
				<g>
					<defs>
						<rect id="SVGID_3_" x="0" width="811.8" height="559.4"/>
					</defs>
					<clipPath id="SVGID_4_">
						<use xlink:href="#SVGID_3_"  style="overflow:visible;"/>
					</clipPath>
					<g class="st1">
						<path class="st2" d="M809.7,340.1L768.5,277c-18.1-27.9-48.9-44.5-82.5-44.5H579.7v-61.4c0-37.5-30.4-68-67.8-68H313.2
							C302.1,44.5,250.7,0.2,189.2,0.2C119.5,0.2,62.9,57.1,62.9,127c0,44,22.5,82.8,56.4,105.6H12.8c-7.2,0-12.8,5.9-12.8,12.9
							s5.9,12.9,12.8,12.9h128.9v25.8H90.2c-7.2,0-12.8,5.9-12.8,12.9S83.2,310,90.2,310h51.5v25.8H12.8c-7.2,0-12.8,5.9-12.8,12.9
							s5.9,12.9,12.8,12.9h128.9v57.6c-22.6,10-38.7,32.8-38.7,59.3v12.7c0,7.2,5.9,12.9,12.8,12.9h114.4
							c7.4,31.7,35.7,55.4,69.3,55.4c33.8,0,61.9-23.7,69.3-55.4h247.9c7.4,31.7,35.7,55.4,69.3,55.4s61.9-23.7,69.3-55.4h43.4
							c7.2,0,12.8-5.9,12.8-12.9V346.9C811.8,344.6,811,342.1,809.7,340.1z M88.7,126.8c0-55.7,45.1-101,100.6-101
							s100.6,45.3,100.6,101s-45.1,101-100.6,101S88.7,182.5,88.7,126.8z M167.4,361.7h25.7c7.2,0,12.8-5.9,12.8-12.9
							s-5.9-12.9-12.8-12.9h-25.7v-25.8h90.2c7.2,0,12.8-5.9,12.8-12.9s-5.8-12.9-12.8-12.9h-90.2v-25.8h167.5
							c7.2,0,12.8-5.9,12.8-12.9s-5.9-12.9-12.8-12.9H259c33.4-22.4,55.5-60.3,56.3-103.5H512c23,0,41.9,19,41.9,42.1v242.4H167.6
							h-0.2V361.7z M554.1,478.1H370c-2.1-15-8.7-28.2-18.3-38.9h202.4V478.1z M167.6,439.4h79.7c-9.6,10.4-16.2,23.9-18.3,38.9
							H128.9C128.9,456.8,146.3,439.4,167.6,439.4z M299.6,533.4c-25.1,0-45.5-20.5-45.5-45.7c0-25.2,20.4-45.7,45.5-45.7
							s45.5,20.5,45.5,45.7C345.1,512.9,324.7,533.4,299.6,533.4z M686.2,533.4c-25.1,0-45.5-20.5-45.5-45.7
							c0-25.2,20.4-45.7,45.5-45.7s45.5,20.5,45.5,45.7C731.5,512.9,711.1,533.4,686.2,533.4z M785.9,478.1h-29.5
							c-4.7-34.9-34.5-61.8-70.4-61.8s-65.7,26.9-70.4,61.8h-35.9V258.2H686c24.7,0,47.6,12.3,61,32.8l38.9,59.9L785.9,478.1
							L785.9,478.1z"/>
						<path class="st2" d="M707.2,487.9c0,11.8-9.4,21.2-21.1,21.2c-11.7,0-21.1-9.5-21.1-21.2s9.4-21.2,21.1-21.2
							C697.7,466.7,707.2,476.2,707.2,487.9z"/>
						<path class="st2" d="M320.7,487.9c0,11.8-9.4,21.2-21.1,21.2s-21.1-9.5-21.1-21.2s9.4-21.2,21.1-21.2S320.7,476.2,320.7,487.9
							z"/>
						<path class="st2" d="M206.1,126.8V70.1c0-7.2-5.9-12.9-12.8-12.9c-7.2,0-12.8,5.9-12.8,12.9v52.3l-26.4,36.4
							c-4.2,5.7-3,13.8,2.8,18c2.3,1.7,4.9,2.5,7.6,2.5c4,0,7.9-1.9,10.4-5.3l28.7-39.6C205.2,132.3,206.1,129.6,206.1,126.8z"/>
						<path class="st2" d="M681.9,271.1h-24.7c-7.2,0-12.8,5.9-12.8,12.9v90.6c0,7.2,5.9,12.9,12.8,12.9h86.7
							c8.1,0,15.3-4.2,19.4-11.2c4.2-7,4.2-15.4,0-22.4l-30-52.9C722.7,282.6,703,271.1,681.9,271.1z M670,361.7v-64.6h11.7
							c11.9,0,23,6.4,29.1,16.9l27.2,47.8L670,361.7L670,361.7z"/>
					</g>
				</g>
			</g>
		</g>
	</g>
</g>
</svg>
