<?xml version="1.0" encoding="utf-8"?>
<!-- Generator: Adobe Illustrator 24.2.3, SVG Export Plug-In . SVG Version: 6.00 Build 0)  -->
<svg version="1.1" id="Layer_1" xmlns="http://www.w3.org/2000/svg" xmlns:xlink="http://www.w3.org/1999/xlink" x="0px" y="0px"
	 viewBox="0 0 784.2 668.6" style="enable-background:new 0 0 784.2 668.6;" xml:space="preserve">
<style type="text/css">
	.st0{fill:#FFFFFF;}
	.st1{fill:#2F2E0C;}
	.st2{fill:#303030;}
</style>
<g>
	<g>
		<path class="st0" d="M271.9,118.9c8.9-2.5,15.7-12.3,12.4-21c-0.3-0.8-0.6-1.5-1-2c-2.2-3-5-5.6-8.2-7.5s-6.7-3.1-10.2-3.6
			c-3.6-0.5-7.4-0.2-10.9,0.8s-6.9,2.7-9.7,5.1c-2.9,2.3-5.4,5.2-7.2,8.6c-1.9,3.3-3,7-3.5,10.8c-0.1,0.7-0.2,1.6-0.2,2.7
			c-0.4,9.4,8.1,14.8,17,12.3l10.8-3L271.9,118.9z"/>
	</g>
	<g>
		<g>
			<path class="st1" d="M302.5,90.4c-0.6-1.4-1.7-4-3.4-6.5L267.6,108c-0.7-0.9-1.1-1.6-1.3-1.9c-0.1-0.4-0.2-0.6-0.2-0.6
				L302.5,90.4z M299.1,83.9c-3.7-5-8.4-9.3-13.7-12.5l-20.5,34.2c1,0.6,1.9,1.4,2.7,2.4L299.1,83.9z M285.4,71.4
				c-5.4-3.2-11.3-5.3-17.6-6.2l-6,39.2c1,0.1,2.1,0.5,3,1.1L285.4,71.4z M267.8,65.3c-6.2-0.8-12.6-0.4-18.7,1.3l9.6,38.1
				c1-0.3,2-0.3,3-0.2L267.8,65.3z M249.2,66.6c-6.1,1.7-11.9,4.7-16.8,8.7l23.8,30.8c0.8-0.7,1.8-1.1,2.7-1.4L249.2,66.6z
				 M232.4,75.3c-5,4-9.1,9-12.3,14.6l33.9,18.7c0.6-1,1.4-1.9,2.2-2.5L232.4,75.3z M220.1,89.9c-3.1,5.6-5.1,11.7-5.9,18l38.7,4.2
				c0.2-1.3,0.6-2.5,1.1-3.5L220.1,89.9z M214.2,107.9c-0.2,1.5-0.3,3.1-0.4,4.4l39,0.6c0.1-0.4,0.1-0.7,0.1-0.8c0-0.2,0-0.2,0,0
				L214.2,107.9z M255.3,144l10.7-3l-9.7-38.1l-10.7,3L255.3,144z M266,141l10.7-3l-9.6-38.1l-10.8,3L266,141z M213.8,112.4
				c-0.4,11.4,4.7,21.4,13.3,27.3c8.3,5.7,18.6,7,28.2,4.3l-9.7-38.1c0.7-0.2,2.3-0.3,4.1,1c1,0.6,1.9,1.6,2.5,2.8
				c0.6,1.3,0.8,2.5,0.7,3.3L213.8,112.4z M266.1,105.4c-0.5-1.1-0.6-2.3-0.4-3.3c0.1-0.9,0.4-1.5,0.6-1.7c0.1-0.2,0.2-0.3,0.2-0.3
				c0.1,0,0.2-0.1,0.6-0.2l9.6,38.1c9.4-2.7,17.4-9,22.4-16.9c5-8.1,7.7-19.3,3.4-30.6L266.1,105.4z"/>
		</g>
	</g>
	<g>
		<path class="st0" d="M520.9,155.6C587.4,200,614.6,268.1,637,354.1L58.8,517.7c-20.1-86-16.4-174.7,20.6-249.1
			c38.4-77.3,110.2-133.5,186.9-155.2C342.6,91.8,450.9,109,520.9,155.6z"/>
		<path class="st1" d="M51.6,529.9l-2.3-10c-22.1-94.8-14.7-183.2,21.4-255.7c38.3-77,110.4-136.9,193-160.3
			c80.3-22.7,190.8-4.4,262.8,43.5l0,0c67.5,45.1,96,111.6,120.2,204.2l2.4,9.3L51.6,529.9z M338.1,114c-24.6,0-48.2,2.8-69.2,8.8
			c-77.3,21.9-144.9,78-180.7,150.1c-32.8,65.8-40.4,146-22.1,232.4L625,347.2c-22.4-83.3-49.5-143.4-109.6-183.5
			C467.9,132.1,400,114,338.1,114z"/>
	</g>
	<g>
		<path class="st0" d="M726.3,32.7H34v568.1h692.3L726.3,32.7L726.3,32.7z"/>
		<path class="st2" d="M726.3,608.2h-66.5c-4.1,0-7.4-3.3-7.4-7.4c0-4.1,3.3-7.4,7.4-7.4h59.1v-4.7c0-4.1,3.3-7.4,7.4-7.4
			s7.4,3.3,7.4,7.4v12.1C733.7,604.9,730.4,608.2,726.3,608.2z M581.2,608.2h-78.6c-4.1,0-7.4-3.3-7.4-7.4c0-4.1,3.3-7.4,7.4-7.4
			h78.6c4.1,0,7.4,3.3,7.4,7.4S585.3,608.2,581.2,608.2z M424,608.2h-78.6c-4.1,0-7.4-3.3-7.4-7.4c0-4.1,3.3-7.4,7.4-7.4H424
			c4.1,0,7.4,3.3,7.4,7.4S428.1,608.2,424,608.2z M266.9,608.2h-78.6c-4.1,0-7.4-3.3-7.4-7.4c0-4.1,3.3-7.4,7.4-7.4h78.6
			c4.1,0,7.4,3.3,7.4,7.4C274.2,604.9,270.9,608.2,266.9,608.2z M109.7,608.2H34c-4.1,0-7.4-3.3-7.4-7.4v-3c0-4.1,3.3-7.4,7.4-7.4
			c2.4,0,4.6,1.2,5.9,3h69.7c4.1,0,7.4,3.3,7.4,7.4C117,604.9,113.7,608.2,109.7,608.2z M34,526.6c-4.1,0-7.4-3.3-7.4-7.4v-78.6
			c0-4.1,3.3-7.4,7.4-7.4s7.4,3.3,7.4,7.4v78.6C41.4,523.3,38.1,526.6,34,526.6z M726.3,517.5c-4.1,0-7.4-3.3-7.4-7.4v-78.6
			c0-4.1,3.3-7.4,7.4-7.4s7.4,3.3,7.4,7.4v78.6C733.7,514.2,730.4,517.5,726.3,517.5z M34,369.4c-4.1,0-7.4-3.3-7.4-7.4v-78.6
			c0-4.1,3.3-7.4,7.4-7.4s7.4,3.3,7.4,7.4V362C41.4,366.1,38.1,369.4,34,369.4z M726.3,360.3c-4.1,0-7.4-3.3-7.4-7.4v-78.6
			c0-4.1,3.3-7.4,7.4-7.4s7.4,3.3,7.4,7.4v78.6C733.7,357,730.4,360.3,726.3,360.3z M34,212.3c-4.1,0-7.4-3.3-7.4-7.4v-78.6
			c0-4.1,3.3-7.4,7.4-7.4s7.4,3.3,7.4,7.4v78.6C41.4,209,38.1,212.3,34,212.3z M726.3,203.1c-4.1,0-7.4-3.3-7.4-7.4v-78.6
			c0-4.1,3.3-7.4,7.4-7.4s7.4,3.3,7.4,7.4v78.6C733.7,199.8,730.4,203.1,726.3,203.1z M34,55.1c-4.1,0-7.4-3.3-7.4-7.4v-15
			c0-4.1,3.3-7.4,7.4-7.4h63.6c4.1,0,7.4,3.3,7.4,7.4c0,4.1-3.3,7.4-7.4,7.4H41.4v7.7C41.4,51.8,38.1,55.1,34,55.1z M726.3,46
			c-3.6,0-6.5-2.5-7.2-5.9h-71.4c-4.1,0-7.4-3.3-7.4-7.4c0-4.1,3.3-7.4,7.4-7.4h78.6c4.1,0,7.4,3.3,7.4,7.4v5.9
			C733.7,42.6,730.4,46,726.3,46z M569.1,40h-78.6c-4.1,0-7.4-3.3-7.4-7.4c0-4.1,3.3-7.4,7.4-7.4h78.6c4.1,0,7.4,3.3,7.4,7.4
			C576.5,36.7,573.2,40,569.1,40z M412,40h-78.6c-4.1,0-7.4-3.3-7.4-7.4c0-4.1,3.3-7.4,7.4-7.4H412c4.1,0,7.4,3.3,7.4,7.4
			C419.3,36.7,416,40,412,40z M254.8,40h-78.6c-4.1,0-7.4-3.3-7.4-7.4c0-4.1,3.3-7.4,7.4-7.4h78.6c4.1,0,7.4,3.3,7.4,7.4
			C262.1,36.7,258.8,40,254.8,40z"/>
	</g>
	<g>
		<path class="st0" d="M412.1,7.4H359v51.2h53.1V7.4z"/>
		<path class="st2" d="M412.1,66H359c-4.1,0-7.4-3.3-7.4-7.4V7.4c0-4.1,3.3-7.4,7.4-7.4h53.1c4.1,0,7.4,3.3,7.4,7.4v51.2
			C419.4,62.7,416.1,66,412.1,66z M366.3,51.2h38.4V14.8h-38.4V51.2z"/>
	</g>
	<g>
		<path class="st0" d="M752.3,7.4h-53.1v51.2h53.1V7.4z"/>
		<path class="st2" d="M752.3,66h-53.1c-4.1,0-7.4-3.3-7.4-7.4V7.4c0-4.1,3.3-7.4,7.4-7.4h53.1c4.1,0,7.4,3.3,7.4,7.4v51.2
			C759.6,62.7,756.3,66,752.3,66z M706.5,51.2h38.4V14.8h-38.4V51.2z"/>
	</g>
	<g>
		<path class="st0" d="M60.6,7.4H7.4v51.2h53.1L60.6,7.4L60.6,7.4z"/>
		<path class="st2" d="M60.6,66H7.4C3.3,66,0,62.7,0,58.6V7.4C0,3.3,3.3,0,7.4,0h53.1c4.1,0,7.4,3.3,7.4,7.4v51.2
			C67.9,62.7,64.6,66,60.6,66z M14.8,51.2h38.4V14.8H14.8V51.2z"/>
	</g>
	<g>
		<path class="st0" d="M35.3,342.3h-2.7c-13.9,0-25.2-11.3-25.2-25.2c0-14,11.3-25.3,25.2-25.3h2.7c14,0,25.2,11.3,25.2,25.3
			C60.6,331,49.3,342.3,35.3,342.3z"/>
		<path class="st2" d="M35.3,349.7h-2.7c-18,0-32.6-14.6-32.6-32.6s14.6-32.6,32.6-32.6h2.7c18,0,32.6,14.6,32.6,32.6
			S53.3,349.7,35.3,349.7z M32.7,299.2c-9.9,0-17.9,8-17.9,17.9s8,17.9,17.9,17.9h2.7c9.9,0,17.9-8,17.9-17.9s-8-17.9-17.9-17.9
			H32.7z"/>
	</g>
	<g>
		<path class="st0" d="M727,342.3h-2.6c-13.9,0-25.2-11.3-25.2-25.2c0-14,11.3-25.3,25.2-25.3h2.7c14,0,25.2,11.3,25.2,25.3
			C752.9,331,741.7,342.3,727,342.3z"/>
		<path class="st2" d="M727,349.7h-2.6c-18,0-32.6-14.6-32.6-32.6s14.6-32.6,32.6-32.6h2.7c18,0,32.6,14.6,32.6,32.6
			c0.4,8.2-2.6,16.3-8.5,22.5C744.9,346.1,736.4,349.7,727,349.7z M724.4,299.2c-9.9,0-17.9,8-17.9,17.9s8,17.9,17.9,17.9h2.7
			c5.3,0,10.1-2,13.4-5.5c3.1-3.2,4.7-7.5,4.4-12c0-10.2-8-18.3-17.9-18.3H724.4z"/>
	</g>
	<g>
		<path class="st0" d="M412.1,575.6H359v51.2h53.1V575.6z"/>
		<path class="st2" d="M412.1,634.1H359c-4.1,0-7.4-3.3-7.4-7.4v-51.1c0-4.1,3.3-7.4,7.4-7.4h53.1c4.1,0,7.4,3.3,7.4,7.4v51.2
			C419.4,630.8,416.1,634.1,412.1,634.1z M366.3,619.3h38.4v-36.4h-38.4V619.3z"/>
	</g>
	<g>
		<path class="st0" d="M752.3,575.6h-53.1v51.2h53.1V575.6z"/>
		<path class="st2" d="M752.3,634.1h-53.1c-4.1,0-7.4-3.3-7.4-7.4v-51.1c0-4.1,3.3-7.4,7.4-7.4h53.1c4.1,0,7.4,3.3,7.4,7.4v51.2
			C759.6,630.8,756.3,634.1,752.3,634.1z M706.5,619.3h38.4v-36.4h-38.4V619.3z"/>
	</g>
	<g>
		<path class="st0" d="M60.6,575.6H7.4v51.2h53.1L60.6,575.6L60.6,575.6z"/>
		<path class="st2" d="M60.6,634.1H7.4c-4.1,0-7.4-3.3-7.4-7.4v-51.1c0-4.1,3.3-7.4,7.4-7.4h53.1c4.1,0,7.4,3.3,7.4,7.4v51.2
			C67.9,630.8,64.6,634.1,60.6,634.1z M14.8,619.3h38.4v-36.4H14.8V619.3z"/>
	</g>
	<g>
		<path class="st0" d="M155,110.3h565.4c29.8,0,53.9,24.2,53.9,54v441c-0.6,30-24.2,53.5-53.9,53.5H155c-29.9,0-54-24.2-54-54V164.2
			c0-28.9,22.7-52.4,51.2-53.9L155,110.3z"/>
		<path class="st2" d="M720.4,668.6H155c-35.2,0-63.9-28.6-63.9-63.8V164.2c0-34,26.6-62,60.5-63.7l3.3-0.1h565.5
			c35.2,0,63.8,28.6,63.8,63.8v441C783.5,640.8,755.5,668.6,720.4,668.6z M155.1,120.1l-2.7,0.1c-23.2,1.2-41.6,20.5-41.6,44.1
			v440.6c0,24.3,19.8,44.1,44.2,44.1h565.4c24.3,0,43.6-19.3,44.1-43.9V164.2c0-24.3-19.8-44.1-44.1-44.1H155.1z"/>
	</g>
	<g>
		<path class="st2" d="M662.6,486.6c-3.3,0-6.4-2.3-7.2-5.7C629,369.2,539.6,291.2,438,291.2c-102.2,0-191.6,78-217.4,189.6
			c-0.9,4-4.9,6.4-8.8,5.5c-4-0.9-6.4-4.9-5.5-8.8c27.3-118.4,122.6-201.1,231.8-201.1c108.5,0,203.8,82.7,231.7,201
			c0.9,4-1.5,7.9-5.5,8.9C663.7,486.5,663.1,486.6,662.6,486.6z"/>
	</g>
	<g>
		<path class="st2" d="M661.9,291.2H213.4c-4.1,0-7.4-3.3-7.4-7.4s3.3-7.4,7.4-7.4h448.5c4.1,0,7.4,3.3,7.4,7.4
			C669.3,287.9,666,291.2,661.9,291.2z"/>
	</g>
	<g>
		<path class="st0" d="M461.3,261.3h-46.6v46.5h46.6V261.3z"/>
		<path class="st2" d="M461.3,315.1h-46.6c-4.1,0-7.4-3.3-7.4-7.4v-46.5c0-4.1,3.3-7.4,7.4-7.4h46.6c4.1,0,7.4,3.3,7.4,7.4v46.5
			C468.6,311.8,465.3,315.1,461.3,315.1z M422.1,300.4h31.8v-31.8h-31.8V300.4z"/>
	</g>
	<g>
		<path class="st0" d="M236.7,456.6h-46.6v46.5h46.6V456.6z"/>
		<path class="st2" d="M236.7,510.5h-46.6c-4.1,0-7.4-3.3-7.4-7.4v-46.5c0-4.1,3.3-7.4,7.4-7.4h46.6c4.1,0,7.4,3.3,7.4,7.4v46.5
			C244.1,507.2,240.8,510.5,236.7,510.5z M197.5,495.8h31.8V464h-31.8V495.8L197.5,495.8z"/>
	</g>
	<g>
		<path class="st0" d="M685.2,456.6h-46.5v46.5h46.5V456.6z"/>
		<path class="st2" d="M685.2,510.5h-46.5c-4.1,0-7.4-3.3-7.4-7.4v-46.5c0-4.1,3.3-7.4,7.4-7.4h46.5c4.1,0,7.4,3.3,7.4,7.4v46.5
			C692.5,507.2,689.2,510.5,685.2,510.5z M646.1,495.8h31.7V464h-31.7V495.8z"/>
	</g>
	<g>
		<path class="st2" d="M680.5,283.8c0,10-8,18.6-18.7,18.6c-10.6,0-18.6-8-18.6-18.6s8-18.6,18.6-18.6
			C671.9,265.9,680.5,273.9,680.5,283.8z"/>
	</g>
	<g>
		<path class="st2" d="M232,283.8c0,10-8,18.6-18.6,18.6s-18.7-8-18.7-18.6s8.1-18.6,18.7-18.6C223.3,265.9,232,273.9,232,283.8z"/>
	</g>
</g>
</svg>
