<?xml version="1.0" encoding="utf-8"?>
<!-- Generator: Adobe Illustrator 24.2.3, SVG Export Plug-In . SVG Version: 6.00 Build 0)  -->
<svg version="1.1" id="Layer_1" xmlns="http://www.w3.org/2000/svg" xmlns:xlink="http://www.w3.org/1999/xlink" x="0px" y="0px"
	 viewBox="0 0 847.3 847.2" style="enable-background:new 0 0 847.3 847.2;" xml:space="preserve">
<style type="text/css">
	.st0{fill:#303030;}
</style>
<g>
	<path class="st0" d="M719.7,464.3c-0.1-28.3-6.7-56.2-19.5-81.4l29.3-29.3c22-22,22-57.6,0-79.5c-10.9-10.9-25.3-16.4-39.7-16.4
		c0-14.4-5.5-28.8-16.4-39.7s-25.3-16.4-39.7-16.4c0-14.4-5.5-28.8-16.4-39.7s-25.3-16.4-39.7-16.4c0-15-5.8-29-16.5-39.7
		s-24.7-16.5-39.7-16.5s-29.2,5.8-39.7,16.5l-58.2,58l-32.3-32.3c-10.7-10.7-24.7-16.5-39.7-16.5s-29.2,5.8-39.7,16.5
		c-10.5,10.6-16.4,24.7-16.5,39.7c-15,0-29,5.8-39.7,16.5c-10.5,10.5-16.4,24.7-16.5,39.7c-15,0-29,5.8-39.7,16.5
		c-10.7,10.7-16.5,24.7-16.5,39.7c0,9.7,2.5,19,6.9,27.2c-8.1,2.6-15.8,7.2-22.2,13.6c-22,22-22,57.6,0,79.6l23.5,23.5L5.2,613.3
		c-6.5,6.5-6.5,16.9,0,23.5c3.2,3.2,7.4,4.8,11.7,4.8s8.4-1.6,11.7-4.8l126.1-126.1l118,118.2L83.6,818c-6.5,6.5-6.5,16.9,0,23.5
		c3.2,3.2,7.4,4.8,11.7,4.8c4.2,0,8.4-1.6,11.7-4.8l255.8-255.8c4.7-4.7,10.1-8.6,15.9-11.4l40.1,26.4
		c26.4,17.5,58.7,24.2,89.8,19.2l222.5,222.5c3.2,3.2,7.4,4.8,11.7,4.8s8.4-1.6,11.7-4.8c6.5-6.5,6.5-16.9,0-23.5l-129.1-129
		l15.6-15.6c6.5-6.5,6.5-16.9,0-23.5c-6.4-6.6-16.9-6.5-23.4,0l-15.5,15.5l-36.5-36.4L702,493.5l36.5,36.5L723,545.5
		c-6.5,6.5-6.5,16.9,0,23.5c3.2,3.2,7.4,4.8,11.7,4.8c4.2,0,8.4-1.6,11.7-4.8l15.6-15.5l57,57c3.2,3.2,7.4,4.8,11.7,4.8
		s8.4-1.6,11.7-4.8c6.5-6.5,6.5-16.9,0-23.5L719.7,464.3z M504.9,129.1c4.3-4.3,10.2-6.8,16.4-6.8s12,2.4,16.4,6.8
		c4.3,4.3,6.8,10.2,6.8,16.4s-2.4,12-6.8,16.4l-35.5,35.5l-0.9,0.9c-6.4,6.5-6.4,16.9,0,23.5c6.5,6.6,16.9,6.5,23.5,0l36.4-36.4
		c4.3-4.3,10.2-6.8,16.4-6.8s12,2.4,16.4,6.8c9.1,9.1,9.1,23.7,0,32.8l-48.4,48.4l-7.1,7.1c-6.5,6.5-6.5,16.9,0,23.5
		c3.2,3.2,7.4,4.8,11.7,4.8s8.4-1.6,11.7-4.8l55.5-55.5c4.3-4.3,10.2-6.8,16.4-6.8s12,2.4,16.4,6.8c9.1,9.1,9.1,23.7,0,32.8
		l-48.4,48.4l-7.1,7.1c-6.5,6.4-6.5,16.9,0,23.4c3.2,3.2,7.4,4.8,11.7,4.8c4.2,0,8.4-1.6,11.7-4.8l55.5-55.5
		c9.1-9.1,23.7-9.1,32.8,0s9.1,23.7,0,32.8L569.3,467.1c-21.6,21.6-46.9,38.6-75.2,50.3c-28.3,11.6-58.1,17.5-88.7,17.5
		c-16.8,0-32.9,4.5-46.9,12.7l-95.8-95.8c7.3-2.7,14.1-7.1,19.9-12.9c10.5-10.6,16.4-24.7,16.5-39.7c15,0,29-5.8,39.7-16.5
		c10.5-10.5,16.4-24.7,16.5-39.7c15,0,29-5.8,39.7-16.5c10.5-10.5,16.4-24.7,16.5-39.7c15,0,29-5.8,39.7-16.5s16.5-24.7,16.5-39.7
		c0-15-5.8-29.2-16.5-39.7l-4-4L504.9,129.1z M335.2,155c4.3-4.3,10.2-6.8,16.4-6.8c6.2,0,12,2.3,16.4,6.8l59.6,59.6
		c4.3,4.3,6.8,10.2,6.8,16.4c0,6.2-2.4,12-6.8,16.4c-4.3,4.3-10.2,6.8-16.4,6.8c-6.2,0-12-2.3-16.4-6.8l-59.6-59.6
		c-4.3-4.3-6.8-10.2-6.8-16.4C328.5,165.1,330.8,159.3,335.2,155z M279.1,211c4.3-4.3,10.2-6.8,16.4-6.8c6.2,0,12,2.4,16.4,6.8
		l59.6,59.6c4.3,4.3,6.8,10.2,6.8,16.4c0,6.2-2.4,12-6.8,16.4c-4.3,4.3-10.2,6.8-16.4,6.8c-6.2,0-12-2.4-16.4-6.8l-59.6-59.6
		c-4.3-4.3-6.8-10.2-6.8-16.4C272.2,221.2,274.7,215.4,279.1,211z M223,267.1c4.3-4.3,10.2-6.8,16.4-6.8s12,2.4,16.4,6.8l59.6,59.6
		c4.3,4.3,6.8,10.2,6.8,16.4c0,6.2-2.4,12-6.8,16.4c-4.3,4.3-10.2,6.8-16.4,6.8c-6.2,0-12-2.4-16.4-6.8l-25.2-25.2l-9.9-9.9
		L223,299.9c-4.3-4.3-6.8-10.2-6.8-16.4C216.1,277.3,218.5,271.5,223,267.1z M191.3,347.8c9.1-9.1,23.7-9.1,32.8,0l19.9,19.9
		l15.3,15.3c4.3,4.3,6.8,10.2,6.8,16.4c0,6.2-2.4,12-6.8,16.4c-4.3,4.3-10.2,6.8-16.4,6.8c-6.2,0-12-2.4-16.4-6.8l-35.1-35.1
		C182.3,371.5,182.3,356.7,191.3,347.8z M178.2,487.3l36.5-36.5l118.1,118.1l-36.5,36.5L178.2,487.3z M525.8,590.2
		c-4.1-4.1-9.9-5.7-15.5-4.3c-25.1,6.1-51.7,1.4-73.2-12.8l-8.9-6c27.1-2.4,53.5-8.7,78.8-19.2c32.3-13.4,61.2-32.8,86-57.5
		l82.5-82.5c7.1,17.1,10.9,35.5,11.3,54.1L542.1,606.4L525.8,590.2z"/>
	<path class="st0" d="M697.3,603.6c-0.4-1-1-2-1.5-2.9c-0.2-0.5-0.6-0.9-1-1.4c-0.4-0.4-0.7-0.9-1.1-1.3c-0.4-0.4-0.7-0.7-1.2-1.1
		c-0.4-0.4-0.9-0.6-1.4-1c-0.9-0.6-1.9-1.1-2.8-1.5c-1-0.4-2-0.7-3.1-1c-0.5-0.1-1.1-0.3-1.6-0.3c-1.1-0.1-2.2-0.1-3.2,0
		c-0.5,0-1.1,0.1-1.6,0.3c-1,0.3-2.1,0.5-3.1,1c-1,0.4-2,1-2.8,1.5c-0.5,0.2-0.9,0.6-1.4,1c-0.4,0.4-0.9,0.8-1.2,1.1
		c-0.4,0.4-0.7,0.8-1.1,1.3c-0.4,0.4-0.6,0.9-1,1.4c-0.6,0.9-1.1,1.9-1.5,2.9s-0.8,2-1,3.1c-0.1,0.5-0.2,1.1-0.2,1.6
		s-0.1,1.1-0.1,1.6s0,1.1,0.1,1.6c0,0.5,0.1,1.1,0.2,1.6c0.2,1,0.5,2.1,1,3.1c0.4,1,0.9,2,1.5,2.8c0.2,0.5,0.6,0.9,1,1.4
		c0.4,0.4,0.7,0.9,1.1,1.2c0.4,0.4,0.8,0.8,1.2,1.1c0.4,0.4,0.9,0.6,1.4,1c0.9,0.6,1.9,1.1,2.8,1.5c1,0.4,2,0.7,3.1,1
		c0.5,0.1,1.1,0.3,1.6,0.3s1.1,0.1,1.6,0.1s1.1,0,1.6-0.1c0.5,0,1.1-0.1,1.6-0.3c1.1-0.3,2.1-0.5,3.1-1c1-0.4,2-0.9,2.8-1.5
		c0.5-0.3,0.9-0.6,1.4-1c0.4-0.4,0.9-0.7,1.2-1.1c0.4-0.4,0.7-0.8,1.1-1.2c0.4-0.4,0.6-0.9,1-1.4c0.6-0.9,1.1-1.9,1.5-2.8
		c0.4-1,0.7-2,1-3.1c0.1-0.5,0.2-1.1,0.2-1.6s0.1-1.1,0.1-1.6s0-1.1-0.1-1.6c0-0.5-0.1-1.1-0.2-1.6
		C698,605.5,697.6,604.5,697.3,603.6z"/>
	<path class="st0" d="M111.8,135.1c3.2,3.2,7.4,4.8,11.7,4.8c4.2,0,8.4-1.6,11.7-4.8c6.5-6.4,6.5-16.9,0-23.4L57.3,33.8
		c-6.5-6.4-16.9-6.4-23.5,0c-6.6,6.5-6.5,16.9,0,23.5L111.8,135.1z"/>
	<path class="st0" d="M201.9,90.2c9.2,0,16.5-7.4,16.5-16.5V16.6C218.4,7.4,211,0,201.9,0s-16.5,7.4-16.5,16.5v57.1
		C185.3,82.7,192.7,90.2,201.9,90.2z"/>
	<path class="st0" d="M16.5,218.4h57.1c9.2,0,16.5-7.4,16.5-16.5s-7.4-16.5-16.5-16.5H16.5c-9.2,0-16.5,7.4-16.5,16.5
		C0,210.9,7.4,218.4,16.5,218.4z"/>
	<path class="st0" d="M723.7,139.9c4.2,0,8.4-1.6,11.7-4.8l77.9-77.9c6.4-6.4,6.4-16.9,0-23.4c-6.5-6.6-16.9-6.5-23.5,0l-77.9,77.9
		c-6.5,6.4-6.5,16.9,0,23.5C715.1,138.3,719.5,139.9,723.7,139.9z"/>
	<path class="st0" d="M645.3,90.2c9.2,0,16.5-7.4,16.5-16.5V16.6c0-9.2-7.3-16.6-16.5-16.6s-16.5,7.4-16.5,16.5v57.1
		C628.8,82.7,636.1,90.2,645.3,90.2z"/>
	<path class="st0" d="M757,201.9c0,9.2,7.4,16.5,16.5,16.5h57.1c9.2,0,16.5-7.4,16.5-16.5s-7.4-16.5-16.5-16.5h-57.1
		C764.3,185.2,757,192.7,757,201.9z"/>
</g>
</svg>
