<?xml version="1.0" encoding="utf-8"?>
<!-- Generator: Adobe Illustrator 24.2.3, SVG Export Plug-In . SVG Version: 6.00 Build 0)  -->
<svg version="1.1" id="Layer_1" xmlns="http://www.w3.org/2000/svg" xmlns:xlink="http://www.w3.org/1999/xlink" x="0px" y="0px"
	 viewBox="0 0 831.4 802.3" style="enable-background:new 0 0 831.4 802.3;" xml:space="preserve">
<style type="text/css">
	.st0{clip-path:url(#SVGID_2_);}
	.st1{fill:#303030;}
	.st2{fill:#FFFFFF;}
</style>
<g>
	<g>
		<defs>
			<rect id="SVGID_1_" width="826.1" height="802.1"/>
		</defs>
		<clipPath id="SVGID_2_">
			<use xlink:href="#SVGID_1_"  style="overflow:visible;"/>
		</clipPath>
		<g class="st0">
			<path class="st1" d="M639.2,431.7c-16.2,0-29.5,13.3-29.5,29.6s13.3,29.6,29.5,29.6s29.5-13.3,29.5-29.6
				C668.7,445.1,655.4,431.7,639.2,431.7z M639.2,471.2c-5.4,0-9.8-4.4-9.8-9.9c0-5.4,4.4-9.9,9.8-9.9c5.4,0,9.8,4.5,9.8,9.9
				C649,466.8,644.6,471.2,639.2,471.2z"/>
			<path class="st1" d="M560.5,431.7c-16.2,0-29.5,13.3-29.5,29.6s13.3,29.6,29.5,29.6s29.5-13.3,29.5-29.6
				C590,445.1,576.8,431.7,560.5,431.7z M560.5,471.2c-5.4,0-9.8-4.4-9.8-9.9c0-5.4,4.4-9.9,9.8-9.9c5.4,0,9.8,4.5,9.8,9.9
				C570.4,466.8,565.9,471.2,560.5,471.2z"/>
			<path class="st1" d="M511.4,174.9H314.7c-5.4,0-9.8,4.4-9.8,9.9c0,5.4,4.4,9.9,9.8,9.9h196.7c5.4,0,9.8-4.4,9.8-9.9
				C521.2,179.3,516.8,174.9,511.4,174.9z"/>
			<path class="st1" d="M511.4,293.4H314.7c-5.4,0-9.8,4.5-9.8,9.9s4.4,9.9,9.8,9.9h196.7c5.4,0,9.8-4.5,9.8-9.9
				C521.2,297.9,516.8,293.4,511.4,293.4z"/>
			<path class="st1" d="M511.4,658.9H314.7c-5.4,0-9.8,4.4-9.8,9.9s4.4,9.9,9.8,9.9h196.7c5.4,0,9.8-4.4,9.8-9.9
				S516.8,658.9,511.4,658.9z"/>
			<path class="st1" d="M713,278.6c8.4,0,14.8-6.4,14.8-14.8S721.4,249,713,249c-8.4,0-14.7,6.4-14.7,14.8
				C698.2,272.2,704.6,278.6,713,278.6z M713,256.4c3.9,0,7.4,3.5,7.4,7.4c0,4-3.4,7.4-7.4,7.4c-3.9,0-7.4-3.5-7.4-7.4
				S709,256.4,713,256.4z"/>
			<path class="st1" d="M344.2,81.1c8.4,0,14.7-6.4,14.7-14.8s-6.4-14.8-14.7-14.8s-14.7,6.4-14.7,14.8
				C329.4,74.6,335.8,81.1,344.2,81.1z M344.2,58.8c3.9,0,7.4,3.5,7.4,7.4c0,4-3.4,7.4-7.4,7.4c-3.9,0-7.4-3.4-7.4-7.4
				C336.8,62.3,340.2,58.8,344.2,58.8z"/>
			<path class="st1" d="M747.4,90.9c-5.4,0-9.8,4.5-9.8,9.9s4.4,9.9,9.8,9.9c5.4,0,9.8-4.5,9.8-9.9
				C757.2,95.4,752.8,90.9,747.4,90.9z M747.4,105.8c-3,0-4.9-2-4.9-4.9c0-3,2-4.9,4.9-4.9s4.9,2,4.9,4.9
				C752.3,103.3,750.3,105.8,747.4,105.8z"/>
			<path class="st1" d="M462.2,31.7c5.4,0,9.8-4.5,9.8-9.9s-4.4-9.9-9.8-9.9s-9.8,4.5-9.8,9.9S456.8,31.7,462.2,31.7z M462.2,16.8
				c2.9,0,4.9,2,4.9,4.9c0,3-2,4.9-4.9,4.9c-3,0-4.9-2-4.9-4.9S459.2,16.8,462.2,16.8z"/>
			<path class="st1" d="M181.9,184.8c5.4,0,9.8-4.4,9.8-9.9c0-5.4-4.4-9.9-9.8-9.9c-5.4,0-9.8,4.4-9.8,9.9
				C172.1,180.3,176.5,184.8,181.9,184.8z M181.9,170c3,0,4.9,2,4.9,4.9c0,3-2,4.9-4.9,4.9s-4.9-2-4.9-4.9
				C177,171.9,179,170,181.9,170z"/>
			<path class="st1" d="M9.8,728.1c5.4,0,9.8-4.4,9.8-9.9s-4.4-9.9-9.8-9.9S0,712.7,0,718.2S4.4,728.1,9.8,728.1z"/>
			<path class="st1" d="M54.1,708.3H39.3c-5.4,0-9.8,4.5-9.8,9.9s4.4,9.9,9.8,9.9h14.8c5.4,0,9.8-4.5,9.8-9.9
				C63.9,712.8,59.5,708.3,54.1,708.3z"/>
			<path class="st1" d="M786.7,708.3h-14.8c-5.4,0-9.8,4.5-9.8,9.9s4.4,9.9,9.8,9.9h14.8c5.4,0,9.8-4.5,9.8-9.9
				C796.6,712.8,792.1,708.3,786.7,708.3z"/>
			<path class="st1" d="M816.2,728.1c5.4,0,9.8-4.4,9.8-9.9s-4.4-9.9-9.8-9.9c-5.4,0-9.8,4.4-9.8,9.9
				C806.4,723.7,810.8,728.1,816.2,728.1z"/>
			<path class="st1" d="M741,708.3h-18.7c3.4-5.9,5.4-12.8,5.4-19.8V412c0-21.7-17.7-39.5-39.3-39.5h-29.5v-79
				c0-21.7-17.7-39.5-39.3-39.5h-9.8V135.4c0-21.7-17.7-39.5-39.3-39.5H255.7c-21.6,0-39.3,17.8-39.3,39.5v118.5h-9.8
				c-21.6,0-39.3,17.8-39.3,39.5v79h-29.5c-21.6,0-39.3,17.8-39.3,39.5v276.6c0,6.9,2,13.8,5.4,19.8H85.2c-5.4-0.5-10.3,3-11.3,8.4
				c-0.5,5.4,3,10.4,8.4,11.4c1,0,1.5,0,2.5,0h655.9c5.4,0.5,10.3-3,11.3-8.4s-3-10.4-8.4-11.4C743,708.3,742,708.3,741,708.3z
				 M609.7,273.7h9.8c10.8,0,19.7,8.9,19.7,19.8v79h-29.5V273.7z M236,135.4c0-10.9,8.8-19.8,19.7-19.8h314.7
				c10.8,0,19.7,8.9,19.7,19.8v237.1h-354V135.4H236z M186.8,293.4c0-10.9,8.8-19.8,19.7-19.8h9.8v98.8h-29.5V293.4z M228.1,708.3
				h-32.9l30-68.6c2.5-5.4,7.9-8.9,13.8-8.9h21.6L228.1,708.3z M249.8,708.3l32.4-78h266l29,78H249.8z M598.4,708.3l-29.5-78h22.6
				c5.9,0.5,10.8,4,13.3,9.4l26.6,68.6H598.4z M708,688.6c0,10.9-8.8,19.8-19.7,19.8h-35.4l-29.5-76.1c-5.4-12.8-17.7-21.7-32-21.7
				H239c-13.8,0.5-26.1,8.4-32,20.7l-33.4,76.6h-35.9c-10.8,0-19.7-8.9-19.7-19.8V411.5c0-10.9,8.8-19.8,19.7-19.8h550.7
				c10.8,0,19.7,8.9,19.7,19.8v277.1H708z"/>
			<path class="st1" d="M201.6,451.5h-34.4c-5.4,0-9.8,4.4-9.8,9.9c0,5.4,4.4,9.9,9.8,9.9h34.4c5.4,0,9.8-4.4,9.8-9.9
				C211.4,455.9,207,451.5,201.6,451.5z"/>
			<path class="st1" d="M511.4,214.4H314.7c-5.4,0-9.8,4.5-9.8,9.9s4.4,9.9,9.8,9.9h196.7c5.4,0,9.8-4.5,9.8-9.9
				C521.2,218.9,516.8,214.4,511.4,214.4z"/>
			<path class="st1" d="M511.4,253.9H314.7c-5.4,0-9.8,4.4-9.8,9.9c0,5.4,4.4,9.9,9.8,9.9h196.7c5.4,0,9.8-4.4,9.8-9.9
				C521.2,258.4,516.8,253.9,511.4,253.9z"/>
			<path class="st1" d="M101.3,249l7.4-9.9l-4.4-2.5l-4.9,10.9l-4.9-10.9l-4.9,2.5l7.4,9.4L85.7,247v5.4l11.3-1.5l-7.4,9.4l4.4,3
				l4.9-10.9l4.4,10.9l4.9-3l-7.4-9.4l11.8,1.5V247L101.3,249z"/>
			<path class="st1" d="M613.1,26.2l7.4-9.4l-4.4-2.5l-4.9,10.4l-4.9-10.3l-4.4,2.5l6.9,9.4l-11.3-1.5v4.9l11.3-1.5l-7.4,9.4l4.4,3
				l4.9-10.9l4.4,10.4l4.9-3l-7.4-8.9l11.3,1.5v-4.9L613.1,26.2z"/>
			<path class="st1" d="M660.8,175.9v-4.5l-9.8,1.5l6.4-8.4l-3.9-2.5l-3.9,9.4l-3.9-8.9l-3.9,2.5l5.9,7.9l-9.3-1.5v4.4l9.8-1.5
				l-6.4,7.9l3.9,2.5l4.4-9.4l3.9,9.4l3.9-2.5l-6.4-7.9L660.8,175.9z"/>
			<path class="st1" d="M581.2,752.8h-40.8c-5.4,0.5-9.3,5.4-8.8,10.9c0.5,4.9,4.4,8.9,8.8,8.9h40.8c5.4-0.5,9.4-5.4,8.8-10.9
				C589.5,757.2,585.6,753.3,581.2,752.8z"/>
			<path class="st1" d="M286.2,752.8h-40.9c-5.4,0.5-9.4,5.4-8.9,10.9c0.5,4.9,4.4,8.9,8.9,8.9h40.8c5.4-0.5,9.3-5.4,8.8-10.9
				C294.5,757.2,290.6,753.3,286.2,752.8z"/>
			<path class="st2" d="M169.1,207c56.5,0,102.3-46,102.3-102.7S225.6,1.5,169.1,1.5S66.8,47.5,66.8,104.2S112.6,207,169.1,207z"/>
			<path class="st1" d="M511.4,752.8H314.7c-5.4,0-9.8,4.5-9.8,9.9s4.4,9.9,9.8,9.9h78.2v9.9h-38.8c-5.4,0-9.8,4.4-9.8,9.9
				c0,5.4,4.4,9.9,9.8,9.9H477c5.4,0,9.8-4.4,9.8-9.9c0-5.4-4.4-9.9-9.8-9.9h-43.8v-9.9h78.2c5.4,0,9.8-4.5,9.8-9.9
				C521.2,757.2,516.8,752.8,511.4,752.8z"/>
			<path class="st1" d="M272.9,104.3c0-3,0-5.9-0.5-8.9c-2-25.7-13.8-49.9-32.9-67.7C220.3,9.9,195.3,0,169.2,0
				c-26.6,0-51.1,9.9-70.8,27.7c-19.2,17.8-31,42-32.9,67.7c-0.5,3-0.5,5.9-0.5,8.9c0,17.8,4.4,35.6,13.3,51.4
				c8.9,15.8,21.6,29.1,37.4,38.5c16.2,9.4,34.4,14.8,53.1,14.8s36.9-4.9,53.1-14.8c15.7-9.4,28.5-22.7,37.4-38.5
				C268,139.8,272.9,122.5,272.9,104.3z M91.9,91.9c2.9-17.3,11.3-33.1,24.6-45.4c14.3-13.3,32.9-20.2,52.1-20.2s37.9,7.4,52.1,20.2
				c13.3,11.9,21.6,28.2,24.6,45.4H91.9z M104.2,33.6C121.9,17.3,145,7.9,169.1,7.9s47.2,9.4,64.9,25.7c16.7,15.3,27,35.6,30,57.8
				h-9.8c-2.9-19.8-12.3-38-27.5-51.4c-15.7-14.3-36.4-22.2-57.5-22.2s-41.8,7.9-57.5,22.2C97,53.3,87.1,71.6,84.2,91.4h-9.8
				C77.2,69.7,87.5,48.9,104.2,33.6z M73.2,99.8h191.3c0,1.5,0,3,0,4.4c0,15.8-3.9,31.1-11.3,44.9h-66.4c-2.5,0-3.9,2-3.9,4
				c0,2.5,2,4,3.9,4h38.3c-6.4,6.4-13.3,12.3-21.6,16.3c-10.8,5.4-23.1,8.4-35.4,8.4s-24.6-3-35.4-8.4c-7.9-4-15.2-9.9-21.6-16.3
				h38.3c2.5,0,3.9-2,3.9-4c0-2.5-2-4-3.9-4H83c-7.4-13.8-11.3-29.6-11.3-44.9C73.2,102.8,73.2,101.3,73.2,99.8z M217.8,186.8
				c-14.7,8.9-31.5,13.3-48.7,13.3s-34.4-4.4-48.7-13.3c-12.3-7.4-22.6-17.3-30.5-29.1h12.4c7.9,9.9,17.7,17.8,28.5,23.7
				c12.3,6.4,25.6,9.4,38.8,9.4c13.8,0,27-3,38.8-9.4c10.8-5.4,20.7-13.8,28.5-23.7h12.4C240.9,169.5,230.1,179.8,217.8,186.8z"/>
			<path class="st1" d="M166.7,150.2c-0.5,0.5-0.5,0.5-0.5,0.5s0,0-0.5,0.5c0,0,0,0,0,0.5l-0.5,0.5c0,0.5,0,0.5,0,1v0.5v0.5v0.5v0.5
				c0,0.5,0,0.5,0,1s0,0.5,0.5,0.5c0,0,0,0,0,0.5c0,0,0,0,0.5,0.5c0,0,0,0,0.5,0.5c0,0,0,0,0.5,0l0.5,0.5c0,0,0.5,0,1,0h0.5h0.5h0.5
				h0.5c0.5,0,0.5,0,1,0c0,0,0.5,0,0.5-0.5c0,0,0,0,0.5,0c0,0,0,0,0.5-0.5c0,0,0,0,0.5-0.5c0,0,0,0,0-0.5l0.5-0.5c0,0,0-0.5,0-1
				v-0.5v-0.5v-0.5v-0.5c0-0.5,0-0.5,0-1c0,0,0-0.5-0.5-0.5c0,0,0,0,0-0.5c0,0,0,0-0.5-0.5c0,0,0,0-0.5-0.5c0,0,0,0-0.5,0l-0.5-0.5
				c-0.5,0-0.5,0-1,0h-0.5c-0.5,0-0.5,0-1,0h-0.5c-0.5,0-0.5,0-1,0S167.2,150.2,166.7,150.2z"/>
			<path class="st1" d="M146.5,138.4c2,1,4.4-0.5,5.4-2.5l1-2.5h6.4l1,2.5c0.5,1.5,2,2.5,3.9,2.5c0.5,0,1,0,1.5-0.5
				c2-1,2.9-3,2.5-5.4l-7.4-19.8c-0.5-1.5-2.5-3-3.9-3c-2,0-3.4,1-3.9,3l-7.4,19.8C143.6,135.4,144.6,137.9,146.5,138.4z
				 M156.8,125.5h-2l1-2.5L156.8,125.5z"/>
			<path class="st1" d="M176,138.8c0.5,0,0.5,0,2.9,0c1,0,2.5,0,4.9,0c2.5,0,3.9-2,3.9-4c0-2.5-2-4-3.9-4c-1,0-2,0-3,0v-16.3
				c0-2.5-2-4-3.9-4c-2.5,0-3.9,2-3.9,4v20.2C172.6,136.9,174,138.4,176,138.8z"/>
			<path class="st1" d="M198.6,138.8c2.5,0,3.9-2,3.9-4v-20.2c0-2.5-2-4-3.9-4c-2.5,0-3.9,2-3.9,4v20.2
				C194.7,136.9,196.7,138.8,198.6,138.8z"/>
			<path class="st1" d="M237,125.5v8.9c0,2.5,2,4,3.9,4c2.5,0,3.9-2,3.9-4v-8.9l5.9-8.9c1-2,0.5-4.5-1-5.4c-2-1-4.4-0.5-5.4,1
				l-3.4,4.9l-2.9-4.4c-1-2-3.9-2.5-5.4-1c-2,1-2.5,4-1,5.4L237,125.5z"/>
			<path class="st1" d="M124.4,137.4c2,1,3.9,1.5,5.9,1.5s3.4-0.5,4.9-1c3.9-2,5.9-5.4,5.9-9.4v-13.8c0-2.5-2-4-3.9-4
				c-2,0-3.9,2-3.9,4v13.8c0,0.5,0,1-1.5,2c-0.5,0-1,0.5-1.5,0.5s-1,0-1.5-0.5c-1.5-1-1.5-1.5-1.5-2v-13.8c0-2.5-2-4-3.9-4
				s-3.9,2-3.9,4v13.8C119.5,131.9,120.9,134.9,124.4,137.4z"/>
			<path class="st1" d="M213.4,118.6h1.5v16.3c0,2.5,2,4,3.9,4c2.5,0,3.9-2,3.9-4v-16.3h1.5c2.5,0,3.9-2,3.9-4s-2-4-3.9-4h-11.3
				c-2.5,0-3.9,2-3.9,4S210.9,118.6,213.4,118.6z"/>
			<path class="st1" d="M100.8,138.8c2.5,0,4.9-0.5,6.9-2l0.5,0.5c1,1,2,1,2.9,1c1,0,2-0.5,3-1c1.5-1.5,1.5-4,0-5.9h-1
				c1-2,1.5-4.4,1.5-6.4c0-7.9-6.4-14.3-14.3-14.3S86,117.1,86,125C86,132.9,92.9,138.8,100.8,138.8z M100.8,118.6
				c3.4,0,5.9,2.5,5.9,5.9c-1.5-1-3.9-1-4.9,0.5c-1.5,1.5-1.5,4-0.5,5.4h-0.5c-3.4,0-5.9-2.5-5.9-5.9S97.3,118.6,100.8,118.6z"/>
			<path class="st1" d="M185.8,48l-8.8-2l-4.9-7.4c-1-1-2-2-3.4-2c-1.5,0-2.5,0.5-3.4,2l-4.9,7.4l-7.9,2c-1.5,0.5-2.5,1.5-2.9,2.5
				c-0.5,1.5,0,3,0.5,4l5.4,6.9l-0.5,8.9c0,1.5,0.5,2.5,1.5,3.5c0.5,0.5,1.5,1,2.5,1c0.5,0,1,0,1.5-0.5l8.4-3l8.4,3
				c1.5,0.5,2.9,0.5,3.9-0.5s2-2,1.5-3.5l-0.5-8.9l5.1-7c1-1,1-2.5,0.5-4C187.8,49.4,186.8,48.5,185.8,48z M175,57.3c-0.5,1-1,2-1,3
				v4l-3.9-1.5c-0.5,0-1-0.5-1.5-0.5s-1,0-1.5,0.5l-3.4,1.5v-4c0-1-0.5-2-1-3l-2.5-3l3.9-1c1-0.5,2-1,2.5-1.5l2.5-3.5l2.5,3.5
				c0.5,1,1.5,1.5,2.5,1.5l3.9,1L175,57.3z"/>
			<path class="st1" d="M216.3,56.4l-3.4-4.9c-1-1-2-2-3.4-2c-1.5,0-2.5,0.5-3.4,2l-3.4,4.9l-5.9,1.5c-1.5,0.5-2.5,1.5-2.9,2.5
				c-0.5,1.5,0,3,0.5,4l3.9,4.9l-0.5,5.9c0,1.5,0.5,2.5,1.5,3.5s2.5,1,3.9,0.5l5.9-2l5.9,2c0.5,0,1,0.5,1.5,0.5c1,0,1.5-0.5,2.5-1
				c1-1,2-2,1.5-3.5l0.5-5.9l3.9-4.9c1-1,1-2.5,0.5-4s-1.5-2.5-3-2.5L216.3,56.4z M213.4,65.2c-0.5,1-1,2-1,3v1.5l-1.5-0.5
				c-1-0.5-2-0.5-3,0h-1v-1.5c0-1-0.5-2-1-3l-1-0.5l1.5-0.5c1-0.5,2-1,2.5-1.5l1-1l1,1c0.5,1,1.5,1.5,2.5,1.5l1.5,0.5L213.4,65.2z"
				/>
			<path class="st1" d="M141.1,57.8l-5.9-1.5l-3.4-4.9c-1-1-2-2-3.4-2c-1.5,0-2.5,0.5-3.4,2l-3.4,4.9l-5.9,1.5
				c-1,0.5-2.5,1.5-2.5,2.5c-0.5,1.5,0,3,0.5,4l3.9,4.9l-0.5,5.9c0,1.5,0.5,2.5,1.5,3.5c0.5,0.5,1.5,1,2.5,1c0.5,0,1,0,1.5-0.5
				l5.9-2l5.9,2c1.5,0.5,2.9,0.5,3.9-0.5s2-2,1.5-3.5l-0.5-5.9l3.9-4.9c1-1,1-2.5,0.5-4C143.1,58.8,142.1,58.3,141.1,57.8z
				 M131.8,65.2c-0.5,1-1,2-1,3v1.5l-1.5-0.5c-0.5,0-1-0.5-1.5-0.5s-1,0-1.5,0.5h-1v-1.5c0-1-0.5-2-1-3l-0.5-0.5l1.5-0.5
				c1-0.5,2-1,2.5-1.5l1-1l1,1c0.5,1,1.5,1.5,2.5,1.5l0.5,0.5L131.8,65.2z"/>
		</g>
	</g>
</g>
</svg>
