<?xml version="1.0" encoding="utf-8"?>
<!-- Generator: Adobe Illustrator 24.2.3, SVG Export Plug-In . SVG Version: 6.00 Build 0)  -->
<svg version="1.1" id="Layer_1" xmlns="http://www.w3.org/2000/svg" xmlns:xlink="http://www.w3.org/1999/xlink" x="0px" y="0px"
	 viewBox="0 0 1399.4 1163" style="enable-background:new 0 0 1399.4 1163;" xml:space="preserve">
<style type="text/css">
	.st0{clip-path:url(#SVGID_2_);}
	.st1{fill:#263238;}
	.st2{fill:#EBEBEB;}
	.st3{fill:#455A64;}
	.st4{fill:#FFFFFF;}
	.st5{fill:#04747F;}
	.st6{fill:#DBDBDB;}
	.st7{fill:#C7C7C7;}
	.st8{fill:#DC6A57;}
	.st9{fill:#37474F;}
	.st10{fill:#AD6359;}
	.st11{opacity:0.3;fill:#263238;enable-background:new    ;}
	.st12{fill:#A6A6A6;}
	.st13{fill:#DD6A57;}
	.st14{fill:none;stroke:#C7C7C7;stroke-width:0.5;stroke-miterlimit:10.0002;}
	.st15{fill:#FF9CBD;}
	.st16{fill:#EB9481;}
	.st17{clip-path:url(#SVGID_4_);}
	.st18{fill:#FAFAFA;}
	.st19{fill:#F0F0F0;}
	.st20{fill:#E0E0E0;}
	.st21{fill:#E6E6E6;}
	.st22{fill:#558688;}
	.st23{opacity:0.3;}
	.st24{opacity:0.2;enable-background:new    ;}
	.st25{fill:#F5F5F5;}
	.st26{opacity:0.15;enable-background:new    ;}
	.st27{opacity:0.6;enable-background:new    ;}
	.st28{opacity:0.35;enable-background:new    ;}
	.st29{opacity:0.25;enable-background:new    ;}
	.st30{opacity:0.45;enable-background:new    ;}
	.st31{fill:#FFA8A7;}
	.st32{opacity:0.4;fill:#FFFFFF;enable-background:new    ;}
	.st33{opacity:0.6;fill:#FFFFFF;enable-background:new    ;}
	.st34{opacity:0.8;fill:#FFFFFF;enable-background:new    ;}
	.st35{opacity:0.2;fill:#FFFFFF;enable-background:new    ;}
	.st36{opacity:0.2;}
	.st37{opacity:0.3;enable-background:new    ;}
	.st38{opacity:0.25;fill:#FFFFFF;enable-background:new    ;}
	.st39{opacity:0.45;fill:#FFFFFF;enable-background:new    ;}
	.st40{opacity:0.8;}
	.st41{opacity:0.6;}
	.st42{opacity:0.2;fill:#558688;enable-background:new    ;}
	.st43{opacity:0.4;}
	.st44{opacity:0.5;enable-background:new    ;}
	.st45{opacity:0.4;enable-background:new    ;}
	.st46{opacity:0.15;fill:#FFFFFF;enable-background:new    ;}
	.st47{opacity:0.7;fill:#FFFFFF;enable-background:new    ;}
	.st48{opacity:0.55;fill:#FFFFFF;enable-background:new    ;}
	.st49{opacity:0.35;fill:#FFFFFF;enable-background:new    ;}
	.st50{opacity:0.1;fill:#558688;enable-background:new    ;}
	.st51{fill:#FFBDA7;}
	.st52{fill:#B16668;}
	.st53{fill:#F0997A;}
	.st54{fill:#F28F8F;}
	.st55{opacity:0.1;enable-background:new    ;}
	.st56{opacity:0.3;fill:#FFFFFF;enable-background:new    ;}
	.st57{clip-path:url(#SVGID_6_);}
	.st58{fill:#D8D8D8;}
	.st59{fill:#2F8688;}
	.st60{fill:none;stroke:#E0E0E0;stroke-linecap:round;stroke-linejoin:round;stroke-miterlimit:10;}
	.st61{opacity:0.75;fill:#FFFFFF;enable-background:new    ;}
	.st62{opacity:0.25;}
	.st63{opacity:0.5;fill:#F5F5F5;enable-background:new    ;}
	.st64{opacity:0.1;fill:#FFFFFF;enable-background:new    ;}
	.st65{opacity:0.1;}
	.st66{clip-path:url(#SVGID_8_);}
	.st67{opacity:0.3;fill:#AEAEC6;enable-background:new    ;}
	.st68{fill:#E0E0EB;}
	.st69{fill:#558486;}
	.st70{fill:#6B8C8C;}
	.st71{fill:#406B6B;}
	.st72{fill:#C8C8DA;}
	.st73{fill:#46468A;}
	.st74{fill:#5757AA;}
	.st75{fill:#6969BF;}
	.st76{fill:#3B3B44;}
	.st77{fill:#2A2A30;}
	.st78{fill:#E79E8C;}
	.st79{fill:#EFC3B1;}
	.st80{opacity:0.5;fill:#C8C8DA;enable-background:new    ;}
	.st81{fill:#B0B0C3;}
	.st82{fill:#79C49C;}
	.st83{fill:#6AAC85;}
	.st84{fill:#8DDBB0;}
	.st85{fill:#8181D8;}
	.st86{fill:#505059;}
	.st87{fill:#AEAEC6;}
	.st88{fill:#89D6AC;}
	.st89{fill:#8DD9B0;}
	.st90{fill:#E1E1E1;}
	.st91{fill:#ECECEC;}
	.st92{fill:#1A2E35;}
	.st93{fill:#318486;}
	.st94{fill:#375A64;}
	.st95{fill:#FFC19D;}
	.st96{opacity:0.7;}
	.st97{fill:#FF9C6A;}
	.st98{fill:#7C4235;}
</style>
<g>
	<defs>
		<rect id="SVGID_1_" width="1399.4" height="1163"/>
	</defs>
	<clipPath id="SVGID_2_">
		<use xlink:href="#SVGID_1_"  style="overflow:visible;"/>
	</clipPath>
	<g class="st0">
		<path class="st1" d="M22.3,952.8l172.1-0.6l172.1-0.3l344.2-0.6l344.5,0.6l172.1,0.3l172.1,0.6l-172.1,0.9l-172.1,0.3l-344.5,0.3
			l-344.2-0.3l-172.1-0.3L22.3,952.8z"/>
		<path class="st2" d="M104.1,1163c57.5,0,104.1-12.2,104.1-27.2s-46.6-27.2-104.1-27.2S0,1120.8,0,1135.8S46.6,1163,104.1,1163z"/>
		<path class="st2" d="M1175.1,1023c119.9,0,217.1-17.1,217.1-38.2c0-21.1-97.2-38.2-217.1-38.2c-119.9,0-217.1,17.1-217.1,38.2
			C958,1005.9,1055.2,1023,1175.1,1023z"/>
		<path class="st2" d="M605,1118.8c290.2,0,525.4-26.9,525.4-60c0-33.2-235.2-60-525.4-60c-290.2,0-525.4,26.9-525.4,60
			C79.6,1091.9,314.8,1118.8,605,1118.8z"/>
		<path class="st2" d="M1025,20.5H396.1V438H1025V20.5z"/>
		<path class="st3" d="M1040.5,0H381.3v20.5h659.1V0z"/>
		<path class="st4" d="M946.4,107.1h-83.7v99.6h83.7V107.1z"/>
		<path class="st3" d="M907.7,113.8c0,1.6-1.3,3.2-3.1,3.2c-1.6,0-3.1-1.3-3.1-3.2c0-1.6,1.3-3.2,3.1-3.2
			C906.1,110.9,907.7,112.2,907.7,113.8z"/>
		<path class="st2" d="M878.7,127c8.5-0.6,17-0.6,25.5-0.6c8.5,0,17,0,25.5,0.6c-8.5,0.6-17,0.6-25.5,0.6
			C895.7,127.7,887.2,127.7,878.7,127z"/>
		<path class="st2" d="M878.7,134.9c4.7-0.6,9.1-0.6,13.8-0.6c4.7,0,9.1,0.3,13.8,0.6c-4.7,0.6-9.1,0.6-13.8,0.6
			C887.9,135.6,883.5,135.6,878.7,134.9z"/>
		<path class="st2" d="M878.7,142.9c6-0.6,11.6-0.6,17.6-0.6c6,0,11.6,0.3,17.6,0.6c-6,0.6-11.6,0.6-17.6,0.6
			C890.4,143.5,884.7,143.5,878.7,142.9z"/>
		<path class="st2" d="M878.7,150.7c7.2-0.6,14.8-0.6,22-0.6c7.2,0,14.8,0.3,22,0.6c-7.2,0.6-14.8,0.6-22,0.6
			C893.5,151.4,886,151.4,878.7,150.7z"/>
		<path class="st2" d="M878.7,158.6c6.3-0.6,12.9-0.6,19.2-0.6c6.3,0,12.9,0.3,19.2,0.6c-6.3,0.6-12.9,0.6-19.2,0.6
			C891.6,159.3,885,159.3,878.7,158.6z"/>
		<path class="st2" d="M878.7,166.2c8.2-0.6,16.4-0.6,24.5-0.6c8.2,0,16.4,0,24.5,0.6c-8.2,0.6-16.4,0.6-24.5,0.6
			C895.1,167.2,886.9,167.2,878.7,166.2z"/>
		<path class="st2" d="M878.7,174.1c5.3-0.6,10.7-0.6,15.7-0.6c5.3,0,10.7,0.3,15.7,0.6c-5.3,0.6-10.7,0.6-15.7,0.6
			C889.1,175.1,884.1,174.8,878.7,174.1z"/>
		<path class="st2" d="M878.7,182c8.5-0.6,17-0.6,25.5-0.6c8.5,0,17,0,25.5,0.6c-8.5,0.6-17,0.6-25.5,0.6
			C895.7,182.7,887.2,182.7,878.7,182z"/>
		<path class="st2" d="M878.7,189.9c8.5-0.6,17-0.6,25.5-0.6c8.5,0,17,0,25.5,0.6c-8.5,0.6-17,0.6-25.5,0.6
			C895.7,190.6,887.2,190.6,878.7,189.9z"/>
		<path class="st4" d="M988.9,243.7h-98.8v117.6h98.8V243.7z"/>
		<path class="st3" d="M942.6,259.8c0,1.6-1.3,3.2-3.1,3.2c-1.6,0-3.2-1.3-3.2-3.2c0-1.6,1.3-3.2,3.2-3.2
			C941.3,256.6,942.6,257.9,942.6,259.8z"/>
		<path class="st2" d="M903.9,273.1c3.8-0.6,7.2-0.6,11-0.6c3.8,0,7.2,0.3,11,0.6c-3.8,0.6-7.2,0.6-11,0.6
			C911.1,274,907.7,273.7,903.9,273.1z"/>
		<path class="st2" d="M903.9,281.9c4.7-0.6,9.4-0.6,14.2-0.6c4.7,0,9.4,0.3,14.2,0.6c-4.7,0.6-9.4,0.6-14.2,0.6
			C913.3,282.9,908.6,282.5,903.9,281.9z"/>
		<path class="st2" d="M903.9,290.8c4.4-0.6,8.8-0.6,13.2-0.6s8.8,0.3,13.2,0.6c-4.4,0.6-8.8,0.6-13.2,0.6
			C912.7,291.7,908.3,291.4,903.9,290.8z"/>
		<path class="st2" d="M903.9,299.6c4.4-0.6,8.8-0.6,13.2-0.6s8.8,0.3,13.2,0.6c-4.4,0.6-8.8,0.6-13.2,0.6
			C912.7,300.5,908.3,300.2,903.9,299.6z"/>
		<path class="st2" d="M903.9,308.8c3.8-0.6,7.6-0.6,11.3-0.6c3.8,0,7.5,0.3,11.3,0.6c-3.8,0.6-7.6,0.6-11.3,0.6
			C911.5,309.4,907.7,309.1,903.9,308.8z"/>
		<path class="st2" d="M903.9,317.6c4.7-0.6,9.8-0.6,14.5-0.6c4.7,0,9.8,0.3,14.5,0.6c-4.7,0.6-9.8,0.6-14.5,0.6
			C913.7,318.2,908.9,318.2,903.9,317.6z"/>
		<path class="st2" d="M903.9,326.5c4.1-0.6,8.2-0.6,12-0.6c4.1,0,8.2,0.3,12,0.6c-4.1,0.6-8.2,0.6-12,0.6S908,327.1,903.9,326.5z"
			/>
		<path class="st2" d="M903.9,335.3c5-0.6,10.1-0.6,15.1-0.6c5,0,10.1,0.3,15.1,0.6c-5,0.6-10.1,0.6-15.1,0.6
			C914,335.9,908.9,335.9,903.9,335.3z"/>
		<path class="st2" d="M903.9,344.2c5-0.6,10.1-0.6,15.1-0.6c5,0,10.1,0.3,15.1,0.6c-5,0.6-10.1,0.6-15.1,0.6
			C914,344.8,908.9,344.8,903.9,344.2z"/>
		<path class="st2" d="M947.3,273.1c4.7-0.6,9.4-0.6,14.5-0.6c4.7,0,9.4,0.3,14.5,0.6c-4.7,0.6-9.4,0.6-14.5,0.6
			C956.8,274,952,273.7,947.3,273.1z"/>
		<path class="st2" d="M947.3,281.9c3.1-0.6,6.3-0.6,9.4-0.6c3.1,0,6.3,0.3,9.4,0.6c-3.1,0.6-6.3,0.6-9.4,0.6
			C953.6,282.9,950.5,282.5,947.3,281.9z"/>
		<path class="st2" d="M947.3,290.8c4.4-0.6,9.1-0.6,13.5-0.6s9.1,0.3,13.5,0.6c-4.4,0.6-9.1,0.6-13.5,0.6
			C956.1,291.7,951.7,291.4,947.3,290.8z"/>
		<path class="st2" d="M947.3,299.6c4.4-0.6,8.8-0.6,13.2-0.6s8.8,0.3,13.2,0.6c-4.4,0.6-8.8,0.6-13.2,0.6
			C955.8,300.5,951.4,300.2,947.3,299.6z"/>
		<path class="st2" d="M947.3,308.8c4.7-0.6,9.4-0.6,14.5-0.6c4.7,0,9.4,0.3,14.5,0.6c-4.7,0.6-9.4,0.6-14.5,0.6
			C956.8,309.4,952,309.1,947.3,308.8z"/>
		<path class="st2" d="M947.3,317.6c3.8-0.6,7.6-0.6,11.3-0.6c3.8,0,7.5,0.3,11.3,0.6c-3.8,0.6-7.6,0.6-11.3,0.6
			C954.9,318.2,951.1,318.2,947.3,317.6z"/>
		<path class="st2" d="M947.3,326.5c4.4-0.6,9.1-0.6,13.5-0.6s9.1,0.3,13.5,0.6c-4.4,0.6-9.1,0.6-13.5,0.6
			C956.1,327.1,951.7,327.1,947.3,326.5z"/>
		<path class="st2" d="M947.3,335.3c3.5-0.6,6.9-0.6,10.4-0.6c3.5,0,6.9,0.3,10.4,0.6c-3.5,0.6-6.9,0.6-10.4,0.6
			C954.2,335.9,950.8,335.9,947.3,335.3z"/>
		<path class="st2" d="M947.3,344.2c3.5-0.6,6.6-0.6,10.1-0.6c3.5,0,6.6,0.3,10.1,0.6c-3.5,0.6-6.6,0.6-10.1,0.6
			C953.9,344.8,950.5,344.8,947.3,344.2z"/>
		<path class="st5" d="M989.2,80h-50.3v50.6h50.3V80z"/>
		<path class="st3" d="M966.8,85c0,1.6-1.3,3.2-3.1,3.2c-1.6,0-3.2-1.3-3.2-3.2c0-1.6,1.3-3.2,3.2-3.2
			C965.6,81.9,966.8,83.1,966.8,85z"/>
		<path class="st3" d="M574.8,328.4c60.5,0,109.5-49.2,109.5-110c0-60.7-49-110-109.5-110c-60.5,0-109.5,49.2-109.5,110
			C465.3,279.1,514.3,328.4,574.8,328.4z"/>
		<path class="st6" d="M574.8,218.4l-39,103c-42.5-16.1-70.5-57.2-70.5-103c0-60.4,49.4-110,109.5-110c60.1,0,109.5,49.6,109.5,110
			H574.8z"/>
		<path class="st6" d="M574.8,218.4l88.1,65.7c-20.8,28.1-53.5,44.6-88.1,44.6c-60.1,0-109.5-49.6-109.5-110
			c0-60.4,49.4-110,109.5-110c60.1,0,109.5,49.6,109.5,110H574.8V218.4z"/>
		<path class="st5" d="M574.8,218.4l-97.2,50.6c-8.2-15.8-12.3-33.2-12.3-50.6c0-60.4,49.4-110,109.5-110
			c60.1,0,109.5,49.6,109.5,110H574.8z"/>
		<path class="st7" d="M619.2,170.3l-1.6-1.9l52.5-52.8h66.7v2.5h-65.8L619.2,170.3z"/>
		<path class="st7" d="M736.8,235.1H634.6v2.5h102.2V235.1z"/>
		<path class="st7" d="M736.8,351.4h-69.2l-0.6-0.6l-49.4-61l1.9-1.6l49.1,60.7h68.3V351.4z"/>
		<path class="st7" d="M736.8,122c2.8,0,5-2.3,5-5.1s-2.3-5.1-5-5.1c-2.8,0-5,2.3-5,5.1S734.1,122,736.8,122z"/>
		<path class="st7" d="M736.8,241.5c2.8,0,5-2.3,5-5.1s-2.3-5.1-5-5.1c-2.8,0-5,2.3-5,5.1S734.1,241.5,736.8,241.5z"/>
		<path class="st7" d="M741.9,350.2c0,2.8-2.2,5.1-5,5.1c-2.8,0-5-2.2-5-5.1c0-2.8,2.2-5.1,5-5.1
			C739.7,345.1,741.9,347.3,741.9,350.2z"/>
		<path class="st7" d="M801.7,115.7H756v2.5h45.6V115.7z"/>
		<path class="st7" d="M819.9,123.3H756v2.5h63.9V123.3z"/>
		<path class="st7" d="M810.8,130.8H756v2.5h54.7V130.8z"/>
		<path class="st7" d="M825.9,138.4H756v2.5h69.9V138.4z"/>
		<path class="st7" d="M816.5,146H756v2.5h60.4V146z"/>
		<path class="st7" d="M808,153.9H756v2.5H808V153.9z"/>
		<path class="st7" d="M819,235.1H756v2.5H819V235.1z"/>
		<path class="st7" d="M798.5,242.7H756v2.5h42.5V242.7z"/>
		<path class="st7" d="M813.9,250.6H756v2.5h57.9V250.6z"/>
		<path class="st7" d="M819,258.2H756v2.5H819V258.2z"/>
		<path class="st7" d="M825.9,265.8H756v2.5h69.9V265.8z"/>
		<path class="st7" d="M808,273.4H756v2.5H808V273.4z"/>
		<path class="st7" d="M808.9,348.9H756v2.5h52.9V348.9z"/>
		<path class="st7" d="M825.9,356.5H756v2.5h69.9V356.5z"/>
		<path class="st7" d="M800.1,364.1h-44v2.5h44V364.1z"/>
		<path class="st7" d="M825.9,371.7H756v2.5h69.9V371.7z"/>
		<path class="st7" d="M816.5,379.2H756v2.5h60.4V379.2z"/>
		<path class="st7" d="M793.2,386.8H756v2.5h37.1V386.8z"/>
		<path class="st6" d="M1025,20.5H396.1v26.5H1025V20.5z"/>
		<path class="st8" d="M1036.4,977.8c5.3,1.6,157.6-4.4,163.3-8.2c2.2-1.6,2.5-23.7,2.2-50.9c0-0.3,0-0.6,0-1c0-5.7,0-11.4-0.3-17.1
			c0-1,0-1.6,0-2.5c-0.9-38.9-2.5-79.3-2.5-79.3l-96.3,3.8l-0.3,78.7l0.3,3.2l0.9,16.1v1.6c0,0-57.3,28.4-62.9,33.5
			C1035.1,960.7,1031,976.2,1036.4,977.8z"/>
		<path class="st3" d="M1036.4,977.8c5.3,1.6,157.6-4.4,163.3-8.2c2.2-1.6,2.5-23.7,2.2-50.9c0-0.3,0-0.6,0-1c0-5.7,0-11.4-0.3-17.1
			c0-1,0-1.6,0-2.5l-99.1,2.8l0.3,3.2l0.9,16.1v1.6c0,0-57.3,28.4-62.9,33.5C1035.1,960.7,1031,976.2,1036.4,977.8z"/>
		<path class="st9" d="M1036.4,977.8c2.8,0.9,42.5-0.3,82.4-2.2c39.3-1.9,78-4.1,80.9-6.3c2.2-1.6,2.5-22.8,2.2-49
			c0-0.6,0-1.3,0-1.9v-0.9l-98.2,2.8v1.6c0,0-57.3,28.4-62.9,33.5C1035.1,960.7,1031,976.2,1036.4,977.8z"/>
		<path class="st1" d="M1037.9,971.8c25.5-1.6,129.3-5.7,154.8-5.4c0.3,0,0.3,0,0,0.3c-25.5,2.2-129,5.7-154.8,5.7
			C1037.3,972.4,1037.3,971.8,1037.9,971.8z"/>
		<path class="st1" d="M1093,921.5c10.1-2.2,22.3-1.3,30.5,5.7c0.3,0.3,0,0.6-0.3,0.6c-10.1-2.8-19.5-4.4-29.9-5.1
			C1092.4,922.5,1092.1,921.5,1093,921.5z"/>
		<path class="st1" d="M1085.7,926c10.1-2.2,22.3-1.3,30.5,5.7c0.3,0.3,0,0.6-0.3,0.6c-10.1-2.8-19.5-4.4-29.9-5.1
			C1085.1,927.2,1085.1,926.3,1085.7,926z"/>
		<path class="st1" d="M1078.8,930.7c10.1-2.2,22.3-1.3,30.5,5.7c0.3,0.3,0,0.6-0.3,0.6c-10.1-2.8-19.5-4.4-29.9-5.1
			C1077.9,932,1077.9,931,1078.8,930.7z"/>
		<path class="st1" d="M1083.9,914c7.2,5.4,16.7,7.3,25.2,10.1c0.9,0.3,1.6-0.6,1.6-1.3c0.3,0,0.3-0.3,0.3-0.3
			c-3.1-8.2-9.4-17.1-16.4-22.8c-4.4-3.5-12-5.7-15.7,0C1075.4,905.1,1079.8,910.8,1083.9,914z M1081,906.1
			c-2.2-11.1,9.8-5.7,12.9-3.2c1.9,1.6,3.8,3.8,5.7,5.7c3.8,4.1,6.6,8.5,9.8,13c-4.1-1.6-8.2-2.8-12.3-4.4
			C1092.4,915.5,1082.3,912.1,1081,906.1z"/>
		<path class="st1" d="M1144,905.4c-2.8-6.3-10.4-5.4-15.4-2.8c-7.9,4.1-15.7,11.7-20.1,19.3c0,0.3,0,0.3,0,0.3
			c0,0.6,0.3,1.6,1.3,1.6c8.8-1.3,18.3-1.3,26.4-5.4C1141.4,916.5,1146.5,911.4,1144,905.4z M1122.9,919.3
			c-4.4,0.6-8.8,1.3-12.9,1.9c4.1-3.8,7.9-7.6,12-11.1c2.2-1.6,4.1-3.2,6.6-4.4c3.5-1.9,16.4-5.1,12.3,5.4
			C1138.6,917.1,1128.2,918.7,1122.9,919.3z"/>
		<path class="st1" d="M1118.8,975.9c39.3-1.9,78-4.1,80.9-6.3c2.2-1.6,2.5-22.8,2.2-49C1184.9,931.3,1144.6,958.2,1118.8,975.9z"/>
		<path class="st3" d="M1232,403.9c0,0-23,258.5-26.7,278.4c-0.9,4.4-1.3,29.1-1.9,60.4c-0.9,68.6-0.3,173.5-0.3,173.5h-107.3
			c0,0,3.2-195.6,7.9-235.1c4.7-39.5,35.2-277.2,35.2-277.2H1232z"/>
		<path class="st1" d="M1100.8,897.2c16.7-0.3,12-0.6,28.6-0.6c8.2,0,62-0.6,69.8,0.6c0.3,0,0.3,0.3,0,0.3c-7.6,1.3-61.7,1-69.8,0.6
			c-16.7-0.3-12-0.3-28.6-0.6C1100.5,897.8,1100.5,897.2,1100.8,897.2z"/>
		<path class="st1" d="M1183,793.6c0-15.8,0.3-31.3,0.3-47.1c0-15.2,0-30.3,0.9-45.5c1.6-30.7,7.6-60.7,12-91
			c4.4-30.3,8.2-60.7,11.3-91.3c3.8-34.1,6.9-68.3,10.4-102.7c0-0.3,0.3-0.3,0.3,0c-5,61-10.7,122.3-19.2,183
			c-2.2,15.2-4.4,30-6.9,45.2c-2.5,15.2-5,30.3-6.3,45.8c-1.3,15.2-1.3,30.3-1.6,45.2c-0.3,15.5-0.3,31.3-0.3,46.8
			c-0.3,34.8-0.6,69.5-0.9,104.3c0,0.6-0.9,0.6-0.9,0C1182.3,855.5,1182.6,824.5,1183,793.6z"/>
		<path class="st1" d="M1254.7,403.9c0,0-45.6,258.5-49.4,278.4c-0.9,4.4-1.3,29.1-1.9,60.4l-51.3-338.8H1254.7z"/>
		<path class="st8" d="M1152.8,986.7c5.3,1.6,157.6-4.4,163.3-8.2c2.2-1.6,2.5-23.7,2.2-50.9c0-0.3,0-0.6,0-1c0-5.7,0-11.4-0.3-17.1
			c0-1,0-1.6,0-2.5c-0.9-38.9-7.6-79.3-7.6-79.3l-96.6,3.8l5,78.7l0.3,3.2l0.9,16.1v1.6c0,0-57.3,28.4-62.9,33.5
			C1151.5,969.6,1147.4,985.1,1152.8,986.7z"/>
		<path class="st3" d="M1152.8,986.7c5.3,1.6,157.6-4.4,163.3-8.2c2.2-1.6,2.5-23.7,2.2-50.9c0-0.3,0-0.6,0-1c0-5.7,0-11.4-0.3-17.1
			c0-1,0-1.6,0-2.5l-99.1,2.8l0.3,3.2l0.9,16.1v1.6c0,0-57.3,28.4-62.9,33.5C1151.5,969.6,1147.4,985.1,1152.8,986.7z"/>
		<path class="st9" d="M1152.8,986.7c5.3,1.6,157.6-4.4,163.3-8.2c2.2-1.6,2.5-23.7,2.2-50.9c0-0.3,0-0.6,0-0.9l-98.2,2.8v1.6
			c0,0-57.3,28.4-62.9,33.5C1151.5,969.6,1147.4,985.1,1152.8,986.7z"/>
		<path class="st1" d="M1154.3,980.6c25.5-1.6,129.3-5.7,154.8-5.4c0.3,0,0.3,0,0,0.3c-25.5,2.2-129,5.7-154.8,5.7
			C1154,981,1153.7,980.6,1154.3,980.6z"/>
		<path class="st1" d="M1209.4,930.1c10.1-2.2,22.3-1.3,30.5,5.7c0.3,0.3,0,0.6-0.3,0.6c-10.1-2.8-19.5-4.4-29.9-5.1
			C1208.8,931.3,1208.8,930.4,1209.4,930.1z"/>
		<path class="st1" d="M1202.2,934.8c10.1-2.2,22.3-1.3,30.5,5.7c0.3,0.3,0,0.6-0.3,0.6c-10.1-2.8-19.5-4.4-29.9-5.1
			C1201.5,936.1,1201.5,934.8,1202.2,934.8z"/>
		<path class="st1" d="M1195.2,939.6c10.1-2.2,22.3-1.3,30.5,5.7c0.3,0.3,0,0.6-0.3,0.6c-10.1-2.8-19.5-4.4-29.9-5.1
			C1194.3,940.8,1194.3,939.6,1195.2,939.6z"/>
		<path class="st1" d="M1200.3,922.8c7.2,5.4,16.7,7.3,25.2,10.1c0.9,0.3,1.6-0.6,1.6-1.3c0.3,0,0.3-0.3,0.3-0.3
			c-3.1-8.2-9.4-17.1-16.4-22.8c-4.4-3.5-12-5.7-15.7,0C1191.8,914,1196.2,919.7,1200.3,922.8z M1197.4,914.6
			c-2.2-11.1,9.8-5.7,12.9-3.2c1.9,1.6,3.8,3.8,5.7,5.7c3.8,4.1,6.6,8.5,9.8,13c-4.1-1.6-8.2-2.8-12.3-4.4
			C1208.8,924.1,1198.7,920.9,1197.4,914.6z"/>
		<path class="st1" d="M1260.4,914.3c-2.8-6.3-10.4-5.4-15.4-2.8c-7.9,4.1-15.7,11.7-20.1,19.3c0,0.3,0,0.3,0,0.3
			c0,0.6,0.3,1.6,1.3,1.6c8.8-1.3,18.2-1.3,26.4-5.4C1257.9,925,1263.2,920.3,1260.4,914.3z M1239.3,928.2
			c-4.4,0.6-8.8,1.3-12.9,1.9c4.1-3.8,7.9-7.6,12-11.1c2.2-1.6,4.1-3.2,6.6-4.4c3.5-1.9,16.4-5.1,12.3,5.4
			C1255,925.7,1244.6,927.2,1239.3,928.2z"/>
		<path class="st3" d="M1216.6,928.8l107.3-4.4c0,0-29.3-225-29.9-239.6c-1.3-37.6-23.9-281.3-23.9-281.3h-131.2
			c0,0,8.2,56.3,22.3,92c0,0,10.7,3.5,27.4,12.6c0,0,12.3,161.2,12.6,181.1C1202.5,729.1,1216.6,928.8,1216.6,928.8z"/>
		<path class="st1" d="M1219.5,909.2c16.7-0.9,12-0.9,28.6-1.9c8.2-0.3,62-3.2,69.9-2.2c0.3,0,0.3,0.3,0,0.3
			c-7.6,1.6-61.4,3.5-69.5,3.8c-16.7,0.6-12,0.3-28.6,0.6C1219.2,909.9,1219.2,909.2,1219.5,909.2z"/>
		<path class="st1" d="M1260.4,418.1c4.7,61.3,9.8,122.6,15.4,183.9c5.7,61.6,12.3,122.9,20.1,184.2c4.4,34.1,6.9,70.8,12.3,104.6
			c0,0.3-0.3,0.3-0.3,0c-10.7-60.7-16.4-123.9-23.3-185.2c-6.9-61-12.3-122.3-17.3-183.6c-2.8-34.8-5.3-69.5-7.9-104
			C1259.4,417.8,1260.4,417.8,1260.4,418.1z"/>
		<path class="st1" d="M1156.5,493.3c11,3.8,21.7,9.2,32.1,15.2c0.3,0.3,0,0.9-0.3,0.6c-10.7-4.7-21.7-9.2-32.4-14.5
			C1155.3,494,1155.6,493,1156.5,493.3z"/>
		<path class="st1" d="M1153.1,418.7c0-0.3,0.6-0.3,0.6,0c0,13,0.6,24.3,1.9,36.3c0.6,5.7,5,36.7,14.8,34.1c1.6-0.3,2.5-1.9,2.8-4.4
			c0.3-2.8-0.9-6.6-1.3-9.5c-0.9-6.3-1.9-13-2.5-19.6c-0.9-12.3-0.9-24.3,0.3-36.7c0-0.3,0.6-0.3,0.6,0c0,16.7,0.3,33.8,2.8,50.6
			c1.3,7.9,5.3,20.2-3.1,21.5c-8.5,1.3-14.2-19-15.1-24.6C1152.1,451,1151.8,434.2,1153.1,418.7z"/>
		<path class="st1" d="M1170.1,489.8c0.9,2.2,1.6,4.1,2.2,6.3c0.3,1.6,0.9,3.5,0.9,5.4c0,0.3-0.6,0.3-0.6,0
			c-1.3-1.6-1.6-3.5-2.2-5.1c-0.6-1.9-1.6-3.8-2.2-6C1167.5,489.5,1169.4,488.6,1170.1,489.8z"/>
		<path class="st10" d="M1166,287c-15.4,20.2-86.5,76.8-115.5,74.6c-18.9-1.6-80.9-36.7-94.4-48.4c-15.7-13.6,11-55.6,22.7-51.8
			c14.5,4.7,64.2,36.7,77.7,40.1c7.9,2.2,54.7-22.1,98.2-44.9C1171.3,248.1,1176.4,273,1166,287z"/>
		<path class="st5" d="M976.6,332.5c0,0,60.1,39.2,84.6,31.6c12.3-3.8,32.1-15.2,51.6-28.4c19.8-13.6,39.3-29.7,50.3-42.7
			c12.6-15.2,13.5-29.4,6.9-35.7c-2.5-2.5-5.7-3.8-10.1-3.8c-4.4,0-9.4,1.6-15.4,5.1c-26.1,15.8-79,41.7-85.3,41.1
			c-6.3-0.6-47.2-25-47.2-25L976.6,332.5z"/>
		<path class="st5" d="M966.2,331.5l16.4,7.9l39-64.5l-15.4-9.8L966.2,331.5z"/>
		<path class="st1" d="M1018.4,280c-14.2,28.1-30.5,50.9-33.7,55.9c0,0.3-0.6,0-0.3-0.3c3.1-4.7,18.9-33.5,33.7-55.9
			C1018.1,279.4,1018.4,279.7,1018.4,280z"/>
		<path class="st1" d="M1113.1,335.6c19.8-13.6,39.3-29.7,50.3-42.7c12.6-15.2,13.5-29.4,6.9-35.7c-5.7-2.2-9.4-3.5-10.1-3.8
			C1159.4,255,1131.1,303.7,1113.1,335.6z"/>
		<path class="st10" d="M966.2,242.7c-8.8-3.2-18.9-7.6-28.9-7.3c-10.1,0.3-18.3,13.3-18.3,17.1c0,3.8,3.8,27.5,13.8,27.5
			c10.1,0,4.1-18,4.4-20.2s0.6-4.7,2.5-4.4c1.9,0.3,34.6,15.8,34.6,15.8L966.2,242.7z"/>
		<path class="st10" d="M965.6,244.3c-0.6,0-27.4-10.4-37.1-10.4s-18.2,13.3-18.2,17.1c0,3.8,3.8,27.5,13.8,27.5
			c10.1,0,4.1-18,4.4-20.2c0.3-2.2,0.6-4.7,2.5-4.4c1.9,0.3,34.6,15.8,34.6,15.8V244.3z"/>
		<path class="st1" d="M927.2,277.2c1.3-1.6,1.6-4.1,1.6-6c0.3-2.2,0-4.4-0.3-6.3c-0.3-1.9-1.3-3.5-1.3-5.4c0-1.6,0.6-3.8,1.3-5.4
			c0.6-1.3,2.2-1,3.5-0.6c1.9,0.6,3.8,1.6,5.3,2.5c1.9,0.9,3.8,1.9,5.7,2.8c1.9,0.9,4.1,1.9,5.7,3.2v0.3c-1.9-0.6-3.5-1.6-5-2.2
			c-1.9-0.9-3.8-1.9-5.7-2.5c-1.9-1-3.5-1.6-5.3-2.5c-0.6-0.3-1.9-0.9-2.5-0.6c-0.6,0.3-1.3,1.9-1.3,2.5c-0.6,1.9-0.3,3.5,0.3,5.4
			c0.6,1.9,0.9,3.5,0.9,5.4c0,1.6,0,3.5-0.3,5.1C929.4,274.6,928.4,275.9,927.2,277.2z"/>
		<path class="st10" d="M997,270.5c0,0-27.7-25.3-33.3-30.3c-11.6-10.1-60.1-30-66.7-30.7s-9.1,13.3,23.6,27.8
			c17.3,7.6,20.4,17.7,20.1,23.1c-0.3,5.7-5.7,15.8-14.8,15.5c-9.1-0.3-15.4-13.9-23.9-15.5c-8.5-1.6-2.8,14.2,3.1,23.1
			c6,9.2,17,16.4,24.9,19.6c7.9,3.2,32.7,13.6,32.7,13.6L997,270.5z"/>
		<path class="st1" d="M914.3,269.3c3.5,2.8,7.5,6.3,11.9,6.3c4.7,0.3,7.9-2.8,10.1-7c2.2-3.8,3.5-8.5,2.5-13
			c-0.9-4.1-3.5-7.6-6.3-10.4c-3.8-3.5-8.2-6-12.6-8.5c-0.3,0,0-0.3,0.3-0.3c4.4,1.9,17.6,7.3,20.1,19.3c0.9,4.7-0.3,9.2-2.5,13
			c-2.2,3.8-5,7.3-9.4,7.6C922.8,277.2,918.1,272.7,914.3,269.3z"/>
		<path class="st5" d="M1132.9,437.4c2.5,1.9,59.5,2.5,102.9,2.5c26.4,0,47.8-0.3,48.1-0.6c0.6-1-33.3-141-83.1-180.5
			c-4.7-3.8-9.4-6.6-14.5-8.2c-9.1-3.2-32.7-0.3-35.2,2.8C1130.7,282.5,1130.7,435.5,1132.9,437.4z"/>
		<path class="st9" d="M1166.3,290.1l-6.6-11.1l-9.8,10.1l3.5,9.5l10.4-0.3L1166.3,290.1z"/>
		<path class="st9" d="M1163.8,298.3l12.9,103l-13.8,35.1l-13.8-35.1l4.4-102.7L1163.8,298.3z"/>
		<path class="st5" d="M1151.5,252.8l9.1,21.2l25.5-27.5l7.5,8.5c0,0-24.5,43.3-24.9,41.4l-9.1-18l-12.3,13l0.3-31.9L1151.5,252.8z"
			/>
		<path class="st1" d="M1146.8,275.6c0.3-5.4,0.3-10.7,0.6-15.8c0-0.3,0.3-0.3,0.3,0c1.3,5.1,0.3,25.3,0.3,30
			c0.6-0.6,11.3-11.4,11.6-11.4c1.9,2.8,8.8,16.1,9.1,17.4c3.8-7,20.4-34.1,25.2-40.8c0-0.3,0.3,0,0.3,0.3
			c-3.5,7.3-24.9,43.3-25.2,43c-0.3,0.3-8.5-16.1-9.8-19.3c-1.9,2.5-12.9,14.5-12.9,13.9C1146.5,287.6,1146.5,280.6,1146.8,275.6z"
			/>
		<path class="st10" d="M1159.7,277.2c8.8,1.3,22-13,27.1-24c0.3-0.6-1.6-8.2-3.1-17.7c-0.9-5.7-1.9-12-2.5-17.7
			c0-1.3-4.1,1.3-4.1,1.3l-7.2,2.5l-24.2,8.2c0,0,4.7,12,5.3,22.1c0,0.9,0,1.6,0,2.5v0.3C1150.6,259.1,1151.5,275.9,1159.7,277.2z"
			/>
		<path class="st1" d="M1150.9,254.1v0.3c1.3,0,2.5,0,3.8,0c24.2-2.8,24.9-34.1,24.9-34.1l-9.8,1.3l-24.2,8.2c0,0,4.7,12,5.3,22.1
			C1151.2,252.5,1151.2,253.5,1150.9,254.1z"/>
		<path class="st10" d="M1121.9,209.5c0.6,12.3,3.5,23.7,8.5,29.4c12.6,14.2,34,9.5,45.3-4.4c2.2-2.8,4.1-8.2,5-14.5
			c2.5-15.2,1.9-37-2.5-45.5c-8.8-18-36.2-21.5-49.1-8.2C1123.5,171.6,1120.7,191.5,1121.9,209.5z"/>
		<path class="st1" d="M1179.5,204.5c-8.8,0-10.4-15.8-10.4-15.8s-15.1-2.5-17.3-13.6c0,0-14.2,9.2-25.2,5.1
			c-11-4.1-8.8-16.7-7.6-19.3c1.3-2.8,7.6,2.2,7.6,2.2s0.6-7.3,2.5-7.9c1.9-0.6,4.1,3.5,4.1,3.5s14.5-5.1,27.4-4.7
			c12.9,0.3,19.2,13.6,19.2,13.6s6.9,1.6,9.1,6.3C1191.5,178.9,1185.2,204.5,1179.5,204.5z"/>
		<path class="st1" d="M1172.6,188.7c-11.6,1.6-19.2-6-21.1-17.1h-0.3c0.3,10.4,10.1,21.8,21.4,17.7
			C1172.9,189,1172.9,188.7,1172.6,188.7z"/>
		<path class="st1" d="M1179.5,167.2c3.1,1.6,6.9,2.8,9.1,5.7c2.8,3.5,2.2,8.2,1.3,12.3c-1.6,6.3-4.7,14.5-10.4,18.3
			c-0.3,0.3,0,0.6,0.3,0.6c6.6-4.1,10.7-14.5,11.3-22.1C1192.4,173.8,1187.4,169.1,1179.5,167.2z"/>
		<path class="st1" d="M1139.2,178.2c-5,3.2-12.6,3.2-17.6-0.3c-6-4.1-4.7-11.4-2.2-17.1c0-0.3-0.3-0.6-0.6-0.3
			c-3.5,5.1-3.8,13,1.3,17.4c5,4.4,14.2,4.4,19.8,0.9C1140.2,178.6,1139.9,177.9,1139.2,178.2z"/>
		<path class="st11" d="M1121.9,209.5c0.6,12.3,3.5,23.7,8.5,29.4c12.6,14.2,34,9.5,45.3-4.4c2.2-2.8,4.1-8.2,5-14.5
			c0-8.9-0.6-17.4-0.9-19.3c-0.6-3.5-7.2-1.6-7.2-1.6c0.3,3.8-0.9,12.3-3.5,15.5c-4.1,5.4-13.8,5.1-17.3,4.7
			c-3.5-0.3-10.1-3.5-17-1.3c-2.8,0.9-5.7,3.2-8.5,1.9C1123.5,218.4,1121.9,210.2,1121.9,209.5z"/>
		<path class="st10" d="M1175.1,205.7c0,0,6.6-13.3,12.6-11.1c6,2.2,1.9,20.5-4.1,23.7c-6,3.2-9.1-2.2-9.1-2.2L1175.1,205.7z"/>
		<path class="st1" d="M1186.4,200c-4.1,2.5-6,7-6.9,11.7c0.9-1.9,2.8-3.2,5.3-1.6v0.3c-1.9,0-3.2,0.3-4.1,1.9
			c-0.6,1.3-1.3,2.5-1.6,3.8c0,0.3-0.9,0.3-0.9-0.3C1177,210.2,1180.5,201.6,1186.4,200z"/>
		<path class="st1" d="M1143.3,204.2c0,2.8,0.3,5.7,2.5,6.6C1143,210.5,1142.7,206.7,1143.3,204.2z"/>
		<path class="st1" d="M1145.8,201.6c4.1-0.3,4.1,8.2,0.3,8.2C1142.4,210.2,1142.4,201.9,1145.8,201.6z"/>
		<path class="st1" d="M1130.4,204.5C1130.4,204.2,1130.1,204.5,1130.4,204.5c0,2.8-0.3,5.7-2.8,6.6
			C1130.4,210.8,1130.7,206.7,1130.4,204.5z"/>
		<path class="st1" d="M1127.9,201.6c-4.1-0.3-4.4,7.9-0.6,8.2C1131.4,210.2,1131.4,201.9,1127.9,201.6z"/>
		<path class="st1" d="M1149,197.8c-1.3-0.3-2.2-0.6-3.1-1c-1.3-0.3-2.2-0.6-3.2-1.6c-0.3-0.6-0.3-1.6,0.3-2.2
			c1.3-1.3,2.8-1,4.4-0.6c1.6,0.6,2.8,1.3,3.8,2.8C1151.8,196.6,1150.3,198.2,1149,197.8z"/>
		<path class="st1" d="M1124.8,197.5c1.3-0.3,2.2-0.6,3.2-0.9c1.3-0.3,2.2-0.6,3.1-1.6c0.3-0.6,0.3-1.6,0-2.2
			c-1.3-1.3-2.8-1.3-4.4-0.6c-1.6,0.3-2.8,1.3-3.8,2.5C1121.9,195.9,1123.2,197.8,1124.8,197.5z"/>
		<path class="st1" d="M1147.7,227.5c-0.6,0.6-1.3,1.6-2.2,1.6c-0.9,0-1.9-0.3-2.8-0.6c0.6,0.9,2.2,1.6,3.1,1.3
			C1147.1,229.8,1147.7,228.8,1147.7,227.5z"/>
		<path class="st1" d="M1144.9,220c-1.3,2.2-3.5,3.5-5.7,4.1c-0.9,0.3-2.2,0.3-3.2,0.3c-0.3,0-0.3,0-0.6,0c-0.3,0-0.3,0-0.6,0
			c-0.3,0-0.3-0.3-0.6-0.6v-0.3v-0.3c0-1.9,0-5.1,0-5.1c-0.6,0.3-4.4,2.2-4.4,0.9c0.3-8.5,0.9-18,3.1-26.5c0-0.3,0.6-0.3,0.3,0
			c0,8.2-1.6,16.4-1.9,24.6c1.3-0.3,3.1-1.3,4.1-1.3c0.3,0-0.3,5.7-0.3,6.6C1139.2,222.8,1141.4,221.9,1144.9,220
			C1145.2,219.6,1144.9,219.6,1144.9,220z"/>
		<path class="st4" d="M1137.4,223.1c0,0,1.9,2.2,4.1,3.2c0.9,0.3,1.9,0.3,2.8,0c1.9-0.6,2.2-2.5,1.6-4.1c-0.3-1.3-0.9-2.5-0.9-2.5
			S1142.1,222.8,1137.4,223.1z"/>
		<path class="st1" d="M1201.2,259.1l34.9,181.1c26.4,0,47.8-0.3,48.1-0.6C1284.6,438.7,1250.6,298.3,1201.2,259.1z"/>
		<path class="st10" d="M1324.9,519.2c5,9.2,4.1,25.6,11.6,24c6.9-1.3,6.3-13,6.3-13s4.7,12.6,11.6,9.2c6.9-3.5,3.8-16.1,3.8-16.1
			s3.5,10.7,10.1,6.6c6.6-4.1,6-15.2,6-15.2s3.1,2.5,6.6-2.5c4.7-7.3-0.9-25-6-33.5c-5-8.5-30.5-36.3-34.3-40.5l-55.4,32.6
			c0,0,2.2,19.6,4.4,29.4c2.2,9.8,18.9,39.8,26.4,36.3c7.9-3.5-4.4-24.6-6-30.7c-1.9-5.7-0.6-7.3,2.2-5.4
			C1313.9,502.2,1322.7,515.1,1324.9,519.2z"/>
		<path class="st1" d="M1342.8,530c-1.6-15.8-5.3-22.4-14.8-34.8c-0.3-0.3,0-0.6,0.3-0.3c10.7,11.1,16,19,15.4,35.1
			C1343.4,530.6,1342.8,530.6,1342.8,530z"/>
		<path class="st1" d="M1358.2,524.3c-3.1-16.4-6.9-23.7-16-37.3c0-0.3,0.3-0.3,0.3-0.3c10.1,12.6,15.4,20.5,16.7,37.3
			C1359.2,524.6,1358.5,524.9,1358.2,524.3z"/>
		<path class="st1" d="M1374.3,514.8c-4.4-15.5-7.9-23.7-18.6-35.7c-0.3-0.3,0-0.6,0.3-0.3c12,11.4,16.7,21.5,18.6,36
			C1374.9,515.8,1374.6,515.8,1374.3,514.8z"/>
		<path class="st10" d="M1205.3,263.9c48.4,42.7,127.7,160.5,137.2,176.7c6.3,11.1-50.7,46.5-53.8,38.2
			c-4.1-10.4-65.1-127-83.4-175.7C1195.2,276.5,1195.2,255,1205.3,263.9z"/>
		<path class="st5" d="M1345.6,431.7l-65.4,38.9c0,0-61-120.4-75.5-165c-16-49.9-17.3-64.5,17.3-26.5
			C1256.6,316.7,1345.6,431.7,1345.6,431.7z"/>
		<path class="st1" d="M1203.7,311.9c0.9,1.6,2.2,2.8,3.1,4.4c0.6,0.6,0.9,1.6,1.6,2.2c0.3,0.3,0.3,0.6,0.6,0.6
			c-2.2-6.3-4.7-12.6-6.9-19c3.8,10.4,8.2,20.5,12.3,30.7c4.1,9.8,7.9,19.9,12.6,29.7c0.3,0.3-0.3,0.6-0.6,0.3
			c-4.4-9.8-8.8-19.6-12.9-29.7c-1.3-3.5-2.5-6.6-3.8-10.1c-0.3-1-0.9-1.6-1.3-2.5c-0.6-0.6-0.9-1.6-1.6-2.2
			C1205.6,315.1,1204.7,313.5,1203.7,311.9z"/>
		<path class="st5" d="M1351.3,433.9l-11.3-14.2l-67.3,43.9l9.8,15.5L1351.3,433.9z"/>
		<path class="st1" d="M1276.4,461.4c24.9-19.3,54.1-35.7,59.1-38.9c0.3,0,0.3,0.3,0.3,0.3c-5,2.8-36.2,25.3-59.1,38.9
			C1276.4,462,1276.1,461.4,1276.4,461.4z"/>
		<path class="st12" d="M835.9,828l-5.7,34.8L791,1075.5h-6.3l28.6-212.7l4.1-34.8H835.9z"/>
		<path class="st1" d="M817.4,828h18.6l-5.7,34.8h-17L817.4,828z"/>
		<path class="st12" d="M959.3,1075.5H953l-39.3-212.7L908,828h18.6l4.1,34.8L959.3,1075.5z"/>
		<path class="st1" d="M926.6,828l4.1,34.8h-17L908,828H926.6z"/>
		<path class="st12" d="M1076.9,1075.5h-6.3l-39.3-212.7l-5.7-34.8h18.6l4.1,34.8L1076.9,1075.5z"/>
		<path class="st1" d="M1048.3,862.8h-17l-5.7-34.8h18.6L1048.3,862.8z"/>
		<path class="st12" d="M1066.9,844.4H779.6v-30.7h107.3l36.2-211.1h132.8L1066.9,844.4z"/>
		<path class="st6" d="M1066.9,844.4h-15.7l-10.1-241.8h14.8L1066.9,844.4z"/>
		<path class="st8" d="M469.1,1051.1c5.3,1.9,157.6,2.2,163.6-1.3c2.2-1.3,3.5-23.7,4.4-50.6c0,0,5-6.3,12.9-15.2
			c22.3-26.2,65.8-77.4,65.8-77.4L599,906.1l-51.6,77.7l-8.5,13v1.6c0,0-58.5,25.9-64.5,30.7
			C468.5,1034.1,463.7,1049.2,469.1,1051.1z"/>
		<path class="st9" d="M469.1,1051.1c5.3,1.9,157.6,2.2,163.6-1.3c2.2-1.3,3.5-23.7,4.4-50.6c0,0,5-6.3,12.9-15.2H547.4l-8.5,13v1.6
			c0,0-58.5,25.9-64.5,30.7C468.5,1034.1,463.7,1049.2,469.1,1051.1z"/>
		<path class="st9" d="M469.1,1051.1c5.3,1.9,157.6,2.2,163.6-1.3c2.2-1.3,3.5-23.7,4.4-50.6c0-0.3,0-0.6,0-1l-98.2-1.6v1.6
			c0,0-58.5,25.9-64.5,30.7C468.5,1034.1,463.7,1049.2,469.1,1051.1z"/>
		<path class="st1" d="M471,1045.1c25.8-0.6,129.3-0.3,154.8,1.3c0.3,0,0.3,0,0,0.3c-25.5,1-129,0-154.8-0.9
			C470.4,1045.4,470.4,1045.1,471,1045.1z"/>
		<path class="st1" d="M527.9,997.1c10.1-1.9,22.3-0.3,30.2,7c0.3,0.3,0,0.6-0.3,0.6c-10.1-3.2-19.2-5.4-29.6-6.3
			C527.3,998.3,527.3,997.1,527.9,997.1z"/>
		<path class="st1" d="M520.7,1001.5c10.1-1.9,22.3-0.3,30.2,7c0.3,0.3,0,0.6-0.3,0.6c-10.1-3.2-19.2-5.4-29.6-6.3
			C519.7,1002.8,519.7,1001.5,520.7,1001.5z"/>
		<path class="st1" d="M513.1,1005.9c10.1-1.9,22.3-0.3,30.2,7c0.3,0.3,0,0.6-0.3,0.6c-10.1-3.2-19.2-5.4-29.6-6.3
			C512.5,1007.2,512.5,1005.9,513.1,1005.9z"/>
		<path class="st1" d="M519.4,989.5c7.2,5.7,16.4,7.9,24.9,11.1c0.9,0.3,1.6-0.6,1.6-1.3c0.3,0,0.3,0,0.3-0.3
			c-2.8-8.5-8.8-17.4-15.4-23.4c-4.1-3.5-11.6-6-15.7-0.6C510.9,980,515,986,519.4,989.5z M516.6,981.3c-1.9-11.1,10.1-5.4,13.2-2.5
			c1.9,1.9,3.8,3.8,5.3,5.7c3.5,4.1,6.3,8.9,9.4,13.3c-4.1-1.9-8.2-3.2-12.3-4.7C527.6,991.1,517.9,987.3,516.6,981.3z"/>
		<path class="st1" d="M579.5,983.5c-2.5-6.3-10.1-6-15.1-3.5c-8.2,3.8-16,11.1-21.1,18.3c0,0.3,0,0.3,0,0.3
			c-0.3,0.6,0.3,1.6,1.3,1.6c8.8-0.9,18.6-0.6,26.7-4.1C576.4,994.2,582,989.5,579.5,983.5z M558.1,996.5c-4.4,0.6-8.8,0.9-12.9,1.6
			c4.1-3.5,8.2-7.3,12.6-10.4c2.2-1.6,4.4-3.2,6.6-4.1c3.5-1.9,16.7-4.4,12,6C573.5,994.6,563.2,995.8,558.1,996.5z"/>
		<path class="st3" d="M531.7,997.4l59.5,6l58.8,5.7c0,0,118.9-154.9,126.2-162.1c16.4-16.7,146.9-56.3,182.5-92
			c37.8-37.6,21.4-85.3,21.4-85.3h-98.5c0,0,0.3,38.6-5,40.1c-56.9,17.7-163.9,56.6-188.5,78.4C643.7,827.7,531.7,997.4,531.7,997.4
			z"/>
		<path class="st1" d="M550.3,979.4c16.7,1.6,12,0.9,28.6,2.5c8.2,1,61.7,6.6,69.2,8.9c0.3,0,0,0.3,0,0.3
			c-7.9,0.3-61.4-6.3-69.5-7.3c-16.7-2.2-12-1.6-28.3-4.1C550,979.7,550,979.4,550.3,979.4z"/>
		<path class="st1" d="M625.8,1006.6l23.9,2.2c0,0,118.9-154.9,126.2-162.1c16.4-16.7,146.9-56.3,182.5-92
			c37.8-37.6,21.4-85.3,21.4-85.3h-39l-6.3,1.6L738.7,790.1L625.8,1006.6z"/>
		<path class="st8" d="M666.1,1082.7c5.3,1.6,157.6-0.3,163.6-4.1c2.2-1.3,3.1-23.7,3.8-50.6c0-0.3,0-0.6,0-0.9
			c0-5.7,0.3-11.4,0.3-17.1c0-0.9,0-1.6,0-2.5c0.3-38.9-0.3-79.3-0.3-79.3l-101.9,0.9l3.1,78.7v3.2l0.6,16.4v1.6
			c0,0-57.9,26.9-63.9,31.9C665.1,1065.7,660.7,1081.1,666.1,1082.7z"/>
		<path class="st3" d="M666.1,1082.7c5.3,1.6,157.6-0.3,163.6-4.1c2.2-1.3,3.1-23.7,3.8-50.6c0-0.3,0-0.6,0-0.9
			c0-5.7,0.3-11.4,0.3-17.1c0-0.9,0-1.6,0-2.5l-99.1,0.3v3.2l0.6,16.4v1.6c0,0-57.9,26.9-63.9,31.9
			C665.1,1065.7,660.7,1081.1,666.1,1082.7z"/>
		<path class="st9" d="M666.1,1082.7c5.3,1.6,157.6-0.3,163.6-4.1c2.2-1.3,3.1-23.7,3.8-50.6c0-0.3,0-0.6,0-0.9l-98.2,0.3v1.6
			c0,0-57.9,26.9-63.9,31.9C665.1,1065.7,660.7,1081.1,666.1,1082.7z"/>
		<path class="st1" d="M667.6,1077c25.8-0.9,129.3-2.5,154.8-1.6c0.3,0,0.3,0,0,0.3c-25.5,1.6-129,2.2-154.8,1.6
			C667,1077.4,667,1077,667.6,1077z"/>
		<path class="st1" d="M723.9,1027.7c10.1-1.9,22.3-0.6,30.2,6.6c0.3,0.3,0,0.6-0.3,0.6c-10.1-3.2-19.2-5.1-29.9-5.7
			C723,1029,723,1028.1,723.9,1027.7z"/>
		<path class="st1" d="M716.7,1032.5c10.1-1.9,22.3-0.6,30.2,6.6c0.3,0.3,0,0.6-0.3,0.6c-10.1-3.2-19.2-5.1-29.9-5.7
			C715.8,1033.7,715.8,1032.5,716.7,1032.5z"/>
		<path class="st1" d="M709.5,1036.9c10.1-1.9,22.3-0.6,30.2,6.6c0.3,0.3,0,0.6-0.3,0.6c-10.1-3.2-19.2-5.1-29.9-5.7
			C708.5,1038.2,708.5,1036.9,709.5,1036.9z"/>
		<path class="st1" d="M715.1,1020.5c7.2,5.4,16.7,7.6,24.9,10.7c0.9,0.3,1.6-0.6,1.6-1.3c0.3,0,0.3-0.3,0.3-0.3
			c-2.8-8.5-8.8-17.4-15.7-23.1c-4.4-3.5-11.6-6-15.7-0.3C706.6,1011.3,711,1017,715.1,1020.5z M712.3,1012.3
			c-1.9-11.1,10.1-5.4,13.2-2.9c1.9,1.9,3.8,3.8,5.3,5.7c3.5,4.1,6.6,8.8,9.4,13.3c-4.1-1.6-8.2-3.2-12.3-4.7
			C723.3,1022.1,713.6,1018.3,712.3,1012.3z"/>
		<path class="st1" d="M775.5,1013.5c-2.5-6.3-10.4-5.7-15.1-3.2c-7.9,3.8-16,11.1-20.8,18.6c0,0.3,0,0.3,0,0.3
			c0,0.6,0.3,1.6,1.3,1.6c8.8-1,18.6-1,26.7-4.7C772.4,1024.3,777.7,1019.2,775.5,1013.5z M753.8,1026.8c-4.4,0.6-8.8,0.9-12.9,1.6
			c4.1-3.8,7.9-7.6,12.3-10.7c2.2-1.6,4.4-3.2,6.6-4.4c3.5-1.9,16.7-4.7,12.3,5.7C769.6,1024.6,759.2,1025.8,753.8,1026.8z"/>
		<path class="st3" d="M730.6,1027.7l111.1,2.5c0,0-13.5-163.7-11-178.2c1.3-6.6,134-26.2,176.5-71.1c36.8-38.6,2.8-111.2,2.8-111.2
			l-100.7-2.5c0,0-3.1,31,3.8,50.2c0,0-157,37.9-174.6,72.4C720.2,826.7,730.6,1027.7,730.6,1027.7z"/>
		<path class="st1" d="M729.3,837.2c0.6-9.2,1.6-18,3.2-27.2c0.6-4.4,1.6-8.9,2.5-13.3c0.9-4.1,1.9-7.9,4.1-11.7
			c4.1-7,11.3-11.4,17.9-15.2c7.2-4.1,14.8-7.9,22.7-11.1c16-6.6,32.7-11.7,49.1-17.1c10.1-3.2,19.8-6.3,29.9-9.5
			c10.1-3.2,20.5-6,30.5-9.2c0.3,0,0.3,0.3,0,0.3c-8.8,2.8-17.6,6.3-26.4,9.5c-8.5,3.2-17.3,6-25.8,9.2c-8.5,2.8-17,6-25.8,8.9
			c-7.9,2.8-16,5.4-23.9,8.5c-7.6,2.8-15.1,6.3-22.7,10.1c-6.9,3.5-14.2,7.6-19.5,13c-6,6-6.9,14.9-8.5,22.7
			c-1.9,8.9-3.2,18-4.1,27.2c-2.2,19.9-3.5,38.9-4.4,59.1c0,1.3-0.6,2.5-0.6,1.3C727.4,873.8,727.7,855.5,729.3,837.2z"/>
		<path class="st1" d="M817.1,850.8c0.6-2.8,2.5-4.1,4.7-5.1c6.3-2.8,12.9-5.4,19.2-7.9c25.8-9.5,52.2-16.4,78-25.3
			c13.2-4.4,26.1-9.5,38.4-15.8c6-3.2,12-6.3,17.9-9.8c6-3.8,12-7.9,17.3-13c22-21.5,20.4-54.7,15.4-82.5c-0.6-3.8-1.3-7.6-2.2-11.4
			c0-0.3,0.3-0.3,0.3,0c5.3,27.5,11,58.8-4.4,84.1c-7.2,11.7-18.6,19.6-30.2,26.5c-12,7-24.5,12.6-37.4,17.7
			c-25.5,9.8-52.2,16.7-78.3,25.6c-6.6,2.2-13.2,4.4-19.8,7c-3.2,1.3-6.6,2.5-9.8,3.8c-2.8,1.3-7.5,2.5-8.5,6
			c-0.3,1.6-0.3,3.5,0,5.1c0,2.2,0.3,4.1,0.3,6.3l0.9,12.3c0.6,7.9,1.3,16.1,1.6,24c2.2,32.2,4.4,64.8,6.6,97
			c0.3,4.1,0.6,7.9,0.9,12c0,0.3-0.6,0.3-0.6,0c-2.5-32.2-4.7-64.5-6.9-96.7c-1.3-16.1-2.2-32.2-3.5-48.4c0-1.9-0.3-3.8-0.3-5.7
			C817.1,854.2,816.8,852.3,817.1,850.8z"/>
		<path class="st1" d="M972.8,687.7c0-0.3,0.3-0.3,0.3,0c-0.3,4.7-0.6,9.8,0.9,14.5c1.3,3.8,3.8,6.6,6.9,9.2
			c7.2,6,16.7,6.6,25.2,8.9c0.3,0,0.3,0.6,0,0.6c-9.4,0-19.5-2.2-27.1-8.2c-3.1-2.5-5.7-6-6.9-10.1
			C970.6,698.1,971.6,692.7,972.8,687.7z"/>
		<path class="st1" d="M735,1010c16.7,0,12-0.3,28.6-0.3c8.2,0,62,0.3,69.8,1.6c0.3,0,0.3,0.3,0,0.3c-7.5,1.3-61.7,0-69.8,0
			c-16.7-0.3-12-0.3-28.6-0.9C734.6,1010.7,734.6,1010,735,1010z"/>
		<path class="st1" d="M908.6,674.1c0.6,6.3,0.9,12.3,1.6,18.6c0.3,2.8,0.6,6,1.3,8.8c0.3,1.3,0.6,2.5,1.6,3.2
			c0.9,0.9,2.5,1.3,3.8,1.3c2.8,0.3,4.7-1,5-3.8c0.6-5.7-1.3-25.3-1.3-26.9c0-0.3,0.9-0.3,0.9,0c1.6,12.3,3.5,28.1,0.9,30.7
			c-2.8,2.8-7.9,3.2-10.7,0.6c-1.6-1.3-2.2-3.2-2.2-5.1c-0.3-2.8-0.6-5.4-0.6-8.2c-0.6-6.3-0.9-13-1.3-19.3
			C907.4,673.5,908.6,673.5,908.6,674.1z"/>
		<path class="st1" d="M911.8,707.9c0.3,0.6,0.3,1.6,0.3,2.2c0,0.6,0.3,1.6,0.6,2.2c0.3,0.6,0.3,1.6,0.6,2.2
			c0.3,0.6,0.3,1.6,0.6,2.2c0,0.3-0.3,0.6-0.6,0.3c-0.3-0.6-0.6-1.6-0.9-2.2c-0.3-0.6-0.6-1.6-0.6-2.2c-0.3-0.6-0.3-1.6-0.6-2.2
			c-0.3-0.6-0.3-1.6-0.3-2.5C910.5,707.6,911.5,707.3,911.8,707.9z"/>
		<path class="st13" d="M912.7,547.4c-3.8,18.6-41.8,67.9-78.7,96.4c-22.3,17.1-114.2,20.2-133.4,15.5c-21.7-5.4-15.4-56.6-2.8-60
			c15.7-4.4,93.8,4.4,115.8-8.2c5.7-3.2,38.4-23.1,64.8-44.9C897.9,529.7,916.2,529.7,912.7,547.4z"/>
		<path class="st13" d="M710.7,660.2c-7.5,0.3-33.3-3.8-51.9-10.7c-9.1-3.5-34-15.8-32.1-23.1c1.9-7.3,9.8-4.1,9.8-4.1
			s-9.8-7-6.9-13.9c2.8-7,14.5-1.9,14.5-1.9s-9.4-7.9-6.3-14.5c3.1-6.6,14.2,0.3,14.2,0.3s-9.1-6.6-4.1-11.1c6-5.4,21.4,8.9,31.5,12
			c2.2,0.6,47.8,11.4,47.8,11.4L710.7,660.2z"/>
		<path class="st1" d="M651.9,591.9c11.3,10.4,17.9,13,32.7,15.8c0.3,0,0.3,0.6,0,0.3c-14.8-1.3-23.6-3.5-33.3-15.8
			C651,591.9,651.3,591.6,651.9,591.9z"/>
		<path class="st1" d="M643.1,606.2c12.6,9.8,19.8,12.6,35.2,16.7c0.3,0,0,0.3,0,0.3c-15.4-2.5-24.2-5.1-35.5-16.4
			C642.5,606.2,642.8,605.5,643.1,606.2z"/>
		<path class="st1" d="M637.4,622.9c12.9,8.5,20.8,12,36.2,14.2c0.3,0,0.3,0.6,0,0.6c-15.7-0.6-25.8-4.7-36.2-14.2
			C636.5,622.9,636.8,622.6,637.4,622.9z"/>
		<path class="st2" d="M555.2,522.5l-15.7,111.1l153.3,21.8l15.7-111.1L555.2,522.5z"/>
		<path class="st5" d="M580.1,549.3l-8.7,61.6l11.2,1.6l8.7-61.6L580.1,549.3z"/>
		<path class="st5" d="M595.1,574.3l-5.5,39.1l11.2,1.6l5.5-39.1L595.1,574.3z"/>
		<path class="st5" d="M614.8,567.8l-6.9,48.5l11.2,1.6l6.9-48.5L614.8,567.8z"/>
		<path class="st5" d="M630,591.3l-3.9,27.5l11.2,1.6l3.9-27.5L630,591.3z"/>
		<path class="st5" d="M650.6,576.9l-6.3,44.4l11.2,1.6l6.3-44.4L650.6,576.9z"/>
		<path class="st5" d="M670.2,570.9l-7.5,53.2l11.2,1.6l7.5-53.2L670.2,570.9z"/>
		<path class="st7" d="M573.2,541.4c-1.3,11.4-2.5,22.8-3.8,34.4c-1.3,11.4-2.8,22.8-4.4,34.1l-1.3-1.6l29.6,4.1l29.6,4.4
			c9.8,1.6,19.5,3.2,29.3,4.7c9.8,1.6,19.5,3.2,29.3,5.1c-9.8-0.9-19.8-2.2-29.6-3.2c-9.8-1.3-19.8-2.2-29.6-3.8l-29.6-4.1
			l-29.6-4.4l-1.3-0.3l0.3-1.3c1.6-11.4,3.5-22.8,5.3-34.1C569.2,564.1,571.4,552.7,573.2,541.4z"/>
		<path class="st7" d="M568.8,547.1c1.3,0,2.5,0,3.8,0c1.3,0.3,2.5,0.3,3.5,1c-1.3,0-2.5,0-3.8,0C571,547.7,570.1,547.7,568.8,547.1
			z"/>
		<path class="st7" d="M567.9,553.4c1.3,0,2.5,0,3.8,0c1.3,0.3,2.5,0.3,3.5,0.9c-1.3,0-2.5,0-3.8,0C570.4,554,569.2,554,567.9,553.4
			z"/>
		<path class="st7" d="M566.9,559.7c1.3,0,2.5,0,3.8,0c1.3,0.3,2.5,0.3,3.5,0.9c-1.3,0-2.5,0-3.8,0
			C569.5,560.3,568.2,560.3,566.9,559.7z"/>
		<path class="st7" d="M566,566c1.3,0,2.5,0,3.8,0c1.3,0.3,2.5,0.3,3.5,0.9c-1.3,0-2.5,0-3.8,0C568.5,566.6,567.3,566.6,566,566z"/>
		<path class="st7" d="M565.4,572.3c1.3,0,2.5,0,3.8,0c1.3,0.3,2.5,0.3,3.5,0.9c-1.3,0-2.5,0-3.8,0C567.6,573,566.3,573,565.4,572.3
			z"/>
		<path class="st7" d="M564.4,578.7c1.3,0,2.5,0,3.8,0c1.3,0.3,2.5,0.3,3.5,1c-1.3,0-2.5,0-3.8,0C566.6,579.3,565.4,579,564.4,578.7
			z"/>
		<path class="st7" d="M563.5,585c1.3,0,2.5,0,3.8,0c1.3,0.3,2.5,0.3,3.5,1c-1.3,0-2.5,0-3.8,0C565.7,585.6,564.8,585.3,563.5,585z"
			/>
		<path class="st7" d="M562.5,591.3c1.3,0,2.5,0,3.8,0c1.3,0.3,2.5,0.3,3.5,1c-1.3,0-2.5,0-3.8,0
			C565.1,591.9,563.8,591.6,562.5,591.3z"/>
		<path class="st7" d="M561.6,597.6c1.3,0,2.5,0,3.8,0c1.3,0.3,2.5,0.3,3.5,1c-1.3,0-2.5,0-3.8,0
			C564.1,598.2,562.9,597.9,561.6,597.6z"/>
		<path class="st7" d="M560.7,603.9c1.3,0,2.5,0,3.8,0c1.3,0.3,2.5,0.3,3.5,0.9c-1.3,0-2.5,0-3.8,0
			C563.2,604.6,561.9,604.3,560.7,603.9z"/>
		<path class="st7" d="M606,544.5c4.1,0,8.2,0.3,12.3,0.9c4.1,0.3,8.2,1,12,1.6c4.1,0.6,7.9,1.3,12,1.9c4.1,0.6,7.9,1.6,12,2.5
			c-4.1,0-8.2-0.3-12.3-0.9c-4.1-0.3-8.2-1-12-1.6c-4.1-0.6-7.9-1.3-12-1.9C613.8,546.4,609.7,545.5,606,544.5z"/>
		<path class="st7" d="M614.1,551.5c5-0.3,10.1,0.3,15.1,0.9c5,0.6,10.1,1.6,14.8,3.2c-5,0.3-10.1-0.3-15.1-1
			C623.9,554,618.9,553.1,614.1,551.5z"/>
		<path class="st14" d="M562.7,615.7l-0.9,6.3l6.2,0.9l0.9-6.3L562.7,615.7z"/>
		<path class="st7" d="M574.8,617.2c12.3,0.9,24.5,2.8,36.5,4.4c12.3,1.9,24.2,3.5,36.5,6c-12.3-0.9-24.5-2.8-36.5-4.4
			C599,621.6,586.8,619.7,574.8,617.2z"/>
		<path class="st7" d="M574.2,620.4c6.9,0.3,13.8,1.3,20.8,2.2c6.9,1,13.8,2.2,20.4,3.8c-6.9-0.3-13.8-1.3-20.8-2.2
			C588,623.2,581.1,621.9,574.2,620.4z"/>
		<path class="st7" d="M573.9,623.5c8.5,0.6,17,1.6,25.5,2.8c8.5,1.3,17,2.5,25.2,4.4c-8.5-0.6-17-1.6-25.5-2.8
			C590.5,626.7,582.1,625.4,573.9,623.5z"/>
		<path class="st13" d="M737.5,597.9c0,0-17.9-6.6-26.7-7.6c-8.5-0.9-41.8,6.6-40.6,13.9c1.6,9.5,21.7,8.9,31.5,7.3
			c0,0,3.8,21.8,18.3,24.6C734.6,639,737.5,597.9,737.5,597.9z"/>
		<path class="st1" d="M671.7,606.8c7.6,7.6,20.4,4.7,30.2,3.8c0.6,0,0.9,0.6,0.9,0.9c2.2,9.2,7.9,21.2,17,25c0.3,0,0,0.6,0,0.3
			c-10.4-2.5-17-13.9-18.6-24C690.9,613.7,678,616.3,671.7,606.8C671.4,606.8,671.4,606.8,671.7,606.8z"/>
		<path class="st2" d="M755.4,594.8l2.5,70.5c0,0,59.1-5.1,81.2-20.2c25.8-17.7,55.7-55.3,69.2-78.4c13.5-23.1,16-51.8-24.9-26.2
			c-40.9,25.6-68.3,46.8-74.9,49.3C802,591.9,755.4,594.8,755.4,594.8z"/>
		<path class="st2" d="M760.8,590.4l5.7,78.1l-18.6,2.8l-5-81.9L760.8,590.4z"/>
		<path class="st1" d="M761.1,596.4c0-0.3-0.3-0.3-0.3,0c-0.3,17.4,3.1,54,4.4,66c0,0.3,0.6,0.3,0.6,0
			C765.5,650.1,761.4,602.4,761.1,596.4z"/>
		<path class="st2" d="M871.2,710.4c3.8,3.2,159.5,5.1,160.1,3.8c0.6-0.9-42.5-167.2-99.7-187.7c-9.1-3.2-32.7-0.9-35.2,2.5
			C875.6,557.8,868.7,708.5,871.2,710.4z"/>
		<path class="st1" d="M880.3,586.2c-0.3,3.8-1.3,7.9-1.9,11.7c-0.3-1.6-0.3-3.2-0.6-5.1c0-0.3-0.3-0.3-0.3,0
			c0.3,2.2,0.3,4.4,0.3,6.6c0,0.9,0,1.9,0,2.5c-0.3,2.5-0.6,4.1-0.6,7c0,0.3,0.3,0.6,0.3-0.3c0.6-2.5,2.5-17.1,2.8-22.8
			C880.6,586.2,880.3,586.2,880.3,586.2z"/>
		<path class="st5" d="M910.5,566.3l-6-11.7l-9.8,10.4l2.5,8.9l9.1,1L910.5,566.3z"/>
		<path class="st5" d="M906.4,574.9l7.6,103l-18.3,34.8l-7.2-35.7l8.8-103L906.4,574.9z"/>
		<path class="st2" d="M896.7,528.4l8.8,21.2l26.1-27.2l7.6,8.5c0,0-25.2,43-25.5,41.1l-8.8-18.3l-12.6,13l0.6-31.9L896.7,528.4z"/>
		<path class="st1" d="M891.7,550.8c0.3-5.4,0.3-10.7,0.9-15.8c0-0.3,0.3-0.3,0.3,0c1.3,5.1,0,25.3,0,30
			c0.6-0.6,11.6-11.4,11.6-11.1c1.9,2.8,8.5,16.1,8.8,17.4c4.1-7,21.1-33.8,25.8-40.5c0-0.3,0.3,0,0.3,0.3
			c-3.5,7.3-25.5,42.7-25.8,42.7c-0.3,0.3-8.5-16.1-9.4-19.3c-1.9,2.2-12.9,14.5-12.9,13.6C891.3,563.2,891.3,556.2,891.7,550.8z"/>
		<path class="st13" d="M905.5,552.4c8.8,1.3,22.3-13,27.1-24c0.3-0.6-1.3-8.2-3.1-17.7c-0.9-5.7-1.9-12-2.5-17.7
			c0-1.3-4.1,1.3-4.1,1.3l-7.2,2.5l-24.2,8.2c0,0,4.7,12,5.3,22.1c0,0.9,0,1.6,0,2.5v0.3C896.4,534.4,897,551.2,905.5,552.4z"/>
		<path class="st1" d="M896.7,529.4v0.3c1.3,0,2.5,0,3.8,0c24.5-2.5,24.9-34.1,24.9-34.1l-9.8,1.3l-24.2,8.2c0,0,4.7,12,5.3,22.1
			C896.7,527.8,896.7,528.7,896.7,529.4z"/>
		<path class="st13" d="M927.8,449.4c6,12.3,4.7,50.3-3.2,60c-11.3,13.9-32.7,18.3-45.3,4.1c-12.3-13.9-9.8-63.5-0.9-72.7
			C891.7,427.6,919,431.4,927.8,449.4z"/>
		<path class="st1" d="M874.3,456c12.6,8.9,29.9-4.4,29.9-4.4c4.1,9.8,13.8,8.8,13.8,8.8s2.5,21.5,8.2,21.5
			c8.5,0,11.3-29.4,8.5-35.1c-2.8-5.7-10.1-7.3-10.1-7.3s-0.6-4.4-6-8.5c-6-4.4-26.1,1.6-26.1,1.6s-1.3-3.8-5-7
			c-2.5-1.9-5.7-1.6-7.6,0.6c0.9,1.3,1.6,3.2,2.2,5.4c0.9,6.3-4.1,6.3-4.1,0.6c0-2.5,0.9-4.4,1.9-6c-2.5-3.8-6.6-5.1-9.1-2.8
			C866.2,426.6,863.6,448.8,874.3,456z"/>
		<path class="st1" d="M894.5,478.2c0,2.8,0.3,5.7,2.5,6.6C893.8,484.5,893.8,480.7,894.5,478.2z"/>
		<path class="st1" d="M896.7,475.6c4.1,0,4.1,8.2,0.3,8.2C893.2,483.8,893.2,475.6,896.7,475.6z"/>
		<path class="st1" d="M879.4,478.2c0,2.8-0.6,5.7-2.8,6.6C879.4,484.5,880,480.4,879.4,478.2z"/>
		<path class="st1" d="M877.2,475.3c-4.1-0.3-4.4,7.9-0.6,8.2C880.3,483.8,880.6,475.6,877.2,475.3z"/>
		<path class="st1" d="M900.1,471.8c-1.3-0.3-2.2-0.6-3.2-1.3c-1.3-0.3-2.2-0.6-3.1-1.9c-0.3-0.6-0.3-1.6,0.3-2.2
			c1.3-1,2.8-1,4.4-0.3c1.6,0.6,2.8,1.3,3.5,2.8C903,470.6,901.4,472.5,900.1,471.8z"/>
		<path class="st1" d="M874,471.2c1.3-0.3,2.2-0.6,3.1-0.9c1.3-0.3,2.2-0.3,3.2-1.6c0.6-0.6,0.3-1.6,0-2.2c-1.3-1.3-2.8-1.3-4.4-0.9
			c-1.6,0.3-2.8,0.9-3.8,2.5C871.2,469.6,872.8,471.5,874,471.2z"/>
		<path class="st1" d="M896.7,500.6c-0.6,0.6-0.9,1.6-1.9,1.9c-0.9,0.3-1.9,0-2.8,0c0.9,0.9,2.2,1.3,3.5,0.6
			C896.7,503.1,897,501.9,896.7,500.6C897,500.6,897,500.6,896.7,500.6z"/>
		<path class="st1" d="M893.8,493.3c-1.6,2.2-3.5,3.5-5.7,3.8c-0.9,0.3-2.2,0.3-3.1,0c-0.3,0-0.9,0-1.3-0.3c-0.3,0-0.3-0.3-0.6-0.6
			l0.3-5.4c-0.6,0.3-4.4,1.9-4.4,0.9c0.6-8.5,1.3-18,3.8-26.2c0-0.3,0.6-0.3,0.3,0c-0.3,8.2-1.9,16.1-2.2,24.3
			c1.3-0.3,3.1-1.3,4.1-1.3l-0.3,6.6C887.9,496.2,890.4,495.2,893.8,493.3z"/>
		<path class="st1" d="M886,496.8c0,0,1.9,2.2,4.4,2.8c0.9,0.3,1.9,0.3,2.8,0c1.9-0.6,1.9-2.5,1.6-4.1c-0.3-1.3-0.9-2.5-0.9-2.5
			S890.7,496.2,886,496.8z"/>
		<path class="st15" d="M890.4,499.6c0.9,0.3,1.9,0.3,2.8,0c1.9-0.6,1.9-2.5,1.6-4.1C892.6,495.9,890.4,497.4,890.4,499.6z"/>
		<path class="st5" d="M874.3,490.2c-3.8,0-6.9-4.7-6.9-10.4c0-5.7,3.1-10.4,6.9-10.4s6.9,4.7,6.9,10.4
			C880.9,485.4,878.1,490.2,874.3,490.2z M874.3,470.9c-3.1,0-5.3,4.1-5.3,8.9c0,4.7,2.5,8.9,5.3,8.9s5.3-4.1,5.3-8.9
			C879.7,475,877.2,470.9,874.3,470.9z"/>
		<path class="st5" d="M897.3,490.2c-5.3,0-9.8-4.7-9.8-10.4c0-5.7,4.4-10.4,9.8-10.4c5.3,0,9.8,4.7,9.8,10.4
			C907.1,485.4,902.7,490.2,897.3,490.2z M897.3,470.9c-4.4,0-8.2,4.1-8.2,8.9c0,4.7,3.8,8.9,8.2,8.9s8.2-4.1,8.2-8.9
			C905.5,475,902,470.9,897.3,470.9z"/>
		<path class="st5" d="M888.2,478.8c-5-1.9-7.5,0-7.5,0l-0.9-1c0,0,2.8-2.2,8.8,0L888.2,478.8z"/>
		<path class="st5" d="M906.4,478.8l-0.3-1.3c0.9-0.3,22-4.1,24.2-4.1c2.5-0.3,8.2,3.2,8.8,3.5l-0.6,1.3c-1.6-1-6-3.2-7.9-3.2
			C928.8,474.7,914,477.5,906.4,478.8z"/>
		<path class="st13" d="M923.4,483.2c0,0,6.9-13.3,12.6-10.7c5.7,2.5,1.9,20.5-4.1,23.7c-6,3.2-9.1-2.2-9.1-2.2L923.4,483.2z"/>
		<path class="st1" d="M934.7,477.5c-4.1,2.5-6,7-6.9,11.7c1.3-1.9,2.8-2.8,5.3-1.6v0.3c-1.9,0-3.2,0.3-4.1,1.9
			c-0.6,1.3-1.3,2.5-1.6,3.8c0,0.3-0.9,0.3-0.9-0.3C925.3,487.6,928.5,479.1,934.7,477.5z"/>
		<path class="st13" d="M878.4,685.8c0,0-27.4,4.4-44,4.7c-9.4,0.3-25.5,1.9-32.4,5.4c-10.1,5.1-49.7,32.2-43.4,42
			c5.7,8.9,36.8-19,36.8-19s-33.7,25.3-24.9,34.4c8.8,9.5,39.6-26.5,39.6-26.5s-34,26.9-23.3,34.8c8.2,6.3,37.8-25,37.8-25
			s-29.3,23.1-21.1,30c8.8,7.6,38.1-19.6,38.1-19.6c23.3,13.6,45,5.7,56.6,1.9C901.4,748.4,878.4,685.8,878.4,685.8z"/>
		<path class="st1" d="M804.5,710.8c-15.4,10.4-28.3,24.3-32.4,31c-0.6,0.9-0.9,1.6-0.9,1.6C778.4,736,801,713.9,804.5,710.8
			C804.8,710.8,804.8,710.8,804.5,710.8z"/>
		<path class="st1" d="M818.3,722.8c-12.6,6.3-24.2,19.9-28.6,24c-0.3,0.3,0,0.3,0.3,0C794.4,743,813.3,726.9,818.3,722.8z"/>
		<path class="st1" d="M829,733.8c-12,6.6-18.6,15.8-20.4,18.3c-0.3,0.3,0,0.3,0.3,0C816.1,745.5,820.5,741.4,829,733.8
			C829.3,733.8,829.3,733.5,829,733.8z"/>
		<path class="st13" d="M938.8,542c-3.2,19,8.2,116.3,6.9,119.8c-1.3,3.5-79,28.1-93.4,31.9c-10.1,2.5,16.7,59.4,35.6,57.2
			c29.6-3.5,107.3-24.3,119.9-48.7c12.9-24.3-28.3-116.3-37.8-134.9C960.8,548.3,941.7,526.2,938.8,542z"/>
		<path class="st2" d="M942.3,660.2c5-5.1-6-76.5-5.3-103.7c0.3-27.2,7.9-28.8,27.4-0.9c19.5,27.5,55.7,118.5,48.1,141.6
			c-7.6,23.1-41.8,39.2-104.8,53.7l-34.9-69.2C872.4,681.4,938.5,664,942.3,660.2z"/>
		<path class="st1" d="M937.2,591.6c0-0.3-0.3-0.3-0.3,0c0.3,1.6,0.9,7,1.6,13.9c-0.3-0.6-0.3-1-0.6-1.6c-0.6-1.6-1.6-3.2-2.2-4.7
			c0-0.3-0.6,0-0.3,0.3c0.9,1.6,1.6,3.2,1.9,4.7c0.3,0.9,0.6,1.6,0.9,2.5c0.3,0.6,0.3,1.3,0.6,1.9c1.9,19,4.4,47.4,3.1,49.9
			c-2.8,3.2-61.4,20.5-67.3,22.4c-0.3,0,0,0.6,0,0.3c6.6-1.9,63.2-16.4,68.3-21.2C947.3,656.1,937.9,598.2,937.2,591.6z"/>
		<path class="st1" d="M1014.3,676.6c-1.9-17.1-8.8-32.9-15.1-48.7c-1.9-4.7-3.8-9.5-5.7-14.2c-1.9-4.7-4.1-9.5-5.7-14.2
			c0-0.3-0.6,0-0.3,0.3c1.9,4.1,3.1,8.5,4.7,13c1.3,3.8,2.8,7.9,4.1,11.7c2.8,7.9,6,15.8,8.8,23.4c2.8,7.6,5.3,15.2,6.6,23.1
			c1.6,7.9,2.2,16.4,0,24.3c-2.2,8.2-7.9,14.2-13.8,19.9c-0.3,0.3,0,0.6,0.3,0.6c5.7-4.1,10.4-9.8,13.2-16.1
			C1015,692.7,1015,684.5,1014.3,676.6z"/>
		<path class="st2" d="M858.6,681.4l22.3-4.4l33,75.5l-18.6,6.3L858.6,681.4z"/>
		<path class="st1" d="M883.1,682c0-0.3-0.3,0-0.3,0.3c5.3,16.4,23.3,55.3,28.3,66.1c0.3,0.3,0.9,0,0.6-0.3
			C907.7,736.7,885.6,687.7,883.1,682z"/>
		<path class="st1" d="M880.9,676.6c-0.3,0-0.6,0-0.9,0c-0.3,0-0.9,0.3-1.3,0.3c-0.6,0.3-1.6,0.3-2.2,0.6c-1.6,0.3-3.5,0.9-5,1.3
			c-0.3,0-0.3,0.6,0,0.3c1.6-0.3,3.1-0.6,5-0.9c0.6-0.3,1.6-0.3,2.5-0.6c0.3,0,0.9-0.3,1.3-0.3C880.6,677.3,880.9,677.3,880.9,676.6
			C881.3,676.9,881.3,676.6,880.9,676.6z"/>
		<path class="st12" d="M351.7,828l5.7,34.8l39.3,212.7h6.3l-28.6-212.7l-4.1-34.8H351.7z"/>
		<path class="st1" d="M370.3,828h-18.6l5.7,34.8h17L370.3,828z"/>
		<path class="st12" d="M228.4,1075.5h6.3L274,862.8l5.7-34.8h-18.6l-4.1,34.8L228.4,1075.5z"/>
		<path class="st1" d="M261.1,828l-4.1,34.8h17l5.7-34.8H261.1z"/>
		<path class="st12" d="M110.7,1075.5h6.3l39.3-212.7l6-34.8h-18.9l-4.1,34.8L110.7,1075.5z"/>
		<path class="st1" d="M139.4,862.8h17l6-34.8h-18.9L139.4,862.8z"/>
		<path class="st12" d="M120.8,844.4h287.6v-30.7H300.8l-36.2-211.1H131.8L120.8,844.4z"/>
		<path class="st6" d="M120.8,844.4h15.7l10.1-241.8h-14.8L120.8,844.4z"/>
		<path class="st1" d="M243.5,436.8c-15.4,10.4-34.6,103.3-41.2,113.1c-4.7,7-10.7,13.9-10.4,18c0.3,3.8,17,23.4,48.4,29.4
			c31.5,6,62.6-8.9,65.8-13c3.1-4.1-5-17.7-4.7-30c0.3-12.3,11.3-79.3,4.4-99.2C298.3,432.6,264.6,422.5,243.5,436.8z"/>
		<path class="st1" d="M308.3,580.6c-3.5-8.2-5-16.4-4.7-25.3c0.3-9.8,1.6-19.6,2.5-29.4c1.3-10.1,2.2-20.5,3.5-30.7
			c0.9-9.2,2.2-18.3,0.6-27.2c-1.6-8.8-5.3-17.1-11-23.7h-0.3c5.3,7,8.8,15.2,10.4,23.7c1.6,9.8,0,19.6-0.9,29.4
			c-1.3,10.1-2.2,20.2-3.5,30.3c-0.9,9.2-2.2,18.6-2.2,27.8c0,8.5,0.6,18,5.3,25.6C308,581.2,308.3,580.9,308.3,580.6z"/>
		<path class="st1" d="M246.4,436.1c-8.2,4.4-12,13-15.1,21.5c-4.4,11.4-8.5,22.8-12,34.4c-3.8,12-7.2,24-11,36
			c-3.8,12-9.4,22.1-16.4,32.6c-0.3,0.3,0,0.6,0.3,0.3c15.1-17.7,19.5-41.4,26.4-62.9c3.8-12,7.9-23.7,12-35.7
			C234.1,452.6,237.5,441.8,246.4,436.1z"/>
		<path class="st1" d="M253.6,433c-16.7,6.6-23.6,25.6-28.9,41.7c-6.3,19.3-11,38.9-16.7,58.2c-3.2,11.1-6,22.8-13.2,31.9
			c-0.3,0.3,0.3,0.6,0.3,0.3c5.3-6.6,8.2-14.5,10.7-22.8c3.1-9.5,5.7-19.3,8.5-29.1c5.3-19.3,10.1-39.2,18.6-57.5
			C237.2,446.6,243.8,437.1,253.6,433C253.9,433,253.9,433,253.6,433z"/>
		<path class="st16" d="M453.7,802.1c-6.9,15.2-15.4,31.9-24.5,48.7c-34.9,63.5-80.5,129.6-80.5,129.6l-81.8-40.4
			c0,0,28-51.2,50-94.8c3.5-7.3,7.2-14.2,10.1-20.9c9.8-20.9,16.4-37,14.5-39.5c-6.9-8.9-91.6,1.3-127.1-34.1
			c-37.8-37.6-8.8-91.3-8.8-91.3h98.5c0,0,1.6,12.6,5.7,16.1c2.8,2.2,13.5,6,28,10.4c27.4,8.5,68.3,20.2,97.2,34.1
			c13.8,6.6,24.9,13.6,30.8,21.2C472.9,749.6,466.6,773.3,453.7,802.1z"/>
		<path class="st16" d="M387.6,1073.9c-5.7-0.6-145.7-70.8-149.1-76.8c-0.3-0.6,5.7-13.6,14.2-31c19.5-39.5,58.2-106.5,58.2-106.5
			l84.3,47.7l-46.3,88.2c0,0,15.4,19,28.3,35.1c7.9,9.8,14.5,18.6,15.7,21.2C395.8,1059,393.3,1074.8,387.6,1073.9z"/>
		<path class="st9" d="M387.6,1073.9c-5.7-0.6-145.7-70.8-149.1-76.8c-0.3-0.6,5.7-13.6,14.2-31c31.1,24.7,118,82.2,124.3,75.9
			c2.5-2.5,1.9-7,0-11.4c7.9,9.8,14.5,18.6,15.7,21.2C395.8,1059,393.3,1074.8,387.6,1073.9z"/>
		<path class="st1" d="M453.7,802.1c-6.9,15.2-15.4,31.9-24.5,48.7l-112.3-5.7c3.5-7.3,7.2-14.2,10.1-20.9
			c9.8-20.9,16.4-37,14.5-39.5c-6.9-8.9-91.6,1.3-127.1-34.1c-37.8-37.6-8.8-91.3-8.8-91.3h98.5c0,0,1.6,12.6,5.7,16.1
			c2.8,2.2,13.5,6,28,10.4L453.7,802.1z"/>
		<path class="st9" d="M435.1,719.3c-9.4,7.3-15.7,23.1-15.7,23.1c-60.7,20.5-76.1,44.6-78,42c-6.9-8.8-91.6,1.3-127.1-34.1
			c-37.8-37.6-8.8-91.3-8.8-91.3h98.5c0,0,1.6,12.6,5.7,16.1C317.8,681.7,390.4,697.8,435.1,719.3z"/>
		<path class="st16" d="M563.2,1087.8c-5.3,1.6-161.4-9.8-167.1-13.9c-0.6-0.3,0-14.5,1.3-34.1c2.8-43.9,8.8-115,8.8-115l100.4,6
			l-9.4,99.2c0,0,21.7,11.4,39.3,21.5c11,6,20.4,11.7,22.7,13.6C565.1,1070.7,568.8,1086.5,563.2,1087.8z"/>
		<path class="st9" d="M563.2,1087.8c-5.3,1.6-161.4-9.8-167.1-13.9c-0.6-0.3,0-14.5,1.3-34.1c38.1,10.7,140.3,30.7,143.8,22.8
			c1.3-3.2-0.9-7-4.4-10.7c11,6,20.4,11.7,22.7,13.6C565.1,1070.7,568.8,1086.5,563.2,1087.8z"/>
		<path class="st16" d="M499.3,1011.3l-99.1-3.8c0,0,12.3-153.6,2.8-164c-4.7-5.4-37.4-11.1-76.1-19.6h-0.3
			c-14.5-3.2-29.6-6.6-44.4-10.7c-39-10.4-76.5-24-93.4-43c-35.6-39.5,0-111.2,0-111.2h100.7c0,0,2.5,31.3-5.3,50.3
			c0,0,73.9,11.1,136.2,31.3c35.2,11.4,66.7,25.9,79,43.3C523.2,817.6,499.3,1011.3,499.3,1011.3z"/>
		<path class="st9" d="M420.3,740.5c-51.9,19.3-93.4,83.7-93.4,83.7h-0.3l-44.4-10.7c-39-10.4-76.5-24-93.4-43
			c-35.6-39.5,0-111.2,0-111.2h100.7c0,0,2.5,31.3-5.3,50.2C284.1,709.2,358,719.9,420.3,740.5z"/>
		<path class="st1" d="M468.5,759.4c-11.3-5.7-23.3-10.4-35.2-15.2c-11.6-4.4-23.6-8.2-35.6-11.4c-6.9-1.9-14.2-3.2-21.1-4.7
			c-0.3,0-0.3,0.3,0,0.3c24.9,5.1,48.8,14.9,72.4,24c6.6,2.5,12.9,5.1,19.5,7.3C468.5,760.1,468.8,759.4,468.5,759.4z"/>
		<path class="st1" d="M407.1,858.3c-0.3-4.4-0.6-9.8-2.8-13.6c-1.9-3.2-5-4.1-8.5-5.1c-0.3,0-0.3,0.3,0,0.3
			c3.5,1.6,6.9,3.5,7.9,7.3c0.9,4.1,1.3,10.4,1.6,14.9c0.6,9.2,1.3,18.3,0.9,27.5c0,0.6,0.9,0.6,0.9,0
			C407.4,879.2,407.7,868.8,407.1,858.3z"/>
		<path class="st16" d="M274,656.4c9.1,10.1,23.3,19,38.1,26.5c17.6,8.9,57.3,27.2,60.4,28.4c7.5,2.5,34.6-49.6,30.5-57.2
			c-0.9-1.9-89-30.7-91.2-34.1c-2.2-3.5-11-27.8-23.9-61.6c-8.5-22.4-26.1-35.7-28-5.1C258.3,575.2,262.7,644.1,274,656.4z"/>
		<path class="st16" d="M356.8,702.9c0.9,0.6,13.8,11.1,22,15.5c6.3,3.5,24.2,13,28.9,6.3c3.2-4.4-6.9-11.4-13.8-16.1
			c-3.8-2.5-7.9-7.9-6-10.4c3.2-4.1,12.6,2.8,18.6,8.5c11.6,10.7,26.1,28.8,35.9,23.7c3.8-1.9,1.3-7.3-3.1-13
			c7.2,7.3,15.4,13.6,19.5,11.7c2.5-1,2.8-3.2,2.2-6c2.5,1.6,4.7,1.9,6.6,0.3c3.5-2.2,3.1-7,0.9-12c0.9,0,1.9-0.3,2.8-0.9
			c7.9-7.6-15.4-39.8-25.2-44.6c-28-13.9-60.1-18.3-60.1-18.3C372.5,654.5,356.8,702.5,356.8,702.9z"/>
		<path class="st1" d="M412.2,691.8c11,6,18.9,13.3,27.4,26.5c0.3,0.3,0.6,0,0.3-0.3c-7.2-13.6-12.9-19.9-27.7-26.9
			C411.8,690.5,411.5,691.5,412.2,691.8z"/>
		<path class="st1" d="M424.8,681.4c19.2,11.7,26.1,28.1,35.9,41.7c0,0.3,0.3,0,0.3-0.3c-8.5-13.9-12.9-29.1-35.6-42.4
			C424.8,680.1,424.1,680.7,424.8,681.4z"/>
		<path class="st1" d="M438,673.2c15.1,9.5,21.7,23.7,29.9,37.6c0.3,0.3,0.6,0,0.6-0.3c-6.9-15.2-13.8-29.7-29.9-37.6
			C437.3,672.5,437,672.8,438,673.2z"/>
		<path class="st5" d="M390.4,642.2L358,705.7l-1.3,2.2c0,0-74.9-34.4-85.9-52.5c-0.3-0.3-0.3-0.6-0.3-0.9
			c-3.1-6.6-5.7-18.6-7.9-32.6c-3.2-24-4.7-53.7-4.7-72.1c0-27.5,18.9-16.8,26.7,0c7.9,16.7,25.8,66.7,28.3,68.9
			C315.6,621.3,390.4,642.2,390.4,642.2z"/>
		<path class="st1" d="M349.2,693.4c1.3-2.5,2.2-5.1,3.5-7.3c2.5-5.4,4.7-10.4,7.2-15.8c2.2-5.1,4.7-10.1,7.2-15.5
			c2.5-5.4,4.7-11.1,7.2-16.1c0-0.3-0.3-0.6-0.3-0.3c-2.5,5.1-5.3,10.1-7.9,15.5c-2.5,5.1-5,10.4-7.6,15.5
			c-2.5,5.1-4.7,10.1-6.9,15.5c-1.3,2.5-2.2,5.4-3.5,8.2c-0.9,2.5-2.5,5.1-2.8,7.6c0,0.3,0.3,0.3,0.6,0.3
			C347.3,698.8,348.3,695.9,349.2,693.4z"/>
		<path class="st1" d="M384.5,644.4c-0.6-0.6-1.3-0.6-1.9-0.9c-0.6-0.3-1.3-0.6-2.2-1c-1.3-0.6-2.8-0.9-4.1-1.6
			c-0.3,0-0.3,0.3-0.3,0.3c1.3,0.6,2.8,1.3,4.1,1.9c0.6,0.3,1.3,0.6,1.9,0.9c0.6,0.3,1.3,0.6,2.2,0.6
			C384.5,645,384.8,644.7,384.5,644.4z"/>
		<path class="st1" d="M378.8,656.1c-0.6-0.6-1.3-0.6-1.9-0.9c-0.6-0.3-1.3-0.6-2.2-1c-1.3-0.6-2.8-0.9-4.1-1.6
			c-0.3,0-0.3,0.3-0.3,0.3c1.3,0.6,2.8,1.3,4.1,1.9c0.6,0.3,1.3,0.6,1.9,0.9c0.6,0.3,1.3,0.6,2.2,0.6
			C379.1,656.7,379.1,656.4,378.8,656.1z"/>
		<path class="st1" d="M373.5,667.8c-0.6-0.6-1.3-0.6-1.9-1c-0.6-0.3-1.3-0.6-2.2-0.9c-1.3-0.6-2.8-1-4.1-1.6
			c-0.3,0-0.3,0.3-0.3,0.3c1.3,0.6,2.8,1.3,4.1,1.9c0.6,0.3,1.3,0.6,1.9,0.9c0.6,0.3,1.3,0.6,2.2,0.6
			C373.5,668.4,373.8,668.1,373.5,667.8z"/>
		<path class="st1" d="M368.1,679.5c-0.6-0.6-1.3-0.6-1.9-1c-0.6-0.3-1.3-0.6-2.2-0.9c-1.3-0.6-2.8-0.9-4.1-1.6
			c-0.3,0-0.3,0.3-0.3,0.3c1.3,0.6,2.8,1.3,4.1,1.9c0.6,0.3,1.3,0.6,1.9,0.9c0.6,0.3,1.3,0.6,2.2,0.6
			C368.1,680.1,368.1,679.8,368.1,679.5z"/>
		<path class="st1" d="M362.4,691.2c-0.6-0.6-1.3-0.6-1.9-1c-0.6-0.3-1.3-0.6-2.2-0.9c-1.3-0.6-2.8-0.9-4.1-1.6
			c-0.3,0-0.3,0.3-0.3,0.3c1.3,0.6,2.8,1.3,4.1,1.9c0.6,0.3,1.3,0.6,1.9,0.9c0.6,0.3,1.3,0.6,2.2,0.6
			C362.4,691.8,362.8,691.2,362.4,691.2z"/>
		<path class="st1" d="M357.1,702.9c-0.6-0.6-1.3-0.6-1.9-0.9c-0.6-0.3-1.3-0.6-2.2-0.9c-1.3-0.6-2.8-1-4.1-1.6
			c-0.3,0-0.3,0.3-0.3,0.3c1.3,0.6,2.8,1.3,4.1,1.9c0.6,0.3,1.3,0.6,1.9,1c0.6,0.3,1.3,0.6,2.2,0.6
			C357.1,703.5,357.1,702.9,357.1,702.9z"/>
		<path class="st4" d="M274,659.6c-0.6-1.6-0.6-2.8-0.6-4.4c0-1.6,0.3-2.8,0.6-4.4c0.6,1.6,0.6,2.8,0.6,4.4
			C274.7,656.4,274.7,658,274,659.6z"/>
		<path class="st4" d="M308,656.7c1.6-0.6,2.8-0.6,4.4-0.6c1.6,0,2.8,0.3,4.4,0.6c-1.6,0.6-2.8,0.6-4.4,0.6
			C310.8,657.7,309.3,657.4,308,656.7z"/>
		<path class="st4" d="M295.4,598.9c1.6-0.6,2.8-0.6,4.4-0.6c1.6,0,2.8,0.3,4.4,0.6c-1.6,0.6-2.8,0.6-4.4,0.6
			C298.3,599.5,297,599.5,295.4,598.9z"/>
		<path class="st4" d="M327.2,675.4c1.6-0.6,2.8-0.6,4.4-0.6c1.6,0,2.8,0.3,4.4,0.6c-1.6,0.6-2.8,0.6-4.4,0.6
			C330.3,676,328.8,676,327.2,675.4z"/>
		<path class="st4" d="M276.6,619.7c-1.6-0.6-2.5-1.6-3.8-2.5c-0.9-1-1.9-2.2-2.5-3.8c1.6,0.6,2.5,1.6,3.8,2.5
			C275,617.2,275.9,618.5,276.6,619.7z"/>
		<path class="st4" d="M348.3,699.1c-1.6-0.6-2.5-1.6-3.8-2.5c-0.9-0.9-1.9-2.2-2.5-3.8c1.6,0.6,2.5,1.6,3.8,2.5
			C346.7,696.5,347.7,697.8,348.3,699.1z"/>
		<path class="st4" d="M340.4,641.5c-1.6-0.6-2.5-1.6-3.8-2.5c-0.9-0.9-1.9-2.2-2.5-3.8c1.6,0.6,2.5,1.6,3.8,2.5
			C338.8,638.7,339.8,640,340.4,641.5z"/>
		<path class="st4" d="M303,630.2c-0.6,1.6-1.6,2.5-2.5,3.8c-0.9,0.9-2.2,1.9-3.8,2.5c0.6-1.6,1.6-2.5,2.5-3.8
			C300.5,631.7,301.4,630.8,303,630.2z"/>
		<path class="st4" d="M362.8,655.5c-0.6,1.6-1.6,2.5-2.5,3.8c-0.9,1-2.2,1.9-3.8,2.5c0.6-1.6,1.6-2.5,2.5-3.8
			C360.2,657,361.5,656.1,362.8,655.5z"/>
		<path class="st4" d="M295.4,598.9c1.6-0.6,2.8-0.6,4.4-0.6c1.6,0,2.8,0.3,4.4,0.6c-1.6,0.6-2.8,0.6-4.4,0.6
			C298.3,599.5,297,599.5,295.4,598.9z"/>
		<path class="st4" d="M285.1,555.6c-1.6-0.6-2.5-1.6-3.8-2.5c-0.9-0.9-1.9-2.2-2.5-3.8c1.6,0.6,2.5,1.6,3.8,2.5
			C283.5,552.7,284.4,554,285.1,555.6z"/>
		<path class="st4" d="M286.9,574.9c-0.6,1.6-1.6,2.5-2.5,3.8c-0.9,0.9-2.2,1.9-3.8,2.5c0.6-1.6,1.6-2.5,2.5-3.8
			C284.4,576.4,285.7,575.5,286.9,574.9z"/>
		<path class="st1" d="M358,705.7l-1.3,2.2c0,0-74.9-34.4-85.9-52.5c-0.3-0.3-0.3-0.6-0.3-0.9c-3.1-6.6-5.7-18.6-7.9-32.6L358,705.7
			z"/>
		<path class="st16" d="M247,534.1c0.3,2.5,11.3,19,22.7,19c3.8,0,4.4-19.9,4.4-19.9l0.3-1.6L280,511l-23.3-16.7l-3.5-2.2
			c0,0-1.3,5.7-2.5,12.6c0,0.3,0,0.6-0.3,1c0,0.3-0.3,0.6-0.3,1.3c-0.3,1-0.3,2.2-0.6,3.2c0,0.9-0.3,1.6-0.3,2.5
			c0,0.9-0.3,1.6-0.3,2.5C247.3,524,246.7,533.1,247,534.1z"/>
		<path class="st1" d="M250.4,505c5,16.7,17.9,24,23.9,26.5L280,511l-23.3-16.7l-3.5-2.2C253,492.4,251.7,498.1,250.4,505z"/>
		<path class="st16" d="M309.3,479.4c1.6,37-20.1,42.3-28.3,42.7c-7.2,0.3-31.8,0.6-37.4-36.3c-5.7-37,11-49.3,27.7-50.9
			C287.9,433.3,307.4,442.5,309.3,479.4z"/>
		<path class="st1" d="M303.6,473.1c-0.9,0-1.6-0.3-2.5-0.3c-0.9-0.3-1.9-0.3-2.5-0.9c-0.3-0.3-0.3-1.3,0-1.6c0.9-1,1.9-1,3.2-1
			c1.3,0.3,2.2,0.6,3.1,1.6C305.8,471.8,304.9,473.4,303.6,473.1z"/>
		<path class="st1" d="M278.1,472.8c0.9,0,1.6-0.3,2.5-0.6c0.9-0.3,1.9-0.3,2.5-0.9c0.3-0.3,0.3-1.3,0-1.6c-0.9-1-2.2-1-3.1-0.6
			c-1.3,0.3-2.2,0.6-2.8,1.9C275.9,471.5,277.2,472.8,278.1,472.8z"/>
		<path class="st1" d="M284.4,482.9C284.4,482.6,284.1,482.9,284.4,482.9c0,2.8-0.3,5.7-2.5,6.6C284.7,488.9,285,485.1,284.4,482.9z
			"/>
		<path class="st1" d="M282.2,480.4c-4.1,0-4.1,7.9-0.3,8.2C285.7,488.6,285.4,480.4,282.2,480.4z"/>
		<path class="st1" d="M280.3,480.7c-0.6,0.3-1.3,1.3-2.2,1.3c-0.9,0-1.9-0.6-2.5-1.6c0,1.6,0.6,3.2,2.2,3.5
			c1.6,0.3,2.5-1.3,2.8-2.8C280.9,481,280.6,480.4,280.3,480.7z"/>
		<path class="st1" d="M298.6,481.9c0,2.8,0.3,5.7,2.8,6.6C298.3,488.3,297.9,484.5,298.6,481.9z"/>
		<path class="st1" d="M300.8,479.4c4.1-0.3,4.4,7.9,0.6,8.2C297.6,488,297.3,479.7,300.8,479.4z"/>
		<path class="st1" d="M302.3,480.1c0.6,0.3,1.3,1.3,2.2,1.3c0.9,0,1.6-1,2.2-1.9c0,1.6-0.3,3.2-1.9,3.5c-1.3,0.3-2.5-0.9-2.8-2.5
			C302,480.4,302,479.7,302.3,480.1z"/>
		<path class="st1" d="M284.4,503.4c0.6,0.6,1.3,1.6,2.2,1.6c0.9,0,1.9-0.3,2.8-0.6c-0.6,0.9-2.2,1.6-3.1,1.3
			C284.7,505.7,284.4,504.7,284.4,503.4C284.1,503.4,284.1,503.4,284.4,503.4z"/>
		<path class="st1" d="M294.8,494.3c0,0,0.6,3.8,0.6,5.7c0,0.3-0.3,0.3-0.9,0.3c-3.1,0.6-6.3-0.3-8.2-2.8c0-0.3,0-0.3,0.3-0.3
			c2.5,1.6,5,2.2,7.9,2.2c0-0.6-1.3-6.3-0.9-6.3c0.9,0,2.8,0.6,4.1,0.9c-0.9-7.9-3.1-15.5-4.1-23.4c0-0.3,0.3-0.3,0.3,0
			c2.8,7.9,4.4,16.7,5.7,25C299.2,495.9,295.4,494.6,294.8,494.3z"/>
		<path class="st1" d="M246.3,484.8c3.5-1,5.7-11.1,5.7-11.1s15.7-1,26.1-11.1c7.5-7.3,11.6-14.5,11.6-14.5s3.8,7,8.5,12
			c4.4,4.7,9.8,8.9,9.8,8.9s0.6-16.1-4.7-22.4c-7.9-9.2-22.7-19.6-43.1-10.4c0,0-14.8,6.3-18.6,18.6
			C237.9,467.1,241.3,486.1,246.3,484.8z"/>
		<path class="st16" d="M249.5,485.7c0,0-7.6-12-12.9-9.2c-5.3,2.5,0,19.6,6,22.1c6,2.5,8.5-3.2,8.5-3.2L249.5,485.7z"/>
		<path class="st1" d="M238.5,481.3C238.2,481.3,238.2,481.3,238.5,481.3c4.1,2.2,6.3,6.3,7.9,10.4c-1.3-1.6-2.8-2.5-5-1.3v0.3
			c1.9-0.3,3.2,0,4.1,1.6c0.9,0.9,1.3,2.2,1.9,3.5c0.3,0.3,0.9,0.3,0.6-0.3C248.2,489.9,244.1,482,238.5,481.3z"/>
		<path class="st4" d="M245.7,496.8c-6.3-1.3-8.2,8.5-1.9,9.8C250.1,507.6,252,497.8,245.7,496.8z"/>
		<path class="st5" d="M314.3,672.2c-2.5,5.7-40.3,20.5-81.5,18c-27.4-1.6-52.5-9.2-57.3-11.4c0,0,27.7-99.6,33.7-111.6
			c5.7-11.4,13.2-21.8,21.4-28.8c3.1-2.8,6.3-4.7,9.8-6.6c2.2-3.5,2.2-13.6,3.8-13.9c1.6-0.6,32.4,12,33,12.6c0.3,0.9,0.3,7.6,0,9.2
			c2.2,2.2,32.4,42.3,34.3,55c2.2,14.9-7.5,29.1-7.5,29.1L314.3,672.2z"/>
		<path class="st4" d="M274,659.6c-0.6-1.6-0.6-2.8-0.6-4.4c0-1.6,0.3-2.8,0.6-4.4c0.6,1.6,0.6,2.8,0.6,4.4
			C274.7,656.4,274.7,658,274,659.6z"/>
		<path class="st4" d="M256.7,596.4c-0.6-1.6-0.6-2.8-0.6-4.4c0-1.6,0.3-2.8,0.6-4.4c0.6,1.6,0.6,2.9,0.6,4.4
			C257.7,593.5,257.4,595.1,256.7,596.4z"/>
		<path class="st4" d="M219.3,574.2c-0.6-1.6-0.6-2.8-0.6-4.4c0-1.6,0.3-2.8,0.6-4.4c0.6,1.6,0.6,2.8,0.6,4.4
			C219.9,571.4,219.9,572.6,219.3,574.2z"/>
		<path class="st4" d="M215.8,647.2c-0.6-1.6-0.6-2.8-0.6-4.4c0-1.6,0.3-2.8,0.6-4.4c0.6,1.6,0.6,2.8,0.6,4.4
			C216.5,644.4,216.1,645.7,215.8,647.2z"/>
		<path class="st4" d="M241,635.2c1.6-0.6,2.8-0.6,4.4-0.6c1.6,0,2.8,0.3,4.4,0.6c-1.6,0.6-2.8,0.6-4.4,0.6
			C243.8,635.9,242.3,635.5,241,635.2z"/>
		<path class="st4" d="M209.2,597.9c1.6-0.6,2.8-0.6,4.4-0.6c1.6,0,2.8,0.3,4.4,0.6c-1.6,0.6-2.8,0.6-4.4,0.6
			C212.1,598.6,210.5,598.6,209.2,597.9z"/>
		<path class="st4" d="M252.3,553.1c1.6-0.6,2.8-0.6,4.4-0.6c1.6,0,2.8,0.3,4.4,0.6c-1.6,0.6-2.8,0.6-4.4,0.6
			C255.2,553.7,253.9,553.7,252.3,553.1z"/>
		<path class="st4" d="M205.8,675.4c1.6-0.6,2.8-0.6,4.4-0.6c1.6,0,2.8,0.3,4.4,0.6c-1.6,0.6-2.8,0.6-4.4,0.6
			C208.6,676,207,676,205.8,675.4z"/>
		<path class="st4" d="M295.4,598.9c1.6-0.6,2.8-0.6,4.4-0.6c1.6,0,2.8,0.3,4.4,0.6c-1.6,0.6-2.8,0.6-4.4,0.6
			C298.3,599.5,297,599.5,295.4,598.9z"/>
		<path class="st4" d="M267.1,682.6c1.6-0.6,2.8-0.6,4.4-0.6c1.6,0,2.8,0.3,4.4,0.6c-1.6,0.6-2.8,0.6-4.4,0.6
			C270.3,683.3,268.7,683.3,267.1,682.6z"/>
		<path class="st4" d="M248.6,675.4c-1.6-0.6-2.5-1.6-3.8-2.5c-0.9-1-1.9-2.2-2.5-3.8c1.6,0.6,2.5,1.6,3.8,2.5
			C247,672.8,247.9,673.8,248.6,675.4z"/>
		<path class="st4" d="M202,625.1c-1.6-0.6-2.5-1.6-3.8-2.5c-0.9-0.9-1.9-2.2-2.5-3.8c1.6,0.6,2.5,1.6,3.8,2.5
			C200.4,622.6,201.4,623.8,202,625.1z"/>
		<path class="st4" d="M276.6,619.7c-1.6-0.6-2.5-1.6-3.8-2.5c-0.9-1-1.9-2.2-2.5-3.8c1.6,0.6,2.5,1.6,3.8,2.5
			C275,617.2,275.9,618.5,276.6,619.7z"/>
		<path class="st4" d="M285.1,555.6c-1.6-0.6-2.5-1.6-3.8-2.5c-0.9-0.9-1.9-2.2-2.5-3.8c1.6,0.6,2.5,1.6,3.8,2.5
			C283.5,552.7,284.4,554,285.1,555.6z"/>
		<path class="st4" d="M244.1,578c-1.6-0.6-2.5-1.6-3.8-2.5c-0.9-0.9-1.9-2.2-2.5-3.8c1.6,0.6,2.5,1.6,3.8,2.5
			C242.6,575.2,243.5,576.4,244.1,578z"/>
		<path class="st4" d="M301.4,677.3c-1.6-0.6-2.5-1.6-3.8-2.5c-0.9-1-1.9-2.2-2.5-3.8c1.6,0.6,2.5,1.6,3.8,2.5
			C299.8,674.7,300.8,675.7,301.4,677.3z"/>
		<path class="st4" d="M303,630.2c-0.6,1.6-1.6,2.5-2.5,3.8c-0.9,0.9-2.2,1.9-3.8,2.5c0.6-1.6,1.6-2.5,2.5-3.8
			C300.5,631.7,301.4,630.8,303,630.2z"/>
		<path class="st4" d="M236.9,611.8c-0.6,1.6-1.6,2.5-2.5,3.8c-0.9,0.9-2.2,1.9-3.8,2.5c0.6-1.6,1.6-2.5,2.5-3.8
			C234.1,613.4,235.3,612.5,236.9,611.8z"/>
		<path class="st4" d="M190.3,655.5c-0.6,1.6-1.6,2.5-2.5,3.8c-0.9,1-2.2,1.9-3.8,2.5c0.6-1.6,1.6-2.5,2.5-3.8
			C187.8,657,188.8,656.1,190.3,655.5z"/>
		<path class="st4" d="M286.9,574.9c-0.6,1.6-1.6,2.5-2.5,3.8c-0.9,0.9-2.2,1.9-3.8,2.5c0.6-1.6,1.6-2.5,2.5-3.8
			C284.4,576.4,285.7,575.5,286.9,574.9z"/>
		<path class="st4" d="M238.2,539.8c-0.6,1.6-1.6,2.5-2.5,3.8c-0.9,1-2.2,1.9-3.8,2.5c0.6-1.6,1.6-2.5,2.5-3.8
			C235.7,541.4,236.9,540.4,238.2,539.8z"/>
		<path class="st16" d="M218.4,564.1c6.6,38.6,76.8,109.3,98.8,110c36.2,1.3,93.1-25.3,109.5-34.8c6.9-4.1-16-63.5-24.5-61.3
			c-10.1,2.8-82.7,41.4-86.5,37.6c-2.2-2.2-38.1-32.6-59.1-50.6C227.2,540.4,215.8,550.8,218.4,564.1z"/>
		<path class="st16" d="M391.7,585.9c0,0,19.5-15.2,32.7-24.6c7.6-5.4,20.8-13.3,28-14.5c10.7-1.9,56.9-3.8,57.6,7.6
			c0.6,10.1-39.3,6.6-39.3,6.6s40.6,0,39,12.6c-1.6,12.6-46.2,2.2-46.2,2.2s41.8,0.9,38.1,13.6c-2.8,9.5-43.7,2.5-43.7,2.5
			s35.9,1.3,33.3,11.1c-2.5,10.7-40.9,7-40.9,7c-10.4,24-24.9,31.3-36.2,35.1C412.2,646,391.7,585.9,391.7,585.9z"/>
		<path class="st1" d="M456.8,560c4.7,0,9.8-0.3,14.5,0c4.7,0.3,9.4,0.6,14.2,1.6c11.6,1.9,18.6,4.7,18.2,4.4
			c-10.7-3.2-27.7-4.4-32.4-4.7C466.3,561,461.6,560.3,456.8,560z"/>
		<path class="st1" d="M455.6,577.4c6,0,12.3,0,18.3,0.3c6,0.3,12,1.3,17.9,1.9c0.3,0,0.3,0.3-0.3,0.3c-6-0.6-11.6-0.6-17.6-1
			C467.5,578.3,461.6,577.7,455.6,577.4z"/>
		<path class="st1" d="M451.8,591.9c9.4-0.3,18.9,0.9,28,2.5c0.3,0,0.3,0.3-0.3,0.3c-9.1-1-16.4-1.9-27.7-2.5
			C451.8,592.2,451.5,591.9,451.8,591.9z"/>
		<path class="st5" d="M391.1,577.1l32.7,67.9c0,0-67.3,36-108.5,31.9c-41.5-3.8-84-65.1-95-98.9c-11-33.8,8.8-40.1,31.1-22.1
			c22.3,18,62,51.5,64.8,51.8C319,608,391.1,577.1,391.1,577.1z"/>
		<path class="st1" d="M407.1,639.3c-1.3-2.5-2.5-4.7-3.5-7.3c-2.5-5.1-5-10.4-7.5-15.5c-2.5-5.1-5-10.1-7.2-15.2
			c-2.5-5.4-5.3-10.7-7.9-16.1c0-0.3-0.6,0-0.3,0.3c2.5,5.4,4.4,10.7,6.9,15.8c2.5,5.4,4.7,10.4,7.2,15.8c2.5,5.1,5,10.1,7.6,15.2
			c1.3,2.5,2.5,5.4,4.1,7.9c1.3,2.2,2.2,5.1,4.1,7c0.3,0.3,0.6,0,0.6-0.3C410,644.4,408.4,641.9,407.1,639.3z"/>
		<path class="st1" d="M391.4,581.2c-0.6,0-1.3,0.6-2.2,0.9c-0.6,0.3-1.3,0.6-1.9,0.9c-1.3,0.6-2.5,1.6-4.1,2.2
			c-0.3,0,0,0.6,0.3,0.3c1.3-0.6,2.8-1.3,4.1-1.9c0.6-0.3,1.3-0.6,1.9-0.9c0.6-0.3,1.3-0.6,1.9-1.3
			C392,581.5,391.7,581.2,391.4,581.2z"/>
		<path class="st1" d="M397.1,592.9c-0.6,0-1.3,0.6-2.2,1c-0.6,0.3-1.3,0.6-1.9,0.9c-1.3,0.6-2.5,1.6-4.1,2.2c-0.3,0,0,0.6,0.3,0.3
			c1.3-0.6,2.8-1.3,4.1-1.9c0.6-0.3,1.3-0.6,1.9-0.9c0.6-0.3,1.3-0.6,1.9-1.3C397.7,593.2,397.4,592.9,397.1,592.9z"/>
		<path class="st1" d="M402.7,604.6c-0.6,0-1.3,0.6-2.2,0.9c-0.6,0.3-1.3,0.6-1.9,0.9c-1.3,0.6-2.5,1.6-4.1,2.2
			c-0.3,0,0,0.6,0.3,0.3c1.3-0.6,2.8-1.3,4.1-1.9c0.6-0.3,1.3-0.6,1.9-0.9c0.6-0.3,1.3-0.6,1.9-1.3C403,604.9,403,604.3,402.7,604.6
			z"/>
		<path class="st1" d="M408.1,615.9c-0.6,0-1.3,0.6-2.2,0.9c-0.6,0.3-1.3,0.6-1.9,0.9c-1.3,0.6-2.5,1.6-4.1,2.2
			c-0.3,0,0,0.6,0.3,0.3c1.3-0.6,2.8-1.3,4.1-1.9c0.6-0.3,1.3-0.6,1.9-0.9c0.6-0.3,1.3-0.6,1.9-1.3
			C408.7,616.6,408.4,615.9,408.1,615.9z"/>
		<path class="st1" d="M413.7,627.6c-0.6,0-1.3,0.6-2.2,0.9c-0.6,0.3-1.3,0.6-1.9,0.9c-1.3,0.6-2.5,1.6-4.1,2.2
			c-0.3,0,0,0.6,0.3,0.3c1.3-0.6,2.8-1.3,4.1-1.9c0.6-0.3,1.3-0.6,1.9-0.9c0.6-0.3,1.3-0.6,1.9-1.3C414.4,628,414,627.6,413.7,627.6
			z"/>
		<path class="st1" d="M419.1,639.3c-0.6,0-1.3,0.6-2.2,0.9c-0.6,0.3-1.3,0.6-1.9,1c-1.3,0.6-2.5,1.6-4.1,2.2c-0.3,0,0,0.6,0.3,0.3
			c1.3-0.6,2.8-1.3,4.1-1.9c0.6-0.3,1.3-0.6,1.9-0.9c0.6-0.3,1.3-0.6,1.9-1.3C419.7,639.7,419.4,639.3,419.1,639.3z"/>
		<path class="st1" d="M382.6,663.7c-2.5,0.6-5,1.6-7.2,2.5c-2.5,1-5,1.6-7.2,2.2c-5,1.6-10.1,2.8-15.4,4.1
			c-5,0.9-10.1,2.2-15.1,3.2c-5.3,0.9-10.7,1.6-16.4,1.9c-0.3,0-0.3,0.3,0,0.3c5.3,0,10.7-0.3,16-0.9c5-0.6,10.4-1.6,15.4-2.8
			c5.3-1.3,10.4-2.8,15.4-4.4c2.5-0.6,5-1.6,7.2-2.5c2.5-1,5-1.6,7.2-2.8C382.9,663.7,382.9,663.4,382.6,663.7z"/>
		<path class="st4" d="M274,659.6c-0.6-1.6-0.6-2.8-0.6-4.4c0-1.6,0.3-2.8,0.6-4.4c0.6,1.6,0.6,2.8,0.6,4.4
			C274.7,656.4,274.7,658,274,659.6z"/>
		<path class="st4" d="M256.7,596.4c-0.6-1.6-0.6-2.8-0.6-4.4c0-1.6,0.3-2.8,0.6-4.4c0.6,1.6,0.6,2.9,0.6,4.4
			C257.7,593.5,257.4,595.1,256.7,596.4z"/>
		<path class="st4" d="M219.3,574.2c-0.6-1.6-0.6-2.8-0.6-4.4c0-1.6,0.3-2.8,0.6-4.4c0.6,1.6,0.6,2.8,0.6,4.4
			C219.9,571.4,219.9,572.6,219.3,574.2z"/>
		<path class="st4" d="M393.3,626.7c-0.6-1.6-0.6-2.8-0.6-4.4s0.3-2.8,0.6-4.4c0.6,1.6,0.6,2.8,0.6,4.4
			C393.9,623.5,393.9,625.1,393.3,626.7z"/>
		<path class="st4" d="M308,656.7c1.6-0.6,2.8-0.6,4.4-0.6c1.6,0,2.8,0.3,4.4,0.6c-1.6,0.6-2.8,0.6-4.4,0.6
			C310.8,657.7,309.3,657.3,308,656.7z"/>
		<path class="st4" d="M388.9,647.9c1.6-0.6,2.8-0.6,4.4-0.6c1.6,0,2.8,0.3,4.4,0.6c-1.6,0.6-2.8,0.6-4.4,0.6
			C391.7,648.5,390.1,648.5,388.9,647.9z"/>
		<path class="st4" d="M295.4,598.9c1.6-0.6,2.8-0.6,4.4-0.6c1.6,0,2.8,0.3,4.4,0.6c-1.6,0.6-2.8,0.6-4.4,0.6
			C298.3,599.5,297,599.5,295.4,598.9z"/>
		<path class="st4" d="M267.1,682.6c1.6-0.6,2.8-0.6,4.4-0.6c1.6,0,2.8,0.3,4.4,0.6c-1.6,0.6-2.8,0.6-4.4,0.6
			C270.3,683.3,268.7,683.3,267.1,682.6z"/>
		<path class="st4" d="M380.4,597.6c-1.6-0.6-2.5-1.6-3.8-2.5c-0.9-1-1.9-2.2-2.5-3.8c1.6,0.6,2.5,1.6,3.8,2.5
			C378.8,595.1,379.7,596.4,380.4,597.6z"/>
		<path class="st4" d="M276.6,619.7c-1.6-0.6-2.5-1.6-3.8-2.5c-0.9-1-1.9-2.2-2.5-3.8c1.6,0.6,2.5,1.6,3.8,2.5
			C275,617.2,275.9,618.5,276.6,619.7z"/>
		<path class="st4" d="M340.4,641.5c-1.6-0.6-2.5-1.6-3.8-2.5c-0.9-1-1.9-2.2-2.5-3.8c1.6,0.6,2.5,1.6,3.8,2.5
			C338.9,638.7,339.8,640,340.4,641.5z"/>
		<path class="st4" d="M244.1,578c-1.6-0.6-2.5-1.6-3.8-2.5c-0.9-0.9-1.9-2.2-2.5-3.8c1.6,0.6,2.5,1.6,3.8,2.5
			C242.6,575.2,243.5,576.4,244.1,578z"/>
		<path class="st4" d="M303,630.2c-0.6,1.6-1.6,2.5-2.5,3.8c-0.9,0.9-2.2,1.9-3.8,2.5c0.6-1.6,1.6-2.5,2.5-3.8
			C300.5,631.7,301.4,630.8,303,630.2z"/>
		<path class="st4" d="M347,605.8c-0.6,1.6-1.6,2.5-2.5,3.8c-0.9,0.9-2.2,1.9-3.8,2.5c0.6-1.6,1.6-2.5,2.5-3.8
			C344.2,607.4,345.5,606.5,347,605.8z"/>
		<path class="st4" d="M369.1,628c-0.6,1.6-1.6,2.5-2.5,3.8c-0.9,1-2.2,1.9-3.8,2.5c0.6-1.6,1.6-2.5,2.5-3.8
			C366.2,629.5,367.5,628.6,369.1,628z"/>
		<path class="st4" d="M362.8,655.5c-0.6,1.6-1.6,2.5-2.5,3.8c-0.9,1-2.2,1.9-3.8,2.5c0.6-1.6,1.6-2.5,2.5-3.8
			C360.2,657,361.5,656.1,362.8,655.5z"/>
		<path class="st1" d="M309.6,676.3c-13.8-3.5-25.5-11.4-36.2-20.9c-11-10.1-21.1-21.2-30.2-32.9c-5.3-6.6-10.4-13.6-14.8-20.9
			c0-0.3-0.6,0-0.3,0.3c4.1,6.6,7.9,13.3,12.3,19.6c0.3,0.6,0.6,0.9,1.3,1.6c-0.9-0.6-1.9-1.6-2.8-2.2c-2.5-1.9-4.7-3.5-6.9-5.7
			c-0.3-0.3-0.6,0-0.3,0.3c2.2,1.9,4.4,4.1,6.6,6.3c1.3,1,2.2,1.9,3.5,2.8c0.6,0.3,1.3,1,1.9,1.3c0.3,0,0.3,0.3,0.6,0.3
			c3.5,4.4,6.9,9.2,10.7,13.3c9.4,11.1,20.1,21.5,32.7,29.1c6.6,4.1,13.8,7.3,21.7,8.2C309.9,676.9,310.2,676.3,309.6,676.3z"/>
		<path class="st1" d="M310.9,603.9c-6.3-5.4-12.6-10.7-19.2-15.8c-2.2-1.9-4.7-3.8-6.9-5.4c-0.3-0.3-0.6-0.6-0.9-1
			c-0.6-0.6-1.3-1.3-1.9-2.2c-1.3-1.6-2.8-2.8-4.1-4.4c-0.3-0.3-0.6,0-0.3,0.3c1.3,1.3,2.5,2.8,3.8,4.4c0,0,0,0,0.3,0.3
			c-3.2-2.5-6.3-4.7-9.8-7.3c-0.3-0.3-0.6,0-0.3,0.3c6.6,5.1,12.9,10.7,19.2,15.8c6.3,5.1,12.9,10.1,19.2,15.2
			C310.5,604.9,311.2,604.3,310.9,603.9z"/>
		<path class="st9" d="M249.5,780l-0.3,36l-5,274.6h-5.7l-5-274.6l-0.3-36H249.5z"/>
		<path class="st1" d="M233.1,780h16.4l-0.3,36h-15.7L233.1,780z"/>
		<path class="st9" d="M992.9,780l-0.3,36l-5,274.6h-5.7l-5-274.6l-0.3-36H992.9z"/>
		<path class="st1" d="M992.9,780l-0.3,36h-15.7l-0.3-36H992.9z"/>
		<path class="st9" d="M192.2,780l-0.3,36l-5,274.6h-5.7l-5-274.6l-0.6-36H192.2z"/>
		<path class="st1" d="M175.6,780h16.7l-0.3,36h-15.7L175.6,780z"/>
		<path class="st9" d="M935.7,780l-0.6,36l-5,274.6h-5.7l-5-274.6l-0.3-36H935.7z"/>
		<path class="st1" d="M919,780h16.7l-0.6,36h-15.7L919,780z"/>
		<path class="st1" d="M1035.7,757.8H124.6v30.7h911.1V757.8z"/>
		<path class="st3" d="M480.7,757.8h140.3l10.7-95.8h-140L480.7,757.8z"/>
		<path class="st4" d="M488.3,751.5h126.5l9.4-82.8H497.7L488.3,751.5z"/>
		<path class="st3" d="M545.2,751.2H401.5v6.6h143.8V751.2z"/>
		<path class="st9" d="M473.8,751.2h-72.4v6.6h72.4V751.2z"/>
		<path class="st5" d="M604.1,736l0.3-3.2l-22.7-32.6L567,725.6l-11.3-15.2l-3.8,3.8l-18.2-22.8l-10.1,11.7l-10.1-9.8l-1.6,1.6
			l11.6,11.1l10.1-11.4l17.9,22.8l3.8-3.8l11.6,15.8l15.1-25.3L604.1,736z"/>
		<path class="st5" d="M511.3,696.8l-1.9-5.7l6,1.3L511.3,696.8z"/>
		<path class="st7" d="M501.8,743.6h101.6l7.9-66.7l-0.9-0.3l-7.6,66.1h-101V743.6z"/>
		<path class="st7" d="M612.6,679.8h-4.4v0.6h4.4V679.8z"/>
		<path class="st7" d="M611.9,683.9h-4.4v0.6h4.4V683.9z"/>
		<path class="st7" d="M611.6,688.3h-4.4v0.6h4.4V688.3z"/>
		<path class="st7" d="M611,692.4h-4.4v0.6h4.4V692.4z"/>
		<path class="st7" d="M610.7,696.9h-4.4v0.6h4.4V696.9z"/>
		<path class="st7" d="M610,701h-4.4v0.6h4.4V701z"/>
		<path class="st7" d="M609.7,705.1h-4.4v0.6h4.4V705.1z"/>
		<path class="st7" d="M609.4,709.5H605v0.6h4.4V709.5z"/>
		<path class="st7" d="M608.8,713.6h-4.4v0.6h4.4V713.6z"/>
		<path class="st7" d="M608.2,718h-4.4v0.6h4.4V718z"/>
		<path class="st7" d="M607.8,722.1h-4.4v0.6h4.4V722.1z"/>
		<path class="st7" d="M607.2,726.2h-4.4v0.6h4.4V726.2z"/>
		<path class="st7" d="M606.9,730.7h-4.4v0.6h4.4V730.7z"/>
		<path class="st7" d="M606.3,734.8h-4.4v0.6h4.4V734.8z"/>
		<path class="st7" d="M605.6,739.2h-4.4v0.6h4.4V739.2z"/>
		<path class="st5" d="M174.9,913.3c-30.2,41.1-62,88.8-69.5,140.6c0,0.6,1.3,1,1.3,0.3c3.5-14.2,7.9-27.8,13.5-41.4
			c19.8-5.4,39.3-10.1,50-29.7c10.7-20.5,9.4-47.1,7.2-69.2C177.1,912.7,175.6,912.7,174.9,913.3z"/>
		<path class="st1" d="M120.5,1012.6c13.5-30.7,31.1-61.3,53.2-86.6c0-0.3,0.3,0,0.3,0.3c-14.5,18-25.5,37.6-36.5,57.5
			c10.1-10.1,21.1-19.3,30.5-30.3c0.3-0.3,0.6,0,0.3,0.3c-9.4,11.4-19.8,23.7-32.1,32.2c-3.1,6-6.6,12.3-10.1,18.3
			c0.9-0.3,1.6-0.9,2.5-1.3c0,0,0.3,0,0,0.3c-0.9,0.6-1.9,0.9-2.8,1.3c-1.6,2.8-3.2,5.7-4.7,8.5
			C121.1,1013.8,120.2,1013.2,120.5,1012.6z"/>
		<path class="st1" d="M130.6,1001.8c8.2-4.7,16-9.8,23.3-15.5c0.3-0.3,0.6,0,0.3,0.3c-7.2,6-14.8,11.7-23.3,15.8
			C130.6,1002.8,130.2,1002.1,130.6,1001.8z"/>
		<path class="st5" d="M101.9,1046.4c0,0.6,1.3,0.6,1.3,0c0-17.1,0-34.1,0.3-51.2c4.4-8.9,13.5-13.6,20.1-20.5
			c4.7-5.1,8.8-10.7,12-16.7c7.9-14.5,12.3-30.7,14.2-46.8c1.9-18.3-5-78.1-12.6-76.2c-4.1,1-16.7,30.7-20.1,40.8
			c-5.7,16.1-9.4,32.9-12,49.9C98.5,965.2,99.1,1006.3,101.9,1046.4z"/>
		<path class="st1" d="M101.9,973.1c0.9-21.5,6-43.3,10.4-64.2c4.7-22.4,10.7-43.6,22-63.8c0.3-0.3,0.6,0,0.6,0.3
			c-7.9,15.5-13.5,31.9-17.6,49c0.6-1.3,1.6-2.2,2.5-3.5c0.3-0.3,0.9,0,0.6,0.3c-1.3,1.6-2.2,3.8-3.5,5.1c-4.1,16.1-6.9,32.6-9.1,49
			c0.3-0.3,0.3-0.3,0.6-0.6c0,0,0.3,0,0.3,0.3c-0.3,0.6-0.6,0.9-0.9,1.6c-1.3,8.2-2.5,16.7-3.5,25c14.8-12.6,27.4-27.5,34.6-45.8
			c-6.9,19-17.9,36-34.9,47.7c-0.3,2.2-0.6,4.4-0.9,6.6c0,0.3-0.9,0.3-0.9,0c0-1.9,0-3.8,0.3-6C101.6,973.7,101.6,973.4,101.9,973.1
			z"/>
		<path class="st1" d="M108.9,941.8c11.3-16.7,21.7-33.2,30.2-52.1c0-0.3,0.3,0,0.3,0c-6.9,18.6-16.7,37.3-29.9,52.1
			C109.2,942.7,108.6,942.1,108.9,941.8z"/>
		<path class="st1" d="M124,885.8c4.7-8.2,9.4-16.4,13.8-25c0-0.3,0.3,0,0.3,0.3c-3.8,8.5-8.2,17.4-13.5,25
			C124.3,886.5,123.7,886.2,124,885.8z"/>
		<path class="st5" d="M90.6,997.1c-0.3,11.4-1.6,22.4-4.1,33.5c0.3,1.3,0.3,2.5,0.6,3.8c3.5-12.3,5.3-24.6,6-37.3
			c0.3-0.3,0.3-0.6,0-1.3c0.6-16.8-0.9-33.8-3.8-50.6C84,914,72.7,883.9,51,860.6c-0.6-0.6-2.2-0.3-2.5,0.6
			c-8.8,22.4-5.7,49,1.9,71.4c4.1,12,9.8,23.7,17.3,33.8C74.9,976.9,84.6,985.7,90.6,997.1z"/>
		<path class="st1" d="M53.5,871c20.4,33.5,34.9,73.3,36.5,112.8c0,0.6-1.3,1-1.3,0.3c-0.6-3.5-0.9-7-1.6-10.7
			c-8.5-8.2-17.3-16.7-23.3-27.2c0-0.3,0-0.3,0.3-0.3c7.5,8.5,14.2,17.1,22.7,24.7c-1.6-8.9-3.2-17.4-5.3-25.9
			c-0.6-0.6-0.9-1.3-1.6-1.9c-0.3-0.3,0.3-0.9,0.6-0.6c0.3,0.3,0.3,0.3,0.6,0.6c-2.8-11.7-6.6-23.1-10.7-34.1
			c-5.3-6.3-11-11.7-14.8-19.3c0-0.3,0-0.3,0.3-0.3c3.1,4.4,6,8.5,9.4,12.6c1.3,1.6,2.8,3.2,4.4,4.7c-4.7-12-10.4-23.7-16.7-35.4
			C52.5,871,53.2,870.7,53.5,871z"/>
		<path class="st1" d="M57.6,912.4c6.6,8.9,14.2,17.7,20.5,26.9c0.3,0.3-0.3,0.6-0.3,0.3c-7.9-7.6-14.8-17.7-20.4-26.9
			C56.9,912.4,57.6,912.1,57.6,912.4z"/>
		<path class="st1" d="M79,941.5c0.6,0.6,0.3,0.6,0,0.6V941.5C79,941.1,78.7,941.5,79,941.5z"/>
		<path class="st5" d="M21.4,935.5c1.6,17.4,10.7,37.9,21.7,51.2c5,6,10.7,10.4,17.6,13.9c7.5,3.8,15.7,8.2,23.6,11.4
			c3.8,9.5,6.6,19.3,8.2,29.7c0.3-0.9,0.6-1.9,0.6-2.5c-5-43.6-33-80.9-69.2-104.9C22.7,932.9,21.1,933.9,21.4,935.5z"/>
		<path class="st1" d="M33.7,948.4c-0.3-0.3,0-0.6,0.3-0.6c19.2,14.2,36.2,34.8,45.9,56.9c0.3,0.6-0.6,1.3-0.9,0.6
			c-1.6-2.8-3.5-5.7-5-8.5c-8.2-1.6-16-7.3-22-13c-0.3,0,0-0.3,0.3-0.3c3.2,2.8,6.6,5.4,10.4,7.3c3.5,1.6,6.9,2.9,10.4,4.1
			c-3.1-4.7-6.3-9.5-9.4-13.9c-8.8-3.2-17.3-8.5-24.5-13.9c-0.3-0.3,0-0.6,0.3-0.3c7.5,4.4,15.1,8.5,23,12.3c-5-6.6-10.4-13-16-19
			c-2.8-1.6-5.7-2.8-8.2-4.4c-0.3,0,0-0.6,0.3-0.3c2.2,0.6,4.4,1.9,6.3,3.2C40.6,954.7,37.4,951.6,33.7,948.4z"/>
		<path class="st1" d="M34.6,963.6c0.6,0.3,0.9,0.6,1.3,0.9c0,0,0,0.3-0.3,0.3c-0.6-0.3-0.9-0.6-1.6-1
			C34,963.6,34.3,963.3,34.6,963.6z"/>
		<path class="st3" d="M149.5,1135.8H50.7l8.2-90.1l1.6-19.9h79.3l1.6,19.9L149.5,1135.8z"/>
		<path class="st1" d="M141.3,1045.8H58.8l1.6-19.9h79.3L141.3,1045.8z"/>
		<path class="st3" d="M144.4,1011.9H55.7v19.6h88.7V1011.9z"/>
	</g>
</g>
</svg>
