<?xml version="1.0" encoding="utf-8"?>
<!-- Generator: Adobe Illustrator 24.2.3, SVG Export Plug-In . SVG Version: 6.00 Build 0)  -->
<svg version="1.1" id="Layer_1" xmlns="http://www.w3.org/2000/svg" xmlns:xlink="http://www.w3.org/1999/xlink" x="0px" y="0px"
	 viewBox="0 0 1115.2 1145.3" style="enable-background:new 0 0 1115.2 1145.3;" xml:space="preserve">
<style type="text/css">
	.st0{clip-path:url(#SVGID_2_);}
	.st1{fill:#263238;}
	.st2{fill:#EBEBEB;}
	.st3{fill:#455A64;}
	.st4{fill:#FFFFFF;}
	.st5{fill:#04747F;}
	.st6{fill:#DBDBDB;}
	.st7{fill:#C7C7C7;}
	.st8{fill:#DC6A57;}
	.st9{fill:#37474F;}
	.st10{fill:#AD6359;}
	.st11{opacity:0.3;fill:#263238;enable-background:new    ;}
	.st12{fill:#A6A6A6;}
	.st13{fill:#DD6A57;}
	.st14{fill:none;stroke:#C7C7C7;stroke-width:0.5;stroke-miterlimit:10.0002;}
	.st15{fill:#FF9CBD;}
	.st16{fill:#EB9481;}
	.st17{clip-path:url(#SVGID_4_);}
	.st18{fill:#FAFAFA;}
	.st19{fill:#F0F0F0;}
	.st20{fill:#E0E0E0;}
	.st21{fill:#E6E6E6;}
	.st22{fill:#558688;}
	.st23{opacity:0.3;}
	.st24{opacity:0.2;enable-background:new    ;}
	.st25{fill:#F5F5F5;}
	.st26{opacity:0.15;enable-background:new    ;}
	.st27{opacity:0.6;enable-background:new    ;}
	.st28{opacity:0.35;enable-background:new    ;}
	.st29{opacity:0.25;enable-background:new    ;}
	.st30{opacity:0.45;enable-background:new    ;}
	.st31{fill:#FFA8A7;}
	.st32{opacity:0.4;fill:#FFFFFF;enable-background:new    ;}
	.st33{opacity:0.6;fill:#FFFFFF;enable-background:new    ;}
	.st34{opacity:0.8;fill:#FFFFFF;enable-background:new    ;}
	.st35{opacity:0.2;fill:#FFFFFF;enable-background:new    ;}
	.st36{opacity:0.2;}
	.st37{opacity:0.3;enable-background:new    ;}
	.st38{opacity:0.25;fill:#FFFFFF;enable-background:new    ;}
	.st39{opacity:0.45;fill:#FFFFFF;enable-background:new    ;}
	.st40{opacity:0.8;}
	.st41{opacity:0.6;}
	.st42{opacity:0.2;fill:#558688;enable-background:new    ;}
	.st43{opacity:0.4;}
	.st44{opacity:0.5;enable-background:new    ;}
	.st45{opacity:0.4;enable-background:new    ;}
	.st46{opacity:0.15;fill:#FFFFFF;enable-background:new    ;}
	.st47{opacity:0.7;fill:#FFFFFF;enable-background:new    ;}
	.st48{opacity:0.55;fill:#FFFFFF;enable-background:new    ;}
	.st49{opacity:0.35;fill:#FFFFFF;enable-background:new    ;}
	.st50{opacity:0.1;fill:#558688;enable-background:new    ;}
	.st51{fill:#FFBDA7;}
	.st52{fill:#B16668;}
	.st53{fill:#F0997A;}
	.st54{fill:#F28F8F;}
	.st55{opacity:0.1;enable-background:new    ;}
	.st56{opacity:0.3;fill:#FFFFFF;enable-background:new    ;}
	.st57{clip-path:url(#SVGID_6_);}
	.st58{fill:#D8D8D8;}
	.st59{fill:#2F8688;}
	.st60{fill:none;stroke:#E0E0E0;stroke-linecap:round;stroke-linejoin:round;stroke-miterlimit:10;}
	.st61{opacity:0.75;fill:#FFFFFF;enable-background:new    ;}
	.st62{opacity:0.25;}
	.st63{opacity:0.5;fill:#F5F5F5;enable-background:new    ;}
	.st64{opacity:0.1;fill:#FFFFFF;enable-background:new    ;}
	.st65{opacity:0.1;}
	.st66{clip-path:url(#SVGID_8_);}
	.st67{opacity:0.3;fill:#AEAEC6;enable-background:new    ;}
	.st68{fill:#E0E0EB;}
	.st69{fill:#558486;}
	.st70{fill:#6B8C8C;}
	.st71{fill:#406B6B;}
	.st72{fill:#C8C8DA;}
	.st73{fill:#46468A;}
	.st74{fill:#5757AA;}
	.st75{fill:#6969BF;}
	.st76{fill:#3B3B44;}
	.st77{fill:#2A2A30;}
	.st78{fill:#E79E8C;}
	.st79{fill:#EFC3B1;}
	.st80{opacity:0.5;fill:#C8C8DA;enable-background:new    ;}
	.st81{fill:#B0B0C3;}
	.st82{fill:#79C49C;}
	.st83{fill:#6AAC85;}
	.st84{fill:#8DDBB0;}
	.st85{fill:#8181D8;}
	.st86{fill:#505059;}
	.st87{fill:#AEAEC6;}
	.st88{fill:#89D6AC;}
	.st89{fill:#8DD9B0;}
	.st90{fill:#E1E1E1;}
	.st91{fill:#ECECEC;}
	.st92{fill:#1A2E35;}
	.st93{fill:#318486;}
	.st94{fill:#375A64;}
	.st95{fill:#FFC19D;}
	.st96{opacity:0.7;}
	.st97{fill:#FF9C6A;}
	.st98{fill:#7C4235;}
</style>
<g>
	<defs>
		<rect id="SVGID_7_" width="1115.2" height="1145.3"/>
	</defs>
	<clipPath id="SVGID_2_">
		<use xlink:href="#SVGID_7_"  style="overflow:visible;"/>
	</clipPath>
	<g class="st0">
		<path class="st67" d="M106.8,1069.7l155.1-89.6l-104.2-61.8L2.8,1007.9L106.8,1069.7z"/>
		<path class="st67" d="M135.1,733.8L0,653.4l123.6-72.5L258.8,661L135.1,733.8z"/>
		<path class="st67" d="M1013.7,1103.2l-134.8-80.3l49.7-28.7l135.1,80.1L1013.7,1103.2z"/>
		<path class="st67" d="M787.2,997.3l-139.1-80.3c1.7-5.3,2.8-10.7,2.8-16.3c0-48.6-70-87.9-156.2-87.9c-10.4,0-20.5,0.6-30.3,1.7
			L289.1,713l-104.2,61.8l163.8,94.7c-6.4,9.8-10.1,20.2-10.1,31.2c0,48.6,69.9,87.9,156.2,87.9c19.7,0,38.8-2,56.2-5.9l132.4,76.4
			L787.2,997.3z"/>
		<path class="st68" d="M994.6,426.2l13.5,39l14,1.7v-64.3l-14-1.7l-13.5-39c-61.2-177-284.9-308.4-588.3-347.2v64.3
			C709.7,117.7,933.4,249.2,994.6,426.2z"/>
		<path class="st69" d="M401.5,546.7l4.8,14.3v-13.5L401.5,546.7z"/>
		<path class="st69" d="M994.6,908.2l13.5,39l14,1.7v-44.7V466.9l-14-1.7l-13.5-39c-61.2-177-284.9-308.4-588.3-347.2v468.3V561
			C709.7,599.8,933.4,731.2,994.6,908.2z"/>
		<path class="st68" d="M548.7,267.1c-30.6-7.6-62.4-14-94.9-19.4v98c32.9,5.3,64.3,11.8,94.9,19.4V267.1z"/>
		<path class="st68" d="M787.5,360.4c-29.8-17.4-62.4-33.1-97.2-47.5v98c34.8,14.3,67.2,30.1,97.2,47.5V360.4z"/>
		<path class="st68" d="M665.1,303.1c-29.5-11-60.4-21.1-93-29.8v98c32.3,8.7,63.5,18.8,93,29.8V303.1z"/>
		<path class="st68" d="M548.7,408.5c-30.6-7.6-62.4-14.1-94.9-19.4v98c32.9,5.3,64.3,11.8,94.9,19.4V408.5z"/>
		<path class="st68" d="M787.5,501.7c-29.8-17.4-62.4-33.1-97.2-47.5v98c34.8,14.3,67.2,30.1,97.2,47.5V501.7z"/>
		<path class="st68" d="M665.1,444.1c-29.5-11-60.4-21.1-93-29.8v98c32.3,8.7,63.5,18.8,93,29.8V444.1z"/>
		<path class="st68" d="M814.8,253.7c-94.1-61-217.4-105.9-361.3-129.5v23.6c143.6,23.6,267.2,68.5,361.3,129.5V253.7z"/>
		<path class="st68" d="M814.8,310.1c-94.1-61-217.4-105.9-361.3-129.5v23.6c143.6,23.6,267.2,68.5,361.3,129.5V310.1z"/>
		<path class="st70" d="M1007.6,349.2C945.2,169.1,714.8,36,402.9,0l3.7,14.6c303.1,38.8,526.8,170.2,588,346.9l13.5,39l1.7-0.3
			l16,2L1007.6,349.2z"/>
		<path class="st71" d="M1026.1,402.3v546.7l-18-1.7V400.9L1026.1,402.3z"/>
		<path class="st71" d="M401.5,0.3v546.4l4.8,14.3V14.6L401.5,0.3z"/>
		<path class="st69" d="M531.6,281.5c-4.2-3.4-16.9,5.3-21.3,8.7c-7.1-0.8-16-6.2-34,4.8c-1.4,0.8-1.1,5.1,2.2,4.2
			c8.7-2,14-0.8,22.5-0.3c-1.4,1.7-3.1,3.4-4.2,5.1c-4.8,5.3-4.8,7.6-8.1,12.6c-5.1-1.4-13.2,0.8-17.7,3.1c-1.4,0.6-1.1,2.8,0.3,3.1
			c2.2,0.6,4.5,1.1,6.4,1.7c8.7,2.5,10.1,11.8,12.4,15.5c0.5,1.1,2.8,1.4,3.4,0c2.2-4.8,2-12.1,0.3-17.7
			c6.1-4.5,12.4-10.4,17.1-15.7c5.3,8.4,6.1,15.7,7.6,23.9c0.2,1.7,2.8,1.7,3.6,0.6c5.1-8.7,4.8-23.3-1.9-32.6
			C525.7,293.3,535,284.3,531.6,281.5z"/>
		<path class="st69" d="M623.8,306.5c0,0-11.5-3.1-15.5-2c-3.9,0.8-5.9,6.7-6.5,14.6c-0.5,5.9-0.5,12.9-0.5,12.9l38.8,10.4
			c0,0-0.5-13.2-0.8-20.2C638.7,314.6,636.4,309.3,623.8,306.5z"/>
		<path class="st69" d="M590.6,348.9c0,0-1.1-23.6,11.2-21.6c12.4,2.2,32.1,8.1,37.9,10.4c9,3.4,6.2,25.8,6.2,25.8L590.6,348.9z"/>
		<path class="st69" d="M594,344.1c0,0-2.5,18.3,6.1,18c7.9,0,7.1-16.9,7.1-16.9L594,344.1z"/>
		<path class="st69" d="M627.1,353.1c0,0-2.5,18.3,6.1,18c7.9,0,7.1-16.9,7.1-16.9L627.1,353.1z"/>
		<path class="st68" d="M608,327.8c0,0-1.1-9.8,2.8-14.6c2-2.2,5.9-2,10.4-1.1c4.2,0.8,9,2,10.7,5.1c3.4,6.7,0.3,17.4,0.3,17.4
			L608,327.8z"/>
		<path class="st69" d="M708.6,369.1l4.5,23.3c0,0,20.2,8.7,27.2,11.8c5.4,2.2,23.3,11.5,23.3,11.5l11.8-17.4c0,0-18.3-11-45-21.4
			C723.8,374.2,716.5,371.7,708.6,369.1z"/>
		<path class="st69" d="M721.8,376.1l10.4-14c0,0,21.6,5.9,25.3,11c3.4,4.5,2.5,21.4,2.5,21.4L721.8,376.1z"/>
		<path class="st68" d="M735,367.4l-5.6,7.6l15.7,6.7C745.1,381.8,750.5,370.3,735,367.4z"/>
		<path class="st69" d="M529.9,450c-2.5,0.3-4.8,1.4-6.8,2.5c0.8-2,8.1-21.1-11.2-28.4c-7.4-2.8-17.2,0.8-20.6,17.4
			c-0.8,4.2-2.2,7.6-5.1,8.7c0,0,3.4-12.4-7-15.5c-8.4-2.2-16.6,8.4-13.5,16.6c2.5,6.7,9.6,11.2,16.9,9.8c1.9-0.3,3.6-1.1,5.3-2
			c4,5.1,10.7,9,17.4,7.9c2.3-0.3,4.2-1.1,6.2-2.2c3.9,11.8,29.8,12.4,28.6-4.8C539.7,454,536.7,449.5,529.9,450z M472.9,451.7
			c-4.2-5.6-0.8-10.7,2.2-11.8c7.8-2.8,10.1,3.1,7.8,9C482.1,451.7,474.6,454,472.9,451.7z M497.3,463c-2.5-0.8-5.1-3.1-7.3-4.8
			c1.7-1.1,4.2-3.1,8.1-12.6c5.6-14,19.1-15.2,20.3,2.8C518.9,462.1,503.2,465.2,497.3,463z M518.1,461c2.8-1.4,3.7-5.6,7.1-5.9
			C549.6,452.8,526.5,481.8,518.1,461z"/>
		<path class="st69" d="M647.3,484.9c-0.2-13.2-4.5-24.2-15.4-25c-5.9-0.3-10.7,2.5-16,5.3c-4.5,2.5-9.3,6.5-14.9,5.6
			c-12.1-1.4-9-11.5-8.1-18c-7.1,4.2-9.8,19.1-1.4,24.7c5.1,3.1,10.9,3.1,16.3,1.4c4.8-1.4,9-5.1,13.7-6.5
			c9.6-2.5,17.4,2.8,20.6,11.2c-0.8,0-2,0-3.1,0c-19.3,0.6-31.5,21.4-49.7,1.7c-3.1,10.1,4.2,18.5,11.8,21.4
			c5.6,2,11.8,1.1,17.4-1.1c9.3-3.4,27-19.1,33.7,0c0.8,2,2.3,1.7,3.4-0.3C660.8,495.8,656.6,488,647.3,484.9z"/>
		<path class="st69" d="M769,522.8c-14.3-19.9-44.4-22.8-64-8.4c-0.6,0.6,0,1.4,0.5,1.1c23.9-5.3,43.8-6.7,63.5,10.1
			C771,527.6,770.4,525,769,522.8z"/>
		<path class="st69" d="M771.8,548.9c-14.3-19.9-44.4-22.8-64.1-8.4c-0.5,0.6,0,1.4,0.6,1.1c23.9-5.3,43.8-6.7,63.5,10.1
			C774,554,773.5,551.2,771.8,548.9z"/>
		<path class="st69" d="M718.7,518.3c-5.6,0-5.6,8.7,0,8.7C724.3,527,724.3,518.3,718.7,518.3z"/>
		<path class="st69" d="M736.1,544.1c-5.6,0-5.6,8.7,0,8.7C741.7,552.6,741.7,544.1,736.1,544.1z"/>
		<path class="st69" d="M739.2,518.3c-5.6,0-5.6,8.7,0,8.7C744.8,527,744.8,518.3,739.2,518.3z"/>
		<path class="st69" d="M758.6,524.2c-5.6,0-5.6,8.7,0,8.7C764.2,532.9,764.2,524.2,758.6,524.2z"/>
		<path class="st69" d="M754.7,546.4c-5.7,0-5.7,8.7,0,8.7C760,554.8,760,546.4,754.7,546.4z"/>
		<path class="st72" d="M228.2,680.7c0,1.4-14.9,94.7-14.9,94.7c0,1.4,2,2.5,4.5,2.5c2.5,0,4.5-1.1,4.5-2.5l16.3-88.2L228.2,680.7z"
			/>
		<path class="st72" d="M312.2,727.9c0,1.4-2.3,103.1-2.3,103.1c0,1.4,2,2.5,4.5,2.5c2.5,0,4.5-1.1,4.5-2.5l3.6-96.3L312.2,727.9z"
			/>
		<path class="st72" d="M385.8,686.3c0,1.4-2.3,103.1-2.3,103.1c0,1.4,2,2.5,4.5,2.5s4.5-1.1,4.5-2.5l3.6-96.4L385.8,686.3z"/>
		<path class="st72" d="M303.4,638.8c0,1.4-14.9,94.7-14.9,94.7c0,1.4,2,2.5,4.5,2.5c2.5,0,4.5-1.1,4.5-2.5l16.3-88.2L303.4,638.8z"
			/>
		<path class="st73" d="M308,627.6L226.2,675V565.8l81.8-47.2V627.6z"/>
		<path class="st74" d="M218.9,562.1v118.6l7.3,3.7V565.8L218.9,562.1z"/>
		<path class="st75" d="M308,518.6l-7.4-3.9l-81.7,47.5l7.3,3.7L308,518.6z"/>
		<path class="st75" d="M401.8,682.1L320,729.3L226.2,675l81.8-47.5L401.8,682.1z"/>
		<path class="st74" d="M320,729.3v9.8l-101.1-58.4v-10.1L320,729.3z"/>
		<path class="st73" d="M320,729.3v9.8l81.7-47.2v-9.8L320,729.3z"/>
		<path class="st72" d="M314.4,461.3c-0.3-4.2,22.5-11,40.1,16.9c18,27.8,28.4,56.2,28.4,56.2s22.8-6.5,34.5-8.7
			c10.4,0.8,14.1,22.8,10.1,27.8c-5.1,6.2-12.6,7.3-16.6,8.7c-14,5.3-35.1,10.4-42.1,8.4c-15.4-4.5-29.8-35.4-34.8-45.2
			C329.3,514.9,314.4,461.3,314.4,461.3z"/>
		<path class="st76" d="M463.6,801.5c7.3,7.3,9.5,9.3,16.6,16c3.9,3.9,0.8,7.6-7.1,7.3c-6.7-0.3-21.9-3.7-30.3-6.5
			c-5.9-2.2-17.1-8.2-22.7-11.8c-5.7-3.7-6.8-8.4-6.8-8.4V786l36.2,1.4C449.9,787.4,455.7,793.9,463.6,801.5z"/>
		<path class="st76" d="M399.8,839.4c7.3,7.3,9.5,9.3,16.6,16c3.9,3.9,0.8,7.6-7.1,7.3c-6.8-0.3-21.9-3.7-30.3-6.5
			c-5.9-2.2-17.1-8.1-22.8-11.8c-5.6-3.7-6.8-8.4-6.8-8.4v-21.1l36.3,10.7C386,825.1,391.9,831.5,399.8,839.4z"/>
		<path class="st77" d="M270.3,616l72.5-27.8c0,0,11.8,11.5,33.7,24.7c12.7,7.6,47.7,28.4,59,36.2c7,4.8,10.1,15.4,12.7,39.3
			c4.5,39.3,7.6,93.8,7.6,93.8s-7.9,11-25.6,11c-13.4,0-23.9-4.2-23.9-4.2l-2.8-100l-59-34.6c0,0,33.7,20.8,38.5,39.3
			c4,14.9,5.1,26.1,5.9,44.7c1.4,39.9,1.7,82.9,1.7,82.9s-2.5,13.2-20.5,13.2c-13.5,0-24.7-11.2-24.7-11.2l-3.7-108.2
			c0,0-51.1-36.5-64.6-52C262.2,645.8,270.3,616,270.3,616z"/>
		<path class="st68" d="M327.6,461c0,0,23,18.5,25.9,45c0.5,6.5-0.6,30.6,0.8,50.3c1.4,20.8,4.5,36-1.1,41.3
			c-13.7,12.6-60.9,28.9-85.1,25.3c-14-9-4.2-33.4-5.6-43c-4-29.2-9.6-76.7-8.4-84.3c1.7-12.9,31.2-27,31.2-27S306,452.6,327.6,461z
			"/>
		<path class="st74" d="M324.5,486.8l1.7,12.9c0,0,7.3,19.9,8.7,28.9c1.7,9,4.8,47.8,4.8,47.8l-5.6,15.2l-10.7-8.4l-5.1-80.1
			l-8.1-9.5l7.6-9L324.5,486.8z"/>
		<path class="st78" d="M319.5,460.1l1.4,20.2c0,0-2.8,3.9-9.5,9.8c-7.4-2.2-24.5-18-24.5-18l5.6-31.5L319.5,460.1z"/>
		<path class="st79" d="M289.4,406.2c7.6-9.8,29.5-18,43.8,3.4c14.9,22.2,0.8,58.4-12.4,56.5c-7.3-1.1-23.9-7.9-31.2-19.7
			C281.5,432.6,283.5,413.5,289.4,406.2z"/>
		<path class="st4" d="M319.8,465.8l-1.7,18.8l13.4,5.3C331.5,489.9,333,470,319.8,465.8z"/>
		<path class="st4" d="M288.9,461c0,0,4.5,6.7,12.4,14.6c6.1,5.9,16.9,9,16.9,9l-5.1,15.2c0,0-18.6-8.4-25.3-15.7
			C287.7,483.7,279.9,470,288.9,461z"/>
		<path class="st77" d="M319.5,409.3c-19.7,7-17.7,29.5-17.7,29.5s-2,0-3.7-0.6c-1.4-5.1-3.3-6.2-5.8-4.2
			c-2.8,2.5-2.5,11.8-2.5,11.8s-10.7-9.3-10.7-24.4c0-9.5,8.4-30.1,25.8-32.3c17.4-2.2,37.4,10.4,29.8,22.5
			C329.6,408.4,324.8,407.3,319.5,409.3z"/>
		<path class="st4" d="M281.8,528.7l23-9.6c0,0,7.1,22.8-7.8,28.9C281.6,554.5,281.8,528.7,281.8,528.7z"/>
		<path class="st4" d="M333.8,508.2l16.3-7.9c0,0,5.6,22.7-4.8,26.4C336.9,529.8,333.8,508.2,333.8,508.2z"/>
		<path class="st72" d="M274.8,490.2c-20.8-14.9-26.4,12.6-26.4,36.5c0,18.5,14.9,39,33.4,68c7.9,12.1,43.3,32.9,58.7,28.7
			c11.3-3.1,4.8-23.3,4.8-23.3s-0.3-4.2-16.9-16c-5.4-3.9-12.4-10.1-20.8-15.4C294.2,531.2,294.2,504.2,274.8,490.2z"/>
		<path class="st79" d="M421.5,530.9c0,0,12.7-8.7,20.5-8.7c8.7,0,17.1,5.1,23,5.9c5.9,0.8,14.3-0.3,16.3,1.7
			c1.9,2,1.7,9.8-5.9,12.6c-7.6,2.8-15.2,4.8-21.9,2.2c-6.8-2.5-14-1.1-19.1,1.1c-7.3,3.1-6.1,3.7-9.3-5.1
			C422,532.1,421.5,530.9,421.5,530.9z"/>
		<path class="st79" d="M450.9,525.6c0,0,5.4-2.2,10.1-5.9c3.7-2.5,6.5,0.3,2.5,4.5c-3.9,4.2-5.9,5.3-5.9,5.3L450.9,525.6z"/>
		<path class="st4" d="M418.9,529.5c0,0-3.4,3.7-2,11.2c1.4,7,9,9.3,9,9.3l8.2-4.2c0,0-8.4-3.7-9.3-9c-0.8-5.3,2.5-9.8,2.5-9.8
			L418.9,529.5z"/>
		<path class="st4" d="M344.2,598.1c0,0-7.9,0.6-9.3,10.4c-1.1,9.8,4.2,13.8,4.2,13.8l10.4,0.8c0,0-5-5.9-2.5-11.5
			c2.5-5.6,4.2-8.1,4.2-8.1L344.2,598.1z"/>
		<path class="st76" d="M282.9,468.8c5.1,3.7,13.2,13.5,21,22.2c12.4,14,23.3,44.7,26.4,50.8c2.5-7,6.2-42.1,3.1-55.3
			c-2.3-9.8-5.4-16.9-8.4-21.6c0.5-0.6,1.7-0.8,2.2-1.4c3.4,5.1,6.4,12.6,8.4,22.5c3.7,17.1-3.9,58.2-4.2,59.3l-1.1,2.8l-1.1-2.5
			c0-0.3-11.8-35.4-27.2-52.8c-7.9-8.7-18.9-20.5-20.8-22.2C280.4,470,280.4,467.2,282.9,468.8z"/>
		<path class="st4" d="M337.4,532.6l1.7,24.4l-15.4,9l-1.7-24.4L337.4,532.6z"/>
		<path class="st71" d="M336.6,534.9v2.8l-12.9,7.6l-0.3-2.8L336.6,534.9z"/>
		<path class="st68" d="M331.8,542.7l1.1,16l-7.8,4.5l-1.1-15.7L331.8,542.7z"/>
		<path class="st72" d="M490.5,920.6c25.1,0,45.5-11.4,45.5-25.6c0-14.1-20.4-25.6-45.5-25.6S445,880.9,445,895
			C445,909.1,465.4,920.6,490.5,920.6z"/>
		<path class="st72" d="M444.9,895.2h91v-7.6h-91V895.2z"/>
		<path class="st4" d="M445,888.8c0,14,20.5,25.6,45.5,25.6c25.3,0,45.5-11.5,45.5-25.6c0-14-20.5-25.6-45.5-25.6
			C465.3,863,445,874.5,445,888.8z"/>
		<path class="st80" d="M456,888c0,10.7,15.4,19.4,34.5,19.4c19.1,0,34.6-8.7,34.6-19.4s-15.5-19.4-34.6-19.4
			C471.4,868.6,456,877.3,456,888z"/>
		<path class="st72" d="M495.4,656.8h-9.9v228.7h9.9V656.8z"/>
		<path class="st72" d="M485.5,886c0,1.4,2.3,2.8,4.8,2.8c2.5,0,4.8-1.1,4.8-2.8c0-1.7-2.2-2.8-4.8-2.8
			C487.8,883.2,485.5,884.6,485.5,886z"/>
		<path class="st73" d="M334.1,697.8c0,48.6,70,87.9,156.2,87.9c86.3,0,156.2-39.3,156.2-87.9c0-48.6-69.9-87.9-156.2-87.9
			C404,609.9,334.1,649.2,334.1,697.8z"/>
		<path class="st73" d="M620.6,701.1h26.2v-18.3h-26.2V701.1z"/>
		<path class="st73" d="M334.3,701.1h26.2v-18.3h-26.2V701.1z"/>
		<path class="st75" d="M334.1,686.8c0,48.6,70,87.9,156.2,87.9c86.3,0,156.2-39.3,156.2-87.9c0-48.6-69.9-87.9-156.2-87.9
			C404,598.6,334.1,638.2,334.1,686.8z"/>
		<path class="st79" d="M351.5,603.4c0,0-7.8,3.4-7.6,10.1c0.3,7.3,5.9,9.6,5.9,9.6s15.5,11.2,26.4,11.2c11,0,14-7.6,12.7-10.7
			c-2.5-5.1-16.6-7-22.2-13.5C360.2,603.1,357.1,602.6,351.5,603.4z"/>
		<path class="st79" d="M345.6,616.9c0,0,5.9,8.4,6.2,12.6c0.3,3.9,1.7,5.6,3.4,3.9c1.7-1.7,3.1-5.9,1.4-9.3
			C354.6,621.1,345.6,616.9,345.6,616.9z"/>
		<path class="st79" d="M599.9,924.2c-8.1-3.9-15.7-9-13.2-13.8c1.1-2,3.6-3.1,6.1-3.4c7.6,2.5,11.3,4.2,11.3,4.2s-0.8-43.3-4-61.2
			c-1.1-5.9,27.2-6.2,27.2-6.2c1.1,4.2,2,40.7,0,62.9c-0.5,7.3-0.2,12.4,0.3,16c-1.9,0.8-5.9,2.5-9,3.9
			C614.8,928.1,608,928.1,599.9,924.2z"/>
		<path class="st76" d="M628,934.1c-2.8,6.5-9,5.9-21.6,1.4c-11.3-3.9-20.5-8.7-28.4-14.6c-7.8-5.9-8.1-6.7-9-10.7
			c-1.4-5.6,6.8-8.7,20.3-4.5c1.4,0.3,2.5,0.8,3.6,1.1c-2.5,0.3-5.1,1.4-6.1,3.4c-2.5,4.5,5.3,9.6,13.2,13.8
			c8.1,3.9,14.6,3.9,18.8,2.2c3.1-1.4,7-3.1,9-3.9C628.5,927.9,629.7,930.4,628,934.1z"/>
		<path class="st79" d="M567,943c-8.1-3.9-15.7-9-13.2-13.8c1.1-2,3.7-3.1,6.2-3.4c7.6,2.5,11.2,4.2,11.2,4.2s-3.9-70.2-7.3-88.2
			c-1.1-5.9,29.2,5.1,29.2,5.1c1.1,4.2,3.1,56.2,1.1,78.4c-0.6,7.3-0.3,12.4,0.2,16c-1.9,0.8-5.9,2.5-9,3.9
			C581.9,947.3,575.2,947.3,567,943z"/>
		<path class="st76" d="M595.1,953.2c-2.8,6.5-9,5.9-21.6,1.4c-11.3-3.9-20.6-8.7-28.4-14.6c-7.9-5.9-8.1-6.7-9-10.7
			c-1.4-5.6,6.7-8.7,20.2-4.5c1.4,0.3,2.5,0.8,3.7,1.1c-2.5,0.3-5.1,1.4-6.2,3.4c-2.5,4.5,5.4,9.6,13.2,13.8
			c8.2,3.9,14.6,3.9,18.9,2.2c3.1-1.4,7-3.1,9-3.9C595.7,946.7,596.8,949.2,595.1,953.2z"/>
		<path class="st72" d="M583.3,885.7c0,1.4-14.3,91.9-14.3,91.9c0,1.4,2,2.5,4.5,2.5s4.5-1.1,4.5-2.5l15.7-85.4L583.3,885.7z"/>
		<path class="st72" d="M674.6,931.5c0,1.4,15.4,109,15.4,109c0,1.4-2,2.5-4.5,2.5c-2.5,0-4.5-1.1-4.5-2.5l-16.9-102.8L674.6,931.5z
			"/>
		<path class="st72" d="M745.7,890.2c0,1.4,15.4,109,15.4,109c0,1.4-1.9,2.5-4.5,2.5c-2.5,0-4.5-1.1-4.5-2.5l-16.9-102.8
			L745.7,890.2z"/>
		<path class="st72" d="M656.4,845.3c0,1.4-14.3,91.9-14.3,91.9c0,1.4,2,2.5,4.5,2.5s4.5-1.1,4.5-2.5l15.7-85.4L656.4,845.3z"/>
		<path class="st75" d="M751.9,887.1l-79.5,45.8l-98-56.7l79.2-45.8L751.9,887.1z"/>
		<path class="st74" d="M672.4,932.9v9.6l-98-56.7v-9.6L672.4,932.9z"/>
		<path class="st79" d="M663.1,614.6c-3.1,2.2-14.3,4.8-17.7,29.8c-2.3,16.9,3.4,24.4,8.1,28.9c2,2,9.8,2.2,9.8,2.2l-0.3,18.8
			c0,0,11,4.5,21.6,0c10.7-4.5,10.7-4.5,10.7-4.5s-4.2-7-3.4-19.4c0.8-15.2,6.2-37.1,2.5-45.2C687.2,610.7,671.3,609,663.1,614.6z"
			/>
		<path class="st69" d="M720.7,851.2c-3.1,23.3-23.3,34.3-46.1,32.9c-21.4-1.1-37.1-12.1-52.3-25c2.8-19.7,7.3-40.2,14.3-58.4
			c1.7-4.5,10.1-23.9-2.5-51.1c-6.1-13.2,7.9-37.6,11.8-46.4c3.9-8.7,16.6-14,16.6-14l32.3,0.6c0,0,11.5,20.2,13.8,37.6
			c2.2,17.4,3.4,25,0.5,47.2c-0.8,6.2-3.1,20.8,7.3,47.5C718.7,827.3,720.2,838.3,720.7,851.2z"/>
		<path class="st76" d="M644.6,636c0.8,8.7,7.8,11.2,14.3,17.7c6.1,6.5,9.8,12.9,23.3,22.8c5.1,3.7,3.7,31.5,13.5,51.1
			c10.1,21.1,4.2,25,4.2,25s29.2-9.5,17.4-42.1c-4.2-11.8-21-21.6-21.6-34.3c-0.2-5.9,7.6-11.5,9.8-22.5
			c7.9-34.3-8.1-44.1-23.3-47.2C655.5,601.2,642.9,618.3,644.6,636z"/>
		<path class="st79" d="M649.3,703.7c6.2-0.6,12.7,10.7,12.1,25c-0.8,18.3-39,60.7-39,60.7c-12.7,7.6-50.3-15.7-59.6-16.9
			c-9.2-1.1-20.8-9-25.8-15.2c-4.5-5.9,12.9-13.8,21.9-8.1c6.5,4.2,4.8,9.5,10.1,10.4c23.6,3.4,45,9.8,45,9.8
			S637.3,704.8,649.3,703.7z"/>
		<path class="st79" d="M651.9,648.4c0,0,6.8-11.2,9.6,0c2.5,10.4-6.5,14.1-6.5,14.1L651.9,648.4z"/>
		<path class="st69" d="M698.2,670c0,0,0.3,7.3-1.1,8.7c-1.9,2.2-9.5,4.8-12.4,3.6c-2.2-0.8-5.9-5.6-6.1-8.1
			C688.4,673.4,698.2,670,698.2,670z"/>
		<path class="st69" d="M706.3,876.2c0,0-11.5,19.4-63.2,7.9c-47.2-10.7-79.2-19.9-79.7-34c-1.1-23.9,6.5-36.8,32.6-45.2
			c19.1-6.2,55.1-10.7,55.1-10.7L706.3,876.2z"/>
		<path class="st71" d="M639,795.6c0,0-2.3,18.8,5.8,32.3c8.2,13.5,10.1,16.3,17.2,25.3c6.8,8.7-17.2,11.2-23.9-3.1
			c-6.8-14.3-4-29.5-9.6-31.2c-5.9-1.7-17.7,20.5-25,19.1c-7.6-1.4,3.9-36,3.9-36L639,795.6z"/>
		<path class="st73" d="M672.4,827v105.9v9.6l79.5-45.8v-9.5V781.2L672.4,827z"/>
		<path class="st74" d="M665.4,823.4v114.9l7,3.9V827L665.4,823.4z"/>
		<path class="st75" d="M751.9,781.2l-7.3-3.6l-79.2,45.8l7,3.7L751.9,781.2z"/>
		<path class="st4" d="M567.3,747.2l49.4-28.7l-77.5-44.7l-49.5,28.4L567.3,747.2z"/>
		<path class="st4" d="M484.4,687.4l-57.9-33.7l87.1-50.3l57.9,33.7L484.4,687.4z"/>
		<path class="st72" d="M426.5,653.7v-15.5l57.9,33.7v15.4L426.5,653.7z"/>
		<path class="st81" d="M571.5,637.1l-87.1,50.3V672l5.6-3.4v9.8l75.9-44.1v-69.9l5.6-3.4V637.1z"/>
		<path class="st68" d="M426.5,638.2l57.9,33.7l5.6-3.4l-58.2-33.4L426.5,638.2z"/>
		<path class="st68" d="M513.6,534.3l52.3,30.3l5.9-3.1l-52.9-30.6L513.6,534.3z"/>
		<path class="st72" d="M565.9,564.4l-52.3-30.1v69.1l52.3,30.9V564.4z"/>
		<path class="st82" d="M511.3,540.8l-18,72.8l50.3,28.9l18-73L511.3,540.8z"/>
		<path class="st4" d="M514.5,549.5l-4.2,16.9l41,23l4.5-16.6L514.5,549.5z"/>
		<path class="st83" d="M508.8,571.9l-9.8,39l41,23.3l9.8-39.3L508.8,571.9z"/>
		<path class="st83" d="M561.7,569.4h3.4l-18,73h-3.3L561.7,569.4z"/>
		<path class="st84" d="M511.3,540.8l50.3,28.7h3.4l-50.6-28.7H511.3z"/>
		<path class="st75" d="M502.4,546.7l-18,72.8l50.3,28.9l18-72.8L502.4,546.7z"/>
		<path class="st4" d="M505.5,555.7l-4.2,16.9l41,23l4.5-16.9L505.5,555.7z"/>
		<path class="st74" d="M499.6,577.8l-9.6,39l41,23.3l9.8-39.3L499.6,577.8z"/>
		<path class="st74" d="M552.7,575.6h3.4l-18,72.8h-3.4L552.7,575.6z"/>
		<path class="st85" d="M502.4,546.7l50.3,28.9h3.3l-50.6-28.9H502.4z"/>
		<path class="st69" d="M491.7,565.2l-18,72.8l35.9,20.8l18-73L491.7,565.2z"/>
		<path class="st4" d="M494.8,573.3l-1.7,5.3l28.1,15.7l1.4-5.3L494.8,573.3z"/>
		<path class="st4" d="M491.7,582.6l-1.4,5.3l28.1,15.7l1.4-5.3L491.7,582.6z"/>
		<path class="st71" d="M489.7,595.3l-9.8,39l26.2,14.9l9.8-39L489.7,595.3z"/>
		<path class="st71" d="M527.7,585.7h3.1l-17.7,73h-3.4L527.7,585.7z"/>
		<path class="st70" d="M491.7,565.2l36,20.5h3.1l-36-20.5H491.7z"/>
		<path class="st82" d="M473.7,577.6l-18,72.5l35.9,20.8l18-72.8L473.7,577.6z"/>
		<path class="st4" d="M476.8,585.4l-1.4,5.3l27.8,16l1.4-5.6L476.8,585.4z"/>
		<path class="st4" d="M474,594.7l-1.7,5.3l28.1,16l1.4-5.6L474,594.7z"/>
		<path class="st83" d="M471.7,607.6l-9.8,39l26.2,14.9l9.8-39.3L471.7,607.6z"/>
		<path class="st83" d="M509.7,598.1h3.3l-18,72.8h-3.4L509.7,598.1z"/>
		<path class="st84" d="M473.7,577.6l35.9,20.5h3.4l-36.2-20.5H473.7z"/>
		<path class="st77" d="M1115.2,1057.1l-152.9,88.2l-11.2-6.5l153.1-88.2L1115.2,1057.1z"/>
		<path class="st86" d="M1115.2,1051.2l-152.9,88.2l-11.2-6.5l153.1-88.2L1115.2,1051.2z"/>
		<path class="st77" d="M1115.2,1051.2l-152.9,88.2v5.9l152.9-88.2V1051.2z"/>
		<path class="st76" d="M951.1,1132.9v5.9l11.2,6.5v-5.9L951.1,1132.9z"/>
		<path class="st77" d="M969.3,972l-152.9,88.5l-11-6.5l152.9-88.2L969.3,972z"/>
		<path class="st86" d="M969.3,966.1l-152.9,88.2l-11-6.2l152.9-88.5L969.3,966.1z"/>
		<path class="st77" d="M969.3,966.1l-152.9,88.2v6.2L969.3,972V966.1z"/>
		<path class="st76" d="M805.5,1048.1v5.9l11,6.5v-6.2L805.5,1048.1z"/>
		<path class="st76" d="M886.8,1001.2l157.6,91v-16.9l-157.6-91V1001.2z"/>
		<path class="st77" d="M1044.3,1092.2l7.6-4.2v-16.6l-7.6,3.9V1092.2z"/>
		<path class="st86" d="M894.6,980.4l-7.8,3.9l157.6,91l7.6-3.9L894.6,980.4z"/>
		<path class="st87" d="M900.5,514.9l-7.9,242.4l7.9,227l138.8,87.9l7-3.9c0,0-7.8-176.1-7.8-234.8c0-58.7,7.8-234.6,7.8-234.6
			L900.5,514.9z"/>
		<path class="st72" d="M893.5,518.9c0,0-6.7,175.9-6.7,233.2c0,59.8,6.7,236.3,6.7,236.3l145.6,84c0,0-6.8-179.8-6.8-240.7
			c0-56.2,6.8-228.7,6.8-228.7L893.5,518.9z"/>
		<path class="st76" d="M886.8,523.6l157.6,90.7v-16.6l-157.6-91V523.6z"/>
		<path class="st77" d="M1044.3,614.4l7.6-3.9v-16.9l-7.6,4.2V614.4z"/>
		<path class="st86" d="M894.6,502.8l-7.8,3.9l157.6,91l7.6-4.2L894.6,502.8z"/>
		<path class="st4" d="M901.7,789.9v10.4l121.3,70.2v-10.7L901.7,789.9z"/>
		<path class="st4" d="M901.7,811.8v10.7l121.3,69.9v-10.4L901.7,811.8z"/>
		<path class="st4" d="M901.7,834.3l3.1,146.6l121.6,70.2l-3.4-146.9L901.7,834.3z"/>
		<path class="st4" d="M903.3,593.6v10.7l121.3,70.2v-10.7L903.3,593.6z"/>
		<path class="st4" d="M903.3,615.8v10.7l121.3,69.9v-10.7L903.3,615.8z"/>
		<path class="st4" d="M991.2,758.5c0,20.2-12.1,29.2-27.2,20.5c-15.1-8.7-27.2-32-27.2-52.2c0-20.2,12.1-29.2,27.2-20.5
			C978.9,714.9,991.2,738.2,991.2,758.5z"/>
		<path class="st4" d="M927.8,715.8c0-19.1,7.1-32,18-36c-19.7-5.9-34.2,8.4-34.2,36.2c0,31.5,19.1,68,42.7,81.7
			c9.3,5.3,17.7,6.5,24.7,3.7c-2.8-0.8-5.6-2-8.4-3.7C946.9,783.8,927.8,747.2,927.8,715.8z"/>
		<path class="st4" d="M1013.2,765.2c0-31.5-19.1-68-42.7-81.7c-9.3-5.3-17.7-6.5-24.8-3.7c2.8,0.8,5.7,2,8.4,3.7
			c23.6,13.8,42.7,50.3,42.7,81.7c0,19.1-7.1,32-18,36C998.6,807.4,1013.2,792.7,1013.2,765.2z"/>
		<path class="st72" d="M947.4,690.2c0,0-8.1-1.7-8.7,16.9c-0.3,12.4,14.3,36,14.3,36h-7.9c0,0,7.6,10.7,15.2,16.6
			c5.6,4.2,14,7.6,14,7.6s2-29.5-5.6-44.9c-3.7,5.9-7.6,13.8-7.6,13.8s-9-23.6-8.7-33.4c0.6-12.9,5.9-11,5.9-11L947.4,690.2z"/>
		<path class="st86" d="M134,708.2L21.6,643.9l95.5-55.1l112.1,64L134,708.2z"/>
		<path class="st87" d="M144.1,575.6c0-105.6,40.2-225,41.9-230.3L73.9,280.6c0,0-41.9,122.8-41.9,230.6c0,58.4,0,126.7,0,126.7
			l102,69.9l10.4-5.6C144.1,702.3,144.1,634,144.1,575.6z"/>
		<path class="st72" d="M133.8,581.2c0-105.6,40.1-225,41.8-230.3L63.5,286.3c0,0-41.8,122.8-41.8,230.6c0,58.4,0,126.7,0,126.7
			l112.1,64.3C133.8,708.2,133.8,639.6,133.8,581.2z"/>
		<path class="st68" d="M73.9,280.9l-10.4,5.6l112.1,64.3l10.4-5.6L73.9,280.9z"/>
		<path class="st76" d="M21.6,643.9v9.3L134,717.2l-0.2-9L21.6,643.9z"/>
		<path class="st77" d="M229.3,652.8v9.3L134,717.2l-0.2-9L229.3,652.8z"/>
		<path class="st83" d="M186,239.3L73.9,174.7v105.9l101.7,70.2l10.4-5.3V239.3z"/>
		<path class="st82" d="M175.6,244.7L63.5,180.3v105.9l112.1,64.6V244.7z"/>
		<path class="st4" d="M161.5,253.1L79,205.6v8.2l82.6,47.8V253.1z"/>
		<path class="st4" d="M161.5,272.8L79,225v8.1l82.6,47.8V272.8z"/>
		<path class="st88" d="M73.9,174.7l-10.4,5.6l112.1,64.3l10.4-5.6L73.9,174.7z"/>
		<path class="st4" d="M89.9,276.7l48,27.8l-15.5,84.6l-48-27.8L89.9,276.7z"/>
		<path class="st86" d="M57.9,346.4c-1.1,4.5-2.5,9.6-3.6,14.3l77.2,44.7c1.1-5.1,2.5-9.8,3.7-14.3L57.9,346.4z"/>
		<path class="st4" d="M50.6,473.1l48,27.5l-4.2,82.6l-48-27.8L50.6,473.1z"/>
		<path class="st4" d="M66.3,375.3l48,27.5l-11.8,79.5l-48-27.5L66.3,375.3z"/>
		<path class="st86" d="M117.4,482.3l-77.2-44.7c-0.8,5.3-1.7,10.7-2.5,16l77.5,44.4C115.7,492.7,116.6,487.4,117.4,482.3z"/>
		<path class="st86" d="M31.8,543.3c0,4.2,0,8.7,0,13.2l77,44.4c0-4.2,0-8.1,0-12.4c0-1.7,0-3.4,0-5.1l-77-44.4
			C32,540.5,31.8,541.9,31.8,543.3z"/>
		<path class="st77" d="M234.9,979.6l-130.4,75.3l-9.5-5.3l130.3-75.3L234.9,979.6z"/>
		<path class="st86" d="M234.9,974.5l-130.4,75.3l-9.5-5.3l130.3-75.3L234.9,974.5z"/>
		<path class="st77" d="M234.9,974.5l-130.4,75.3v5.1l130.4-75.3V974.5z"/>
		<path class="st76" d="M95,1044.5v5.1l9.5,5.3v-5.1L95,1044.5z"/>
		<path class="st77" d="M163.2,939.4l-130.4,75.3l-9.5-5.3l130.4-75.3L163.2,939.4z"/>
		<path class="st86" d="M163.2,934.3l-130.4,75.3l-9.5-5.3L153.7,929L163.2,934.3z"/>
		<path class="st77" d="M163.2,934.3l-130.4,75.3v5.1l130.4-75.3V934.3z"/>
		<path class="st76" d="M23.3,1004.3v5.1l9.5,5.3v-5.1L23.3,1004.3z"/>
		<path class="st72" d="M59.3,985.2c0,0.8,1.4,1.7,3.1,1.7c1.7,0,3.1-0.8,3.1-1.7c0-0.8-1.4-1.7-3.1-1.7
			C60.7,983.5,59.3,984,59.3,985.2z"/>
		<path class="st72" d="M65.5,664.6h-6.1v320.2h6.1V664.6z"/>
		<path class="st68" d="M59.3,664.6c0,0.8,1.4,1.7,3.1,1.7c1.7,0,3.1-0.8,3.1-1.7c0-0.8-1.4-1.7-3.1-1.7
			C60.7,663,59.3,663.8,59.3,664.6z"/>
		<path class="st72" d="M113.3,954.8c0,0.8,1.4,1.7,3.1,1.7c1.7,0,3.1-0.8,3.1-1.7s-1.4-1.7-3.1-1.7
			C114.7,953.2,113.3,954,113.3,954.8z"/>
		<path class="st72" d="M119.4,573.6h-6.1v380.9h6.1V573.6z"/>
		<path class="st68" d="M113.3,573.6c0,0.8,1.4,1.7,3.1,1.7c1.7,0,3.1-0.8,3.1-1.7c0-0.8-1.4-1.7-3.1-1.7
			C114.7,571.9,113.3,572.8,113.3,573.6z"/>
		<path class="st72" d="M184.9,996.4c0,0.8,1.4,1.7,3.1,1.7c1.7,0,3.1-0.8,3.1-1.7c0-0.8-1.4-1.7-3.1-1.7
			C186,994.7,184.9,995.6,184.9,996.4z"/>
		<path class="st72" d="M191.1,615.2h-6.2v380.9h6.2V615.2z"/>
		<path class="st68" d="M184.9,615.2c0,0.8,1.4,1.7,3.1,1.7c1.7,0,3.1-0.8,3.1-1.7c0-0.8-1.4-1.7-3.1-1.7
			C186,613.5,184.9,614.4,184.9,615.2z"/>
		<path class="st76" d="M118.9,832.6l68.8,39.9l-54.5,96.9l-69.1-39.9L118.9,832.6z"/>
		<path class="st86" d="M116.3,830.9l68.8,39.6l-54.5,97.2l-69.1-39.9L116.3,830.9z"/>
		<path class="st71" d="M119.7,843l53.6,30.9l-46.1,81.5h-3.4l-50.3-30.6L119.7,843z"/>
		<path class="st69" d="M116.3,843l53.6,30.9l-46.1,81.5l-53.7-30.6L116.3,843z"/>
		<path class="st86" d="M116.9,848.6l48,27.5l-2.2,4.2l-48.3-27.8L116.9,848.6z"/>
		<path class="st70" d="M119.7,843h-3.4l53.6,30.9h3.4L119.7,843z"/>
		<path class="st76" d="M187.7,870.6l-52.3-30.3l-2.3,4.2l53.1,30.9L187.7,870.6z"/>
		<path class="st76" d="M118.9,707.9l68.8,39.9l-54.5,96.9l-69.1-39.6L118.9,707.9z"/>
		<path class="st86" d="M116.3,706.2l68.8,39.9L130.7,843l-69.1-39.9L116.3,706.2z"/>
		<path class="st83" d="M119.7,718.6l53.6,30.6l-46.1,81.7h-3.4l-50.3-30.9L119.7,718.6z"/>
		<path class="st82" d="M116.3,718.6l53.6,30.6l-46.1,81.7l-53.7-30.9L116.3,718.6z"/>
		<path class="st86" d="M116.9,724.2l48,27.5l-2.2,4.2l-48.3-27.8L116.9,724.2z"/>
		<path class="st89" d="M119.7,718.6h-3.4l53.6,30.6h3.4L119.7,718.6z"/>
		<path class="st76" d="M118.9,584l68.8,39.9l-54.5,96.9l-69.1-39.9L118.9,584z"/>
		<path class="st86" d="M116.3,582.3l68.8,39.9l-54.5,96.9l-69.1-39.9L116.3,582.3z"/>
		<path class="st72" d="M119.7,594.7l53.6,30.6l-46.1,81.5h-3.4l-50.3-30.6L119.7,594.7z"/>
		<path class="st4" d="M116.3,594.7l53.6,30.6l-46.1,81.5l-53.7-30.6L116.3,594.7z"/>
		<path class="st86" d="M116.9,600l48,27.8l-2.2,3.9l-48.3-27.5L116.9,600z"/>
		<path class="st68" d="M119.7,594.7h-3.4l53.6,30.6h3.4L119.7,594.7z"/>
		<path class="st76" d="M187.7,746.1l-52.3-30.3l-2.3,4.2l53.1,30.9L187.7,746.1z"/>
		<path class="st72" d="M130.9,1026.7c0,0.8,1.4,1.7,3.1,1.7c1.7,0,3.1-0.8,3.1-1.7c0-0.8-1.4-1.7-3.1-1.7
			C132.3,1025.1,130.9,1025.6,130.9,1026.7z"/>
		<path class="st72" d="M137.1,706.2h-6.2v320.2h6.2V706.2z"/>
		<path class="st68" d="M130.9,706.2c0,0.8,1.4,1.7,3.1,1.7c1.7,0,3.1-0.8,3.1-1.7c0-0.8-1.4-1.7-3.1-1.7
			C132.3,704.5,130.9,705.4,130.9,706.2z"/>
	</g>
</g>
</svg>
