<?xml version="1.0" encoding="utf-8"?>
<!-- Generator: Adobe Illustrator 24.2.3, SVG Export Plug-In . SVG Version: 6.00 Build 0)  -->
<svg version="1.1" id="Layer_1" xmlns="http://www.w3.org/2000/svg" xmlns:xlink="http://www.w3.org/1999/xlink" x="0px" y="0px"
	 viewBox="0 0 652 656" style="enable-background:new 0 0 652 656;" xml:space="preserve">
<style type="text/css">
	.st0{fill:#FFFFFF;}
	.st1{clip-path:url(#SVGID_2_);}
	.st2{clip-path:url(#SVGID_4_);}
	.st3{clip-path:url(#SVGID_6_);}
	.st4{fill:none;}
	.st5{fill-rule:evenodd;clip-rule:evenodd;}
	.st6{clip-path:url(#SVGID_8_);}
	.st7{clip-path:url(#SVGID_10_);}
	.st8{clip-path:url(#SVGID_12_);}
	.st9{clip-path:url(#SVGID_14_);}
	.st10{clip-path:url(#SVGID_16_);}
	.st11{clip-path:url(#SVGID_18_);}
</style>
<g>
	<path d="M573.8,184.8l9.9,34.6l29.4,1.8l-21,17.3l10,37.4l24.5-53.6L573.8,184.8z"/>
	<path d="M473.5,61.8l10,34.5l29.3,1.8l-20.9,17.3l9.9,37.4l24.5-53.6L473.5,61.8z"/>
	<path d="M322.8,29.2l9.9,34.6l29.4,1.7l-21,17.3l10,37.4l24.4-53.7L322.8,29.2z"/>
	<path d="M172.7,60.9l9.9,34.6l29.4,1.7l-21,17.3l10,37.4l24.5-53.6L172.7,60.9z"/>
	<path d="M73.8,184.4l9.9,34.5l29.3,1.8L92.1,238l10,37.4l24.4-53.7L73.8,184.4z"/>
	<path d="M230.4,465.1V570c0,5.9-4.9,10.8-10.8,10.8c-6,0-10.8-4.9-10.8-10.8V465.1c0-5.9,4.9-10.8,10.8-10.8
		C225.5,454.3,230.4,459.2,230.4,465.1z M620.1,496.3v138.9c0,11.5-9.3,20.8-20.9,20.8H401.6c-11.5,0-20.9-9.3-20.9-20.8V496.3
		c0-11.5,9.4-20.8,20.9-20.8h56.2v-11.1c0-11.6,9.5-21.1,21.1-21.1h9.8c-5.8-40.9-44-72.5-90.1-72.5h-38.5c0.5,4.3-0.3,8.8-2.4,13
		c-1.8,3.6-4.3,7-7.4,9.7l20.9,141.5c0.5,3.5-0.7,7-3.3,9.5l-35.6,33.3c-2,1.9-4.7,3-7.5,3c-2.7,0-5.3-0.9-7.5-3l-35.6-33.3
		c-2.6-2.4-3.8-5.9-3.3-9.5l20.9-141.5c-3-2.7-5.6-6.1-7.4-9.7c-2-4.2-2.8-8.6-2.3-13h-38.3c-50.1,0-90.9,37.4-90.9,83.3v115.7
		c0,5.9-4.9,10.8-10.8,10.8c-6,0-10.8-4.9-10.8-10.8V454.2c0-57.9,50.5-104.9,112.6-104.9h18.7c-6.2-5.8-11.9-12.8-17.1-21.1
		c-13.1-21.3-21.1-50.2-21.1-77.1c0-51.2,41.7-92.9,93.1-92.9c51.4,0,93.2,41.7,93.2,92.9c0,28.1-8,56.6-21.8,78.3
		c-4.9,7.7-10.3,14.3-16.4,19.8h18.7c58.1,0,106.2,41.3,112.1,94.1h11.2c11.7,0,21.1,9.5,21.1,21.1v11.1h56.2
		C610.8,475.7,620.1,485,620.1,496.3z M271.2,317.1c13.3,21.5,31.3,32.4,53.7,32.4c27.2,0,43.9-17.1,53.1-31.5
		c11.5-18.1,18.4-42.9,18.4-66.7c0-39.3-32.1-71.3-71.6-71.3c-39.4,0-71.4,32-71.4,71.3C253.5,274.4,260.1,299,271.2,317.1z
		 M334.6,371.1h-19.5c-2.4,0-3.3,1.2-3.5,1.6c-0.5,0.7-0.5,0.9-0.1,1.8c1.1,2,2.8,3.9,4.7,5c4.1,2.2,6.4,6.6,5.7,11.1l-21,142.3
		l24.1,22.5l24.1-22.5l-21-142.3c-0.7-4.6,1.6-9,5.7-11.1c2-1.1,3.8-2.8,4.7-4.9c0.3-0.7,0.4-0.9-0.1-1.6
		C337.9,372.1,337.1,371.1,334.6,371.1z M521.2,465.1h-9.9v10.5h10v-10.5H521.2z M479.6,475.7h10v-10.5h-10V475.7z M402.4,497.3
		v41.3c22.2,5.1,47.3,8.5,73.4,9.9v-7.8c0-8.4,6.8-15.1,15.2-15.1h18.6c8.4,0,15.2,6.7,15.2,15.1v7.8c26.2-1.2,51.2-4.6,73.4-9.9
		v-41.3H402.4z M497.6,546.9v22.8c0,1.5,1.4,2.8,2.8,2.8c1.5,0,2.8-1.2,2.8-2.8v-22.8H497.6z M598.5,634.4v-73.8
		c-22.6,4.9-47.6,8.1-73.5,9.3c-0.1,13.4-11.1,24.2-24.5,24.2c-13.4,0-24.4-10.8-24.5-24.2c-25.9-1.2-50.9-4.3-73.4-9.3v73.8H598.5z
		 M253.3,64.5c-2.8-2.8-3.8-7-2.6-10.8c1.2-3.8,4.5-6.6,8.4-7.3l38.1-6.6l18-34c1.9-3.5,5.6-5.8,9.6-5.8c4.1,0,7.7,2.2,9.6,5.8
		l18,34l38.1,6.6c3.9,0.7,7.2,3.5,8.4,7.3c1.2,3.8,0.3,8-2.6,10.8l-27,27.5l5.6,38.1c0.5,3.9-1.1,8-4.3,10.3c-1.9,1.4-4.1,2-6.4,2
		c-1.6,0-3.3-0.4-4.7-1.1l-34.7-17l-34.7,17c-3.7,1.8-7.9,1.4-11.1-0.9c-3.3-2.3-4.9-6.3-4.3-10.3l5.6-38.1L253.3,64.5z M283.1,64.1
		l16.3,16.7c2.3,2.4,3.4,5.8,3,9L299,113l21-10.3c1.5-0.7,3.1-1.1,4.7-1.1c1.6,0,3.3,0.4,4.7,1.1l21,10.3L347.4,90
		c-0.5-3.4,0.7-6.6,3-9.1l16.4-16.7l-23-3.9c-3.3-0.5-6.2-2.7-7.7-5.7L325,34l-11,20.7c-1.6,3-4.5,5-7.7,5.7L283.1,64.1z
		 M102.8,97.5c-2.8-2.8-3.8-7-2.6-10.8c1.2-3.8,4.5-6.6,8.4-7.3l38.1-6.6l18-34c1.9-3.5,5.6-5.8,9.6-5.8c4.1,0,7.7,2.2,9.6,5.8
		l18,34l38.1,6.6c3.9,0.7,7.2,3.5,8.4,7.3c1.2,3.8,0.3,8-2.6,10.8l-27,27.7l5.6,38.1c0.5,3.9-1.1,8-4.3,10.3c-1.9,1.3-4.1,2-6.4,2
		c-1.6,0-3.3-0.4-4.7-1.1l-34.7-17l-34.7,17c-3.7,1.8-7.9,1.4-11.1-0.9c-3.3-2.3-4.9-6.3-4.3-10.3l5.6-38.1L102.8,97.5z M132.7,97.1
		l16.3,16.7c2.3,2.4,3.4,5.8,3,9l-3.4,23.1l21-10.3c3-1.5,6.5-1.5,9.6,0l21,10.3l-3.3-23.1c-0.5-3.4,0.7-6.6,3-9l16.3-16.7l-23-3.9
		c-3.3-0.5-6.2-2.7-7.7-5.7l-11-20.7l-11,20.7c-1.6,3-4.5,5-7.7,5.7L132.7,97.1z M125.4,285.9c0.5,3.9-1.1,8-4.3,10.3
		c-1.9,1.3-4.1,2-6.4,2c-1.6,0-3.3-0.4-4.7-1.1l-34.7-17l-34.7,17c-3.7,1.8-7.9,1.3-11.1-0.9c-3.3-2.3-4.9-6.3-4.3-10.3l5.6-38.1
		L3.6,220.3c-2.8-2.8-3.8-7-2.6-10.8c1.2-3.8,4.5-6.6,8.4-7.3l38.1-6.6l18-34.2c1.9-3.5,5.6-5.8,9.6-5.8c4.1,0,7.7,2.2,9.6,5.8
		l18,34l38.1,6.6c3.9,0.7,7.2,3.5,8.4,7.3c1.2,3.8,0.3,8-2.6,10.9l-27,27.5L125.4,285.9z M116.9,219.9l-23-3.9
		c-3.3-0.5-6.2-2.7-7.7-5.7l-11-20.7l-11,20.7c-1.6,3-4.5,5-7.7,5.7l-23,3.9l16.3,16.7c2.3,2.4,3.4,5.8,3,9l-3.4,23.1l21-10.3
		c1.5-0.7,3.1-1.1,4.7-1.1c1.6,0,3.3,0.4,4.7,1.1l21,10.3l-3.1-23.1c-0.5-3.4,0.7-6.6,3-9L116.9,219.9z M403.7,97.5
		c-2.8-2.8-3.8-7-2.6-10.8s4.5-6.6,8.4-7.3l38.1-6.6l18-34c1.9-3.5,5.6-5.8,9.6-5.8c4.1,0,7.7,2.2,9.6,5.8l18,34l38.1,6.6
		c3.9,0.7,7.2,3.5,8.4,7.3c1.2,3.8,0.3,8-2.6,10.9l-27,27.5l5.6,38.1c0.5,3.9-1.1,8-4.3,10.3c-3.3,2.3-7.6,2.7-11.1,0.9l-34.7-17
		l-34.7,17c-1.5,0.8-3.1,1.1-4.7,1.1c-2.3,0-4.5-0.7-6.4-2c-3.3-2.3-4.9-6.3-4.3-10.3l5.6-38.1L403.7,97.5z M433.7,97.1l16.3,16.7
		c2.3,2.4,3.4,5.8,3,9l-3.4,23.1l21-10.3c1.5-0.7,3.1-1.1,4.7-1.1c1.6,0,3.3,0.4,4.7,1.1l21,10.3l-3.3-23.1c-0.5-3.4,0.7-6.6,3-9
		l16.4-16.7l-23-3.9c-3.3-0.5-6.2-2.7-7.7-5.7l-11-20.7l-11,20.7c-1.6,3-4.5,5-7.7,5.7L433.7,97.1z M646.3,220.3l-27,27.5l5.6,38.1
		c0.5,3.9-1.1,8-4.3,10.3c-1.9,1.3-4.1,2-6.4,2c-1.6,0-3.3-0.4-4.7-1.1l-34.7-17l-34.7,17c-3.7,1.8-7.9,1.3-11.1-0.9
		c-3.3-2.3-4.9-6.3-4.3-10.3l5.6-38.1l-27-27.7c-2.8-2.8-3.8-7-2.6-10.8c1.2-3.8,4.5-6.6,8.4-7.3l38.1-6.6l18-34
		c1.9-3.5,5.6-5.8,9.6-5.8c4.1,0,7.7,2.2,9.6,5.8l18,34l38.1,6.6c3.9,0.7,7.2,3.5,8.4,7.3C650.1,213.1,649.1,217.3,646.3,220.3z
		 M616.3,219.9l-23-3.9c-3.3-0.5-6.2-2.7-7.7-5.7l-11-20.7l-11,20.7c-1.6,3-4.5,5-7.7,5.7l-23,3.9l16.3,16.7c2.3,2.4,3.4,5.8,3,9
		l-3.4,23.1l21-10.3c1.5-0.7,3.1-1.1,4.7-1.1c1.6,0,3.3,0.4,4.7,1.1l21,10.3l-3.4-23.1c-0.5-3.4,0.7-6.6,3-9L616.3,219.9z"/>
</g>
</svg>
