<?xml version="1.0" encoding="utf-8"?>
<!-- Generator: Adobe Illustrator 24.2.3, SVG Export Plug-In . SVG Version: 6.00 Build 0)  -->
<svg version="1.1" id="Layer_1" xmlns="http://www.w3.org/2000/svg" xmlns:xlink="http://www.w3.org/1999/xlink" x="0px" y="0px"
	 viewBox="0 0 648 656" style="enable-background:new 0 0 648 656;" xml:space="preserve">
<style type="text/css">
	.st0{fill:#FFFFFF;}
	.st1{clip-path:url(#SVGID_2_);}
	.st2{clip-path:url(#SVGID_4_);}
	.st3{clip-path:url(#SVGID_6_);}
	.st4{fill:none;}
	.st5{fill-rule:evenodd;clip-rule:evenodd;}
	.st6{clip-path:url(#SVGID_8_);}
	.st7{clip-path:url(#SVGID_10_);}
	.st8{clip-path:url(#SVGID_12_);}
	.st9{clip-path:url(#SVGID_14_);}
	.st10{clip-path:url(#SVGID_16_);}
	.st11{clip-path:url(#SVGID_18_);}
</style>
<g>
	<path d="M454.4,215.8c-3.6,1.5-7.7,3.1-11.2,4.6c-5.1-3.6-11.2-5.6-17.9-5.6c-8.7,0-16.8,3.6-23,9.7L385,242
		c-11.2,11.3-12.2,28.2-4.1,41c-1.5,3.6-3.1,7.2-4.6,11.3c-14.8,3.1-26,15.9-26,31.8v24.6c0,15.9,11.2,29.2,26,32.3
		c1.5,3.6,3.1,7.7,4.6,11.3c-8.2,12.8-7.1,29.7,4.1,41l17.3,17.4c6.1,6.1,14.3,9.7,23,9.7c6.6,0,12.8-2,17.9-5.6
		c3.6,1.5,7.1,3.1,11.2,4.6c3.1,14.9,16.3,26.1,32.2,26.1h24.5c15.8,0,29.1-11.3,32.2-26.1c3.6-1.5,7.7-3.1,11.2-4.6
		c5.1,3.6,11.2,5.6,17.9,5.6c8.7,0,16.8-3.6,23-9.7l17.4-17.4c11.2-11.3,12.2-28.2,4.1-41c1.5-3.6,3.1-7.2,4.6-11.3
		c14.8-3.1,26-16.4,26-32.3V326c0-15.9-11.2-29.2-26-32.3c-1.5-3.6-3.1-7.7-4.6-11.3c8.2-12.8,7.1-29.7-4.1-41L595.3,224
		c-6.1-6.1-14.3-9.7-23-9.7c-6.6,0-12.8,2-17.9,5.6c-3.6-1.5-7.1-3.1-11.2-4.6c-3.1-14.9-16.3-26.1-32.2-26.1h-24.5
		C470.2,189.7,457.5,201,454.4,215.8z M522.8,222.5c0,5.1,3.1,9.7,8.2,11.3c6.6,2,12.8,4.6,18.4,7.7c1.5,1,3.6,1.5,5.6,1.5
		c3.1,0,6.1-1,8.2-3.6c2.6-2.6,5.6-3.6,8.7-3.6c3.1,0,6.1,1,8.7,3.6l17.4,17.4c4.6,4.6,4.6,12.3,0,17.4c-3.6,3.6-4.6,9.2-2,13.8
		c3.1,5.6,5.6,12.3,7.6,18.4c1.5,4.6,6.1,8.2,11.2,8.2c6.6,0,12.2,5.6,12.2,12.3v24.6c0,6.7-5.6,12.3-12.2,12.3
		c-5.1,0-9.7,3.1-11.2,8.2c-2,6.7-4.6,12.8-7.6,18.4c-2.6,4.6-1.5,10.2,2,13.8c4.6,4.6,4.6,12.3,0,17.4l-17.4,17.4
		c-2.5,2.6-5.6,3.6-8.7,3.6c-3.1,0-6.1-1-8.7-3.6c-2-2-5.1-3.6-8.2-3.6c-2,0-3.6,0.5-5.6,1.5c-5.6,3.1-12.3,5.6-18.4,7.7
		c-4.6,1.5-8.2,6.1-8.2,11.3c0,6.7-5.6,12.3-12.2,12.3h-24.5c-6.6,0-12.2-5.6-12.2-12.3c0-5.1-3.1-9.7-8.2-11.3
		c-6.6-2-12.8-4.6-18.4-7.7c-1.5-1-3.6-1.5-5.6-1.5c-3.1,0-6.1,1-8.2,3.6c-2.6,2.6-5.6,3.6-8.7,3.6c-3.1,0-6.1-1-8.7-3.6l-16.8-19
		c-4.6-4.6-4.6-12.3,0-17.4c3.6-3.6,4.6-9.2,2-13.8c-3.1-5.6-5.6-12.3-7.7-18.4c-1.5-4.6-6.1-8.2-11.2-8.2
		c-6.6,0-12.3-5.6-12.3-12.3v-24.6c0-6.7,5.6-12.3,12.3-12.3c5.1,0,9.7-3.1,11.2-8.2c2-6.7,4.6-12.8,7.7-18.4
		c2.5-4.6,1.5-10.2-2-13.8c-4.6-4.6-4.6-12.3,0-17.4l17.4-17.4c2.5-2.6,5.6-3.6,8.7-3.6c3.1,0,6.1,1,8.7,3.6c2,2,5.1,3.6,8.2,3.6
		c2,0,3.6-0.5,5.6-1.5c5.6-3.1,12.2-5.6,18.4-7.7c4.6-1.5,8.2-6.1,8.2-11.3c0-6.7,5.6-12.3,12.2-12.3h24.5
		C517.2,210.2,522.8,215.8,522.8,222.5z"/>
	<path d="M432,338.3c0,36.9,29.6,66.6,66.4,66.6c36.7,0,66.3-29.7,66.3-66.6s-29.6-66.6-66.3-66.6C461.6,271.7,432,301.4,432,338.3z
		 M498.3,292.2c25.5,0,45.9,20.5,45.9,46.1c0,25.6-20.4,46.1-45.9,46.1c-25.5,0-45.9-20.5-45.9-46.1
		C452.4,312.7,472.8,292.2,498.3,292.2z"/>
	<path d="M49.7,229.7c0-2,0.5-4.1,1-6.1c1.5-5.1,5.6-9.2,10.2-11.8l73.5-35.4L114,235.8c6.1,3.6,12.2,7.7,17.4,12.8l29.1-84.5
		l63.8-31.3L187,241.4L143.1,263c3.6,5.6,6.6,11.8,9.2,18.4l350.7-170.1c2.5-1,4.1-3.1,5.1-6.1c1-2.6,0.5-5.6-0.5-7.7L462.6,5.7
		c-2.6-5.1-8.7-7.2-13.8-4.6L52.2,193.3c-9.7,4.6-17.4,13.3-20.9,23.6c-2.5,7.2-3.1,14.9-1,22C35.9,235.3,42.5,231.7,49.7,229.7z
		 M448.8,24.2l35.7,73.3L392.7,142l37.3-108.6L448.8,24.2z M403.9,45.7l-37.3,108.6l-63.8,31.3l37.3-109.2L403.9,45.7z M314.1,89.2
		l-37.3,108.6L213,229.1l37.3-108.6L314.1,89.2z"/>
	<path d="M74.7,389.5c-3.6,0-6.6-0.5-10.2-0.5v226c0,22.5,18.4,41,40.8,41h418.5c22.5,0,40.8-18.4,40.8-41V481.8
		c-2.5-0.5-5.1-1-7.7-1.5c-3.1,5.6-7.7,10.8-12.8,14.9v99.4H84.9v-51.2h142.9c5.6,0,10.2-4.6,10.2-10.2s-4.6-10.2-10.2-10.2H84.9
		V492h142.9c5.6,0,10.2-4.6,10.2-10.2s-4.6-10.2-10.2-10.2H84.9v-51.2h271c-1-6.7-1-13.8,0.5-20.5h-17.3l9.2-9.2
		c-5.1-4.6-9.7-10.2-12.8-16.4L310,399.8h-73l81.7-82h11.7c1-7.2,4.1-14.3,7.7-20.5H155.8c0.5,3.6,0.5,6.7,0.5,10.2
		c0,3.6-0.5,6.7-0.5,10.2H188l-81.7,82H84.9V389C81.3,389,78.2,389.5,74.7,389.5z M544.3,615c0,11.3-9.2,20.5-20.4,20.5H105.3
		c-11.2,0-20.4-9.2-20.4-20.5H544.3z M216.6,317.8h73l-81.7,82h-73L216.6,317.8z"/>
	<path d="M143.6,309.1c0-2.1,0-4.1-0.5-6.2c-1.5-17.9-9.7-34.8-23-46.6c-13.3-12.3-30.6-19-49-19c-18.4,0-35.2,6.7-48.5,19
		C9.3,268.6,1.2,285-0.4,302.9c0,2,0,4.1,0,6.2c0,12.3,3.1,24.6,9.2,35.4c6.1,10.8,15.3,20,26,26.6c11.2,6.7,24,10.2,36.7,10.2
		c12.8,0,25.5-3.6,36.7-10.2c10.7-6.7,19.9-15.4,26-26.6C140,333.7,143.6,321.4,143.6,309.1z M18.5,300.4
		c1.5-11.8,7.7-23.1,16.8-31.3c9.7-9.2,23-13.8,36.2-13.8c13.3,0,26,5.1,36.2,13.8c9.2,8.2,15.3,19.5,16.8,31.3H18.5z M26.7,260.4
		C38.9,249.1,54.8,243,71.6,243c16.8,0,32.7,6.1,44.9,17.4c11.2,10.8,18.9,24.6,20.9,40h-6.6c-2-13.8-8.7-26.1-18.9-35.4
		c-11.2-10.2-25-15.4-39.8-15.4c-14.8,0-29.1,5.6-39.8,15.4c-10.2,9.2-16.8,22-18.9,35.4H5.8C7.8,285,15,270.6,26.7,260.4z M5.3,306
		h132.2c0,1,0,2,0,3.1c0,10.8-2.6,21.5-7.7,31.3H83.9c-1.5,0-2.5,1-2.5,2.6c0,1.5,1,2.6,2.5,2.6h26.5c-4.1,4.6-9.2,8.2-14.8,11.3
		c-7.7,4.1-15.8,6.1-24.5,6.1c-8.7,0-16.8-2-24.5-6.1c-5.6-3.1-10.7-6.7-14.8-11.3h26.5c1.5,0,2.5-1,2.5-2.6c0-1.5-1-2.6-3.1-2.6
		H11.9c-5.1-9.7-7.7-20.5-7.7-31.3C5.3,308.1,5.3,307,5.3,306z M105.3,366.5c-10.2,6.1-21.9,9.2-33.7,9.2s-23.5-3.1-33.7-9.2
		c-8.7-5.1-15.8-11.8-21.4-20.5h8.2c5.1,6.7,12.3,12.3,19.9,16.4c8.7,4.1,17.4,6.7,27.1,6.7c9.7,0,18.4-2,27-6.7
		c7.7-4.1,14.3-9.7,19.9-16.4h8.2C121.1,354.2,114,361.4,105.3,366.5z"/>
	<path d="M70.1,340.9C69.6,341.4,69.6,341.4,70.1,340.9c-0.5,0.5-0.5,0.5-0.5,0.5s0,0.5-0.5,0.5v0.5c0,0,0,0,0,0.5c0,0,0,0,0,0.5
		c0,0,0,0,0,0.5c0,0,0,0,0,0.5v0.5c0,0,0,0.5,0.5,0.5c0,0,0.5,0,0.5,0.5h0.5c0,0,0,0,0.5,0c0,0,0,0,0.5,0c0,0,0,0,0.5,0
		c0,0,0,0,0.5,0h0.5c0,0,0.5,0,0.5-0.5c0,0,0-0.5,0.5-0.5v-0.5c0,0,0,0,0-0.5c0,0,0,0,0-0.5c0,0,0,0,0-0.5c0,0,0,0,0-0.5v-0.5
		c0,0,0-0.5-0.5-0.5c0,0-0.5,0-0.5-0.5h-0.5c0,0,0,0-0.5,0h-0.5c0,0,0,0-0.5,0C70.6,340.3,70.6,340.3,70.1,340.9z"/>
	<path d="M55.8,332.7c1.5,0.5,3.1,0,3.6-1.5l0.5-1.5h4.6l0.5,1.5c0.5,1,1.5,2,2.5,2c0.5,0,0.5,0,1,0c1.5-0.5,2-2,1.5-3.6L65,315.7
		c-0.5-1-1.5-2-3.1-2c-1,0-2.6,0.5-3.1,2l-5.1,13.8C53.7,330.6,54.8,332.1,55.8,332.7z"/>
	<path d="M76.2,333.2c0,0,0.5,0,2,0c0.5,0,2,0,3.6,0s2.5-1,2.5-3.1c0-1.5-1-2.6-2.5-2.6c-0.5,0-1.5,0-2,0v-11.3c0-1.5-1-2.6-2.5-2.6
		c-1.5,0-2.6,1-2.6,2.6v13.8C74.2,331.6,75.2,332.6,76.2,333.2z"/>
	<path d="M92,333.2c1.5,0,2.6-1,2.6-2.6v-13.8c0-1.5-1-2.6-2.6-2.6c-1.5,0-2.6,1-2.6,2.6v13.8C89.5,331.6,90.5,333.2,92,333.2z"/>
	<path d="M118.6,323.9v6.1c0,1.5,1,3.1,2.5,3.1c1.5,0,2.6-1,2.6-2.6v-6.1l4.1-6.1c1-1.5,0.5-3.1-1-4.1c-1.5-1-3.1-0.5-4.1,1
		l-1.5,2.6l-2-3.1c-1-1.5-2.6-1.5-4.1-1c-1.5,1-1.5,2.6-1,4.1L118.6,323.9z"/>
	<path d="M40.5,331.6c1.5,1,2.6,1.5,4.1,1.5c1,0,2.6-0.5,3.6-1c2.5-1.5,4.1-3.6,4.1-6.1v-9.7c0-1.5-1-2.6-3.1-2.6
		c-1.5,0-3.1,1-3.1,2.6v9.7c0,0.5,0,1-1,1.5c-0.5,0-0.5,0-1,0c-0.5,0-0.5,0-1-0.5c-1-0.5-1-1-1-1v-9.7c0-1.5-1-2.6-3.1-2.6
		c-1.5,0-3.1,1-3.1,2.6v9.7C36.9,328.5,38.4,330.6,40.5,331.6z"/>
	<path d="M102.2,319.3h1v11.3c0,1.5,1,2.6,2.5,2.6c1.5,0,2.6-1,2.6-2.6v-11.3h1c1.5,0,2.5-1,2.5-2.6s-1-2.6-2.5-2.6h-7.7
		c-1.5,0-2.5,1-2.5,2.6C99.2,317.8,100.7,319.3,102.2,319.3z"/>
	<path d="M24.1,333.2c1.5,0,3.1-0.5,4.6-1l0.5,0.5c0.5,0,1,0.5,2,0.5c0.5,0,1.5-0.5,2-1c1-1,1-3.1,0-4.1h-0.5c0.5-1.5,1-3.1,1-4.6
		c0-5.6-4.6-9.7-9.7-9.7c-5.6,0-9.7,4.6-9.7,9.7C14.4,328.5,19,333.2,24.1,333.2z M24.1,319.3c2,0,4.1,2,4.1,4.1
		c-1-0.5-2.6-0.5-3.6,0.5c-1,1-1,2.6-0.5,3.6c0,0,0,0-0.5,0c-2,0-4.1-2.1-4.1-4.1C19.5,321.4,22.1,319.3,24.1,319.3z"/>
	<path d="M82.8,270.1l-5.6-1.5l-3.1-5.1c-0.5-1-1.5-1-2.5-1c-1,0-2,0.5-2.6,1l-3.1,5.1l-5.6,1.5c-1,0-1.5,1-2,2c-0.5,1,0,2,0.5,2.6
		l3.6,4.6l-0.5,6.1c0,1,0.5,2,1,2.6c0.5,0.5,1,0.5,1.5,0.5c0.5,0,0.5,0,1,0l5.6-2l5.6,2c1,0.5,2,0,2.5-0.5c1-0.5,1-1.5,1-2.6
		l-0.5-6.1l3.6-4.6c0.5-0.5,1-1.5,0.5-2.6C84.9,271.2,83.9,270.6,82.8,270.1z M75.7,276.8c-0.5,0.5-0.5,1-0.5,2v3.1l-2.5-1
		c-0.5,0-0.5,0-1,0c-0.5,0-0.5,0-1,0l-2.6,1v-3.1c0-0.5,0-1.5-0.5-2l-1.5-2l2.6-0.5c0.5,0,1-0.5,1.5-1l1.5-2.6l1.5,2.6
		c0.5,0.5,1,1,1.5,1l2.6,0.5L75.7,276.8z"/>
	<path d="M104.3,275.8l-2.6-3.6c-0.5-1-1.5-1-2.6-1c-1,0-2,0.5-2.5,1l-2.6,3.6l-3.1,1c-1,0-1.5,1-2,2c-0.5,1,0,2,0.5,2.6l2.6,3.1
		v4.1c0,1,0.5,2,1,2.6c1,0.5,1.5,0.5,2.5,0.5l4.1-1.5l4.1,1.5c0.5,0,0.5,0,1,0c0.5,0,1,0,1.5-0.5c1-0.5,1-1.5,1-2.6v-4.1l2.5-3.1
		c0.5-0.5,1-1.5,0.5-2.6c-0.5-1-1-1.5-2-2L104.3,275.8z M102.2,281.9c-0.5,0.5-0.5,1.5-0.5,2v1l-1-0.5c-0.5,0-1.5,0-2,0l-1,0.5v-1
		c0-0.5,0-1.5-0.5-2l-0.5-0.5l1-0.5c0.5,0,1-0.5,1.5-1l0.5-1l0.5,1c0.5,0.5,1,1,1.5,1l1,0.5L102.2,281.9z"/>
	<path d="M52.2,276.8l-4.1-1l-2.6-3.6c-0.5-1-1.5-1-2.5-1c-1,0-1.5,0.5-2,1l-2.5,3.6l-4.1,1c-1,0-1.5,1-2,2c-0.5,1,0,2,0.5,2.6
		l2.5,3.1v4.1c0,1,0.5,2,1,2.6c1,0.5,1.5,1,2,1s0.5,0,1,0l4.1-1.5l4.1,1.5c1,0.5,2,0,2.6-0.5c1-0.5,1-1.5,1-2.6V285l2.6-3.1
		c0.5-0.5,1-1.5,0.5-2.6C53.7,277.8,52.7,277.3,52.2,276.8z M45.6,281.9c-0.5,0.5-0.5,1-0.5,2v1l-1-0.5c-0.5,0-0.5,0-1,0s-0.5,0-1,0
		l-1,0.5v-1c0-0.5,0-1.5-0.5-2l-0.5-1l1-0.5c0.5,0,1-0.5,1.5-1l0.5-1l0.5,1c0.5,0.5,1,1,1.5,1l1,0.5L45.6,281.9z"/>
</g>
</svg>
