<?xml version="1.0" encoding="utf-8"?>
<!-- Generator: Adobe Illustrator 24.2.3, SVG Export Plug-In . SVG Version: 6.00 Build 0)  -->
<svg version="1.1" id="Layer_1" xmlns="http://www.w3.org/2000/svg" xmlns:xlink="http://www.w3.org/1999/xlink" x="0px" y="0px"
	 viewBox="0 0 658 658" style="enable-background:new 0 0 658 658;" xml:space="preserve">
<style type="text/css">
	.st0{fill:#FFFFFF;}
	.st1{clip-path:url(#SVGID_2_);}
	.st2{clip-path:url(#SVGID_4_);}
	.st3{clip-path:url(#SVGID_6_);}
	.st4{fill:none;}
	.st5{fill-rule:evenodd;clip-rule:evenodd;}
	.st6{clip-path:url(#SVGID_8_);}
	.st7{clip-path:url(#SVGID_10_);}
	.st8{clip-path:url(#SVGID_12_);}
	.st9{clip-path:url(#SVGID_14_);}
	.st10{clip-path:url(#SVGID_16_);}
	.st11{clip-path:url(#SVGID_18_);}
</style>
<g>
	<defs>
		<rect id="SVGID_1_" x="0.1" y="-0.2" width="658.2" height="658.2"/>
	</defs>
	<clipPath id="SVGID_2_">
		<use xlink:href="#SVGID_1_"  style="overflow:visible;"/>
	</clipPath>
	<g class="st1">
		<g>
			<defs>
				<rect id="SVGID_3_" x="0.1" y="-0.2" width="658.2" height="658.2"/>
			</defs>
			<clipPath id="SVGID_4_">
				<use xlink:href="#SVGID_3_"  style="overflow:visible;"/>
			</clipPath>
			<g class="st2">
				<g>
					<defs>
						<rect id="SVGID_5_" x="0.1" y="-0.2" width="658.2" height="658.2"/>
					</defs>
					<clipPath id="SVGID_6_">
						<use xlink:href="#SVGID_5_"  style="overflow:visible;"/>
					</clipPath>
					<g class="st3">
						<path d="M559.1,547.2l37.9,34.7c13-14.3,24.3-30.1,33.4-46.9l-45.3-24.4C578,523.8,569.3,536.1,559.1,547.2z"/>
						<path d="M484.7,596.4l16.9,48.6c18.2-6.3,35.5-14.9,51.7-25.6l-28.4-42.9C512.4,584.7,498.8,591.4,484.7,596.4z"/>
						<path d="M398.7,412.2l-54.3,46.3l33.5,39.1l72.3-61.7V300.6h-51.4V412.2z"/>
						<path d="M601.4,468.6l49.9,12.5c4.7-18.5,7.1-37.8,7.1-57.1h-51.4C606.9,439.2,605.1,454.1,601.4,468.6z"/>
						<path d="M581.2,51.2h-30.9V-0.2h-51.4v51.4H159.5V-0.2h-51.4v51.4H77.3c-42.6,0-77.1,34.6-77.1,77.1v452.5
							c0,42.6,34.6,77.1,77.1,77.1h87.4h27h69.2c-13.5-9.5-26.4-20.2-38.3-32.1c-6.2-6.2-12.1-12.6-17.6-19.3h-13.2h-27H77.3
							c-14.1,0-25.7-11.6-25.7-25.7V240.2h153.4c5.6-6.7,11.5-13.1,17.6-19.3c11.9-12,24.7-22.6,38.3-32.1H51.6v-60.4
							c0-14.1,11.6-25.7,25.7-25.7h30.9v51.4h51.4v-51.4h339.4v51.4h51.4v-51.4h30.9c14.1,0,25.7,11.6,25.7,25.7v46.3h51.4v-46.3
							C658.3,85.8,623.8,51.2,581.2,51.2z"/>
						<path d="M606.9,277.6c-43.7-54.5-110.3-87.5-182.5-87.5c-129.1,0-234,104.9-234,234s104.9,234,234,234c6.9,0,14-0.3,20.9-0.9
							l-4.5-51.2c-5.3,0.5-10.9,0.8-16.4,0.8c-100.7,0-182.6-81.9-182.6-182.5s81.9-182.5,182.6-182.5c59.1,0,113.3,28.3,147.1,74.6
							H517v51.4h141.4V226.1h-51.4V277.6z"/>
					</g>
				</g>
			</g>
		</g>
	</g>
</g>
</svg>
