<?xml version="1.0" encoding="utf-8"?>
<!-- Generator: Adobe Illustrator 24.2.3, SVG Export Plug-In . SVG Version: 6.00 Build 0)  -->
<svg version="1.1" id="Layer_1" xmlns="http://www.w3.org/2000/svg" xmlns:xlink="http://www.w3.org/1999/xlink" x="0px" y="0px"
	 viewBox="0 0 653 653" style="enable-background:new 0 0 653 653;" xml:space="preserve">
<style type="text/css">
	.st0{fill:#FFFFFF;}
	.st1{clip-path:url(#SVGID_2_);}
	.st2{clip-path:url(#SVGID_4_);}
	.st3{clip-path:url(#SVGID_6_);}
	.st4{fill:none;}
	.st5{fill-rule:evenodd;clip-rule:evenodd;}
	.st6{clip-path:url(#SVGID_8_);}
	.st7{clip-path:url(#SVGID_10_);}
	.st8{clip-path:url(#SVGID_12_);}
	.st9{clip-path:url(#SVGID_14_);}
	.st10{clip-path:url(#SVGID_16_);}
	.st11{clip-path:url(#SVGID_18_);}
</style>
<rect x="-5.1" y="-0.1" class="st4" width="658.1" height="658.1"/>
<rect x="-5.1" y="-0.1" class="st4" width="658.1" height="658.1"/>
<g>
	<path class="st5" d="M247.8,497.5c-6.8-3-13.7-6.6-20.1-10.4l-18.5,18.5c-4.3,4.3-11.4,4.3-15.8,0l-51.5-51.5
		c-4.3-4.3-4.3-11.4,0-15.8l18.5-18.5c-9.5-15.9-16.6-33-21.2-51.1h-26.3c-6.2,0-11.2-5-11.2-11.2v-72.8c0-6.2,5-11.2,11.2-11.2
		h26.3c4.6-18.1,11.7-35.2,21.2-51.1l-18.5-18.5c-4.3-4.3-4.3-11.4,0-15.8l51.5-51.5c4.3-4.3,11.4-4.3,15.8,0l18.5,18.5
		c15.9-9.5,33-16.6,51.1-21.2v-26.2c0-6.2,5-11.2,11.2-11.2h72.8c6.2,0,11.2,5,11.2,11.2v26.3c18.1,4.6,35.2,11.7,51.1,21.2
		l18.5-18.5c4.3-4.3,11.4-4.3,15.8,0l51.5,51.5c4.3,4.3,4.3,11.4,0,15.8l-18.5,18.5c9.5,15.9,16.6,33,21.2,51.1h26.3
		c6.2,0,11.2,5,11.2,11.2v72.7c0,6.2-5,11.2-11.2,11.2h-26.3c-4.6,18.1-11.7,35.2-21.2,51.1l18.5,18.5c4.3,4.3,4.3,11.4,0,15.8
		l-51.5,51.5c-4.3,4.3-11.4,4.3-15.8,0l-18.5-18.5c-6.4,3.8-13.3,7.4-20.1,10.4v50.2c0,18.5-12.6,34.4-30.1,39v11.7
		c0,20.4-16.7,37.1-37.1,37.1h-22.6c-20.4,0-37.1-16.7-37.1-37.1v-11.7c-17.5-4.6-30.1-20.5-30.1-39L247.8,497.5z M174,89.8
		c-5.1,3.3-12.1,1.8-15.4-3.4c-3.3-5.1-1.8-12.1,3.4-15.4C262.2,6.6,390.6,6.6,490.8,71c5.1,3.3,6.7,10.2,3.4,15.4
		c-3.3,5.1-10.3,6.7-15.4,3.4C385.9,30.3,266.7,30.1,174,89.8z M89.5,479c3.3,5.1,1.8,12.1-3.4,15.4c-5.1,3.3-12.1,1.8-15.4-3.4
		c-64.4-100.2-64.4-228.6,0-328.7c3.3-5.1,10.3-6.7,15.4-3.4c5.1,3.3,6.7,10.2,3.4,15.4C30,267.1,29.8,386.3,89.5,479z M563.1,174.3
		c-3.3-5.1-1.8-12.1,3.4-15.4c5.1-3.3,12.1-1.8,15.4,3.4c64.4,100.1,64.4,228.6,0,328.7c-3.3,5.1-10.2,6.7-15.4,3.4
		c-5.1-3.3-6.7-10.2-3.4-15.4C622.7,386.2,622.9,267,563.1,174.3z M478.7,563.3c-27.3,17.6-57.2,30.2-89,37.6
		c-6,1.3-9.7,7.4-8.4,13.4s7.4,9.7,13.4,8.4c34.2-7.9,66.8-21.7,96.1-40.6c5.1-3.3,6.7-10.3,3.4-15.4
		C490.9,561.6,483.8,560.1,478.7,563.3z M263,600.9c-31.9-7.4-61.5-20-89-37.6c-5.1-3.3-12.1-1.8-15.4,3.4
		c-3.3,5.1-1.8,12.1,3.4,15.4c29.3,18.8,61.9,32.7,96.1,40.6c6,1.3,12-2.4,13.4-8.4C272.7,608.3,269,602.4,263,600.9z M331.1,430.6
		c0-6.2,5-11.2,11.2-11.2c6.2,0,11.2,5,11.2,11.2V462h15c7.9-36,31-69.8,44-104c0.1-0.3,0.1-0.4,0.3-0.7
		c15.9-35.6,8-77.7-19.6-105.1c-36.8-36.9-96.6-36.9-133.5,0c-22.2,22.2-32.3,54.7-25.6,86.5c1.3,6.4,3.4,12.5,5.9,18.3
		c0.1,0.3,0.3,0.7,0.4,1.1c12.9,34,36,67.7,43.9,104h15v-31.4c0-6.2,5-11.2,11.2-11.2c6.2,0,11.2,5,11.2,11.2V462h9.5L331.1,430.6z
		 M45,553.7L26,534.7c-6.7-6.7-18.3-2.5-19.1,7.1l-7.2,99.4c-0.5,7,5.1,12.6,12,12.1l98.8-7.2c10.4-0.5,14.3-12.5,7.6-19.1L99.2,608
		l62.6-62.6c4.3-4.3,4.3-11.4,0-15.8l-38.5-38.5c-4.3-4.3-11.4-4.3-15.8,0L45,553.7z M115.5,514.7L53,577.3
		c-4.3,4.3-11.4,4.3-15.8,0l-9.6-9.6L23,629.8l62.2-4.6l-9.6-9.6c-4.3-4.3-4.3-11.4,0-15.8l62.6-62.6L115.5,514.7z M599.7,577.4
		l-62.6-62.6l-22.6,22.6l62.6,62.6c4.3,4.3,4.3,11.4,0,15.8l-9.6,9.6l62.2,4.6l-4.6-62.2l-9.6,9.6
		C611.2,581.7,604.1,581.7,599.7,577.4z M545.1,491.1c-4.3-4.3-11.4-4.3-15.8,0l-38.5,38.5c-4.3,4.3-4.3,11.4,0,15.8l62.6,62.6
		L534.4,627c-6.6,6.6-2.8,18.5,7.6,19.1l98.8,7.2c6.2,0.4,11.4-4.2,12-10.4l-7.2-101.1c-0.7-9.6-12.4-13.8-19.1-7.1l-18.9,18.9
		L545.1,491.1z M52.8,75.9l62.6,62.6l22.6-22.6L75.6,53.3c-4.3-4.3-4.3-11.4,0-15.8l9.6-9.6L23,23.3l4.5,62.2l9.6-9.6
		C41.4,71.5,48.5,71.5,52.8,75.9z M107.7,162.2c4.3,4.3,11.4,4.3,15.8,0l38.5-38.5c4.3-4.3,4.3-11.4,0-15.8L99.2,45.2l18.9-18.9
		c6.7-6.6,2.8-18.5-7.6-19.1L11.7,0C5.5-0.4,0.3,4.2-0.3,10.4L7,111.3c0.7,9.6,12.4,13.8,19.1,7.1L45,99.5L107.7,162.2z M607.6,99.5
		l19.1,19.1c6.7,6.7,18.3,2.5,19.1-7.1l7.2-99.2c0.5-7-5.1-12.6-11.8-12.1l-98.8,7.2c-10.4,0.5-14.3,12.4-7.6,19.1l18.9,18.9
		L491,108.1c-4.3,4.3-4.3,11.4,0,15.8l38.5,38.5c4.3,4.3,11.4,4.3,15.8,0L607.6,99.5z M537.2,138.4l62.6-62.6
		c4.3-4.3,11.4-4.3,15.8,0l9.6,9.6l4.6-62.2l-62.2,4.5l9.6,9.6c4.3,4.3,4.3,11.4,0,15.8l-62.6,62.6L537.2,138.4z M305.5,313.8
		c0-18.5,22.5-27.7,35.5-14.7c13.1,13.1,3.7,35.6-14.7,35.6c-6.2,0-11.2,5-11.2,11.2v15.2c0,6.2,5,11.2,11.2,11.2s11.2-5,11.2-11.2
		v-5.5c18.7-5,31.9-21.9,31.9-41.7c0-23.8-19.3-43.1-43.1-43.1c-23.8,0-43.1,19.3-43.1,43.1c0,6.2,5,11.2,11.2,11.2
		C300.5,325.1,305.5,319.9,305.5,313.8z M315.2,388.3c0,6.6,5,11.4,11.2,11.4s11.2-5,11.2-11.2c0-6.6-5-11.4-11.2-11.4
		S315.2,382.1,315.2,388.3z M382.5,536.1H270.1v11.6c0,9.9,8.2,18,18,18h76.4c9.9,0,18-8.2,18-18V536.1z M270.1,513.8h112.4v-29.4
		H270.1V513.8z M404.8,472.8c3.8-2,11.4-6.3,15-8.8c4.3-3.3,10.6-3,14.6,1.1l17,17l35.6-35.6l-17-17c-3.7-3.7-4.3-9.6-1.5-14.1
		c5.9-9.1,11.2-18.7,15.4-28.8c4.1-9.7,7.2-19.9,9.3-30.2c0.7-5.5,5.4-9.9,11.2-9.9h23.9V296h-23.9c-5.3,0-9.9-3.7-10.9-8.9
		c-2.1-10.6-5.4-21-9.5-31.2c-4.1-10-9.2-19.3-15-28.3c-3.3-4.3-3-10.6,1.1-14.6l17-17l-35.6-35.7l-17,17c-3.7,3.7-9.6,4.3-14.1,1.4
		c-9.1-6-18.7-11.2-28.8-15.4c-9.7-4.1-19.9-7.2-30.2-9.3c-5.5-0.7-9.9-5.4-9.9-11V119h-50.5v23.9c0,5.3-3.7,9.9-8.9,10.9
		c-10.6,2.2-21,5.4-31.2,9.5c-10,4.1-19.3,9.1-28.3,15c-4.3,3.3-10.6,3-14.6-1.1l-17-16.8L165.6,196l16.8,17
		c3.7,3.7,4.3,9.6,1.4,14.1c-6,9.1-11.2,18.7-15.4,28.8c-4.1,9.7-7.2,19.8-9.3,30.2c-0.7,5.5-5.4,10-11,10h-24v50.5H148
		c5.3,0,9.9,3.7,10.9,8.9c2.1,10.6,5.4,21,9.6,31c4.1,9.9,9.1,19.3,15,28.3c3.3,4.3,3,10.6-1.1,14.6l-17,17l35.6,35.6l17-17
		c3.7-3.7,9.6-4.3,14.1-1.5l15.6,9.2c0.1-6,5.1-10.8,11.2-10.8h2.4c-4.7-17.9-13.9-36.4-23-54.8c-6.7-13.7-13.5-27.2-18.8-41.1
		c-3.1-7.2-5.6-14.8-7.4-22.7c-15.4-72.7,40-141,114.2-141c74.3,0,129.6,68.3,114.2,141c-1.7,7.9-4.1,15.5-7.4,22.7
		c-5.3,13.9-12.1,27.5-18.8,41.1c-9.2,18.4-18.3,36.9-23,54.8h2.4C399.7,462,404.7,466.9,404.8,472.8z M352.4,588.1h-52.2v10.4
		c0,8,6.7,14.7,14.7,14.7h22.6c8,0,14.7-6.7,14.7-14.7v-10.4H352.4z"/>
</g>
</svg>
