<?xml version="1.0" encoding="utf-8"?>
<!-- Generator: Adobe Illustrator 24.2.3, SVG Export Plug-In . SVG Version: 6.00 Build 0)  -->
<svg version="1.1" id="Layer_1" xmlns="http://www.w3.org/2000/svg" xmlns:xlink="http://www.w3.org/1999/xlink" x="0px" y="0px"
	 viewBox="0 0 657 656" style="enable-background:new 0 0 657 656;" xml:space="preserve">
<style type="text/css">
	.st0{fill:#FFFFFF;}
	.st1{clip-path:url(#SVGID_2_);}
	.st2{clip-path:url(#SVGID_4_);}
	.st3{clip-path:url(#SVGID_6_);}
	.st4{fill:none;}
	.st5{fill-rule:evenodd;clip-rule:evenodd;}
	.st6{clip-path:url(#SVGID_8_);}
	.st7{clip-path:url(#SVGID_10_);}
	.st8{clip-path:url(#SVGID_12_);}
	.st9{clip-path:url(#SVGID_14_);}
	.st10{clip-path:url(#SVGID_16_);}
	.st11{clip-path:url(#SVGID_18_);}
</style>
<g>
	<rect x="371.3" y="378.1" class="st0" width="107" height="78.5"/>
	<path d="M649.9,275.4L602.4,257c-6.6-25.4-16.7-49.6-29.9-72.2l20.6-46.6c1.7-4,0.9-8.7-2.3-11.8l-60.7-60.7c-3-3-7.8-4-11.8-2.2
		L471.8,84c-22.6-13.1-46.8-23.2-72.1-29.8L381.3,6.7c-1.5-4.1-5.4-6.7-9.8-6.7h-86c-4.4,0-8.3,2.6-9.9,6.7l-18.3,47.5
		c-25.4,6.6-49.6,16.7-72.2,29.9l-46.4-20.6c-4-1.7-8.7-0.9-11.8,2.3l-60.7,60.7c-3,3-4,7.8-2.3,11.8l20.6,46.6
		c-13.2,22.6-23.3,46.8-29.9,72.1L7.1,275.4c-4.1,1.5-6.7,5.4-6.7,9.8v86c0,4.4,2.6,8.3,6.7,9.9l47.5,18.3
		c6.6,25.4,16.7,49.6,29.9,72.2L63.9,518c-1.7,4-0.9,8.7,2.3,11.8l60.7,60.7c3,3,7.8,4,11.8,2.3l46.6-20.6
		c22.6,13.4,46.8,23.4,72.3,29.9l18.3,47.5c1.6,4.1,5.6,6.7,9.9,6.7h86c4.4,0,8.3-2.6,9.9-6.7l18.3-47.5
		c25.4-6.6,49.6-16.7,72.2-29.9l46.6,20.6c4,1.7,8.7,0.9,11.8-2.3l60.7-60.7c3-3,4-7.8,2.2-11.8l-20.6-46.6
		c13.4-22.6,23.4-46.8,29.9-72.3l47.5-18.3c4.1-1.6,6.7-5.6,6.7-9.9v-86C656.7,280.8,654,276.8,649.9,275.4z M635.5,363.9
		l-45.8,17.6c-3.3,1.2-5.7,4-6.5,7.4c-6.4,27-17.1,52.7-31.6,76.2c-1.9,2.9-2.1,6.6-0.7,9.8l20,45l-50.6,50.5l-45-19.8
		c-3.2-1.5-6.9-1.2-9.8,0.7c-23.7,14.6-49.4,25.1-76.2,31.6c-3.4,0.8-6.2,3.2-7.4,6.5l-17.7,45.8h-71.5l-17.6-45.8
		c-1.2-3.3-4-5.7-7.4-6.5c-27-6.4-52.7-17.1-76.2-31.6c-2.9-1.9-6.6-2.1-9.8-0.7l-45,20L86.2,520l19.8-45c1.5-3.2,1.2-6.9-0.7-9.8
		c-14.6-23.7-25.1-49.4-31.6-76.2c-0.8-3.4-3.2-6.2-6.5-7.4l-45.8-17.7v-71.5l45.8-17.6c3.3-1.2,5.7-4,6.5-7.4
		c6.4-27,17.1-52.7,31.6-76.2c1.9-2.9,2.1-6.6,0.7-9.8l-19.8-45.1l50.4-50.4l45,20c3.2,1.5,6.9,1.2,9.8-0.7
		c23.7-14.6,49.4-25.1,76.2-31.6c3.4-0.8,6.2-3.2,7.4-6.5l17.7-45.9h71.5L381.8,67c1.2,3.3,4,5.7,7.4,6.5
		c27,6.4,52.7,17.1,76.2,31.6c2.9,1.9,6.6,2.1,9.8,0.7l45-20l50.5,50.6l-19.8,45c-1.5,3.2-1.2,6.9,0.7,9.8
		c14.6,23.7,25.1,49.4,31.6,76.2c0.8,3.4,3.2,6.2,6.5,7.4l45.8,17.7V363.9z M328.5,93C198.8,93,93.4,198.5,93.4,328.2
		s105.5,235.1,235.1,235.1s235.1-105.5,235.1-235.1S458.2,93,328.5,93z M328.5,542.1c-118,0-214-95.9-214-214s95.9-214,214-214
		s214,95.9,214,214S446.5,542.1,328.5,542.1z M272.5,295.2l10.9-10.9c1.1-1.1,1.1-2.6,0-3.7c-1.1-1.1-2.6-1.1-3.7,0l-10.9,10.9
		L258,280.7c-1.1-1.1-2.6-1.1-3.7,0c-1.1,1.1-1.1,2.6,0,3.7l10.9,10.9l-10.9,10.9c-1.1,1.1-1.1,2.6,0,3.7c0.5,0.5,1.2,0.8,1.9,0.8
		c0.7,0,1.3-0.3,1.9-0.8l10.9-10.9l10.9,10.9c0.5,0.5,1.2,0.8,1.8,0.8c0.7,0,1.3-0.3,1.9-0.8c1.1-1.1,1.1-2.6,0-3.7L272.5,295.2z
		 M272.5,334.1l10.9-10.9c1.1-1.1,1.1-2.6,0-3.7c-1.1-1.1-2.6-1.1-3.7,0l-10.9,10.9L258,319.6c-1.1-1.1-2.6-1.1-3.7,0
		c-1.1,1.1-1.1,2.6,0,3.7l10.9,10.9L254.3,345c-1.1,1.1-1.1,2.6,0,3.7c0.5,0.5,1.2,0.8,1.9,0.8c0.7,0,1.3-0.3,1.9-0.8l10.9-10.9
		l10.9,10.9c0.5,0.5,1.2,0.8,1.8,0.8c0.7,0,1.3-0.3,1.9-0.8c1.1-1.1,1.1-2.6,0-3.7L272.5,334.1z M243.2,319.6
		c-1.1-1.1-2.6-1.1-3.7,0l-10.9,10.9l-10.9-10.9c-1.1-1.1-2.6-1.1-3.7,0c-1.1,1.1-1.1,2.6,0,3.7l10.9,10.9L214,345
		c-1.1,1.1-1.1,2.6,0,3.7c0.5,0.5,1.2,0.8,1.8,0.8c0.7,0,1.3-0.3,1.9-0.8l10.9-10.9l10.9,10.9c0.5,0.5,1.2,0.8,1.9,0.8
		c0.7,0,1.3-0.3,1.8-0.8c1.1-1.1,1.1-2.6,0-3.7l-10.9-10.9l10.9-10.9C244.2,322.2,244.2,320.6,243.2,319.6z M272.5,373.4l10.9-10.9
		c1.1-1.1,1.1-2.6,0-3.7c-1.1-1.1-2.6-1.1-3.7,0l-10.9,10.9L258,358.9c-1.1-1.1-2.6-1.1-3.7,0c-1.1,1.1-1.1,2.6,0,3.7l10.9,10.9
		l-10.9,10.9c-1.1,1.1-1.1,2.6,0,3.7c0.5,0.5,1.2,0.8,1.9,0.8c0.7,0,1.3-0.3,1.9-0.8l10.9-10.9l10.9,10.9c0.5,0.5,1.2,0.8,1.8,0.8
		c0.7,0,1.3-0.3,1.9-0.8c1.1-1.1,1.1-2.6,0-3.7L272.5,373.4z M329.6,271.3c-1.5,0-2.6,1.2-2.6,2.6v12.7c0,1.5,1.2,2.6,2.6,2.6
		c1.5,0,2.6-1.2,2.6-2.6v-12.7C332.1,272.4,331,271.3,329.6,271.3z M302.7,344.6h16.7c3.8,68,6.9,68,10.2,68c3.3,0,6.4,0,10.2-68
		h16.5c1.5,0,2.6-1.2,2.6-2.6c0-1.5-1.2-2.6-2.6-2.6h-53.7c-1.5,0-2.6,1.2-2.6,2.6C300.1,343.4,301.2,344.6,302.7,344.6z
		 M329.6,401.9c-1.2-7.4-3-23.2-5-57.3h9.9C332.5,378.6,330.7,394.5,329.6,401.9z M491.1,363h-7.7c-4,0-7.3,3.3-7.3,7.3v2.1h-9.9
		v-50.4c0-12.6-10.3-22.9-22.9-22.9h-1.1c-12.3-45.8-48.3-82.3-95.8-94.6V189h8.1v3.7c0,3.2,2.6,5.8,5.8,5.8h6.2
		c3.2,0,5.8-2.6,5.8-5.8v-12.6c0-3.2-2.6-5.8-5.8-5.8h-6.3c-3.2,0-5.8,2.6-5.8,5.8v3.7h-8.1v-11.4c0-3.2-2.6-5.8-5.8-5.8h-11.4
		c-3.2,0-5.8,2.6-5.8,5.8v11.4h-20.8v-11.4c0-3.2-2.6-5.8-5.8-5.8h-11.4c-3.2,0-5.8,2.6-5.8,5.8v11.4h-8.1v-3.7
		c0-3.2-2.6-5.8-5.8-5.8h-6.2c-3.2,0-5.8,2.6-5.8,5.8v12.6c0,3.2,2.6,5.8,5.8,5.8h6.2c3.2,0,5.8-2.6,5.8-5.8V189h8.1v15.5
		c-59.3,15.2-100.4,68.3-100.4,129.8c0,73.8,60.1,134,134,134c12.3,0,24.5-1.7,36.3-4.9c0.9,2.9,3.7,4.9,6.9,4.9h7.7
		c4,0,7.3-3.3,7.3-7.3v-2.1h105.2v2.1c0,2,0.8,3.8,2.1,5.2c1.3,1.3,3.2,2.1,5.2,2.1h7.7c4,0,7.3-3.3,7.3-7.3v-90.8
		C498.4,366.3,495.1,363,491.1,363z M359.7,180.2c0-0.4,0.3-0.7,0.7-0.7h6.2c0.4,0,0.7,0.3,0.7,0.7v12.6c0,0.4-0.3,0.7-0.7,0.7h-6.3
		c-0.4,0-0.7-0.3-0.7-0.7v-12.6H359.7z M266.2,192.7c0,0.4-0.3,0.7-0.7,0.7h-6.2c-0.4,0-0.7-0.3-0.7-0.7v-12.6
		c0-0.4,0.3-0.7,0.7-0.7h6.2c0.4,0,0.7,0.3,0.7,0.7V192.7z M476.2,416.2l-37.4,37.4H408l68.1-68.1V416.2z M476.2,378.2l-75.6,75.6
		h-29.4l76.1-76.1h28.8V378.2z M439.9,377.6L371,446.6v-28.3l40.6-40.6H439.9z M371,410.9v-33.2h33.2L371,410.9z M461.1,321.9v50.4
		h-38.5c4.2-12.2,6.5-25,6.5-38.1c0-10.2-1.3-20.2-4-30h13.1c2.2,9.7,3.6,19.7,3.6,30c0,9.3-0.9,18.5-2.9,27.4c-0.3,1.5,0.5,2.8,2,3
		c0.1,0,0.4,0,0.5,0c1.2,0,2.2-0.8,2.5-2.1c2-9.3,3-18.9,3-28.6c0-10.3-1.2-20.4-3.4-30C453.2,304.3,461.1,312.3,461.1,321.9z
		 M329.2,171.8h11.4c0.4,0,0.7,0.3,0.7,0.7v34.1c0,1.2,0.8,2.2,2,2.5c46.2,11.1,81.2,46,93.7,90h-13.4c-7.3-22.9-21.7-43.4-41.3-58
		c-1.2-0.8-2.8-0.7-3.7,0.5c-0.8,1.2-0.7,2.8,0.5,3.7c18.7,13.9,32,32.6,39,53.7h-27.8c-9.8,0-17.7-7.9-17.7-17.7v-31
		c0-12.6-10.3-22.9-22.9-22.9c-12.6,0-22.9,10.3-22.9,22.9v0.8c-6.2,2.2-10.3,12.6-10.3,27.3c0,5.7,0.7,24.3,1.6,45.2h-15.6
		c-1.5,0-2.6,1.2-2.6,2.6c0,1.5,1.2,2.6,2.6,2.6h53.9c1.5,0,2.6-1.2,2.6-2.6c0-1.5-1.2-2.6-2.6-2.6h-15.6
		c0.9-20.9,1.6-39.6,1.6-45.2c0-14.7-4-25-10.3-27.3v-0.8c0-9.8,7.9-17.7,17.7-17.7c9.8,0,17.7,7.9,17.7,17.7v31
		c0,12.6,10.3,22.9,22.9,22.9h29.4c2.6,9.7,4.1,19.7,4.1,30c0,13.1-2.2,25.9-6.7,38.1h-46v-2.1c0-4-3.3-7.3-7.3-7.3H356
		c-4,0-7.3,3.3-7.3,7.3v69.1c-11.5,4-23.6,5.9-35.9,5.9c-61.1,0-110.9-49.8-110.9-110.9c0-61.1,49.8-110.9,110.9-110.9
		c6.4,0,12.7,0.5,18.9,1.6c1.5,0.3,2.8-0.7,3-2.1c0.3-1.5-0.7-2.8-2.1-3c-1.3-0.3-2.8-0.4-4.2-0.7v-46.8
		C328.5,172,328.8,171.8,329.2,171.8z M335.5,323.7h-12c-1.1-20.9-1.6-39.6-1.6-45.2c0-15.4,4.6-22.5,7.7-22.5c3,0,7.7,7.1,7.7,22.5
		C337.2,284.1,336.6,302.8,335.5,323.7z M323.3,189.1v29.6c-3.4-0.3-6.9-0.5-10.5-0.5c-3.6,0-7,0.1-10.5,0.5v-29.6H323.3z
		 M347.7,458.4c-11.3,3.2-23,4.8-34.8,4.8c-71.1,0-128.7-57.8-128.7-128.7c0-59.7,40.5-111.3,98.4-125.2c1.2-0.3,2-1.3,2-2.5v-34.1
		c0-0.4,0.3-0.7,0.7-0.7h11.4c0.4,0,0.7,0.3,0.7,0.7v46.8c-56.6,7.7-100.4,56.2-100.4,115c0,64,52.1,116,116,116
		c12.3,0,24.3-2,35.9-5.7v13.5C348.3,458.2,348.1,458.2,347.7,458.4z M365.8,461c0,1.2-0.9,2.1-2.1,2.1H356c-1.2,0-2.1-0.9-2.1-2.1
		v-90.8c0-1.2,0.9-2.1,2.1-2.1h7.7c1.2,0,2.1,0.9,2.1,2.1V461z M446,453.6l30.2-30.2v30.2H446z M493.2,461c0,1.2-0.9,2.1-2.1,2.1
		h-7.7c-0.5,0-1.1-0.3-1.5-0.7c-0.4-0.4-0.7-0.9-0.7-1.5v-90.8c0-1.2,0.9-2.1,2.1-2.1h7.7c1.2,0,2.1,0.9,2.1,2.1V461z"/>
</g>
</svg>
