<?xml version="1.0" encoding="utf-8"?>
<!-- Generator: Adobe Illustrator 24.2.3, SVG Export Plug-In . SVG Version: 6.00 Build 0)  -->
<svg version="1.1" id="Layer_1" xmlns="http://www.w3.org/2000/svg" xmlns:xlink="http://www.w3.org/1999/xlink" x="0px" y="0px"
	 viewBox="0 0 653 653" style="enable-background:new 0 0 653 653;" xml:space="preserve">
<style type="text/css">
	.st0{fill:#FFFFFF;}
	.st1{clip-path:url(#SVGID_2_);}
	.st2{clip-path:url(#SVGID_4_);}
	.st3{clip-path:url(#SVGID_6_);}
	.st4{fill:none;}
	.st5{fill-rule:evenodd;clip-rule:evenodd;}
	.st6{clip-path:url(#SVGID_8_);}
	.st7{clip-path:url(#SVGID_10_);}
	.st8{clip-path:url(#SVGID_12_);}
	.st9{clip-path:url(#SVGID_14_);}
	.st10{clip-path:url(#SVGID_16_);}
	.st11{clip-path:url(#SVGID_18_);}
</style>
<g>
	<defs>
		<rect id="SVGID_7_" x="-0.9" y="-0.5" width="653.9" height="653.9"/>
	</defs>
	<clipPath id="SVGID_2_">
		<use xlink:href="#SVGID_7_"  style="overflow:visible;"/>
	</clipPath>
	<g class="st1">
		<g>
			<defs>
				<rect id="SVGID_9_" x="-0.9" y="-0.5" width="653.9" height="653.9"/>
			</defs>
			<clipPath id="SVGID_4_">
				<use xlink:href="#SVGID_9_"  style="overflow:visible;"/>
			</clipPath>
			<g class="st2">
				<circle cx="138.7" cy="111.9" r="17"/>
				<circle cx="203.4" cy="60.9" r="13.6"/>
				<circle cx="326" cy="26.8" r="13.6"/>
				<circle cx="448.7" cy="60.9" r="13.6"/>
				<circle cx="513.4" cy="111.9" r="17"/>
				<path d="M142.3,396.4c-7.3-7.9-17.2-12.3-27.8-12.3c-10.6,0-20.5,4.3-27.8,12.3c-4,4.2-6.8,9.1-8.7,14.4
					c-0.7-3.7-1.1-7.5-1.1-11.4V257.9c0-22.8-17.5-41.4-38.9-41.4c-21.5,0-39,18.6-39,41.4v198.6c0,17.9,6,33.5,17.8,46.3l75.4,81.4
					v61.2c0,4.5,3.7,8.1,8.2,8.1h117.9c4.4,0,8.1-3.7,8.1-8.1V503.4c0.4-10.3-3-19.5-9.7-26.9L142.3,396.4z M210.2,503.3v133.9
					H108.6V581c0-2-0.8-4.1-2.2-5.6l-77.6-83.7c-9.1-9.8-13.4-21.3-13.4-35.1V257.9c0-13.8,10.1-25.1,22.7-25.1
					c12.5,0,22.6,11.3,22.6,25.1v141.5c0,17.9,6,33.5,17.8,46.3l8.2,8.8c0,0,0,0,0.1,0.1l55.2,59.6c3,3.3,8.3,3.5,11.6,0.4
					c3.2-3,3.5-8.1,0.4-11.5l-55.2-59.7c-9-9.8-9-26.2,0.1-36c4.2-4.6,9.9-7.1,15.9-7.1s11.6,2.6,15.9,7.1l74.3,80.2
					c4,4.2,5.7,9.2,5.4,15.3v0.4H210.2z M614,216.5c-21.4,0-38.9,18.6-38.9,41.4v141.5c0,3.9-0.4,7.7-1.1,11.4
					c-1.9-5.3-4.8-10.2-8.7-14.4c-7.3-7.9-17.2-12.3-27.8-12.3c-10.6,0-20.4,4.3-27.8,12.3l-74.4,80.2c-6.7,7.3-10.1,16.6-9.7,26.9
					v141.9c0,4.5,3.7,8.1,8.1,8.1h117.9c4.5,0,8.2-3.7,8.2-8.1v-61.2l75.4-81.4C647,490,653,474.4,653,456.5V257.9
					C653,235.1,635.5,216.5,614,216.5z M636.7,456.5c0,13.8-4.4,25.4-13.4,35.1l-77.6,83.7c-1.4,1.5-2.2,3.5-2.2,5.6v56.3H441.9
					V503.3c0-0.1,0-0.3,0-0.3c-0.3-6.1,1.5-11.1,5.4-15.3l74.3-80.2c4.2-4.6,9.9-7.1,15.9-7.1s11.5,2.6,15.9,7.1
					c9,9.8,9.1,26.2,0.1,36l-55.2,59.7c-2.9,3.3-2.8,8.4,0.4,11.5c3.3,3.1,8.4,2.8,11.6-0.4l55-59.6c0,0,0,0,0.1-0.1l8.2-8.8
					c11.8-12.8,17.8-28.4,17.8-46.3V257.9c0-13.8,10.1-25.1,22.6-25.1c12.5,0,22.7,11.3,22.7,25.1V456.5z M432.8,428.8l-31.1-22.2
					c-9.6,5.3-19.8,9.5-30.4,12.6l-6.2,37.7c-0.7,3.9-4.1,6.8-8,6.8H295c-4,0-7.4-2.8-8-6.8l-6.2-37.7c-10.6-3.1-20.8-7.3-30.4-12.6
					l-31.1,22.2c-3.3,2.3-7.8,1.9-10.5-0.8l-43.9-44c-2.9-2.8-3.1-7.3-0.8-10.4l22.3-31.1c-5.3-9.6-9.5-19.8-12.7-30.4l-37.7-6.2
					c-4-0.7-6.8-4.1-6.8-8v-62.3c0-3.9,2.9-7.3,6.8-8l37.7-6.2c3.7-12.2,8.7-24,15.2-35c2.3-3.9,7.4-5.2,11.2-2.9
					c3.9,2.3,5.1,7.3,2.9,11.1c-6.7,11.3-11.7,23.5-15,36.1c-0.8,3.1-3.3,5.4-6.5,6l-36.1,6V291l36.1,6c3.1,0.5,5.7,2.8,6.5,6
					c3.3,12.6,8.3,24.7,15,36.1c1.6,2.7,1.4,6.2-0.4,8.8l-21.3,29.7l34.2,34.2l29.7-21.3c2.6-1.9,6.1-2,8.8-0.4
					c11.3,6.6,23.5,11.7,36.1,14.9c3.1,0.8,5.4,3.4,6,6.5l5.9,36h48.4l5.9-36c0.5-3.1,2.9-5.7,6-6.5c12.6-3.3,24.7-8.3,36.1-14.9
					c2.7-1.6,6.2-1.5,8.8,0.4l29.7,21.3l34.2-34.2l-21.3-29.7c-1.8-2.6-2-6.1-0.4-8.8c6.7-11.3,11.7-23.5,15-36.1
					c0.8-3.1,3.3-5.4,6.5-6l36-6v-48.3l-36-6c-3.1-0.5-5.7-2.8-6.5-6c-3.3-12.6-8.3-24.7-15-36.1c-2.2-3.9-0.9-8.8,2.9-11.1
					c3.8-2.3,8.9-0.9,11.2,2.9c6.5,11,11.5,22.8,15.2,35l37.7,6.2c4,0.7,6.8,4.1,6.8,8v62.1c0,3.9-2.9,7.3-6.8,8l-37.7,6.2
					c-3.1,10.6-7.4,20.8-12.7,30.4l22.3,31.1c2.3,3.3,1.9,7.7-0.8,10.4l-43.9,44C440.5,430.8,436.1,431.1,432.8,428.8z M139.5,138.2
					c7.1,0,13.5-2.7,18.2-7.2l72.6,41v49c-6.7,13.8-10.5,29.4-10.5,45.9c0,58.5,47.7,106.1,106.1,106.1
					c58.4,0,106.1-47.6,106.1-106.1c0-16.4-3.8-31.9-10.5-45.9v-49l72.6-41c4.7,4.5,11.1,7.2,18.2,7.2c14.8,0,26.8-12.1,26.8-26.9
					c0-14.8-12.1-26.9-26.8-26.9c-14.8,0-26.9,12.1-26.9,26.9c0,1.9,0.1,3.7,0.5,5.4L409.4,160c-2.6,1.5-4.1,4.2-4.1,7.1v29.2
					c-4.9-5.6-10.3-10.4-16.1-14.9v-60.5l42.2-36.6c4,2.4,8.8,3.9,13.8,3.9c14.8,0,26.8-12.1,26.8-26.9c0-14.8-12.1-26.9-26.8-26.9
					c-14.8,0-26.9,12.1-26.9,26.9c0,3.8,0.8,7.3,2.2,10.6l-44.9,39.1c-1.8,1.5-2.9,3.8-2.9,6.1v54.4c-3.8-1.9-7.6-3.5-11.5-4.9
					v-49.4c0-4.5-3.7-8.1-8.2-8.1c-4.4,0-8.1,3.7-8.1,8.1v45.2c-3.7-0.7-7.4-1.1-11-1.5V51.9c10.8-3.4,18.7-13.6,18.7-25.5
					c0.1-14.8-11.8-26.9-26.6-26.9c-14.8,0-26.8,12.1-26.8,26.9c0,11.9,7.8,22.1,18.7,25.5V161c-3.7,0.3-7.4,0.8-11,1.5v-45.3
					c0-4.5-3.7-8.1-8.1-8.1c-4.5,0-8.2,3.7-8.2,8.1v49.5c-4,1.4-7.8,3-11.5,4.9v-54.4c0-2.3-1.1-4.6-2.9-6.1L231.4,72
					c1.4-3.3,2.2-6.8,2.2-10.6c0-14.8-12.1-26.9-26.9-26.9c-14.8,0-26.8,12.1-26.8,26.9c0,14.8,12.1,26.9,26.8,26.9
					c5.2,0,9.8-1.5,13.8-3.9l42.2,36.6v60.6c-6,4.3-11.2,9.4-16.1,14.9v-29.2c0-3-1.6-5.7-4.2-7.1L165.7,117
					c0.4-1.8,0.5-3.7,0.5-5.4c0-14.8-12.1-26.9-26.9-26.9c-14.8,0-26.8,12.1-26.8,26.9C112.5,126.4,124.7,138.2,139.5,138.2z
					 M512.6,100.9c5.8,0,10.6,4.7,10.6,10.6c0,5.8-4.8,10.6-10.6,10.6c-5.9,0-10.6-4.7-10.6-10.6C502,105.6,506.8,100.9,512.6,100.9
					z M445.5,50.8c5.8,0,10.6,4.7,10.6,10.6c0,5.8-4.8,10.6-10.6,10.6c-5.9,0-10.6-4.7-10.6-10.6C434.8,55.6,439.6,50.8,445.5,50.8z
					 M206.6,71.9c-5.8,0-10.6-4.7-10.6-10.6c0-5.8,4.8-10.6,10.6-10.6c5.9,0,10.6,4.7,10.6,10.6C217.3,67.1,212.5,71.9,206.6,71.9z
					 M270.8,237.6c1.4,9.2,2.2,19,2.2,29c0,10-0.7,19.8-2.2,29c-21.7-7.3-34.7-18.6-34.7-29C236.1,256.2,249.1,245,270.8,237.6z
					 M415.9,266.7c0,10.4-13.1,21.7-34.6,29c-1.4-9.2-2.2-19-2.2-29c0-10,0.7-19.8,2.2-29C402.8,245,415.9,256.2,415.9,266.7z
					 M365.4,300c-9.5,2-20,3.4-31.2,3.8v-74.3c11.4,0.4,21.8,1.8,31.2,3.8c-1.8,10.6-2.6,21.8-2.6,33.4
					C362.8,278.2,363.8,289.5,365.4,300z M317.9,356.2c-16-1.5-30.8-7.1-43.3-15.7c3.5-7.3,6.4-15.5,8.7-24.4
					c10.8,2.3,22.5,3.8,34.5,4.2V356.2z M334.2,320.3c12.1-0.4,23.7-1.9,34.5-4.2c2.3,9,5.2,17.1,8.7,24.4
					c-12.5,8.7-27.2,14.4-43.3,15.7V320.3z M317.9,304c-11.4-0.4-21.8-1.8-31.2-3.8c1.8-10.6,2.6-21.8,2.6-33.4
					c0-11.5-1-22.8-2.6-33.4c9.4-2,20-3.4,31.2-3.8V304z M242.9,300.6c3.3,2,6.7,3.9,10.4,5.7c4.5,2,9.3,3.9,14.4,5.6
					c-1.6,6.4-3.5,12.2-5.9,17.6C253.7,321.2,247.2,311.4,242.9,300.6z M390.3,329.5c-2.3-5.4-4.2-11.3-5.9-17.6
					c5-1.6,9.9-3.5,14.4-5.6c3.7-1.8,7.3-3.7,10.4-5.7C404.9,311.4,398.4,321.2,390.3,329.5z M409.2,232.9c-3.3-2-6.7-3.9-10.4-5.7
					c-4.5-2-9.3-3.9-14.4-5.6c1.6-6.4,3.5-12.2,5.9-17.6C398.4,212.3,404.9,222,409.2,232.9z M377.3,193c-3.4,7.3-6.4,15.5-8.7,24.4
					c-10.8-2.3-22.5-3.8-34.5-4.2v-36C350.2,178.6,364.9,184.3,377.3,193z M326,15.8c5.9,0,10.6,4.7,10.6,10.6
					c0,5.8-4.7,10.6-10.6,10.6c-5.9,0-10.6-4.7-10.6-10.6C315.5,20.6,320.2,15.8,326,15.8z M317.9,213.2
					c-12.1,0.4-23.7,1.9-34.5,4.2c-2.3-9-5.2-17.1-8.7-24.4c12.5-8.7,27.2-14.4,43.3-15.7V213.2z M261.7,204
					c2.3,5.4,4.2,11.3,5.9,17.6c-5,1.6-9.9,3.5-14.4,5.6c-3.7,1.8-7.3,3.7-10.4,5.7C247.2,222,253.7,212.3,261.7,204z M139.5,100.9
					c5.9,0,10.6,4.7,10.6,10.6c0,5.8-4.8,10.6-10.6,10.6c-5.8,0-10.6-4.7-10.6-10.6C128.9,105.6,133.7,100.9,139.5,100.9z"/>
			</g>
		</g>
	</g>
</g>
</svg>
