<?xml version="1.0" encoding="utf-8"?>
<!-- Generator: Adobe Illustrator 24.2.3, SVG Export Plug-In . SVG Version: 6.00 Build 0)  -->
<svg version="1.1" id="Layer_1" xmlns="http://www.w3.org/2000/svg" xmlns:xlink="http://www.w3.org/1999/xlink" x="0px" y="0px"
	 viewBox="0 0 657 658" style="enable-background:new 0 0 657 658;" xml:space="preserve">
<style type="text/css">
	.st0{fill:#FFFFFF;}
	.st1{clip-path:url(#SVGID_2_);}
	.st2{clip-path:url(#SVGID_4_);}
	.st3{clip-path:url(#SVGID_6_);}
	.st4{fill:none;}
	.st5{fill-rule:evenodd;clip-rule:evenodd;}
	.st6{clip-path:url(#SVGID_8_);}
	.st7{clip-path:url(#SVGID_10_);}
	.st8{clip-path:url(#SVGID_12_);}
	.st9{clip-path:url(#SVGID_14_);}
	.st10{clip-path:url(#SVGID_16_);}
	.st11{clip-path:url(#SVGID_18_);}
</style>
<g>
	<defs>
		<rect id="SVGID_11_" x="-0.2" y="0.6" width="657.4" height="657.4"/>
	</defs>
	<clipPath id="SVGID_2_">
		<use xlink:href="#SVGID_11_"  style="overflow:visible;"/>
	</clipPath>
	<g class="st1">
		<g>
			<defs>
				<rect id="SVGID_13_" x="-0.2" y="0.6" width="657.4" height="657.4"/>
			</defs>
			<clipPath id="SVGID_4_">
				<use xlink:href="#SVGID_13_"  style="overflow:visible;"/>
			</clipPath>
			<g class="st2">
				<path d="M635.5,181.2h21.7v-63.6h-21.7c-8.2,0-15.6-4.9-19-13c-3.2-7.7-1.5-16.4,4.4-22.3l15.4-15.5l-44.9-44.9L576,37.3
					c-5.8,5.8-14.6,7.6-22.7,4.1c-7.7-3.2-12.6-10.5-12.6-18.8V1h-63.6v21.7c0,8.2-4.9,15.6-13,19c-7.7,3.2-16.4,1.5-22.3-4.4
					l-15.4-15.4L381.4,67l15.4,15.4c5.8,5.8,7.6,14.6,4.1,22.7c-3.2,7.7-10.5,12.6-18.8,12.6h-21.7v23.9
					c-10.5-1.7-21.1-2.7-31.8-2.7c-41.9,0-82.8,14.1-116,39.5c-22.3-10.6-48.2-18.3-74.9-18.3C66.9,160-0.2,214.1-0.2,234.3
					c0,20.1,67.1,74.2,137.8,74.2c0.4,0,0.9,0,1.3,0c-0.8,7-1.3,14.2-1.3,21.2c0,64.2,32.3,95.7,63.6,126.2
					c17.2,16.8,33.5,32.9,44.4,54.1H74c-41,0-74.2,33.3-74.2,74.2s33.3,74.2,74.2,74.2h447.5l119.4-49.7
					c9.9-4.1,16.3-13.8,16.3-24.5c0-10.7-6.4-20.3-16.3-24.5L521.5,510h-110c10.9-21.2,27.2-37.4,44.4-54.1
					c31.3-30.5,63.6-62,63.6-126.2c0-10.7-0.9-21.3-2.7-31.8h23.9v-21.7c0-8.2,4.9-15.6,13-19c7.7-3.2,16.4-1.5,22.3,4.4l15.4,15.4
					l45.1-45.1L621,216.5c-5.8-5.8-7.6-14.6-4.1-22.7C619.8,186.1,627.1,181.2,635.5,181.2z M84.6,234.3c0-29.3,23.7-53,53-53
					c29.3,0,53,23.7,53,53c0,29.3-23.7,53-53,53C108.3,287.3,84.6,263.5,84.6,234.3z M201.3,196.2c27.7,12.9,47.2,30.6,52.2,38
					c-5,7.4-24.5,25.2-52.2,38c6.6-11.1,10.6-24.1,10.6-38S207.9,207.3,201.3,196.2z M21.8,234.3c5-7.4,24.5-25.2,52.2-38
					c-6.6,11.1-10.6,24.1-10.6,38s4,26.9,10.6,38C46.3,259.4,26.8,241.7,21.8,234.3z M296.4,389.3l-24.9-33.1
					c-4.2-5.7-6.6-12.9-6.6-20c0-6.5,3.6-12.5,9.5-15.4c2.4-1.2,5-1.9,7.7-1.9c8,0,15.9,1.9,23.1,5.4l15,7.4l8.5-8.5l8.5,8.5l15-7.4
					c7.2-3.6,15.1-5.4,23.1-5.4c2.7,0,5.3,0.7,7.7,1.9c5.8,2.9,9.5,8.7,9.5,15.4c0,7.2-2.4,14.3-6.6,20l-24.9,33.1L350.8,510h-11.7
					V361.5h-21.2V510h-11.4L296.4,389.3z M381.5,531.2c5.8,0,10.6,4.8,10.6,10.6s-4.8,10.6-10.6,10.6h-106
					c-5.8,0-10.6-4.8-10.6-10.6s4.8-10.6,10.6-10.6H381.5z M392.1,584.2c0,5.8-4.8,10.6-10.6,10.6h-106c-5.8,0-10.6-4.8-10.6-10.6
					c0-5.8,4.8-10.6,10.6-10.6h106C387.4,573.6,392.1,578.3,392.1,584.2z M251.9,563c-2.8,3-4.9,6.6-6.4,10.6h-97.3v-42.4h97.4
					c-1.2,3.3-2,6.9-2,10.6C243.7,550,246.9,557.3,251.9,563z M127,637.2h-21.2v-106H127V637.2z M148.2,594.8h97.4
					c3.5,9.8,11.7,17.4,21.7,20c2.9,8.4,7.3,16,13.1,22.4H148.2V594.8z M291.1,616h74.8c-7.7,12.9-21.7,21.2-37.4,21.2
					S298.8,628.9,291.1,616z M389.6,614.8c10.2-2.7,18.3-10.2,21.7-20h97.4v42.4H376.5C382.3,630.8,386.7,623.3,389.6,614.8z
					 M530,536.5l42.4,17.6v60L530,631.9V536.5z M508.8,573.6h-97.4c-1.5-4-3.6-7.6-6.4-10.6c5-5.7,8.2-13,8.2-21.2
					c0-3.7-0.8-7.3-2-10.6h97.5V573.6z M21,584.2c0-29.3,23.7-53,53-53h10.6v106H74C44.7,637.2,21,613.5,21,584.2z M636,584.2
					c0,2.1-1.3,4.1-3.3,4.9l-39.1,16.3V563l39.1,16.3C634.7,580.1,636,582.1,636,584.2z M498.2,329.7c0,55.1-27.8,82.3-57.3,110.9
					c-20.1,19.6-40.8,39.9-52.9,69.3h-16.2l9.4-112.7l21.2-28.2c7-9.4,10.9-20.9,10.9-32.7c0-14.6-8.1-27.8-21.2-34.3
					c-5.3-2.7-11.3-4.1-17.1-4.1c-11.3,0-22.5,2.7-32.5,7.7l-1.3,0.7l-12.7-12.7l-12.7,12.7l-1.3-0.7c-10.1-5-21.2-7.7-32.5-7.7
					c-6,0-11.8,1.5-17.1,4.1c-13.1,6.5-21.2,19.6-21.2,34.3c0,11.7,3.8,23.3,10.9,32.7l21.2,28.2l9.4,112.7H269
					c-12.2-29.4-32.9-49.7-52.9-69.3c-29.4-28.6-57.3-55.8-57.3-110.9c0-7.8,0.7-15.5,1.7-23.1c61.6-9.5,114.9-54.3,114.9-72.4
					c0-10.1-16.8-28.8-42.5-44.8c28-19.1,61.4-29.4,95.6-29.4c10.7,0,21.3,1.3,31.8,3.3v17.9h21.7c8.2,0,15.6,4.9,19,13
					c3.2,7.7,1.5,16.4-4.4,22.3l-15.4,15.4l44.9,45.1l15.5-15.4c5.8-5.8,14.6-7.6,22.7-4.1c7.7,3.2,12.6,10.5,12.6,18.8v21.6h17.9
					C496.8,308.4,498.2,319,498.2,329.7z M596.9,186c-6.5,15.6-3.1,33.5,8.9,45.5l0.4,0.4l-15,15l-0.4-0.4
					c-11.9-11.9-29.8-15.5-45.7-8.8c-15.6,6.4-25.7,21.5-25.7,38.3v0.5h-21.2V276c0-16.8-10.1-31.9-26-38.4
					c-15.6-6.5-33.5-3-45.5,8.9l-0.4,0.4l-15-15l0.4-0.4c11.9-11.9,15.5-29.8,8.8-45.7c-6.4-15.6-21.5-25.7-38.3-25.7h-0.7v-21.2
					h0.5c16.8,0,31.9-10.1,38.4-26c6.5-15.6,3.1-33.5-8.9-45.5l-0.4-0.4l15-15l0.4,0.4c11.9,11.9,29.8,15.4,45.7,8.8
					C488,54.7,498,39.7,498,22.8v-0.7h21.2v0.5c0,16.8,10.1,31.9,26,38.4c15.6,6.5,33.5,3.1,45.5-8.9l0.4-0.4l15,15l-0.4,0.4
					c-11.9,11.9-15.5,29.8-8.8,45.7c6.4,15.6,21.5,25.7,38.3,25.7h0.5v21.2h-0.5C618.5,160,603.5,170.1,596.9,186z"/>
				<path d="M508.8,64.6c-46.8,0-84.8,38-84.8,84.8c0,46.8,38,84.8,84.8,84.8c46.8,0,84.8-38,84.8-84.8
					C593.6,102.6,555.6,64.6,508.8,64.6z M556.1,107h-13.3c-2.4-5.7-5-10.9-7.7-15.5C543.1,95.2,550.3,100.5,556.1,107z
					 M572.4,149.4c0,7.4-1.3,14.6-3.7,21.2h-19.6c1.3-6.6,2.1-13.7,2.1-21.2c0-7.6-0.8-14.6-2.1-21.2h19.6
					C571.1,134.8,572.4,142,572.4,149.4z M490.1,170.6c-1.6-6.5-2.5-13.5-2.5-21.2c0-7.7,0.9-14.7,2.5-21.2h37.2
					c1.6,6.5,2.5,13.5,2.5,21.2c0,7.7-0.9,14.7-2.5,21.2H490.1z M519.2,191.8c-3.6,6.8-7.3,12.2-10.5,16.2c-3.2-4-7-9.4-10.5-16.2
					H519.2z M445.1,149.4c0-7.4,1.3-14.6,3.7-21.2h19.6c-1.3,6.6-2.1,13.7-2.1,21.2c0,7.6,0.8,14.6,2.1,21.2h-19.6
					C446.5,164,445.1,156.8,445.1,149.4z M498.3,107c3.6-6.8,7.3-12.2,10.5-16.2c3.2,4,7,9.4,10.5,16.2H498.3z M482.5,91.5
					c-2.7,4.5-5.4,9.7-7.7,15.5h-13.3C467.3,100.5,474.4,95.2,482.5,91.5z M461.4,191.8h13.3c2.4,5.7,5,10.9,7.7,15.5
					C474.4,203.6,467.3,198.3,461.4,191.8z M535,207.3c2.7-4.5,5.4-9.7,7.7-15.5H556C550.3,198.3,543.1,203.6,535,207.3z"/>
				<path d="M137.6,202.4c-17.5,0-31.8,14.3-31.8,31.8s14.3,31.8,31.8,31.8c17.5,0,31.8-14.3,31.8-31.8S155.1,202.4,137.6,202.4z
					 M137.6,244.9c-5.8,0-10.6-4.8-10.6-10.6s4.8-10.6,10.6-10.6c5.8,0,10.6,4.8,10.6,10.6S143.5,244.9,137.6,244.9z"/>
			</g>
		</g>
	</g>
</g>
</svg>
