<?xml version="1.0" encoding="utf-8"?>
<!-- Generator: Adobe Illustrator 24.2.3, SVG Export Plug-In . SVG Version: 6.00 Build 0)  -->
<svg version="1.1" id="Layer_1" xmlns="http://www.w3.org/2000/svg" xmlns:xlink="http://www.w3.org/1999/xlink" x="0px" y="0px"
	 viewBox="0 0 694 658" style="enable-background:new 0 0 694 658;" xml:space="preserve">
<style type="text/css">
	.st0{fill:#FFFFFF;}
	.st1{clip-path:url(#SVGID_2_);}
	.st2{clip-path:url(#SVGID_4_);}
	.st3{clip-path:url(#SVGID_6_);}
	.st4{fill:none;}
	.st5{fill-rule:evenodd;clip-rule:evenodd;}
	.st6{clip-path:url(#SVGID_8_);}
	.st7{clip-path:url(#SVGID_10_);}
	.st8{clip-path:url(#SVGID_12_);}
	.st9{clip-path:url(#SVGID_14_);}
	.st10{clip-path:url(#SVGID_16_);}
	.st11{clip-path:url(#SVGID_18_);}
</style>
<g>
	<g>
		<defs>
			<rect id="SVGID_17_" x="0.2" y="1.1" width="693.4" height="656.9"/>
		</defs>
		<clipPath id="SVGID_2_">
			<use xlink:href="#SVGID_17_"  style="overflow:visible;"/>
		</clipPath>
		<g class="st1">
			<path d="M40.8,391.2c-1.5,0-3-0.1-4.5-0.5c-6.3-1.6-11-6.6-12.2-13L0.7,262.4c-1.2-5.8,0.7-11.7,5-15.8c4.4-4.1,10.3-5.6,16-4.1
				l8.8,2.3c20.4-77,67.9-143.7,134.3-188.3c4.6-3.1,11-1.9,14.1,2.9c3.1,4.6,1.9,11-2.8,14.1c-64,43-109.4,108.1-127.7,182.9
				c-0.8,3.5-3.1,6.7-6.3,8.6c-3.1,1.9-6.9,2.4-10.4,1.5l-10.1-2.7L42.6,367l69.7-78.9l-12.8-3.4c-7.2-1.9-11.4-9.1-9.8-16.3
				c13.6-57,46.2-108.6,92.1-145.4c46.7-37.7,105.4-58.2,165.1-58.2c54,0,106,16.3,150.4,47c42.3,29.5,74.9,70.1,94.2,117.7
				l40.7-14.8c-22.4-55.8-60.3-103.5-109.8-138.1c-51.6-36.1-112.3-55.1-175.4-55.1c-45.4,0-89.1,9.6-129.8,28.8
				c-5.2,2.4-11.2,0.1-13.6-4.9c-2.4-5.2-0.1-11.1,4.9-13.6C252,11.4,298.6,1.1,346.9,1.1c67.3,0,131.9,20.4,187,58.7
				c53.8,37.5,94.7,89.6,118.4,150.6c1.6,4.3,1.5,9-0.4,13.2c-1.9,4.2-5.3,7.3-9.6,9l-46.9,17.1c-8.7,3.1-18.2-1.1-21.5-9.8
				c-17.7-45.1-48.2-83.6-88.2-111.5c-40.9-28.4-88.8-43.4-138.7-43.4c-55.9,0-108.6,18.5-152.2,53.5c-40.6,32.6-70,77.8-83.4,127.9
				l11.7,3.1c5.7,1.5,10.1,5.8,11.9,11.5c1.8,5.7,0.4,11.7-3.5,16.2l-78,88.3C50.2,389.2,45.6,391.2,40.8,391.2z"/>
			<path d="M346.9,658c-67.3,0-131.9-20.4-187-58.7c-53.8-37.5-94.7-89.6-118.4-150.6c-1.6-4.3-1.5-9,0.4-13.2
				c1.9-4.2,5.3-7.3,9.6-9l46.9-17.1c8.7-3.1,18.2,1.1,21.5,9.8c14.4,36.4,37.5,69.2,67.2,95c4.2,3.7,4.7,10.2,0.9,14.4
				c-3.7,4.2-10.2,4.8-14.4,1c-31.3-27.2-55.9-61.8-71.5-99.9l-40.6,14.8C84,500.4,121.8,548,171.4,582.6
				c51.6,36,112.3,55.1,175.4,55.1c70.3,0,136.4-23.1,191.2-66.9c53.2-42.5,91.4-102.1,107.4-167.9c0.9-3.5,3.1-6.7,6.3-8.6
				c3.1-1.9,6.9-2.4,10.4-1.5l10.1,2.7l-21.2-103.3l-69.7,78.9l12.8,3.4c7.2,1.9,11.4,9.1,9.8,16.3c-13.6,57-46.2,108.6-92.1,145.4
				c-46.6,37.3-105.2,58-164.9,58c-46.1,0-91.5-12.1-131.2-35c-4.9-2.8-6.5-9-3.8-13.8c2.8-4.9,9-6.5,13.8-3.8
				c36.7,21,78.6,32.3,121.2,32.3c55.9,0,108.6-18.5,152.2-53.5c40.6-32.6,70-77.8,83.4-127.9l-11.7-3.1
				c-5.7-1.5-10.1-5.8-11.9-11.5c-1.8-5.7-0.4-11.7,3.5-16.2l77.9-88c4.3-4.9,10.8-6.8,17.1-5.2c6.2,1.6,10.9,6.7,12.2,13
				l23.5,115.3c1.2,5.8-0.7,11.7-5,15.7c-4.4,4.1-10.3,5.6-16,4.1l-8.8-2.3c-18,67.6-57.8,128.6-112.8,172.4
				C492.2,633.3,421.8,658,346.9,658z"/>
			<path d="M443.8,181.6H241.2c-32.4,0-57.8,25.3-57.8,57.6v115.4c0,32.3,25.4,57.6,57.8,57.6h24.9c5.2,0,9.2-4.1,9.2-9.2
				c0-5.2-4-9.2-9.2-9.2h-24.9c-22.1,0-39.4-17.2-39.4-39.1V239.1c0-21.9,17.3-39.1,39.4-39.1h202.6c23.4,0,43.1,17.9,43.1,39.1
				v25.4c0,5.2,4,9.2,9.2,9.2c5.1,0,9.2-4.1,9.2-9.2V239C505.4,207.9,477.2,181.6,443.8,181.6z"/>
			<path d="M331.2,349.7l48-37.5c5.1-3.9,8.2-9.9,8.2-16.3c0-5.7-2.6-11-7.1-14.3l-49.4-37.7c-3.4-2.4-7-3.8-10.8-3.8
				c-9.6,0-17.2,8.4-17.2,19.1v75.2c0,10.7,7.6,19.1,17.2,19.1C323.9,353.6,327.7,352.2,331.2,349.7z M321.3,259.6l47.8,36.3
				c0,0.3-0.1,0.9-1.1,1.6L321.3,334V259.6z"/>
			<path d="M469,413.1c18.5,0,33.6-15.1,33.6-33.7c0-18.6-15-33.7-33.6-33.7c-18.5,0-33.6,15.1-33.6,33.7c0,1.8,0.2,3.5,0.5,5.2
				L387.1,414l-55.3-33.4c-4.3-2.6-10-1.2-12.6,3.1c-2.6,4.3-1.2,10,3.1,12.6l46.9,28.4l-47,28.5c-4.3,2.6-5.7,8.3-3.1,12.6
				c1.8,2.9,4.7,4.5,7.8,4.5c1.7,0,3.3-0.4,4.7-1.4l55.2-33.4l48.5,29.3c0,0.7-0.3,1.5-0.3,2.2c0,18.6,15,33.7,33.6,33.7
				c18.5,0,33.6-15.1,33.6-33.7c0-18.6-15-33.7-33.6-33.7c-11.1,0-20.9,5.4-26.9,13.9l-37.1-22.4l38.9-23.5
				C449.8,408.4,458.8,413.1,469,413.1z M469,364.2c8.4,0,15.2,6.8,15.2,15.2c0,8.4-6.8,15.2-15.2,15.2c-8.4,0-15.2-6.8-15.2-15.2
				C453.8,371,460.6,364.2,469,364.2z M469,452c8.4,0,15.2,6.8,15.2,15.2c0,8.4-6.8,15.2-15.2,15.2c-8.4,0-15.2-6.8-15.2-15.2
				C453.8,458.8,460.6,452,469,452z"/>
		</g>
	</g>
</g>
</svg>
